<svg xmlns="http://www.w3.org/2000/svg" xmlns:xlink="http://www.w3.org/1999/xlink" xmlns:lucid="lucid" width="1000" height="2000"><g transform="translate(0 500)" lucid:page-tab-id="soIHAAyvWbBA"><path d="M0-500h1000v2000H0z" fill="#fff"/><path d="M120 406a6 6 0 0 1 6-6h88a6 6 0 0 1 6 6v8a14.48 14.48 0 0 1-4.24 10.24l-1.52 1.52A14.48 14.48 0 0 1 204 430h-78a6 6 0 0 1-6-6z" fill="#fff"/><path d="M220 400v20l-10 10h-90" stroke="#000" stroke-width="2" fill="none"/><path d="M120 406a6 6 0 0 1 6-6h728a6 6 0 0 1 6 6v888a6 6 0 0 1-6 6H126a6 6 0 0 1-6-6zM120 890h20m15 0h20m15 0h20m15 0h20m15 0h20m15 0h20m15 0h20m15 0h20m15 0h20m15 0h20m15 0h20m15 0h20m15 0h20m15 0h20m15 0h20m15 0h20m15 0h20m15 0h20m15 0h20m15 0h20m15 0h20m15 0h5" stroke="#000" stroke-width="2" fill="none"/><use xlink:href="#a" transform="matrix(1,0,0,1,128,400) translate(0 23.08376736111111)"/><use xlink:href="#b" transform="matrix(1,0,0,1,132,438) translate(0 23.08376736111111)"/><use xlink:href="#c" transform="matrix(1,0,0,1,132,438) translate(95.52951388888886 23.08376736111111)"/><use xlink:href="#d" transform="matrix(1,0,0,1,132,898) translate(0 23.08376736111111)"/><use xlink:href="#e" transform="matrix(1,0,0,1,132,898) translate(134.92838541666663 23.08376736111111)"/><path d="M160 646a6 6 0 0 1 6-6h88a6 6 0 0 1 6 6v8a14.48 14.48 0 0 1-4.24 10.24l-1.52 1.52A14.48 14.48 0 0 1 244 670h-78a6 6 0 0 1-6-6z" fill="#fff"/><path d="M260 640v20l-10 10h-90" stroke="#000" stroke-width="2" fill="none"/><path d="M160 646a6 6 0 0 1 6-6h608a6 6 0 0 1 6 6v188a6 6 0 0 1-6 6H166a6 6 0 0 1-6-6z" stroke="#000" stroke-width="2" fill="none"/><use xlink:href="#f" transform="matrix(1,0,0,1,168,640) translate(0 23.08376736111111)"/><use xlink:href="#g" transform="matrix(1,0,0,1,172,678) translate(0 23.08376736111111)"/><use xlink:href="#h" transform="matrix(1,0,0,1,172,678) translate(75.07421875000001 23.08376736111111)"/><use xlink:href="#i" transform="matrix(1,0,0,1,172,678) translate(97.50130208333334 23.08376736111111)"/><path d="M254.54-60.05v-.2A19.75 19.75 0 0 1 274.3-80a19.75 19.75 0 0 1 19.74 19.75A19.75 19.75 0 0 1 274.3-40.5a19.75 19.75 0 0 1-19.76-19.75v-.2" stroke="#000" stroke-width="2" fill="#fff"/><path d="M234.3-74a6 6 0 0 1 6-6h68a6 6 0 0 1 6 6V72a6 6 0 0 1-6 6h-68a6 6 0 0 1-6-6z" fill="none"/><path d="M274.3-40.5v55.3l40 63.2m-40-63.2l-40 63.2m0-98.75h80" stroke="#000" stroke-width="2" fill="none"/><use xlink:href="#j" transform="matrix(1,0,0,1,154.28929331385888,78) translate(88.24544270833334 21.52777777777778)"/><path d="M273.88 17.82V27.9m0 10.08v20.17m0 10.08V88.4m0 10.08v20.16m0 10.1v20.15m0 10.08v20.16m0 10.1v20.15m0 10.07v20.17m0 10.08v20.17m0 10.07v20.17m0 10.08v20.16m0 10.1v20.15m0 10.1v20.15m0 10.08v20.17m0 10.08v20.18m0 10.08v20.17m0 10.08v20.18m0 10.08v20.16m0 10.1v20.15m0 10.1v20.15m0 10.1v20.15m0 10.08v20.17m0 10.08v20.17m0 10.08v20.17m0 10.08v20.16m0 10.1v20.15m0 10.1v20.16m0 10.1v20.15m0 10.1v20.16m0 10.08v20.17m0 10.1v20.16m0 10.08v20.16m0 10.1v20.15m0 10.1v20.15m0 10.1v20.15m0 10.08v20.17m0 10.08v20.17m0 10.08v20.17m0 10.08v20.16m0 10.1v20.15m0 10.08v20.16m0 10.1v20.15m0 10.07v20.17m0 10.08v20.17m0 10.07v20.17m0 10.08v20.16m0 10.1v20.15m0 10.1v10.07M273.88 1439.5v.5" stroke="#3a414a" fill="none"/><path d="M610.28-74a6 6 0 0 1 6-6h148a6 6 0 0 1 6 6V34a6 6 0 0 1-6 6h-148a6 6 0 0 1-6-6z" stroke="#000" stroke-width="2" fill="#fff"/><use xlink:href="#k" transform="matrix(1,0,0,1,610.2786557529614,-80) translate(37.82835069444444 66.52777777777777)"/><path d="M690.28 41.5v9.9m0 9.93v19.83m0 9.9v19.84m0 9.92v19.83m0 9.9v19.84m0 9.9v19.84m0 9.9v19.84m0 9.92v19.83m0 9.9v19.84m0 9.92v19.82m0 9.9v19.84m0 9.92v19.83m0 9.92v19.83m0 9.92v19.83m0 9.9v19.84m0 9.92v19.82m0 9.92v19.83m0 9.9v19.84m0 9.92v19.82m0 9.9v19.84m0 9.92v19.83m0 9.92v19.83m0 9.92v19.83m0 9.9v19.84m0 9.92v19.83m0 9.9v19.83m0 9.92v19.83m0 9.9v19.84m0 9.92v19.83m0 9.9v19.84m0 9.93v19.83m0 9.9v19.84m0 9.9v19.85m0 9.9V1033m0 9.9v19.83m0 9.92v19.83m0 9.9v19.84m0 9.92v19.83m0 9.9v19.84m0 9.93v19.83m0 9.9v19.84m0 9.92v19.83m0 9.9v19.84m0 9.9v19.84m0 9.9v19.84m0 9.92v19.83m0 9.9v19.84m0 9.9v9.93" stroke="#3a414a" fill="none"/><path d="M690.75 41.5h-.95V41h.95z" stroke="#3a414a" stroke-width=".05" fill="#3a414a"/><path d="M690.28 1439.5v.5" stroke="#3a414a" fill="none"/><path d="M254.3 481.9a6 6 0 0 1 6-6h28a6 6 0 0 1 6 6v108a6 6 0 0 1-6 6h-28a6 6 0 0 1-6-6zM670.28 477.5a6 6 0 0 1 6-6h28a6 6 0 0 1 6 6v116.83a6 6 0 0 1-6 6h-28a6 6 0 0 1-6-6z" stroke="#000" stroke-width="2" fill="#fff"/><path d="M668.78 554.37h-1.98m-3.96 0h-3.95m-3.97 0h-3.96m-3.96 0h-3.94m-3.96 0h-3.96m-3.95 0h-3.97m-3.96 0h-3.95m-3.96 0h-3.96m-3.95 0h-3.96m-3.97 0h-3.96m-3.95 0h-3.96m-3.96 0h-3.95m-3.96 0h-3.97m-3.96 0h-3.95m-3.96 0H556m-3.95 0h-3.96m-3.97 0h-3.96m-3.95 0h-3.96m-3.96 0h-3.95m-3.96 0h-3.97m-3.95 0h-3.96m-3.96 0h-3.95m-3.95 0h-3.96m-3.97 0h-3.95m-3.96 0h-3.96m-3.95 0h-3.95m-3.96 0h-3.96m-3.96 0h-3.96m-3.96 0h-3.95m-3.95 0h-3.96m-3.96 0h-3.96m-3.96 0h-3.96m-3.95 0h-3.95m-3.96 0h-3.96m-3.96 0h-3.96m-3.95 0h-3.96m-3.95 0h-3.96m-3.96 0h-3.96m-3.96 0h-3.95m-3.96 0h-3.95m-3.95 0h-3.96m-3.96 0h-3.96m-3.95 0h-3.96m-3.95 0h-3.95m-3.96 0h-3.96m-3.95 0h-3.96m-3.96 0h-1.97" stroke="#3a414a" fill="none"/><path d="M669.28 554.84h-.5v-.95h.5z" stroke="#3a414a" stroke-width=".05" fill="#3a414a"/><path d="M313.6 564.37l-17.3-10 17.3-10m-17.3 10h8.5" stroke="#3a414a" fill="none"/><use xlink:href="#l" transform="matrix(1,0,0,1,352.26836597960687,493.5783561161614) translate(0 20.666666666666668)"/><use xlink:href="#m" transform="matrix(1,0,0,1,352.26836597960687,493.5783561161614) translate(0 51.641666666666666)"/><use xlink:href="#n" transform="matrix(1,0,0,1,352.26836597960687,493.5783561161614) translate(85.28125 51.641666666666666)"/><use xlink:href="#o" transform="matrix(1,0,0,1,352.26836597960687,493.5783561161614) translate(149.71875 51.641666666666666)"/><path d="M254.3 726a6 6 0 0 1 6-6h28a6 6 0 0 1 6 6v88a6 6 0 0 1-6 6h-28a6 6 0 0 1-6-6zM670.28 726a6 6 0 0 1 6-6h28a6 6 0 0 1 6 6v88a6 6 0 0 1-6 6h-28a6 6 0 0 1-6-6z" stroke="#000" stroke-width="2" fill="#fff"/><path d="M668.78 742.26h-33.5a6 6 0 0 0-6 6v35.54a6 6 0 0 0 6 6h24.56" stroke="#3a414a" fill="none"/><path d="M669.28 742.74h-.5v-.95h.5z" stroke="#3a414a" stroke-width=".05" fill="#3a414a"/><path d="M650.96 779.8l17.32 10-17.32 10m17.32-10h-8.5" stroke="#3a414a" fill="none"/><use xlink:href="#p" transform="matrix(1,0,0,1,491.47659089837356,753.1256503877834) translate(0 20.666666666666668)"/><path d="M670.28 966a6 6 0 0 1 6-6h28a6 6 0 0 1 6 6v88a6 6 0 0 1-6 6h-28a6 6 0 0 1-6-6zM254.3 966a6 6 0 0 1 6-6h28a6 6 0 0 1 6 6v88a6 6 0 0 1-6 6h-28a6 6 0 0 1-6-6z" stroke="#000" stroke-width="2" fill="#fff"/><path d="M668.78 1015.8h-1.98m-3.96 0h-3.95m-3.97 0h-3.96m-3.96 0h-3.94m-3.96 0h-3.96m-3.95 0h-3.97m-3.96 0h-3.95m-3.96 0h-3.96m-3.95 0h-3.96m-3.97 0h-3.96m-3.95 0h-3.96m-3.96 0h-3.95m-3.96 0h-3.97m-3.96 0h-3.95m-3.96 0H556m-3.95 0h-3.96m-3.97 0h-3.96m-3.95 0h-3.96m-3.96 0h-3.95m-3.96 0h-3.97m-3.95 0h-3.96m-3.96 0h-3.95m-3.95 0h-3.96m-3.97 0h-3.95m-3.96 0h-3.96m-3.95 0h-3.95m-3.96 0h-3.96m-3.96 0h-3.96m-3.96 0h-3.95m-3.95 0h-3.96m-3.96 0h-3.96m-3.96 0h-3.96m-3.95 0h-3.95m-3.96 0h-3.96m-3.96 0h-3.96m-3.95 0h-3.96m-3.95 0h-3.96m-3.96 0h-3.96m-3.96 0h-3.95m-3.96 0h-3.95m-3.95 0h-3.96m-3.96 0h-3.96m-3.95 0h-3.96m-3.95 0h-3.95m-3.96 0h-3.96m-3.95 0h-3.96m-3.96 0h-1.97" stroke="#3a414a" fill="none"/><path d="M669.28 1016.3h-.5v-.96h.5z" stroke="#3a414a" stroke-width=".05" fill="#3a414a"/><path d="M313.6 1025.8l-17.3-10 17.3-10m-17.3 10h8.5" stroke="#3a414a" fill="none"/><use xlink:href="#q" transform="matrix(1,0,0,1,356.09648113910663,986.0005128922332) translate(0 20.666666666666668)"/><path d="M256.8 205.74a6 6 0 0 1 6-6h28a6 6 0 0 1 6 6v108a6 6 0 0 1-6 6h-28a6 6 0 0 1-6-6zM670.28 205.74a6 6 0 0 1 6-6h28a6 6 0 0 1 6 6v108a6 6 0 0 1-6 6h-28a6 6 0 0 1-6-6z" stroke="#000" stroke-width="2" fill="#fff"/><path d="M298.3 260h354.6" stroke="#3a414a" fill="none"/><path d="M298.3 260.48h-.5v-.96h.5z" stroke="#3a414a" stroke-width=".05" fill="#3a414a"/><path d="M667.66 260l-14.26 4.63v-9.26z" stroke="#3a414a" fill="#3a414a"/><g><use xlink:href="#r" transform="matrix(1,0,0,1,397.8712050622691,230.18750000000023) translate(0 20.666666666666668)"/></g><defs><path d="M471 26C259 26 90-98 90-318c0-256 228-303 435-329 202-27 287-16 287-108 0-139-79-219-234-219-161 0-248 86-283 164l-173-57c86-203 278-265 451-265 150 0 419 46 419 395V0H815v-152h-12C765-73 660 26 471 26zm31-159c199 0 310-134 310-271v-155c-30 35-226 55-295 64-131 17-246 59-246 186 0 116 97 176 231 176" id="s"/><path d="M338-1490V0H158v-1490h180" id="t"/><path d="M598-1118v154H368v674c0 100 37 144 132 144 23 0 62-6 92-12L629-6c-37 13-88 20-134 20-193 0-307-107-307-290v-688H20v-154h168v-266h180v266h230" id="u"/><g id="a"><use transform="matrix(0.010850694444444442,0,0,0.010850694444444442,0,0)" xlink:href="#s"/><use transform="matrix(0.010850694444444442,0,0,0.010850694444444442,12.478298611111109,0)" xlink:href="#t"/><use transform="matrix(0.010850694444444442,0,0,0.010850694444444442,18.185763888888886,0)" xlink:href="#u"/></g><path d="M226 279v-1860h398v153H398V126h226v153H226" id="v"/><path d="M370-1490V0H180v-1490h190" id="w"/><path d="M338-670V0H158v-1118h173l1 207c72-158 192-221 342-221 226 0 378 139 378 422V0H872v-695c0-172-96-275-252-275-161 0-282 109-282 300" id="x"/><path d="M628 24c-324 0-524-230-524-574 0-343 198-582 503-582 237 0 487 146 487 559v75H286c9 234 145 362 343 362 132 0 231-58 273-172l174 48C1024-91 857 24 628 24zM287-650h624c-17-190-120-322-304-322-192 0-309 151-320 322" id="y"/><path d="M158 0v-1118h174v172h12c41-113 157-188 290-188 26 0 70 2 91 3v181c-11-2-60-10-108-10-161 0-279 109-279 260V0H158" id="z"/><g id="b"><use transform="matrix(0.010850694444444442,0,0,0.010850694444444442,0,0)" xlink:href="#v"/><use transform="matrix(0.010850694444444442,0,0,0.010850694444444442,8.105468749999998,0)" xlink:href="#w"/><use transform="matrix(0.010850694444444442,0,0,0.010850694444444442,14.073350694444441,0)" xlink:href="#x"/><use transform="matrix(0.010850694444444442,0,0,0.010850694444444442,27.20269097222221,0)" xlink:href="#u"/><use transform="matrix(0.010850694444444442,0,0,0.010850694444444442,34.2556423611111,0)" xlink:href="#y"/><use transform="matrix(0.010850694444444442,0,0,0.010850694444444442,47.21137152777777,0)" xlink:href="#z"/><use transform="matrix(0.010850694444444442,0,0,0.010850694444444442,55.92447916666664,0)" xlink:href="#x"/><use transform="matrix(0.010850694444444442,0,0,0.010850694444444442,69.05381944444443,0)" xlink:href="#y"/><use transform="matrix(0.010850694444444442,0,0,0.010850694444444442,82.00954861111109,0)" xlink:href="#u"/></g><path d="M783 20c-382 0-661-292-661-764 0-473 279-766 661-766 302 0 548 182 601 489h-190c-42-204-217-313-411-313-268 0-476 208-476 590 0 381 209 588 476 588 195 0 369-110 411-313h190c-52 303-296 489-601 489" id="A"/><path d="M613 24c-304 0-509-231-509-576 0-350 205-580 509-580 305 0 511 230 511 580 0 345-206 576-511 576zm0-161c226 0 329-195 329-415 0-222-103-419-329-419-223 0-326 196-326 419 0 220 103 415 326 415" id="B"/><path d="M613 24c-304 0-509-231-509-576 0-350 205-580 509-580 216 0 392 114 453 309l-173 49c-33-115-133-197-280-197-223 0-326 196-326 419 0 220 103 415 326 415 150 0 252-85 285-206l172 49C1010-95 832 24 613 24" id="C"/><path d="M577 24c-279 0-473-224-473-580 0-354 195-576 474-576 218 0 287 134 324 193h14v-551h180V0H922v-173h-20C865-111 790 24 577 24zm27-161c203 0 314-172 314-421 0-247-108-413-314-413-212 0-317 181-317 413 0 235 108 421 317 421" id="D"/><path d="M123 279V126h226v-1554H123v-153h398V279H123" id="E"/><g id="c"><use transform="matrix(0.010850694444444442,0,0,0.010850694444444442,0,0)" xlink:href="#A"/><use transform="matrix(0.010850694444444442,0,0,0.010850694444444442,16.232638888888886,0)" xlink:href="#B"/><use transform="matrix(0.010850694444444442,0,0,0.010850694444444442,29.55729166666666,0)" xlink:href="#x"/><use transform="matrix(0.010850694444444442,0,0,0.010850694444444442,42.686631944444436,0)" xlink:href="#x"/><use transform="matrix(0.010850694444444442,0,0,0.010850694444444442,55.815972222222214,0)" xlink:href="#y"/><use transform="matrix(0.010850694444444442,0,0,0.010850694444444442,68.77170138888889,0)" xlink:href="#C"/><use transform="matrix(0.010850694444444442,0,0,0.010850694444444442,81.46701388888889,0)" xlink:href="#u"/><use transform="matrix(0.010850694444444442,0,0,0.010850694444444442,88.51996527777777,0)" xlink:href="#y"/><use transform="matrix(0.010850694444444442,0,0,0.010850694444444442,101.47569444444443,0)" xlink:href="#D"/><use transform="matrix(0.010850694444444442,0,0,0.010850694444444442,115.08246527777776,0)" xlink:href="#E"/></g><path d="M158 0v-1118h180V0H158zm91-1301c-68 0-125-53-125-119s57-119 125-119c69 0 126 53 126 119s-57 119-126 119" id="F"/><g id="d"><use transform="matrix(0.010850694444444442,0,0,0.010850694444444442,0,0)" xlink:href="#v"/><use transform="matrix(0.010850694444444442,0,0,0.010850694444444442,8.105468749999998,0)" xlink:href="#A"/><use transform="matrix(0.010850694444444442,0,0,0.010850694444444442,24.338107638888886,0)" xlink:href="#B"/><use transform="matrix(0.010850694444444442,0,0,0.010850694444444442,37.66276041666666,0)" xlink:href="#x"/><use transform="matrix(0.010850694444444442,0,0,0.010850694444444442,50.79210069444442,0)" xlink:href="#x"/><use transform="matrix(0.010850694444444442,0,0,0.010850694444444442,63.9214409722222,0)" xlink:href="#y"/><use transform="matrix(0.010850694444444442,0,0,0.010850694444444442,76.87717013888886,0)" xlink:href="#C"/><use transform="matrix(0.010850694444444442,0,0,0.010850694444444442,89.57248263888886,0)" xlink:href="#u"/><use transform="matrix(0.010850694444444442,0,0,0.010850694444444442,96.84244791666663,0)" xlink:href="#F"/><use transform="matrix(0.010850694444444442,0,0,0.010850694444444442,102.22439236111107,0)" xlink:href="#B"/><use transform="matrix(0.010850694444444442,0,0,0.010850694444444442,115.54904513888884,0)" xlink:href="#x"/></g><path d="M180 0v-1490h190v1322h690V0H180" id="G"/><path d="M538 24C308 24 148-78 108-271l171-41c32 123 123 178 257 178 156 0 256-77 256-169 0-77-54-128-164-154l-186-44c-203-48-300-148-300-305 0-192 176-326 414-326 230 0 351 112 402 269l-163 42c-31-80-94-158-238-158-133 0-233 69-233 162 0 83 57 129 188 160l169 40c203 48 298 149 298 302 0 196-179 339-441 339" id="H"/><g id="e"><use transform="matrix(0.010850694444444442,0,0,0.010850694444444442,0,0)" xlink:href="#G"/><use transform="matrix(0.010850694444444442,0,0,0.010850694444444442,12.565104166666664,0)" xlink:href="#B"/><use transform="matrix(0.010850694444444442,0,0,0.010850694444444442,25.88975694444444,0)" xlink:href="#H"/><use transform="matrix(0.010850694444444442,0,0,0.010850694444444442,37.619357638888886,0)" xlink:href="#u"/><use transform="matrix(0.010850694444444442,0,0,0.010850694444444442,44.889322916666664,0)" xlink:href="#E"/></g><path d="M158 418v-1536h174v179h20c37-59 106-193 324-193 279 0 474 222 474 576 0 356-194 580-473 580-213 0-288-135-325-197h-14v591H158zm492-555c209 0 317-186 317-421 0-232-105-413-317-413-206 0-314 166-314 413 0 249 111 421 314 421" id="I"/><g id="f"><use transform="matrix(0.010850694444444442,0,0,0.010850694444444442,0,0)" xlink:href="#G"/><use transform="matrix(0.010850694444444442,0,0,0.010850694444444442,12.565104166666664,0)" xlink:href="#B"/><use transform="matrix(0.010850694444444442,0,0,0.010850694444444442,25.88975694444444,0)" xlink:href="#B"/><use transform="matrix(0.010850694444444442,0,0,0.010850694444444442,39.214409722222214,0)" xlink:href="#I"/></g><path d="M645 0H180v-1490h484c435 0 692 280 692 742 0 466-257 748-711 748zM370-168h263c363 0 539-218 539-580 0-358-176-574-521-574H370v1154" id="J"/><path d="M481 0L54-1118h197c107 314 236 620 325 951 87-331 217-637 324-951h197L670 0H481" id="K"/><g id="g"><use transform="matrix(0.010850694444444442,0,0,0.010850694444444442,0,0)" xlink:href="#v"/><use transform="matrix(0.010416666666666668,0,0,0.010416666666666668,8.105468749999998,0)" xlink:href="#J"/><use transform="matrix(0.010416666666666668,0,0,0.010416666666666668,23.501302083333336,0)" xlink:href="#z"/><use transform="matrix(0.010416666666666668,0,0,0.010416666666666668,31.86588541666667,0)" xlink:href="#F"/><use transform="matrix(0.010416666666666668,0,0,0.010416666666666668,37.032552083333336,0)" xlink:href="#K"/><use transform="matrix(0.010416666666666668,0,0,0.010416666666666668,48.60546875000001,0)" xlink:href="#y"/><use transform="matrix(0.010416666666666668,0,0,0.010416666666666668,61.04296875000001,0)" xlink:href="#z"/></g><g id="h"><use transform="matrix(0.010416666666666668,0,0,0.010416666666666668,0,0)" xlink:href="#F"/><use transform="matrix(0.010416666666666668,0,0,0.010416666666666668,5.166666666666667,0)" xlink:href="#H"/></g><path d="M158 0v-1118h175l1 205c55-151 181-225 313-225 147 0 245 90 285 228 53-141 190-228 352-228 194 0 352 125 352 384V0h-181v-749c0-161-105-225-225-225-151 0-243 103-243 244V0H807v-767c0-124-93-207-219-207-131 0-250 92-250 270V0H158" id="L"/><path d="M611 442c-248 0-391-105-460-228l146-94c47 65 117 165 314 165 178 0 307-82 307-266v-224h-17C863-141 792-18 576-18c-268 0-472-195-472-546 0-346 197-568 476-568 216 0 288 133 326 193h17v-179h175V29c0 289-215 413-487 413zm-5-620c203 0 314-146 314-390 0-237-108-403-314-403-213 0-319 180-319 403 0 230 109 390 319 390" id="M"/><g id="i"><use transform="matrix(0.010416666666666668,0,0,0.010416666666666668,0,0)" xlink:href="#L"/><use transform="matrix(0.010416666666666668,0,0,0.010416666666666668,18.687500000000004,0)" xlink:href="#B"/><use transform="matrix(0.010416666666666668,0,0,0.010416666666666668,31.062500000000004,0)" xlink:href="#K"/><use transform="matrix(0.010416666666666668,0,0,0.010416666666666668,43.052083333333336,0)" xlink:href="#F"/><use transform="matrix(0.010416666666666668,0,0,0.010416666666666668,48.21874999999999,0)" xlink:href="#x"/><use transform="matrix(0.010416666666666668,0,0,0.010416666666666668,60.82291666666667,0)" xlink:href="#M"/><use transform="matrix(0.010850694444444442,0,0,0.010850694444444442,73.90625,0)" xlink:href="#E"/></g><g id="j"><use transform="matrix(0.010850694444444444,0,0,0.010850694444444444,0,0)" xlink:href="#J"/><use transform="matrix(0.010850694444444444,0,0,0.010850694444444444,16.03732638888889,0)" xlink:href="#z"/><use transform="matrix(0.010850694444444444,0,0,0.010850694444444444,24.75043402777778,0)" xlink:href="#F"/><use transform="matrix(0.010850694444444444,0,0,0.010850694444444444,30.13237847222222,0)" xlink:href="#K"/><use transform="matrix(0.010850694444444444,0,0,0.010850694444444444,42.1875,0)" xlink:href="#y"/><use transform="matrix(0.010850694444444444,0,0,0.010850694444444444,55.143229166666664,0)" xlink:href="#z"/></g><path d="M295 13c-75 0-135-60-135-135s60-135 135-135 135 60 135 135S370 13 295 13zm0-809c-75 0-135-60-135-135s60-135 135-135 135 60 135 135-60 135-135 135" id="N"/><path d="M657 26c-323 0-524-166-541-416h195c15 169 171 246 346 246 202 0 356-106 356-265 5-203-294-238-475-293-239-73-380-191-380-389 0-252 224-419 512-419 294 0 499 171 508 396H992c-17-145-151-228-328-228-193 0-321 102-321 242 0 156 175 211 284 241l149 41c160 44 422 134 422 412 0 244-197 432-541 432" id="O"/><path d="M140 405l46-156c120 36 205 19 263-150l32-93L54-1118h197c107 313 237 620 324 950 87-331 219-637 326-950h196L606 167c-68 178-176 259-334 259-64 0-113-12-132-21" id="P"/><g id="k"><use transform="matrix(0.010850694444444444,0,0,0.010850694444444444,0,0)" xlink:href="#N"/><use transform="matrix(0.010850694444444444,0,0,0.010850694444444444,6.401909722222222,0)" xlink:href="#O"/><use transform="matrix(0.010850694444444444,0,0,0.010850694444444444,20.65972222222222,0)" xlink:href="#P"/><use transform="matrix(0.010850694444444444,0,0,0.010850694444444444,33.14887152777778,0)" xlink:href="#H"/><use transform="matrix(0.010850694444444444,0,0,0.010850694444444444,44.87847222222222,0)" xlink:href="#u"/><use transform="matrix(0.010850694444444444,0,0,0.010850694444444444,51.93142361111112,0)" xlink:href="#y"/><use transform="matrix(0.010850694444444444,0,0,0.010850694444444444,64.88715277777779,0)" xlink:href="#L"/><path d="M-1.1 4.54h86.57v1.52H-1.1z"/></g><path d="M98-1322v-168h1126v168H757V0H567v-1322H98" id="Q"/><path d="M218-607c0-325 108-727 258-974h175c-155 315-250 682-250 974 0 265 78 531 250 886H476C306-10 218-315 218-607" id="R"/><path d="M158 0v-1490h180v865h22l478-493h223L593-638 1096 0H865L456-523 338-412V0H158" id="S"/><path d="M537 14c-226 0-379-139-379-422v-710h180v695c0 172 97 275 253 275 160 0 281-109 281-300v-670h181V0H879v-209C806-46 684 14 537 14" id="T"/><path d="M128 359l88-567h206L266 359H128" id="U"/><g id="l"><use transform="matrix(0.010416666666666668,0,0,0.010416666666666668,0,0)" xlink:href="#D"/><use transform="matrix(0.010416666666666668,0,0,0.010416666666666668,13.062500000000002,0)" xlink:href="#F"/><use transform="matrix(0.010416666666666668,0,0,0.010416666666666668,18.229166666666668,0)" xlink:href="#H"/><use transform="matrix(0.010416666666666668,0,0,0.010416666666666668,29.489583333333336,0)" xlink:href="#I"/><use transform="matrix(0.010416666666666668,0,0,0.010416666666666668,42.552083333333336,0)" xlink:href="#t"/><use transform="matrix(0.010416666666666668,0,0,0.010416666666666668,47.71874999999999,0)" xlink:href="#s"/><use transform="matrix(0.010416666666666668,0,0,0.010416666666666668,59.38541666666667,0)" xlink:href="#P"/><use transform="matrix(0.010416666666666668,0,0,0.010416666666666668,70.65625,0)" xlink:href="#Q"/><use transform="matrix(0.010416666666666668,0,0,0.010416666666666668,83.21875,0)" xlink:href="#z"/><use transform="matrix(0.010416666666666668,0,0,0.010416666666666668,91.58333333333333,0)" xlink:href="#F"/><use transform="matrix(0.010416666666666668,0,0,0.010416666666666668,96.74999999999999,0)" xlink:href="#I"/><use transform="matrix(0.010416666666666668,0,0,0.010416666666666668,109.8125,0)" xlink:href="#J"/><use transform="matrix(0.010416666666666668,0,0,0.010416666666666668,125.20833333333334,0)" xlink:href="#y"/><use transform="matrix(0.010416666666666668,0,0,0.010416666666666668,137.64583333333334,0)" xlink:href="#u"/><use transform="matrix(0.010416666666666668,0,0,0.010416666666666668,144.72916666666666,0)" xlink:href="#s"/><use transform="matrix(0.010416666666666668,0,0,0.010416666666666668,156.70833333333331,0)" xlink:href="#F"/><use transform="matrix(0.010416666666666668,0,0,0.010416666666666668,161.87499999999997,0)" xlink:href="#t"/><use transform="matrix(0.010416666666666668,0,0,0.010416666666666668,167.04166666666663,0)" xlink:href="#H"/><use transform="matrix(0.010416666666666668,0,0,0.010416666666666668,178.3020833333333,0)" xlink:href="#R"/><use transform="matrix(0.010416666666666668,0,0,0.010416666666666668,186.0833333333333,0)" xlink:href="#I"/><use transform="matrix(0.010416666666666668,0,0,0.010416666666666668,199.1458333333333,0)" xlink:href="#F"/><use transform="matrix(0.010416666666666668,0,0,0.010416666666666668,204.31249999999994,0)" xlink:href="#C"/><use transform="matrix(0.010416666666666668,0,0,0.010416666666666668,216.49999999999994,0)" xlink:href="#S"/><use transform="matrix(0.010416666666666668,0,0,0.010416666666666668,228.2083333333333,0)" xlink:href="#T"/><use transform="matrix(0.010416666666666668,0,0,0.010416666666666668,240.82291666666663,0)" xlink:href="#I"/><use transform="matrix(0.010416666666666668,0,0,0.010416666666666668,253.88541666666663,0)" xlink:href="#U"/></g><path d="M678-1118v154H420V0H240v-964H20v-154h220v-149c0-194 155-293 318-293 85 0 141 18 168 30l-50 154c-19-6-47-17-97-17-111 0-159 58-159 166v109h258" id="V"/><g id="m"><use transform="matrix(0.010416666666666668,0,0,0.010416666666666668,0,0)" xlink:href="#D"/><use transform="matrix(0.010416666666666668,0,0,0.010416666666666668,13.062500000000002,0)" xlink:href="#z"/><use transform="matrix(0.010416666666666668,0,0,0.010416666666666668,20.739583333333336,0)" xlink:href="#B"/><use transform="matrix(0.010416666666666668,0,0,0.010416666666666668,33.53125,0)" xlink:href="#I"/><use transform="matrix(0.010416666666666668,0,0,0.010416666666666668,46.59374999999999,0)" xlink:href="#B"/><use transform="matrix(0.010416666666666668,0,0,0.010416666666666668,59.38541666666667,0)" xlink:href="#V"/><use transform="matrix(0.010416666666666668,0,0,0.010416666666666668,66.44791666666667,0)" xlink:href="#V"/><use transform="matrix(0.010416666666666668,0,0,0.010416666666666668,73.13541666666667,0)" xlink:href="#U"/></g><g id="n"><use transform="matrix(0.010416666666666668,0,0,0.010416666666666668,0,0)" xlink:href="#z"/><use transform="matrix(0.010416666666666668,0,0,0.010416666666666668,7.677083333333336,0)" xlink:href="#B"/><use transform="matrix(0.010416666666666668,0,0,0.010416666666666668,20.468750000000004,0)" xlink:href="#T"/><use transform="matrix(0.010416666666666668,0,0,0.010416666666666668,33.083333333333336,0)" xlink:href="#u"/><use transform="matrix(0.010416666666666668,0,0,0.010416666666666668,39.85416666666667,0)" xlink:href="#y"/><use transform="matrix(0.010416666666666668,0,0,0.010416666666666668,52.29166666666667,0)" xlink:href="#U"/></g><path d="M180 0v-1490h908v168H370v486h669v168H370v500h727V0H180" id="W"/><path d="M52 0l541-1490h220L1361 0h-200l-149-416H398L254 0H52zm404-582h497c-103-290-145-390-251-756-108 377-145 460-246 756" id="X"/><path d="M96 279C273-86 346-350 346-607c0-292-95-659-250-974h175c150 246 258 650 258 974 0 297-91 602-258 886H96" id="Y"/><g id="o"><use transform="matrix(0.010416666666666668,0,0,0.010416666666666668,0,0)" xlink:href="#W"/><use transform="matrix(0.010416666666666668,0,0,0.010416666666666668,12.822916666666668,0)" xlink:href="#Q"/><use transform="matrix(0.010416666666666668,0,0,0.010416666666666668,24.781250000000004,0)" xlink:href="#X"/><use transform="matrix(0.010416666666666668,0,0,0.010416666666666668,39.50000000000001,0)" xlink:href="#Y"/></g><path d="M180 0v-1490h270l367 940c28 72 75 218 110 339 35-117 81-264 110-339l362-940h271V0h-187c2-448-5-837 7-1287-157 497-311 829-483 1287H842C666-458 514-784 354-1284c12 438 5 843 7 1284H180" id="Z"/><g id="p"><use transform="matrix(0.010416666666666668,0,0,0.010416666666666668,0,0)" xlink:href="#T"/><use transform="matrix(0.010416666666666668,0,0,0.010416666666666668,12.614583333333334,0)" xlink:href="#I"/><use transform="matrix(0.010416666666666668,0,0,0.010416666666666668,25.677083333333336,0)" xlink:href="#D"/><use transform="matrix(0.010416666666666668,0,0,0.010416666666666668,38.739583333333336,0)" xlink:href="#s"/><use transform="matrix(0.010416666666666668,0,0,0.010416666666666668,50.71874999999999,0)" xlink:href="#u"/><use transform="matrix(0.010416666666666668,0,0,0.010416666666666668,57.48958333333333,0)" xlink:href="#y"/><use transform="matrix(0.010416666666666668,0,0,0.010416666666666668,69.92708333333333,0)" xlink:href="#Z"/><use transform="matrix(0.010416666666666668,0,0,0.010416666666666668,89.19791666666666,0)" xlink:href="#s"/><use transform="matrix(0.010416666666666668,0,0,0.010416666666666668,101.17708333333333,0)" xlink:href="#I"/><use transform="matrix(0.010416666666666668,0,0,0.010416666666666668,114.23958333333333,0)" xlink:href="#R"/><use transform="matrix(0.010416666666666668,0,0,0.010416666666666668,122.02083333333333,0)" xlink:href="#Y"/></g><g id="q"><use transform="matrix(0.010416666666666668,0,0,0.010416666666666668,0,0)" xlink:href="#D"/><use transform="matrix(0.010416666666666668,0,0,0.010416666666666668,13.062500000000002,0)" xlink:href="#F"/><use transform="matrix(0.010416666666666668,0,0,0.010416666666666668,18.229166666666668,0)" xlink:href="#H"/><use transform="matrix(0.010416666666666668,0,0,0.010416666666666668,29.489583333333336,0)" xlink:href="#I"/><use transform="matrix(0.010416666666666668,0,0,0.010416666666666668,42.552083333333336,0)" xlink:href="#t"/><use transform="matrix(0.010416666666666668,0,0,0.010416666666666668,47.71874999999999,0)" xlink:href="#s"/><use transform="matrix(0.010416666666666668,0,0,0.010416666666666668,59.38541666666667,0)" xlink:href="#P"/><use transform="matrix(0.010416666666666668,0,0,0.010416666666666668,71.375,0)" xlink:href="#A"/><use transform="matrix(0.010416666666666668,0,0,0.010416666666666668,86.95833333333334,0)" xlink:href="#B"/><use transform="matrix(0.010416666666666668,0,0,0.010416666666666668,99.75000000000001,0)" xlink:href="#x"/><use transform="matrix(0.010416666666666668,0,0,0.010416666666666668,112.35416666666669,0)" xlink:href="#x"/><use transform="matrix(0.010416666666666668,0,0,0.010416666666666668,124.95833333333337,0)" xlink:href="#y"/><use transform="matrix(0.010416666666666668,0,0,0.010416666666666668,137.39583333333337,0)" xlink:href="#C"/><use transform="matrix(0.010416666666666668,0,0,0.010416666666666668,149.58333333333337,0)" xlink:href="#u"/><use transform="matrix(0.010416666666666668,0,0,0.010416666666666668,156.56250000000003,0)" xlink:href="#F"/><use transform="matrix(0.010416666666666668,0,0,0.010416666666666668,161.72916666666669,0)" xlink:href="#B"/><use transform="matrix(0.010416666666666668,0,0,0.010416666666666668,174.52083333333334,0)" xlink:href="#x"/><use transform="matrix(0.010416666666666668,0,0,0.010416666666666668,187.12499999999997,0)" xlink:href="#W"/><use transform="matrix(0.010416666666666668,0,0,0.010416666666666668,199.94791666666666,0)" xlink:href="#z"/><use transform="matrix(0.010416666666666668,0,0,0.010416666666666668,208.31249999999997,0)" xlink:href="#z"/><use transform="matrix(0.010416666666666668,0,0,0.010416666666666668,215.98958333333337,0)" xlink:href="#B"/><use transform="matrix(0.010416666666666668,0,0,0.010416666666666668,228.78125,0)" xlink:href="#z"/><use transform="matrix(0.010416666666666668,0,0,0.010416666666666668,236.8125,0)" xlink:href="#R"/><use transform="matrix(0.010416666666666668,0,0,0.010416666666666668,244.59375,0)" xlink:href="#Y"/></g><path d="M409 0L70-1118h191c89 329 165 560 243 925 75-353 154-601 240-925h192c85 325 161 564 235 922 77-354 157-598 244-922h191L1267 0h-179c-86-307-176-590-250-913C763-588 675-308 588 0H409" id="aa"/><g id="r"><use transform="matrix(0.010416666666666668,0,0,0.010416666666666668,0,0)" xlink:href="#K"/><use transform="matrix(0.010416666666666668,0,0,0.010416666666666668,11.989583333333334,0)" xlink:href="#F"/><use transform="matrix(0.010416666666666668,0,0,0.010416666666666668,17.15625,0)" xlink:href="#y"/><use transform="matrix(0.010416666666666668,0,0,0.010416666666666668,29.208333333333336,0)" xlink:href="#aa"/><use transform="matrix(0.010416666666666668,0,0,0.010416666666666668,45.583333333333336,0)" xlink:href="#Q"/><use transform="matrix(0.010416666666666668,0,0,0.010416666666666668,58.14583333333334,0)" xlink:href="#z"/><use transform="matrix(0.010416666666666668,0,0,0.010416666666666668,66.51041666666669,0)" xlink:href="#F"/><use transform="matrix(0.010416666666666668,0,0,0.010416666666666668,71.67708333333336,0)" xlink:href="#I"/><use transform="matrix(0.010416666666666668,0,0,0.010416666666666668,84.73958333333336,0)" xlink:href="#O"/><use transform="matrix(0.010416666666666668,0,0,0.010416666666666668,98.42708333333336,0)" xlink:href="#C"/><use transform="matrix(0.010416666666666668,0,0,0.010416666666666668,110.61458333333337,0)" xlink:href="#z"/><use transform="matrix(0.010416666666666668,0,0,0.010416666666666668,118.29166666666669,0)" xlink:href="#y"/><use transform="matrix(0.010416666666666668,0,0,0.010416666666666668,130.72916666666669,0)" xlink:href="#y"/><use transform="matrix(0.010416666666666668,0,0,0.010416666666666668,143.16666666666669,0)" xlink:href="#x"/><use transform="matrix(0.010416666666666668,0,0,0.010416666666666668,155.77083333333334,0)" xlink:href="#R"/><use transform="matrix(0.010416666666666668,0,0,0.010416666666666668,163.55208333333334,0)" xlink:href="#Y"/></g></defs></g></svg>