<svg xmlns="http://www.w3.org/2000/svg" xmlns:xlink="http://www.w3.org/1999/xlink" xmlns:lucid="lucid" width="480" height="520"><g transform="translate(-480 0)" lucid:page-tab-id="BPoHvCQPX3AD"><path d="M0 0h1000v1000H0z" fill="#fff"/><path d="M500.25 19.95v-.2A19.75 19.75 0 0 1 520 0a19.75 19.75 0 0 1 19.75 19.75A19.75 19.75 0 0 1 520 39.5a19.75 19.75 0 0 1-19.75-19.75v-.2" stroke="#000" stroke-width="2" fill="#fff"/><path d="M480 6a6 6 0 0 1 6-6h68a6 6 0 0 1 6 6v146a6 6 0 0 1-6 6h-68a6 6 0 0 1-6-6z" fill="none"/><path d="M520 39.5v55.3l40 63.2m-40-63.2L480 158m0-98.75h80" stroke="#000" stroke-width="2" fill="none"/><use xlink:href="#a" transform="matrix(1,0,0,1,400,158) translate(0 20.666666666666668)"/><path d="M800 46a6 6 0 0 1 6-6h148a6 6 0 0 1 6 6v108a6 6 0 0 1-6 6H806a6 6 0 0 1-6-6z" stroke="#000" stroke-width="2" fill="#fff"/><use xlink:href="#b" transform="matrix(1,0,0,1,800,40) translate(5.01 69.41666666666667)"/><path d="M520 97.17v10.05m0 10.06v20.1m0 10.07v20.1m0 10.06v20.12m0 10.06v20.1m0 10.07v20.1m0 10.06v20.12m0 10.06v20.1m0 10.06v20.12m0 10.05v20.12m0 10.06v20.1m0 10.06v20.12m0 10.05v20.12m0 10.06v20.1m0 10.06v10.06M520 519.5v.5M880 161.5v9.94m0 9.95v19.88m0 9.94v19.9m0 9.94v19.88m0 9.95v19.88m0 9.94v19.9m0 9.94v19.88m0 9.95v19.88m0 9.94v19.9m0 9.94v19.88m0 9.95v19.88m0 9.94v19.9m0 9.94v9.94" stroke="#3a414a" fill="none"/><path d="M880.48 161.5h-.96v-.5h.96z" stroke="#3a414a" stroke-width=".05" fill="#3a414a"/><path d="M880 519.5v.5" stroke="#3a414a" fill="none"/><path d="M500 206a6 6 0 0 1 6-6h28a6 6 0 0 1 6 6v108a6 6 0 0 1-6 6h-28a6 6 0 0 1-6-6zM860 206a6 6 0 0 1 6-6h28a6 6 0 0 1 6 6v108a6 6 0 0 1-6 6h-28a6 6 0 0 1-6-6z" stroke="#000" stroke-width="2" fill="#fff"/><path d="M541.5 227.63h303" stroke="#3a414a" fill="none"/><path d="M541.5 228.1h-.5v-.95h.5z" stroke="#3a414a" stroke-width=".05" fill="#3a414a"/><path d="M858 227.63l-13 7.5v-15z" stroke="#3a414a" fill="#3a414a"/><use xlink:href="#c" transform="matrix(1,0,0,1,604.015595023667,197.81306025461572) translate(0 20.666666666666668)"/><path d="M858.5 297.3h-4.8m-4.8 0h-9.6m-4.8 0h-9.62m-4.8 0h-9.6m-4.8 0h-9.62m-4.8 0h-9.6m-4.8 0h-9.62m-4.8 0h-9.6m-4.8 0h-9.62m-4.8 0h-9.6m-4.8 0h-9.6m-4.82 0H695.18m-4.8 0h-9.65m-4.82 0h-9.62m-4.82 0h-9.63m-4.82 0h-9.62m-4.82 0h-9.63m-4.82 0h-9.62m-4.82 0h-9.63m-4.82 0h-9.62m-4.82 0h-9.63m-4.82 0h-4.8" stroke="#3a414a" fill="none"/><path d="M859 297.76h-.5v-.95h.5z" stroke="#3a414a" stroke-width=".05" fill="#3a414a"/><path d="M542 297.3l13-7.5v15z" stroke="#3a414a" fill="#3a414a"/><use xlink:href="#d" transform="matrix(1,0,0,1,575.1354511922711,301.28765282221815) translate(0 20.666666666666668)"/><path d="M500 366a6 6 0 0 1 6-6h28a6 6 0 0 1 6 6v108a6 6 0 0 1-6 6h-28a6 6 0 0 1-6-6zM860 366a6 6 0 0 1 6-6h28a6 6 0 0 1 6 6v108a6 6 0 0 1-6 6h-28a6 6 0 0 1-6-6z" stroke="#000" stroke-width="2" fill="#fff"/><path d="M541.5 381.55h303" stroke="#3a414a" fill="none"/><path d="M541.5 382.02h-.5v-.95h.5z" stroke="#3a414a" stroke-width=".05" fill="#3a414a"/><path d="M858 381.55l-13 7.5v-15z" stroke="#3a414a" fill="#3a414a"/><use xlink:href="#e" transform="matrix(1,0,0,1,595.9010060621646,351.7346378026043) translate(0 20.666666666666668)"/><path d="M858.5 451.02h-4.8m-4.8 0h-9.6m-4.8 0h-9.62m-4.8 0h-9.6m-4.8 0h-9.62m-4.8 0h-9.6m-4.8 0h-9.62m-4.8 0h-9.6m-4.8 0h-9.62m-4.8 0h-9.6m-4.8 0h-9.6m-4.82 0H695.18m-4.8 0h-9.65m-4.82 0h-9.62m-4.82 0h-9.63m-4.82 0h-9.62m-4.82 0h-9.63m-4.82 0h-9.62m-4.82 0h-9.63m-4.82 0h-9.62m-4.82 0h-9.63m-4.82 0h-4.8" stroke="#3a414a" fill="none"/><path d="M859 451.5h-.5v-.95h.5z" stroke="#3a414a" stroke-width=".05" fill="#3a414a"/><path d="M542 451.02l13-7.5v15z" stroke="#3a414a" fill="#3a414a"/><use xlink:href="#f" transform="matrix(1,0,0,1,580.2812787232219,455.02107967104286) translate(0 20.666666666666668)"/><defs><path d="M180 0v-1490h510c348 0 508 209 508 474 0 266-160 477-507 477H370V0H180zm190-706h312c236 0 327-133 327-310 0-176-91-307-329-307H370v617" id="g"/><path d="M471 26C259 26 90-98 90-318c0-256 228-303 435-329 202-27 287-16 287-108 0-139-79-219-234-219-161 0-248 86-283 164l-173-57c86-203 278-265 451-265 150 0 419 46 419 395V0H815v-152h-12C765-73 660 26 471 26zm31-159c199 0 310-134 310-271v-155c-30 35-226 55-295 64-131 17-246 59-246 186 0 116 97 176 231 176" id="h"/><path d="M538 24C308 24 148-78 108-271l171-41c32 123 123 178 257 178 156 0 256-77 256-169 0-77-54-128-164-154l-186-44c-203-48-300-148-300-305 0-192 176-326 414-326 230 0 351 112 402 269l-163 42c-31-80-94-158-238-158-133 0-233 69-233 162 0 83 57 129 188 160l169 40c203 48 298 149 298 302 0 196-179 339-441 339" id="i"/><path d="M628 24c-324 0-524-230-524-574 0-343 198-582 503-582 237 0 487 146 487 559v75H286c9 234 145 362 343 362 132 0 231-58 273-172l174 48C1024-91 857 24 628 24zM287-650h624c-17-190-120-322-304-322-192 0-309 151-320 322" id="j"/><path d="M338-670V0H158v-1118h173l1 207c72-158 192-221 342-221 226 0 378 139 378 422V0H872v-695c0-172-96-275-252-275-161 0-282 109-282 300" id="k"/><path d="M611 442c-248 0-391-105-460-228l146-94c47 65 117 165 314 165 178 0 307-82 307-266v-224h-17C863-141 792-18 576-18c-268 0-472-195-472-546 0-346 197-568 476-568 216 0 288 133 326 193h17v-179h175V29c0 289-215 413-487 413zm-5-620c203 0 314-146 314-390 0-237-108-403-314-403-213 0-319 180-319 403 0 230 109 390 319 390" id="l"/><path d="M158 0v-1118h174v172h12c41-113 157-188 290-188 26 0 70 2 91 3v181c-11-2-60-10-108-10-161 0-279 109-279 260V0H158" id="m"/><g id="a"><use transform="matrix(0.010416666666666668,0,0,0.010416666666666668,0,0)" xlink:href="#g"/><use transform="matrix(0.010416666666666668,0,0,0.010416666666666668,13.625000000000002,0)" xlink:href="#h"/><use transform="matrix(0.010416666666666668,0,0,0.010416666666666668,25.604166666666668,0)" xlink:href="#i"/><use transform="matrix(0.010416666666666668,0,0,0.010416666666666668,36.86458333333334,0)" xlink:href="#i"/><use transform="matrix(0.010416666666666668,0,0,0.010416666666666668,48.125000000000014,0)" xlink:href="#j"/><use transform="matrix(0.010416666666666668,0,0,0.010416666666666668,60.562500000000014,0)" xlink:href="#k"/><use transform="matrix(0.010416666666666668,0,0,0.010416666666666668,73.16666666666669,0)" xlink:href="#l"/><use transform="matrix(0.010416666666666668,0,0,0.010416666666666668,86.25000000000001,0)" xlink:href="#j"/><use transform="matrix(0.010416666666666668,0,0,0.010416666666666668,98.68750000000001,0)" xlink:href="#m"/></g><path d="M295 13c-75 0-135-60-135-135s60-135 135-135 135 60 135 135S370 13 295 13zm0-809c-75 0-135-60-135-135s60-135 135-135 135 60 135 135-60 135-135 135" id="n"/><path d="M657 26c-323 0-524-166-541-416h195c15 169 171 246 346 246 202 0 356-106 356-265 5-203-294-238-475-293-239-73-380-191-380-389 0-252 224-419 512-419 294 0 499 171 508 396H992c-17-145-151-228-328-228-193 0-321 102-321 242 0 156 175 211 284 241l149 41c160 44 422 134 422 412 0 244-197 432-541 432" id="o"/><path d="M140 405l46-156c120 36 205 19 263-150l32-93L54-1118h197c107 313 237 620 324 950 87-331 219-637 326-950h196L606 167c-68 178-176 259-334 259-64 0-113-12-132-21" id="p"/><path d="M598-1118v154H368v674c0 100 37 144 132 144 23 0 62-6 92-12L629-6c-37 13-88 20-134 20-193 0-307-107-307-290v-688H20v-154h168v-266h180v266h230" id="q"/><path d="M158 0v-1118h175l1 205c55-151 181-225 313-225 147 0 245 90 285 228 53-141 190-228 352-228 194 0 352 125 352 384V0h-181v-749c0-161-105-225-225-225-151 0-243 103-243 244V0H807v-767c0-124-93-207-219-207-131 0-250 92-250 270V0H158" id="r"/><g id="b"><use transform="matrix(0.010416666666666668,0,0,0.010416666666666668,0,0)" xlink:href="#n"/><use transform="matrix(0.010416666666666668,0,0,0.010416666666666668,6.145833333333334,0)" xlink:href="#o"/><use transform="matrix(0.010416666666666668,0,0,0.010416666666666668,19.833333333333336,0)" xlink:href="#p"/><use transform="matrix(0.010416666666666668,0,0,0.010416666666666668,31.82291666666667,0)" xlink:href="#i"/><use transform="matrix(0.010416666666666668,0,0,0.010416666666666668,43.083333333333336,0)" xlink:href="#q"/><use transform="matrix(0.010416666666666668,0,0,0.010416666666666668,49.85416666666667,0)" xlink:href="#j"/><use transform="matrix(0.010416666666666668,0,0,0.010416666666666668,62.29166666666667,0)" xlink:href="#r"/></g><path d="M1096 418H916v-591h-14C865-111 790 24 577 24c-279 0-473-224-473-580 0-354 195-576 474-576 218 0 287 134 324 193h20v-179h174V418zM604-137c203 0 314-172 314-421 0-247-108-413-314-413-212 0-317 181-317 413 0 235 108 421 317 421" id="s"/><path d="M537 14c-226 0-379-139-379-422v-710h180v695c0 172 97 275 253 275 160 0 281-109 281-300v-670h181V0H879v-209C806-46 684 14 537 14" id="t"/><path d="M338-670V0H158v-1490h180v566c73-149 190-208 336-208 226 0 379 139 379 422V0H872v-695c0-172-96-275-252-275-161 0-282 109-282 300" id="u"/><path d="M180 0v-1490h190v1322h690V0H180" id="v"/><path d="M158 0v-1118h180V0H158zm91-1301c-68 0-125-53-125-119s57-119 125-119c69 0 126 53 126 119s-57 119-126 119" id="w"/><path d="M158 0v-1490h180v865h22l478-493h223L593-638 1096 0H865L456-523 338-412V0H158" id="x"/><path d="M218-607c0-325 108-727 258-974h175c-155 315-250 682-250 974 0 265 78 531 250 886H476C306-10 218-315 218-607" id="y"/><path d="M96 279C273-86 346-350 346-607c0-292-95-659-250-974h175c150 246 258 650 258 974 0 297-91 602-258 886H96" id="z"/><g id="c"><use transform="matrix(0.010416666666666668,0,0,0.010416666666666668,0,0)" xlink:href="#m"/><use transform="matrix(0.010416666666666668,0,0,0.010416666666666668,7.677083333333336,0)" xlink:href="#j"/><use transform="matrix(0.010416666666666668,0,0,0.010416666666666668,20.114583333333336,0)" xlink:href="#s"/><use transform="matrix(0.010416666666666668,0,0,0.010416666666666668,33.177083333333336,0)" xlink:href="#t"/><use transform="matrix(0.010416666666666668,0,0,0.010416666666666668,45.79166666666667,0)" xlink:href="#j"/><use transform="matrix(0.010416666666666668,0,0,0.010416666666666668,58.22916666666667,0)" xlink:href="#i"/><use transform="matrix(0.010416666666666668,0,0,0.010416666666666668,69.48958333333334,0)" xlink:href="#q"/><use transform="matrix(0.010416666666666668,0,0,0.010416666666666668,76.46875000000001,0)" xlink:href="#o"/><use transform="matrix(0.010416666666666668,0,0,0.010416666666666668,90.15625000000001,0)" xlink:href="#u"/><use transform="matrix(0.010416666666666668,0,0,0.010416666666666668,102.77083333333334,0)" xlink:href="#h"/><use transform="matrix(0.010416666666666668,0,0,0.010416666666666668,114.75000000000001,0)" xlink:href="#m"/><use transform="matrix(0.010416666666666668,0,0,0.010416666666666668,122.42708333333334,0)" xlink:href="#j"/><use transform="matrix(0.010416666666666668,0,0,0.010416666666666668,134.86458333333334,0)" xlink:href="#v"/><use transform="matrix(0.010416666666666668,0,0,0.010416666666666668,146.92708333333334,0)" xlink:href="#w"/><use transform="matrix(0.010416666666666668,0,0,0.010416666666666668,152.09375,0)" xlink:href="#k"/><use transform="matrix(0.010416666666666668,0,0,0.010416666666666668,164.69791666666666,0)" xlink:href="#x"/><use transform="matrix(0.010416666666666668,0,0,0.010416666666666668,176.40624999999997,0)" xlink:href="#y"/><use transform="matrix(0.010416666666666668,0,0,0.010416666666666668,184.18749999999997,0)" xlink:href="#z"/></g><path d="M577 24c-279 0-473-224-473-580 0-354 195-576 474-576 218 0 287 134 324 193h14v-551h180V0H922v-173h-20C865-111 790 24 577 24zm27-161c203 0 314-172 314-421 0-247-108-413-314-413-212 0-317 181-317 413 0 235 108 421 317 421" id="A"/><path d="M158 418v-1536h174v179h20c37-59 106-193 324-193 279 0 474 222 474 576 0 356-194 580-473 580-213 0-288-135-325-197h-14v591H158zm492-555c209 0 317-186 317-421 0-232-105-413-317-413-206 0-314 166-314 413 0 249 111 421 314 421" id="B"/><path d="M338-1490V0H158v-1490h180" id="C"/><path d="M98-1322v-168h1126v168H757V0H567v-1322H98" id="D"/><path d="M613 24c-304 0-509-231-509-576 0-350 205-580 509-580 216 0 392 114 453 309l-173 49c-33-115-133-197-280-197-223 0-326 196-326 419 0 220 103 415 326 415 150 0 252-85 285-206l172 49C1010-95 832 24 613 24" id="E"/><g id="d"><use transform="matrix(0.010416666666666668,0,0,0.010416666666666668,0,0)" xlink:href="#A"/><use transform="matrix(0.010416666666666668,0,0,0.010416666666666668,13.062500000000002,0)" xlink:href="#w"/><use transform="matrix(0.010416666666666668,0,0,0.010416666666666668,18.229166666666668,0)" xlink:href="#i"/><use transform="matrix(0.010416666666666668,0,0,0.010416666666666668,29.489583333333336,0)" xlink:href="#B"/><use transform="matrix(0.010416666666666668,0,0,0.010416666666666668,42.552083333333336,0)" xlink:href="#C"/><use transform="matrix(0.010416666666666668,0,0,0.010416666666666668,47.71874999999999,0)" xlink:href="#h"/><use transform="matrix(0.010416666666666668,0,0,0.010416666666666668,59.38541666666667,0)" xlink:href="#p"/><use transform="matrix(0.010416666666666668,0,0,0.010416666666666668,70.65625,0)" xlink:href="#D"/><use transform="matrix(0.010416666666666668,0,0,0.010416666666666668,83.21875,0)" xlink:href="#m"/><use transform="matrix(0.010416666666666668,0,0,0.010416666666666668,91.24999999999999,0)" xlink:href="#h"/><use transform="matrix(0.010416666666666668,0,0,0.010416666666666668,103.22916666666667,0)" xlink:href="#E"/><use transform="matrix(0.010416666666666668,0,0,0.010416666666666668,115.41666666666669,0)" xlink:href="#x"/><use transform="matrix(0.010416666666666668,0,0,0.010416666666666668,127.125,0)" xlink:href="#w"/><use transform="matrix(0.010416666666666668,0,0,0.010416666666666668,132.29166666666666,0)" xlink:href="#k"/><use transform="matrix(0.010416666666666668,0,0,0.010416666666666668,144.89583333333331,0)" xlink:href="#l"/><use transform="matrix(0.010416666666666668,0,0,0.010416666666666668,157.97916666666666,0)" xlink:href="#v"/><use transform="matrix(0.010416666666666668,0,0,0.010416666666666668,170.04166666666666,0)" xlink:href="#w"/><use transform="matrix(0.010416666666666668,0,0,0.010416666666666668,175.20833333333331,0)" xlink:href="#k"/><use transform="matrix(0.010416666666666668,0,0,0.010416666666666668,187.81249999999997,0)" xlink:href="#x"/><use transform="matrix(0.010416666666666668,0,0,0.010416666666666668,199.52083333333331,0)" xlink:href="#y"/><use transform="matrix(0.010416666666666668,0,0,0.010416666666666668,207.30208333333331,0)" xlink:href="#C"/><use transform="matrix(0.010416666666666668,0,0,0.010416666666666668,212.46874999999997,0)" xlink:href="#w"/><use transform="matrix(0.010416666666666668,0,0,0.010416666666666668,217.63541666666663,0)" xlink:href="#k"/><use transform="matrix(0.010416666666666668,0,0,0.010416666666666668,230.2395833333333,0)" xlink:href="#x"/><use transform="matrix(0.010416666666666668,0,0,0.010416666666666668,241.94791666666663,0)" xlink:href="#z"/></g><path d="M613 24c-304 0-509-231-509-576 0-350 205-580 509-580 305 0 511 230 511 580 0 345-206 576-511 576zm0-161c226 0 329-195 329-415 0-222-103-419-329-419-223 0-326 196-326 419 0 220 103 415 326 415" id="F"/><g id="e"><use transform="matrix(0.010416666666666668,0,0,0.010416666666666668,0,0)" xlink:href="#m"/><use transform="matrix(0.010416666666666668,0,0,0.010416666666666668,7.677083333333336,0)" xlink:href="#j"/><use transform="matrix(0.010416666666666668,0,0,0.010416666666666668,20.114583333333336,0)" xlink:href="#q"/><use transform="matrix(0.010416666666666668,0,0,0.010416666666666668,27.093750000000004,0)" xlink:href="#t"/><use transform="matrix(0.010416666666666668,0,0,0.010416666666666668,39.708333333333336,0)" xlink:href="#m"/><use transform="matrix(0.010416666666666668,0,0,0.010416666666666668,48.07291666666667,0)" xlink:href="#k"/><use transform="matrix(0.010416666666666668,0,0,0.010416666666666668,59.21875,0)" xlink:href="#D"/><use transform="matrix(0.010416666666666668,0,0,0.010416666666666668,71.32291666666667,0)" xlink:href="#F"/><use transform="matrix(0.010416666666666668,0,0,0.010416666666666668,82.44791666666667,0)" xlink:href="#D"/><use transform="matrix(0.010416666666666668,0,0,0.010416666666666668,95.01041666666667,0)" xlink:href="#m"/><use transform="matrix(0.010416666666666668,0,0,0.010416666666666668,103.37500000000001,0)" xlink:href="#w"/><use transform="matrix(0.010416666666666668,0,0,0.010416666666666668,108.54166666666669,0)" xlink:href="#B"/><use transform="matrix(0.010416666666666668,0,0,0.010416666666666668,121.60416666666669,0)" xlink:href="#o"/><use transform="matrix(0.010416666666666668,0,0,0.010416666666666668,135.29166666666669,0)" xlink:href="#E"/><use transform="matrix(0.010416666666666668,0,0,0.010416666666666668,147.47916666666669,0)" xlink:href="#m"/><use transform="matrix(0.010416666666666668,0,0,0.010416666666666668,155.15625000000003,0)" xlink:href="#j"/><use transform="matrix(0.010416666666666668,0,0,0.010416666666666668,167.59375000000003,0)" xlink:href="#j"/><use transform="matrix(0.010416666666666668,0,0,0.010416666666666668,180.03125000000003,0)" xlink:href="#k"/><use transform="matrix(0.010416666666666668,0,0,0.010416666666666668,192.63541666666669,0)" xlink:href="#y"/><use transform="matrix(0.010416666666666668,0,0,0.010416666666666668,200.41666666666669,0)" xlink:href="#z"/></g><path d="M409 0L70-1118h191c89 329 165 560 243 925 75-353 154-601 240-925h192c85 325 161 564 235 922 77-354 157-598 244-922h191L1267 0h-179c-86-307-176-590-250-913C763-588 675-308 588 0H409" id="G"/><path d="M52 0l541-1490h220L1361 0h-200l-149-416H398L254 0H52zm404-582h497c-103-290-145-390-251-756-108 377-145 460-246 756" id="H"/><path d="M481 0L54-1118h197c107 314 236 620 325 951 87-331 217-637 324-951h197L670 0H481" id="I"/><g id="f"><use transform="matrix(0.010416666666666668,0,0,0.010416666666666668,0,0)" xlink:href="#i"/><use transform="matrix(0.010416666666666668,0,0,0.010416666666666668,11.260416666666668,0)" xlink:href="#u"/><use transform="matrix(0.010416666666666668,0,0,0.010416666666666668,23.874999999999996,0)" xlink:href="#F"/><use transform="matrix(0.010416666666666668,0,0,0.010416666666666668,36.28125,0)" xlink:href="#G"/><use transform="matrix(0.010416666666666668,0,0,0.010416666666666668,52.29166666666667,0)" xlink:href="#H"/><use transform="matrix(0.010416666666666668,0,0,0.010416666666666668,67.01041666666667,0)" xlink:href="#E"/><use transform="matrix(0.010416666666666668,0,0,0.010416666666666668,79.19791666666667,0)" xlink:href="#q"/><use transform="matrix(0.010416666666666668,0,0,0.010416666666666668,86.17708333333334,0)" xlink:href="#w"/><use transform="matrix(0.010416666666666668,0,0,0.010416666666666668,91.34375000000001,0)" xlink:href="#I"/><use transform="matrix(0.010416666666666668,0,0,0.010416666666666668,102.91666666666667,0)" xlink:href="#j"/><use transform="matrix(0.010416666666666668,0,0,0.010416666666666668,113.6875,0)" xlink:href="#D"/><use transform="matrix(0.010416666666666668,0,0,0.010416666666666668,126.25,0)" xlink:href="#m"/><use transform="matrix(0.010416666666666668,0,0,0.010416666666666668,134.61458333333334,0)" xlink:href="#w"/><use transform="matrix(0.010416666666666668,0,0,0.010416666666666668,139.78125,0)" xlink:href="#B"/><use transform="matrix(0.010416666666666668,0,0,0.010416666666666668,152.84375,0)" xlink:href="#o"/><use transform="matrix(0.010416666666666668,0,0,0.010416666666666668,166.53125,0)" xlink:href="#E"/><use transform="matrix(0.010416666666666668,0,0,0.010416666666666668,178.71874999999997,0)" xlink:href="#m"/><use transform="matrix(0.010416666666666668,0,0,0.010416666666666668,186.39583333333334,0)" xlink:href="#j"/><use transform="matrix(0.010416666666666668,0,0,0.010416666666666668,198.83333333333334,0)" xlink:href="#j"/><use transform="matrix(0.010416666666666668,0,0,0.010416666666666668,211.27083333333334,0)" xlink:href="#k"/><use transform="matrix(0.010416666666666668,0,0,0.010416666666666668,223.875,0)" xlink:href="#y"/><use transform="matrix(0.010416666666666668,0,0,0.010416666666666668,231.65625,0)" xlink:href="#z"/></g></defs></g></svg>