<svg xmlns="http://www.w3.org/2000/svg" xmlns:xlink="http://www.w3.org/1999/xlink" xmlns:lucid="lucid" width="1000" height="1500"><g transform="translate(2000 500)" lucid:page-tab-id="goIHeTs0-lw1"><path d="M-2000-500h1000v1500h-1000z" fill="#fff"/><path d="M-1640 526a6 6 0 0 1 6-6h88a6 6 0 0 1 6 6v8a14.48 14.48 0 0 1-4.24 10.24l-1.52 1.52A14.48 14.48 0 0 1-1556 550h-78a6 6 0 0 1-6-6z" fill="#fff"/><path d="M-1540 520v20l-10 10h-90" stroke="#000" fill="none"/><path d="M-1640 526a6 6 0 0 1 6-6h588a6 6 0 0 1 6 6v228a6 6 0 0 1-6 6h-588a6 6 0 0 1-6-6z" stroke="#000" fill="none"/><use xlink:href="#a" transform="matrix(1,0,0,1,-1632,520) translate(0 23.08376736111111)"/><use xlink:href="#b" transform="matrix(1,0,0,1,-1628,558) translate(0 23.08376736111111)"/><use xlink:href="#c" transform="matrix(1,0,0,1,-1628,558) translate(102.31119791666664 23.08376736111111)"/><use xlink:href="#d" transform="matrix(1,0,0,1,-1628,558) translate(137.9665798611111 23.08376736111111)"/><path d="M-1565.92-30.82a6 6 0 0 1 6-6h448a6 6 0 0 1 6 6v28a6 6 0 0 1-6 6h-448a6 6 0 0 1-6-6z" fill="#fff"/><path d="M-1561.66 69.05v-.2a19.75 19.75 0 0 1 19.75-19.74 19.75 19.75 0 0 1 19.74 19.76 19.75 19.75 0 0 1-19.75 19.75 19.75 19.75 0 0 1-19.76-19.74v-.2" stroke="#000" stroke-width="2" fill="#fff"/><path d="M-1581.9 55.1a6 6 0 0 1 6-6h68a6 6 0 0 1 6 6v146a6 6 0 0 1-6 6h-68a6 6 0 0 1-6-6z" fill="none"/><path d="M-1541.9 88.6v55.3l40 63.2m-40-63.2l-40 63.2m0-98.74h80" stroke="#000" stroke-width="2" fill="none"/><use xlink:href="#e" transform="matrix(1,0,0,1,-1661.9137818462355,207.10630677700067) translate(88.24544270833334 21.52777777777778)"/><path d="M-1541.8 146.48v10.04m0 10.05v20.08m0 10.05v20.1m0 10.03v20.1m0 10.03v20.1m0 10.03v20.08m0 10.04v20.1m0 10.03v20.1m0 10.04v20.07m0 10.05v20.08m0 10.05v20.1m0 10.03v20.1m0 10.03v20.1m0 10.04v20.1m0 10.03v20.1m0 10.03v20.1m0 10.04v20.08m0 10.05v20.1m0 10.03v20.1m0 10.03v20.1m0 10.03v20.1m0 10.03v20.08m0 10.04v20.1m0 10.04v10.04M-1541.8 839.5v.5" stroke="#3a414a" fill="none"/><path d="M-1205.92 55.1a6 6 0 0 1 6-6h148a6 6 0 0 1 6 6v108a6 6 0 0 1-6 6h-148a6 6 0 0 1-6-6z" stroke="#000" stroke-width="2" fill="#fff"/><use xlink:href="#f" transform="matrix(1,0,0,1,-1205.924419407133,49.10630677700067) translate(37.82835069444444 66.52777777777777)"/><path d="M-1125.92 170.6v10.14m0 10.14v20.27m0 10.13v20.27m0 10.13v20.27m0 10.14v20.26m0 10.13v20.26m0 10.14v20.27m0 10.13v20.27m0 10.14V424m0 10.13v20.28m0 10.13v20.28m0 10.14v20.27m0 10.12v20.27m0 10.13V576m0 10.13v20.27m0 10.13v20.27m0 10.14v20.27m0 10.14v20.27m0 10.15v20.27m0 10.13v20.27m0 10.14v20.27m0 10.13v20.27m0 10.13v10.14" stroke="#3a414a" fill="none"/><path d="M-1125.45 170.62h-.95v-.5h.95z" stroke="#3a414a" stroke-width=".05" fill="#3a414a"/><path d="M-1125.92 839.5v.5M-1520.56 413.2h4.97m4.97 0h9.92m4.95 0h9.93m4.96 0h9.92m4.96 0h9.93m4.96 0h9.93m4.97 0h9.92m4.96 0h9.92m4.97 0h9.92m4.95 0h9.92m4.97 0h9.92m4.96 0h9.92m4.97 0h9.93m4.96 0h9.9m4.98 0h9.92m4.96 0h9.93m4.95 0h9.92m4.96 0h9.93m4.96 0h9.92m4.96 0h9.93m4.96 0h9.9m4.97 0h9.93m4.96 0h9.92m4.96 0h9.93m4.96 0h4.96" stroke="#3a414a" fill="none"/><path d="M-1520.54 413.67h-.52v-.95h.52z" stroke="#3a414a" stroke-width=".05" fill="#3a414a"/><path d="M-1148.54 413.2l-14.27 4.63v-9.27z" stroke="#3a414a" fill="#3a414a"/><use xlink:href="#g" transform="matrix(1,0,0,1,-1478.9899419409553,383.38277637538914) translate(0 20.666666666666668)"/><path d="M-1562.06 339.7a6 6 0 0 1 6-6h28a6 6 0 0 1 6 6v108a6 6 0 0 1-6 6h-28a6 6 0 0 1-6-6zM-1145.92 339.7a6 6 0 0 1 6-6h28a6 6 0 0 1 6 6v108a6 6 0 0 1-6 6h-28a6 6 0 0 1-6-6z" stroke="#000" stroke-width="2" fill="#fff"/><path d="M-1147.42 356.14H-1511.6" stroke="#3a414a" fill="none"/><path d="M-1146.92 356.62h-.52v-.95h.52z" stroke="#3a414a" stroke-width=".05" fill="#3a414a"/><path d="M-1502.73 366.14l-17.33-10 17.33-10m-17.33 10h8.5" stroke="#3a414a" fill="none"/><use xlink:href="#h" transform="matrix(1,0,0,1,-1473.7712447676129,326.3299868033581) translate(0 20.666666666666668)"/><path d="M-1561.9 609.18a6 6 0 0 1 6-6h28a6 6 0 0 1 6 6v88a6 6 0 0 1-6 6h-28a6 6 0 0 1-6-6zM-1145.92 609.18a6 6 0 0 1 6-6h28a6 6 0 0 1 6 6v88a6 6 0 0 1-6 6h-28a6 6 0 0 1-6-6z" stroke="#000" stroke-width="2" fill="#fff"/><path d="M-1147.42 650.7h-364.05" stroke="#3a414a" fill="none"/><path d="M-1146.92 651.18h-.52v-.95h.52z" stroke="#3a414a" stroke-width=".05" fill="#3a414a"/><path d="M-1502.6 660.7l-17.3-10 17.3-10m-17.3 10h8.5" stroke="#3a414a" fill="none"/><g><use xlink:href="#i" transform="matrix(1,0,0,1,-1493.835770103318,620.893395646515) translate(0 20.666666666666668)"/></g><defs><path d="M784 20c-382 0-662-292-662-764 0-473 280-766 662-766s660 293 660 766c0 472-278 764-660 764zm0-176c266 0 475-207 475-588 0-383-209-590-475-590-268 0-477 208-477 590 0 380 209 588 477 588" id="j"/><path d="M158 418v-1536h174v179h20c37-59 106-193 324-193 279 0 474 222 474 576 0 356-194 580-473 580-213 0-288-135-325-197h-14v591H158zm492-555c209 0 317-186 317-421 0-232-105-413-317-413-206 0-314 166-314 413 0 249 111 421 314 421" id="k"/><path d="M598-1118v154H368v674c0 100 37 144 132 144 23 0 62-6 92-12L629-6c-37 13-88 20-134 20-193 0-307-107-307-290v-688H20v-154h168v-266h180v266h230" id="l"/><g id="a"><use transform="matrix(0.010850694444444442,0,0,0.010850694444444442,0,0)" xlink:href="#j"/><use transform="matrix(0.010850694444444442,0,0,0.010850694444444442,16.992187499999996,0)" xlink:href="#k"/><use transform="matrix(0.010850694444444442,0,0,0.010850694444444442,30.59895833333333,0)" xlink:href="#l"/></g><path d="M226 279v-1860h398v153H398V126h226v153H226" id="m"/><path d="M577 24c-279 0-473-224-473-580 0-354 195-576 474-576 218 0 287 134 324 193h14v-551h180V0H922v-173h-20C865-111 790 24 577 24zm27-161c203 0 314-172 314-421 0-247-108-413-314-413-212 0-317 181-317 413 0 235 108 421 317 421" id="n"/><path d="M628 24c-324 0-524-230-524-574 0-343 198-582 503-582 237 0 487 146 487 559v75H286c9 234 145 362 343 362 132 0 231-58 273-172l174 48C1024-91 857 24 628 24zM287-650h624c-17-190-120-322-304-322-192 0-309 151-320 322" id="o"/><path d="M613 24c-304 0-509-231-509-576 0-350 205-580 509-580 216 0 392 114 453 309l-173 49c-33-115-133-197-280-197-223 0-326 196-326 419 0 220 103 415 326 415 150 0 252-85 285-206l172 49C1010-95 832 24 613 24" id="p"/><path d="M158 0v-1118h180V0H158zm91-1301c-68 0-125-53-125-119s57-119 125-119c69 0 126 53 126 119s-57 119-126 119" id="q"/><path d="M538 24C308 24 148-78 108-271l171-41c32 123 123 178 257 178 156 0 256-77 256-169 0-77-54-128-164-154l-186-44c-203-48-300-148-300-305 0-192 176-326 414-326 230 0 351 112 402 269l-163 42c-31-80-94-158-238-158-133 0-233 69-233 162 0 83 57 129 188 160l169 40c203 48 298 149 298 302 0 196-179 339-441 339" id="r"/><path d="M613 24c-304 0-509-231-509-576 0-350 205-580 509-580 305 0 511 230 511 580 0 345-206 576-511 576zm0-161c226 0 329-195 329-415 0-222-103-419-329-419-223 0-326 196-326 419 0 220 103 415 326 415" id="s"/><path d="M338-670V0H158v-1118h173l1 207c72-158 192-221 342-221 226 0 378 139 378 422V0H872v-695c0-172-96-275-252-275-161 0-282 109-282 300" id="t"/><g id="b"><use transform="matrix(0.010850694444444442,0,0,0.010850694444444442,0,0)" xlink:href="#m"/><use transform="matrix(0.010850694444444442,0,0,0.010850694444444442,7.855902777777776,0)" xlink:href="#n"/><use transform="matrix(0.010850694444444442,0,0,0.010850694444444442,21.462673611111107,0)" xlink:href="#o"/><use transform="matrix(0.010850694444444442,0,0,0.010850694444444442,34.41840277777777,0)" xlink:href="#p"/><use transform="matrix(0.010850694444444442,0,0,0.010850694444444442,47.11371527777777,0)" xlink:href="#q"/><use transform="matrix(0.010850694444444442,0,0,0.010850694444444442,52.495659722222214,0)" xlink:href="#r"/><use transform="matrix(0.010850694444444442,0,0,0.010850694444444442,64.22526041666666,0)" xlink:href="#q"/><use transform="matrix(0.010850694444444442,0,0,0.010850694444444442,69.6072048611111,0)" xlink:href="#s"/><use transform="matrix(0.010850694444444442,0,0,0.010850694444444442,82.93185763888887,0)" xlink:href="#t"/></g><path d="M226-283v-166h904v166H226zm0-434v-166h904v166H226" id="u"/><g id="c"><use transform="matrix(0.010850694444444442,0,0,0.010850694444444442,0,0)" xlink:href="#u"/><use transform="matrix(0.010850694444444442,0,0,0.010850694444444442,14.70269097222222,0)" xlink:href="#u"/></g><path d="M98-1322v-168h1126v168H757V0H567v-1322H98" id="v"/><path d="M158 0v-1118h174v172h12c41-113 157-188 290-188 26 0 70 2 91 3v181c-11-2-60-10-108-10-161 0-279 109-279 260V0H158" id="w"/><path d="M537 14c-226 0-379-139-379-422v-710h180v695c0 172 97 275 253 275 160 0 281-109 281-300v-670h181V0H879v-209C806-46 684 14 537 14" id="x"/><path d="M123 279V126h226v-1554H123v-153h398V279H123" id="y"/><g id="d"><use transform="matrix(0.010850694444444442,0,0,0.010850694444444442,0,0)" xlink:href="#v"/><use transform="matrix(0.010850694444444442,0,0,0.010850694444444442,13.085937499999998,0)" xlink:href="#w"/><use transform="matrix(0.010850694444444442,0,0,0.010850694444444442,21.451822916666664,0)" xlink:href="#x"/><use transform="matrix(0.010850694444444442,0,0,0.010850694444444442,34.592013888888886,0)" xlink:href="#o"/><use transform="matrix(0.010850694444444442,0,0,0.010850694444444442,47.29817708333332,0)" xlink:href="#y"/></g><path d="M645 0H180v-1490h484c435 0 692 280 692 742 0 466-257 748-711 748zM370-168h263c363 0 539-218 539-580 0-358-176-574-521-574H370v1154" id="z"/><path d="M481 0L54-1118h197c107 314 236 620 325 951 87-331 217-637 324-951h197L670 0H481" id="A"/><g id="e"><use transform="matrix(0.010850694444444444,0,0,0.010850694444444444,0,0)" xlink:href="#z"/><use transform="matrix(0.010850694444444444,0,0,0.010850694444444444,16.03732638888889,0)" xlink:href="#w"/><use transform="matrix(0.010850694444444444,0,0,0.010850694444444444,24.75043402777778,0)" xlink:href="#q"/><use transform="matrix(0.010850694444444444,0,0,0.010850694444444444,30.13237847222222,0)" xlink:href="#A"/><use transform="matrix(0.010850694444444444,0,0,0.010850694444444444,42.1875,0)" xlink:href="#o"/><use transform="matrix(0.010850694444444444,0,0,0.010850694444444444,55.143229166666664,0)" xlink:href="#w"/></g><path d="M295 13c-75 0-135-60-135-135s60-135 135-135 135 60 135 135S370 13 295 13zm0-809c-75 0-135-60-135-135s60-135 135-135 135 60 135 135-60 135-135 135" id="B"/><path d="M657 26c-323 0-524-166-541-416h195c15 169 171 246 346 246 202 0 356-106 356-265 5-203-294-238-475-293-239-73-380-191-380-389 0-252 224-419 512-419 294 0 499 171 508 396H992c-17-145-151-228-328-228-193 0-321 102-321 242 0 156 175 211 284 241l149 41c160 44 422 134 422 412 0 244-197 432-541 432" id="C"/><path d="M140 405l46-156c120 36 205 19 263-150l32-93L54-1118h197c107 313 237 620 324 950 87-331 219-637 326-950h196L606 167c-68 178-176 259-334 259-64 0-113-12-132-21" id="D"/><path d="M158 0v-1118h175l1 205c55-151 181-225 313-225 147 0 245 90 285 228 53-141 190-228 352-228 194 0 352 125 352 384V0h-181v-749c0-161-105-225-225-225-151 0-243 103-243 244V0H807v-767c0-124-93-207-219-207-131 0-250 92-250 270V0H158" id="E"/><g id="f"><use transform="matrix(0.010850694444444444,0,0,0.010850694444444444,0,0)" xlink:href="#B"/><use transform="matrix(0.010850694444444444,0,0,0.010850694444444444,6.401909722222222,0)" xlink:href="#C"/><use transform="matrix(0.010850694444444444,0,0,0.010850694444444444,20.65972222222222,0)" xlink:href="#D"/><use transform="matrix(0.010850694444444444,0,0,0.010850694444444444,33.14887152777778,0)" xlink:href="#r"/><use transform="matrix(0.010850694444444444,0,0,0.010850694444444444,44.87847222222222,0)" xlink:href="#l"/><use transform="matrix(0.010850694444444444,0,0,0.010850694444444444,51.93142361111112,0)" xlink:href="#o"/><use transform="matrix(0.010850694444444444,0,0,0.010850694444444444,64.88715277777779,0)" xlink:href="#E"/><path d="M-1.1 4.54h86.57v1.52H-1.1z"/></g><path d="M180 0v-1490h510c348 0 508 194 508 460 0 198-88 351-276 417L1256 0h-220L726-579c-117 2-238 0-356 1V0H180zm190-747h312c235 0 327-108 327-283 0-177-92-293-329-293H370v576" id="F"/><path d="M1096 418H916v-591h-14C865-111 790 24 577 24c-279 0-473-224-473-580 0-354 195-576 474-576 218 0 287 134 324 193h20v-179h174V418zM604-137c203 0 314-172 314-421 0-247-108-413-314-413-212 0-317 181-317 413 0 235 108 421 317 421" id="G"/><path d="M218-607c0-325 108-727 258-974h175c-155 315-250 682-250 974 0 265 78 531 250 886H476C306-10 218-315 218-607" id="H"/><path d="M96 279C273-86 346-350 346-607c0-292-95-659-250-974h175c150 246 258 650 258 974 0 297-91 602-258 886H96" id="I"/><g id="g"><use transform="matrix(0.010416666666666668,0,0,0.010416666666666668,0,0)" xlink:href="#w"/><use transform="matrix(0.010416666666666668,0,0,0.010416666666666668,7.677083333333336,0)" xlink:href="#o"/><use transform="matrix(0.010416666666666668,0,0,0.010416666666666668,20.114583333333336,0)" xlink:href="#r"/><use transform="matrix(0.010416666666666668,0,0,0.010416666666666668,31.375000000000004,0)" xlink:href="#k"/><use transform="matrix(0.010416666666666668,0,0,0.010416666666666668,44.43750000000001,0)" xlink:href="#s"/><use transform="matrix(0.010416666666666668,0,0,0.010416666666666668,57.22916666666667,0)" xlink:href="#t"/><use transform="matrix(0.010416666666666668,0,0,0.010416666666666668,69.83333333333334,0)" xlink:href="#n"/><use transform="matrix(0.010416666666666668,0,0,0.010416666666666668,82.89583333333334,0)" xlink:href="#v"/><use transform="matrix(0.010416666666666668,0,0,0.010416666666666668,94.99999999999999,0)" xlink:href="#s"/><use transform="matrix(0.010416666666666668,0,0,0.010416666666666668,107.79166666666669,0)" xlink:href="#F"/><use transform="matrix(0.010416666666666668,0,0,0.010416666666666668,121.20833333333334,0)" xlink:href="#o"/><use transform="matrix(0.010416666666666668,0,0,0.010416666666666668,133.64583333333334,0)" xlink:href="#G"/><use transform="matrix(0.010416666666666668,0,0,0.010416666666666668,146.70833333333334,0)" xlink:href="#x"/><use transform="matrix(0.010416666666666668,0,0,0.010416666666666668,159.32291666666669,0)" xlink:href="#o"/><use transform="matrix(0.010416666666666668,0,0,0.010416666666666668,171.76041666666669,0)" xlink:href="#r"/><use transform="matrix(0.010416666666666668,0,0,0.010416666666666668,183.02083333333334,0)" xlink:href="#l"/><use transform="matrix(0.010416666666666668,0,0,0.010416666666666668,189.99999999999997,0)" xlink:href="#H"/><use transform="matrix(0.010416666666666668,0,0,0.010416666666666668,197.54166666666666,0)" xlink:href="#n"/><use transform="matrix(0.010416666666666668,0,0,0.010416666666666668,210.60416666666666,0)" xlink:href="#o"/><use transform="matrix(0.010416666666666668,0,0,0.010416666666666668,223.04166666666666,0)" xlink:href="#p"/><use transform="matrix(0.010416666666666668,0,0,0.010416666666666668,235.22916666666666,0)" xlink:href="#q"/><use transform="matrix(0.010416666666666668,0,0,0.010416666666666668,240.39583333333331,0)" xlink:href="#r"/><use transform="matrix(0.010416666666666668,0,0,0.010416666666666668,251.65625,0)" xlink:href="#q"/><use transform="matrix(0.010416666666666668,0,0,0.010416666666666668,256.82291666666663,0)" xlink:href="#s"/><use transform="matrix(0.010416666666666668,0,0,0.010416666666666668,269.6145833333333,0)" xlink:href="#t"/><use transform="matrix(0.010416666666666668,0,0,0.010416666666666668,282.21875,0)" xlink:href="#I"/></g><path d="M338-1490V0H158v-1490h180" id="J"/><path d="M471 26C259 26 90-98 90-318c0-256 228-303 435-329 202-27 287-16 287-108 0-139-79-219-234-219-161 0-248 86-283 164l-173-57c86-203 278-265 451-265 150 0 419 46 419 395V0H815v-152h-12C765-73 660 26 471 26zm31-159c199 0 310-134 310-271v-155c-30 35-226 55-295 64-131 17-246 59-246 186 0 116 97 176 231 176" id="K"/><g id="h"><use transform="matrix(0.010416666666666668,0,0,0.010416666666666668,0,0)" xlink:href="#n"/><use transform="matrix(0.010416666666666668,0,0,0.010416666666666668,13.062500000000002,0)" xlink:href="#q"/><use transform="matrix(0.010416666666666668,0,0,0.010416666666666668,18.229166666666668,0)" xlink:href="#r"/><use transform="matrix(0.010416666666666668,0,0,0.010416666666666668,29.489583333333336,0)" xlink:href="#k"/><use transform="matrix(0.010416666666666668,0,0,0.010416666666666668,42.552083333333336,0)" xlink:href="#J"/><use transform="matrix(0.010416666666666668,0,0,0.010416666666666668,47.71874999999999,0)" xlink:href="#K"/><use transform="matrix(0.010416666666666668,0,0,0.010416666666666668,59.38541666666667,0)" xlink:href="#D"/><use transform="matrix(0.010416666666666668,0,0,0.010416666666666668,71.47916666666667,0)" xlink:href="#F"/><use transform="matrix(0.010416666666666668,0,0,0.010416666666666668,85.20833333333334,0)" xlink:href="#q"/><use transform="matrix(0.010416666666666668,0,0,0.010416666666666668,90.37500000000001,0)" xlink:href="#n"/><use transform="matrix(0.010416666666666668,0,0,0.010416666666666668,103.43750000000001,0)" xlink:href="#o"/><use transform="matrix(0.010416666666666668,0,0,0.010416666666666668,115.87500000000001,0)" xlink:href="#F"/><use transform="matrix(0.010416666666666668,0,0,0.010416666666666668,129.29166666666669,0)" xlink:href="#o"/><use transform="matrix(0.010416666666666668,0,0,0.010416666666666668,141.72916666666669,0)" xlink:href="#G"/><use transform="matrix(0.010416666666666668,0,0,0.010416666666666668,154.79166666666669,0)" xlink:href="#x"/><use transform="matrix(0.010416666666666668,0,0,0.010416666666666668,167.40625000000003,0)" xlink:href="#o"/><use transform="matrix(0.010416666666666668,0,0,0.010416666666666668,179.84375000000003,0)" xlink:href="#r"/><use transform="matrix(0.010416666666666668,0,0,0.010416666666666668,191.10416666666669,0)" xlink:href="#l"/><use transform="matrix(0.010416666666666668,0,0,0.010416666666666668,198.08333333333334,0)" xlink:href="#H"/><use transform="matrix(0.010416666666666668,0,0,0.010416666666666668,205.62499999999997,0)" xlink:href="#n"/><use transform="matrix(0.010416666666666668,0,0,0.010416666666666668,218.6875,0)" xlink:href="#o"/><use transform="matrix(0.010416666666666668,0,0,0.010416666666666668,231.125,0)" xlink:href="#l"/><use transform="matrix(0.010416666666666668,0,0,0.010416666666666668,238.20833333333331,0)" xlink:href="#K"/><use transform="matrix(0.010416666666666668,0,0,0.010416666666666668,250.1875,0)" xlink:href="#q"/><use transform="matrix(0.010416666666666668,0,0,0.010416666666666668,255.35416666666663,0)" xlink:href="#J"/><use transform="matrix(0.010416666666666668,0,0,0.010416666666666668,260.5208333333333,0)" xlink:href="#r"/><use transform="matrix(0.010416666666666668,0,0,0.010416666666666668,271.78125,0)" xlink:href="#I"/></g><path d="M678-1118v154H420V0H240v-964H20v-154h220v-149c0-194 155-293 318-293 85 0 141 18 168 30l-50 154c-19-6-47-17-97-17-111 0-159 58-159 166v109h258" id="L"/><path d="M180 0v-1490h510c348 0 508 209 508 474 0 266-160 477-507 477H370V0H180zm190-706h312c236 0 327-133 327-310 0-176-91-307-329-307H370v617" id="M"/><path d="M611 442c-248 0-391-105-460-228l146-94c47 65 117 165 314 165 178 0 307-82 307-266v-224h-17C863-141 792-18 576-18c-268 0-472-195-472-546 0-346 197-568 476-568 216 0 288 133 326 193h17v-179h175V29c0 289-215 413-487 413zm-5-620c203 0 314-146 314-390 0-237-108-403-314-403-213 0-319 180-319 403 0 230 109 390 319 390" id="N"/><path d="M52 0l541-1490h220L1361 0h-200l-149-416H398L254 0H52zm404-582h497c-103-290-145-390-251-756-108 377-145 460-246 756" id="O"/><path d="M338-670V0H158v-1490h180v566c73-149 190-208 336-208 226 0 379 139 379 422V0H872v-695c0-172-96-275-252-275-161 0-282 109-282 300" id="P"/><path d="M409 0L70-1118h191c89 329 165 560 243 925 75-353 154-601 240-925h192c85 325 161 564 235 922 77-354 157-598 244-922h191L1267 0h-179c-86-307-176-590-250-913C763-588 675-308 588 0H409" id="Q"/><path d="M180 0v-1490h270l367 940c28 72 75 218 110 339 35-117 81-264 110-339l362-940h271V0h-187c2-448-5-837 7-1287-157 497-311 829-483 1287H842C666-458 514-784 354-1284c12 438 5 843 7 1284H180" id="R"/><g id="i"><use transform="matrix(0.010416666666666668,0,0,0.010416666666666668,0,0)" xlink:href="#t"/><use transform="matrix(0.010416666666666668,0,0,0.010416666666666668,12.604166666666668,0)" xlink:href="#s"/><use transform="matrix(0.010416666666666668,0,0,0.010416666666666668,25.395833333333336,0)" xlink:href="#l"/><use transform="matrix(0.010416666666666668,0,0,0.010416666666666668,32.375,0)" xlink:href="#q"/><use transform="matrix(0.010416666666666668,0,0,0.010416666666666668,37.541666666666664,0)" xlink:href="#L"/><use transform="matrix(0.010416666666666668,0,0,0.010416666666666668,45.43749999999999,0)" xlink:href="#D"/><use transform="matrix(0.010416666666666668,0,0,0.010416666666666668,57.53125,0)" xlink:href="#M"/><use transform="matrix(0.010416666666666668,0,0,0.010416666666666668,71.15625,0)" xlink:href="#K"/><use transform="matrix(0.010416666666666668,0,0,0.010416666666666668,83.13541666666667,0)" xlink:href="#r"/><use transform="matrix(0.010416666666666668,0,0,0.010416666666666668,94.39583333333334,0)" xlink:href="#r"/><use transform="matrix(0.010416666666666668,0,0,0.010416666666666668,105.65625000000001,0)" xlink:href="#o"/><use transform="matrix(0.010416666666666668,0,0,0.010416666666666668,118.09375000000001,0)" xlink:href="#t"/><use transform="matrix(0.010416666666666668,0,0,0.010416666666666668,130.69791666666669,0)" xlink:href="#N"/><use transform="matrix(0.010416666666666668,0,0,0.010416666666666668,143.78125000000003,0)" xlink:href="#o"/><use transform="matrix(0.010416666666666668,0,0,0.010416666666666668,156.21875000000003,0)" xlink:href="#w"/><use transform="matrix(0.010416666666666668,0,0,0.010416666666666668,163.40625000000003,0)" xlink:href="#O"/><use transform="matrix(0.010416666666666668,0,0,0.010416666666666668,178.12500000000003,0)" xlink:href="#t"/><use transform="matrix(0.010416666666666668,0,0,0.010416666666666668,190.72916666666669,0)" xlink:href="#n"/><use transform="matrix(0.010416666666666668,0,0,0.010416666666666668,203.79166666666669,0)" xlink:href="#C"/><use transform="matrix(0.010416666666666668,0,0,0.010416666666666668,217.47916666666669,0)" xlink:href="#P"/><use transform="matrix(0.010416666666666668,0,0,0.010416666666666668,230.09375000000003,0)" xlink:href="#s"/><use transform="matrix(0.010416666666666668,0,0,0.010416666666666668,242.50000000000003,0)" xlink:href="#Q"/><use transform="matrix(0.010416666666666668,0,0,0.010416666666666668,259.95833333333337,0)" xlink:href="#R"/><use transform="matrix(0.010416666666666668,0,0,0.010416666666666668,279.2291666666667,0)" xlink:href="#K"/><use transform="matrix(0.010416666666666668,0,0,0.010416666666666668,291.20833333333337,0)" xlink:href="#k"/><use transform="matrix(0.010416666666666668,0,0,0.010416666666666668,304.27083333333337,0)" xlink:href="#H"/><use transform="matrix(0.010416666666666668,0,0,0.010416666666666668,312.05208333333337,0)" xlink:href="#I"/></g></defs></g></svg>