<svg xmlns="http://www.w3.org/2000/svg" xmlns:xlink="http://www.w3.org/1999/xlink" xmlns:lucid="lucid" width="1500" height="2000"><g transform="translate(500 500)" lucid:page-tab-id="6TKH7bSDwVbt"><path d="M-500-500h1500v2000H-500z" fill="#fff"/><path d="M-260 166a6 6 0 0 1 6-6h88a6 6 0 0 1 6 6v8a14.48 14.48 0 0 1-4.24 10.24l-1.52 1.52A14.48 14.48 0 0 1-176 190h-78a6 6 0 0 1-6-6z" fill="#fff"/><path d="M-160 160v20l-10 10h-90" stroke="#000" stroke-width="2" fill="none"/><path d="M-260 166a6 6 0 0 1 6-6h788a6 6 0 0 1 6 6v888a6 6 0 0 1-6 6h-788a6 6 0 0 1-6-6zM-260 760h20m15 0h20m15 0h20m15 0h20m15 0h20m15 0h20m15 0h20m15 0H5m15 0h20m15 0h20m15 0h20m15 0h20m15 0h20m15 0h20m15 0h20m15 0h20m15 0h20m15 0h20m15 0h20m15 0h20m15 0h20m15 0h20m15 0h20" stroke="#000" stroke-width="2" fill="none"/><use xlink:href="#a" transform="matrix(1,0,0,1,-252,160) translate(0 23.08376736111111)"/><use xlink:href="#b" transform="matrix(1,0,0,1,-248,198) translate(0 22.760416666666668)"/><use xlink:href="#c" transform="matrix(1,0,0,1,-248,198) translate(123.78125000000001 22.760416666666668)"/><use xlink:href="#d" transform="matrix(1,0,0,1,-248,198) translate(180.19791666666669 22.760416666666668)"/><use xlink:href="#e" transform="matrix(1,0,0,1,-248,768) translate(0 23.08376736111111)"/><use xlink:href="#f" transform="matrix(1,0,0,1,-248,768) translate(44.42274305555554 23.08376736111111)"/><path d="M-240 486a6 6 0 0 1 6-6h88a6 6 0 0 1 6 6v8a14.48 14.48 0 0 1-4.24 10.24l-1.52 1.52A14.48 14.48 0 0 1-156 510h-78a6 6 0 0 1-6-6z" fill="#fff"/><path d="M-140 480v20l-10 10h-90" stroke="#000" stroke-width="2" fill="none"/><path d="M-240 486a6 6 0 0 1 6-6h748a6 6 0 0 1 6 6v211.98a6 6 0 0 1-6 6h-748a6 6 0 0 1-6-6z" stroke="#000" stroke-width="2" fill="none"/><use xlink:href="#g" transform="matrix(1,0,0,1,-232,480) translate(0 23.08376736111111)"/><use xlink:href="#h" transform="matrix(1,0,0,1,-228,518) translate(0 22.760416666666668)"/><use xlink:href="#i" transform="matrix(1,0,0,1,-228,518) translate(91.26041666666669 22.760416666666668)"/><use xlink:href="#j" transform="matrix(1,0,0,1,-228,518) translate(109.23958333333336 22.760416666666668)"/><use xlink:href="#k" transform="matrix(1,0,0,1,-228,518) translate(194.60416666666669 22.760416666666668)"/><path d="M-79.75-120.05v-.2A19.75 19.75 0 0 1-60-140a19.75 19.75 0 0 1 19.75 19.75A19.75 19.75 0 0 1-60-100.5a19.75 19.75 0 0 1-19.75-19.75v-.2" stroke="#000" stroke-width="2" fill="#fff"/><path d="M-100-134a6 6 0 0 1 6-6h68a6 6 0 0 1 6 6V12a6 6 0 0 1-6 6h-68a6 6 0 0 1-6-6z" fill="none"/><path d="M-60-100.5v55.3L-20 18m-40-63.2L-100 18m0-98.75h80" stroke="#000" stroke-width="2" fill="none"/><use xlink:href="#l" transform="matrix(1,0,0,1,-180,18) translate(88.24544270833334 21.52777777777778)"/><path d="M-59.9-42.68a1.75 1.75 0 0 1 1.74 1.75v10m0 9.98v20m0 9.98v20m0 9.98v20m0 9.98v20m0 9.98v20m0 9.98v19.98m0 10v19.98m0 10v19.98m0 10v19.97m0 10v19.98m0 10v19.98m0 10v20m0 9.98v19.98m0 10v19.98m0 10v19.98m0 10v19.97m0 10v19.97m0 10v19.98m0 10v19.97m0 10v19.98m0 10v19.98m0 10v19.97m0 10v19.98m0 10v19.98m0 10v20m0 9.98v19.98m0 10v19.98m0 10v19.97m0 10v20m0 9.98v20m0 9.98v20m0 9.98v19.98m0 10v19.98m0 10v19.98m0 10v19.97m0 10v19.98m0 10v19.98m0 10v19.98m0 10v19.98m0 10v19.98m0 10v19.97m0 10v20m0 9.98v20m0 9.98v20m0 9.98v19.98m0 10V1348m0 10v9.98M-59.9-42.68h-3.5M-58.16 1367.97v.5" stroke="#3a414a" fill="none"/><path d="M280-134a6 6 0 0 1 6-6h148a6 6 0 0 1 6 6v108a6 6 0 0 1-6 6H286a6 6 0 0 1-6-6z" stroke="#000" stroke-width="2" fill="#fff"/><use xlink:href="#m" transform="matrix(1,0,0,1,280,-140) translate(37.82835069444444 66.52777777777777)"/><path d="M360-18.5v12.87m0 12.88v12.87a.88.88 0 0 1-.88.88.88.88 0 0 0-.88.88v9.9m0 9.9v19.83m0 9.9v19.83m0 9.9v19.82m0 9.9v19.82m0 9.9v19.82m0 9.9v19.8m0 9.9v19.83m0 9.9v19.82m0 9.9v19.82m0 9.9V329m0 9.9v19.8m0 9.92v19.8m0 9.92v19.8m0 9.92v19.8m0 9.92v19.8m0 9.92v19.8m0 9.92v19.8m0 9.92v19.8m0 9.92v19.82m0 9.9v19.82m0 9.9v19.82m0 9.9v19.82m0 9.9v19.82m0 9.9v19.82m0 9.9v19.82m0 9.9v19.82m0 9.9v19.82m0 9.9v19.82m0 9.9v19.82m0 9.9v19.82m0 9.9v19.82m0 9.9v19.82m0 9.9v19.82m0 9.9v19.82m0 9.9V1072m0 9.9v19.82m0 9.9v19.82m0 9.9v19.83m0 9.9v19.82m0 9.9v19.8m0 9.9v19.83m0 9.9v19.82m0 9.9v19.82m0 9.9v19.82m0 9.9v19.8m0 9.9v19.83m0 9.9v9.9a1.26 1.26 0 0 0 1.26 1.27" stroke="#3a414a" fill="none"/><path d="M360.48-18.5h-.96v-.5h.96z" stroke="#3a414a" stroke-width=".05" fill="#3a414a"/><path d="M359.5 1420h.5M335.6 407.53h-2m-4.03 0h-4.04m-4.03 0h-4.03m-4.03 0h-4.04m-4.03 0h-4.03m-4.03 0h-4.03m-4.03 0h-4.03m-4.02 0h-4.04m-4.03 0h-4.02m-4.03 0H261m-4.02 0h-4.03m-4.03 0h-4.03m-4.05 0h-4.03m-4.03 0h-4.05m-4.03 0h-4.03m-4.04 0h-4.03m-4.04 0h-4.04m-4.03 0h-4.03m-4.04 0h-4.03m-4.03 0h-4.03m-4.04 0h-4.03m-4.03 0h-4.03m-4.04 0h-4.03m-4.03 0h-4.03m-4.03 0h-4.03m-4.03 0H132m-4.03 0h-4.04m-4.02 0h-4.03m-4.03 0h-4.04m-4.03 0h-4.03m-4.03 0h-4.05m-4.03 0H83.6m-4.04 0h-4.04m-4.03 0h-4.04m-4.03 0H59.4m-4.04 0h-4.03m-4.03 0h-4.04m-4.03 0H35.2m-4.03 0h-4.04m-4.03 0h-4.03m-4.03 0H11m-4.03 0H2.94m-4.03 0h-4.03m-4.03 0h-4.03m-4.02 0h-4.04m-4.03 0h-2" stroke="#3a414a" fill="none"/><path d="M336.1 408h-.5v-.95h.5z" stroke="#3a414a" stroke-width=".05" fill="#3a414a"/><path d="M-18.43 417.53l-17.32-10 17.32-10m-17.32 10h8.5" stroke="#3a414a" fill="none"/><use xlink:href="#n" transform="matrix(1,0,0,1,-6.863263134484043,346.7397288167998) translate(0 20.666666666666668)"/><use xlink:href="#o" transform="matrix(1,0,0,1,-6.863263134484043,346.7397288167998) translate(0 51.641666666666666)"/><path d="M337.1 886a6 6 0 0 1 6-6h28a6 6 0 0 1 6 6v88a6 6 0 0 1-6 6h-28a6 6 0 0 1-6-6zM-80 886a6 6 0 0 1 6-6h28a6 6 0 0 1 6 6v88a6 6 0 0 1-6 6h-28a6 6 0 0 1-6-6z" stroke="#000" stroke-width="2" fill="#fff"/><path d="M335.6 935.8h-1.97m-3.97 0h-3.97m-3.98 0h-3.97m-3.97 0h-3.97m-3.95 0h-3.97m-3.97 0h-3.96m-3.97 0H286m-3.97 0h-3.97m-3.97 0h-3.98m-3.97 0h-3.97m-3.97 0h-3.95m-3.97 0h-3.97m-3.96 0h-3.97m-3.97 0h-3.97m-3.97 0h-3.97m-3.98 0h-3.97m-3.97 0h-3.97m-3.96 0h-3.96m-3.97 0h-3.96m-3.97 0h-3.97m-3.97 0h-3.97m-3.97 0h-3.98m-3.97 0h-3.97m-3.97 0h-3.96m-3.97 0h-3.96m-3.96 0h-3.97m-3.97 0h-3.97m-3.97 0h-3.97m-3.98 0h-3.97m-3.97 0h-3.97m-3.96 0h-3.97m-3.97 0h-3.96m-3.97 0H79.6m-3.97 0h-3.97m-3.97 0H63.7m-3.97 0h-3.97m-3.97 0h-3.96m-3.97 0H39.9m-3.96 0h-3.97m-3.97 0h-3.97m-3.97 0H16.1m-3.98 0H8.15m-3.97 0H.2m-3.96 0h-3.97m-3.96 0h-3.96m-3.97 0h-3.97m-3.97 0h-2" stroke="#3a414a" fill="none"/><path d="M336.1 936.3h-.5v-.96h.5z" stroke="#3a414a" stroke-width=".05" fill="#3a414a"/><path d="M-20.68 945.8l-17.32-10 17.32-10m-17.32 10h8.5" stroke="#3a414a" fill="none"/><use xlink:href="#p" transform="matrix(1,0,0,1,0.7966700660224433,906.0005128922332) translate(0 20.666666666666668)"/><path d="M-77.75 249.04a6 6 0 0 1 6-6h28a6 6 0 0 1 6 6V434a6 6 0 0 1-6 6h-28a6 6 0 0 1-6-6zM337.1 249.04a6 6 0 0 1 6-6h28a6 6 0 0 1 6 6V434a6 6 0 0 1-6 6h-28a6 6 0 0 1-6-6z" stroke="#000" stroke-width="2" fill="#fff"/><path d="M-36.25 293.36h355.98" stroke="#3a414a" fill="none"/><path d="M-36.23 293.83h-.52v-.95h.52z" stroke="#3a414a" stroke-width=".05" fill="#3a414a"/><path d="M334.5 293.36L320.23 298v-9.28z" stroke="#3a414a" fill="#3a414a"/><use xlink:href="#q" transform="matrix(1,0,0,1,74.62613837510382,263.5432968082579) translate(0 20.666666666666668)"/><path d="M-80 586a6 6 0 0 1 6-6h28a6 6 0 0 1 6 6v88a6 6 0 0 1-6 6h-28a6 6 0 0 1-6-6zM340 586a6 6 0 0 1 6-6h28a6 6 0 0 1 6 6v88a6 6 0 0 1-6 6h-28a6 6 0 0 1-6-6z" stroke="#000" stroke-width="2" fill="#fff"/><path d="M-38.5 599.66h361.12" stroke="#3a414a" fill="none"/><path d="M-38.5 600.14h-.5v-.95h.5z" stroke="#3a414a" stroke-width=".05" fill="#3a414a"/><path d="M337.38 599.66l-14.26 4.64v-9.27z" stroke="#3a414a" fill="#3a414a"/><g><use xlink:href="#r" transform="matrix(1,0,0,1,65.41663219522445,569.8526308553614) translate(0 20.666666666666668)"/></g><path d="M338.5 661.15h-2m-4 0h-4m-4 0h-4m-4 0h-4m-4 0h-4m-4 0h-4m-4 0h-4m-4 0h-4m-4 0h-4m-4 0h-4m-4 0h-4m-4 0h-4m-4 0h-4m-4.02 0h-4m-4 0h-4m-4 0h-4m-4 0h-4m-4 0h-4m-4 0h-4m-4 0h-4m-4 0h-4m-4 0h-4m-4 0h-4m-4 0h-4m-4 0h-4m-4 0h-4m-4 0h-4m-4 0h-4m-4 0h-4.02m-4 0h-4m-4 0h-4m-4 0h-4m-4 0h-4m-4 0h-4m-4 0h-4m-4 0h-4m-4 0h-4m-4 0h-4m-4 0h-4m-4 0h-4m-4 0h-4m-4 0h-4m-4 0h-4m-4 0h-4m-4 0h-4m-4.02 0h-4m-4 0h-2" stroke="#3a414a" fill="none"/><path d="M339 661.63h-.5v-.95h.5z" stroke="#3a414a" stroke-width=".05" fill="#3a414a"/><path d="M-20.68 671.15l-17.32-10 17.32-10m-17.32 10h8.5" stroke="#3a414a" fill="none"/><g><use xlink:href="#s" transform="matrix(1,0,0,1,25.718785398734184,631.3383860934555) translate(0 20.666666666666668)"/></g><defs><path d="M471 26C259 26 90-98 90-318c0-256 228-303 435-329 202-27 287-16 287-108 0-139-79-219-234-219-161 0-248 86-283 164l-173-57c86-203 278-265 451-265 150 0 419 46 419 395V0H815v-152h-12C765-73 660 26 471 26zm31-159c199 0 310-134 310-271v-155c-30 35-226 55-295 64-131 17-246 59-246 186 0 116 97 176 231 176" id="t"/><path d="M338-1490V0H158v-1490h180" id="u"/><path d="M598-1118v154H368v674c0 100 37 144 132 144 23 0 62-6 92-12L629-6c-37 13-88 20-134 20-193 0-307-107-307-290v-688H20v-154h168v-266h180v266h230" id="v"/><g id="a"><use transform="matrix(0.010850694444444442,0,0,0.010850694444444442,0,0)" xlink:href="#t"/><use transform="matrix(0.010850694444444442,0,0,0.010850694444444442,12.478298611111109,0)" xlink:href="#u"/><use transform="matrix(0.010850694444444442,0,0,0.010850694444444442,18.185763888888886,0)" xlink:href="#v"/></g><path d="M226 279v-1860h398v153H398V126h226v153H226" id="w"/><path d="M783 20c-382 0-661-292-661-764 0-473 279-766 661-766 302 0 548 182 601 489h-190c-42-204-217-313-411-313-268 0-476 208-476 590 0 381 209 588 476 588 195 0 369-110 411-313h190c-52 303-296 489-601 489" id="x"/><path d="M613 24c-304 0-509-231-509-576 0-350 205-580 509-580 305 0 511 230 511 580 0 345-206 576-511 576zm0-161c226 0 329-195 329-415 0-222-103-419-329-419-223 0-326 196-326 419 0 220 103 415 326 415" id="y"/><path d="M158 0v-1118h175l1 205c55-151 181-225 313-225 147 0 245 90 285 228 53-141 190-228 352-228 194 0 352 125 352 384V0h-181v-749c0-161-105-225-225-225-151 0-243 103-243 244V0H807v-767c0-124-93-207-219-207-131 0-250 92-250 270V0H158" id="z"/><path d="M158 418v-1536h174v179h20c37-59 106-193 324-193 279 0 474 222 474 576 0 356-194 580-473 580-213 0-288-135-325-197h-14v591H158zm492-555c209 0 317-186 317-421 0-232-105-413-317-413-206 0-314 166-314 413 0 249 111 421 314 421" id="A"/><path d="M628 24c-324 0-524-230-524-574 0-343 198-582 503-582 237 0 487 146 487 559v75H286c9 234 145 362 343 362 132 0 231-58 273-172l174 48C1024-91 857 24 628 24zM287-650h624c-17-190-120-322-304-322-192 0-309 151-320 322" id="B"/><path d="M577 24c-279 0-473-224-473-580 0-354 195-576 474-576 218 0 287 134 324 193h14v-551h180V0H922v-173h-20C865-111 790 24 577 24zm27-161c203 0 314-172 314-421 0-247-108-413-314-413-212 0-317 181-317 413 0 235 108 421 317 421" id="C"/><g id="b"><use transform="matrix(0.010416666666666668,0,0,0.010416666666666668,0,0)" xlink:href="#w"/><use transform="matrix(0.010416666666666668,0,0,0.010416666666666668,7.781250000000001,0)" xlink:href="#x"/><use transform="matrix(0.010416666666666668,0,0,0.010416666666666668,23.364583333333336,0)" xlink:href="#y"/><use transform="matrix(0.010416666666666668,0,0,0.010416666666666668,36.15625,0)" xlink:href="#z"/><use transform="matrix(0.010416666666666668,0,0,0.010416666666666668,54.84375,0)" xlink:href="#A"/><use transform="matrix(0.010416666666666668,0,0,0.010416666666666668,67.90625,0)" xlink:href="#u"/><use transform="matrix(0.010416666666666668,0,0,0.010416666666666668,73.07291666666667,0)" xlink:href="#B"/><use transform="matrix(0.010416666666666668,0,0,0.010416666666666668,85.51041666666667,0)" xlink:href="#v"/><use transform="matrix(0.010416666666666668,0,0,0.010416666666666668,92.28125000000001,0)" xlink:href="#B"/><use transform="matrix(0.010416666666666668,0,0,0.010416666666666668,104.71875000000001,0)" xlink:href="#C"/></g><path d="M98-1322v-168h1126v168H757V0H567v-1322H98" id="D"/><path d="M158 0v-1118h174v172h12c41-113 157-188 290-188 26 0 70 2 91 3v181c-11-2-60-10-108-10-161 0-279 109-279 260V0H158" id="E"/><path d="M158 0v-1118h180V0H158zm91-1301c-68 0-125-53-125-119s57-119 125-119c69 0 126 53 126 119s-57 119-126 119" id="F"/><path d="M538 24C308 24 148-78 108-271l171-41c32 123 123 178 257 178 156 0 256-77 256-169 0-77-54-128-164-154l-186-44c-203-48-300-148-300-305 0-192 176-326 414-326 230 0 351 112 402 269l-163 42c-31-80-94-158-238-158-133 0-233 69-233 162 0 83 57 129 188 160l169 40c203 48 298 149 298 302 0 196-179 339-441 339" id="G"/><g id="c"><use transform="matrix(0.010416666666666668,0,0,0.010416666666666668,0,0)" xlink:href="#D"/><use transform="matrix(0.010416666666666668,0,0,0.010416666666666668,12.562500000000002,0)" xlink:href="#E"/><use transform="matrix(0.010416666666666668,0,0,0.010416666666666668,20.927083333333336,0)" xlink:href="#F"/><use transform="matrix(0.010416666666666668,0,0,0.010416666666666668,26.093750000000004,0)" xlink:href="#A"/><use transform="matrix(0.010416666666666668,0,0,0.010416666666666668,39.15625000000001,0)" xlink:href="#G"/></g><path d="M180 0v-1490h908v168H370v486h669v168H370v500h727V0H180" id="H"/><path d="M65 0l393-574-370-544h210c88 136 192 297 267 435 67-142 176-302 264-435h206L661-564 1053 0H844c-94-144-206-310-287-458C484-308 366-142 273 0H65" id="I"/><path d="M123 279V126h226v-1554H123v-153h398V279H123" id="J"/><g id="d"><use transform="matrix(0.010416666666666668,0,0,0.010416666666666668,0,0)" xlink:href="#H"/><use transform="matrix(0.010416666666666668,0,0,0.010416666666666668,12.822916666666668,0)" xlink:href="#I"/><use transform="matrix(0.010416666666666668,0,0,0.010416666666666668,24.468749999999996,0)" xlink:href="#F"/><use transform="matrix(0.010416666666666668,0,0,0.010416666666666668,29.63541666666667,0)" xlink:href="#G"/><use transform="matrix(0.010416666666666668,0,0,0.010416666666666668,40.895833333333336,0)" xlink:href="#v"/><use transform="matrix(0.010416666666666668,0,0,0.010416666666666668,47.87499999999999,0)" xlink:href="#J"/></g><path d="M180 0v-1490h224l606 953c40 63 108 177 176 312-27-437-7-821-13-1265h190V0h-226C860-448 622-778 356-1262c27 476 11 792 15 1262H180" id="K"/><g id="e"><use transform="matrix(0.010850694444444442,0,0,0.010850694444444442,0,0)" xlink:href="#w"/><use transform="matrix(0.010850694444444442,0,0,0.010850694444444442,8.105468749999998,0)" xlink:href="#K"/><use transform="matrix(0.010850694444444442,0,0,0.010850694444444442,24.84809027777777,0)" xlink:href="#y"/></g><g id="f"><use transform="matrix(0.010850694444444442,0,0,0.010850694444444442,0,0)" xlink:href="#D"/><use transform="matrix(0.010850694444444442,0,0,0.010850694444444442,13.085937499999998,0)" xlink:href="#E"/><use transform="matrix(0.010850694444444442,0,0,0.010850694444444442,21.799045138888886,0)" xlink:href="#F"/><use transform="matrix(0.010850694444444442,0,0,0.010850694444444442,27.18098958333333,0)" xlink:href="#A"/><use transform="matrix(0.010850694444444442,0,0,0.010850694444444442,40.78776041666666,0)" xlink:href="#G"/><use transform="matrix(0.010850694444444442,0,0,0.010850694444444442,52.5173611111111,0)" xlink:href="#J"/></g><path d="M784 20c-382 0-662-292-662-764 0-473 280-766 662-766s660 293 660 766c0 472-278 764-660 764zm0-176c266 0 475-207 475-588 0-383-209-590-475-590-268 0-477 208-477 590 0 380 209 588 477 588" id="L"/><g id="g"><use transform="matrix(0.010850694444444444,0,0,0.010850694444444444,0,0)" xlink:href="#L"/><use transform="matrix(0.010850694444444444,0,0,0.010850694444444444,16.9921875,0)" xlink:href="#A"/><use transform="matrix(0.010850694444444444,0,0,0.010850694444444444,30.598958333333332,0)" xlink:href="#v"/></g><path d="M338-670V0H158v-1490h180v566c73-149 190-208 336-208 226 0 379 139 379 422V0H872v-695c0-172-96-275-252-275-161 0-282 109-282 300" id="M"/><g id="h"><use transform="matrix(0.010416666666666668,0,0,0.010416666666666668,0,0)" xlink:href="#w"/><use transform="matrix(0.010416666666666668,0,0,0.010416666666666668,7.781250000000001,0)" xlink:href="#x"/><use transform="matrix(0.010416666666666668,0,0,0.010416666666666668,23.364583333333336,0)" xlink:href="#M"/><use transform="matrix(0.010416666666666668,0,0,0.010416666666666668,35.97916666666667,0)" xlink:href="#y"/><use transform="matrix(0.010416666666666668,0,0,0.010416666666666668,48.770833333333336,0)" xlink:href="#y"/><use transform="matrix(0.010416666666666668,0,0,0.010416666666666668,61.562500000000014,0)" xlink:href="#G"/><use transform="matrix(0.010416666666666668,0,0,0.010416666666666668,72.82291666666669,0)" xlink:href="#B"/></g><use transform="matrix(0.010416666666666668,0,0,0.010416666666666668,0,0)" xlink:href="#t" id="i"/><path d="M613 24c-304 0-509-231-509-576 0-350 205-580 509-580 216 0 392 114 453 309l-173 49c-33-115-133-197-280-197-223 0-326 196-326 419 0 220 103 415 326 415 150 0 252-85 285-206l172 49C1010-95 832 24 613 24" id="N"/><path d="M678-1118v154H420V0H240v-964H20v-154h220v-149c0-194 155-293 318-293 85 0 141 18 168 30l-50 154c-19-6-47-17-97-17-111 0-159 58-159 166v109h258" id="O"/><g id="j"><use transform="matrix(0.010416666666666668,0,0,0.010416666666666668,0,0)" xlink:href="#G"/><use transform="matrix(0.010416666666666668,0,0,0.010416666666666668,11.260416666666668,0)" xlink:href="#A"/><use transform="matrix(0.010416666666666668,0,0,0.010416666666666668,24.322916666666668,0)" xlink:href="#B"/><use transform="matrix(0.010416666666666668,0,0,0.010416666666666668,36.76041666666667,0)" xlink:href="#N"/><use transform="matrix(0.010416666666666668,0,0,0.010416666666666668,48.94791666666667,0)" xlink:href="#F"/><use transform="matrix(0.010416666666666668,0,0,0.010416666666666668,54.11458333333334,0)" xlink:href="#O"/><use transform="matrix(0.010416666666666668,0,0,0.010416666666666668,62.01041666666667,0)" xlink:href="#F"/><use transform="matrix(0.010416666666666668,0,0,0.010416666666666668,67.17708333333334,0)" xlink:href="#N"/></g><g id="k"><use transform="matrix(0.010416666666666668,0,0,0.010416666666666668,0,0)" xlink:href="#v"/><use transform="matrix(0.010416666666666668,0,0,0.010416666666666668,6.979166666666668,0)" xlink:href="#E"/><use transform="matrix(0.010416666666666668,0,0,0.010416666666666668,15.343750000000004,0)" xlink:href="#F"/><use transform="matrix(0.010416666666666668,0,0,0.010416666666666668,20.51041666666667,0)" xlink:href="#A"/><use transform="matrix(0.010416666666666668,0,0,0.010416666666666668,33.33333333333334,0)" xlink:href="#J"/></g><path d="M645 0H180v-1490h484c435 0 692 280 692 742 0 466-257 748-711 748zM370-168h263c363 0 539-218 539-580 0-358-176-574-521-574H370v1154" id="P"/><path d="M481 0L54-1118h197c107 314 236 620 325 951 87-331 217-637 324-951h197L670 0H481" id="Q"/><g id="l"><use transform="matrix(0.010850694444444444,0,0,0.010850694444444444,0,0)" xlink:href="#P"/><use transform="matrix(0.010850694444444444,0,0,0.010850694444444444,16.03732638888889,0)" xlink:href="#E"/><use transform="matrix(0.010850694444444444,0,0,0.010850694444444444,24.75043402777778,0)" xlink:href="#F"/><use transform="matrix(0.010850694444444444,0,0,0.010850694444444444,30.13237847222222,0)" xlink:href="#Q"/><use transform="matrix(0.010850694444444444,0,0,0.010850694444444444,42.1875,0)" xlink:href="#B"/><use transform="matrix(0.010850694444444444,0,0,0.010850694444444444,55.143229166666664,0)" xlink:href="#E"/></g><path d="M295 13c-75 0-135-60-135-135s60-135 135-135 135 60 135 135S370 13 295 13zm0-809c-75 0-135-60-135-135s60-135 135-135 135 60 135 135-60 135-135 135" id="R"/><path d="M657 26c-323 0-524-166-541-416h195c15 169 171 246 346 246 202 0 356-106 356-265 5-203-294-238-475-293-239-73-380-191-380-389 0-252 224-419 512-419 294 0 499 171 508 396H992c-17-145-151-228-328-228-193 0-321 102-321 242 0 156 175 211 284 241l149 41c160 44 422 134 422 412 0 244-197 432-541 432" id="S"/><path d="M140 405l46-156c120 36 205 19 263-150l32-93L54-1118h197c107 313 237 620 324 950 87-331 219-637 326-950h196L606 167c-68 178-176 259-334 259-64 0-113-12-132-21" id="T"/><g id="m"><use transform="matrix(0.010850694444444444,0,0,0.010850694444444444,0,0)" xlink:href="#R"/><use transform="matrix(0.010850694444444444,0,0,0.010850694444444444,6.401909722222222,0)" xlink:href="#S"/><use transform="matrix(0.010850694444444444,0,0,0.010850694444444444,20.65972222222222,0)" xlink:href="#T"/><use transform="matrix(0.010850694444444444,0,0,0.010850694444444444,33.14887152777778,0)" xlink:href="#G"/><use transform="matrix(0.010850694444444444,0,0,0.010850694444444444,44.87847222222222,0)" xlink:href="#v"/><use transform="matrix(0.010850694444444444,0,0,0.010850694444444444,51.93142361111112,0)" xlink:href="#B"/><use transform="matrix(0.010850694444444444,0,0,0.010850694444444444,64.88715277777779,0)" xlink:href="#z"/><path d="M-1.1 4.54h86.57v1.52H-1.1z"/></g><path d="M338-670V0H158v-1118h173l1 207c72-158 192-221 342-221 226 0 378 139 378 422V0H872v-695c0-172-96-275-252-275-161 0-282 109-282 300" id="U"/><path d="M611 442c-248 0-391-105-460-228l146-94c47 65 117 165 314 165 178 0 307-82 307-266v-224h-17C863-141 792-18 576-18c-268 0-472-195-472-546 0-346 197-568 476-568 216 0 288 133 326 193h17v-179h175V29c0 289-215 413-487 413zm-5-620c203 0 314-146 314-390 0-237-108-403-314-403-213 0-319 180-319 403 0 230 109 390 319 390" id="V"/><path d="M537 14c-226 0-379-139-379-422v-710h180v695c0 172 97 275 253 275 160 0 281-109 281-300v-670h181V0H879v-209C806-46 684 14 537 14" id="W"/><path d="M218-607c0-325 108-727 258-974h175c-155 315-250 682-250 974 0 265 78 531 250 886H476C306-10 218-315 218-607" id="X"/><path d="M128 359l88-567h206L266 359H128" id="Y"/><g id="n"><use transform="matrix(0.010416666666666668,0,0,0.010416666666666668,0,0)" xlink:href="#C"/><use transform="matrix(0.010416666666666668,0,0,0.010416666666666668,13.062500000000002,0)" xlink:href="#F"/><use transform="matrix(0.010416666666666668,0,0,0.010416666666666668,18.229166666666668,0)" xlink:href="#G"/><use transform="matrix(0.010416666666666668,0,0,0.010416666666666668,29.489583333333336,0)" xlink:href="#A"/><use transform="matrix(0.010416666666666668,0,0,0.010416666666666668,42.552083333333336,0)" xlink:href="#u"/><use transform="matrix(0.010416666666666668,0,0,0.010416666666666668,47.71874999999999,0)" xlink:href="#t"/><use transform="matrix(0.010416666666666668,0,0,0.010416666666666668,59.38541666666667,0)" xlink:href="#T"/><use transform="matrix(0.010416666666666668,0,0,0.010416666666666668,71.47916666666667,0)" xlink:href="#H"/><use transform="matrix(0.010416666666666668,0,0,0.010416666666666668,84.30208333333334,0)" xlink:href="#t"/><use transform="matrix(0.010416666666666668,0,0,0.010416666666666668,96.28125000000001,0)" xlink:href="#E"/><use transform="matrix(0.010416666666666668,0,0,0.010416666666666668,104.64583333333334,0)" xlink:href="#U"/><use transform="matrix(0.010416666666666668,0,0,0.010416666666666668,117.25000000000001,0)" xlink:href="#F"/><use transform="matrix(0.010416666666666668,0,0,0.010416666666666668,122.41666666666669,0)" xlink:href="#U"/><use transform="matrix(0.010416666666666668,0,0,0.010416666666666668,135.02083333333334,0)" xlink:href="#V"/><use transform="matrix(0.010416666666666668,0,0,0.010416666666666668,148.10416666666669,0)" xlink:href="#G"/><use transform="matrix(0.010416666666666668,0,0,0.010416666666666668,159.36458333333334,0)" xlink:href="#S"/><use transform="matrix(0.010416666666666668,0,0,0.010416666666666668,173.05208333333334,0)" xlink:href="#W"/><use transform="matrix(0.010416666666666668,0,0,0.010416666666666668,185.66666666666669,0)" xlink:href="#z"/><use transform="matrix(0.010416666666666668,0,0,0.010416666666666668,204.35416666666669,0)" xlink:href="#z"/><use transform="matrix(0.010416666666666668,0,0,0.010416666666666668,223.04166666666669,0)" xlink:href="#t"/><use transform="matrix(0.010416666666666668,0,0,0.010416666666666668,235.02083333333337,0)" xlink:href="#E"/><use transform="matrix(0.010416666666666668,0,0,0.010416666666666668,243.38541666666669,0)" xlink:href="#T"/><use transform="matrix(0.010416666666666668,0,0,0.010416666666666668,255.37500000000003,0)" xlink:href="#X"/><use transform="matrix(0.010416666666666668,0,0,0.010416666666666668,263.15625000000006,0)" xlink:href="#v"/><use transform="matrix(0.010416666666666668,0,0,0.010416666666666668,269.9270833333334,0)" xlink:href="#y"/><use transform="matrix(0.010416666666666668,0,0,0.010416666666666668,282.7187500000001,0)" xlink:href="#v"/><use transform="matrix(0.010416666666666668,0,0,0.010416666666666668,289.8020833333335,0)" xlink:href="#t"/><use transform="matrix(0.010416666666666668,0,0,0.010416666666666668,301.78125000000017,0)" xlink:href="#u"/><use transform="matrix(0.010416666666666668,0,0,0.010416666666666668,306.94791666666686,0)" xlink:href="#Y"/></g><path d="M96 279C273-86 346-350 346-607c0-292-95-659-250-974h175c150 246 258 650 258 974 0 297-91 602-258 886H96" id="Z"/><g id="o"><use transform="matrix(0.010416666666666668,0,0,0.010416666666666668,0,0)" xlink:href="#u"/><use transform="matrix(0.010416666666666668,0,0,0.010416666666666668,5.166666666666667,0)" xlink:href="#F"/><use transform="matrix(0.010416666666666668,0,0,0.010416666666666668,10.333333333333334,0)" xlink:href="#G"/><use transform="matrix(0.010416666666666668,0,0,0.010416666666666668,21.593749999999996,0)" xlink:href="#v"/><use transform="matrix(0.010416666666666668,0,0,0.010416666666666668,28.57291666666667,0)" xlink:href="#Z"/></g><path d="M180 0v-1490h270l367 940c28 72 75 218 110 339 35-117 81-264 110-339l362-940h271V0h-187c2-448-5-837 7-1287-157 497-311 829-483 1287H842C666-458 514-784 354-1284c12 438 5 843 7 1284H180" id="aa"/><g id="p"><use transform="matrix(0.010416666666666668,0,0,0.010416666666666668,0,0)" xlink:href="#C"/><use transform="matrix(0.010416666666666668,0,0,0.010416666666666668,13.062500000000002,0)" xlink:href="#F"/><use transform="matrix(0.010416666666666668,0,0,0.010416666666666668,18.229166666666668,0)" xlink:href="#G"/><use transform="matrix(0.010416666666666668,0,0,0.010416666666666668,29.489583333333336,0)" xlink:href="#A"/><use transform="matrix(0.010416666666666668,0,0,0.010416666666666668,42.552083333333336,0)" xlink:href="#u"/><use transform="matrix(0.010416666666666668,0,0,0.010416666666666668,47.71874999999999,0)" xlink:href="#t"/><use transform="matrix(0.010416666666666668,0,0,0.010416666666666668,59.38541666666667,0)" xlink:href="#T"/><use transform="matrix(0.010416666666666668,0,0,0.010416666666666668,71.47916666666667,0)" xlink:href="#K"/><use transform="matrix(0.010416666666666668,0,0,0.010416666666666668,87.55208333333334,0)" xlink:href="#y"/><use transform="matrix(0.010416666666666668,0,0,0.010416666666666668,100.34375000000001,0)" xlink:href="#H"/><use transform="matrix(0.010416666666666668,0,0,0.010416666666666668,113.16666666666669,0)" xlink:href="#t"/><use transform="matrix(0.010416666666666668,0,0,0.010416666666666668,125.14583333333337,0)" xlink:href="#E"/><use transform="matrix(0.010416666666666668,0,0,0.010416666666666668,133.51041666666669,0)" xlink:href="#U"/><use transform="matrix(0.010416666666666668,0,0,0.010416666666666668,146.11458333333334,0)" xlink:href="#F"/><use transform="matrix(0.010416666666666668,0,0,0.010416666666666668,151.28125,0)" xlink:href="#U"/><use transform="matrix(0.010416666666666668,0,0,0.010416666666666668,163.88541666666666,0)" xlink:href="#V"/><use transform="matrix(0.010416666666666668,0,0,0.010416666666666668,176.96874999999997,0)" xlink:href="#G"/><use transform="matrix(0.010416666666666668,0,0,0.010416666666666668,188.22916666666666,0)" xlink:href="#aa"/><use transform="matrix(0.010416666666666668,0,0,0.010416666666666668,207.49999999999997,0)" xlink:href="#B"/><use transform="matrix(0.010416666666666668,0,0,0.010416666666666668,219.9375,0)" xlink:href="#G"/><use transform="matrix(0.010416666666666668,0,0,0.010416666666666668,231.19791666666666,0)" xlink:href="#G"/><use transform="matrix(0.010416666666666668,0,0,0.010416666666666668,242.45833333333331,0)" xlink:href="#t"/><use transform="matrix(0.010416666666666668,0,0,0.010416666666666668,254.4375,0)" xlink:href="#V"/><use transform="matrix(0.010416666666666668,0,0,0.010416666666666668,267.5208333333333,0)" xlink:href="#B"/><use transform="matrix(0.010416666666666668,0,0,0.010416666666666668,279.9583333333333,0)" xlink:href="#X"/><use transform="matrix(0.010416666666666668,0,0,0.010416666666666668,287.7395833333333,0)" xlink:href="#Z"/></g><path d="M409 0L70-1118h191c89 329 165 560 243 925 75-353 154-601 240-925h192c85 325 161 564 235 922 77-354 157-598 244-922h191L1267 0h-179c-86-307-176-590-250-913C763-588 675-308 588 0H409" id="ab"/><g id="q"><use transform="matrix(0.010416666666666668,0,0,0.010416666666666668,0,0)" xlink:href="#Q"/><use transform="matrix(0.010416666666666668,0,0,0.010416666666666668,11.989583333333334,0)" xlink:href="#F"/><use transform="matrix(0.010416666666666668,0,0,0.010416666666666668,17.15625,0)" xlink:href="#B"/><use transform="matrix(0.010416666666666668,0,0,0.010416666666666668,29.208333333333336,0)" xlink:href="#ab"/><use transform="matrix(0.010416666666666668,0,0,0.010416666666666668,46.66666666666667,0)" xlink:href="#H"/><use transform="matrix(0.010416666666666668,0,0,0.010416666666666668,59.48958333333334,0)" xlink:href="#t"/><use transform="matrix(0.010416666666666668,0,0,0.010416666666666668,71.46875000000001,0)" xlink:href="#E"/><use transform="matrix(0.010416666666666668,0,0,0.010416666666666668,79.83333333333334,0)" xlink:href="#U"/><use transform="matrix(0.010416666666666668,0,0,0.010416666666666668,92.43750000000001,0)" xlink:href="#F"/><use transform="matrix(0.010416666666666668,0,0,0.010416666666666668,97.60416666666667,0)" xlink:href="#U"/><use transform="matrix(0.010416666666666668,0,0,0.010416666666666668,110.20833333333337,0)" xlink:href="#V"/><use transform="matrix(0.010416666666666668,0,0,0.010416666666666668,123.29166666666669,0)" xlink:href="#G"/><use transform="matrix(0.010416666666666668,0,0,0.010416666666666668,134.55208333333334,0)" xlink:href="#X"/><use transform="matrix(0.010416666666666668,0,0,0.010416666666666668,142.33333333333334,0)" xlink:href="#Z"/></g><path d="M370-1490V0H180v-1490h190" id="ac"/><g id="r"><use transform="matrix(0.010416666666666668,0,0,0.010416666666666668,0,0)" xlink:href="#G"/><use transform="matrix(0.010416666666666668,0,0,0.010416666666666668,11.260416666666668,0)" xlink:href="#B"/><use transform="matrix(0.010416666666666668,0,0,0.010416666666666668,23.697916666666668,0)" xlink:href="#u"/><use transform="matrix(0.010416666666666668,0,0,0.010416666666666668,28.864583333333343,0)" xlink:href="#B"/><use transform="matrix(0.010416666666666668,0,0,0.010416666666666668,41.30208333333334,0)" xlink:href="#N"/><use transform="matrix(0.010416666666666668,0,0,0.010416666666666668,53.48958333333334,0)" xlink:href="#v"/><use transform="matrix(0.010416666666666668,0,0,0.010416666666666668,59.750000000000014,0)" xlink:href="#D"/><use transform="matrix(0.010416666666666668,0,0,0.010416666666666668,72.31250000000001,0)" xlink:href="#E"/><use transform="matrix(0.010416666666666668,0,0,0.010416666666666668,80.67708333333334,0)" xlink:href="#F"/><use transform="matrix(0.010416666666666668,0,0,0.010416666666666668,85.84375000000001,0)" xlink:href="#A"/><use transform="matrix(0.010416666666666668,0,0,0.010416666666666668,98.90625000000001,0)" xlink:href="#X"/><use transform="matrix(0.010416666666666668,0,0,0.010416666666666668,106.68750000000001,0)" xlink:href="#v"/><use transform="matrix(0.010416666666666668,0,0,0.010416666666666668,113.66666666666669,0)" xlink:href="#E"/><use transform="matrix(0.010416666666666668,0,0,0.010416666666666668,122.03125000000001,0)" xlink:href="#F"/><use transform="matrix(0.010416666666666668,0,0,0.010416666666666668,127.19791666666669,0)" xlink:href="#A"/><use transform="matrix(0.010416666666666668,0,0,0.010416666666666668,140.26041666666669,0)" xlink:href="#ac"/><use transform="matrix(0.010416666666666668,0,0,0.010416666666666668,145.98958333333334,0)" xlink:href="#P"/><use transform="matrix(0.010416666666666668,0,0,0.010416666666666668,161.38541666666669,0)" xlink:href="#Z"/></g><g id="s"><use transform="matrix(0.010416666666666668,0,0,0.010416666666666668,0,0)" xlink:href="#C"/><use transform="matrix(0.010416666666666668,0,0,0.010416666666666668,13.062500000000002,0)" xlink:href="#F"/><use transform="matrix(0.010416666666666668,0,0,0.010416666666666668,18.229166666666668,0)" xlink:href="#G"/><use transform="matrix(0.010416666666666668,0,0,0.010416666666666668,29.489583333333336,0)" xlink:href="#A"/><use transform="matrix(0.010416666666666668,0,0,0.010416666666666668,42.552083333333336,0)" xlink:href="#u"/><use transform="matrix(0.010416666666666668,0,0,0.010416666666666668,47.71874999999999,0)" xlink:href="#t"/><use transform="matrix(0.010416666666666668,0,0,0.010416666666666668,59.38541666666667,0)" xlink:href="#T"/><use transform="matrix(0.010416666666666668,0,0,0.010416666666666668,70.65625,0)" xlink:href="#D"/><use transform="matrix(0.010416666666666668,0,0,0.010416666666666668,83.21875,0)" xlink:href="#E"/><use transform="matrix(0.010416666666666668,0,0,0.010416666666666668,91.58333333333333,0)" xlink:href="#F"/><use transform="matrix(0.010416666666666668,0,0,0.010416666666666668,96.74999999999999,0)" xlink:href="#A"/><use transform="matrix(0.010416666666666668,0,0,0.010416666666666668,109.8125,0)" xlink:href="#P"/><use transform="matrix(0.010416666666666668,0,0,0.010416666666666668,125.20833333333334,0)" xlink:href="#B"/><use transform="matrix(0.010416666666666668,0,0,0.010416666666666668,137.64583333333334,0)" xlink:href="#v"/><use transform="matrix(0.010416666666666668,0,0,0.010416666666666668,144.72916666666666,0)" xlink:href="#t"/><use transform="matrix(0.010416666666666668,0,0,0.010416666666666668,156.70833333333331,0)" xlink:href="#F"/><use transform="matrix(0.010416666666666668,0,0,0.010416666666666668,161.87499999999997,0)" xlink:href="#u"/><use transform="matrix(0.010416666666666668,0,0,0.010416666666666668,167.04166666666663,0)" xlink:href="#G"/><use transform="matrix(0.010416666666666668,0,0,0.010416666666666668,178.3020833333333,0)" xlink:href="#X"/><use transform="matrix(0.010416666666666668,0,0,0.010416666666666668,186.0833333333333,0)" xlink:href="#v"/><use transform="matrix(0.010416666666666668,0,0,0.010416666666666668,193.06249999999994,0)" xlink:href="#E"/><use transform="matrix(0.010416666666666668,0,0,0.010416666666666668,201.4270833333333,0)" xlink:href="#F"/><use transform="matrix(0.010416666666666668,0,0,0.010416666666666668,206.59374999999994,0)" xlink:href="#A"/><use transform="matrix(0.010416666666666668,0,0,0.010416666666666668,219.65624999999994,0)" xlink:href="#ac"/><use transform="matrix(0.010416666666666668,0,0,0.010416666666666668,225.38541666666663,0)" xlink:href="#P"/><use transform="matrix(0.010416666666666668,0,0,0.010416666666666668,240.78124999999994,0)" xlink:href="#Z"/></g></defs></g></svg>