<svg xmlns="http://www.w3.org/2000/svg" xmlns:xlink="http://www.w3.org/1999/xlink" xmlns:lucid="lucid" width="882" height="1822.58"><g transform="translate(-299 -57.916666666666686)" lucid:page-tab-id="kGUF-AUkkwCv"><path d="M0 0h1500v2000H0z" fill="#fff"/><path d="M360 686a6 6 0 0 1 6-6h88a6 6 0 0 1 6 6v8a14.48 14.48 0 0 1-4.24 10.24l-1.52 1.52A14.48 14.48 0 0 1 444 710h-78a6 6 0 0 1-6-6z" fill="#fff"/><path d="M460 680v20l-10 10h-90" stroke="#000" stroke-width="2" fill="none"/><path d="M360 686a6 6 0 0 1 6-6h808a6 6 0 0 1 6 6v208a6 6 0 0 1-6 6H366a6 6 0 0 1-6-6z" stroke="#000" stroke-width="2" fill="none"/><use xlink:href="#a" transform="matrix(1,0,0,1,368,680) translate(0 23.08376736111111)"/><use xlink:href="#b" transform="matrix(1,0,0,1,372,718) translate(0 23.08376736111111)"/><use xlink:href="#c" transform="matrix(1,0,0,1,372,718) translate(81.27170138888887 23.08376736111111)"/><use xlink:href="#d" transform="matrix(1,0,0,1,372,718) translate(150.09765625 23.08376736111111)"/><use xlink:href="#e" transform="matrix(1,0,0,1,372,718) translate(176.72526041666666 23.08376736111111)"/><use xlink:href="#f" transform="matrix(1,0,0,1,372,718) translate(220.61631944444443 23.08376736111111)"/><path d="M320 986a6 6 0 0 1 6-6h88a6 6 0 0 1 6 6v8a14.48 14.48 0 0 1-4.24 10.24l-1.52 1.52A14.48 14.48 0 0 1 404 1010h-78a6 6 0 0 1-6-6z" fill="#fff"/><path d="M420 980v20l-10 10h-90" stroke="#000" stroke-width="2" fill="none"/><path d="M320 986a6 6 0 0 1 6-6h848a6 6 0 0 1 6 6v208a6 6 0 0 1-6 6H326a6 6 0 0 1-6-6z" stroke="#000" stroke-width="2" fill="none"/><use xlink:href="#a" transform="matrix(1,0,0,1,328,980) translate(0 23.08376736111111)"/><use xlink:href="#b" transform="matrix(1,0,0,1,332,1018) translate(0 23.08376736111111)"/><use xlink:href="#c" transform="matrix(1,0,0,1,332,1018) translate(81.27170138888887 23.08376736111111)"/><use xlink:href="#d" transform="matrix(1,0,0,1,332,1018) translate(150.09765625 23.08376736111111)"/><use xlink:href="#e" transform="matrix(1,0,0,1,332,1018) translate(176.72526041666666 23.08376736111111)"/><use xlink:href="#g" transform="matrix(1,0,0,1,332,1018) translate(220.61631944444443 23.08376736111111)"/><path d="M620 766a6 6 0 0 1 6-6h88a6 6 0 0 1 6 6v8a14.48 14.48 0 0 1-4.24 10.24l-1.52 1.52A14.48 14.48 0 0 1 704 790h-78a6 6 0 0 1-6-6z" fill="#fff"/><path d="M720 760v20l-10 10h-90" stroke="#000" stroke-width="2" fill="none"/><path d="M620 766a6 6 0 0 1 6-6h428a6 6 0 0 1 6 6v97.93a6 6 0 0 1-6 6H626a6 6 0 0 1-6-6z" stroke="#000" stroke-width="2" fill="none"/><use xlink:href="#h" transform="matrix(1,0,0,1,628,760) translate(0 23.08376736111111)"/><path d="M620 1066a6 6 0 0 1 6-6h88a6 6 0 0 1 6 6v8a14.48 14.48 0 0 1-4.24 10.24l-1.52 1.52A14.48 14.48 0 0 1 704 1090h-78a6 6 0 0 1-6-6z" fill="#fff"/><path d="M720 1060v20l-10 10h-90" stroke="#000" stroke-width="2" fill="none"/><path d="M620 1066a6 6 0 0 1 6-6h428a6 6 0 0 1 6 6v97.93a6 6 0 0 1-6 6H626a6 6 0 0 1-6-6z" stroke="#000" stroke-width="2" fill="none"/><use xlink:href="#h" transform="matrix(1,0,0,1,628,1060) translate(0 23.08376736111111)"/><path d="M300 1295.07a6 6 0 0 1 6-6h88a6 6 0 0 1 6 6v8a14.48 14.48 0 0 1-4.24 10.25l-1.52 1.5a14.48 14.48 0 0 1-10.24 4.25h-78a6 6 0 0 1-6-6z" fill="#fff"/><path d="M400 1289.07v20l-10 10h-90" stroke="#000" stroke-width="2" fill="none"/><path d="M300 1295.07a6 6 0 0 1 6-6h868a6 6 0 0 1 6 6v208a6 6 0 0 1-6 6H306a6 6 0 0 1-6-6z" stroke="#000" stroke-width="2" fill="none"/><use xlink:href="#a" transform="matrix(1,0,0,1,308,1289.0733907289718) translate(0 23.08376736111111)"/><use xlink:href="#b" transform="matrix(1,0,0,1,312,1327.0733907289718) translate(0 23.08376736111111)"/><use xlink:href="#c" transform="matrix(1,0,0,1,312,1327.0733907289718) translate(81.27170138888887 23.08376736111111)"/><use xlink:href="#d" transform="matrix(1,0,0,1,312,1327.0733907289718) translate(150.09765625 23.08376736111111)"/><use xlink:href="#i" transform="matrix(1,0,0,1,312,1327.0733907289718) translate(176.72526041666666 23.08376736111111)"/><use xlink:href="#f" transform="matrix(1,0,0,1,312,1327.0733907289718) translate(295.10633680555554 23.08376736111111)"/><path d="M620 1375.07a6 6 0 0 1 6-6h88a6 6 0 0 1 6 6v8a14.48 14.48 0 0 1-4.24 10.25l-1.52 1.5a14.48 14.48 0 0 1-10.24 4.25h-78a6 6 0 0 1-6-6z" fill="#fff"/><path d="M720 1369.07v20l-10 10h-90" stroke="#000" stroke-width="2" fill="none"/><path d="M620 1375.07a6 6 0 0 1 6-6h428a6 6 0 0 1 6 6V1473a6 6 0 0 1-6 6H626a6 6 0 0 1-6-6z" stroke="#000" stroke-width="2" fill="none"/><use xlink:href="#h" transform="matrix(1,0,0,1,628,1369.0733907289718) translate(0 23.08376736111111)"/><path d="M632.3 64.92a6 6 0 0 1 6-6h448a6 6 0 0 1 6 6v28a6 6 0 0 1-6 6h-448a6 6 0 0 1-6-6z" fill="#fff"/><use xlink:href="#j" transform="matrix(1,0,0,1,632.3008593302305,58.916666666666686) translate(30.932734375000003 29.02777777777778)"/><use xlink:href="#k" transform="matrix(1,0,0,1,632.3008593302305,58.916666666666686) translate(106.56207465277778 29.02777777777778)"/><use xlink:href="#l" transform="matrix(1,0,0,1,632.3008593302305,58.916666666666686) translate(194.98438368055557 29.02777777777778)"/><use xlink:href="#m" transform="matrix(1,0,0,1,632.3008593302305,58.916666666666686) translate(303.18750868055554 29.02777777777778)"/><path d="M652.55 178.86v-.2a19.75 19.75 0 0 1 19.75-19.74 19.75 19.75 0 0 1 19.75 19.75 19.75 19.75 0 0 1-19.75 19.75 19.75 19.75 0 0 1-19.75-19.75v-.2" stroke="#000" stroke-width="2" fill="#fff"/><path d="M632.3 164.92a6 6 0 0 1 6-6h68a6 6 0 0 1 6 6v146a6 6 0 0 1-6 6h-68a6 6 0 0 1-6-6z" fill="none"/><path d="M672.3 198.42v55.3l40 63.2m-40-63.2l-40 63.2m0-98.75h80" stroke="#000" stroke-width="2" fill="none"/><use xlink:href="#n" transform="matrix(1,0,0,1,552.3008593302305,316.9166666666667) translate(86.54188368055556 21.52777777777778)"/><path d="M672.3 256.1v9.84m0 9.85v19.7m0 9.84v19.7m0 9.86v19.7m0 9.85v19.7m0 9.85v19.7m0 9.86v19.7m0 9.85v19.7m0 9.86v19.7m0 9.86v19.7m0 9.85v19.7m0 9.86v19.7m0 9.85v19.7m0 9.85v19.7m0 9.86v19.7m0 9.84v19.7m0 9.85v19.7m0 9.85v9.85M672.3 255.6" stroke="#3a414a" fill="none"/><path d="M672.78 759h-.95v-.5h.95z" stroke="#3a414a" stroke-width=".05" fill="#3a414a"/><path d="M960.3 194.92a6 6 0 0 1 6-6h148a6 6 0 0 1 6 6v108a6 6 0 0 1-6 6h-148a6 6 0 0 1-6-6z" stroke="#000" stroke-width="2" fill="#fff"/><use xlink:href="#o" transform="matrix(1,0,0,1,960.2985330308808,188.91666666666669) translate(37.82835069444444 66.52777777777777)"/><path d="M1040.3 310.42v9.95m0 9.96v19.92m0 9.95v19.92m0 9.96v19.9m0 9.97v19.9m0 9.97v19.92m0 9.95v19.9m0 9.96v19.92m0 9.96v19.9m0 9.97v19.92m0 9.96v19.92m0 9.95v19.92m0 9.96v19.9m0 9.97v19.9m0 9.97v19.92m0 9.94v9.96" stroke="#3a414a" fill="none"/><path d="M1040.77 310.43h-.95v-.5h.95zM1040.77 759h-.95v-.5h.95z" stroke="#3a414a" stroke-width=".05" fill="#3a414a"/><path d="M652.3 406a6 6 0 0 1 6-6h28a6 6 0 0 1 6 6v108a6 6 0 0 1-6 6h-28a6 6 0 0 1-6-6z" stroke="#000" stroke-width="2" fill="#fff"/><path d="M693.8 425.33h308.82" stroke="#3a414a" fill="none"/><path d="M693.8 425.8h-.5v-.94h.5z" stroke="#3a414a" stroke-width=".05" fill="#3a414a"/><path d="M1017.38 425.33l-14.26 4.64v-9.27z" stroke="#3a414a" fill="#3a414a"/><use xlink:href="#p" transform="matrix(1,0,0,1,786.1373772345625,399.82291978323093) translate(0 17.22222222222222)"/><path d="M702.74 470.67h5.02m5 0h10.03m5 0h10.03m5 0h10.03m5.02 0h10.02m5 0h10.04m5 0h10.03m5 0h10.04m5.02 0h10.02m5.02 0h10.02m5 0h10.04m5 0h10.03m5 0h10.04m5 0h10.02m5.02 0h10.02m5 0h10.04m5 0h10.03m5 0h10.04m5 0h10.03m5.02 0h10.02m5 0h10.04m5 0h5.02M711.62 480.67l-17.32-10 17.32-10m-17.32 10h8.5" stroke="#3a414a" fill="none"/><path d="M1019 471.14h-.5v-.95h.5z" stroke="#3a414a" stroke-width=".05" fill="#3a414a"/><use xlink:href="#q" transform="matrix(1,0,0,1,801.5888080987556,445.15624817825386) translate(0 17.22222222222222)"/><path d="M1020 404.92a6 6 0 0 1 6-6h28a6 6 0 0 1 6 6v108a6 6 0 0 1-6 6h-28a6 6 0 0 1-6-6z" stroke="#000" stroke-width="2" fill="#fff"/><path d="M693.8 600h309.82" stroke="#3a414a" fill="none"/><path d="M693.8 600.48h-.5v-.96h.5z" stroke="#3a414a" stroke-width=".05" fill="#3a414a"/><path d="M1018.38 600l-14.26 4.63v-9.26z" stroke="#3a414a" fill="#3a414a"/><use xlink:href="#r" transform="matrix(1,0,0,1,794.6799092947451,574.4895833333334) translate(0 17.22222222222222)"/><path d="M702.74 640h5.02m5 0h10.03m5 0h10.03m5 0h10.03m5.02 0h10.02m5 0h10.04m5 0h10.03m5 0h10.04m5.02 0h10.02m5.02 0h10.02m5 0h10.04m5 0h10.03m5 0h10.04m5 0h10.02m5.02 0h10.02m5 0h10.04m5 0h10.03m5 0h10.04m5 0h10.03m5.02 0h10.02m5 0h10.04m5 0h5.02M711.62 650l-17.32-10 17.32-10m-17.32 10h8.5" stroke="#3a414a" fill="none"/><path d="M1019 640.48h-.5v-.96h.5z" stroke="#3a414a" stroke-width=".05" fill="#3a414a"/><use xlink:href="#s" transform="matrix(1,0,0,1,829.0714551280782,614.4895833333333) translate(0 17.22222222222222)"/><path d="M652.3 566a6 6 0 0 1 6-6h28a6 6 0 0 1 6 6v108a6 6 0 0 1-6 6h-28a6 6 0 0 1-6-6zM1020 566a6 6 0 0 1 6-6h28a6 6 0 0 1 6 6v108a6 6 0 0 1-6 6h-28a6 6 0 0 1-6-6z" stroke="#000" stroke-width="2" fill="#fff"/><path d="M692.3 799.9a6 6 0 0 1 6-6h355.4a6 6 0 0 1 6 6v64.03a6 6 0 0 1-6 6H698.3a6 6 0 0 1-6-6z" fill="none"/><use xlink:href="#t" transform="matrix(1,0,0,1,697.3008593302305,798.8973883819303) translate(0 41.583767361111114)"/><use xlink:href="#u" transform="matrix(1,0,0,1,697.3008593302305,798.8973883819303) translate(141.63411458333334 41.583767361111114)"/><use xlink:href="#v" transform="matrix(1,0,0,1,697.3008593302305,798.8973883819303) translate(211.39322916666669 41.583767361111114)"/><path d="M680 871.43v10.4m0 10.38V913m0 10.4v20.78m0 10.4v20.78m0 10.4v20.77m0 10.4v20.78m0 10.4v10.4" stroke="#3a414a" fill="none"/><path d="M680.48 871.44h-.96v-.5h.96zM680.48 1059h-.96v-.5h.96z" stroke="#3a414a" stroke-width=".05" fill="#3a414a"/><path d="M657.74 1099.9a6 6 0 0 1 6-6h355.4a6 6 0 0 1 6 6v64.03a6 6 0 0 1-6 6h-355.4a6 6 0 0 1-6-6z" fill="none"/><use xlink:href="#w" transform="matrix(1,0,0,1,662.741500886581,1098.8973883819303) translate(0 25.45095486111111)"/><use xlink:href="#x" transform="matrix(1,0,0,1,662.741500886581,1098.8973883819303) translate(141.66666666666669 25.45095486111111)"/><use xlink:href="#y" transform="matrix(1,0,0,1,662.741500886581,1098.8973883819303) translate(259.08203125 25.45095486111111)"/><use xlink:href="#z" transform="matrix(1,0,0,1,662.741500886581,1098.8973883819303) translate(0 57.71657986111111)"/><path d="M1040 871.43v10.4m0 10.38V913m0 10.4v20.78m0 10.4v20.78m0 10.4v20.77m0 10.4v20.78m0 10.4v10.4" stroke="#3a414a" fill="none"/><path d="M1040.47 871.44h-.94v-.5h.94zM1040.47 1059h-.94v-.5h.94z" stroke="#3a414a" stroke-width=".05" fill="#3a414a"/><path d="M680 1180.5v10.4m0 10.4v20.77m0 10.4v20.78m0 10.4v20.78m0 10.4v20.78m0 10.4v20.8m0 10.38v10.4M680 1180.5v-.5" stroke="#3a414a" fill="none"/><path d="M680.48 1368.07h-.96v-.5h.96z" stroke="#3a414a" stroke-width=".05" fill="#3a414a"/><path d="M657.74 1408.97a6 6 0 0 1 6-6h355.4a6 6 0 0 1 6 6V1473a6 6 0 0 1-6 6h-355.4a6 6 0 0 1-6-6z" fill="none"/><use xlink:href="#A" transform="matrix(1,0,0,1,662.741500886581,1407.9707791109022) translate(0 25.45095486111111)"/><use xlink:href="#u" transform="matrix(1,0,0,1,662.741500886581,1407.9707791109022) translate(179.70920138888889 25.45095486111111)"/><use xlink:href="#y" transform="matrix(1,0,0,1,662.741500886581,1407.9707791109022) translate(249.46831597222223 25.45095486111111)"/><use xlink:href="#z" transform="matrix(1,0,0,1,662.741500886581,1407.9707791109022) translate(0 57.71657986111111)"/><path d="M1040 1180.5v10.4m0 10.4v20.77m0 10.4v20.78m0 10.4v20.78m0 10.4v20.78m0 10.4v20.8m0 10.38v10.4M1040 1180.5v-.5" stroke="#3a414a" fill="none"/><path d="M1040.47 1368.07h-.94v-.5h.94z" stroke="#3a414a" stroke-width=".05" fill="#3a414a"/><path d="M680 1479.5v10.26m0 10.25v20.53m0 10.25v20.52m0 10.25v20.5m0 10.27v20.5m0 10.27v20.5m0 10.26v20.5m0 10.27v20.5m0 10.27v20.5m0 10.27v20.5m0 10.27v20.5m0 10.26v20.52m0 10.25V1859m0 10.24v10.26" stroke="#3a414a" fill="none"/><path d="M680.48 1479.5h-.96v-.5h.96z" stroke="#3a414a" stroke-width=".05" fill="#3a414a"/><path d="M680 1879.5v.5M1040 1480.5v10.23m0 10.23v20.46m0 10.23v20.46m0 10.25v20.46m0 10.24v20.46m0 10.23v20.46m0 10.22v20.46m0 10.23v20.48m0 10.23v20.47m0 10.23v20.46m0 10.23v20.45m0 10.23v20.47m0 10.23v20.46m0 10.23v10.23" stroke="#3a414a" fill="none"/><path d="M1040.47 1480.5h-.94v-.5h.94z" stroke="#3a414a" stroke-width=".05" fill="#3a414a"/><path d="M1040 1879.5v.5" stroke="#3a414a" fill="none"/><path d="M660 1626a6 6 0 0 1 6-6h28a6 6 0 0 1 6 6v108a6 6 0 0 1-6 6h-28a6 6 0 0 1-6-6zM1020 1626a6 6 0 0 1 6-6h28a6 6 0 0 1 6 6v108a6 6 0 0 1-6 6h-28a6 6 0 0 1-6-6z" stroke="#000" stroke-width="2" fill="#fff"/><path d="M701.5 1649.92h301.12" stroke="#3a414a" fill="none"/><path d="M701.5 1650.4h-.5v-.95h.5z" stroke="#3a414a" stroke-width=".05" fill="#3a414a"/><path d="M1017.38 1649.92l-14.26 4.64v-9.27z" stroke="#3a414a" fill="#3a414a"/><g><use xlink:href="#B" transform="matrix(1,0,0,1,786.6492777057376,1624.4117799875146) translate(0 17.22222222222222)"/></g><path d="M1018.5 1699.85h-4.9m-4.88 0h-9.78m-4.9 0h-9.77m-4.9 0h-9.77m-4.9 0h-9.77m-4.9 0h-9.77m-4.9 0h-9.77m-4.9 0h-9.78m-4.88 0h-9.78m-4.9 0h-9.77m-4.9 0h-9.78m-4.9 0h-9.77m-4.9 0h-9.77m-4.9 0h-9.77m-4.88 0h-9.78m-4.9 0h-9.77m-4.9 0h-9.77m-4.9 0h-9.77m-4.9 0h-9.77m-4.9 0h-9.77m-4.9 0h-9.78m-4.9 0h-4.88" stroke="#3a414a" fill="none"/><path d="M1019 1700.33h-.5v-.95h.5z" stroke="#3a414a" stroke-width=".05" fill="#3a414a"/><path d="M719.32 1709.85l-17.32-10 17.32-10m-17.32 10h8.5" stroke="#3a414a" fill="none"/><g><use xlink:href="#C" transform="matrix(1,0,0,1,795.7291850500449,1703.8540485031142) translate(0 17.22222222222222)"/></g><defs><path d="M784 20c-382 0-662-292-662-764 0-473 280-766 662-766s660 293 660 766c0 472-278 764-660 764zm0-176c266 0 475-207 475-588 0-383-209-590-475-590-268 0-477 208-477 590 0 380 209 588 477 588" id="D"/><path d="M158 418v-1536h174v179h20c37-59 106-193 324-193 279 0 474 222 474 576 0 356-194 580-473 580-213 0-288-135-325-197h-14v591H158zm492-555c209 0 317-186 317-421 0-232-105-413-317-413-206 0-314 166-314 413 0 249 111 421 314 421" id="E"/><path d="M598-1118v154H368v674c0 100 37 144 132 144 23 0 62-6 92-12L629-6c-37 13-88 20-134 20-193 0-307-107-307-290v-688H20v-154h168v-266h180v266h230" id="F"/><g id="a"><use transform="matrix(0.010850694444444444,0,0,0.010850694444444444,0,0)" xlink:href="#D"/><use transform="matrix(0.010850694444444444,0,0,0.010850694444444444,16.9921875,0)" xlink:href="#E"/><use transform="matrix(0.010850694444444444,0,0,0.010850694444444444,30.598958333333332,0)" xlink:href="#F"/></g><path d="M226 279v-1860h398v153H398V126h226v153H226" id="G"/><path d="M52 0l541-1490h220L1361 0h-200l-149-416H398L254 0H52zm404-582h497c-103-290-145-390-251-756-108 377-145 460-246 756" id="H"/><path d="M577 24c-279 0-473-224-473-580 0-354 195-576 474-576 218 0 287 134 324 193h14v-551h180V0H922v-173h-20C865-111 790 24 577 24zm27-161c203 0 314-172 314-421 0-247-108-413-314-413-212 0-317 181-317 413 0 235 108 421 317 421" id="I"/><path d="M158 0v-1118h175l1 205c55-151 181-225 313-225 147 0 245 90 285 228 53-141 190-228 352-228 194 0 352 125 352 384V0h-181v-749c0-161-105-225-225-225-151 0-243 103-243 244V0H807v-767c0-124-93-207-219-207-131 0-250 92-250 270V0H158" id="J"/><path d="M158 0v-1118h180V0H158zm91-1301c-68 0-125-53-125-119s57-119 125-119c69 0 126 53 126 119s-57 119-126 119" id="K"/><path d="M338-670V0H158v-1118h173l1 207c72-158 192-221 342-221 226 0 378 139 378 422V0H872v-695c0-172-96-275-252-275-161 0-282 109-282 300" id="L"/><g id="b"><use transform="matrix(0.010850694444444444,0,0,0.010850694444444444,0,0)" xlink:href="#G"/><use transform="matrix(0.010850694444444444,0,0,0.010850694444444444,8.10546875,0)" xlink:href="#H"/><use transform="matrix(0.010850694444444444,0,0,0.010850694444444444,23.4375,0)" xlink:href="#I"/><use transform="matrix(0.010850694444444444,0,0,0.010850694444444444,37.04427083333333,0)" xlink:href="#J"/><use transform="matrix(0.010850694444444444,0,0,0.010850694444444444,56.51041666666666,0)" xlink:href="#K"/><use transform="matrix(0.010850694444444444,0,0,0.010850694444444444,61.8923611111111,0)" xlink:href="#L"/></g><path d="M409 0L70-1118h191c89 329 165 560 243 925 75-353 154-601 240-925h192c85 325 161 564 235 922 77-354 157-598 244-922h191L1267 0h-179c-86-307-176-590-250-913C763-588 675-308 588 0H409" id="M"/><path d="M471 26C259 26 90-98 90-318c0-256 228-303 435-329 202-27 287-16 287-108 0-139-79-219-234-219-161 0-248 86-283 164l-173-57c86-203 278-265 451-265 150 0 419 46 419 395V0H815v-152h-12C765-73 660 26 471 26zm31-159c199 0 310-134 310-271v-155c-30 35-226 55-295 64-131 17-246 59-246 186 0 116 97 176 231 176" id="N"/><path d="M538 24C308 24 148-78 108-271l171-41c32 123 123 178 257 178 156 0 256-77 256-169 0-77-54-128-164-154l-186-44c-203-48-300-148-300-305 0-192 176-326 414-326 230 0 351 112 402 269l-163 42c-31-80-94-158-238-158-133 0-233 69-233 162 0 83 57 129 188 160l169 40c203 48 298 149 298 302 0 196-179 339-441 339" id="O"/><g id="c"><use transform="matrix(0.010850694444444444,0,0,0.010850694444444444,0,0)" xlink:href="#M"/><use transform="matrix(0.010850694444444444,0,0,0.010850694444444444,18.18576388888889,0)" xlink:href="#N"/><use transform="matrix(0.010850694444444444,0,0,0.010850694444444444,30.6640625,0)" xlink:href="#L"/><use transform="matrix(0.010850694444444444,0,0,0.010850694444444444,43.79340277777778,0)" xlink:href="#F"/><use transform="matrix(0.010850694444444444,0,0,0.010850694444444444,50.84635416666667,0)" xlink:href="#O"/></g><path d="M613 24c-304 0-509-231-509-576 0-350 205-580 509-580 305 0 511 230 511 580 0 345-206 576-511 576zm0-161c226 0 329-195 329-415 0-222-103-419-329-419-223 0-326 196-326 419 0 220 103 415 326 415" id="P"/><g id="d"><use transform="matrix(0.010850694444444444,0,0,0.010850694444444444,0,0)" xlink:href="#F"/><use transform="matrix(0.010850694444444444,0,0,0.010850694444444444,7.052951388888888,0)" xlink:href="#P"/></g><path d="M628 24c-324 0-524-230-524-574 0-343 198-582 503-582 237 0 487 146 487 559v75H286c9 234 145 362 343 362 132 0 231-58 273-172l174 48C1024-91 857 24 628 24zM287-650h624c-17-190-120-322-304-322-192 0-309 151-320 322" id="Q"/><g id="e"><use transform="matrix(0.010850694444444444,0,0,0.010850694444444444,0,0)" xlink:href="#O"/><use transform="matrix(0.010850694444444444,0,0,0.010850694444444444,11.729600694444445,0)" xlink:href="#Q"/><use transform="matrix(0.010850694444444444,0,0,0.010850694444444444,24.68532986111111,0)" xlink:href="#Q"/></g><path d="M158 0v-1118h174v172h12c41-113 157-188 290-188 26 0 70 2 91 3v181c-11-2-60-10-108-10-161 0-279 109-279 260V0H158" id="R"/><path d="M481 0L54-1118h197c107 314 236 620 325 951 87-331 217-637 324-951h197L670 0H481" id="S"/><path d="M123 279V126h226v-1554H123v-153h398V279H123" id="T"/><g id="f"><use transform="matrix(0.010850694444444444,0,0,0.010850694444444444,0,0)" xlink:href="#I"/><use transform="matrix(0.010850694444444444,0,0,0.010850694444444444,13.606770833333332,0)" xlink:href="#R"/><use transform="matrix(0.010850694444444444,0,0,0.010850694444444444,22.31987847222222,0)" xlink:href="#K"/><use transform="matrix(0.010850694444444444,0,0,0.010850694444444444,27.701822916666664,0)" xlink:href="#S"/><use transform="matrix(0.010850694444444444,0,0,0.010850694444444444,39.75694444444444,0)" xlink:href="#Q"/><use transform="matrix(0.010850694444444444,0,0,0.010850694444444444,52.71267361111111,0)" xlink:href="#R"/><use transform="matrix(0.010850694444444444,0,0,0.010850694444444444,61.07855902777778,0)" xlink:href="#T"/></g><path d="M611 442c-248 0-391-105-460-228l146-94c47 65 117 165 314 165 178 0 307-82 307-266v-224h-17C863-141 792-18 576-18c-268 0-472-195-472-546 0-346 197-568 476-568 216 0 288 133 326 193h17v-179h175V29c0 289-215 413-487 413zm-5-620c203 0 314-146 314-390 0-237-108-403-314-403-213 0-319 180-319 403 0 230 109 390 319 390" id="U"/><g id="g"><use transform="matrix(0.010850694444444444,0,0,0.010850694444444444,0,0)" xlink:href="#E"/><use transform="matrix(0.010850694444444444,0,0,0.010850694444444444,13.823784722222221,0)" xlink:href="#N"/><use transform="matrix(0.010850694444444444,0,0,0.010850694444444444,26.302083333333332,0)" xlink:href="#O"/><use transform="matrix(0.010850694444444444,0,0,0.010850694444444444,38.03168402777778,0)" xlink:href="#O"/><use transform="matrix(0.010850694444444444,0,0,0.010850694444444444,49.76128472222222,0)" xlink:href="#Q"/><use transform="matrix(0.010850694444444444,0,0,0.010850694444444444,62.717013888888886,0)" xlink:href="#L"/><use transform="matrix(0.010850694444444444,0,0,0.010850694444444444,75.84635416666666,0)" xlink:href="#U"/><use transform="matrix(0.010850694444444444,0,0,0.010850694444444444,89.47482638888889,0)" xlink:href="#Q"/><use transform="matrix(0.010850694444444444,0,0,0.010850694444444444,102.43055555555556,0)" xlink:href="#R"/><use transform="matrix(0.010850694444444444,0,0,0.010850694444444444,110.79644097222224,0)" xlink:href="#T"/></g><path d="M180 0v-1490h510c348 0 508 194 508 460 0 198-88 351-276 417L1256 0h-220L726-579c-117 2-238 0-356 1V0H180zm190-747h312c235 0 327-108 327-283 0-177-92-293-329-293H370v576" id="V"/><path d="M678-1118v154H420V0H240v-964H20v-154h220v-149c0-194 155-293 318-293 85 0 141 18 168 30l-50 154c-19-6-47-17-97-17-111 0-159 58-159 166v109h258" id="W"/><g id="h"><use transform="matrix(0.010850694444444444,0,0,0.010850694444444444,0,0)" xlink:href="#V"/><use transform="matrix(0.010850694444444444,0,0,0.010850694444444444,13.975694444444445,0)" xlink:href="#Q"/><use transform="matrix(0.010850694444444444,0,0,0.010850694444444444,26.931423611111104,0)" xlink:href="#W"/></g><path d="M692-1560L212 224H46l480-1784h166" id="X"/><path d="M338-1490V0H158v-1490h180" id="Y"/><g id="i"><use transform="matrix(0.010850694444444444,0,0,0.010850694444444444,0,0)" xlink:href="#Q"/><use transform="matrix(0.010850694444444444,0,0,0.010850694444444444,12.955729166666666,0)" xlink:href="#I"/><use transform="matrix(0.010850694444444444,0,0,0.010850694444444444,26.5625,0)" xlink:href="#K"/><use transform="matrix(0.010850694444444444,0,0,0.010850694444444444,31.944444444444443,0)" xlink:href="#F"/><use transform="matrix(0.010850694444444444,0,0,0.010850694444444444,39.21440972222222,0)" xlink:href="#X"/><use transform="matrix(0.010850694444444444,0,0,0.010850694444444444,47.22222222222222,0)" xlink:href="#I"/><use transform="matrix(0.010850694444444444,0,0,0.010850694444444444,60.82899305555555,0)" xlink:href="#Q"/><use transform="matrix(0.010850694444444444,0,0,0.010850694444444444,73.78472222222223,0)" xlink:href="#Y"/><use transform="matrix(0.010850694444444444,0,0,0.010850694444444444,79.16666666666667,0)" xlink:href="#Q"/><use transform="matrix(0.010850694444444444,0,0,0.010850694444444444,92.12239583333334,0)" xlink:href="#F"/><use transform="matrix(0.010850694444444444,0,0,0.010850694444444444,99.17534722222221,0)" xlink:href="#Q"/></g><path d="M763 24c-353 0-583-224-583-531v-983h190v968c0 214 149 370 393 370 243 0 391-156 391-370v-968h190v983c0 307-230 531-581 531" id="Z"/><path d="M783 20c-382 0-661-292-661-764 0-473 279-766 661-766 302 0 548 182 601 489h-190c-42-204-217-313-411-313-268 0-476 208-476 590 0 381 209 588 476 588 195 0 369-110 411-313h190c-52 303-296 489-601 489" id="aa"/><path d="M646 20c-332 0-524-278-524-764 0-483 194-766 524-766s524 283 524 766c0 485-191 764-524 764zm0-166c218 0 341-220 341-598 0-380-123-601-341-601s-341 222-341 601c0 378 123 598 341 598" id="ab"/><path d="M154 0v-137l495-537c165-179 249-281 249-418 0-156-121-253-280-253-170 0-278 110-278 278H158c0-264 200-443 465-443 266 0 455 183 455 416 0 161-73 288-336 568L416-179v12h687V0H154" id="ac"/><path d="M653-1490V0H466v-1314h-10L96-1047v-204l324-239h233" id="ad"/><g id="j"><use transform="matrix(0.010850694444444444,0,0,0.010850694444444444,0,0)" xlink:href="#Z"/><use transform="matrix(0.010850694444444444,0,0,0.010850694444444444,16.536458333333332,0)" xlink:href="#aa"/><use transform="matrix(0.010850694444444444,0,0,0.010850694444444444,32.76909722222222,0)" xlink:href="#ab"/><use transform="matrix(0.010850694444444444,0,0,0.010850694444444444,46.78819444444444,0)" xlink:href="#ac"/><use transform="matrix(0.010850694444444444,0,0,0.010850694444444444,60.34071180555555,0)" xlink:href="#ad"/></g><path d="M218-607c0-325 108-727 258-974h175c-155 315-250 682-250 974 0 265 78 531 250 886H476C306-10 218-315 218-607" id="ae"/><path d="M180 0v-1490h190v644h782v-644h190V0h-190v-678H370V0H180" id="af"/><g id="k"><use transform="matrix(0.010850694444444444,0,0,0.010850694444444444,0,0)" xlink:href="#ae"/><use transform="matrix(0.010850694444444444,0,0,0.010850694444444444,8.10546875,0)" xlink:href="#af"/><use transform="matrix(0.010850694444444444,0,0,0.010850694444444444,24.620225694444443,0)" xlink:href="#N"/><use transform="matrix(0.010850694444444444,0,0,0.010850694444444444,37.09852430555556,0)" xlink:href="#L"/><use transform="matrix(0.010850694444444444,0,0,0.010850694444444444,50.22786458333333,0)" xlink:href="#I"/><use transform="matrix(0.010850694444444444,0,0,0.010850694444444444,63.83463541666667,0)" xlink:href="#Y"/><use transform="matrix(0.010850694444444444,0,0,0.010850694444444444,69.21657986111111,0)" xlink:href="#Q"/></g><path d="M180 0v-1490h908v168H370v486h669v168H370v500h727V0H180" id="ag"/><path d="M613 24c-304 0-509-231-509-576 0-350 205-580 509-580 216 0 392 114 453 309l-173 49c-33-115-133-197-280-197-223 0-326 196-326 419 0 220 103 415 326 415 150 0 252-85 285-206l172 49C1010-95 832 24 613 24" id="ah"/><g id="l"><use transform="matrix(0.010850694444444444,0,0,0.010850694444444444,0,0)" xlink:href="#ag"/><use transform="matrix(0.010850694444444444,0,0,0.010850694444444444,13.35720486111111,0)" xlink:href="#O"/><use transform="matrix(0.010850694444444444,0,0,0.010850694444444444,25.08680555555556,0)" xlink:href="#ah"/><use transform="matrix(0.010850694444444444,0,0,0.010850694444444444,37.99913194444444,0)" xlink:href="#N"/><use transform="matrix(0.010850694444444444,0,0,0.010850694444444444,50.47743055555556,0)" xlink:href="#Y"/><use transform="matrix(0.010850694444444444,0,0,0.010850694444444444,55.859375,0)" xlink:href="#N"/><use transform="matrix(0.010850694444444444,0,0,0.010850694444444444,68.33767361111111,0)" xlink:href="#F"/><use transform="matrix(0.010850694444444444,0,0,0.010850694444444444,75.390625,0)" xlink:href="#Q"/><use transform="matrix(0.010850694444444444,0,0,0.010850694444444444,88.34635416666667,0)" xlink:href="#I"/></g><path d="M96 279C273-86 346-350 346-607c0-292-95-659-250-974h175c150 246 258 650 258 974 0 297-91 602-258 886H96" id="ai"/><g id="m"><use transform="matrix(0.010850694444444444,0,0,0.010850694444444444,0,0)" xlink:href="#aa"/><use transform="matrix(0.010850694444444444,0,0,0.010850694444444444,16.23263888888889,0)" xlink:href="#P"/><use transform="matrix(0.010850694444444444,0,0,0.010850694444444444,29.557291666666664,0)" xlink:href="#J"/><use transform="matrix(0.010850694444444444,0,0,0.010850694444444444,49.0234375,0)" xlink:href="#E"/><use transform="matrix(0.010850694444444444,0,0,0.010850694444444444,62.63020833333333,0)" xlink:href="#Y"/><use transform="matrix(0.010850694444444444,0,0,0.010850694444444444,68.01215277777777,0)" xlink:href="#N"/><use transform="matrix(0.010850694444444444,0,0,0.010850694444444444,80.49045138888889,0)" xlink:href="#K"/><use transform="matrix(0.010850694444444444,0,0,0.010850694444444444,85.87239583333333,0)" xlink:href="#L"/><use transform="matrix(0.010850694444444444,0,0,0.010850694444444444,99.00173611111111,0)" xlink:href="#F"/><use transform="matrix(0.010850694444444444,0,0,0.010850694444444444,106.05468749999997,0)" xlink:href="#O"/><use transform="matrix(0.010850694444444444,0,0,0.010850694444444444,117.78428819444441,0)" xlink:href="#ai"/></g><g id="n"><use transform="matrix(0.010850694444444444,0,0,0.010850694444444444,0,0)" xlink:href="#H"/><use transform="matrix(0.010850694444444444,0,0,0.010850694444444444,15.33203125,0)" xlink:href="#I"/><use transform="matrix(0.010850694444444444,0,0,0.010850694444444444,28.938802083333332,0)" xlink:href="#J"/><use transform="matrix(0.010850694444444444,0,0,0.010850694444444444,48.404947916666664,0)" xlink:href="#K"/><use transform="matrix(0.010850694444444444,0,0,0.010850694444444444,53.78689236111111,0)" xlink:href="#L"/></g><path d="M295 13c-75 0-135-60-135-135s60-135 135-135 135 60 135 135S370 13 295 13zm0-809c-75 0-135-60-135-135s60-135 135-135 135 60 135 135-60 135-135 135" id="aj"/><path d="M657 26c-323 0-524-166-541-416h195c15 169 171 246 346 246 202 0 356-106 356-265 5-203-294-238-475-293-239-73-380-191-380-389 0-252 224-419 512-419 294 0 499 171 508 396H992c-17-145-151-228-328-228-193 0-321 102-321 242 0 156 175 211 284 241l149 41c160 44 422 134 422 412 0 244-197 432-541 432" id="ak"/><path d="M140 405l46-156c120 36 205 19 263-150l32-93L54-1118h197c107 313 237 620 324 950 87-331 219-637 326-950h196L606 167c-68 178-176 259-334 259-64 0-113-12-132-21" id="al"/><g id="o"><use transform="matrix(0.010850694444444444,0,0,0.010850694444444444,0,0)" xlink:href="#aj"/><use transform="matrix(0.010850694444444444,0,0,0.010850694444444444,6.401909722222222,0)" xlink:href="#ak"/><use transform="matrix(0.010850694444444444,0,0,0.010850694444444444,20.65972222222222,0)" xlink:href="#al"/><use transform="matrix(0.010850694444444444,0,0,0.010850694444444444,33.14887152777778,0)" xlink:href="#O"/><use transform="matrix(0.010850694444444444,0,0,0.010850694444444444,44.87847222222222,0)" xlink:href="#F"/><use transform="matrix(0.010850694444444444,0,0,0.010850694444444444,51.93142361111112,0)" xlink:href="#Q"/><use transform="matrix(0.010850694444444444,0,0,0.010850694444444444,64.88715277777779,0)" xlink:href="#J"/><path d="M-1.1 4.54h86.57v1.52H-1.1z"/></g><path fill="#333" d="M443 0L31-1118h319c90 293 199 572 268 885 66-313 175-593 264-885h315L784 0H443" id="am"/><path fill="#333" d="M128 0v-1118h300V0H128zm150-1264c-91 0-165-68-165-154 0-85 74-154 165-154 90 0 165 69 165 154 0 86-75 154-165 154" id="an"/><path fill="#333" d="M633 22C291 22 81-200 81-553c0-345 210-579 537-579 292 0 525 185 525 567v84H378c7 183 109 277 260 277 105 0 184-46 216-132l272 51C1071-99 893 22 633 22zM380-669h474c-15-146-94-237-233-237-143 0-229 99-241 237" id="ao"/><path fill="#333" d="M361 0L31-1118h315c68 295 127 523 188 845 63-317 128-551 199-845h276c71 296 131 525 196 846 57-321 119-552 186-846h319L1378 0h-305c-73-261-148-486-204-771C813-484 740-261 666 0H361" id="ap"/><path fill="#333" d="M49 0l509-1490h400L1480 0h-339l-115-346H497L386 0H49zm524-585h374c-75-213-124-402-192-666-66 268-110 453-182 666" id="aq"/><path fill="#333" d="M428-1490V0H128v-1490h300" id="ar"/><path fill="#333" d="M75-1237v-253h1217v253H837V0H531v-1237H75" id="as"/><path fill="#333" d="M628 22C291 22 81-210 81-554c0-346 210-578 547-578 265 0 455 142 497 372l-279 52c-25-116-99-188-215-188-160 0-244 139-244 341 0 200 84 341 244 341 116 0 193-74 217-195l279 51C1085-123 896 22 628 22" id="at"/><path fill="#333" d="M128 0v-1490h300v802h17l366-430h347L740-633 1179 0H826L514-456l-86 97V0H128" id="au"/><path fill="#333" d="M683-1118v229H474v562c0 71 29 104 102 104 23 0 73-7 95-13l43 225C647 9 580 16 520 16 296 16 174-96 174-301v-588H20v-229h154v-266h300v266h209" id="av"/><path fill="#333" d="M572 22C302 22 117-98 78-306l279-48c29 105 101 156 224 156 114 0 185-48 185-115 0-118-228-130-337-155-215-49-322-150-322-317 0-215 187-347 470-347 265 0 424 116 466 298l-266 47c-24-76-87-130-196-130-98 0-174 46-174 113 0 56 38 95 144 117l201 40c216 44 320 143 320 302 0 220-207 367-500 367" id="aw"/><path fill="#333" d="M169-607c0-330 107-732 258-974h279c-145 311-231 674-231 974 0 262 67 512 231 886H427C258-1 169-307 169-607" id="ax"/><path fill="#333" d="M67 279c166-379 230-627 230-886 0-300-86-663-230-974h278c151 241 258 644 258 974 0 302-90 608-258 886H67" id="ay"/><g id="p"><use transform="matrix(0.008680555555555556,0,0,0.008680555555555556,0,0)" xlink:href="#am"/><use transform="matrix(0.008680555555555556,0,0,0.008680555555555556,10.659722222222223,0)" xlink:href="#an"/><use transform="matrix(0.008680555555555556,0,0,0.008680555555555556,15.477430555555555,0)" xlink:href="#ao"/><use transform="matrix(0.008680555555555556,0,0,0.008680555555555556,25.82465277777778,0)" xlink:href="#ap"/><use transform="matrix(0.008680555555555556,0,0,0.008680555555555556,39.73090277777778,0)" xlink:href="#aq"/><use transform="matrix(0.008680555555555556,0,0,0.008680555555555556,53.00347222222222,0)" xlink:href="#ar"/><use transform="matrix(0.008680555555555556,0,0,0.008680555555555556,57.82118055555556,0)" xlink:href="#ar"/><use transform="matrix(0.008680555555555556,0,0,0.008680555555555556,62.63888888888889,0)" xlink:href="#as"/><use transform="matrix(0.008680555555555556,0,0,0.008680555555555556,74.50520833333334,0)" xlink:href="#an"/><use transform="matrix(0.008680555555555556,0,0,0.008680555555555556,79.32291666666667,0)" xlink:href="#at"/><use transform="matrix(0.008680555555555556,0,0,0.008680555555555556,89.78298611111111,0)" xlink:href="#au"/><use transform="matrix(0.008680555555555556,0,0,0.008680555555555556,99.69618055555556,0)" xlink:href="#ao"/><use transform="matrix(0.008680555555555556,0,0,0.008680555555555556,110.28645833333334,0)" xlink:href="#av"/><use transform="matrix(0.008680555555555556,0,0,0.008680555555555556,116.66666666666669,0)" xlink:href="#aw"/><use transform="matrix(0.008680555555555556,0,0,0.008680555555555556,126.62326388888891,0)" xlink:href="#ax"/><use transform="matrix(0.008680555555555556,0,0,0.008680555555555556,133.3246527777778,0)" xlink:href="#ay"/></g><path fill="#333" d="M135 0v-1490h305v1237h643V0H135" id="az"/><path fill="#333" d="M166-471v-247l1019-454v289L492-601v13l693 282v287" id="aA"/><path fill="#333" d="M1224-471L205-19v-287l694-281v-14L205-883v-289l1019 454v247" id="aB"/><g id="q"><use transform="matrix(0.008680555555555556,0,0,0.008680555555555556,0,0)" xlink:href="#az"/><use transform="matrix(0.008680555555555556,0,0,0.008680555555555556,10.052083333333334,0)" xlink:href="#an"/><use transform="matrix(0.008680555555555556,0,0,0.008680555555555556,14.869791666666668,0)" xlink:href="#aw"/><use transform="matrix(0.008680555555555556,0,0,0.008680555555555556,24.826388888888893,0)" xlink:href="#av"/><use transform="matrix(0.008680555555555556,0,0,0.008680555555555556,30.83333333333334,0)" xlink:href="#aA"/><use transform="matrix(0.008680555555555556,0,0,0.008680555555555556,42.899305555555564,0)" xlink:href="#as"/><use transform="matrix(0.008680555555555556,0,0,0.008680555555555556,54.76562500000001,0)" xlink:href="#an"/><use transform="matrix(0.008680555555555556,0,0,0.008680555555555556,59.58333333333334,0)" xlink:href="#at"/><use transform="matrix(0.008680555555555556,0,0,0.008680555555555556,70.04340277777779,0)" xlink:href="#au"/><use transform="matrix(0.008680555555555556,0,0,0.008680555555555556,79.95659722222223,0)" xlink:href="#ao"/><use transform="matrix(0.008680555555555556,0,0,0.008680555555555556,90.546875,0)" xlink:href="#av"/><use transform="matrix(0.008680555555555556,0,0,0.008680555555555556,97.05729166666667,0)" xlink:href="#aB"/></g><path fill="#333" d="M537 19C279 19 81-185 81-557c0-382 206-575 454-575 190 0 278 113 318 202h10v-560h300V0H868v-179h-15C812-89 719 19 537 19zm92-241c153 0 240-134 240-336 0-203-86-334-240-334-158 0-240 138-240 334 0 197 84 336 240 336" id="aC"/><g id="r"><use transform="matrix(0.008680555555555556,0,0,0.008680555555555556,0,0)" xlink:href="#am"/><use transform="matrix(0.008680555555555556,0,0,0.008680555555555556,10.659722222222223,0)" xlink:href="#an"/><use transform="matrix(0.008680555555555556,0,0,0.008680555555555556,15.477430555555555,0)" xlink:href="#ao"/><use transform="matrix(0.008680555555555556,0,0,0.008680555555555556,25.82465277777778,0)" xlink:href="#ap"/><use transform="matrix(0.008680555555555556,0,0,0.008680555555555556,40.03472222222222,0)" xlink:href="#as"/><use transform="matrix(0.008680555555555556,0,0,0.008680555555555556,51.901041666666664,0)" xlink:href="#an"/><use transform="matrix(0.008680555555555556,0,0,0.008680555555555556,56.71875,0)" xlink:href="#at"/><use transform="matrix(0.008680555555555556,0,0,0.008680555555555556,67.17881944444444,0)" xlink:href="#au"/><use transform="matrix(0.008680555555555556,0,0,0.008680555555555556,77.09201388888889,0)" xlink:href="#ao"/><use transform="matrix(0.008680555555555556,0,0,0.008680555555555556,87.68229166666666,0)" xlink:href="#av"/><use transform="matrix(0.008680555555555556,0,0,0.008680555555555556,94.19270833333333,0)" xlink:href="#ax"/><use transform="matrix(0.008680555555555556,0,0,0.008680555555555556,100.89409722222221,0)" xlink:href="#an"/><use transform="matrix(0.008680555555555556,0,0,0.008680555555555556,105.71180555555554,0)" xlink:href="#aC"/><use transform="matrix(0.008680555555555556,0,0,0.008680555555555556,117.23958333333333,0)" xlink:href="#ay"/></g><g id="s"><use transform="matrix(0.008680555555555556,0,0,0.008680555555555556,0,0)" xlink:href="#as"/><use transform="matrix(0.008680555555555556,0,0,0.008680555555555556,11.866319444444445,0)" xlink:href="#an"/><use transform="matrix(0.008680555555555556,0,0,0.008680555555555556,16.68402777777778,0)" xlink:href="#at"/><use transform="matrix(0.008680555555555556,0,0,0.008680555555555556,27.144097222222218,0)" xlink:href="#au"/><use transform="matrix(0.008680555555555556,0,0,0.008680555555555556,37.05729166666666,0)" xlink:href="#ao"/><use transform="matrix(0.008680555555555556,0,0,0.008680555555555556,47.64756944444445,0)" xlink:href="#av"/></g><path d="M633 20c-303 0-511-173-511-416 0-188 124-348 291-378v-8c-145-37-237-174-237-332 0-227 192-396 457-396 261 0 456 169 456 396 0 158-94 295-235 332v8c162 30 291 190 291 378 0 243-212 416-512 416zm0-165c197 0 322-103 322-261 0-165-138-283-322-283-188 0-324 118-324 283 0 158 123 261 324 261zm0-703c157 0 272-101 272-252 0-149-110-246-272-246-165 0-273 97-273 246 0 151 112 252 273 252" id="aD"/><path d="M600 0L52-1490h200c166 485 304 806 458 1336 156-533 285-846 449-1336h202L819 0H600" id="aE"/><g id="t"><use transform="matrix(0.010850694444444444,0,0,0.010850694444444444,0,0)" xlink:href="#Z"/><use transform="matrix(0.010850694444444444,0,0,0.010850694444444444,16.536458333333332,0)" xlink:href="#aa"/><use transform="matrix(0.010850694444444444,0,0,0.010850694444444444,32.76909722222222,0)" xlink:href="#ab"/><use transform="matrix(0.010850694444444444,0,0,0.010850694444444444,46.78819444444444,0)" xlink:href="#ad"/><use transform="matrix(0.010850694444444444,0,0,0.010850694444444444,55.826822916666664,0)" xlink:href="#aD"/><use transform="matrix(0.010850694444444444,0,0,0.010850694444444444,75.82465277777777,0)" xlink:href="#ae"/><use transform="matrix(0.010850694444444444,0,0,0.010850694444444444,83.93012152777777,0)" xlink:href="#aE"/><use transform="matrix(0.010850694444444444,0,0,0.010850694444444444,99.26215277777777,0)" xlink:href="#K"/><use transform="matrix(0.010850694444444444,0,0,0.010850694444444444,104.64409722222221,0)" xlink:href="#Q"/><use transform="matrix(0.010850694444444444,0,0,0.010850694444444444,117.19835069444444,0)" xlink:href="#M"/></g><path d="M645 0H180v-1490h484c435 0 692 280 692 742 0 466-257 748-711 748zM370-168h263c363 0 539-218 539-580 0-358-176-574-521-574H370v1154" id="aF"/><g id="u"><use transform="matrix(0.010850694444444444,0,0,0.010850694444444444,0,0)" xlink:href="#aF"/><use transform="matrix(0.010850694444444444,0,0,0.010850694444444444,16.03732638888889,0)" xlink:href="#R"/><use transform="matrix(0.010850694444444444,0,0,0.010850694444444444,24.75043402777778,0)" xlink:href="#K"/><use transform="matrix(0.010850694444444444,0,0,0.010850694444444444,30.13237847222222,0)" xlink:href="#S"/><use transform="matrix(0.010850694444444444,0,0,0.010850694444444444,42.1875,0)" xlink:href="#Q"/><use transform="matrix(0.010850694444444444,0,0,0.010850694444444444,55.143229166666664,0)" xlink:href="#R"/></g><path d="M180 0v-1490h510c348 0 508 209 508 474 0 266-160 477-507 477H370V0H180zm190-706h312c236 0 327-133 327-310 0-176-91-307-329-307H370v617" id="aG"/><g id="v"><use transform="matrix(0.010850694444444444,0,0,0.010850694444444444,0,0)" xlink:href="#aG"/><use transform="matrix(0.010850694444444444,0,0,0.010850694444444444,14.192708333333332,0)" xlink:href="#R"/><use transform="matrix(0.010850694444444444,0,0,0.010850694444444444,22.189670138888886,0)" xlink:href="#P"/><use transform="matrix(0.010850694444444444,0,0,0.010850694444444444,35.514322916666664,0)" xlink:href="#W"/><use transform="matrix(0.010850694444444444,0,0,0.010850694444444444,43.73914930555556,0)" xlink:href="#K"/><use transform="matrix(0.010850694444444444,0,0,0.010850694444444444,49.12109375,0)" xlink:href="#Y"/><use transform="matrix(0.010850694444444444,0,0,0.010850694444444444,54.50303819444444,0)" xlink:href="#Q"/><use transform="matrix(0.010850694444444444,0,0,0.010850694444444444,67.45876736111111,0)" xlink:href="#O"/><use transform="matrix(0.010850694444444444,0,0,0.010850694444444444,79.18836805555556,0)" xlink:href="#ai"/></g><path d="M603 20c-253 0-434-161-469-399h188c31 132 124 231 281 231 227 0 367-207 367-568h-12c-80 122-211 199-367 199-257 0-469-206-469-493 0-278 200-505 506-500 245 4 520 158 520 706 0 527-208 824-545 824zm16-703c181 0 324-157 324-332 0-171-135-328-318-328-180 0-317 148-317 332 0 183 131 328 311 328" id="aH"/><g id="w"><use transform="matrix(0.010850694444444444,0,0,0.010850694444444444,0,0)" xlink:href="#Z"/><use transform="matrix(0.010850694444444444,0,0,0.010850694444444444,16.536458333333332,0)" xlink:href="#aa"/><use transform="matrix(0.010850694444444444,0,0,0.010850694444444444,32.76909722222222,0)" xlink:href="#ab"/><use transform="matrix(0.010850694444444444,0,0,0.010850694444444444,46.78819444444444,0)" xlink:href="#ad"/><use transform="matrix(0.010850694444444444,0,0,0.010850694444444444,55.826822916666664,0)" xlink:href="#aH"/><use transform="matrix(0.010850694444444444,0,0,0.010850694444444444,75.85720486111111,0)" xlink:href="#ae"/><use transform="matrix(0.010850694444444444,0,0,0.010850694444444444,83.96267361111111,0)" xlink:href="#aE"/><use transform="matrix(0.010850694444444444,0,0,0.010850694444444444,99.29470486111111,0)" xlink:href="#K"/><use transform="matrix(0.010850694444444444,0,0,0.010850694444444444,104.67664930555556,0)" xlink:href="#Q"/><use transform="matrix(0.010850694444444444,0,0,0.010850694444444444,117.2309027777778,0)" xlink:href="#M"/></g><g id="x"><use transform="matrix(0.010850694444444444,0,0,0.010850694444444444,0,0)" xlink:href="#aG"/><use transform="matrix(0.010850694444444444,0,0,0.010850694444444444,14.192708333333332,0)" xlink:href="#N"/><use transform="matrix(0.010850694444444444,0,0,0.010850694444444444,26.671006944444443,0)" xlink:href="#O"/><use transform="matrix(0.010850694444444444,0,0,0.010850694444444444,38.400607638888886,0)" xlink:href="#O"/><use transform="matrix(0.010850694444444444,0,0,0.010850694444444444,50.13020833333333,0)" xlink:href="#Q"/><use transform="matrix(0.010850694444444444,0,0,0.010850694444444444,63.0859375,0)" xlink:href="#L"/><use transform="matrix(0.010850694444444444,0,0,0.010850694444444444,76.21527777777777,0)" xlink:href="#U"/><use transform="matrix(0.010850694444444444,0,0,0.010850694444444444,89.84375,0)" xlink:href="#Q"/><use transform="matrix(0.010850694444444444,0,0,0.010850694444444444,102.79947916666666,0)" xlink:href="#R"/></g><g id="y"><use transform="matrix(0.010850694444444444,0,0,0.010850694444444444,0,0)" xlink:href="#aG"/><use transform="matrix(0.010850694444444444,0,0,0.010850694444444444,14.192708333333332,0)" xlink:href="#R"/><use transform="matrix(0.010850694444444444,0,0,0.010850694444444444,22.189670138888886,0)" xlink:href="#P"/><use transform="matrix(0.010850694444444444,0,0,0.010850694444444444,35.514322916666664,0)" xlink:href="#W"/><use transform="matrix(0.010850694444444444,0,0,0.010850694444444444,43.73914930555556,0)" xlink:href="#K"/><use transform="matrix(0.010850694444444444,0,0,0.010850694444444444,49.12109375,0)" xlink:href="#Y"/><use transform="matrix(0.010850694444444444,0,0,0.010850694444444444,54.50303819444444,0)" xlink:href="#Q"/><use transform="matrix(0.010850694444444444,0,0,0.010850694444444444,67.45876736111111,0)" xlink:href="#O"/><use transform="matrix(0.010850694444444444,0,0,0.010850694444444444,79.18836805555556,0)" xlink:href="#ai"/></g><path d="M180 0v-1490h270l367 940c28 72 75 218 110 339 35-117 81-264 110-339l362-940h271V0h-187c2-448-5-837 7-1287-157 497-311 829-483 1287H842C666-458 514-784 354-1284c12 438 5 843 7 1284H180" id="aI"/><g id="A"><use transform="matrix(0.010850694444444444,0,0,0.010850694444444444,0,0)" xlink:href="#Z"/><use transform="matrix(0.010850694444444444,0,0,0.010850694444444444,16.536458333333332,0)" xlink:href="#aa"/><use transform="matrix(0.010850694444444444,0,0,0.010850694444444444,32.76909722222222,0)" xlink:href="#ab"/><use transform="matrix(0.010850694444444444,0,0,0.010850694444444444,46.78819444444444,0)" xlink:href="#ac"/><use transform="matrix(0.010850694444444444,0,0,0.010850694444444444,60.34071180555555,0)" xlink:href="#ab"/><use transform="matrix(0.010850694444444444,0,0,0.010850694444444444,80.60980902777777,0)" xlink:href="#ae"/><use transform="matrix(0.010850694444444444,0,0,0.010850694444444444,88.71527777777777,0)" xlink:href="#aI"/><use transform="matrix(0.010850694444444444,0,0,0.010850694444444444,108.7890625,0)" xlink:href="#N"/><use transform="matrix(0.010850694444444444,0,0,0.010850694444444444,121.2673611111111,0)" xlink:href="#L"/><use transform="matrix(0.010850694444444444,0,0,0.010850694444444444,134.39670138888889,0)" xlink:href="#N"/><use transform="matrix(0.010850694444444444,0,0,0.010850694444444444,146.875,0)" xlink:href="#U"/><use transform="matrix(0.010850694444444444,0,0,0.010850694444444444,160.50347222222223,0)" xlink:href="#Q"/></g><path fill="#333" d="M128 0v-1118h290v195h12c54-169 184-238 367-200v268c-27-8-86-15-130-15-138 0-239 95-239 234V0H128" id="aJ"/><path fill="#333" d="M628 22C291 22 81-210 81-554c0-346 210-578 547-578 336 0 547 232 547 578 0 344-211 576-547 576zm0-236c160 0 242-146 242-341 0-197-82-341-242-341S387-753 387-555c0 195 81 341 241 341" id="aK"/><g id="B"><use transform="matrix(0.008680555555555556,0,0,0.008680555555555556,0,0)" xlink:href="#aJ"/><use transform="matrix(0.008680555555555556,0,0,0.008680555555555556,6.805555555555556,0)" xlink:href="#ao"/><use transform="matrix(0.008680555555555556,0,0,0.008680555555555556,17.395833333333336,0)" xlink:href="#aw"/><use transform="matrix(0.008680555555555556,0,0,0.008680555555555556,27.352430555555557,0)" xlink:href="#aK"/><use transform="matrix(0.008680555555555556,0,0,0.008680555555555556,38.255208333333336,0)" xlink:href="#ar"/><use transform="matrix(0.008680555555555556,0,0,0.008680555555555556,43.255208333333336,0)" xlink:href="#am"/><use transform="matrix(0.008680555555555556,0,0,0.008680555555555556,53.59375,0)" xlink:href="#ao"/><use transform="matrix(0.008680555555555556,0,0,0.008680555555555556,62.79513888888889,0)" xlink:href="#as"/><use transform="matrix(0.008680555555555556,0,0,0.008680555555555556,74.66145833333334,0)" xlink:href="#an"/><use transform="matrix(0.008680555555555556,0,0,0.008680555555555556,79.47916666666667,0)" xlink:href="#at"/><use transform="matrix(0.008680555555555556,0,0,0.008680555555555556,89.93923611111111,0)" xlink:href="#au"/><use transform="matrix(0.008680555555555556,0,0,0.008680555555555556,99.85243055555556,0)" xlink:href="#ao"/><use transform="matrix(0.008680555555555556,0,0,0.008680555555555556,110.44270833333334,0)" xlink:href="#av"/><use transform="matrix(0.008680555555555556,0,0,0.008680555555555556,116.95312500000001,0)" xlink:href="#ax"/><use transform="matrix(0.008680555555555556,0,0,0.008680555555555556,123.6545138888889,0)" xlink:href="#an"/><use transform="matrix(0.008680555555555556,0,0,0.008680555555555556,128.47222222222223,0)" xlink:href="#aC"/><use transform="matrix(0.008680555555555556,0,0,0.008680555555555556,140,0)" xlink:href="#ay"/></g><path fill="#333" d="M513 14c-232 0-385-159-385-421v-711h300v659c0 139 76 222 202 222 127 0 217-86 217-234v-647h301V0H864l-4-232C797-74 683 14 513 14" id="aL"/><path fill="#333" d="M681 22C323 22 94-145 85-462h297c10 151 131 226 296 226 163 0 271-77 271-190 0-102-95-149-257-189l-164-41c-252-61-403-188-403-405 0-269 236-449 560-449 330 0 546 183 551 445H941c-11-119-106-188-259-188-156 0-244 72-244 172-3 156 226 185 373 221 250 61 445 186 445 436 0 271-213 446-575 446" id="aM"/><path fill="#333" d="M440 22C227 22 68-92 68-313c0-250 202-322 422-343 195-21 271-24 271-105 0-95-63-149-175-149-116 0-187 57-211 129l-275-46c57-194 237-305 487-305 240 0 474 108 474 379V0H777v-155h-10C713-51 605 22 440 22zm85-211c140 0 238-93 238-211v-121c-37 26-156 42-222 51-111 16-185 59-185 149 0 87 70 132 169 132" id="aN"/><g id="C"><use transform="matrix(0.008680555555555556,0,0,0.008680555555555556,0,0)" xlink:href="#aw"/><use transform="matrix(0.008680555555555556,0,0,0.008680555555555556,9.956597222222223,0)" xlink:href="#aL"/><use transform="matrix(0.008680555555555556,0,0,0.008680555555555556,21.024305555555557,0)" xlink:href="#at"/><use transform="matrix(0.008680555555555556,0,0,0.008680555555555556,31.484375,0)" xlink:href="#at"/><use transform="matrix(0.008680555555555556,0,0,0.008680555555555556,41.94444444444444,0)" xlink:href="#ao"/><use transform="matrix(0.008680555555555556,0,0,0.008680555555555556,52.53472222222222,0)" xlink:href="#aw"/><use transform="matrix(0.008680555555555556,0,0,0.008680555555555556,62.49131944444444,0)" xlink:href="#aw"/><use transform="matrix(0.008680555555555556,0,0,0.008680555555555556,72.44791666666667,0)" xlink:href="#aM"/><use transform="matrix(0.008680555555555556,0,0,0.008680555555555556,84.08854166666667,0)" xlink:href="#av"/><use transform="matrix(0.008680555555555556,0,0,0.008680555555555556,90.6857638888889,0)" xlink:href="#aN"/><use transform="matrix(0.008680555555555556,0,0,0.008680555555555556,101.00694444444447,0)" xlink:href="#av"/><use transform="matrix(0.008680555555555556,0,0,0.008680555555555556,107.51736111111113,0)" xlink:href="#aL"/><use transform="matrix(0.008680555555555556,0,0,0.008680555555555556,118.58506944444444,0)" xlink:href="#aw"/></g></defs></g></svg>