<svg xmlns="http://www.w3.org/2000/svg" xmlns:xlink="http://www.w3.org/1999/xlink" xmlns:lucid="lucid" width="1042" height="1125.91"><g transform="translate(-139 -134.59032020698726)" lucid:page-tab-id="JSWGJ1zyAooJ"><path d="M0 0h1500v1500H0z" fill="#fff"/><path d="M140 686a6 6 0 0 1 6-6h88a6 6 0 0 1 6 6v8a14.48 14.48 0 0 1-4.24 10.24l-1.52 1.52A14.48 14.48 0 0 1 224 710h-78a6 6 0 0 1-6-6z" fill="#fff"/><path d="M240 680v20l-10 10h-90" stroke="#000" stroke-width="2" fill="none"/><path d="M140 686a6 6 0 0 1 6-6h1028a6 6 0 0 1 6 6v228a6 6 0 0 1-6 6H146a6 6 0 0 1-6-6z" stroke="#000" stroke-width="2" fill="none"/><use xlink:href="#a" transform="matrix(1,0,0,1,148,680) translate(0 23.08376736111111)"/><use xlink:href="#b" transform="matrix(1,0,0,1,152,718) translate(0 23.08376736111111)"/><use xlink:href="#c" transform="matrix(1,0,0,1,152,718) translate(55.94618055555554 23.08376736111111)"/><use xlink:href="#d" transform="matrix(1,0,0,1,152,718) translate(124.77213541666664 23.08376736111111)"/><use xlink:href="#e" transform="matrix(1,0,0,1,152,718) translate(151.39973958333331 23.08376736111111)"/><use xlink:href="#f" transform="matrix(1,0,0,1,152,718) translate(206.2608506944444 23.08376736111111)"/><use xlink:href="#g" transform="matrix(1,0,0,1,152,718) translate(269.7808159722222 23.08376736111111)"/><use xlink:href="#h" transform="matrix(1,0,0,1,152,718) translate(344.9435763888888 23.08376736111111)"/><use xlink:href="#i" transform="matrix(1,0,0,1,152,718) translate(419.607204861111 23.08376736111111)"/><path d="M673.5 141.6a6 6 0 0 1 6-6h448a6 6 0 0 1 6 6v28a6 6 0 0 1-6 6h-448a6 6 0 0 1-6-6z" fill="#fff"/><use xlink:href="#j" transform="matrix(1,0,0,1,673.5090446421292,135.59032020698726) translate(81.41559027777778 29.02777777777778)"/><use xlink:href="#k" transform="matrix(1,0,0,1,673.5090446421292,135.59032020698726) translate(161.51541666666668 29.02777777777778)"/><use xlink:href="#l" transform="matrix(1,0,0,1,673.5090446421292,135.59032020698726) translate(264.21723958333337 29.02777777777778)"/><path d="M693.76 255.54v-.2a19.75 19.75 0 0 1 19.75-19.75 19.75 19.75 0 0 1 19.76 19.74 19.75 19.75 0 0 1-19.75 19.75 19.75 19.75 0 0 1-19.74-19.76v-.2" stroke="#000" stroke-width="2" fill="#fff"/><path d="M673.5 241.6a6 6 0 0 1 6-6h68a6 6 0 0 1 6 6v146a6 6 0 0 1-6 6h-68a6 6 0 0 1-6-6z" fill="none"/><path d="M713.5 275.1v55.3l40 63.2m-40-63.2l-40 63.2m0-98.76h80" stroke="#000" stroke-width="2" fill="none"/><use xlink:href="#m" transform="matrix(1,0,0,1,593.5090446421292,393.59032020698726) translate(50.06727430555557 21.52777777777778)"/><use xlink:href="#n" transform="matrix(1,0,0,1,593.5090446421292,393.59032020698726) translate(140.2365451388889 21.52777777777778)"/><path d="M713.64 332.96v9.97m0 9.96v19.9m0 9.98v19.92m0 9.97v19.92m0 9.95v19.93m0 9.96v19.93m0 9.96v19.93m0 9.96v19.92m0 9.97v19.93m0 9.96v19.92m0 9.96v19.93m0 9.97v19.93m0 9.96v19.93m0 9.95v19.92m0 9.97v19.92m0 9.96v19.93m0 9.96v19.94m0 9.96v19.93m0 9.96v19.9m0 9.98v19.92m0 9.97v19.92m0 9.95v19.93m0 9.96v19.93m0 9.96v19.93m0 9.96v19.92m0 9.97v19.93m0 9.96v19.92m0 9.96v19.93m0 9.97v19.93m0 9.96v19.92m0 9.97v19.92m0 9.97v9.96M713.64 1259.5v.5" stroke="#3a414a" fill="none"/><path d="M1013.5 271.6a6 6 0 0 1 6-6h148a6 6 0 0 1 6 6v108a6 6 0 0 1-6 6h-148a6 6 0 0 1-6-6z" stroke="#000" stroke-width="2" fill="#fff"/><use xlink:href="#o" transform="matrix(1,0,0,1,1013.5090446421292,265.59032020698726) translate(37.82835069444444 66.52777777777777)"/><path d="M1093.5 387.1v10.02m0 10.03v20.05m0 10.03v20.05m0 10.03v20.07m0 10.02v20.05m0 10.03v20.05m0 10.03v20.06m0 10.02v20.06m0 10.03v20.05m0 10.03v20.07m0 10.02v20.05m0 10.03v20.05m0 10.03v20.06m0 10.02v20.06m0 10.03v20.05m0 10.03v20.06m0 10.03v20.05m0 10.02v20.06m0 10.03v20.05m0 10.04v20.06m0 10.02v20.06m0 10.03v20.06m0 10.03v20.05m0 10.02v20.06m0 10.03v20.05m0 10.04v20.05m0 10.02v20.06m0 10.03v20.06m0 10.03v20.04m0 10.03v10.03" stroke="#3a414a" fill="none"/><path d="M1093.98 387.1h-.95v-.5h.95z" stroke="#3a414a" stroke-width=".05" fill="#3a414a"/><path d="M1093.5 1259.5v.5M734.87 578.66h321.4" stroke="#3a414a" fill="none"/><path d="M734.88 579.14h-.5v-.95h.5z" stroke="#3a414a" stroke-width=".05" fill="#3a414a"/><path d="M1071.03 578.66l-14.26 4.64v-9.27z" stroke="#3a414a" fill="#3a414a"/><use xlink:href="#p" transform="matrix(1,0,0,1,839.1947887760799,553.1542500000002) translate(0 17.22222222222222)"/><path d="M1072.15 620h-2m-4.02 0h-4.02m-4 0h-4.02m-4 0h-4.03m-4 0H1038m-4 0h-4.03m-4.03 0h-4m-4.02 0h-4.02m-4.02 0h-4m-4.02 0h-4m-4.03 0h-4m-4.03 0h-4m-4.03 0h-4.02m-4.02 0h-4m-4.03 0h-4m-4.03 0h-4.02m-4 0h-4.03m-4 0h-4.03m-4 0h-4.03m-4.02 0h-4.02m-4 0h-4.03m-4 0h-4.02m-3.98 0h-4m-3.98 0h-4m-4 0h-3.98m-4 0h-4m-3.98 0h-4m-3.98 0h-4m-4 0h-3.98m-4 0h-4m-3.98 0h-4m-3.98 0h-4m-4 0h-3.98m-4 0h-4m-3.98 0h-4m-3.98 0h-4m-4 0h-3.98m-4 0h-4m-3.98 0h-4m-3.98 0h-4m-4 0h-3.98m-4 0h-2" stroke="#3a414a" fill="none"/><path d="M1072.65 620.47h-.5v-.95h.5z" stroke="#3a414a" stroke-width=".05" fill="#3a414a"/><path d="M752.7 630l-17.33-10 17.32-10m-17.33 10h8.5" stroke="#3a414a" fill="none"/><use xlink:href="#q" transform="matrix(1,0,0,1,863.4179173263885,594.4885833333334) translate(0 17.22222222222222)"/><path d="M693.37 546a6 6 0 0 1 6-6h28a6 6 0 0 1 6 6v108a6 6 0 0 1-6 6h-28a6 6 0 0 1-6-6zM1073.65 546a6 6 0 0 1 6-6h28a6 6 0 0 1 6 6v108a6 6 0 0 1-6 6h-28a6 6 0 0 1-6-6z" stroke="#000" stroke-width="2" fill="#fff"/><path d="M734.87 778.66h321.4" stroke="#3a414a" fill="none"/><path d="M734.88 779.14h-.5v-.95h.5z" stroke="#3a414a" stroke-width=".05" fill="#3a414a"/><path d="M1071.03 778.66l-14.26 4.64v-9.27z" stroke="#3a414a" fill="#3a414a"/><use xlink:href="#r" transform="matrix(1,0,0,1,847.688712387191,753.15425) translate(0 17.22222222222222)"/><path d="M1072.15 820h-2m-4.02 0h-4.02m-4 0h-4.02m-4 0h-4.03m-4 0H1038m-4 0h-4.03m-4.03 0h-4m-4.02 0h-4.02m-4.02 0h-4m-4.02 0h-4m-4.03 0h-4m-4.03 0h-4m-4.03 0h-4.02m-4.02 0h-4m-4.03 0h-4m-4.03 0h-4.02m-4 0h-4.03m-4 0h-4.03m-4 0h-4.03m-4.02 0h-4.02m-4 0h-4.03m-4 0h-4.02m-3.98 0h-4m-3.98 0h-4m-4 0h-3.98m-4 0h-4m-3.98 0h-4m-3.98 0h-4m-4 0h-3.98m-4 0h-4m-3.98 0h-4m-3.98 0h-4m-4 0h-3.98m-4 0h-4m-3.98 0h-4m-3.98 0h-4m-4 0h-3.98m-4 0h-4m-3.98 0h-4m-3.98 0h-4m-4 0h-3.98m-4 0h-2" stroke="#3a414a" fill="none"/><path d="M1072.65 820.47h-.5v-.95h.5z" stroke="#3a414a" stroke-width=".05" fill="#3a414a"/><path d="M752.7 830l-17.33-10 17.32-10m-17.33 10h8.5" stroke="#3a414a" fill="none"/><use xlink:href="#s" transform="matrix(1,0,0,1,850.7009034374997,794.4885833333333) translate(0 17.22222222222222)"/><path d="M693.37 746a6 6 0 0 1 6-6h28a6 6 0 0 1 6 6v108a6 6 0 0 1-6 6h-28a6 6 0 0 1-6-6zM1073.65 746a6 6 0 0 1 6-6h28a6 6 0 0 1 6 6v108a6 6 0 0 1-6 6h-28a6 6 0 0 1-6-6z" stroke="#000" stroke-width="2" fill="#fff"/><path d="M734.87 1038.66h321.4" stroke="#3a414a" fill="none"/><path d="M734.88 1039.14h-.5v-.95h.5z" stroke="#3a414a" stroke-width=".05" fill="#3a414a"/><path d="M1071.03 1038.66l-14.26 4.64v-9.27z" stroke="#3a414a" fill="#3a414a"/><g><use xlink:href="#t" transform="matrix(1,0,0,1,825.4664901649687,1013.1542500000002) translate(0 17.22222222222222)"/></g><path d="M1072.15 1080h-2m-4 0h-4m-4 0h-4.02m-4 0h-4m-4 0h-4m-4.02 0h-4m-4 0h-4m-4 0h-4m-4 0h-4.02m-4 0h-4m-4 0h-4m-4.02 0h-4m-4 0h-4m-4 0h-4.02m-4 0h-4m-4 0H950m-4 0h-4m-4 0h-4m-4.02 0h-4m-4 0h-4m-4 0h-4.02m-4 0h-4m-4 0h-4m-4.02 0h-4m-4 0h-4m-4 0h-4.02m-4 0h-4m-4 0h-4.02m-4 0h-4m-4 0h-4m-4.02 0h-4m-4 0h-4m-4 0h-4.02m-4 0h-4m-4 0h-4m-4.02 0h-4m-4 0h-4m-4 0h-4.02m-4 0h-4m-4 0h-4m-4.02 0h-4m-4 0h-2" stroke="#3a414a" fill="none"/><path d="M1072.65 1080.47h-.5v-.95h.5z" stroke="#3a414a" stroke-width=".05" fill="#3a414a"/><path d="M752.7 1090l-17.33-10 17.32-10m-17.33 10h8.5" stroke="#3a414a" fill="none"/><g><use xlink:href="#u" transform="matrix(1,0,0,1,839.2382298263885,1054.4885833333333) translate(0 17.22222222222222)"/></g><path d="M693.37 1006a6 6 0 0 1 6-6h28a6 6 0 0 1 6 6v108a6 6 0 0 1-6 6h-28a6 6 0 0 1-6-6zM1073.65 1006a6 6 0 0 1 6-6h28a6 6 0 0 1 6 6v108a6 6 0 0 1-6 6h-28a6 6 0 0 1-6-6z" stroke="#000" stroke-width="2" fill="#fff"/><defs><path d="M784 20c-382 0-662-292-662-764 0-473 280-766 662-766s660 293 660 766c0 472-278 764-660 764zm0-176c266 0 475-207 475-588 0-383-209-590-475-590-268 0-477 208-477 590 0 380 209 588 477 588" id="v"/><path d="M158 418v-1536h174v179h20c37-59 106-193 324-193 279 0 474 222 474 576 0 356-194 580-473 580-213 0-288-135-325-197h-14v591H158zm492-555c209 0 317-186 317-421 0-232-105-413-317-413-206 0-314 166-314 413 0 249 111 421 314 421" id="w"/><path d="M598-1118v154H368v674c0 100 37 144 132 144 23 0 62-6 92-12L629-6c-37 13-88 20-134 20-193 0-307-107-307-290v-688H20v-154h168v-266h180v266h230" id="x"/><g id="a"><use transform="matrix(0.010850694444444442,0,0,0.010850694444444442,0,0)" xlink:href="#v"/><use transform="matrix(0.010850694444444442,0,0,0.010850694444444442,16.992187499999996,0)" xlink:href="#w"/><use transform="matrix(0.010850694444444442,0,0,0.010850694444444442,30.59895833333333,0)" xlink:href="#x"/></g><path d="M657 26c-323 0-524-166-541-416h195c15 169 171 246 346 246 202 0 356-106 356-265 5-203-294-238-475-293-239-73-380-191-380-389 0-252 224-419 512-419 294 0 499 171 508 396H992c-17-145-151-228-328-228-193 0-321 102-321 242 0 156 175 211 284 241l149 41c160 44 422 134 422 412 0 244-197 432-541 432" id="y"/><path d="M471 26C259 26 90-98 90-318c0-256 228-303 435-329 202-27 287-16 287-108 0-139-79-219-234-219-161 0-248 86-283 164l-173-57c86-203 278-265 451-265 150 0 419 46 419 395V0H815v-152h-12C765-73 660 26 471 26zm31-159c199 0 310-134 310-271v-155c-30 35-226 55-295 64-131 17-246 59-246 186 0 116 97 176 231 176" id="z"/><path d="M678-1118v154H420V0H240v-964H20v-154h220v-149c0-194 155-293 318-293 85 0 141 18 168 30l-50 154c-19-6-47-17-97-17-111 0-159 58-159 166v109h258" id="A"/><g id="b"><use transform="matrix(0.010850694444444442,0,0,0.010850694444444442,0,0)" xlink:href="#y"/><use transform="matrix(0.010850694444444442,0,0,0.010850694444444442,14.257812499999996,0)" xlink:href="#x"/><use transform="matrix(0.010850694444444442,0,0,0.010850694444444442,21.636284722222218,0)" xlink:href="#z"/><use transform="matrix(0.010850694444444442,0,0,0.010850694444444442,34.11458333333333,0)" xlink:href="#A"/><use transform="matrix(0.010850694444444442,0,0,0.010850694444444442,41.47135416666666,0)" xlink:href="#A"/></g><path d="M409 0L70-1118h191c89 329 165 560 243 925 75-353 154-601 240-925h192c85 325 161 564 235 922 77-354 157-598 244-922h191L1267 0h-179c-86-307-176-590-250-913C763-588 675-308 588 0H409" id="B"/><path d="M338-670V0H158v-1118h173l1 207c72-158 192-221 342-221 226 0 378 139 378 422V0H872v-695c0-172-96-275-252-275-161 0-282 109-282 300" id="C"/><path d="M538 24C308 24 148-78 108-271l171-41c32 123 123 178 257 178 156 0 256-77 256-169 0-77-54-128-164-154l-186-44c-203-48-300-148-300-305 0-192 176-326 414-326 230 0 351 112 402 269l-163 42c-31-80-94-158-238-158-133 0-233 69-233 162 0 83 57 129 188 160l169 40c203 48 298 149 298 302 0 196-179 339-441 339" id="D"/><g id="c"><use transform="matrix(0.010850694444444442,0,0,0.010850694444444442,0,0)" xlink:href="#B"/><use transform="matrix(0.010850694444444442,0,0,0.010850694444444442,18.185763888888886,0)" xlink:href="#z"/><use transform="matrix(0.010850694444444442,0,0,0.010850694444444442,30.664062499999993,0)" xlink:href="#C"/><use transform="matrix(0.010850694444444442,0,0,0.010850694444444442,43.79340277777777,0)" xlink:href="#x"/><use transform="matrix(0.010850694444444442,0,0,0.010850694444444442,50.846354166666664,0)" xlink:href="#D"/></g><path d="M613 24c-304 0-509-231-509-576 0-350 205-580 509-580 305 0 511 230 511 580 0 345-206 576-511 576zm0-161c226 0 329-195 329-415 0-222-103-419-329-419-223 0-326 196-326 419 0 220 103 415 326 415" id="E"/><g id="d"><use transform="matrix(0.010850694444444442,0,0,0.010850694444444442,0,0)" xlink:href="#x"/><use transform="matrix(0.010850694444444442,0,0,0.010850694444444442,7.0529513888888875,0)" xlink:href="#E"/></g><path d="M481 0L54-1118h197c107 314 236 620 325 951 87-331 217-637 324-951h197L670 0H481" id="F"/><path d="M158 0v-1118h180V0H158zm91-1301c-68 0-125-53-125-119s57-119 125-119c69 0 126 53 126 119s-57 119-126 119" id="G"/><path d="M628 24c-324 0-524-230-524-574 0-343 198-582 503-582 237 0 487 146 487 559v75H286c9 234 145 362 343 362 132 0 231-58 273-172l174 48C1024-91 857 24 628 24zM287-650h624c-17-190-120-322-304-322-192 0-309 151-320 322" id="H"/><g id="e"><use transform="matrix(0.010850694444444442,0,0,0.010850694444444442,0,0)" xlink:href="#F"/><use transform="matrix(0.010850694444444442,0,0,0.010850694444444442,12.489149305555554,0)" xlink:href="#G"/><use transform="matrix(0.010850694444444442,0,0,0.010850694444444442,17.871093749999996,0)" xlink:href="#H"/><use transform="matrix(0.010850694444444442,0,0,0.010850694444444442,30.425347222222218,0)" xlink:href="#B"/></g><path d="M613 24c-304 0-509-231-509-576 0-350 205-580 509-580 216 0 392 114 453 309l-173 49c-33-115-133-197-280-197-223 0-326 196-326 419 0 220 103 415 326 415 150 0 252-85 285-206l172 49C1010-95 832 24 613 24" id="I"/><path d="M158 0v-1490h180v865h22l478-493h223L593-638 1096 0H865L456-523 338-412V0H158" id="J"/><g id="f"><use transform="matrix(0.010850694444444442,0,0,0.010850694444444442,0,0)" xlink:href="#x"/><use transform="matrix(0.010850694444444442,0,0,0.010850694444444442,7.269965277777777,0)" xlink:href="#G"/><use transform="matrix(0.010850694444444442,0,0,0.010850694444444442,12.651909722222221,0)" xlink:href="#I"/><use transform="matrix(0.010850694444444442,0,0,0.010850694444444442,25.34722222222222,0)" xlink:href="#J"/><use transform="matrix(0.010850694444444442,0,0,0.010850694444444442,37.04427083333333,0)" xlink:href="#H"/><use transform="matrix(0.010850694444444442,0,0,0.010850694444444442,49.99999999999999,0)" xlink:href="#x"/></g><path d="M577 24c-279 0-473-224-473-580 0-354 195-576 474-576 218 0 287 134 324 193h14v-551h180V0H922v-173h-20C865-111 790 24 577 24zm27-161c203 0 314-172 314-421 0-247-108-413-314-413-212 0-317 181-317 413 0 235 108 421 317 421" id="K"/><path d="M338-1490V0H158v-1490h180" id="L"/><g id="g"><use transform="matrix(0.010850694444444442,0,0,0.010850694444444442,0,0)" xlink:href="#K"/><use transform="matrix(0.010850694444444442,0,0,0.010850694444444442,13.60677083333333,0)" xlink:href="#H"/><use transform="matrix(0.010850694444444442,0,0,0.010850694444444442,26.562499999999996,0)" xlink:href="#x"/><use transform="matrix(0.010850694444444442,0,0,0.010850694444444442,33.940972222222214,0)" xlink:href="#z"/><use transform="matrix(0.010850694444444442,0,0,0.010850694444444442,46.41927083333332,0)" xlink:href="#G"/><use transform="matrix(0.010850694444444442,0,0,0.010850694444444442,51.801215277777764,0)" xlink:href="#L"/><use transform="matrix(0.010850694444444442,0,0,0.010850694444444442,57.183159722222214,0)" xlink:href="#D"/></g><path d="M677 24c-213 0-288-135-325-197h-20V0H158v-1490h180v551h14c37-59 106-193 324-193 279 0 474 222 474 576 0 356-194 580-473 580zm-27-161c209 0 317-186 317-421 0-232-105-413-317-413-206 0-314 166-314 413 0 249 111 421 314 421" id="M"/><path d="M158 0v-1118h174v172h12c41-113 157-188 290-188 26 0 70 2 91 3v181c-11-2-60-10-108-10-161 0-279 109-279 260V0H158" id="N"/><g id="h"><use transform="matrix(0.010850694444444442,0,0,0.010850694444444442,0,0)" xlink:href="#M"/><use transform="matrix(0.010850694444444442,0,0,0.010850694444444442,13.60677083333333,0)" xlink:href="#H"/><use transform="matrix(0.010850694444444442,0,0,0.010850694444444442,26.562499999999996,0)" xlink:href="#A"/><use transform="matrix(0.010850694444444442,0,0,0.010850694444444442,34.136284722222214,0)" xlink:href="#E"/><use transform="matrix(0.010850694444444442,0,0,0.010850694444444442,47.46093749999998,0)" xlink:href="#N"/><use transform="matrix(0.010850694444444442,0,0,0.010850694444444442,55.457899305555536,0)" xlink:href="#H"/></g><path d="M611 442c-248 0-391-105-460-228l146-94c47 65 117 165 314 165 178 0 307-82 307-266v-224h-17C863-141 792-18 576-18c-268 0-472-195-472-546 0-346 197-568 476-568 216 0 288 133 326 193h17v-179h175V29c0 289-215 413-487 413zm-5-620c203 0 314-146 314-390 0-237-108-403-314-403-213 0-319 180-319 403 0 230 109 390 319 390" id="O"/><g id="i"><use transform="matrix(0.010850694444444442,0,0,0.010850694444444442,0,0)" xlink:href="#H"/><use transform="matrix(0.010850694444444442,0,0,0.010850694444444442,12.955729166666664,0)" xlink:href="#D"/><use transform="matrix(0.010850694444444442,0,0,0.010850694444444442,24.685329861111107,0)" xlink:href="#I"/><use transform="matrix(0.010850694444444442,0,0,0.010850694444444442,37.59765624999999,0)" xlink:href="#z"/><use transform="matrix(0.010850694444444442,0,0,0.010850694444444442,50.0759548611111,0)" xlink:href="#L"/><use transform="matrix(0.010850694444444442,0,0,0.010850694444444442,55.45789930555554,0)" xlink:href="#z"/><use transform="matrix(0.010850694444444442,0,0,0.010850694444444442,67.93619791666666,0)" xlink:href="#x"/><use transform="matrix(0.010850694444444442,0,0,0.010850694444444442,75.20616319444443,0)" xlink:href="#G"/><use transform="matrix(0.010850694444444442,0,0,0.010850694444444442,80.58810763888887,0)" xlink:href="#C"/><use transform="matrix(0.010850694444444442,0,0,0.010850694444444442,93.71744791666664,0)" xlink:href="#O"/></g><path d="M763 24c-353 0-583-224-583-531v-983h190v968c0 214 149 370 393 370 243 0 391-156 391-370v-968h190v983c0 307-230 531-581 531" id="P"/><path d="M783 20c-382 0-661-292-661-764 0-473 279-766 661-766 302 0 548 182 601 489h-190c-42-204-217-313-411-313-268 0-476 208-476 590 0 381 209 588 476 588 195 0 369-110 411-313h190c-52 303-296 489-601 489" id="Q"/><path d="M646 20c-332 0-524-278-524-764 0-483 194-766 524-766s524 283 524 766c0 485-191 764-524 764zm0-166c218 0 341-220 341-598 0-380-123-601-341-601s-341 222-341 601c0 378 123 598 341 598" id="R"/><path d="M154 0v-137l495-537c165-179 249-281 249-418 0-156-121-253-280-253-170 0-278 110-278 278H158c0-264 200-443 465-443 266 0 455 183 455 416 0 161-73 288-336 568L416-179v12h687V0H154" id="S"/><path d="M626 20c-262 0-458-168-468-396h184c12 133 134 229 284 229 180 0 311-137 311-326 0-192-136-335-323-335-92 0-196 33-255 78l-178-22 88-738h784v167H429l-51 435h8c61-51 160-87 263-87 273 0 474 211 474 499 0 286-210 496-497 496" id="T"/><g id="j"><use transform="matrix(0.010850694444444444,0,0,0.010850694444444444,0,0)" xlink:href="#P"/><use transform="matrix(0.010850694444444444,0,0,0.010850694444444444,16.536458333333332,0)" xlink:href="#Q"/><use transform="matrix(0.010850694444444444,0,0,0.010850694444444444,32.76909722222222,0)" xlink:href="#R"/><use transform="matrix(0.010850694444444444,0,0,0.010850694444444444,46.78819444444444,0)" xlink:href="#S"/><use transform="matrix(0.010850694444444444,0,0,0.010850694444444444,60.34071180555555,0)" xlink:href="#T"/></g><path d="M218-607c0-325 108-727 258-974h175c-155 315-250 682-250 974 0 265 78 531 250 886H476C306-10 218-315 218-607" id="U"/><path d="M180 0v-1490h908v168H370v486h669v168H370v500h727V0H180" id="V"/><g id="k"><use transform="matrix(0.010850694444444444,0,0,0.010850694444444444,0,0)" xlink:href="#U"/><use transform="matrix(0.010850694444444444,0,0,0.010850694444444444,8.10546875,0)" xlink:href="#V"/><use transform="matrix(0.010850694444444444,0,0,0.010850694444444444,21.46267361111111,0)" xlink:href="#D"/><use transform="matrix(0.010850694444444444,0,0,0.010850694444444444,33.19227430555556,0)" xlink:href="#I"/><use transform="matrix(0.010850694444444444,0,0,0.010850694444444444,46.10460069444444,0)" xlink:href="#z"/><use transform="matrix(0.010850694444444444,0,0,0.010850694444444444,58.58289930555555,0)" xlink:href="#L"/><use transform="matrix(0.010850694444444444,0,0,0.010850694444444444,63.96484375,0)" xlink:href="#z"/><use transform="matrix(0.010850694444444444,0,0,0.010850694444444444,76.44314236111111,0)" xlink:href="#x"/><use transform="matrix(0.010850694444444444,0,0,0.010850694444444444,83.49609375,0)" xlink:href="#H"/></g><path d="M158 0v-1118h175l1 205c55-151 181-225 313-225 147 0 245 90 285 228 53-141 190-228 352-228 194 0 352 125 352 384V0h-181v-749c0-161-105-225-225-225-151 0-243 103-243 244V0H807v-767c0-124-93-207-219-207-131 0-250 92-250 270V0H158" id="W"/><path d="M96 279C273-86 346-350 346-607c0-292-95-659-250-974h175c150 246 258 650 258 974 0 297-91 602-258 886H96" id="X"/><g id="l"><use transform="matrix(0.010850694444444444,0,0,0.010850694444444444,0,0)" xlink:href="#Q"/><use transform="matrix(0.010850694444444444,0,0,0.010850694444444444,16.23263888888889,0)" xlink:href="#E"/><use transform="matrix(0.010850694444444444,0,0,0.010850694444444444,29.557291666666664,0)" xlink:href="#W"/><use transform="matrix(0.010850694444444444,0,0,0.010850694444444444,49.0234375,0)" xlink:href="#w"/><use transform="matrix(0.010850694444444444,0,0,0.010850694444444444,62.63020833333333,0)" xlink:href="#L"/><use transform="matrix(0.010850694444444444,0,0,0.010850694444444444,68.01215277777777,0)" xlink:href="#z"/><use transform="matrix(0.010850694444444444,0,0,0.010850694444444444,80.49045138888889,0)" xlink:href="#G"/><use transform="matrix(0.010850694444444444,0,0,0.010850694444444444,85.87239583333333,0)" xlink:href="#C"/><use transform="matrix(0.010850694444444444,0,0,0.010850694444444444,99.00173611111111,0)" xlink:href="#x"/><use transform="matrix(0.010850694444444444,0,0,0.010850694444444444,106.27170138888887,0)" xlink:href="#X"/></g><path d="M537 14c-226 0-379-139-379-422v-710h180v695c0 172 97 275 253 275 160 0 281-109 281-300v-670h181V0H879v-209C806-46 684 14 537 14" id="Y"/><g id="m"><use transform="matrix(0.010850694444444444,0,0,0.010850694444444444,0,0)" xlink:href="#y"/><use transform="matrix(0.010850694444444444,0,0,0.010850694444444444,14.2578125,0)" xlink:href="#Y"/><use transform="matrix(0.010850694444444444,0,0,0.010850694444444444,27.39800347222222,0)" xlink:href="#w"/><use transform="matrix(0.010850694444444444,0,0,0.010850694444444444,41.00477430555556,0)" xlink:href="#w"/><use transform="matrix(0.010850694444444444,0,0,0.010850694444444444,54.611545138888886,0)" xlink:href="#E"/><use transform="matrix(0.010850694444444444,0,0,0.010850694444444444,67.93619791666666,0)" xlink:href="#N"/><use transform="matrix(0.010850694444444444,0,0,0.010850694444444444,76.64930555555556,0)" xlink:href="#x"/></g><g id="n"><use transform="matrix(0.010850694444444444,0,0,0.010850694444444444,0,0)" xlink:href="#y"/><use transform="matrix(0.010850694444444444,0,0,0.010850694444444444,14.2578125,0)" xlink:href="#x"/><use transform="matrix(0.010850694444444444,0,0,0.010850694444444444,21.63628472222222,0)" xlink:href="#z"/><use transform="matrix(0.010850694444444444,0,0,0.010850694444444444,34.11458333333333,0)" xlink:href="#A"/><use transform="matrix(0.010850694444444444,0,0,0.010850694444444444,41.47135416666666,0)" xlink:href="#A"/></g><path d="M295 13c-75 0-135-60-135-135s60-135 135-135 135 60 135 135S370 13 295 13zm0-809c-75 0-135-60-135-135s60-135 135-135 135 60 135 135-60 135-135 135" id="Z"/><path d="M140 405l46-156c120 36 205 19 263-150l32-93L54-1118h197c107 313 237 620 324 950 87-331 219-637 326-950h196L606 167c-68 178-176 259-334 259-64 0-113-12-132-21" id="aa"/><g id="o"><use transform="matrix(0.010850694444444444,0,0,0.010850694444444444,0,0)" xlink:href="#Z"/><use transform="matrix(0.010850694444444444,0,0,0.010850694444444444,6.401909722222222,0)" xlink:href="#y"/><use transform="matrix(0.010850694444444444,0,0,0.010850694444444444,20.65972222222222,0)" xlink:href="#aa"/><use transform="matrix(0.010850694444444444,0,0,0.010850694444444444,33.14887152777778,0)" xlink:href="#D"/><use transform="matrix(0.010850694444444444,0,0,0.010850694444444444,44.87847222222222,0)" xlink:href="#x"/><use transform="matrix(0.010850694444444444,0,0,0.010850694444444444,51.93142361111112,0)" xlink:href="#H"/><use transform="matrix(0.010850694444444444,0,0,0.010850694444444444,64.88715277777779,0)" xlink:href="#W"/><path d="M-1.1 4.54h86.57v1.52H-1.1z"/></g><path fill="#333" d="M625 442c-280 0-454-114-503-274l258-72c28 63 97 128 243 128 153 0 246-69 246-216v-206h-23C805-108 717-16 536-16 284-16 81-191 81-561c0-378 208-571 456-571 188 0 280 113 321 202h13v-188h295V-9c0 303-226 451-541 451zm5-686c153 0 240-119 240-319 0-198-86-329-240-329-158 0-241 137-241 329 0 195 85 319 241 319" id="ab"/><path fill="#333" d="M633 22C291 22 81-200 81-553c0-345 210-579 537-579 292 0 525 185 525 567v84H378c7 183 109 277 260 277 105 0 184-46 216-132l272 51C1071-99 893 22 633 22zM380-669h474c-15-146-94-237-233-237-143 0-229 99-241 237" id="ac"/><path fill="#333" d="M683-1118v229H474v562c0 71 29 104 102 104 23 0 73-7 95-13l43 225C647 9 580 16 520 16 296 16 174-96 174-301v-588H20v-229h154v-266h300v266h209" id="ad"/><path fill="#333" d="M49 0l509-1490h400L1480 0h-339l-115-346H497L386 0H49zm524-585h374c-75-213-124-402-192-666-66 268-110 453-182 666" id="ae"/><path fill="#333" d="M428-1490V0H128v-1490h300" id="af"/><path fill="#333" d="M75-1237v-253h1217v253H837V0H531v-1237H75" id="ag"/><path fill="#333" d="M128 0v-1118h300V0H128zm150-1264c-91 0-165-68-165-154 0-85 74-154 165-154 90 0 165 69 165 154 0 86-75 154-165 154" id="ah"/><path fill="#333" d="M628 22C291 22 81-210 81-554c0-346 210-578 547-578 265 0 455 142 497 372l-279 52c-25-116-99-188-215-188-160 0-244 139-244 341 0 200 84 341 244 341 116 0 193-74 217-195l279 51C1085-123 896 22 628 22" id="ai"/><path fill="#333" d="M128 0v-1490h300v802h17l366-430h347L740-633 1179 0H826L514-456l-86 97V0H128" id="aj"/><path fill="#333" d="M572 22C302 22 117-98 78-306l279-48c29 105 101 156 224 156 114 0 185-48 185-115 0-118-228-130-337-155-215-49-322-150-322-317 0-215 187-347 470-347 265 0 424 116 466 298l-266 47c-24-76-87-130-196-130-98 0-174 46-174 113 0 56 38 95 144 117l201 40c216 44 320 143 320 302 0 220-207 367-500 367" id="ak"/><path fill="#333" d="M169-607c0-330 107-732 258-974h279c-145 311-231 674-231 974 0 262 67 512 231 886H427C258-1 169-307 169-607" id="al"/><path fill="#333" d="M67 279c166-379 230-627 230-886 0-300-86-663-230-974h278c151 241 258 644 258 974 0 302-90 608-258 886H67" id="am"/><g id="p"><use transform="matrix(0.008680555555555556,0,0,0.008680555555555556,0,0)" xlink:href="#ab"/><use transform="matrix(0.008680555555555556,0,0,0.008680555555555556,11.23263888888889,0)" xlink:href="#ac"/><use transform="matrix(0.008680555555555556,0,0,0.008680555555555556,21.822916666666668,0)" xlink:href="#ad"/><use transform="matrix(0.008680555555555556,0,0,0.008680555555555556,28.333333333333336,0)" xlink:href="#ae"/><use transform="matrix(0.008680555555555556,0,0,0.008680555555555556,41.60590277777778,0)" xlink:href="#af"/><use transform="matrix(0.008680555555555556,0,0,0.008680555555555556,46.423611111111114,0)" xlink:href="#af"/><use transform="matrix(0.008680555555555556,0,0,0.008680555555555556,51.24131944444445,0)" xlink:href="#ag"/><use transform="matrix(0.008680555555555556,0,0,0.008680555555555556,63.10763888888889,0)" xlink:href="#ah"/><use transform="matrix(0.008680555555555556,0,0,0.008680555555555556,67.92534722222223,0)" xlink:href="#ai"/><use transform="matrix(0.008680555555555556,0,0,0.008680555555555556,78.38541666666667,0)" xlink:href="#aj"/><use transform="matrix(0.008680555555555556,0,0,0.008680555555555556,88.29861111111111,0)" xlink:href="#ac"/><use transform="matrix(0.008680555555555556,0,0,0.008680555555555556,98.8888888888889,0)" xlink:href="#ad"/><use transform="matrix(0.008680555555555556,0,0,0.008680555555555556,105.26909722222223,0)" xlink:href="#ak"/><use transform="matrix(0.008680555555555556,0,0,0.008680555555555556,115.22569444444444,0)" xlink:href="#al"/><use transform="matrix(0.008680555555555556,0,0,0.008680555555555556,121.92708333333334,0)" xlink:href="#am"/></g><path fill="#333" d="M135 0v-1490h305v1237h643V0H135" id="an"/><g id="q"><use transform="matrix(0.008680555555555556,0,0,0.008680555555555556,0,0)" xlink:href="#ad"/><use transform="matrix(0.008680555555555556,0,0,0.008680555555555556,6.510416666666667,0)" xlink:href="#ah"/><use transform="matrix(0.008680555555555556,0,0,0.008680555555555556,11.328125,0)" xlink:href="#ai"/><use transform="matrix(0.008680555555555556,0,0,0.008680555555555556,21.788194444444443,0)" xlink:href="#aj"/><use transform="matrix(0.008680555555555556,0,0,0.008680555555555556,31.701388888888886,0)" xlink:href="#ac"/><use transform="matrix(0.008680555555555556,0,0,0.008680555555555556,42.29166666666666,0)" xlink:href="#ad"/><use transform="matrix(0.008680555555555556,0,0,0.008680555555555556,48.84548611111111,0)" xlink:href="#an"/><use transform="matrix(0.008680555555555556,0,0,0.008680555555555556,58.897569444444436,0)" xlink:href="#ah"/><use transform="matrix(0.008680555555555556,0,0,0.008680555555555556,63.71527777777778,0)" xlink:href="#ak"/><use transform="matrix(0.008680555555555556,0,0,0.008680555555555556,73.671875,0)" xlink:href="#ad"/></g><path fill="#333" d="M537 19C279 19 81-185 81-557c0-382 206-575 454-575 190 0 278 113 318 202h10v-560h300V0H868v-179h-15C812-89 719 19 537 19zm92-241c153 0 240-134 240-336 0-203-86-334-240-334-158 0-240 138-240 334 0 197 84 336 240 336" id="ao"/><g id="r"><use transform="matrix(0.008680555555555556,0,0,0.008680555555555556,0,0)" xlink:href="#ab"/><use transform="matrix(0.008680555555555556,0,0,0.008680555555555556,11.23263888888889,0)" xlink:href="#ac"/><use transform="matrix(0.008680555555555556,0,0,0.008680555555555556,21.822916666666668,0)" xlink:href="#ad"/><use transform="matrix(0.008680555555555556,0,0,0.008680555555555556,27.734375000000004,0)" xlink:href="#ag"/><use transform="matrix(0.008680555555555556,0,0,0.008680555555555556,39.60069444444444,0)" xlink:href="#ah"/><use transform="matrix(0.008680555555555556,0,0,0.008680555555555556,44.418402777777786,0)" xlink:href="#ai"/><use transform="matrix(0.008680555555555556,0,0,0.008680555555555556,54.87847222222222,0)" xlink:href="#aj"/><use transform="matrix(0.008680555555555556,0,0,0.008680555555555556,64.79166666666667,0)" xlink:href="#ac"/><use transform="matrix(0.008680555555555556,0,0,0.008680555555555556,75.38194444444446,0)" xlink:href="#ad"/><use transform="matrix(0.008680555555555556,0,0,0.008680555555555556,81.89236111111113,0)" xlink:href="#al"/><use transform="matrix(0.008680555555555556,0,0,0.008680555555555556,88.59375000000001,0)" xlink:href="#ah"/><use transform="matrix(0.008680555555555556,0,0,0.008680555555555556,93.41145833333334,0)" xlink:href="#ao"/><use transform="matrix(0.008680555555555556,0,0,0.008680555555555556,104.93923611111113,0)" xlink:href="#am"/></g><path fill="#333" d="M440 22C227 22 68-92 68-313c0-250 202-322 422-343 195-21 271-24 271-105 0-95-63-149-175-149-116 0-187 57-211 129l-275-46c57-194 237-305 487-305 240 0 474 108 474 379V0H777v-155h-10C713-51 605 22 440 22zm85-211c140 0 238-93 238-211v-121c-37 26-156 42-222 51-111 16-185 59-185 149 0 87 70 132 169 132" id="ap"/><path fill="#333" d="M128 0v-1118h290v195h12c54-169 184-238 367-200v268c-27-8-86-15-130-15-138 0-239 95-239 234V0H128" id="aq"/><g id="s"><use transform="matrix(0.008680555555555556,0,0,0.008680555555555556,0,0)" xlink:href="#ad"/><use transform="matrix(0.008680555555555556,0,0,0.008680555555555556,6.597222222222222,0)" xlink:href="#ap"/><use transform="matrix(0.008680555555555556,0,0,0.008680555555555556,16.91840277777778,0)" xlink:href="#aq"/><use transform="matrix(0.008680555555555556,0,0,0.008680555555555556,23.723958333333336,0)" xlink:href="#ab"/><use transform="matrix(0.008680555555555556,0,0,0.008680555555555556,34.95659722222223,0)" xlink:href="#ac"/><use transform="matrix(0.008680555555555556,0,0,0.008680555555555556,45.54687500000001,0)" xlink:href="#ad"/><use transform="matrix(0.008680555555555556,0,0,0.008680555555555556,51.458333333333336,0)" xlink:href="#ag"/><use transform="matrix(0.008680555555555556,0,0,0.008680555555555556,63.32465277777778,0)" xlink:href="#ah"/><use transform="matrix(0.008680555555555556,0,0,0.008680555555555556,68.14236111111111,0)" xlink:href="#ai"/><use transform="matrix(0.008680555555555556,0,0,0.008680555555555556,78.60243055555556,0)" xlink:href="#aj"/><use transform="matrix(0.008680555555555556,0,0,0.008680555555555556,88.515625,0)" xlink:href="#ac"/><use transform="matrix(0.008680555555555556,0,0,0.008680555555555556,99.10590277777777,0)" xlink:href="#ad"/></g><g id="t"><use transform="matrix(0.008680555555555556,0,0,0.008680555555555556,0,0)" xlink:href="#ac"/><use transform="matrix(0.008680555555555556,0,0,0.008680555555555556,10.590277777777779,0)" xlink:href="#ak"/><use transform="matrix(0.008680555555555556,0,0,0.008680555555555556,20.546875,0)" xlink:href="#ai"/><use transform="matrix(0.008680555555555556,0,0,0.008680555555555556,31.180555555555557,0)" xlink:href="#ap"/><use transform="matrix(0.008680555555555556,0,0,0.008680555555555556,41.501736111111114,0)" xlink:href="#af"/><use transform="matrix(0.008680555555555556,0,0,0.008680555555555556,46.31944444444445,0)" xlink:href="#ap"/><use transform="matrix(0.008680555555555556,0,0,0.008680555555555556,56.64062500000001,0)" xlink:href="#ad"/><use transform="matrix(0.008680555555555556,0,0,0.008680555555555556,62.97743055555556,0)" xlink:href="#ac"/><use transform="matrix(0.008680555555555556,0,0,0.008680555555555556,72.17881944444446,0)" xlink:href="#ag"/><use transform="matrix(0.008680555555555556,0,0,0.008680555555555556,84.04513888888889,0)" xlink:href="#ah"/><use transform="matrix(0.008680555555555556,0,0,0.008680555555555556,88.86284722222223,0)" xlink:href="#ai"/><use transform="matrix(0.008680555555555556,0,0,0.008680555555555556,99.32291666666667,0)" xlink:href="#aj"/><use transform="matrix(0.008680555555555556,0,0,0.008680555555555556,109.23611111111111,0)" xlink:href="#ac"/><use transform="matrix(0.008680555555555556,0,0,0.008680555555555556,119.82638888888887,0)" xlink:href="#ad"/><use transform="matrix(0.008680555555555556,0,0,0.008680555555555556,126.33680555555556,0)" xlink:href="#al"/><use transform="matrix(0.008680555555555556,0,0,0.008680555555555556,133.03819444444446,0)" xlink:href="#ah"/><use transform="matrix(0.008680555555555556,0,0,0.008680555555555556,137.8559027777778,0)" xlink:href="#ao"/><use transform="matrix(0.008680555555555556,0,0,0.008680555555555556,149.38368055555557,0)" xlink:href="#am"/></g><path fill="#333" d="M513 14c-232 0-385-159-385-421v-711h300v659c0 139 76 222 202 222 127 0 217-86 217-234v-647h301V0H864l-4-232C797-74 683 14 513 14" id="ar"/><path fill="#333" d="M681 22C323 22 94-145 85-462h297c10 151 131 226 296 226 163 0 271-77 271-190 0-102-95-149-257-189l-164-41c-252-61-403-188-403-405 0-269 236-449 560-449 330 0 546 183 551 445H941c-11-119-106-188-259-188-156 0-244 72-244 172-3 156 226 185 373 221 250 61 445 186 445 436 0 271-213 446-575 446" id="as"/><g id="u"><use transform="matrix(0.008680555555555556,0,0,0.008680555555555556,0,0)" xlink:href="#ak"/><use transform="matrix(0.008680555555555556,0,0,0.008680555555555556,9.956597222222223,0)" xlink:href="#ar"/><use transform="matrix(0.008680555555555556,0,0,0.008680555555555556,21.024305555555557,0)" xlink:href="#ai"/><use transform="matrix(0.008680555555555556,0,0,0.008680555555555556,31.484375,0)" xlink:href="#ai"/><use transform="matrix(0.008680555555555556,0,0,0.008680555555555556,41.94444444444444,0)" xlink:href="#ac"/><use transform="matrix(0.008680555555555556,0,0,0.008680555555555556,52.53472222222222,0)" xlink:href="#ak"/><use transform="matrix(0.008680555555555556,0,0,0.008680555555555556,62.49131944444444,0)" xlink:href="#ak"/><use transform="matrix(0.008680555555555556,0,0,0.008680555555555556,72.44791666666667,0)" xlink:href="#as"/><use transform="matrix(0.008680555555555556,0,0,0.008680555555555556,84.08854166666667,0)" xlink:href="#ad"/><use transform="matrix(0.008680555555555556,0,0,0.008680555555555556,90.6857638888889,0)" xlink:href="#ap"/><use transform="matrix(0.008680555555555556,0,0,0.008680555555555556,101.00694444444447,0)" xlink:href="#ad"/><use transform="matrix(0.008680555555555556,0,0,0.008680555555555556,107.51736111111113,0)" xlink:href="#ar"/><use transform="matrix(0.008680555555555556,0,0,0.008680555555555556,118.58506944444444,0)" xlink:href="#ak"/></g></defs></g></svg>