<svg xmlns="http://www.w3.org/2000/svg" xmlns:xlink="http://www.w3.org/1999/xlink" xmlns:lucid="lucid" width="1500" height="2000"><g transform="translate(500 500)" lucid:page-tab-id="7TKHcEL-pRvB"><path d="M-500-500h1500v2000H-500z" fill="#fff"/><path d="M-80 246a6 6 0 0 1 6-6h88a6 6 0 0 1 6 6v8a14.48 14.48 0 0 1-4.24 10.24l-1.52 1.52A14.48 14.48 0 0 1 4 270h-78a6 6 0 0 1-6-6z" fill="#fff"/><path d="M20 240v20l-10 10h-90" stroke="#000" stroke-width="2" fill="none"/><path d="M-80 246a6 6 0 0 1 6-6h822.22a6 6 0 0 1 6 6v648a6 6 0 0 1-6 6H-74a6 6 0 0 1-6-6zM-80 570h20m15 0h20m15 0h20m15 0h20m15 0h20m15 0h20m15 0h20m15 0h20m15 0h20m15 0h20m15 0h20m15 0h20m15 0h20m15 0h20m15 0h20m15 0h20m15 0h20m15 0h20m15 0h20m15 0h20m15 0h20m15 0h20m15 0h20m15 0h20" stroke="#000" stroke-width="2" fill="none"/><use xlink:href="#a" transform="matrix(1,0,0,1,-72,240) translate(0 23.08376736111111)"/><use xlink:href="#b" transform="matrix(1,0,0,1,-68,278) translate(0 22.760416666666668)"/><use xlink:href="#c" transform="matrix(1,0,0,1,-68,278) translate(13.781250000000002 22.760416666666668)"/><use xlink:href="#d" transform="matrix(1,0,0,1,-68,578) translate(0 23.08376736111111)"/><path d="M68.03-202.3a6 6 0 0 1 6-6h88a6 6 0 0 1 6 6v8a14.48 14.48 0 0 1-4.24 10.24l-1.53 1.5a14.48 14.48 0 0 1-10.24 4.25h-78a6 6 0 0 1-6-6z" fill="#fff"/><path d="M168.03-208.3v20l-10 10h-90" stroke="#000" stroke-width="2" fill="none"/><path d="M68.03-202.3a6 6 0 0 1 6-6H554a6 6 0 0 1 6 6v108a6 6 0 0 1-6 6H74.03a6 6 0 0 1-6-6z" stroke="#000" stroke-width="2" fill="none"/><use xlink:href="#e" transform="matrix(1,0,0,1,76.030808377232,-208.30603175672485) translate(0 23.08376736111111)"/><path d="M88.28-417.5v-.2a19.75 19.75 0 0 1 19.75-19.75 19.75 19.75 0 0 1 19.75 19.75 19.75 19.75 0 0 1-19.75 19.75 19.75 19.75 0 0 1-19.75-19.75v-.2" stroke="#000" stroke-width="2" fill="#fff"/><path d="M68.03-431.45a6 6 0 0 1 6-6h68a6 6 0 0 1 6 6v146a6 6 0 0 1-6 6h-68a6 6 0 0 1-6-6z" fill="none"/><path d="M108.03-397.95v55.3l40 63.2m-40-63.2l-40 63.2m0-98.75h80" stroke="#000" stroke-width="2" fill="none"/><use xlink:href="#f" transform="matrix(1,0,0,1,-11.969191622767994,-279.4519887162475) translate(88.24544270833334 21.52777777777778)"/><path d="M107.62-339.64v10m0 10v19.98m0 10v20m0 9.98v20m0 9.98v20m0 10v19.97m0 10v20m0 9.98v20m0 10v19.97m0 10v20m0 9.98v20m0 10V.17m0 10v19.98m0 10v19.98m0 10v20m0 9.98v20m0 9.98v20m0 10v19.98m0 10v19.98m0 10v19.98m0 10v20m0 9.98v20m0 9.98v20m0 10v19.98m0 10v19.98m0 10v19.98m0 10v20m0 9.98v20m0 9.98v20m0 10v19.98m0 10v19.98m0 10v19.98m0 10v20m0 9.98v20m0 9.98v20m0 10v19.98m0 10v19.98m0 10v19.98m0 10v20m0 9.98v20m0 9.98v20m0 10v19.98m0 10v19.98m0 10v19.98m0 10v20m0 9.98v20m0 9.98v20m0 10v19.98m0 10v19.98m0 10v19.98m0 10v20m0 9.98v20m0 10v9.98M107.62 1219.5v.5" stroke="#3a414a" fill="none"/><path d="M444.02-432.9a6 6 0 0 1 6-6h148a6 6 0 0 1 6 6v108a6 6 0 0 1-6 6h-148a6 6 0 0 1-6-6z" stroke="#000" stroke-width="2" fill="#fff"/><use xlink:href="#g" transform="matrix(1,0,0,1,444.02017081633454,-438.8974253008934) translate(37.82835069444444 66.52777777777777)"/><path d="M524.02-317.4v10.06m0 10.05v20.13m0 10.05V-247m0 10.05v20.1m0 10.07v20.1m0 10.07v20.1m0 10.06v20.1m0 10.06v20.12m0 10.05V-66m0 10.06v20.1m0 10.07v20.1m0 10.07v20.1m0 10.07v20.1m0 10.07v20.1m0 10.06v20.12m0 10.05v20.12m0 10.04v20.1m0 10.07v20.12m0 10.06v20.1m0 10.07v20.1m0 10.06v20.13m0 10.05v20.12m0 10.05v20.1m0 10.07v20.1m0 10.07v20.1m0 10.06v20.1m0 10.07v20.1m0 10.06v20.1m0 10.06v20.12m0 10.05v20.1m0 10.07v20.1m0 10.07v20.1m0 10.07v20.1m0 10.07v20.12m0 10.05v20.12m0 10.04v20.1m0 10.07v20.12m0 10.06v20.1m0 10.07v20.1m0 10.07v20.1m0 10.06v20.12m0 10.05v20.1m0 10.07v20.1m0 10.07v20.1m0 10.06v20.1m0 10.07v20.1m0 10.06v20.1m0 10.06v20.12m0 10.05v20.1m0 10.07v20.1m0 10.07v20.1m0 10.07v20.1m0 10.07v10.06a1.26 1.26 0 0 0 1.26 1.26" stroke="#3a414a" fill="none"/><path d="M524.5-317.4h-.96v-.5h.96z" stroke="#3a414a" stroke-width=".05" fill="#3a414a"/><path d="M525.26 1252.62h.52" stroke="#3a414a" fill="none"/><path d="M85.78 26a6 6 0 0 1 6-6h28a6 6 0 0 1 6 6v142.33a6 6 0 0 1-6 6h-28a6 6 0 0 1-6-6zM500 26a6 6 0 0 1 6-6h28a6 6 0 0 1 6 6v148a6 6 0 0 1-6 6h-28a6 6 0 0 1-6-6z" stroke="#000" stroke-width="2" fill="#fff"/><path d="M145.78-161.38a6 6 0 0 1 6-6H554a6 6 0 0 1 6 6v67.07a6 6 0 0 1-6 6H151.78a6 6 0 0 1-6-6z" fill="none"/><use xlink:href="#h" transform="matrix(1,0,0,1,150.77777777777766,-162.38134461708586) translate(0 43.083767361111114)"/><use xlink:href="#i" transform="matrix(1,0,0,1,150.77777777777766,-162.38134461708586) translate(165.9702492404514 43.083767361111114)"/><use xlink:href="#j" transform="matrix(1,0,0,1,150.77777777777766,-162.38134461708586) translate(189.4025941623264 43.083767361111114)"/><use xlink:href="#k" transform="matrix(1,0,0,1,150.77777777777766,-162.38134461708586) translate(235.5988797092014 43.083767361111114)"/><path d="M127.28 80h355.34" stroke="#3a414a" fill="none"/><path d="M127.3 80.48h-.52v-.95h.5z" stroke="#3a414a" stroke-width=".05" fill="#3a414a"/><path d="M497.38 80l-14.26 4.64v-9.27z" stroke="#3a414a" fill="#3a414a"/><use xlink:href="#l" transform="matrix(1,0,0,1,213.84200110931477,50.1976654889738) translate(0 20.666666666666668)"/><path d="M85.78 366a6 6 0 0 1 6-6h28a6 6 0 0 1 6 6v140.62a6 6 0 0 1-6 6h-28a6 6 0 0 1-6-6zM505.78 366a6 6 0 0 1 6-6h28a6 6 0 0 1 6 6v140.62a6 6 0 0 1-6 6h-28a6 6 0 0 1-6-6z" stroke="#000" stroke-width="2" fill="#fff"/><path d="M127.28 406.72h361.1" stroke="#3a414a" fill="none"/><path d="M127.3 407.2h-.52v-.95h.5z" stroke="#3a414a" stroke-width=".05" fill="#3a414a"/><path d="M503.16 406.72l-14.27 4.64v-9.27z" stroke="#3a414a" fill="#3a414a"/><use xlink:href="#m" transform="matrix(1,0,0,1,237.28296506959106,376.90852522556446) translate(0 20.666666666666668)"/><path d="M498.5 146.57h-2.02m-4.03 0h-4.04m-4.02 0h-4.04m-4.03 0h-4.03m-4.03 0h-4.04m-4.03 0h-4.04m-4.03 0h-4.04m-4.03 0H440m-4.04 0h-4.04m-4.03 0h-4.05m-4.03 0h-4.04m-4.03 0h-4.04m-4.02 0h-4.04m-4.03 0h-4.03m-4.03 0h-4.04m-4.03 0h-4.04m-4.03 0h-4.04m-4.03 0h-4.04m-4.04 0h-4.04m-4.03 0h-4.05m-4.03 0h-4.04m-4.03 0H327m-4.02 0h-4.04m-4.03 0h-4.02m-4 0h-4.03m-4 0h-4.03m-4 0h-4.03m-4.03 0h-4m-4.02 0h-4.02m-4.02 0h-4m-4.02 0h-4m-4.03 0h-4m-4.03 0h-4m-4.03 0h-4.02m-4.02 0h-4m-4.03 0h-4m-4.03 0h-4m-4.03 0h-4m-4.03 0h-4m-4.03 0h-4m-4.02 0h-4m-4.03 0h-4m-4.03 0h-4m-4.03 0h-4.03m-4 0h-4.03m-4 0h-2.02" stroke="#3a414a" fill="none"/><path d="M499 147.04h-.5v-.95h.5z" stroke="#3a414a" stroke-width=".05" fill="#3a414a"/><path d="M145.1 156.57l-17.32-10 17.32-10m-17.32 10h8.5" stroke="#3a414a" fill="none"/><use xlink:href="#n" transform="matrix(1,0,0,1,190.72746364395346,116.75619357473647) translate(0 20.666666666666668)"/><path d="M504.28 490.3h-1.97m-3.9 0h-3.94m-3.93 0h-3.92m-3.92 0h-3.93m-3.93 0h-3.92m-3.93 0h-3.93m-3.92 0h-3.93m-3.94 0h-3.93m-3.92 0h-3.92m-3.93 0h-3.92m-3.93 0h-3.93m-3.92 0h-3.93m-3.93 0h-3.94m-3.92 0h-3.93m-3.92 0h-3.92m-3.93 0h-3.93m-3.93 0h-3.92m-3.93 0h-3.93m-3.93 0h-3.93m-3.93 0h-3.92m-3.92 0h-3.93m-3.93 0h-3.92m-3.93 0h-3.93m-3.92 0h-3.93m-3.93 0h-4m-4.08 0h-4.08m-4.08 0h-4.1m-4.07 0h-4.08m-4.08 0h-4.08m-4.1 0h-4.07m-4.08 0h-4.08m-4.08 0h-4.1m-4.08 0h-4.08m-4.08 0h-4.08m-4.08 0h-4.08m-4.08 0h-4.08m-4.08 0h-4.08m-4.08 0h-4.08m-4.08 0h-4.1m-4.07 0h-4.1m-4.07 0h-4.08m-4.08 0H175m-4.1 0h-4.07m-4.08 0h-4.08m-4.08 0h-4.1m-4.08 0h-4.08m-4.08 0h-2.04" stroke="#3a414a" fill="none"/><path d="M504.78 490.78h-.5v-.95h.5z" stroke="#3a414a" stroke-width=".05" fill="#3a414a"/><path d="M145.1 500.3l-17.32-10 17.32-10m-17.32 10h8.5" stroke="#3a414a" fill="none"/><use xlink:href="#o" transform="matrix(1,0,0,1,196.3298991933695,460.49451256193254) translate(0 20.666666666666668)"/><path d="M502.9 674.42a6 6 0 0 1 6-6h28a6 6 0 0 1 6 6V814a6 6 0 0 1-6 6h-28a6 6 0 0 1-6-6zM84.69 674.42a6 6 0 0 1 5.98-6h28a6 6 0 0 1 6 6V814a6 6 0 0 1-6 6h-28a6 6 0 0 1-6-6z" stroke="#000" stroke-width="2" fill="#fff"/><path d="M126.19 698.08h359.3" stroke="#3a414a" fill="none"/><path d="M126.2 698.55h-.52v-.95h.52z" stroke="#3a414a" stroke-width=".05" fill="#3a414a"/><path d="M500.28 698.08L486 702.7v-9.26z" stroke="#3a414a" fill="#3a414a"/><use xlink:href="#p" transform="matrix(1,0,0,1,233.76362800006382,668.2658204060142) translate(0 20.666666666666668)"/><path d="M501.4 783.03h-2m-3.98 0h-3.98m-3.98 0h-3.98m-3.98 0h-3.98m-3.98 0h-4m-3.97 0h-3.98m-4 0h-3.97m-3.98 0h-3.98m-3.98 0h-4m-3.97 0h-4m-3.97 0h-3.98m-3.98 0h-3.98m-3.98 0h-3.98m-4 0h-3.97m-4 0h-3.97m-3.98 0h-3.98m-3.98 0h-4m-3.97 0h-3.98m-4 0h-3.97m-3.98 0h-3.98m-3.98 0h-3.98m-3.98 0h-3.98m-4 0h-3.97m-3.98 0h-3.98m-3.98 0h-4m-3.97 0h-3.98m-4 0h-3.97m-3.98 0h-3.98m-3.98 0h-3.98m-3.98 0h-3.98m-3.98 0h-3.98m-4 0h-3.97m-3.98 0h-4m-3.97 0h-3.98m-3.98 0h-3.98m-4 0h-3.98m-3.98 0h-3.98m-3.98 0h-3.98m-3.98 0h-3.98m-4 0h-3.97m-3.98 0h-4m-3.97 0h-3.98m-3.98 0H165m-4 0h-3.98m-3.98 0h-3.98m-3.98 0h-3.98m-3.98 0h-2" stroke="#3a414a" fill="none"/><path d="M501.9 783.5h-.52v-.94h.5z" stroke="#3a414a" stroke-width=".05" fill="#3a414a"/><path d="M144 793.03l-17.3-10 17.3-10m-17.3 10h8.48" stroke="#3a414a" fill="none"/><use xlink:href="#q" transform="matrix(1,0,0,1,207.11790870262286,753.2183803786436) translate(0 20.666666666666668)"/><path d="M506.43 946a6 6 0 0 1 6-6h28a6 6 0 0 1 6 6v48a6 6 0 0 1-6 6h-28a6 6 0 0 1-6-6zM85.78 946a6 6 0 0 1 6-6h28a6 6 0 0 1 6 6v48a6 6 0 0 1-6 6h-28a6 6 0 0 1-6-6z" stroke="#000" stroke-width="2" fill="#fff"/><path d="M504.93 972.22h-1.97m-3.94 0h-3.93m-3.94 0h-3.94m-3.93 0h-3.94m-3.94 0h-3.93m-3.95 0h-3.93m-3.93 0h-3.95m-3.93 0h-3.94m-3.93 0h-3.93m-3.94 0h-3.93m-3.94 0h-3.92m-3.93 0h-3.94m-3.92 0h-3.93m-3.94 0h-3.92m-3.94 0h-3.93m-3.92 0h-3.94m-3.93 0h-3.92m-3.94 0h-3.93m-3.93 0h-3.93m-3.93 0h-3.93m-3.93 0h-3.94m-3.93 0h-3.93m-3.94 0h-3.93m-3.93 0H322m-3.93 0h-4.01m-4.1 0h-4.08m-4.1 0h-4.08m-4.08 0h-4.1m-4.08 0h-4.1m-4.08 0h-4.08m-4.1 0H265m-4.1 0h-4.08m-4.08 0h-4.1m-4.08 0h-4.1m-4.08 0h-4.1m-4.07 0h-4.08m-4.1 0h-4.08m-4.1 0h-4.08m-4.08 0h-4.1m-4.08 0h-4.1m-4.08 0h-4.08m-4.1 0h-4.08m-4.1 0h-4.08m-4.1 0h-4.07m-4.08 0h-4.1m-4.08 0h-4.1m-4.07 0h-2.05" stroke="#3a414a" fill="none"/><path d="M505.43 972.7h-.52v-.96h.53z" stroke="#3a414a" stroke-width=".05" fill="#3a414a"/><path d="M145.1 982.22l-17.32-10 17.32-10m-17.32 10h8.5" stroke="#3a414a" fill="none"/><g><use xlink:href="#r" transform="matrix(1,0,0,1,207.1793711316394,942.4052007848608) translate(0 20.666666666666668)"/></g><defs><path d="M471 26C259 26 90-98 90-318c0-256 228-303 435-329 202-27 287-16 287-108 0-139-79-219-234-219-161 0-248 86-283 164l-173-57c86-203 278-265 451-265 150 0 419 46 419 395V0H815v-152h-12C765-73 660 26 471 26zm31-159c199 0 310-134 310-271v-155c-30 35-226 55-295 64-131 17-246 59-246 186 0 116 97 176 231 176" id="s"/><path d="M338-1490V0H158v-1490h180" id="t"/><path d="M598-1118v154H368v674c0 100 37 144 132 144 23 0 62-6 92-12L629-6c-37 13-88 20-134 20-193 0-307-107-307-290v-688H20v-154h168v-266h180v266h230" id="u"/><g id="a"><use transform="matrix(0.010850694444444442,0,0,0.010850694444444442,0,0)" xlink:href="#s"/><use transform="matrix(0.010850694444444442,0,0,0.010850694444444442,12.478298611111109,0)" xlink:href="#t"/><use transform="matrix(0.010850694444444442,0,0,0.010850694444444442,18.185763888888886,0)" xlink:href="#u"/></g><path d="M226 279v-1860h398v153H398V126h226v153H226" id="v"/><use transform="matrix(0.010416666666666668,0,0,0.010416666666666668,0,0)" xlink:href="#v" id="b"/><path d="M783 20c-382 0-661-292-661-764 0-473 279-766 661-766 302 0 548 182 601 489h-190c-42-204-217-313-411-313-268 0-476 208-476 590 0 381 209 588 476 588 195 0 369-110 411-313h190c-52 303-296 489-601 489" id="w"/><path d="M123 279V126h226v-1554H123v-153h398V279H123" id="x"/><g id="c"><use transform="matrix(0.010416666666666668,0,0,0.010416666666666668,0,0)" xlink:href="#w"/><use transform="matrix(0.010416666666666668,0,0,0.010416666666666668,15.583333333333336,0)" xlink:href="#s"/><use transform="matrix(0.010416666666666668,0,0,0.010416666666666668,27.562500000000004,0)" xlink:href="#t"/><use transform="matrix(0.010416666666666668,0,0,0.010416666666666668,32.72916666666667,0)" xlink:href="#t"/><use transform="matrix(0.010416666666666668,0,0,0.010416666666666668,37.895833333333336,0)" xlink:href="#x"/></g><path d="M98-1322v-168h1126v168H757V0H567v-1322H98" id="y"/><path d="M628 24c-324 0-524-230-524-574 0-343 198-582 503-582 237 0 487 146 487 559v75H286c9 234 145 362 343 362 132 0 231-58 273-172l174 48C1024-91 857 24 628 24zM287-650h624c-17-190-120-322-304-322-192 0-309 151-320 322" id="z"/><path d="M65 0l393-574-370-544h210c88 136 192 297 267 435 67-142 176-302 264-435h206L661-564 1053 0H844c-94-144-206-310-287-458C484-308 366-142 273 0H65" id="A"/><g id="d"><use transform="matrix(0.010850694444444442,0,0,0.010850694444444442,0,0)" xlink:href="#v"/><use transform="matrix(0.010850694444444442,0,0,0.010850694444444442,8.105468749999998,0)" xlink:href="#y"/><use transform="matrix(0.010850694444444442,0,0,0.010850694444444442,20.713975694444443,0)" xlink:href="#z"/><use transform="matrix(0.010850694444444442,0,0,0.010850694444444442,33.170572916666664,0)" xlink:href="#A"/><use transform="matrix(0.010850694444444442,0,0,0.010850694444444442,45.73567708333332,0)" xlink:href="#u"/><use transform="matrix(0.010850694444444442,0,0,0.010850694444444442,53.00564236111111,0)" xlink:href="#x"/></g><path d="M180 0v-1490h510c348 0 508 194 508 460 0 198-88 351-276 417L1256 0h-220L726-579c-117 2-238 0-356 1V0H180zm190-747h312c235 0 327-108 327-283 0-177-92-293-329-293H370v576" id="B"/><path d="M678-1118v154H420V0H240v-964H20v-154h220v-149c0-194 155-293 318-293 85 0 141 18 168 30l-50 154c-19-6-47-17-97-17-111 0-159 58-159 166v109h258" id="C"/><g id="e"><use transform="matrix(0.010850694444444444,0,0,0.010850694444444444,0,0)" xlink:href="#B"/><use transform="matrix(0.010850694444444444,0,0,0.010850694444444444,13.975694444444445,0)" xlink:href="#z"/><use transform="matrix(0.010850694444444444,0,0,0.010850694444444444,26.931423611111104,0)" xlink:href="#C"/></g><path d="M645 0H180v-1490h484c435 0 692 280 692 742 0 466-257 748-711 748zM370-168h263c363 0 539-218 539-580 0-358-176-574-521-574H370v1154" id="D"/><path d="M158 0v-1118h174v172h12c41-113 157-188 290-188 26 0 70 2 91 3v181c-11-2-60-10-108-10-161 0-279 109-279 260V0H158" id="E"/><path d="M158 0v-1118h180V0H158zm91-1301c-68 0-125-53-125-119s57-119 125-119c69 0 126 53 126 119s-57 119-126 119" id="F"/><path d="M481 0L54-1118h197c107 314 236 620 325 951 87-331 217-637 324-951h197L670 0H481" id="G"/><g id="f"><use transform="matrix(0.010850694444444444,0,0,0.010850694444444444,0,0)" xlink:href="#D"/><use transform="matrix(0.010850694444444444,0,0,0.010850694444444444,16.03732638888889,0)" xlink:href="#E"/><use transform="matrix(0.010850694444444444,0,0,0.010850694444444444,24.75043402777778,0)" xlink:href="#F"/><use transform="matrix(0.010850694444444444,0,0,0.010850694444444444,30.13237847222222,0)" xlink:href="#G"/><use transform="matrix(0.010850694444444444,0,0,0.010850694444444444,42.1875,0)" xlink:href="#z"/><use transform="matrix(0.010850694444444444,0,0,0.010850694444444444,55.143229166666664,0)" xlink:href="#E"/></g><path d="M295 13c-75 0-135-60-135-135s60-135 135-135 135 60 135 135S370 13 295 13zm0-809c-75 0-135-60-135-135s60-135 135-135 135 60 135 135-60 135-135 135" id="H"/><path d="M657 26c-323 0-524-166-541-416h195c15 169 171 246 346 246 202 0 356-106 356-265 5-203-294-238-475-293-239-73-380-191-380-389 0-252 224-419 512-419 294 0 499 171 508 396H992c-17-145-151-228-328-228-193 0-321 102-321 242 0 156 175 211 284 241l149 41c160 44 422 134 422 412 0 244-197 432-541 432" id="I"/><path d="M140 405l46-156c120 36 205 19 263-150l32-93L54-1118h197c107 313 237 620 324 950 87-331 219-637 326-950h196L606 167c-68 178-176 259-334 259-64 0-113-12-132-21" id="J"/><path d="M538 24C308 24 148-78 108-271l171-41c32 123 123 178 257 178 156 0 256-77 256-169 0-77-54-128-164-154l-186-44c-203-48-300-148-300-305 0-192 176-326 414-326 230 0 351 112 402 269l-163 42c-31-80-94-158-238-158-133 0-233 69-233 162 0 83 57 129 188 160l169 40c203 48 298 149 298 302 0 196-179 339-441 339" id="K"/><path d="M158 0v-1118h175l1 205c55-151 181-225 313-225 147 0 245 90 285 228 53-141 190-228 352-228 194 0 352 125 352 384V0h-181v-749c0-161-105-225-225-225-151 0-243 103-243 244V0H807v-767c0-124-93-207-219-207-131 0-250 92-250 270V0H158" id="L"/><g id="g"><use transform="matrix(0.010850694444444444,0,0,0.010850694444444444,0,0)" xlink:href="#H"/><use transform="matrix(0.010850694444444444,0,0,0.010850694444444444,6.401909722222222,0)" xlink:href="#I"/><use transform="matrix(0.010850694444444444,0,0,0.010850694444444444,20.65972222222222,0)" xlink:href="#J"/><use transform="matrix(0.010850694444444444,0,0,0.010850694444444444,33.14887152777778,0)" xlink:href="#K"/><use transform="matrix(0.010850694444444444,0,0,0.010850694444444444,44.87847222222222,0)" xlink:href="#u"/><use transform="matrix(0.010850694444444444,0,0,0.010850694444444444,51.93142361111112,0)" xlink:href="#z"/><use transform="matrix(0.010850694444444444,0,0,0.010850694444444444,64.88715277777779,0)" xlink:href="#L"/><path d="M-1.1 4.54h86.57v1.52H-1.1z"/></g><path d="M763 24c-353 0-583-224-583-531v-983h190v968c0 214 149 370 393 370 243 0 391-156 391-370v-968h190v983c0 307-230 531-581 531" id="M"/><path d="M646 20c-332 0-524-278-524-764 0-483 194-766 524-766s524 283 524 766c0 485-191 764-524 764zm0-166c218 0 341-220 341-598 0-380-123-601-341-601s-341 222-341 601c0 378 123 598 341 598" id="N"/><path d="M653-1490V0H466v-1314h-10L96-1047v-204l324-239h233" id="O"/><path d="M218-607c0-325 108-727 258-974h175c-155 315-250 682-250 974 0 265 78 531 250 886H476C306-10 218-315 218-607" id="P"/><path d="M158 418v-1536h174v179h20c37-59 106-193 324-193 279 0 474 222 474 576 0 356-194 580-473 580-213 0-288-135-325-197h-14v591H158zm492-555c209 0 317-186 317-421 0-232-105-413-317-413-206 0-314 166-314 413 0 249 111 421 314 421" id="Q"/><path d="M613 24c-304 0-509-231-509-576 0-350 205-580 509-580 305 0 511 230 511 580 0 345-206 576-511 576zm0-161c226 0 329-195 329-415 0-222-103-419-329-419-223 0-326 196-326 419 0 220 103 415 326 415" id="R"/><path d="M338-670V0H158v-1118h173l1 207c72-158 192-221 342-221 226 0 378 139 378 422V0H872v-695c0-172-96-275-252-275-161 0-282 109-282 300" id="S"/><path d="M577 24c-279 0-473-224-473-580 0-354 195-576 474-576 218 0 287 134 324 193h14v-551h180V0H922v-173h-20C865-111 790 24 577 24zm27-161c203 0 314-172 314-421 0-247-108-413-314-413-212 0-317 181-317 413 0 235 108 421 317 421" id="T"/><g id="h"><use transform="matrix(0.010850694444444444,0,0,0.010850694444444444,0,0)" xlink:href="#M"/><use transform="matrix(0.010850694444444444,0,0,0.010850694444444444,16.536458333333332,0)" xlink:href="#w"/><use transform="matrix(0.010850694444444444,0,0,0.010850694444444444,32.76909722222222,0)" xlink:href="#N"/><use transform="matrix(0.010850694444444444,0,0,0.010850694444444444,46.78819444444444,0)" xlink:href="#O"/><use transform="matrix(0.010850694444444444,0,0,0.010850694444444444,55.826822916666664,0)" xlink:href="#O"/><use transform="matrix(0.010850694444444444,0,0,0.010850694444444444,71.11545138888889,0)" xlink:href="#P"/><use transform="matrix(0.009548632812500001,0,0,0.009548632812500001,79.22092013888889,0)" xlink:href="#B"/><use transform="matrix(0.009548632812500001,0,0,0.009548632812500001,91.51955920138889,0)" xlink:href="#z"/><use transform="matrix(0.009548632812500001,0,0,0.009548632812500001,102.92062677951388,0)" xlink:href="#K"/><use transform="matrix(0.009548632812500001,0,0,0.009548632812500001,113.24269884982638,0)" xlink:href="#Q"/><use transform="matrix(0.009548632812500001,0,0,0.009548632812500001,125.2166843967014,0)" xlink:href="#R"/><use transform="matrix(0.009548632812500001,0,0,0.009548632812500001,136.9424054904514,0)" xlink:href="#S"/><use transform="matrix(0.009548632812500001,0,0,0.009548632812500001,148.4962511935764,0)" xlink:href="#T"/></g><g id="i"><use transform="matrix(0.009548632812500001,0,0,0.009548632812500001,0,0)" xlink:href="#u"/><use transform="matrix(0.009548632812500001,0,0,0.009548632812500001,6.206611328125001,0)" xlink:href="#R"/></g><g id="j"><use transform="matrix(0.009548632812500001,0,0,0.009548632812500001,0,0)" xlink:href="#B"/><use transform="matrix(0.009548632812500001,0,0,0.009548632812500001,12.585098046875002,0)" xlink:href="#F"/><use transform="matrix(0.009548632812500001,0,0,0.009548632812500001,17.321219921875002,0)" xlink:href="#T"/><use transform="matrix(0.009548632812500001,0,0,0.009548632812500001,29.29520546875001,0)" xlink:href="#z"/></g><path d="M1096 418H916v-591h-14C865-111 790 24 577 24c-279 0-473-224-473-580 0-354 195-576 474-576 218 0 287 134 324 193h20v-179h174V418zM604-137c203 0 314-172 314-421 0-247-108-413-314-413-212 0-317 181-317 413 0 235 108 421 317 421" id="U"/><path d="M537 14c-226 0-379-139-379-422v-710h180v695c0 172 97 275 253 275 160 0 281-109 281-300v-670h181V0H879v-209C806-46 684 14 537 14" id="V"/><path d="M96 279C273-86 346-350 346-607c0-292-95-659-250-974h175c150 246 258 650 258 974 0 297-91 602-258 886H96" id="W"/><g id="k"><use transform="matrix(0.009548632812500001,0,0,0.009548632812500001,0,0)" xlink:href="#B"/><use transform="matrix(0.009548632812500001,0,0,0.009548632812500001,12.298639062500001,0)" xlink:href="#z"/><use transform="matrix(0.009548632812500001,0,0,0.009548632812500001,23.699706640625003,0)" xlink:href="#U"/><use transform="matrix(0.009548632812500001,0,0,0.009548632812500001,35.6736921875,0)" xlink:href="#V"/><use transform="matrix(0.009548632812500001,0,0,0.009548632812500001,47.237086523437505,0)" xlink:href="#z"/><use transform="matrix(0.009548632812500001,0,0,0.009548632812500001,58.638154101562506,0)" xlink:href="#K"/><use transform="matrix(0.009548632812500001,0,0,0.009548632812500001,68.96022617187501,0)" xlink:href="#u"/><use transform="matrix(0.010850694444444444,0,0,0.010850694444444444,75.35781015625001,0)" xlink:href="#W"/></g><path d="M613 24c-304 0-509-231-509-576 0-350 205-580 509-580 216 0 392 114 453 309l-173 49c-33-115-133-197-280-197-223 0-326 196-326 419 0 220 103 415 326 415 150 0 252-85 285-206l172 49C1010-95 832 24 613 24" id="X"/><path d="M180 0v-1490h510c348 0 508 209 508 474 0 266-160 477-507 477H370V0H180zm190-706h312c236 0 327-133 327-310 0-176-91-307-329-307H370v617" id="Y"/><path d="M611 442c-248 0-391-105-460-228l146-94c47 65 117 165 314 165 178 0 307-82 307-266v-224h-17C863-141 792-18 576-18c-268 0-472-195-472-546 0-346 197-568 476-568 216 0 288 133 326 193h17v-179h175V29c0 289-215 413-487 413zm-5-620c203 0 314-146 314-390 0-237-108-403-314-403-213 0-319 180-319 403 0 230 109 390 319 390" id="Z"/><g id="l"><use transform="matrix(0.010416666666666668,0,0,0.010416666666666668,0,0)" xlink:href="#X"/><use transform="matrix(0.010416666666666668,0,0,0.010416666666666668,12.187500000000002,0)" xlink:href="#R"/><use transform="matrix(0.010416666666666668,0,0,0.010416666666666668,24.979166666666668,0)" xlink:href="#S"/><use transform="matrix(0.010416666666666668,0,0,0.010416666666666668,37.58333333333334,0)" xlink:href="#u"/><use transform="matrix(0.010416666666666668,0,0,0.010416666666666668,44.66666666666667,0)" xlink:href="#s"/><use transform="matrix(0.010416666666666668,0,0,0.010416666666666668,56.64583333333334,0)" xlink:href="#X"/><use transform="matrix(0.010416666666666668,0,0,0.010416666666666668,68.83333333333334,0)" xlink:href="#u"/><use transform="matrix(0.010416666666666668,0,0,0.010416666666666668,75.81250000000001,0)" xlink:href="#Y"/><use transform="matrix(0.010416666666666668,0,0,0.010416666666666668,89.43750000000001,0)" xlink:href="#s"/><use transform="matrix(0.010416666666666668,0,0,0.010416666666666668,101.41666666666667,0)" xlink:href="#K"/><use transform="matrix(0.010416666666666668,0,0,0.010416666666666668,112.67708333333337,0)" xlink:href="#K"/><use transform="matrix(0.010416666666666668,0,0,0.010416666666666668,123.93750000000003,0)" xlink:href="#z"/><use transform="matrix(0.010416666666666668,0,0,0.010416666666666668,136.37500000000003,0)" xlink:href="#S"/><use transform="matrix(0.010416666666666668,0,0,0.010416666666666668,148.97916666666669,0)" xlink:href="#Z"/><use transform="matrix(0.010416666666666668,0,0,0.010416666666666668,162.06250000000003,0)" xlink:href="#z"/><use transform="matrix(0.010416666666666668,0,0,0.010416666666666668,174.50000000000003,0)" xlink:href="#E"/><use transform="matrix(0.010416666666666668,0,0,0.010416666666666668,182.53125000000003,0)" xlink:href="#P"/><use transform="matrix(0.010416666666666668,0,0,0.010416666666666668,190.31250000000003,0)" xlink:href="#W"/></g><g id="m"><use transform="matrix(0.010416666666666668,0,0,0.010416666666666668,0,0)" xlink:href="#X"/><use transform="matrix(0.010416666666666668,0,0,0.010416666666666668,12.395833333333334,0)" xlink:href="#s"/><use transform="matrix(0.010416666666666668,0,0,0.010416666666666668,24.375000000000004,0)" xlink:href="#t"/><use transform="matrix(0.010416666666666668,0,0,0.010416666666666668,29.54166666666667,0)" xlink:href="#t"/><use transform="matrix(0.010416666666666668,0,0,0.010416666666666668,34.708333333333336,0)" xlink:href="#Y"/><use transform="matrix(0.010416666666666668,0,0,0.010416666666666668,48.333333333333336,0)" xlink:href="#s"/><use transform="matrix(0.010416666666666668,0,0,0.010416666666666668,60.3125,0)" xlink:href="#K"/><use transform="matrix(0.010416666666666668,0,0,0.010416666666666668,71.57291666666667,0)" xlink:href="#K"/><use transform="matrix(0.010416666666666668,0,0,0.010416666666666668,82.83333333333334,0)" xlink:href="#z"/><use transform="matrix(0.010416666666666668,0,0,0.010416666666666668,95.27083333333334,0)" xlink:href="#S"/><use transform="matrix(0.010416666666666668,0,0,0.010416666666666668,107.87500000000001,0)" xlink:href="#Z"/><use transform="matrix(0.010416666666666668,0,0,0.010416666666666668,120.95833333333334,0)" xlink:href="#z"/><use transform="matrix(0.010416666666666668,0,0,0.010416666666666668,133.39583333333334,0)" xlink:href="#E"/><use transform="matrix(0.010416666666666668,0,0,0.010416666666666668,141.42708333333334,0)" xlink:href="#P"/><use transform="matrix(0.010416666666666668,0,0,0.010416666666666668,149.20833333333334,0)" xlink:href="#W"/></g><path d="M784 20c-382 0-662-292-662-764 0-473 280-766 662-766s660 293 660 766c0 472-278 764-660 764zm0-176c266 0 475-207 475-588 0-383-209-590-475-590-268 0-477 208-477 590 0 380 209 588 477 588" id="aa"/><g id="n"><use transform="matrix(0.010416666666666668,0,0,0.010416666666666668,0,0)" xlink:href="#T"/><use transform="matrix(0.010416666666666668,0,0,0.010416666666666668,13.062500000000002,0)" xlink:href="#F"/><use transform="matrix(0.010416666666666668,0,0,0.010416666666666668,18.229166666666668,0)" xlink:href="#K"/><use transform="matrix(0.010416666666666668,0,0,0.010416666666666668,29.489583333333336,0)" xlink:href="#Q"/><use transform="matrix(0.010416666666666668,0,0,0.010416666666666668,42.552083333333336,0)" xlink:href="#t"/><use transform="matrix(0.010416666666666668,0,0,0.010416666666666668,47.71874999999999,0)" xlink:href="#s"/><use transform="matrix(0.010416666666666668,0,0,0.010416666666666668,59.38541666666667,0)" xlink:href="#J"/><use transform="matrix(0.010416666666666668,0,0,0.010416666666666668,71.375,0)" xlink:href="#w"/><use transform="matrix(0.010416666666666668,0,0,0.010416666666666668,86.95833333333334,0)" xlink:href="#R"/><use transform="matrix(0.010416666666666668,0,0,0.010416666666666668,99.75000000000001,0)" xlink:href="#S"/><use transform="matrix(0.010416666666666668,0,0,0.010416666666666668,112.35416666666669,0)" xlink:href="#u"/><use transform="matrix(0.010416666666666668,0,0,0.010416666666666668,119.43750000000003,0)" xlink:href="#s"/><use transform="matrix(0.010416666666666668,0,0,0.010416666666666668,131.41666666666669,0)" xlink:href="#X"/><use transform="matrix(0.010416666666666668,0,0,0.010416666666666668,143.60416666666669,0)" xlink:href="#u"/><use transform="matrix(0.010416666666666668,0,0,0.010416666666666668,150.58333333333334,0)" xlink:href="#aa"/><use transform="matrix(0.010416666666666668,0,0,0.010416666666666668,166.89583333333334,0)" xlink:href="#Q"/><use transform="matrix(0.010416666666666668,0,0,0.010416666666666668,179.95833333333334,0)" xlink:href="#u"/><use transform="matrix(0.010416666666666668,0,0,0.010416666666666668,186.93749999999997,0)" xlink:href="#F"/><use transform="matrix(0.010416666666666668,0,0,0.010416666666666668,192.10416666666666,0)" xlink:href="#R"/><use transform="matrix(0.010416666666666668,0,0,0.010416666666666668,204.89583333333331,0)" xlink:href="#S"/><use transform="matrix(0.010416666666666668,0,0,0.010416666666666668,217.5,0)" xlink:href="#K"/><use transform="matrix(0.010416666666666668,0,0,0.010416666666666668,228.76041666666663,0)" xlink:href="#P"/><use transform="matrix(0.010416666666666668,0,0,0.010416666666666668,236.54166666666663,0)" xlink:href="#W"/></g><path d="M180 0v-1490h224l606 953c40 63 108 177 176 312-27-437-7-821-13-1265h190V0h-226C860-448 622-778 356-1262c27 476 11 792 15 1262H180" id="ab"/><path d="M677 24c-213 0-288-135-325-197h-20V0H158v-1490h180v551h14c37-59 106-193 324-193 279 0 474 222 474 576 0 356-194 580-473 580zm-27-161c209 0 317-186 317-421 0-232-105-413-317-413-206 0-314 166-314 413 0 249 111 421 314 421" id="ac"/><g id="o"><use transform="matrix(0.010416666666666668,0,0,0.010416666666666668,0,0)" xlink:href="#T"/><use transform="matrix(0.010416666666666668,0,0,0.010416666666666668,13.062500000000002,0)" xlink:href="#F"/><use transform="matrix(0.010416666666666668,0,0,0.010416666666666668,18.229166666666668,0)" xlink:href="#s"/><use transform="matrix(0.010416666666666668,0,0,0.010416666666666668,30.208333333333336,0)" xlink:href="#t"/><use transform="matrix(0.010416666666666668,0,0,0.010416666666666668,35.375,0)" xlink:href="#Y"/><use transform="matrix(0.010416666666666668,0,0,0.010416666666666668,48.99999999999999,0)" xlink:href="#s"/><use transform="matrix(0.010416666666666668,0,0,0.010416666666666668,60.97916666666667,0)" xlink:href="#K"/><use transform="matrix(0.010416666666666668,0,0,0.010416666666666668,72.23958333333334,0)" xlink:href="#K"/><use transform="matrix(0.010416666666666668,0,0,0.010416666666666668,83.50000000000001,0)" xlink:href="#z"/><use transform="matrix(0.010416666666666668,0,0,0.010416666666666668,95.93750000000001,0)" xlink:href="#S"/><use transform="matrix(0.010416666666666668,0,0,0.010416666666666668,108.54166666666669,0)" xlink:href="#Z"/><use transform="matrix(0.010416666666666668,0,0,0.010416666666666668,121.62500000000001,0)" xlink:href="#z"/><use transform="matrix(0.010416666666666668,0,0,0.010416666666666668,134.06250000000003,0)" xlink:href="#E"/><use transform="matrix(0.010416666666666668,0,0,0.010416666666666668,142.42708333333337,0)" xlink:href="#ab"/><use transform="matrix(0.010416666666666668,0,0,0.010416666666666668,158.50000000000003,0)" xlink:href="#V"/><use transform="matrix(0.010416666666666668,0,0,0.010416666666666668,171.11458333333334,0)" xlink:href="#L"/><use transform="matrix(0.010416666666666668,0,0,0.010416666666666668,189.80208333333334,0)" xlink:href="#ac"/><use transform="matrix(0.010416666666666668,0,0,0.010416666666666668,202.86458333333334,0)" xlink:href="#z"/><use transform="matrix(0.010416666666666668,0,0,0.010416666666666668,215.30208333333337,0)" xlink:href="#E"/><use transform="matrix(0.010416666666666668,0,0,0.010416666666666668,223.33333333333337,0)" xlink:href="#P"/><use transform="matrix(0.010416666666666668,0,0,0.010416666666666668,231.11458333333337,0)" xlink:href="#W"/></g><g id="p"><use transform="matrix(0.010416666666666668,0,0,0.010416666666666668,0,0)" xlink:href="#u"/><use transform="matrix(0.010416666666666668,0,0,0.010416666666666668,6.770833333333336,0)" xlink:href="#z"/><use transform="matrix(0.010416666666666668,0,0,0.010416666666666668,18.72916666666667,0)" xlink:href="#A"/><use transform="matrix(0.010416666666666668,0,0,0.010416666666666668,30.79166666666667,0)" xlink:href="#u"/><use transform="matrix(0.010416666666666668,0,0,0.010416666666666668,37.77083333333334,0)" xlink:href="#Y"/><use transform="matrix(0.010416666666666668,0,0,0.010416666666666668,51.395833333333336,0)" xlink:href="#s"/><use transform="matrix(0.010416666666666668,0,0,0.010416666666666668,63.375000000000014,0)" xlink:href="#K"/><use transform="matrix(0.010416666666666668,0,0,0.010416666666666668,74.63541666666669,0)" xlink:href="#K"/><use transform="matrix(0.010416666666666668,0,0,0.010416666666666668,85.89583333333336,0)" xlink:href="#z"/><use transform="matrix(0.010416666666666668,0,0,0.010416666666666668,98.33333333333336,0)" xlink:href="#S"/><use transform="matrix(0.010416666666666668,0,0,0.010416666666666668,110.93750000000003,0)" xlink:href="#Z"/><use transform="matrix(0.010416666666666668,0,0,0.010416666666666668,124.02083333333337,0)" xlink:href="#z"/><use transform="matrix(0.010416666666666668,0,0,0.010416666666666668,136.45833333333337,0)" xlink:href="#E"/><use transform="matrix(0.010416666666666668,0,0,0.010416666666666668,144.48958333333337,0)" xlink:href="#P"/><use transform="matrix(0.010416666666666668,0,0,0.010416666666666668,152.27083333333337,0)" xlink:href="#W"/></g><path d="M370-1490V0H180v-1490h190" id="ad"/><g id="q"><use transform="matrix(0.010416666666666668,0,0,0.010416666666666668,0,0)" xlink:href="#F"/><use transform="matrix(0.010416666666666668,0,0,0.010416666666666668,5.166666666666667,0)" xlink:href="#S"/><use transform="matrix(0.010416666666666668,0,0,0.010416666666666668,17.770833333333336,0)" xlink:href="#F"/><use transform="matrix(0.010416666666666668,0,0,0.010416666666666668,22.937500000000004,0)" xlink:href="#u"/><use transform="matrix(0.010416666666666668,0,0,0.010416666666666668,29.91666666666667,0)" xlink:href="#F"/><use transform="matrix(0.010416666666666668,0,0,0.010416666666666668,35.083333333333336,0)" xlink:href="#s"/><use transform="matrix(0.010416666666666668,0,0,0.010416666666666668,47.06249999999999,0)" xlink:href="#u"/><use transform="matrix(0.010416666666666668,0,0,0.010416666666666668,53.83333333333333,0)" xlink:href="#z"/><use transform="matrix(0.010416666666666668,0,0,0.010416666666666668,64.60416666666667,0)" xlink:href="#y"/><use transform="matrix(0.010416666666666668,0,0,0.010416666666666668,76.70833333333334,0)" xlink:href="#z"/><use transform="matrix(0.010416666666666668,0,0,0.010416666666666668,88.66666666666667,0)" xlink:href="#A"/><use transform="matrix(0.010416666666666668,0,0,0.010416666666666668,100.72916666666667,0)" xlink:href="#u"/><use transform="matrix(0.010416666666666668,0,0,0.010416666666666668,107.70833333333334,0)" xlink:href="#ad"/><use transform="matrix(0.010416666666666668,0,0,0.010416666666666668,113.43750000000001,0)" xlink:href="#S"/><use transform="matrix(0.010416666666666668,0,0,0.010416666666666668,126.04166666666669,0)" xlink:href="#u"/><use transform="matrix(0.010416666666666668,0,0,0.010416666666666668,132.81250000000003,0)" xlink:href="#z"/><use transform="matrix(0.010416666666666668,0,0,0.010416666666666668,145.25000000000003,0)" xlink:href="#E"/><use transform="matrix(0.010416666666666668,0,0,0.010416666666666668,153.61458333333337,0)" xlink:href="#C"/><use transform="matrix(0.010416666666666668,0,0,0.010416666666666668,161.17708333333337,0)" xlink:href="#s"/><use transform="matrix(0.010416666666666668,0,0,0.010416666666666668,173.15625000000003,0)" xlink:href="#X"/><use transform="matrix(0.010416666666666668,0,0,0.010416666666666668,185.34375000000003,0)" xlink:href="#z"/><use transform="matrix(0.010416666666666668,0,0,0.010416666666666668,197.78125000000003,0)" xlink:href="#P"/><use transform="matrix(0.010416666666666668,0,0,0.010416666666666668,205.56250000000003,0)" xlink:href="#W"/></g><path d="M180 0v-1490h190v644h782v-644h190V0h-190v-678H370V0H180" id="ae"/><g id="r"><use transform="matrix(0.010416666666666668,0,0,0.010416666666666668,0,0)" xlink:href="#T"/><use transform="matrix(0.010416666666666668,0,0,0.010416666666666668,13.062500000000002,0)" xlink:href="#F"/><use transform="matrix(0.010416666666666668,0,0,0.010416666666666668,18.229166666666668,0)" xlink:href="#K"/><use transform="matrix(0.010416666666666668,0,0,0.010416666666666668,29.489583333333336,0)" xlink:href="#Q"/><use transform="matrix(0.010416666666666668,0,0,0.010416666666666668,42.552083333333336,0)" xlink:href="#t"/><use transform="matrix(0.010416666666666668,0,0,0.010416666666666668,47.71874999999999,0)" xlink:href="#s"/><use transform="matrix(0.010416666666666668,0,0,0.010416666666666668,59.38541666666667,0)" xlink:href="#J"/><use transform="matrix(0.010416666666666668,0,0,0.010416666666666668,71.47916666666667,0)" xlink:href="#ae"/><use transform="matrix(0.010416666666666668,0,0,0.010416666666666668,87.33333333333334,0)" xlink:href="#R"/><use transform="matrix(0.010416666666666668,0,0,0.010416666666666668,100.12500000000001,0)" xlink:href="#L"/><use transform="matrix(0.010416666666666668,0,0,0.010416666666666668,118.81250000000001,0)" xlink:href="#z"/><use transform="matrix(0.010416666666666668,0,0,0.010416666666666668,131.25000000000003,0)" xlink:href="#I"/><use transform="matrix(0.010416666666666668,0,0,0.010416666666666668,144.93750000000003,0)" xlink:href="#X"/><use transform="matrix(0.010416666666666668,0,0,0.010416666666666668,157.12500000000003,0)" xlink:href="#E"/><use transform="matrix(0.010416666666666668,0,0,0.010416666666666668,164.80208333333337,0)" xlink:href="#z"/><use transform="matrix(0.010416666666666668,0,0,0.010416666666666668,177.23958333333334,0)" xlink:href="#z"/><use transform="matrix(0.010416666666666668,0,0,0.010416666666666668,189.67708333333334,0)" xlink:href="#S"/><use transform="matrix(0.010416666666666668,0,0,0.010416666666666668,202.28125000000003,0)" xlink:href="#P"/><use transform="matrix(0.010416666666666668,0,0,0.010416666666666668,210.06250000000003,0)" xlink:href="#W"/></g></defs></g></svg>