<svg xmlns="http://www.w3.org/2000/svg" xmlns:xlink="http://www.w3.org/1999/xlink" xmlns:lucid="lucid" width="1000" height="2000"><g transform="translate(0 500)" lucid:page-tab-id="LGMHFmeSxVK7"><path d="M0-500h1000v2000H0z" fill="#fff"/><path d="M40 246a6 6 0 0 1 6-6h88a6 6 0 0 1 6 6v8a14.48 14.48 0 0 1-4.24 10.24l-1.52 1.52A14.48 14.48 0 0 1 124 270H46a6 6 0 0 1-6-6z" fill="#fff"/><path d="M140 240v20l-10 10H40" stroke="#000" fill="none"/><path d="M40 246a6 6 0 0 1 6-6h768a6 6 0 0 1 6 6v300.62a6 6 0 0 1-6 6H46a6 6 0 0 1-6-6z" stroke="#000" fill="none"/><use xlink:href="#a" transform="matrix(1,0,0,1,48,239.99999999999997) translate(0 23.08376736111111)"/><use xlink:href="#b" transform="matrix(1,0,0,1,52,278) translate(0 23.08376736111111)"/><use xlink:href="#c" transform="matrix(1,0,0,1,52,278) translate(64.05164930555553 23.08376736111111)"/><use xlink:href="#d" transform="matrix(1,0,0,1,52,278) translate(168.72829861111106 23.08376736111111)"/><use xlink:href="#e" transform="matrix(1,0,0,1,52,278) translate(204.24262152777771 23.08376736111111)"/><path d="M40 595.24a6 6 0 0 1 6-6h88a6 6 0 0 1 6 6v8a14.48 14.48 0 0 1-4.24 10.24l-1.52 1.5a14.48 14.48 0 0 1-10.24 4.25H46a6 6 0 0 1-6-6z" fill="#fff"/><path d="M140 589.24v20l-10 10H40" stroke="#000" fill="none"/><path d="M40 595.24a6 6 0 0 1 6-6h768a6 6 0 0 1 6 6v300.6a6 6 0 0 1-6 6H46a6 6 0 0 1-6-6z" stroke="#000" fill="none"/><use xlink:href="#a" transform="matrix(1,0,0,1,48,589.2348017643791) translate(0 23.08376736111111)"/><use xlink:href="#f" transform="matrix(1,0,0,1,52,627.2348017643791) translate(0 23.08376736111111)"/><use xlink:href="#g" transform="matrix(1,0,0,1,52,627.2348017643791) translate(55.94618055555554 23.08376736111111)"/><use xlink:href="#e" transform="matrix(1,0,0,1,52,627.2348017643791) translate(126.50824652777774 23.08376736111111)"/><path d="M223.6-220.05v-.2A19.75 19.75 0 0 1 243.37-240a19.75 19.75 0 0 1 19.75 19.75 19.75 19.75 0 0 1-19.74 19.75 19.75 19.75 0 0 1-19.75-19.75v-.2" stroke="#000" stroke-width="2" fill="#fff"/><path d="M203.36-234a6 6 0 0 1 6-6h68a6 6 0 0 1 6 6v146a6 6 0 0 1-6 6h-68a6 6 0 0 1-6-6z" fill="none"/><path d="M243.36-200.5v55.3l40 63.2m-40-63.2l-40 63.2m0-98.75h80" stroke="#000" stroke-width="2" fill="none"/><use xlink:href="#h" transform="matrix(1,0,0,1,123.3641417105656,-81.99999999999994) translate(95.15190972222223 21.52777777777778)"/><path d="M242.96-142.18v10m0 10.02v20.03m0 10v20.03m0 10.02v20.02m0 10.02v20.02m0 10.02v20.02m0 10v20.04m0 10V78.1m0 10v20.04m0 10v20.03m0 10.02v20m0 10.02v20.03m0 10v20.04m0 10v20.03m0 10v20.03m0 10.02v20.02m0 10.02v20.02m0 10v20.04m0 10v20.04m0 10v20.04m0 10v20.03m0 10v20.03m0 10v20.04m0 10v20.04m0 10.02v20.03m0 10v20.03m0 10.02v20.02m0 10.02v20.02m0 10v20.04m0 10v20.04m0 10V769m0 10v20.03m0 10.03v20.02m0 10.02v20.02m0 10v20.03m0 10v20.04m0 10v20.04m0 10.02v20.02m0 10.02v20.02m0 10v20.04m0 10v20.04m0 10v20.04m0 10v20.03m0 10.02v20.02m0 10.02v10M242.96 1179.5v.5" stroke="#3a414a" fill="none"/><path d="M579.35-235.44a6 6 0 0 1 6-6h148a6 6 0 0 1 6 6v108a6 6 0 0 1-6 6h-148a6 6 0 0 1-6-6z" stroke="#000" stroke-width="2" fill="#fff"/><use xlink:href="#i" transform="matrix(1,0,0,1,579.3535041496682,-241.44543658464585) translate(37.82835069444444 66.52777777777777)"/><path d="M659.35-119.94v9.9m0 9.93v19.83m0 9.92v19.83m0 9.92v19.84m0 9.92V9m0 9.92v19.83m0 9.92V68.5m0 9.93v19.84m0 9.9v19.85m0 9.92v19.84m0 9.92v19.83m0 9.92v19.84m0 9.9v19.85m0 9.9v19.85m0 9.92v19.84m0 9.92v19.83m0 9.93v19.84m0 9.92v19.83m0 9.92v19.83m0 9.92v19.84m0 9.92v19.84m0 9.9v19.85m0 9.92v19.84m0 9.92v19.84m0 9.92v19.84m0 9.92v19.84m0 9.9v19.85m0 9.92v19.84m0 9.9v19.84m0 9.92v19.84m0 9.92v19.83m0 9.92v19.84m0 9.93v19.84m0 9.92v19.82m0 9.92v19.84m0 9.92v19.84m0 9.9v19.85m0 9.9v19.85m0 9.92v19.83m0 9.92v19.84m0 9.92v19.84m0 9.9v19.85m0 9.92v9.9" stroke="#3a414a" fill="none"/><path d="M659.83-119.93h-.95v-.5h.95z" stroke="#3a414a" stroke-width=".05" fill="#3a414a"/><path d="M659.35 1129.8v.5" stroke="#3a414a" fill="none"/><path d="M221.1 17.64a6 6 0 0 1 6-6h28a6 6 0 0 1 6 6v142.33a6 6 0 0 1-6 6h-28a6 6 0 0 1-6-6zM641.1 17.64a6 6 0 0 1 6-6h28a6 6 0 0 1 6 6v148a6 6 0 0 1-6 6h-28a6 6 0 0 1-6-6z" stroke="#000" stroke-width="2" fill="#fff"/><path d="M262.6 71.65h361.13" stroke="#3a414a" fill="none"/><path d="M262.62 72.13h-.5v-.95h.5z" stroke="#3a414a" stroke-width=".05" fill="#3a414a"/><path d="M638.5 71.65l-14.27 4.64V67z" stroke="#3a414a" fill="#3a414a"/><use xlink:href="#j" transform="matrix(1,0,0,1,390.96526499820385,41.84032651376422) translate(0 20.666666666666668)"/><path d="M221.1 357.64a6 6 0 0 1 6-6h28a6 6 0 0 1 6 6v140.62a6 6 0 0 1-6 6h-28a6 6 0 0 1-6-6zM641.1 357.64a6 6 0 0 1 6-6h28a6 6 0 0 1 6 6v140.62a6 6 0 0 1-6 6h-28a6 6 0 0 1-6-6z" stroke="#000" stroke-width="2" fill="#fff"/><path d="M262.6 398.36h361.13" stroke="#3a414a" fill="none"/><path d="M262.62 398.84h-.5v-.95h.5z" stroke="#3a414a" stroke-width=".05" fill="#3a414a"/><path d="M638.5 398.36L624.22 403v-9.27z" stroke="#3a414a" fill="#3a414a"/><use xlink:href="#k" transform="matrix(1,0,0,1,335.74129840292505,368.5511862503549) translate(0 20.666666666666668)"/><path d="M639.6 138.2h-1.95m-3.93 0h-3.93m-3.93 0h-3.93m-3.93 0h-3.9m-3.94 0h-3.93m-3.93 0h-3.92m-3.93 0h-3.93m-3.92 0h-3.93m-3.93 0h-3.93m-3.9 0h-3.94m-3.93 0h-3.92m-3.92 0h-3.93m-3.92 0h-3.93m-3.93 0h-3.93m-3.92 0h-3.93m-3.94 0h-3.92m-3.93 0H512m-3.93 0h-3.92m-3.93 0h-3.93m-3.92 0h-3.93m-3.93 0h-3.94m-3.92 0h-3.93m-3.92 0h-3.92m-3.93 0H457m-3.93 0H449.08m-4.08 0h-4.1m-4.07 0h-4.08m-4.08 0h-4.08m-4.1 0h-4.08m-4.08 0h-4.08m-4.08 0h-4.08m-4.08 0h-4.08m-4.08 0h-4.08m-4.08 0h-4.08m-4.08 0h-4.1m-4.07 0h-4.08m-4.1 0h-4.07m-4.08 0h-4.08m-4.08 0h-4.1m-4.07 0h-4.08m-4.08 0h-4.08m-4.1 0h-4.08m-4.08 0h-4.08m-4.08 0H294m-4.08 0h-4.08m-4.08 0h-4.08m-4.08 0h-2.05" stroke="#3a414a" fill="none"/><path d="M640.1 138.7h-.5v-.96h.5z" stroke="#3a414a" stroke-width=".05" fill="#3a414a"/><path d="M280.43 148.2l-17.32-10 17.33-10m-17.32 10h8.5" stroke="#3a414a" fill="none"/><use xlink:href="#l" transform="matrix(1,0,0,1,341.9913525328426,108.39885459952701) translate(0 20.666666666666668)"/><path d="M639.6 481.95h-1.95m-3.93 0h-3.93m-3.93 0h-3.93m-3.93 0h-3.9m-3.94 0h-3.93m-3.93 0h-3.92m-3.93 0h-3.93m-3.92 0h-3.93m-3.93 0h-3.93m-3.9 0h-3.94m-3.93 0h-3.92m-3.92 0h-3.93m-3.92 0h-3.93m-3.93 0h-3.93m-3.92 0h-3.93m-3.94 0h-3.92m-3.93 0H512m-3.93 0h-3.92m-3.93 0h-3.93m-3.92 0h-3.93m-3.93 0h-3.94m-3.92 0h-3.93m-3.92 0h-3.92m-3.93 0H457m-3.93 0H449.08m-4.08 0h-4.1m-4.07 0h-4.08m-4.08 0h-4.08m-4.1 0h-4.08m-4.08 0h-4.08m-4.08 0h-4.08m-4.08 0h-4.08m-4.08 0h-4.08m-4.08 0h-4.08m-4.08 0h-4.1m-4.07 0h-4.08m-4.1 0h-4.07m-4.08 0h-4.08m-4.08 0h-4.1m-4.07 0h-4.08m-4.08 0h-4.08m-4.1 0h-4.08m-4.08 0h-4.08m-4.08 0H294m-4.08 0h-4.08m-4.08 0h-4.08m-4.08 0h-2.05" stroke="#3a414a" fill="none"/><path d="M640.1 482.43h-.5v-.95h.5z" stroke="#3a414a" stroke-width=".05" fill="#3a414a"/><path d="M280.43 491.95l-17.32-10 17.33-10m-17.32 10h8.5" stroke="#3a414a" fill="none"/><use xlink:href="#m" transform="matrix(1,0,0,1,324.6371908600121,452.13717358581187) translate(0 20.666666666666668)"/><path d="M638.23 666.06a6 6 0 0 1 6-6h28a6 6 0 0 1 6 6v139.58a6 6 0 0 1-6 6h-28a6 6 0 0 1-6-6zM221.1 666.06a6 6 0 0 1 6-6h28a6 6 0 0 1 6 6v139.58a6 6 0 0 1-6 6h-28a6 6 0 0 1-6-6z" stroke="#000" stroke-width="2" fill="#fff"/><path d="M262.6 689.72h358.24" stroke="#3a414a" fill="none"/><path d="M262.62 690.2h-.5v-.95h.5z" stroke="#3a414a" stroke-width=".05" fill="#3a414a"/><path d="M635.6 689.72l-14.26 4.64v-9.27z" stroke="#3a414a" fill="#3a414a"/><use xlink:href="#n" transform="matrix(1,0,0,1,322.91425528365596,659.9084814308089) translate(0 20.666666666666668)"/><path d="M636.73 774.67h-2m-3.96 0h-3.97m-3.96 0h-3.97m-3.97 0h-3.97m-3.97 0H603m-3.98 0h-3.97m-3.97 0h-3.97m-3.96 0h-3.97m-3.97 0h-3.97m-3.96 0h-3.97m-3.97 0h-3.97m-3.97 0h-3.98m-3.97 0h-3.97m-3.97 0h-3.96m-3.97 0h-3.97m-3.97 0h-3.97m-3.96 0h-3.97m-3.97 0h-3.97m-3.98 0h-3.97m-3.97 0h-3.97m-3.96 0h-3.97m-3.97 0h-3.97m-3.96 0h-3.97m-3.97 0h-3.97m-3.97 0h-3.98m-3.97 0h-3.97m-3.97 0h-3.96m-3.97 0h-3.97m-3.97 0h-3.97m-3.96 0h-3.98m-3.96 0h-3.97m-3.98 0h-3.97m-3.97 0h-3.97m-3.96 0h-3.97m-3.97 0h-3.97m-3.97 0h-3.97m-3.97 0h-3.98m-3.96 0H341m-3.97 0h-3.97m-3.97 0h-3.96m-3.97 0h-3.97m-3.97 0h-3.97m-3.97 0h-3.98m-3.96 0h-3.97m-3.98 0h-3.97m-3.97 0h-3.97m-3.96 0h-2" stroke="#3a414a" fill="none"/><path d="M637.23 775.15h-.5v-.95h.5z" stroke="#3a414a" stroke-width=".05" fill="#3a414a"/><path d="M280.43 784.67l-17.32-10 17.33-10m-17.32 10h8.5" stroke="#3a414a" fill="none"/><use xlink:href="#o" transform="matrix(1,0,0,1,332.2217327872782,744.861041403434) translate(0 20.666666666666668)"/><path d="M638.23 925.1a6 6 0 0 1 6-6h28a6 6 0 0 1 6 6v148.6a6 6 0 0 1-6 6h-28a6 6 0 0 1-6-6zM220.02 925.1a6 6 0 0 1 6-6h28a6 6 0 0 1 6 6V1074a6 6 0 0 1-6 6h-28a6 6 0 0 1-6-6z" stroke="#000" stroke-width="2" fill="#fff"/><path d="M261.52 955.5h359.32" stroke="#3a414a" fill="none"/><path d="M261.53 955.97h-.5v-.95h.5z" stroke="#3a414a" stroke-width=".05" fill="#3a414a"/><path d="M635.6 955.5l-14.26 4.63v-9.27z" stroke="#3a414a" fill="#3a414a"/><use xlink:href="#p" transform="matrix(1,0,0,1,376.9616013240932,925.6803763756686) translate(0 20.666666666666668)"/><path d="M636.73 1052.1h-2m-3.97 0h-4m-3.97 0h-4m-3.97 0h-3.98m-3.98 0h-3.98m-4 0h-3.97m-3.98 0h-4m-3.97 0H579m-3.98 0h-3.98m-3.98 0h-3.98m-3.98 0h-4m-3.97 0h-3.98m-3.98 0h-3.98m-4 0h-3.97m-3.98 0h-4m-3.97 0h-3.98m-3.98 0h-3.98m-3.98 0h-3.98m-3.98 0h-3.98m-4 0h-3.97m-3.98 0h-3.98m-4 0h-3.97m-3.98 0h-3.98m-4 0h-3.97m-3.98 0h-3.98m-3.98 0h-3.98m-3.98 0h-3.98m-3.98 0h-4m-3.97 0h-3.98m-4 0h-3.97m-3.98 0h-3.98m-3.98 0h-4m-3.97 0h-4m-3.97 0h-3.98m-3.98 0h-3.98m-3.98 0h-3.98m-4 0h-3.97m-4 0h-3.97m-3.98 0h-3.98m-3.98 0h-4m-3.97 0h-4m-3.97 0h-3.98m-3.98 0h-3.98m-3.98 0h-3.98m-3.98 0h-4m-3.97 0h-3.97m-3.98 0h-2" stroke="#3a414a" fill="none"/><path d="M637.23 1052.57h-.5v-.95h.5z" stroke="#3a414a" stroke-width=".05" fill="#3a414a"/><path d="M279.34 1062.1l-17.32-10 17.32-10m-17.32 10h8.5" stroke="#3a414a" fill="none"/><g><use xlink:href="#q" transform="matrix(1,0,0,1,330.143957935329,1022.2860241326007) translate(0 20.666666666666668)"/></g><defs><path d="M784 20c-382 0-662-292-662-764 0-473 280-766 662-766s660 293 660 766c0 472-278 764-660 764zm0-176c266 0 475-207 475-588 0-383-209-590-475-590-268 0-477 208-477 590 0 380 209 588 477 588" id="r"/><path d="M158 418v-1536h174v179h20c37-59 106-193 324-193 279 0 474 222 474 576 0 356-194 580-473 580-213 0-288-135-325-197h-14v591H158zm492-555c209 0 317-186 317-421 0-232-105-413-317-413-206 0-314 166-314 413 0 249 111 421 314 421" id="s"/><path d="M598-1118v154H368v674c0 100 37 144 132 144 23 0 62-6 92-12L629-6c-37 13-88 20-134 20-193 0-307-107-307-290v-688H20v-154h168v-266h180v266h230" id="t"/><g id="a"><use transform="matrix(0.010850694444444442,0,0,0.010850694444444442,0,0)" xlink:href="#r"/><use transform="matrix(0.010850694444444442,0,0,0.010850694444444442,16.992187499999996,0)" xlink:href="#s"/><use transform="matrix(0.010850694444444442,0,0,0.010850694444444442,30.59895833333333,0)" xlink:href="#t"/></g><path d="M226 279v-1860h398v153H398V126h226v153H226" id="u"/><path d="M657 26c-323 0-524-166-541-416h195c15 169 171 246 346 246 202 0 356-106 356-265 5-203-294-238-475-293-239-73-380-191-380-389 0-252 224-419 512-419 294 0 499 171 508 396H992c-17-145-151-228-328-228-193 0-321 102-321 242 0 156 175 211 284 241l149 41c160 44 422 134 422 412 0 244-197 432-541 432" id="v"/><path d="M471 26C259 26 90-98 90-318c0-256 228-303 435-329 202-27 287-16 287-108 0-139-79-219-234-219-161 0-248 86-283 164l-173-57c86-203 278-265 451-265 150 0 419 46 419 395V0H815v-152h-12C765-73 660 26 471 26zm31-159c199 0 310-134 310-271v-155c-30 35-226 55-295 64-131 17-246 59-246 186 0 116 97 176 231 176" id="w"/><path d="M678-1118v154H420V0H240v-964H20v-154h220v-149c0-194 155-293 318-293 85 0 141 18 168 30l-50 154c-19-6-47-17-97-17-111 0-159 58-159 166v109h258" id="x"/><g id="b"><use transform="matrix(0.010850694444444442,0,0,0.010850694444444442,0,0)" xlink:href="#u"/><use transform="matrix(0.010850694444444442,0,0,0.010850694444444442,8.105468749999998,0)" xlink:href="#v"/><use transform="matrix(0.010850694444444442,0,0,0.010850694444444442,22.36328124999999,0)" xlink:href="#t"/><use transform="matrix(0.010850694444444442,0,0,0.010850694444444442,29.741753472222218,0)" xlink:href="#w"/><use transform="matrix(0.010850694444444442,0,0,0.010850694444444442,42.22005208333332,0)" xlink:href="#x"/><use transform="matrix(0.010850694444444442,0,0,0.010850694444444442,49.57682291666665,0)" xlink:href="#x"/></g><path d="M628 24c-324 0-524-230-524-574 0-343 198-582 503-582 237 0 487 146 487 559v75H286c9 234 145 362 343 362 132 0 231-58 273-172l174 48C1024-91 857 24 628 24zM287-650h624c-17-190-120-322-304-322-192 0-309 151-320 322" id="y"/><path d="M158 0v-1118h174v172h12c41-113 157-188 290-188 26 0 70 2 91 3v181c-11-2-60-10-108-10-161 0-279 109-279 260V0H158" id="z"/><path d="M613 24c-304 0-509-231-509-576 0-350 205-580 509-580 216 0 392 114 453 309l-173 49c-33-115-133-197-280-197-223 0-326 196-326 419 0 220 103 415 326 415 150 0 252-85 285-206l172 49C1010-95 832 24 613 24" id="A"/><path d="M338-670V0H158v-1490h180v566c73-149 190-208 336-208 226 0 379 139 379 422V0H872v-695c0-172-96-275-252-275-161 0-282 109-282 300" id="B"/><path d="M538 24C308 24 148-78 108-271l171-41c32 123 123 178 257 178 156 0 256-77 256-169 0-77-54-128-164-154l-186-44c-203-48-300-148-300-305 0-192 176-326 414-326 230 0 351 112 402 269l-163 42c-31-80-94-158-238-158-133 0-233 69-233 162 0 83 57 129 188 160l169 40c203 48 298 149 298 302 0 196-179 339-441 339" id="C"/><g id="c"><use transform="matrix(0.010850694444444442,0,0,0.010850694444444442,0,0)" xlink:href="#v"/><use transform="matrix(0.010850694444444442,0,0,0.010850694444444442,14.257812499999996,0)" xlink:href="#y"/><use transform="matrix(0.010850694444444442,0,0,0.010850694444444442,27.43055555555555,0)" xlink:href="#w"/><use transform="matrix(0.010850694444444442,0,0,0.010850694444444442,39.90885416666666,0)" xlink:href="#z"/><use transform="matrix(0.010850694444444442,0,0,0.010850694444444442,47.9058159722222,0)" xlink:href="#A"/><use transform="matrix(0.010850694444444442,0,0,0.010850694444444442,60.60112847222221,0)" xlink:href="#B"/><use transform="matrix(0.010850694444444442,0,0,0.010850694444444442,73.74131944444443,0)" xlink:href="#y"/><use transform="matrix(0.010850694444444442,0,0,0.010850694444444442,86.69704861111109,0)" xlink:href="#C"/></g><path d="M613 24c-304 0-509-231-509-576 0-350 205-580 509-580 305 0 511 230 511 580 0 345-206 576-511 576zm0-161c226 0 329-195 329-415 0-222-103-419-329-419-223 0-326 196-326 419 0 220 103 415 326 415" id="D"/><g id="d"><use transform="matrix(0.010850694444444442,0,0,0.010850694444444442,0,0)" xlink:href="#x"/><use transform="matrix(0.010850694444444442,0,0,0.010850694444444442,7.573784722222222,0)" xlink:href="#D"/><use transform="matrix(0.010850694444444442,0,0,0.010850694444444442,20.898437499999996,0)" xlink:href="#z"/></g><path d="M645 0H180v-1490h484c435 0 692 280 692 742 0 466-257 748-711 748zM370-168h263c363 0 539-218 539-580 0-358-176-574-521-574H370v1154" id="E"/><path d="M158 0v-1118h180V0H158zm91-1301c-68 0-125-53-125-119s57-119 125-119c69 0 126 53 126 119s-57 119-126 119" id="F"/><path d="M481 0L54-1118h197c107 314 236 620 325 951 87-331 217-637 324-951h197L670 0H481" id="G"/><path d="M123 279V126h226v-1554H123v-153h398V279H123" id="H"/><g id="e"><use transform="matrix(0.010850694444444442,0,0,0.010850694444444442,0,0)" xlink:href="#E"/><use transform="matrix(0.010850694444444442,0,0,0.010850694444444442,16.037326388888886,0)" xlink:href="#z"/><use transform="matrix(0.010850694444444442,0,0,0.010850694444444442,24.75043402777777,0)" xlink:href="#F"/><use transform="matrix(0.010850694444444442,0,0,0.010850694444444442,30.132378472222218,0)" xlink:href="#G"/><use transform="matrix(0.010850694444444442,0,0,0.010850694444444442,42.187499999999986,0)" xlink:href="#y"/><use transform="matrix(0.010850694444444442,0,0,0.010850694444444442,55.14322916666664,0)" xlink:href="#z"/><use transform="matrix(0.010850694444444442,0,0,0.010850694444444442,63.509114583333314,0)" xlink:href="#C"/><use transform="matrix(0.010850694444444442,0,0,0.010850694444444442,75.23871527777776,0)" xlink:href="#H"/></g><g id="f"><use transform="matrix(0.010850694444444442,0,0,0.010850694444444442,0,0)" xlink:href="#v"/><use transform="matrix(0.010850694444444442,0,0,0.010850694444444442,14.257812499999996,0)" xlink:href="#t"/><use transform="matrix(0.010850694444444442,0,0,0.010850694444444442,21.636284722222218,0)" xlink:href="#w"/><use transform="matrix(0.010850694444444442,0,0,0.010850694444444442,34.11458333333333,0)" xlink:href="#x"/><use transform="matrix(0.010850694444444442,0,0,0.010850694444444442,41.47135416666666,0)" xlink:href="#x"/></g><path d="M180 0v-1490h901v168H370v510h643v168H370V0H180" id="I"/><path d="M338-1490V0H158v-1490h180" id="J"/><g id="g"><use transform="matrix(0.010850694444444442,0,0,0.010850694444444442,0,0)" xlink:href="#I"/><use transform="matrix(0.010850694444444442,0,0,0.010850694444444442,13.11848958333333,0)" xlink:href="#F"/><use transform="matrix(0.010850694444444442,0,0,0.010850694444444442,18.500434027777775,0)" xlink:href="#J"/><use transform="matrix(0.010850694444444442,0,0,0.010850694444444442,24.20789930555555,0)" xlink:href="#t"/><use transform="matrix(0.010850694444444442,0,0,0.010850694444444442,31.260850694444432,0)" xlink:href="#y"/><use transform="matrix(0.010850694444444442,0,0,0.010850694444444442,44.2165798611111,0)" xlink:href="#z"/><use transform="matrix(0.010850694444444442,0,0,0.010850694444444442,52.582465277777764,0)" xlink:href="#C"/></g><g id="h"><use transform="matrix(0.010850694444444444,0,0,0.010850694444444444,0,0)" xlink:href="#v"/><use transform="matrix(0.010850694444444444,0,0,0.010850694444444444,14.2578125,0)" xlink:href="#t"/><use transform="matrix(0.010850694444444444,0,0,0.010850694444444444,21.63628472222222,0)" xlink:href="#w"/><use transform="matrix(0.010850694444444444,0,0,0.010850694444444444,34.11458333333333,0)" xlink:href="#x"/><use transform="matrix(0.010850694444444444,0,0,0.010850694444444444,41.47135416666666,0)" xlink:href="#x"/></g><path d="M295 13c-75 0-135-60-135-135s60-135 135-135 135 60 135 135S370 13 295 13zm0-809c-75 0-135-60-135-135s60-135 135-135 135 60 135 135-60 135-135 135" id="K"/><path d="M140 405l46-156c120 36 205 19 263-150l32-93L54-1118h197c107 313 237 620 324 950 87-331 219-637 326-950h196L606 167c-68 178-176 259-334 259-64 0-113-12-132-21" id="L"/><path d="M158 0v-1118h175l1 205c55-151 181-225 313-225 147 0 245 90 285 228 53-141 190-228 352-228 194 0 352 125 352 384V0h-181v-749c0-161-105-225-225-225-151 0-243 103-243 244V0H807v-767c0-124-93-207-219-207-131 0-250 92-250 270V0H158" id="M"/><g id="i"><use transform="matrix(0.010850694444444444,0,0,0.010850694444444444,0,0)" xlink:href="#K"/><use transform="matrix(0.010850694444444444,0,0,0.010850694444444444,6.401909722222222,0)" xlink:href="#v"/><use transform="matrix(0.010850694444444444,0,0,0.010850694444444444,20.65972222222222,0)" xlink:href="#L"/><use transform="matrix(0.010850694444444444,0,0,0.010850694444444444,33.14887152777778,0)" xlink:href="#C"/><use transform="matrix(0.010850694444444444,0,0,0.010850694444444444,44.87847222222222,0)" xlink:href="#t"/><use transform="matrix(0.010850694444444444,0,0,0.010850694444444444,51.93142361111112,0)" xlink:href="#y"/><use transform="matrix(0.010850694444444444,0,0,0.010850694444444444,64.88715277777779,0)" xlink:href="#M"/><path d="M-1.1 4.54h86.57v1.52H-1.1z"/></g><path d="M611 442c-248 0-391-105-460-228l146-94c47 65 117 165 314 165 178 0 307-82 307-266v-224h-17C863-141 792-18 576-18c-268 0-472-195-472-546 0-346 197-568 476-568 216 0 288 133 326 193h17v-179h175V29c0 289-215 413-487 413zm-5-620c203 0 314-146 314-390 0-237-108-403-314-403-213 0-319 180-319 403 0 230 109 390 319 390" id="N"/><path d="M218-607c0-325 108-727 258-974h175c-155 315-250 682-250 974 0 265 78 531 250 886H476C306-10 218-315 218-607" id="O"/><path d="M96 279C273-86 346-350 346-607c0-292-95-659-250-974h175c150 246 258 650 258 974 0 297-91 602-258 886H96" id="P"/><g id="j"><use transform="matrix(0.010416666666666668,0,0,0.010416666666666668,0,0)" xlink:href="#N"/><use transform="matrix(0.010416666666666668,0,0,0.010416666666666668,13.083333333333334,0)" xlink:href="#y"/><use transform="matrix(0.010416666666666668,0,0,0.010416666666666668,25.520833333333336,0)" xlink:href="#t"/><use transform="matrix(0.010416666666666668,0,0,0.010416666666666668,32.5,0)" xlink:href="#E"/><use transform="matrix(0.010416666666666668,0,0,0.010416666666666668,47.895833333333336,0)" xlink:href="#z"/><use transform="matrix(0.010416666666666668,0,0,0.010416666666666668,56.26041666666667,0)" xlink:href="#F"/><use transform="matrix(0.010416666666666668,0,0,0.010416666666666668,61.42708333333334,0)" xlink:href="#G"/><use transform="matrix(0.010416666666666668,0,0,0.010416666666666668,73,0)" xlink:href="#y"/><use transform="matrix(0.010416666666666668,0,0,0.010416666666666668,85.43749999999999,0)" xlink:href="#z"/><use transform="matrix(0.010416666666666668,0,0,0.010416666666666668,93.46874999999999,0)" xlink:href="#C"/><use transform="matrix(0.010416666666666668,0,0,0.010416666666666668,104.72916666666667,0)" xlink:href="#O"/><use transform="matrix(0.010416666666666668,0,0,0.010416666666666668,112.51041666666669,0)" xlink:href="#P"/></g><path d="M158 0v-1490h180v865h22l478-493h223L593-638 1096 0H865L456-523 338-412V0H158" id="Q"/><path d="M409 0L70-1118h191c89 329 165 560 243 925 75-353 154-601 240-925h192c85 325 161 564 235 922 77-354 157-598 244-922h191L1267 0h-179c-86-307-176-590-250-913C763-588 675-308 588 0H409" id="R"/><path d="M577 24c-279 0-473-224-473-580 0-354 195-576 474-576 218 0 287 134 324 193h14v-551h180V0H922v-173h-20C865-111 790 24 577 24zm27-161c203 0 314-172 314-421 0-247-108-413-314-413-212 0-317 181-317 413 0 235 108 421 317 421" id="S"/><g id="k"><use transform="matrix(0.010416666666666668,0,0,0.010416666666666668,0,0)" xlink:href="#C"/><use transform="matrix(0.010416666666666668,0,0,0.010416666666666668,11.260416666666668,0)" xlink:href="#y"/><use transform="matrix(0.010416666666666668,0,0,0.010416666666666668,23.906250000000004,0)" xlink:href="#w"/><use transform="matrix(0.010416666666666668,0,0,0.010416666666666668,35.88541666666667,0)" xlink:href="#z"/><use transform="matrix(0.010416666666666668,0,0,0.010416666666666668,43.56250000000001,0)" xlink:href="#A"/><use transform="matrix(0.010416666666666668,0,0,0.010416666666666668,55.75000000000001,0)" xlink:href="#B"/><use transform="matrix(0.010416666666666668,0,0,0.010416666666666668,68.36458333333334,0)" xlink:href="#E"/><use transform="matrix(0.010416666666666668,0,0,0.010416666666666668,83.76041666666669,0)" xlink:href="#z"/><use transform="matrix(0.010416666666666668,0,0,0.010416666666666668,92.12500000000001,0)" xlink:href="#F"/><use transform="matrix(0.010416666666666668,0,0,0.010416666666666668,97.29166666666667,0)" xlink:href="#G"/><use transform="matrix(0.010416666666666668,0,0,0.010416666666666668,108.86458333333334,0)" xlink:href="#y"/><use transform="matrix(0.010416666666666668,0,0,0.010416666666666668,121.30208333333334,0)" xlink:href="#z"/><use transform="matrix(0.010416666666666668,0,0,0.010416666666666668,129.33333333333334,0)" xlink:href="#O"/><use transform="matrix(0.010416666666666668,0,0,0.010416666666666668,137.11458333333334,0)" xlink:href="#Q"/><use transform="matrix(0.010416666666666668,0,0,0.010416666666666668,148.34375000000003,0)" xlink:href="#y"/><use transform="matrix(0.010416666666666668,0,0,0.010416666666666668,160.36458333333337,0)" xlink:href="#L"/><use transform="matrix(0.010416666666666668,0,0,0.010416666666666668,172.3541666666667,0)" xlink:href="#R"/><use transform="matrix(0.010416666666666668,0,0,0.010416666666666668,189.4270833333334,0)" xlink:href="#D"/><use transform="matrix(0.010416666666666668,0,0,0.010416666666666668,202.21875000000006,0)" xlink:href="#z"/><use transform="matrix(0.010416666666666668,0,0,0.010416666666666668,209.8958333333334,0)" xlink:href="#S"/><use transform="matrix(0.010416666666666668,0,0,0.010416666666666668,222.9583333333334,0)" xlink:href="#P"/></g><path d="M52 0l541-1490h220L1361 0h-200l-149-416H398L254 0H52zm404-582h497c-103-290-145-390-251-756-108 377-145 460-246 756" id="T"/><path d="M180 0v-1490h190v1322h690V0H180" id="U"/><g id="l"><use transform="matrix(0.010416666666666668,0,0,0.010416666666666668,0,0)" xlink:href="#S"/><use transform="matrix(0.010416666666666668,0,0,0.010416666666666668,13.062500000000002,0)" xlink:href="#F"/><use transform="matrix(0.010416666666666668,0,0,0.010416666666666668,18.229166666666668,0)" xlink:href="#C"/><use transform="matrix(0.010416666666666668,0,0,0.010416666666666668,29.489583333333336,0)" xlink:href="#s"/><use transform="matrix(0.010416666666666668,0,0,0.010416666666666668,42.552083333333336,0)" xlink:href="#J"/><use transform="matrix(0.010416666666666668,0,0,0.010416666666666668,47.71874999999999,0)" xlink:href="#w"/><use transform="matrix(0.010416666666666668,0,0,0.010416666666666668,59.38541666666667,0)" xlink:href="#L"/><use transform="matrix(0.010416666666666668,0,0,0.010416666666666668,69.92708333333334,0)" xlink:href="#T"/><use transform="matrix(0.010416666666666668,0,0,0.010416666666666668,84.64583333333334,0)" xlink:href="#J"/><use transform="matrix(0.010416666666666668,0,0,0.010416666666666668,89.81250000000001,0)" xlink:href="#J"/><use transform="matrix(0.010416666666666668,0,0,0.010416666666666668,94.97916666666667,0)" xlink:href="#E"/><use transform="matrix(0.010416666666666668,0,0,0.010416666666666668,110.37500000000003,0)" xlink:href="#z"/><use transform="matrix(0.010416666666666668,0,0,0.010416666666666668,118.73958333333337,0)" xlink:href="#F"/><use transform="matrix(0.010416666666666668,0,0,0.010416666666666668,123.90625000000003,0)" xlink:href="#G"/><use transform="matrix(0.010416666666666668,0,0,0.010416666666666668,135.47916666666669,0)" xlink:href="#y"/><use transform="matrix(0.010416666666666668,0,0,0.010416666666666668,147.91666666666669,0)" xlink:href="#z"/><use transform="matrix(0.010416666666666668,0,0,0.010416666666666668,155.94791666666669,0)" xlink:href="#C"/><use transform="matrix(0.010416666666666668,0,0,0.010416666666666668,167.20833333333334,0)" xlink:href="#U"/><use transform="matrix(0.010416666666666668,0,0,0.010416666666666668,179.27083333333334,0)" xlink:href="#F"/><use transform="matrix(0.010416666666666668,0,0,0.010416666666666668,184.43749999999997,0)" xlink:href="#C"/><use transform="matrix(0.010416666666666668,0,0,0.010416666666666668,195.69791666666666,0)" xlink:href="#t"/><use transform="matrix(0.010416666666666668,0,0,0.010416666666666668,202.67708333333331,0)" xlink:href="#O"/><use transform="matrix(0.010416666666666668,0,0,0.010416666666666668,210.45833333333331,0)" xlink:href="#P"/></g><path d="M180 0v-1490h270l367 940c28 72 75 218 110 339 35-117 81-264 110-339l362-940h271V0h-187c2-448-5-837 7-1287-157 497-311 829-483 1287H842C666-458 514-784 354-1284c12 438 5 843 7 1284H180" id="V"/><path d="M338-670V0H158v-1118h173l1 207c72-158 192-221 342-221 226 0 378 139 378 422V0H872v-695c0-172-96-275-252-275-161 0-282 109-282 300" id="W"/><g id="m"><use transform="matrix(0.010416666666666668,0,0,0.010416666666666668,0,0)" xlink:href="#S"/><use transform="matrix(0.010416666666666668,0,0,0.010416666666666668,13.062500000000002,0)" xlink:href="#F"/><use transform="matrix(0.010416666666666668,0,0,0.010416666666666668,18.229166666666668,0)" xlink:href="#C"/><use transform="matrix(0.010416666666666668,0,0,0.010416666666666668,29.489583333333336,0)" xlink:href="#s"/><use transform="matrix(0.010416666666666668,0,0,0.010416666666666668,42.552083333333336,0)" xlink:href="#J"/><use transform="matrix(0.010416666666666668,0,0,0.010416666666666668,47.71874999999999,0)" xlink:href="#w"/><use transform="matrix(0.010416666666666668,0,0,0.010416666666666668,59.38541666666667,0)" xlink:href="#L"/><use transform="matrix(0.010416666666666668,0,0,0.010416666666666668,71.47916666666667,0)" xlink:href="#V"/><use transform="matrix(0.010416666666666668,0,0,0.010416666666666668,90.74999999999999,0)" xlink:href="#w"/><use transform="matrix(0.010416666666666668,0,0,0.010416666666666668,102.72916666666667,0)" xlink:href="#t"/><use transform="matrix(0.010416666666666668,0,0,0.010416666666666668,109.50000000000001,0)" xlink:href="#A"/><use transform="matrix(0.010416666666666668,0,0,0.010416666666666668,121.68750000000001,0)" xlink:href="#B"/><use transform="matrix(0.010416666666666668,0,0,0.010416666666666668,134.30208333333334,0)" xlink:href="#F"/><use transform="matrix(0.010416666666666668,0,0,0.010416666666666668,139.46875,0)" xlink:href="#W"/><use transform="matrix(0.010416666666666668,0,0,0.010416666666666668,152.07291666666666,0)" xlink:href="#N"/><use transform="matrix(0.010416666666666668,0,0,0.010416666666666668,165.15625,0)" xlink:href="#E"/><use transform="matrix(0.010416666666666668,0,0,0.010416666666666668,180.55208333333334,0)" xlink:href="#z"/><use transform="matrix(0.010416666666666668,0,0,0.010416666666666668,188.91666666666669,0)" xlink:href="#F"/><use transform="matrix(0.010416666666666668,0,0,0.010416666666666668,194.08333333333334,0)" xlink:href="#G"/><use transform="matrix(0.010416666666666668,0,0,0.010416666666666668,205.65625000000003,0)" xlink:href="#y"/><use transform="matrix(0.010416666666666668,0,0,0.010416666666666668,218.09375000000003,0)" xlink:href="#z"/><use transform="matrix(0.010416666666666668,0,0,0.010416666666666668,226.12500000000003,0)" xlink:href="#C"/><use transform="matrix(0.010416666666666668,0,0,0.010416666666666668,237.38541666666669,0)" xlink:href="#O"/><use transform="matrix(0.010416666666666668,0,0,0.010416666666666668,245.16666666666669,0)" xlink:href="#P"/></g><path d="M98-1322v-168h1126v168H757V0H567v-1322H98" id="X"/><g id="n"><use transform="matrix(0.010416666666666668,0,0,0.010416666666666668,0,0)" xlink:href="#x"/><use transform="matrix(0.010416666666666668,0,0,0.010416666666666668,7.895833333333334,0)" xlink:href="#F"/><use transform="matrix(0.010416666666666668,0,0,0.010416666666666668,13.062499999999998,0)" xlink:href="#J"/><use transform="matrix(0.010416666666666668,0,0,0.010416666666666668,18.541666666666668,0)" xlink:href="#t"/><use transform="matrix(0.010416666666666668,0,0,0.010416666666666668,25.312500000000004,0)" xlink:href="#y"/><use transform="matrix(0.010416666666666668,0,0,0.010416666666666668,37.75000000000001,0)" xlink:href="#z"/><use transform="matrix(0.010416666666666668,0,0,0.010416666666666668,46.114583333333336,0)" xlink:href="#E"/><use transform="matrix(0.010416666666666668,0,0,0.010416666666666668,61.510416666666686,0)" xlink:href="#z"/><use transform="matrix(0.010416666666666668,0,0,0.010416666666666668,69.87500000000001,0)" xlink:href="#F"/><use transform="matrix(0.010416666666666668,0,0,0.010416666666666668,75.04166666666669,0)" xlink:href="#G"/><use transform="matrix(0.010416666666666668,0,0,0.010416666666666668,86.61458333333334,0)" xlink:href="#y"/><use transform="matrix(0.010416666666666668,0,0,0.010416666666666668,99.05208333333334,0)" xlink:href="#z"/><use transform="matrix(0.010416666666666668,0,0,0.010416666666666668,107.08333333333334,0)" xlink:href="#C"/><use transform="matrix(0.010416666666666668,0,0,0.010416666666666668,118.34375000000001,0)" xlink:href="#O"/><use transform="matrix(0.010416666666666668,0,0,0.010416666666666668,126.12500000000001,0)" xlink:href="#G"/><use transform="matrix(0.010416666666666668,0,0,0.010416666666666668,137.69791666666669,0)" xlink:href="#y"/><use transform="matrix(0.010416666666666668,0,0,0.010416666666666668,150.13541666666669,0)" xlink:href="#B"/><use transform="matrix(0.010416666666666668,0,0,0.010416666666666668,162.75000000000003,0)" xlink:href="#F"/><use transform="matrix(0.010416666666666668,0,0,0.010416666666666668,167.91666666666669,0)" xlink:href="#A"/><use transform="matrix(0.010416666666666668,0,0,0.010416666666666668,180.10416666666669,0)" xlink:href="#J"/><use transform="matrix(0.010416666666666668,0,0,0.010416666666666668,185.27083333333334,0)" xlink:href="#y"/><use transform="matrix(0.010416666666666668,0,0,0.010416666666666668,196.04166666666669,0)" xlink:href="#X"/><use transform="matrix(0.010416666666666668,0,0,0.010416666666666668,208.47916666666669,0)" xlink:href="#L"/><use transform="matrix(0.010416666666666668,0,0,0.010416666666666668,220.46875000000003,0)" xlink:href="#s"/><use transform="matrix(0.010416666666666668,0,0,0.010416666666666668,233.53125000000003,0)" xlink:href="#y"/><use transform="matrix(0.010416666666666668,0,0,0.010416666666666668,245.72916666666669,0)" xlink:href="#P"/></g><g id="o"><use transform="matrix(0.010416666666666668,0,0,0.010416666666666668,0,0)" xlink:href="#S"/><use transform="matrix(0.010416666666666668,0,0,0.010416666666666668,13.062500000000002,0)" xlink:href="#F"/><use transform="matrix(0.010416666666666668,0,0,0.010416666666666668,18.229166666666668,0)" xlink:href="#C"/><use transform="matrix(0.010416666666666668,0,0,0.010416666666666668,29.489583333333336,0)" xlink:href="#s"/><use transform="matrix(0.010416666666666668,0,0,0.010416666666666668,42.552083333333336,0)" xlink:href="#J"/><use transform="matrix(0.010416666666666668,0,0,0.010416666666666668,47.71874999999999,0)" xlink:href="#w"/><use transform="matrix(0.010416666666666668,0,0,0.010416666666666668,59.38541666666667,0)" xlink:href="#L"/><use transform="matrix(0.010416666666666668,0,0,0.010416666666666668,71.47916666666667,0)" xlink:href="#I"/><use transform="matrix(0.010416666666666668,0,0,0.010416666666666668,84.07291666666667,0)" xlink:href="#F"/><use transform="matrix(0.010416666666666668,0,0,0.010416666666666668,89.23958333333334,0)" xlink:href="#J"/><use transform="matrix(0.010416666666666668,0,0,0.010416666666666668,94.71875000000001,0)" xlink:href="#t"/><use transform="matrix(0.010416666666666668,0,0,0.010416666666666668,101.48958333333336,0)" xlink:href="#y"/><use transform="matrix(0.010416666666666668,0,0,0.010416666666666668,113.92708333333337,0)" xlink:href="#z"/><use transform="matrix(0.010416666666666668,0,0,0.010416666666666668,121.60416666666669,0)" xlink:href="#y"/><use transform="matrix(0.010416666666666668,0,0,0.010416666666666668,134.04166666666669,0)" xlink:href="#S"/><use transform="matrix(0.010416666666666668,0,0,0.010416666666666668,147.10416666666669,0)" xlink:href="#E"/><use transform="matrix(0.010416666666666668,0,0,0.010416666666666668,162.50000000000003,0)" xlink:href="#z"/><use transform="matrix(0.010416666666666668,0,0,0.010416666666666668,170.86458333333334,0)" xlink:href="#F"/><use transform="matrix(0.010416666666666668,0,0,0.010416666666666668,176.03125000000003,0)" xlink:href="#G"/><use transform="matrix(0.010416666666666668,0,0,0.010416666666666668,187.6041666666667,0)" xlink:href="#y"/><use transform="matrix(0.010416666666666668,0,0,0.010416666666666668,200.0416666666667,0)" xlink:href="#z"/><use transform="matrix(0.010416666666666668,0,0,0.010416666666666668,208.0729166666667,0)" xlink:href="#C"/><use transform="matrix(0.010416666666666668,0,0,0.010416666666666668,219.33333333333337,0)" xlink:href="#O"/><use transform="matrix(0.010416666666666668,0,0,0.010416666666666668,227.11458333333337,0)" xlink:href="#P"/></g><path d="M370-1490V0H180v-1490h190" id="Y"/><g id="p"><use transform="matrix(0.010416666666666668,0,0,0.010416666666666668,0,0)" xlink:href="#G"/><use transform="matrix(0.010416666666666668,0,0,0.010416666666666668,11.989583333333334,0)" xlink:href="#F"/><use transform="matrix(0.010416666666666668,0,0,0.010416666666666668,17.15625,0)" xlink:href="#y"/><use transform="matrix(0.010416666666666668,0,0,0.010416666666666668,29.208333333333336,0)" xlink:href="#R"/><use transform="matrix(0.010416666666666668,0,0,0.010416666666666668,46.66666666666667,0)" xlink:href="#E"/><use transform="matrix(0.010416666666666668,0,0,0.010416666666666668,62.06250000000001,0)" xlink:href="#z"/><use transform="matrix(0.010416666666666668,0,0,0.010416666666666668,70.42708333333334,0)" xlink:href="#F"/><use transform="matrix(0.010416666666666668,0,0,0.010416666666666668,75.59375000000001,0)" xlink:href="#G"/><use transform="matrix(0.010416666666666668,0,0,0.010416666666666668,87.16666666666667,0)" xlink:href="#y"/><use transform="matrix(0.010416666666666668,0,0,0.010416666666666668,99.60416666666667,0)" xlink:href="#z"/><use transform="matrix(0.010416666666666668,0,0,0.010416666666666668,107.63541666666669,0)" xlink:href="#O"/><use transform="matrix(0.010416666666666668,0,0,0.010416666666666668,115.41666666666669,0)" xlink:href="#Y"/><use transform="matrix(0.010416666666666668,0,0,0.010416666666666668,121.14583333333334,0)" xlink:href="#E"/><use transform="matrix(0.010416666666666668,0,0,0.010416666666666668,136.54166666666669,0)" xlink:href="#P"/></g><g id="q"><use transform="matrix(0.010416666666666668,0,0,0.010416666666666668,0,0)" xlink:href="#S"/><use transform="matrix(0.010416666666666668,0,0,0.010416666666666668,13.062500000000002,0)" xlink:href="#F"/><use transform="matrix(0.010416666666666668,0,0,0.010416666666666668,18.229166666666668,0)" xlink:href="#C"/><use transform="matrix(0.010416666666666668,0,0,0.010416666666666668,29.489583333333336,0)" xlink:href="#s"/><use transform="matrix(0.010416666666666668,0,0,0.010416666666666668,42.552083333333336,0)" xlink:href="#J"/><use transform="matrix(0.010416666666666668,0,0,0.010416666666666668,47.71874999999999,0)" xlink:href="#w"/><use transform="matrix(0.010416666666666668,0,0,0.010416666666666668,59.38541666666667,0)" xlink:href="#L"/><use transform="matrix(0.010416666666666668,0,0,0.010416666666666668,71.47916666666667,0)" xlink:href="#E"/><use transform="matrix(0.010416666666666668,0,0,0.010416666666666668,86.87499999999999,0)" xlink:href="#z"/><use transform="matrix(0.010416666666666668,0,0,0.010416666666666668,95.23958333333333,0)" xlink:href="#F"/><use transform="matrix(0.010416666666666668,0,0,0.010416666666666668,100.40624999999999,0)" xlink:href="#G"/><use transform="matrix(0.010416666666666668,0,0,0.010416666666666668,111.97916666666666,0)" xlink:href="#y"/><use transform="matrix(0.010416666666666668,0,0,0.010416666666666668,124.41666666666666,0)" xlink:href="#z"/><use transform="matrix(0.010416666666666668,0,0,0.010416666666666668,132.78125,0)" xlink:href="#E"/><use transform="matrix(0.010416666666666668,0,0,0.010416666666666668,148.17708333333334,0)" xlink:href="#y"/><use transform="matrix(0.010416666666666668,0,0,0.010416666666666668,160.61458333333334,0)" xlink:href="#t"/><use transform="matrix(0.010416666666666668,0,0,0.010416666666666668,167.69791666666666,0)" xlink:href="#w"/><use transform="matrix(0.010416666666666668,0,0,0.010416666666666668,179.67708333333331,0)" xlink:href="#F"/><use transform="matrix(0.010416666666666668,0,0,0.010416666666666668,184.84374999999997,0)" xlink:href="#J"/><use transform="matrix(0.010416666666666668,0,0,0.010416666666666668,190.0104166666666,0)" xlink:href="#C"/><use transform="matrix(0.010416666666666668,0,0,0.010416666666666668,201.2708333333333,0)" xlink:href="#O"/><use transform="matrix(0.010416666666666668,0,0,0.010416666666666668,209.0520833333333,0)" xlink:href="#Y"/><use transform="matrix(0.010416666666666668,0,0,0.010416666666666668,214.78124999999994,0)" xlink:href="#E"/><use transform="matrix(0.010416666666666668,0,0,0.010416666666666668,230.1770833333333,0)" xlink:href="#P"/></g></defs></g></svg>