<svg xmlns="http://www.w3.org/2000/svg" xmlns:xlink="http://www.w3.org/1999/xlink" xmlns:lucid="lucid" width="700" height="1040"><g transform="translate(-520 -160)" lucid:page-tab-id="DPoHahajcMrz"><path d="M500 0h1000v1500H500z" fill="#fff"/><path d="M520 666a6 6 0 0 1 6-6h88a6 6 0 0 1 6 6v8a14.48 14.48 0 0 1-4.24 10.24l-1.52 1.52A14.48 14.48 0 0 1 604 690h-78a6 6 0 0 1-6-6z" fill="#fff"/><path d="M620 660v20l-10 10h-90" stroke="#000" stroke-width="2" fill="none"/><path d="M520 666a6 6 0 0 1 6-6h688a6 6 0 0 1 6 6v488a6 6 0 0 1-6 6H526a6 6 0 0 1-6-6zM520 910h20m15 0h20m15 0h20m15 0h20m15 0h20m15 0h20m15 0h20m15 0h20m15 0h20m15 0h20m15 0h20m15 0h20m15 0h20m15 0h20m15 0h20m15 0h20m15 0h20m15 0h20m15 0h20m15 0h20" stroke="#000" stroke-width="2" fill="none"/><use xlink:href="#a" transform="matrix(1,0,0,1,528,660) translate(0 23.08376736111111)"/><use xlink:href="#b" transform="matrix(1,0,0,1,532,698) translate(0 22.760416666666668)"/><use xlink:href="#c" transform="matrix(1,0,0,1,532,698) translate(61.041666666666664 22.760416666666668)"/><use xlink:href="#d" transform="matrix(1,0,0,1,532,918) translate(0 22.760416666666668)"/><use xlink:href="#c" transform="matrix(1,0,0,1,532,918) translate(78.5 22.760416666666668)"/><path d="M660.25 179.95v-.2A19.75 19.75 0 0 1 680 160a19.75 19.75 0 0 1 19.75 19.75A19.75 19.75 0 0 1 680 199.5a19.75 19.75 0 0 1-19.75-19.75v-.2" stroke="#000" stroke-width="2" fill="#fff"/><path d="M640 166a6 6 0 0 1 6-6h68a6 6 0 0 1 6 6v146a6 6 0 0 1-6 6h-68a6 6 0 0 1-6-6z" fill="none"/><path d="M680 199.5v55.3l40 63.2m-40-63.2L640 318m0-98.75h80" stroke="#000" stroke-width="2" fill="none"/><use xlink:href="#e" transform="matrix(1,0,0,1,560,318) translate(95.20616319444446 21.527777777777775)"/><path d="M960 206a6 6 0 0 1 6-6h148a6 6 0 0 1 6 6v108a6 6 0 0 1-6 6H966a6 6 0 0 1-6-6z" stroke="#000" stroke-width="2" fill="#fff"/><use xlink:href="#f" transform="matrix(1,0,0,1,960,200) translate(5.01 69.41666666666667)"/><path d="M680 257.17v10.13m0 10.13v20.27m0 10.13v20.27m0 10.13v20.26m0 10.13v20.26m0 10.13v20.26m0 10.12v20.27m0 10.12v20.27m0 10.12v20.26m0 10.14v20.26m0 10.13v20.28m0 10.13v20.28m0 10.13v20.27m0 10.14v20.27m0 10.13v20.27m0 10.13v20.27m0 10.13v20.26m0 10.14v20.26m0 10.14v20.26m0 10.13v20.26m0 10.13v20.26m0 10.13v20.25m0 10.14v20.25m0 10.13v20.27m0 10.13v20.27m0 10.13v20.26m0 10.14v20.26m0 10.13v20.27m0 10.13v20.27m0 10.13v20.27m0 10.13v20.26m0 10.14v10.13M680 1199.5v.5M1040 321.5v10.1m0 10.08v20.2m0 10.08v20.18m0 10.1v20.18m0 10.1v20.18m0 10.1v20.17m0 10.1v20.18m0 10.1v20.17m0 10.1v20.18m0 10.1v20.18m0 10.1v20.17m0 10.1v20.18m0 10.1v20.17m0 10.1v20.18m0 10.1v20.17m0 10.1v20.18m0 10.1V816m0 10.1v20.18m0 10.1v20.18m0 10.1v20.17m0 10.1v20.18m0 10.1v20.18m0 10.1v20.18m0 10.1v20.18m0 10.1v20.17m0 10.1v20.2m0 10.08v20.18m0 10.1v20.18m0 10.1v20.18m0 10.1v10.08" stroke="#3a414a" fill="none"/><path d="M1040.47 321.5h-.94v-.5h.94z" stroke="#3a414a" stroke-width=".05" fill="#3a414a"/><path d="M1040 1199.5v.5" stroke="#3a414a" fill="none"/><path d="M660 369.9a6 6 0 0 1 6-6h28a6 6 0 0 1 6 6v108a6 6 0 0 1-6 6h-28a6 6 0 0 1-6-6zM1020 369.9a6 6 0 0 1 6-6h28a6 6 0 0 1 6 6v108a6 6 0 0 1-6 6h-28a6 6 0 0 1-6-6z" stroke="#000" stroke-width="2" fill="#fff"/><path d="M701.5 387.84h303" stroke="#3a414a" fill="none"/><path d="M701.5 388.3h-.5v-.94h.5z" stroke="#3a414a" stroke-width=".05" fill="#3a414a"/><path d="M1018 387.84l-13 7.5v-15z" stroke="#3a414a" fill="#3a414a"/><use xlink:href="#g" transform="matrix(1,0,0,1,780.3905916134909,358.026432512968) translate(0 20.666666666666668)"/><path d="M1018.5 460.93h-4.8m-4.8 0h-9.6m-4.8 0h-9.62m-4.8 0h-9.6m-4.8 0h-9.62m-4.8 0h-9.6m-4.8 0h-9.62m-4.8 0h-9.6m-4.8 0h-9.62m-4.8 0h-9.6m-4.8 0h-9.6m-4.82 0H855.18m-4.8 0h-9.65m-4.82 0h-9.62m-4.82 0h-9.63m-4.82 0h-9.62m-4.82 0h-9.63m-4.82 0h-9.62m-4.82 0h-9.63m-4.82 0h-9.62m-4.82 0h-9.63m-4.82 0h-4.8" stroke="#3a414a" fill="none"/><path d="M1019 461.4h-.5v-.95h.5z" stroke="#3a414a" stroke-width=".05" fill="#3a414a"/><path d="M702 460.93l13-7.5v15z" stroke="#3a414a" fill="#3a414a"/><use xlink:href="#h" transform="matrix(1,0,0,1,700.3437842895903,472.42911984011647) translate(0 20.666666666666668)"/><path d="M660 526a6 6 0 0 1 6-6h28a6 6 0 0 1 6 6v108a6 6 0 0 1-6 6h-28a6 6 0 0 1-6-6z" stroke="#000" stroke-width="2" fill="#fff"/><path d="M701.5 580h303" stroke="#3a414a" fill="none"/><path d="M701.5 580.48h-.5v-.96h.5z" stroke="#3a414a" stroke-width=".05" fill="#3a414a"/><path d="M1018 580l-13 7.5v-15z" stroke="#3a414a" fill="#3a414a"/><use xlink:href="#i" transform="matrix(1,0,0,1,709.1353961074564,542.6875) translate(0 20.666666666666668)"/><path d="M1018.5 820h-5.12m-5.12 0H998m-5.1 0h-10.25m-5.12 0H967.3m-5.13 0h-10.25m-5.12 0h-10.24m-5.12 0H921.2m-5.12 0h-10.25m-5.12 0h-10.23m-5.12 0H875.1m-5.12 0h-10.24m-5.12 0h-10.29m-5.16 0h-10.34m-5.17 0h-10.33m-5.17 0h-10.33m-5.17 0h-10.33m-5.17 0h-10.33m-5.17 0h-10.33m-5.17 0h-10.33m-5.17 0h-10.33m-5.17 0h-10.33m-5.17 0h-5.17" stroke="#3a414a" fill="none"/><path d="M1019 820.47h-.5v-.95h.5z" stroke="#3a414a" stroke-width=".05" fill="#3a414a"/><path d="M681 820l13-7.5v15z" stroke="#3a414a" fill="#3a414a"/><use xlink:href="#j" transform="matrix(1,0,0,1,717.3489825108827,823.9989999999997) translate(0 20.666666666666668)"/><path d="M1018.5 1040h-4.9m-4.92 0h-9.82m-4.9 0h-9.83m-4.9 0h-9.82m-4.9 0h-9.82m-4.9 0h-9.83m-4.9 0h-9.82m-4.9 0h-9.83m-4.9 0h-9.83m-4.9 0h-9.83m-4.9 0h-9.83m-4.9 0h-9.8m-4.92 0h-9.82m-4.9 0h-9.83m-4.9 0h-9.83m-4.9 0h-9.83m-4.9 0h-9.82m-4.9 0h-9.83m-4.9 0h-9.83m-4.92 0h-9.82m-4.9 0h-9.82m-4.9 0h-9.83m-4.9 0h-4.9" stroke="#3a414a" fill="none"/><path d="M1019 1040.47h-.5v-.95h.5z" stroke="#3a414a" stroke-width=".05" fill="#3a414a"/><path d="M681 1040l13-7.5v15z" stroke="#3a414a" fill="#3a414a"/><use xlink:href="#k" transform="matrix(1,0,0,1,735.1042089363212,1043.999) translate(0 20.666666666666668)"/><path d="M1020 526a6 6 0 0 1 6-6h28a6 6 0 0 1 6 6v608a6 6 0 0 1-6 6h-28a6 6 0 0 1-6-6z" stroke="#000" stroke-width="2" fill="#fff"/><defs><path d="M471 26C259 26 90-98 90-318c0-256 228-303 435-329 202-27 287-16 287-108 0-139-79-219-234-219-161 0-248 86-283 164l-173-57c86-203 278-265 451-265 150 0 419 46 419 395V0H815v-152h-12C765-73 660 26 471 26zm31-159c199 0 310-134 310-271v-155c-30 35-226 55-295 64-131 17-246 59-246 186 0 116 97 176 231 176" id="l"/><path d="M338-1490V0H158v-1490h180" id="m"/><path d="M598-1118v154H368v674c0 100 37 144 132 144 23 0 62-6 92-12L629-6c-37 13-88 20-134 20-193 0-307-107-307-290v-688H20v-154h168v-266h180v266h230" id="n"/><g id="a"><use transform="matrix(0.010850694444444442,0,0,0.010850694444444442,0,0)" xlink:href="#l"/><use transform="matrix(0.010850694444444442,0,0,0.010850694444444442,12.478298611111109,0)" xlink:href="#m"/><use transform="matrix(0.010850694444444442,0,0,0.010850694444444442,18.185763888888886,0)" xlink:href="#n"/></g><path d="M226 279v-1860h398v153H398V126h226v153H226" id="o"/><path d="M481 0L54-1118h197c107 314 236 620 325 951 87-331 217-637 324-951h197L670 0H481" id="p"/><path d="M158 0v-1118h180V0H158zm91-1301c-68 0-125-53-125-119s57-119 125-119c69 0 126 53 126 119s-57 119-126 119" id="q"/><path d="M577 24c-279 0-473-224-473-580 0-354 195-576 474-576 218 0 287 134 324 193h14v-551h180V0H922v-173h-20C865-111 790 24 577 24zm27-161c203 0 314-172 314-421 0-247-108-413-314-413-212 0-317 181-317 413 0 235 108 421 317 421" id="r"/><g id="b"><use transform="matrix(0.010416666666666668,0,0,0.010416666666666668,0,0)" xlink:href="#o"/><use transform="matrix(0.010416666666666668,0,0,0.010416666666666668,7.781250000000001,0)" xlink:href="#p"/><use transform="matrix(0.010416666666666668,0,0,0.010416666666666668,19.666666666666668,0)" xlink:href="#l"/><use transform="matrix(0.010416666666666668,0,0,0.010416666666666668,31.645833333333336,0)" xlink:href="#m"/><use transform="matrix(0.010416666666666668,0,0,0.010416666666666668,36.8125,0)" xlink:href="#q"/><use transform="matrix(0.010416666666666668,0,0,0.010416666666666668,41.979166666666664,0)" xlink:href="#r"/></g><path d="M338-670V0H158v-1118h173l1 207c72-158 192-221 342-221 226 0 378 139 378 422V0H872v-695c0-172-96-275-252-275-161 0-282 109-282 300" id="s"/><path d="M678-1118v154H420V0H240v-964H20v-154h220v-149c0-194 155-293 318-293 85 0 141 18 168 30l-50 154c-19-6-47-17-97-17-111 0-159 58-159 166v109h258" id="t"/><path d="M613 24c-304 0-509-231-509-576 0-350 205-580 509-580 305 0 511 230 511 580 0 345-206 576-511 576zm0-161c226 0 329-195 329-415 0-222-103-419-329-419-223 0-326 196-326 419 0 220 103 415 326 415" id="u"/><path d="M158 0v-1118h174v172h12c41-113 157-188 290-188 26 0 70 2 91 3v181c-11-2-60-10-108-10-161 0-279 109-279 260V0H158" id="v"/><path d="M158 0v-1118h175l1 205c55-151 181-225 313-225 147 0 245 90 285 228 53-141 190-228 352-228 194 0 352 125 352 384V0h-181v-749c0-161-105-225-225-225-151 0-243 103-243 244V0H807v-767c0-124-93-207-219-207-131 0-250 92-250 270V0H158" id="w"/><path d="M123 279V126h226v-1554H123v-153h398V279H123" id="x"/><g id="c"><use transform="matrix(0.010416666666666668,0,0,0.010416666666666668,0,0)" xlink:href="#q"/><use transform="matrix(0.010416666666666668,0,0,0.010416666666666668,5.166666666666667,0)" xlink:href="#s"/><use transform="matrix(0.010416666666666668,0,0,0.010416666666666668,17.770833333333336,0)" xlink:href="#t"/><use transform="matrix(0.010416666666666668,0,0,0.010416666666666668,25.041666666666668,0)" xlink:href="#u"/><use transform="matrix(0.010416666666666668,0,0,0.010416666666666668,37.83333333333334,0)" xlink:href="#v"/><use transform="matrix(0.010416666666666668,0,0,0.010416666666666668,46.19791666666668,0)" xlink:href="#w"/><use transform="matrix(0.010416666666666668,0,0,0.010416666666666668,64.88541666666669,0)" xlink:href="#l"/><use transform="matrix(0.010416666666666668,0,0,0.010416666666666668,76.86458333333336,0)" xlink:href="#n"/><use transform="matrix(0.010416666666666668,0,0,0.010416666666666668,83.84375000000003,0)" xlink:href="#q"/><use transform="matrix(0.010416666666666668,0,0,0.010416666666666668,89.0104166666667,0)" xlink:href="#u"/><use transform="matrix(0.010416666666666668,0,0,0.010416666666666668,101.80208333333336,0)" xlink:href="#s"/><use transform="matrix(0.010416666666666668,0,0,0.010416666666666668,114.40625000000006,0)" xlink:href="#x"/></g><g id="d"><use transform="matrix(0.010416666666666668,0,0,0.010416666666666668,0,0)" xlink:href="#o"/><use transform="matrix(0.010416666666666668,0,0,0.010416666666666668,7.781250000000001,0)" xlink:href="#q"/><use transform="matrix(0.010416666666666668,0,0,0.010416666666666668,12.947916666666668,0)" xlink:href="#s"/><use transform="matrix(0.010416666666666668,0,0,0.010416666666666668,25.239583333333336,0)" xlink:href="#p"/><use transform="matrix(0.010416666666666668,0,0,0.010416666666666668,37.125,0)" xlink:href="#l"/><use transform="matrix(0.010416666666666668,0,0,0.010416666666666668,49.10416666666667,0)" xlink:href="#m"/><use transform="matrix(0.010416666666666668,0,0,0.010416666666666668,54.27083333333334,0)" xlink:href="#q"/><use transform="matrix(0.010416666666666668,0,0,0.010416666666666668,59.4375,0)" xlink:href="#r"/></g><path d="M763 24c-353 0-583-224-583-531v-983h190v968c0 214 149 370 393 370 243 0 391-156 391-370v-968h190v983c0 307-230 531-581 531" id="y"/><path d="M538 24C308 24 148-78 108-271l171-41c32 123 123 178 257 178 156 0 256-77 256-169 0-77-54-128-164-154l-186-44c-203-48-300-148-300-305 0-192 176-326 414-326 230 0 351 112 402 269l-163 42c-31-80-94-158-238-158-133 0-233 69-233 162 0 83 57 129 188 160l169 40c203 48 298 149 298 302 0 196-179 339-441 339" id="z"/><path d="M628 24c-324 0-524-230-524-574 0-343 198-582 503-582 237 0 487 146 487 559v75H286c9 234 145 362 343 362 132 0 231-58 273-172l174 48C1024-91 857 24 628 24zM287-650h624c-17-190-120-322-304-322-192 0-309 151-320 322" id="A"/><g id="e"><use transform="matrix(0.010850694444444442,0,0,0.010850694444444442,0,0)" xlink:href="#y"/><use transform="matrix(0.010850694444444442,0,0,0.010850694444444442,16.53645833333333,0)" xlink:href="#z"/><use transform="matrix(0.010850694444444442,0,0,0.010850694444444442,28.26605902777777,0)" xlink:href="#A"/><use transform="matrix(0.010850694444444442,0,0,0.010850694444444442,41.221788194444436,0)" xlink:href="#v"/></g><path d="M295 13c-75 0-135-60-135-135s60-135 135-135 135 60 135 135S370 13 295 13zm0-809c-75 0-135-60-135-135s60-135 135-135 135 60 135 135-60 135-135 135" id="B"/><path d="M657 26c-323 0-524-166-541-416h195c15 169 171 246 346 246 202 0 356-106 356-265 5-203-294-238-475-293-239-73-380-191-380-389 0-252 224-419 512-419 294 0 499 171 508 396H992c-17-145-151-228-328-228-193 0-321 102-321 242 0 156 175 211 284 241l149 41c160 44 422 134 422 412 0 244-197 432-541 432" id="C"/><path d="M140 405l46-156c120 36 205 19 263-150l32-93L54-1118h197c107 313 237 620 324 950 87-331 219-637 326-950h196L606 167c-68 178-176 259-334 259-64 0-113-12-132-21" id="D"/><g id="f"><use transform="matrix(0.010416666666666668,0,0,0.010416666666666668,0,0)" xlink:href="#B"/><use transform="matrix(0.010416666666666668,0,0,0.010416666666666668,6.145833333333334,0)" xlink:href="#C"/><use transform="matrix(0.010416666666666668,0,0,0.010416666666666668,19.833333333333336,0)" xlink:href="#D"/><use transform="matrix(0.010416666666666668,0,0,0.010416666666666668,31.82291666666667,0)" xlink:href="#z"/><use transform="matrix(0.010416666666666668,0,0,0.010416666666666668,43.083333333333336,0)" xlink:href="#n"/><use transform="matrix(0.010416666666666668,0,0,0.010416666666666668,49.85416666666667,0)" xlink:href="#A"/><use transform="matrix(0.010416666666666668,0,0,0.010416666666666668,62.29166666666667,0)" xlink:href="#w"/></g><path d="M180 0v-1490h270l367 940c28 72 75 218 110 339 35-117 81-264 110-339l362-940h271V0h-187c2-448-5-837 7-1287-157 497-311 829-483 1287H842C666-458 514-784 354-1284c12 438 5 843 7 1284H180" id="E"/><path d="M158 418v-1536h174v179h20c37-59 106-193 324-193 279 0 474 222 474 576 0 356-194 580-473 580-213 0-288-135-325-197h-14v591H158zm492-555c209 0 317-186 317-421 0-232-105-413-317-413-206 0-314 166-314 413 0 249 111 421 314 421" id="F"/><path d="M98-1322v-168h1126v168H757V0H567v-1322H98" id="G"/><path d="M180 0v-1490h510c348 0 508 209 508 474 0 266-160 477-507 477H370V0H180zm190-706h312c236 0 327-133 327-310 0-176-91-307-329-307H370v617" id="H"/><path d="M218-607c0-325 108-727 258-974h175c-155 315-250 682-250 974 0 265 78 531 250 886H476C306-10 218-315 218-607" id="I"/><path d="M96 279C273-86 346-350 346-607c0-292-95-659-250-974h175c150 246 258 650 258 974 0 297-91 602-258 886H96" id="J"/><g id="g"><use transform="matrix(0.010416666666666668,0,0,0.010416666666666668,0,0)" xlink:href="#E"/><use transform="matrix(0.010416666666666668,0,0,0.010416666666666668,19.270833333333336,0)" xlink:href="#l"/><use transform="matrix(0.010416666666666668,0,0,0.010416666666666668,31.250000000000004,0)" xlink:href="#F"/><use transform="matrix(0.010416666666666668,0,0,0.010416666666666668,44.31250000000001,0)" xlink:href="#z"/><use transform="matrix(0.010416666666666668,0,0,0.010416666666666668,54.000000000000014,0)" xlink:href="#G"/><use transform="matrix(0.010416666666666668,0,0,0.010416666666666668,66.10416666666669,0)" xlink:href="#u"/><use transform="matrix(0.010416666666666668,0,0,0.010416666666666668,78.89583333333336,0)" xlink:href="#H"/><use transform="matrix(0.010416666666666668,0,0,0.010416666666666668,92.52083333333336,0)" xlink:href="#v"/><use transform="matrix(0.010416666666666668,0,0,0.010416666666666668,100.19791666666667,0)" xlink:href="#u"/><use transform="matrix(0.010416666666666668,0,0,0.010416666666666668,112.98958333333337,0)" xlink:href="#t"/><use transform="matrix(0.010416666666666668,0,0,0.010416666666666668,120.88541666666669,0)" xlink:href="#q"/><use transform="matrix(0.010416666666666668,0,0,0.010416666666666668,126.05208333333337,0)" xlink:href="#m"/><use transform="matrix(0.010416666666666668,0,0,0.010416666666666668,131.21875000000003,0)" xlink:href="#A"/><use transform="matrix(0.010416666666666668,0,0,0.010416666666666668,143.65625000000003,0)" xlink:href="#I"/><use transform="matrix(0.010416666666666668,0,0,0.010416666666666668,151.43750000000003,0)" xlink:href="#J"/></g><path d="M370-1490V0H180v-1490h190" id="K"/><path d="M613 24c-304 0-509-231-509-576 0-350 205-580 509-580 216 0 392 114 453 309l-173 49c-33-115-133-197-280-197-223 0-326 196-326 419 0 220 103 415 326 415 150 0 252-85 285-206l172 49C1010-95 832 24 613 24" id="L"/><path d="M537 14c-226 0-379-139-379-422v-710h180v695c0 172 97 275 253 275 160 0 281-109 281-300v-670h181V0H879v-209C806-46 684 14 537 14" id="M"/><path d="M645 0H180v-1490h484c435 0 692 280 692 742 0 466-257 748-711 748zM370-168h263c363 0 539-218 539-580 0-358-176-574-521-574H370v1154" id="N"/><g id="h"><use transform="matrix(0.010416666666666668,0,0,0.010416666666666668,0,0)" xlink:href="#r"/><use transform="matrix(0.010416666666666668,0,0,0.010416666666666668,13.062500000000002,0)" xlink:href="#q"/><use transform="matrix(0.010416666666666668,0,0,0.010416666666666668,18.229166666666668,0)" xlink:href="#z"/><use transform="matrix(0.010416666666666668,0,0,0.010416666666666668,29.489583333333336,0)" xlink:href="#F"/><use transform="matrix(0.010416666666666668,0,0,0.010416666666666668,42.552083333333336,0)" xlink:href="#m"/><use transform="matrix(0.010416666666666668,0,0,0.010416666666666668,47.71874999999999,0)" xlink:href="#l"/><use transform="matrix(0.010416666666666668,0,0,0.010416666666666668,59.38541666666667,0)" xlink:href="#D"/><use transform="matrix(0.010416666666666668,0,0,0.010416666666666668,71.47916666666667,0)" xlink:href="#H"/><use transform="matrix(0.010416666666666668,0,0,0.010416666666666668,85.10416666666667,0)" xlink:href="#v"/><use transform="matrix(0.010416666666666668,0,0,0.010416666666666668,92.78124999999999,0)" xlink:href="#u"/><use transform="matrix(0.010416666666666668,0,0,0.010416666666666668,105.57291666666667,0)" xlink:href="#t"/><use transform="matrix(0.010416666666666668,0,0,0.010416666666666668,113.46875,0)" xlink:href="#q"/><use transform="matrix(0.010416666666666668,0,0,0.010416666666666668,118.63541666666669,0)" xlink:href="#m"/><use transform="matrix(0.010416666666666668,0,0,0.010416666666666668,123.80208333333334,0)" xlink:href="#A"/><use transform="matrix(0.010416666666666668,0,0,0.010416666666666668,136.23958333333334,0)" xlink:href="#K"/><use transform="matrix(0.010416666666666668,0,0,0.010416666666666668,141.96875,0)" xlink:href="#s"/><use transform="matrix(0.010416666666666668,0,0,0.010416666666666668,154.57291666666666,0)" xlink:href="#t"/><use transform="matrix(0.010416666666666668,0,0,0.010416666666666668,161.84375,0)" xlink:href="#u"/><use transform="matrix(0.010416666666666668,0,0,0.010416666666666668,174.63541666666666,0)" xlink:href="#I"/><use transform="matrix(0.010416666666666668,0,0,0.010416666666666668,182.17708333333331,0)" xlink:href="#L"/><use transform="matrix(0.010416666666666668,0,0,0.010416666666666668,194.36458333333331,0)" xlink:href="#M"/><use transform="matrix(0.010416666666666668,0,0,0.010416666666666668,206.97916666666666,0)" xlink:href="#v"/><use transform="matrix(0.010416666666666668,0,0,0.010416666666666668,215.34375,0)" xlink:href="#v"/><use transform="matrix(0.010416666666666668,0,0,0.010416666666666668,223.02083333333337,0)" xlink:href="#A"/><use transform="matrix(0.010416666666666668,0,0,0.010416666666666668,235.45833333333337,0)" xlink:href="#s"/><use transform="matrix(0.010416666666666668,0,0,0.010416666666666668,248.0625,0)" xlink:href="#n"/><use transform="matrix(0.010416666666666668,0,0,0.010416666666666668,255.04166666666666,0)" xlink:href="#N"/><use transform="matrix(0.010416666666666668,0,0,0.010416666666666668,270.4375,0)" xlink:href="#A"/><use transform="matrix(0.010416666666666668,0,0,0.010416666666666668,282.875,0)" xlink:href="#n"/><use transform="matrix(0.010416666666666668,0,0,0.010416666666666668,289.95833333333337,0)" xlink:href="#l"/><use transform="matrix(0.010416666666666668,0,0,0.010416666666666668,301.93750000000006,0)" xlink:href="#q"/><use transform="matrix(0.010416666666666668,0,0,0.010416666666666668,307.10416666666674,0)" xlink:href="#m"/><use transform="matrix(0.010416666666666668,0,0,0.010416666666666668,312.2708333333334,0)" xlink:href="#z"/><use transform="matrix(0.010416666666666668,0,0,0.010416666666666668,323.5312500000001,0)" xlink:href="#J"/></g><g id="i"><use transform="matrix(0.010416666666666668,0,0,0.010416666666666668,0,0)" xlink:href="#M"/><use transform="matrix(0.010416666666666668,0,0,0.010416666666666668,12.614583333333334,0)" xlink:href="#F"/><use transform="matrix(0.010416666666666668,0,0,0.010416666666666668,25.677083333333336,0)" xlink:href="#r"/><use transform="matrix(0.010416666666666668,0,0,0.010416666666666668,38.739583333333336,0)" xlink:href="#l"/><use transform="matrix(0.010416666666666668,0,0,0.010416666666666668,50.71874999999999,0)" xlink:href="#n"/><use transform="matrix(0.010416666666666668,0,0,0.010416666666666668,57.48958333333333,0)" xlink:href="#A"/><use transform="matrix(0.010416666666666668,0,0,0.010416666666666668,69.92708333333333,0)" xlink:href="#H"/><use transform="matrix(0.010416666666666668,0,0,0.010416666666666668,83.55208333333333,0)" xlink:href="#v"/><use transform="matrix(0.010416666666666668,0,0,0.010416666666666668,91.22916666666666,0)" xlink:href="#u"/><use transform="matrix(0.010416666666666668,0,0,0.010416666666666668,104.02083333333333,0)" xlink:href="#t"/><use transform="matrix(0.010416666666666668,0,0,0.010416666666666668,111.91666666666666,0)" xlink:href="#q"/><use transform="matrix(0.010416666666666668,0,0,0.010416666666666668,117.08333333333333,0)" xlink:href="#m"/><use transform="matrix(0.010416666666666668,0,0,0.010416666666666668,122.25,0)" xlink:href="#A"/><use transform="matrix(0.010416666666666668,0,0,0.010416666666666668,134.6875,0)" xlink:href="#I"/><use transform="matrix(0.010416666666666668,0,0,0.010416666666666668,142.46875,0)" xlink:href="#M"/><use transform="matrix(0.010416666666666668,0,0,0.010416666666666668,155.08333333333334,0)" xlink:href="#F"/><use transform="matrix(0.010416666666666668,0,0,0.010416666666666668,168.14583333333334,0)" xlink:href="#r"/><use transform="matrix(0.010416666666666668,0,0,0.010416666666666668,181.20833333333334,0)" xlink:href="#l"/><use transform="matrix(0.010416666666666668,0,0,0.010416666666666668,193.18749999999997,0)" xlink:href="#n"/><use transform="matrix(0.010416666666666668,0,0,0.010416666666666668,199.95833333333331,0)" xlink:href="#A"/><use transform="matrix(0.010416666666666668,0,0,0.010416666666666668,212.39583333333331,0)" xlink:href="#r"/><use transform="matrix(0.010416666666666668,0,0,0.010416666666666668,225.45833333333331,0)" xlink:href="#N"/><use transform="matrix(0.010416666666666668,0,0,0.010416666666666668,240.85416666666666,0)" xlink:href="#A"/><use transform="matrix(0.010416666666666668,0,0,0.010416666666666668,253.29166666666666,0)" xlink:href="#n"/><use transform="matrix(0.010416666666666668,0,0,0.010416666666666668,260.375,0)" xlink:href="#l"/><use transform="matrix(0.010416666666666668,0,0,0.010416666666666668,272.3541666666667,0)" xlink:href="#q"/><use transform="matrix(0.010416666666666668,0,0,0.010416666666666668,277.52083333333337,0)" xlink:href="#m"/><use transform="matrix(0.010416666666666668,0,0,0.010416666666666668,282.68750000000006,0)" xlink:href="#z"/><use transform="matrix(0.010416666666666668,0,0,0.010416666666666668,293.94791666666674,0)" xlink:href="#J"/></g><path d="M611 442c-248 0-391-105-460-228l146-94c47 65 117 165 314 165 178 0 307-82 307-266v-224h-17C863-141 792-18 576-18c-268 0-472-195-472-546 0-346 197-568 476-568 216 0 288 133 326 193h17v-179h175V29c0 289-215 413-487 413zm-5-620c203 0 314-146 314-390 0-237-108-403-314-403-213 0-319 180-319 403 0 230 109 390 319 390" id="O"/><g id="j"><use transform="matrix(0.010416666666666668,0,0,0.010416666666666668,0,0)" xlink:href="#r"/><use transform="matrix(0.010416666666666668,0,0,0.010416666666666668,13.062500000000002,0)" xlink:href="#q"/><use transform="matrix(0.010416666666666668,0,0,0.010416666666666668,18.229166666666668,0)" xlink:href="#z"/><use transform="matrix(0.010416666666666668,0,0,0.010416666666666668,29.489583333333336,0)" xlink:href="#F"/><use transform="matrix(0.010416666666666668,0,0,0.010416666666666668,42.552083333333336,0)" xlink:href="#m"/><use transform="matrix(0.010416666666666668,0,0,0.010416666666666668,47.71874999999999,0)" xlink:href="#l"/><use transform="matrix(0.010416666666666668,0,0,0.010416666666666668,59.38541666666667,0)" xlink:href="#D"/><use transform="matrix(0.010416666666666668,0,0,0.010416666666666668,71.375,0)" xlink:href="#C"/><use transform="matrix(0.010416666666666668,0,0,0.010416666666666668,85.0625,0)" xlink:href="#M"/><use transform="matrix(0.010416666666666668,0,0,0.010416666666666668,97.67708333333333,0)" xlink:href="#L"/><use transform="matrix(0.010416666666666668,0,0,0.010416666666666668,109.86458333333333,0)" xlink:href="#L"/><use transform="matrix(0.010416666666666668,0,0,0.010416666666666668,122.05208333333333,0)" xlink:href="#A"/><use transform="matrix(0.010416666666666668,0,0,0.010416666666666668,134.48958333333334,0)" xlink:href="#z"/><use transform="matrix(0.010416666666666668,0,0,0.010416666666666668,145.75,0)" xlink:href="#z"/><use transform="matrix(0.010416666666666668,0,0,0.010416666666666668,157.01041666666666,0)" xlink:href="#E"/><use transform="matrix(0.010416666666666668,0,0,0.010416666666666668,176.28124999999997,0)" xlink:href="#A"/><use transform="matrix(0.010416666666666668,0,0,0.010416666666666668,188.71874999999997,0)" xlink:href="#z"/><use transform="matrix(0.010416666666666668,0,0,0.010416666666666668,199.97916666666666,0)" xlink:href="#z"/><use transform="matrix(0.010416666666666668,0,0,0.010416666666666668,211.23958333333331,0)" xlink:href="#l"/><use transform="matrix(0.010416666666666668,0,0,0.010416666666666668,223.21875,0)" xlink:href="#O"/><use transform="matrix(0.010416666666666668,0,0,0.010416666666666668,236.30208333333331,0)" xlink:href="#A"/><use transform="matrix(0.010416666666666668,0,0,0.010416666666666668,248.73958333333331,0)" xlink:href="#I"/><use transform="matrix(0.010416666666666668,0,0,0.010416666666666668,256.5208333333333,0)" xlink:href="#J"/></g><path d="M180 0v-1490h908v168H370v486h669v168H370v500h727V0H180" id="P"/><g id="k"><use transform="matrix(0.010416666666666668,0,0,0.010416666666666668,0,0)" xlink:href="#r"/><use transform="matrix(0.010416666666666668,0,0,0.010416666666666668,13.062500000000002,0)" xlink:href="#q"/><use transform="matrix(0.010416666666666668,0,0,0.010416666666666668,18.229166666666668,0)" xlink:href="#z"/><use transform="matrix(0.010416666666666668,0,0,0.010416666666666668,29.489583333333336,0)" xlink:href="#F"/><use transform="matrix(0.010416666666666668,0,0,0.010416666666666668,42.552083333333336,0)" xlink:href="#m"/><use transform="matrix(0.010416666666666668,0,0,0.010416666666666668,47.71874999999999,0)" xlink:href="#l"/><use transform="matrix(0.010416666666666668,0,0,0.010416666666666668,59.38541666666667,0)" xlink:href="#D"/><use transform="matrix(0.010416666666666668,0,0,0.010416666666666668,71.47916666666667,0)" xlink:href="#P"/><use transform="matrix(0.010416666666666668,0,0,0.010416666666666668,84.30208333333334,0)" xlink:href="#v"/><use transform="matrix(0.010416666666666668,0,0,0.010416666666666668,92.66666666666667,0)" xlink:href="#v"/><use transform="matrix(0.010416666666666668,0,0,0.010416666666666668,100.34374999999999,0)" xlink:href="#u"/><use transform="matrix(0.010416666666666668,0,0,0.010416666666666668,113.13541666666669,0)" xlink:href="#v"/><use transform="matrix(0.010416666666666668,0,0,0.010416666666666668,121.5,0)" xlink:href="#E"/><use transform="matrix(0.010416666666666668,0,0,0.010416666666666668,140.77083333333334,0)" xlink:href="#A"/><use transform="matrix(0.010416666666666668,0,0,0.010416666666666668,153.20833333333334,0)" xlink:href="#z"/><use transform="matrix(0.010416666666666668,0,0,0.010416666666666668,164.46875,0)" xlink:href="#z"/><use transform="matrix(0.010416666666666668,0,0,0.010416666666666668,175.72916666666666,0)" xlink:href="#l"/><use transform="matrix(0.010416666666666668,0,0,0.010416666666666668,187.70833333333331,0)" xlink:href="#O"/><use transform="matrix(0.010416666666666668,0,0,0.010416666666666668,200.79166666666666,0)" xlink:href="#A"/><use transform="matrix(0.010416666666666668,0,0,0.010416666666666668,213.22916666666666,0)" xlink:href="#I"/><use transform="matrix(0.010416666666666668,0,0,0.010416666666666668,221.01041666666666,0)" xlink:href="#J"/></g></defs></g></svg>