<svg xmlns="http://www.w3.org/2000/svg" xmlns:xlink="http://www.w3.org/1999/xlink" xmlns:lucid="lucid" width="1200" height="3360"><g transform="translate(-320 0)" lucid:page-tab-id="xPoH9RE~wu2W"><path d="M0 0h2000v3500H0z" fill="#fff"/><path d="M320 466a6 6 0 0 1 6-6h88a6 6 0 0 1 6 6v8a14.48 14.48 0 0 1-4.24 10.24l-1.52 1.52A14.48 14.48 0 0 1 404 490h-78a6 6 0 0 1-6-6z" fill="#fff"/><path d="M420 460v20l-10 10h-90" stroke="#000" stroke-width="2" fill="none"/><path d="M320 466a6 6 0 0 1 6-6h948a6 6 0 0 1 6 6v2768a6 6 0 0 1-6 6H326a6 6 0 0 1-6-6zM320 1850h20m15 0h20m15 0h20m15 0h20m15 0h20m15 0h20m15 0h20m15 0h20m15 0h20m15 0h20m15 0h20m15 0h20m15 0h20m15 0h20m15 0h20m15 0h20m15 0h20m15 0h20m15 0h20m15 0h20m15 0h20m15 0h20m15 0h20m15 0h20m15 0h20m15 0h20m15 0h20m15 0h15" stroke="#000" stroke-width="2" fill="none"/><use xlink:href="#a" transform="matrix(1,0,0,1,328,460) translate(0 23.08376736111111)"/><use xlink:href="#b" transform="matrix(1,0,0,1,332,498) translate(0 22.760416666666668)"/><use xlink:href="#c" transform="matrix(1,0,0,1,332,498) translate(100.55208333333336 22.760416666666668)"/><use xlink:href="#b" transform="matrix(1,0,0,1,332,1858) translate(0 22.760416666666668)"/><use xlink:href="#d" transform="matrix(1,0,0,1,332,1858) translate(100.55208333333336 22.760416666666668)"/><use xlink:href="#c" transform="matrix(1,0,0,1,332,1858) translate(138.92708333333337 22.760416666666668)"/><path d="M420 746a6 6 0 0 1 6-6h88a6 6 0 0 1 6 6v8a14.48 14.48 0 0 1-4.24 10.24l-1.52 1.52A14.48 14.48 0 0 1 504 770h-78a6 6 0 0 1-6-6z" fill="#fff"/><path d="M520 740v20l-10 10h-90" stroke="#000" stroke-width="2" fill="none"/><path d="M420 746a6 6 0 0 1 6-6h688a6 6 0 0 1 6 6v288a6 6 0 0 1-6 6H426a6 6 0 0 1-6-6z" stroke="#000" stroke-width="2" fill="none"/><use xlink:href="#e" transform="matrix(1,0,0,1,428,740) translate(0 23.08376736111111)"/><use xlink:href="#f" transform="matrix(1,0,0,1,432,778) translate(0 22.760416666666668)"/><use xlink:href="#g" transform="matrix(1,0,0,1,432,778) translate(120.50000000000001 22.760416666666668)"/><use xlink:href="#h" transform="matrix(1,0,0,1,432,778) translate(212.66666666666669 22.760416666666668)"/><path d="M360 1286a6 6 0 0 1 6-6h88a6 6 0 0 1 6 6v8a14.48 14.48 0 0 1-4.24 10.24l-1.52 1.52A14.48 14.48 0 0 1 444 1310h-78a6 6 0 0 1-6-6z" fill="#fff"/><path d="M460 1280v20l-10 10h-90" stroke="#000" stroke-width="2" fill="none"/><path d="M360 1286a6 6 0 0 1 6-6h868a6 6 0 0 1 6 6v488a6 6 0 0 1-6 6H366a6 6 0 0 1-6-6zM360 1530h20m15 0h20m15 0h20m15 0h20m15 0h20m15 0h20m15 0h20m15 0h20m15 0h20m15 0h20m15 0h20m15 0h20m15 0h20m15 0h20m15 0h20m15 0h20m15 0h20m15 0h20m15 0h20m15 0h20m15 0h20m15 0h20m15 0h20m15 0h20m15 0h20m15 0h5" stroke="#000" stroke-width="2" fill="none"/><use xlink:href="#a" transform="matrix(1,0,0,1,368.0000000000001,1280) translate(0 23.08376736111111)"/><use xlink:href="#i" transform="matrix(1,0,0,1,372.0000000000001,1318) translate(0 22.760416666666668)"/><use xlink:href="#j" transform="matrix(1,0,0,1,372.0000000000001,1318) translate(74.75000000000001 22.760416666666668)"/><use xlink:href="#k" transform="matrix(1,0,0,1,372.0000000000001,1538) translate(0 22.760416666666668)"/><use xlink:href="#l" transform="matrix(1,0,0,1,372.0000000000001,1538) translate(42.645833333333336 22.760416666666668)"/><use xlink:href="#m" transform="matrix(1,0,0,1,372.0000000000001,1538) translate(118.54166666666669 22.760416666666668)"/><use xlink:href="#n" transform="matrix(1,0,0,1,372.0000000000001,1538) translate(193.37500000000003 22.760416666666668)"/><use xlink:href="#o" transform="matrix(1,0,0,1,372.0000000000001,1538) translate(217.14583333333337 22.760416666666668)"/><path d="M500.25 19.95v-.2A19.75 19.75 0 0 1 520 0a19.75 19.75 0 0 1 19.75 19.75A19.75 19.75 0 0 1 520 39.5a19.75 19.75 0 0 1-19.75-19.75v-.2" stroke="#000" stroke-width="2" fill="#fff"/><path d="M480 6a6 6 0 0 1 6-6h68a6 6 0 0 1 6 6v146a6 6 0 0 1-6 6h-68a6 6 0 0 1-6-6z" fill="none"/><path d="M520 39.5v55.3l40 63.2m-40-63.2L480 158m0-98.75h80" stroke="#000" stroke-width="2" fill="none"/><use xlink:href="#p" transform="matrix(1,0,0,1,400,158) translate(64.41731770833334 21.527777777777775)"/><path d="M960 46a6 6 0 0 1 6-6h148a6 6 0 0 1 6 6v108a6 6 0 0 1-6 6H966a6 6 0 0 1-6-6z" stroke="#000" stroke-width="2" fill="#fff"/><use xlink:href="#q" transform="matrix(1,0,0,1,960,40) translate(37.828350694444445 66.52777777777777)"/><path d="M1460.25 19.95v-.2A19.75 19.75 0 0 1 1480 0a19.75 19.75 0 0 1 19.75 19.75A19.75 19.75 0 0 1 1480 39.5a19.75 19.75 0 0 1-19.75-19.75v-.2" stroke="#000" stroke-width="2" fill="#fff"/><path d="M1440 6a6 6 0 0 1 6-6h68a6 6 0 0 1 6 6v146a6 6 0 0 1-6 6h-68a6 6 0 0 1-6-6z" fill="none"/><path d="M1480 39.5v55.3l40 63.2m-40-63.2l-40 63.2m0-98.75h80" stroke="#000" stroke-width="2" fill="none"/><use xlink:href="#r" transform="matrix(1,0,0,1,1360,158) translate(88.24544270833334 21.527777777777775)"/><path d="M520 97.17v9.98m0 9.97v19.96m0 9.97V167m0 9.98v19.96m0 9.97v19.97m0 9.97v19.96m0 9.97v19.95m0 9.98v19.95m0 9.98v19.95m0 9.98v19.95m0 10v19.94m0 9.98v19.95m0 9.98v19.95m0 9.98v19.95m0 9.98v19.96m0 9.98v19.95m0 9.97v19.95m0 9.98v19.95m0 9.98v19.95m0 9.98v19.95m0 10v19.94m0 9.98v19.95m0 9.98v19.95m0 9.98v19.95m0 9.98v19.96m0 9.97v19.96m0 9.96v19.96m0 9.97v19.95m0 9.97v19.96m0 9.97v19.96m0 9.98v19.95m0 9.98v19.96m0 9.98v19.95m0 9.97v19.95m0 9.98v19.95m0 9.98v19.95m0 9.98v19.95m0 10v19.94m0 9.98v19.95m0 9.98v19.95m0 9.98v19.95m0 9.98v19.96m0 9.98v19.95m0 9.97v19.95m0 9.98v19.95m0 9.98v19.95m0 9.98v19.95m0 10v19.94m0 9.98v19.95m0 9.97v19.96m0 9.97v19.96m0 9.97v19.96m0 9.97v19.96m0 9.96v19.96m0 9.97v19.95m0 9.97v19.96m0 9.97v19.96m0 9.98v19.96m0 9.97v19.97m0 9.97V1873m0 9.97v19.95m0 9.98v19.95m0 9.98v19.95m0 9.98v19.95m0 10v19.94m0 9.98v19.95m0 9.98v19.95m0 9.98v19.95m0 9.98v19.96m0 9.98v19.95m0 9.97v19.95m0 9.98v19.95m0 9.98v19.95m0 9.98V2292m0 10v19.94m0 9.98v19.95m0 9.98v19.95m0 9.97v19.96m0 9.97v19.96m0 9.97v19.96m0 9.96v19.96m0 9.97v19.95m0 9.97v19.96m0 9.97v19.96m0 9.98v19.96m0 9.97v19.97m0 9.97v19.95m0 9.97v19.95m0 9.98v19.95m0 9.98v19.95m0 9.98v19.95m0 10v19.94m0 9.98v19.95m0 9.98v19.95m0 9.98v19.95m0 9.98v19.96m0 9.98v19.95m0 9.97v19.95m0 9.98v19.95m0 9.98v19.95m0 9.98v19.95m0 10v19.94m0 9.98v19.95m0 9.98v19.95m0 9.97v19.96m0 9.97v19.96m0 9.97v19.96m0 9.96v19.96m0 9.97v19.95m0 9.97v9.98M520 97.18v-3.5M520 3359.5v.5M1040 161.5v9.96m0 9.97v19.92m0 9.96v19.94m0 9.96v19.93m0 9.96V291m0 9.98v19.92m0 9.96v19.93m0 9.95v19.93m0 9.96v19.93m0 9.96v19.92m0 9.97v19.92m0 9.96v19.93m0 9.96v19.92m0 9.96V560m0 9.97v19.92m0 9.96v19.92m0 9.96v19.93m0 9.96v19.93m0 9.96v19.92m0 9.97v19.93m0 9.96v19.92m0 9.96v19.93m0 9.97V829m0 9.96v19.92m0 9.97v19.92m0 9.96v19.93m0 9.96v19.93m0 9.96v19.93m0 9.97v19.92m0 9.96v19.93m0 9.97v19.93m0 9.96V1098m0 9.95v19.92m0 9.97v19.92m0 9.96v19.93m0 9.96v19.94m0 9.96v19.92m0 9.97v19.9m0 9.98v19.92m0 9.96v19.93m0 9.95v19.93m0 9.96v19.92m0 9.97v19.92m0 9.96v19.94m0 9.96v19.93m0 9.96v19.92m0 9.96v19.92m0 9.97v19.92m0 9.95v19.93m0 9.96v19.93m0 9.96v19.92m0 9.97v19.92m0 9.97v19.93m0 9.96v19.92m0 9.96v19.93m0 9.97v19.92m0 9.96v19.92m0 9.96v19.93m0 9.96v19.93m0 9.96v19.93m0 9.96v19.93m0 9.97v19.92m0 9.96v19.93m0 9.97v19.93m0 9.96v19.92m0 9.97v19.92m0 9.97v19.92m0 9.96v19.93m0 9.96v19.94m0 9.96v19.92m0 9.97v19.9m0 9.97v19.93m0 9.96v19.93m0 9.95v19.93m0 9.96v19.92m0 9.97v19.92m0 9.96v19.94m0 9.96v19.93m0 9.96v19.9m0 9.98v19.92m0 9.97v19.92m0 9.95v19.93m0 9.96v19.93m0 9.96v19.92m0 9.97v19.92m0 9.97v19.93m0 9.96v19.92m0 9.96v19.93m0 9.97v19.92m0 9.96v19.92m0 9.96v19.93m0 9.96v19.93m0 9.96v19.93m0 9.96v19.93m0 9.96v19.92m0 9.96v19.93m0 9.97v19.93m0 9.96v19.92m0 9.97v19.92m0 9.97v19.92m0 9.96v19.93m0 9.96v19.94m0 9.96v19.92m0 9.97v19.9m0 9.97v19.93m0 9.96v19.93m0 9.95v19.92m0 9.97v9.96" stroke="#3a414a" fill="none"/><path d="M1040.47 161.5h-.94v-.5h.94z" stroke="#3a414a" stroke-width=".05" fill="#3a414a"/><path d="M1040 3359.5v.5M1480 97.17v9.97m0 9.98v19.95m0 9.98V167m0 9.98v19.95m0 9.98v19.96m0 9.98v19.95m0 9.97v19.95m0 9.98v19.95m0 9.98v19.95m0 9.98v19.95m0 10v19.94m0 9.98v19.95m0 9.98v19.95m0 9.98v19.95m0 9.98v19.96m0 9.98v19.95m0 9.97v19.95m0 9.98v19.95m0 9.98v19.95m0 9.98v19.95m0 10v19.94m0 9.98v19.95m0 9.97v19.96m0 9.97v19.96m0 9.97v19.96m0 9.97v19.96m0 9.96v19.96m0 9.97v19.95m0 9.97v19.95m0 9.98v19.96m0 9.98v19.95m0 9.98v19.96m0 9.98v19.95m0 9.97v19.95m0 9.98v19.95m0 9.98v19.95m0 9.98v19.95m0 10v19.94m0 9.98v19.95m0 9.98v19.95m0 9.98v19.95m0 9.98v19.96m0 9.98v19.95m0 9.97v19.95m0 9.98v19.95m0 9.98v19.95m0 9.97v19.96m0 9.98v19.96m0 9.98v19.95m0 9.97v19.96m0 9.97v19.96m0 9.97v19.96m0 9.97v19.96m0 9.96v19.96m0 9.97v19.95m0 9.97v19.96m0 9.97v19.95m0 9.98v19.95m0 9.98v19.96m0 9.98V1873m0 9.97v19.95m0 9.98v19.95m0 9.98v19.95m0 9.98v19.95m0 10v19.94m0 9.98v19.95m0 9.98v19.95m0 9.98v19.95m0 9.98v19.96m0 9.98v19.95m0 9.97v19.95m0 9.98v19.95m0 9.98v19.95m0 9.98V2292m0 10v19.94m0 9.97v19.97m0 9.97v19.96m0 9.97v19.96m0 9.97v19.96m0 9.97v19.96m0 9.96v19.96m0 9.97v19.95m0 9.97v19.95m0 9.98v19.95m0 9.98v19.95m0 9.98v19.96m0 9.98v19.95m0 9.97v19.95m0 9.98v19.95m0 9.98v19.95m0 9.98v19.95m0 10v19.94m0 9.98v19.95m0 9.98v19.95m0 9.98v19.95m0 9.98v19.96m0 9.98v19.95m0 9.97v19.95m0 9.98v19.95m0 9.98v19.95m0 9.98v19.95m0 10v19.94m0 9.97v19.97m0 9.98v19.95m0 9.97v19.96m0 9.97v19.96m0 9.97v19.96m0 9.96v19.96m0 9.97v19.95m0 9.97v9.98M1480 3359.5v.5" stroke="#3a414a" fill="none"/><path d="M500 326a6 6 0 0 1 6-6h28a6 6 0 0 1 6 6v108a6 6 0 0 1-6 6h-28a6 6 0 0 1-6-6zM1020 326a6 6 0 0 1 6-6h28a6 6 0 0 1 6 6v108a6 6 0 0 1-6 6h-28a6 6 0 0 1-6-6z" stroke="#000" stroke-width="2" fill="#fff"/><path d="M541.5 380h463" stroke="#3a414a" fill="none"/><path d="M541.5 380.48h-.5v-.96h.5z" stroke="#3a414a" stroke-width=".05" fill="#3a414a"/><path d="M1018 380l-13 7.5v-15z" stroke="#3a414a" fill="#3a414a"/><use xlink:href="#s" transform="matrix(1,0,0,1,627.1354166666666,350.1875) translate(0 20.666666666666668)"/><path d="M500 566a6 6 0 0 1 6-6h28a6 6 0 0 1 6 6v108a6 6 0 0 1-6 6h-28a6 6 0 0 1-6-6zM1020 566a6 6 0 0 1 6-6h28a6 6 0 0 1 6 6v108a6 6 0 0 1-6 6h-28a6 6 0 0 1-6-6z" stroke="#000" stroke-width="2" fill="#fff"/><path d="M1018.5 620h-4.98m-4.98 0h-9.95m-5 0h-9.95m-4.98 0h-9.96m-4.97 0h-9.95m-4.98 0h-9.96m-4.98 0h-9.95m-4.97 0h-9.96m-4.98 0h-9.97m-4.97 0h-9.96m-4.98 0h-9.96m-4.98 0h-9.95m-4.98 0h-9.96m-5 0h-9.94m-4.98 0h-9.96m-4.98 0h-9.96m-4.97 0h-9.95m-4.98 0h-9.96m-4.97 0h-9.95m-4.98 0h-9.96m-4.98 0h-9.95m-4.97 0h-9.96m-4.98 0h-9.97m-4.97 0H670m-4.98 0h-9.96m-4.98 0h-9.95m-4.98 0h-9.96m-5 0h-9.95m-4.97 0h-9.96m-4.98 0h-9.96m-4.98 0h-9.95m-4.98 0h-4.98" stroke="#3a414a" fill="none"/><path d="M1019 620.48h-.5v-.96h.5z" stroke="#3a414a" stroke-width=".05" fill="#3a414a"/><path d="M542 620l13-7.5v15z" stroke="#3a414a" fill="#3a414a"/><use xlink:href="#t" transform="matrix(1,0,0,1,721.3958333333333,624) translate(0 20.666666666666668)"/><path d="M500 2126a6 6 0 0 1 6-6h28a6 6 0 0 1 6 6v108a6 6 0 0 1-6 6h-28a6 6 0 0 1-6-6zM1019 2126a6 6 0 0 1 6-6h28a6 6 0 0 1 6 6v108a6 6 0 0 1-6 6h-28a6 6 0 0 1-6-6z" stroke="#000" stroke-width="2" fill="#fff"/><path d="M1017.5 2180h-4.96m-4.96 0h-9.9m-4.97 0h-9.9m-4.97 0h-9.9m-4.97 0h-9.92m-4.96 0h-9.9m-4.97 0h-9.9m-4.97 0h-9.9m-4.97 0h-9.92m-4.96 0h-9.9m-4.97 0h-9.9m-4.97 0h-9.9m-4.97 0h-9.92m-4.96 0h-9.9m-4.97 0h-9.9m-4.97 0h-9.9m-4.97 0H774.52m-4.98 0h-9.95m-5 0h-9.95m-4.97 0h-9.96m-4.98 0h-9.95m-5 0h-9.95m-4.98 0h-9.95m-4.98 0h-9.96m-4.97 0h-9.95m-4.98 0h-9.95m-4.98 0h-9.96m-4.97 0h-9.95m-4.98 0h-9.95m-4.98 0h-9.96m-4.98 0h-9.95m-4.98 0h-4.98" stroke="#3a414a" fill="none"/><path d="M1018 2180.47h-.5v-.94h.5z" stroke="#3a414a" stroke-width=".05" fill="#3a414a"/><path d="M542 2180l13-7.5v15z" stroke="#3a414a" fill="#3a414a"/><use xlink:href="#u" transform="matrix(1,0,0,1,651.7239833333332,2184.000000000001) translate(0 20.666666666666668)"/><use xlink:href="#v" transform="matrix(1,0,0,1,651.7239833333332,2184.000000000001) translate(207 20.666666666666668)"/><path d="M500 866a6 6 0 0 1 6-6h28a6 6 0 0 1 6 6v108a6 6 0 0 1-6 6h-28a6 6 0 0 1-6-6zM1020 866a6 6 0 0 1 6-6h28a6 6 0 0 1 6 6v108a6 6 0 0 1-6 6h-28a6 6 0 0 1-6-6z" stroke="#000" stroke-width="2" fill="#fff"/><path d="M541.5 893.24h463" stroke="#3a414a" fill="none"/><path d="M541.5 893.7h-.5v-.94h.5z" stroke="#3a414a" stroke-width=".05" fill="#3a414a"/><path d="M1018 893.24l-13 7.5v-15z" stroke="#3a414a" fill="#3a414a"/><use xlink:href="#w" transform="matrix(1,0,0,1,636.1406002182573,863.4232178461883) translate(0 20.666666666666668)"/><path d="M1018.5 949.8h-4.98m-4.98 0h-9.95m-5 0h-9.95m-4.98 0h-9.96m-4.97 0h-9.95m-4.98 0h-9.96m-4.98 0h-9.95m-4.97 0h-9.96m-4.98 0h-9.97m-4.97 0h-9.96m-4.98 0h-9.96m-4.98 0h-9.95m-4.98 0h-9.96m-5 0h-9.94m-4.98 0h-9.96m-4.98 0h-9.96m-4.97 0h-9.95m-4.98 0h-9.96m-4.97 0h-9.95m-4.98 0h-9.96m-4.98 0h-9.95m-4.97 0h-9.96m-4.98 0h-9.97m-4.97 0H670m-4.98 0h-9.96m-4.98 0h-9.95m-4.98 0h-9.96m-5 0h-9.95m-4.97 0h-9.96m-4.98 0h-9.96m-4.98 0h-9.95m-4.98 0h-4.98" stroke="#3a414a" fill="none"/><path d="M1019 950.27h-.5v-.94h.5z" stroke="#3a414a" stroke-width=".05" fill="#3a414a"/><path d="M542 949.8l13-7.5v15z" stroke="#3a414a" fill="#3a414a"/><use xlink:href="#t" transform="matrix(1,0,0,1,721.3958609255544,953.7995986836457) translate(0 20.666666666666668)"/><path d="M500 1126a6 6 0 0 1 6-6h28a6 6 0 0 1 6 6v108a6 6 0 0 1-6 6h-28a6 6 0 0 1-6-6zM1020 1126a6 6 0 0 1 6-6h28a6 6 0 0 1 6 6v108a6 6 0 0 1-6 6h-28a6 6 0 0 1-6-6z" stroke="#000" stroke-width="2" fill="#fff"/><path d="M541.5 1145.57h463" stroke="#3a414a" fill="none"/><path d="M541.5 1146.05h-.5v-.95h.5z" stroke="#3a414a" stroke-width=".05" fill="#3a414a"/><path d="M1018 1145.57l-13 7.5v-15z" stroke="#3a414a" fill="#3a414a"/><use xlink:href="#x" transform="matrix(1,0,0,1,651.9843431222864,1115.7595692650466) translate(0 20.666666666666668)"/><path d="M1018.5 1163.55H550.44" stroke="#3a414a" fill="none"/><path d="M1019 1164.03h-.5v-.95h.5z" stroke="#3a414a" stroke-width=".05" fill="#3a414a"/><path d="M559.32 1173.55l-17.32-10 17.32-10m-17.32 10h8.5" stroke="#3a414a" fill="none"/><use xlink:href="#y" transform="matrix(1,0,0,1,694.8749847685178,1167.5499992592263) translate(0 20.666666666666668)"/><path d="M1460 1126a6 6 0 0 1 6-6h28a6 6 0 0 1 6 6v108a6 6 0 0 1-6 6h-28a6 6 0 0 1-6-6z" stroke="#000" stroke-width="2" fill="#fff"/><path d="M1061.5 1187.6h388.06" stroke="#3a414a" fill="none"/><path d="M1061.5 1188.08h-.5v-.95h.5z" stroke="#3a414a" stroke-width=".05" fill="#3a414a"/><path d="M1440.68 1177.6l17.32 10-17.32 10m17.32-10h-8.5" stroke="#3a414a" fill="none"/><use xlink:href="#z" transform="matrix(1,0,0,1,1138.2187570370365,1157.7874993210278) translate(0 20.666666666666668)"/><path d="M1019 1369.33a6 6 0 0 1 6-6h28a6 6 0 0 1 6 6v108a6 6 0 0 1-6 6h-28a6 6 0 0 1-6-6zM460 1369.33a6 6 0 0 1 6-6h28a6 6 0 0 1 6 6v108a6 6 0 0 1-6 6h-28a6 6 0 0 1-6-6z" stroke="#000" stroke-width="2" fill="#fff"/><path d="M1017.5 1423.33h-5.07m-5.07 0h-10.14m-5.07 0H982m-5.07 0H966.8m-5.08 0h-10.14m-5.07 0h-10.13m-5.07 0h-10.14m-5.08 0h-10.14m-5.07 0h-10.14m-5.07 0h-10.14m-5.07 0H860.3m-5.07 0H845.1m-5.08 0h-10.14m-5.07 0h-10.13m-5.07 0h-10.14m-5.08 0h-10.14m-5.07 0h-10.14m-5.07 0h-10.14m-5.07 0H738.6m-5.07 0H723.4m-5.08 0h-10.14m-5.07 0h-10.13m-5.07 0h-10.14m-5.08 0h-10.14m-5.07 0h-10.14m-5.07 0h-10.14m-5.07 0H616.9m-5.06 0H601.7m-5.08 0h-10.14m-5.07 0h-10.13m-5.07 0h-10.14m-5.07 0h-10.16m-5.07 0h-10.14m-5.07 0h-5.07" stroke="#3a414a" fill="none"/><path d="M1018 1423.8h-.5v-.94h.5z" stroke="#3a414a" stroke-width=".05" fill="#3a414a"/><path d="M502 1423.33l13-7.5v15z" stroke="#3a414a" fill="#3a414a"/><use xlink:href="#A" transform="matrix(1,0,0,1,707.7200770833331,1427.3301336946188) translate(0 16.791666666666668)"/><path d="M460 1606a6 6 0 0 1 6-6h28a6 6 0 0 1 6 6v108a6 6 0 0 1-6 6h-28a6 6 0 0 1-6-6zM1020 1606a6 6 0 0 1 6-6h28a6 6 0 0 1 6 6v108a6 6 0 0 1-6 6h-28a6 6 0 0 1-6-6z" stroke="#000" stroke-width="2" fill="#fff"/><path d="M1018.5 1660h-4.93m-4.93 0h-9.87m-4.93 0h-9.86m-4.93 0h-9.87m-4.93 0h-9.86m-4.94 0h-9.86m-4.94 0h-9.86m-4.93 0H910m-4.92 0h-9.87m-4.92 0h-9.86m-4.93 0h-9.88m-4.93 0h-9.87m-4.93 0h-9.86m-4.94 0h-9.86m-4.93 0h-9.85m-4.94 0h-9.85m-4.93 0h-9.86m-4.93 0h-9.87m-4.93 0h-9.86m-4.93 0h-9.87m-4.93 0h-9.86m-4.93 0h-9.86m-4.94 0h-9.87m-4.94 0h-9.86m-4.93 0h-9.87m-4.93 0h-9.86m-4.92 0h-9.87m-4.92 0h-9.86m-4.93 0h-9.88m-4.93 0h-9.87m-4.93 0h-9.86m-4.94 0h-9.86m-4.93 0h-9.85m-4.93 0h-9.87m-4.93 0h-4.93" stroke="#3a414a" fill="none"/><path d="M1019 1660.47h-.5v-.94h.5z" stroke="#3a414a" stroke-width=".05" fill="#3a414a"/><path d="M502 1660l13-7.5v15z" stroke="#3a414a" fill="#3a414a"/><g><use xlink:href="#B" transform="matrix(1,0,0,1,582.21875,1664) translate(0 20.666666666666668)"/><use xlink:href="#l" transform="matrix(1,0,0,1,582.21875,1664) translate(173.75 20.666666666666668)"/><use xlink:href="#C" transform="matrix(1,0,0,1,582.21875,1664) translate(249.64583333333334 20.666666666666668)"/></g><path d="M1458.5 1207.6h-4.97m-4.98 0h-9.95m-4.97 0h-9.96m-4.97 0h-9.95m-4.98 0h-9.95m-4.97 0h-9.95m-4.98 0h-9.95m-4.97 0h-9.95m-4.98 0h-9.95m-4.97 0h-9.95m-4.98 0h-9.95m-4.97 0h-9.95m-4.98 0h-9.95m-4.97 0h-9.95m-4.98 0h-9.95m-4.97 0h-9.95m-4.98 0h-9.95m-4.97 0h-9.95m-4.98 0h-9.95m-4.97 0h-9.96m-4.97 0h-9.95m-4.97 0h-9.95m-4.98 0h-9.95m-4.98 0h-9.96m-4.97 0h-9.95m-4.98 0h-9.95m-4.98 0h-4.98" stroke="#3a414a" fill="none"/><path d="M1459 1208.06h-.5v-.95h.5z" stroke="#3a414a" stroke-width=".05" fill="#3a414a"/><path d="M1079.32 1217.6l-17.32-10 17.32-10m-17.32 10h8.5" stroke="#3a414a" fill="none"/><g><use xlink:href="#D" transform="matrix(1,0,0,1,1183.7500255415862,1211.5849131021866) translate(0 17.22222222222222)"/></g><defs><path d="M471 26C259 26 90-98 90-318c0-256 228-303 435-329 202-27 287-16 287-108 0-139-79-219-234-219-161 0-248 86-283 164l-173-57c86-203 278-265 451-265 150 0 419 46 419 395V0H815v-152h-12C765-73 660 26 471 26zm31-159c199 0 310-134 310-271v-155c-30 35-226 55-295 64-131 17-246 59-246 186 0 116 97 176 231 176" id="E"/><path d="M338-1490V0H158v-1490h180" id="F"/><path d="M598-1118v154H368v674c0 100 37 144 132 144 23 0 62-6 92-12L629-6c-37 13-88 20-134 20-193 0-307-107-307-290v-688H20v-154h168v-266h180v266h230" id="G"/><g id="a"><use transform="matrix(0.010850694444444442,0,0,0.010850694444444442,0,0)" xlink:href="#E"/><use transform="matrix(0.010850694444444442,0,0,0.010850694444444442,12.478298611111109,0)" xlink:href="#F"/><use transform="matrix(0.010850694444444442,0,0,0.010850694444444442,18.185763888888886,0)" xlink:href="#G"/></g><path d="M226 279v-1860h398v153H398V126h226v153H226" id="H"/><path d="M180 0v-1490h190v1322h690V0H180" id="I"/><path d="M613 24c-304 0-509-231-509-576 0-350 205-580 509-580 305 0 511 230 511 580 0 345-206 576-511 576zm0-161c226 0 329-195 329-415 0-222-103-419-329-419-223 0-326 196-326 419 0 220 103 415 326 415" id="J"/><path d="M613 24c-304 0-509-231-509-576 0-350 205-580 509-580 216 0 392 114 453 309l-173 49c-33-115-133-197-280-197-223 0-326 196-326 419 0 220 103 415 326 415 150 0 252-85 285-206l172 49C1010-95 832 24 613 24" id="K"/><path d="M158 0v-1118h180V0H158zm91-1301c-68 0-125-53-125-119s57-119 125-119c69 0 126 53 126 119s-57 119-126 119" id="L"/><path d="M338-670V0H158v-1118h173l1 207c72-158 192-221 342-221 226 0 378 139 378 422V0H872v-695c0-172-96-275-252-275-161 0-282 109-282 300" id="M"/><g id="b"><use transform="matrix(0.010416666666666668,0,0,0.010416666666666668,0,0)" xlink:href="#H"/><use transform="matrix(0.010416666666666668,0,0,0.010416666666666668,7.781250000000001,0)" xlink:href="#I"/><use transform="matrix(0.010416666666666668,0,0,0.010416666666666668,19.843750000000004,0)" xlink:href="#J"/><use transform="matrix(0.010416666666666668,0,0,0.010416666666666668,32.63541666666667,0)" xlink:href="#K"/><use transform="matrix(0.010416666666666668,0,0,0.010416666666666668,45.03125000000001,0)" xlink:href="#E"/><use transform="matrix(0.010416666666666668,0,0,0.010416666666666668,57.01041666666667,0)" xlink:href="#G"/><use transform="matrix(0.010416666666666668,0,0,0.010416666666666668,63.98958333333334,0)" xlink:href="#L"/><use transform="matrix(0.010416666666666668,0,0,0.010416666666666668,69.15625000000001,0)" xlink:href="#J"/><use transform="matrix(0.010416666666666668,0,0,0.010416666666666668,81.94791666666669,0)" xlink:href="#M"/></g><path d="M678-1118v154H420V0H240v-964H20v-154h220v-149c0-194 155-293 318-293 85 0 141 18 168 30l-50 154c-19-6-47-17-97-17-111 0-159 58-159 166v109h258" id="N"/><path d="M537 14c-226 0-379-139-379-422v-710h180v695c0 172 97 275 253 275 160 0 281-109 281-300v-670h181V0H879v-209C806-46 684 14 537 14" id="O"/><path d="M577 24c-279 0-473-224-473-580 0-354 195-576 474-576 218 0 287 134 324 193h14v-551h180V0H922v-173h-20C865-111 790 24 577 24zm27-161c203 0 314-172 314-421 0-247-108-413-314-413-212 0-317 181-317 413 0 235 108 421 317 421" id="P"/><path d="M123 279V126h226v-1554H123v-153h398V279H123" id="Q"/><g id="c"><use transform="matrix(0.010416666666666668,0,0,0.010416666666666668,0,0)" xlink:href="#N"/><use transform="matrix(0.010416666666666668,0,0,0.010416666666666668,7.270833333333334,0)" xlink:href="#J"/><use transform="matrix(0.010416666666666668,0,0,0.010416666666666668,20.0625,0)" xlink:href="#O"/><use transform="matrix(0.010416666666666668,0,0,0.010416666666666668,32.677083333333336,0)" xlink:href="#M"/><use transform="matrix(0.010416666666666668,0,0,0.010416666666666668,45.28124999999999,0)" xlink:href="#P"/><use transform="matrix(0.010416666666666668,0,0,0.010416666666666668,58.34375,0)" xlink:href="#Q"/></g><g id="d"><use transform="matrix(0.010416666666666668,0,0,0.010416666666666668,0,0)" xlink:href="#M"/><use transform="matrix(0.010416666666666668,0,0,0.010416666666666668,12.604166666666668,0)" xlink:href="#J"/><use transform="matrix(0.010416666666666668,0,0,0.010416666666666668,25.395833333333336,0)" xlink:href="#G"/></g><path d="M158 418v-1536h174v179h20c37-59 106-193 324-193 279 0 474 222 474 576 0 356-194 580-473 580-213 0-288-135-325-197h-14v591H158zm492-555c209 0 317-186 317-421 0-232-105-413-317-413-206 0-314 166-314 413 0 249 111 421 314 421" id="R"/><g id="e"><use transform="matrix(0.010850694444444442,0,0,0.010850694444444442,0,0)" xlink:href="#I"/><use transform="matrix(0.010850694444444442,0,0,0.010850694444444442,12.565104166666664,0)" xlink:href="#J"/><use transform="matrix(0.010850694444444442,0,0,0.010850694444444442,25.88975694444444,0)" xlink:href="#J"/><use transform="matrix(0.010850694444444442,0,0,0.010850694444444442,39.214409722222214,0)" xlink:href="#R"/></g><path d="M180 0v-1490h510c348 0 508 209 508 474 0 266-160 477-507 477H370V0H180zm190-706h312c236 0 327-133 327-310 0-176-91-307-329-307H370v617" id="S"/><path d="M538 24C308 24 148-78 108-271l171-41c32 123 123 178 257 178 156 0 256-77 256-169 0-77-54-128-164-154l-186-44c-203-48-300-148-300-305 0-192 176-326 414-326 230 0 351 112 402 269l-163 42c-31-80-94-158-238-158-133 0-233 69-233 162 0 83 57 129 188 160l169 40c203 48 298 149 298 302 0 196-179 339-441 339" id="T"/><path d="M628 24c-324 0-524-230-524-574 0-343 198-582 503-582 237 0 487 146 487 559v75H286c9 234 145 362 343 362 132 0 231-58 273-172l174 48C1024-91 857 24 628 24zM287-650h624c-17-190-120-322-304-322-192 0-309 151-320 322" id="U"/><path d="M611 442c-248 0-391-105-460-228l146-94c47 65 117 165 314 165 178 0 307-82 307-266v-224h-17C863-141 792-18 576-18c-268 0-472-195-472-546 0-346 197-568 476-568 216 0 288 133 326 193h17v-179h175V29c0 289-215 413-487 413zm-5-620c203 0 314-146 314-390 0-237-108-403-314-403-213 0-319 180-319 403 0 230 109 390 319 390" id="V"/><path d="M158 0v-1118h174v172h12c41-113 157-188 290-188 26 0 70 2 91 3v181c-11-2-60-10-108-10-161 0-279 109-279 260V0H158" id="W"/><g id="f"><use transform="matrix(0.010416666666666668,0,0,0.010416666666666668,0,0)" xlink:href="#H"/><use transform="matrix(0.010416666666666668,0,0,0.010416666666666668,7.781250000000001,0)" xlink:href="#S"/><use transform="matrix(0.010416666666666668,0,0,0.010416666666666668,21.406250000000004,0)" xlink:href="#E"/><use transform="matrix(0.010416666666666668,0,0,0.010416666666666668,33.38541666666667,0)" xlink:href="#T"/><use transform="matrix(0.010416666666666668,0,0,0.010416666666666668,44.645833333333336,0)" xlink:href="#T"/><use transform="matrix(0.010416666666666668,0,0,0.010416666666666668,55.906250000000014,0)" xlink:href="#U"/><use transform="matrix(0.010416666666666668,0,0,0.010416666666666668,68.34375000000001,0)" xlink:href="#M"/><use transform="matrix(0.010416666666666668,0,0,0.010416666666666668,80.94791666666669,0)" xlink:href="#V"/><use transform="matrix(0.010416666666666668,0,0,0.010416666666666668,94.03125000000001,0)" xlink:href="#U"/><use transform="matrix(0.010416666666666668,0,0,0.010416666666666668,106.46875000000001,0)" xlink:href="#W"/></g><path d="M338-670V0H158v-1490h180v566c73-149 190-208 336-208 226 0 379 139 379 422V0H872v-695c0-172-96-275-252-275-161 0-282 109-282 300" id="X"/><g id="g"><use transform="matrix(0.010416666666666668,0,0,0.010416666666666668,0,0)" xlink:href="#K"/><use transform="matrix(0.010416666666666668,0,0,0.010416666666666668,12.187500000000002,0)" xlink:href="#X"/><use transform="matrix(0.010416666666666668,0,0,0.010416666666666668,24.802083333333336,0)" xlink:href="#E"/><use transform="matrix(0.010416666666666668,0,0,0.010416666666666668,36.78125,0)" xlink:href="#M"/><use transform="matrix(0.010416666666666668,0,0,0.010416666666666668,49.38541666666667,0)" xlink:href="#V"/><use transform="matrix(0.010416666666666668,0,0,0.010416666666666668,62.46875000000001,0)" xlink:href="#U"/><use transform="matrix(0.010416666666666668,0,0,0.010416666666666668,74.90625000000001,0)" xlink:href="#T"/></g><path d="M158 0v-1490h180v865h22l478-493h223L593-638 1096 0H865L456-523 338-412V0H158" id="Y"/><g id="h"><use transform="matrix(0.010416666666666668,0,0,0.010416666666666668,0,0)" xlink:href="#R"/><use transform="matrix(0.010416666666666668,0,0,0.010416666666666668,13.062500000000002,0)" xlink:href="#L"/><use transform="matrix(0.010416666666666668,0,0,0.010416666666666668,18.229166666666668,0)" xlink:href="#K"/><use transform="matrix(0.010416666666666668,0,0,0.010416666666666668,30.41666666666667,0)" xlink:href="#Y"/><use transform="matrix(0.010416666666666668,0,0,0.010416666666666668,42.12500000000001,0)" xlink:href="#O"/><use transform="matrix(0.010416666666666668,0,0,0.010416666666666668,54.73958333333334,0)" xlink:href="#R"/><use transform="matrix(0.010416666666666668,0,0,0.010416666666666668,67.56250000000001,0)" xlink:href="#Q"/></g><path d="M645 0H180v-1490h484c435 0 692 280 692 742 0 466-257 748-711 748zM370-168h263c363 0 539-218 539-580 0-358-176-574-521-574H370v1154" id="Z"/><path d="M481 0L54-1118h197c107 314 236 620 325 951 87-331 217-637 324-951h197L670 0H481" id="aa"/><g id="i"><use transform="matrix(0.010416666666666668,0,0,0.010416666666666668,0,0)" xlink:href="#H"/><use transform="matrix(0.010416666666666668,0,0,0.010416666666666668,7.781250000000001,0)" xlink:href="#Z"/><use transform="matrix(0.010416666666666668,0,0,0.010416666666666668,23.177083333333336,0)" xlink:href="#W"/><use transform="matrix(0.010416666666666668,0,0,0.010416666666666668,31.54166666666667,0)" xlink:href="#L"/><use transform="matrix(0.010416666666666668,0,0,0.010416666666666668,36.708333333333336,0)" xlink:href="#aa"/><use transform="matrix(0.010416666666666668,0,0,0.010416666666666668,48.28125000000001,0)" xlink:href="#U"/><use transform="matrix(0.010416666666666668,0,0,0.010416666666666668,60.71875000000001,0)" xlink:href="#W"/></g><g id="j"><use transform="matrix(0.010416666666666668,0,0,0.010416666666666668,0,0)" xlink:href="#E"/><use transform="matrix(0.010416666666666668,0,0,0.010416666666666668,11.979166666666668,0)" xlink:href="#K"/><use transform="matrix(0.010416666666666668,0,0,0.010416666666666668,24.166666666666668,0)" xlink:href="#K"/><use transform="matrix(0.010416666666666668,0,0,0.010416666666666668,36.35416666666667,0)" xlink:href="#U"/><use transform="matrix(0.010416666666666668,0,0,0.010416666666666668,48.79166666666667,0)" xlink:href="#R"/><use transform="matrix(0.010416666666666668,0,0,0.010416666666666668,61.85416666666667,0)" xlink:href="#G"/><use transform="matrix(0.010416666666666668,0,0,0.010416666666666668,68.625,0)" xlink:href="#T"/><use transform="matrix(0.010416666666666668,0,0,0.010416666666666668,79.88541666666667,0)" xlink:href="#Q"/></g><path d="M180 0v-1490h224l606 953c40 63 108 177 176 312-27-437-7-821-13-1265h190V0h-226C860-448 622-778 356-1262c27 476 11 792 15 1262H180" id="ab"/><g id="k"><use transform="matrix(0.010416666666666668,0,0,0.010416666666666668,0,0)" xlink:href="#H"/><use transform="matrix(0.010416666666666668,0,0,0.010416666666666668,7.781250000000001,0)" xlink:href="#ab"/><use transform="matrix(0.010416666666666668,0,0,0.010416666666666668,23.854166666666668,0)" xlink:href="#J"/></g><g id="l"><use transform="matrix(0.010416666666666668,0,0,0.010416666666666668,0,0)" xlink:href="#P"/><use transform="matrix(0.010416666666666668,0,0,0.010416666666666668,13.062500000000002,0)" xlink:href="#W"/><use transform="matrix(0.010416666666666668,0,0,0.010416666666666668,21.427083333333336,0)" xlink:href="#L"/><use transform="matrix(0.010416666666666668,0,0,0.010416666666666668,26.593750000000004,0)" xlink:href="#aa"/><use transform="matrix(0.010416666666666668,0,0,0.010416666666666668,38.16666666666667,0)" xlink:href="#U"/><use transform="matrix(0.010416666666666668,0,0,0.010416666666666668,50.60416666666667,0)" xlink:href="#W"/><use transform="matrix(0.010416666666666668,0,0,0.010416666666666668,58.63541666666667,0)" xlink:href="#T"/></g><g id="m"><use transform="matrix(0.010416666666666668,0,0,0.010416666666666668,0,0)" xlink:href="#E"/><use transform="matrix(0.010416666666666668,0,0,0.010416666666666668,11.979166666666668,0)" xlink:href="#K"/><use transform="matrix(0.010416666666666668,0,0,0.010416666666666668,24.166666666666668,0)" xlink:href="#K"/><use transform="matrix(0.010416666666666668,0,0,0.010416666666666668,36.35416666666667,0)" xlink:href="#U"/><use transform="matrix(0.010416666666666668,0,0,0.010416666666666668,48.79166666666667,0)" xlink:href="#R"/><use transform="matrix(0.010416666666666668,0,0,0.010416666666666668,61.85416666666667,0)" xlink:href="#G"/></g><g id="n"><use transform="matrix(0.010416666666666668,0,0,0.010416666666666668,0,0)" xlink:href="#L"/><use transform="matrix(0.010416666666666668,0,0,0.010416666666666668,5.166666666666667,0)" xlink:href="#M"/></g><path d="M158 0v-1118h175l1 205c55-151 181-225 313-225 147 0 245 90 285 228 53-141 190-228 352-228 194 0 352 125 352 384V0h-181v-749c0-161-105-225-225-225-151 0-243 103-243 244V0H807v-767c0-124-93-207-219-207-131 0-250 92-250 270V0H158" id="ac"/><g id="o"><use transform="matrix(0.010416666666666668,0,0,0.010416666666666668,0,0)" xlink:href="#G"/><use transform="matrix(0.010416666666666668,0,0,0.010416666666666668,6.979166666666668,0)" xlink:href="#L"/><use transform="matrix(0.010416666666666668,0,0,0.010416666666666668,12.145833333333334,0)" xlink:href="#ac"/><use transform="matrix(0.010416666666666668,0,0,0.010416666666666668,30.833333333333343,0)" xlink:href="#U"/><use transform="matrix(0.010416666666666668,0,0,0.010416666666666668,43.03125000000001,0)" xlink:href="#Q"/></g><g id="p"><use transform="matrix(0.010850694444444442,0,0,0.010850694444444442,0,0)" xlink:href="#S"/><use transform="matrix(0.010850694444444442,0,0,0.010850694444444442,14.19270833333333,0)" xlink:href="#E"/><use transform="matrix(0.010850694444444442,0,0,0.010850694444444442,26.67100694444444,0)" xlink:href="#T"/><use transform="matrix(0.010850694444444442,0,0,0.010850694444444442,38.400607638888886,0)" xlink:href="#T"/><use transform="matrix(0.010850694444444442,0,0,0.010850694444444442,50.130208333333336,0)" xlink:href="#U"/><use transform="matrix(0.010850694444444442,0,0,0.010850694444444442,63.0859375,0)" xlink:href="#M"/><use transform="matrix(0.010850694444444442,0,0,0.010850694444444442,76.21527777777777,0)" xlink:href="#V"/><use transform="matrix(0.010850694444444442,0,0,0.010850694444444442,89.84374999999999,0)" xlink:href="#U"/><use transform="matrix(0.010850694444444442,0,0,0.010850694444444442,102.79947916666667,0)" xlink:href="#W"/></g><path d="M295 13c-75 0-135-60-135-135s60-135 135-135 135 60 135 135S370 13 295 13zm0-809c-75 0-135-60-135-135s60-135 135-135 135 60 135 135-60 135-135 135" id="ad"/><path d="M657 26c-323 0-524-166-541-416h195c15 169 171 246 346 246 202 0 356-106 356-265 5-203-294-238-475-293-239-73-380-191-380-389 0-252 224-419 512-419 294 0 499 171 508 396H992c-17-145-151-228-328-228-193 0-321 102-321 242 0 156 175 211 284 241l149 41c160 44 422 134 422 412 0 244-197 432-541 432" id="ae"/><path d="M140 405l46-156c120 36 205 19 263-150l32-93L54-1118h197c107 313 237 620 324 950 87-331 219-637 326-950h196L606 167c-68 178-176 259-334 259-64 0-113-12-132-21" id="af"/><g id="q"><use transform="matrix(0.010850694444444442,0,0,0.010850694444444442,0,0)" xlink:href="#ad"/><use transform="matrix(0.010850694444444442,0,0,0.010850694444444442,6.4019097222222205,0)" xlink:href="#ae"/><use transform="matrix(0.010850694444444442,0,0,0.010850694444444442,20.659722222222218,0)" xlink:href="#af"/><use transform="matrix(0.010850694444444442,0,0,0.010850694444444442,33.14887152777777,0)" xlink:href="#T"/><use transform="matrix(0.010850694444444442,0,0,0.010850694444444442,44.878472222222214,0)" xlink:href="#G"/><use transform="matrix(0.010850694444444442,0,0,0.010850694444444442,51.931423611111114,0)" xlink:href="#U"/><use transform="matrix(0.010850694444444442,0,0,0.010850694444444442,64.88715277777777,0)" xlink:href="#ac"/><path d="M-1.1 4.54h86.57v1.52H-1.1z"/></g><g id="r"><use transform="matrix(0.010850694444444442,0,0,0.010850694444444442,0,0)" xlink:href="#Z"/><use transform="matrix(0.010850694444444442,0,0,0.010850694444444442,16.037326388888886,0)" xlink:href="#W"/><use transform="matrix(0.010850694444444442,0,0,0.010850694444444442,24.75043402777777,0)" xlink:href="#L"/><use transform="matrix(0.010850694444444442,0,0,0.010850694444444442,30.132378472222218,0)" xlink:href="#aa"/><use transform="matrix(0.010850694444444442,0,0,0.010850694444444442,42.187499999999986,0)" xlink:href="#U"/><use transform="matrix(0.010850694444444442,0,0,0.010850694444444442,55.14322916666664,0)" xlink:href="#W"/></g><path d="M218-607c0-325 108-727 258-974h175c-155 315-250 682-250 974 0 265 78 531 250 886H476C306-10 218-315 218-607" id="ag"/><path d="M96 279C273-86 346-350 346-607c0-292-95-659-250-974h175c150 246 258 650 258 974 0 297-91 602-258 886H96" id="ah"/><g id="s"><use transform="matrix(0.010416666666666668,0,0,0.010416666666666668,0,0)" xlink:href="#U"/><use transform="matrix(0.010416666666666668,0,0,0.010416666666666668,12.437500000000002,0)" xlink:href="#M"/><use transform="matrix(0.010416666666666668,0,0,0.010416666666666668,25.041666666666668,0)" xlink:href="#G"/><use transform="matrix(0.010416666666666668,0,0,0.010416666666666668,31.812500000000007,0)" xlink:href="#U"/><use transform="matrix(0.010416666666666668,0,0,0.010416666666666668,44.25000000000001,0)" xlink:href="#W"/><use transform="matrix(0.010416666666666668,0,0,0.010416666666666668,52.614583333333336,0)" xlink:href="#Z"/><use transform="matrix(0.010416666666666668,0,0,0.010416666666666668,68.01041666666669,0)" xlink:href="#W"/><use transform="matrix(0.010416666666666668,0,0,0.010416666666666668,75.68750000000001,0)" xlink:href="#J"/><use transform="matrix(0.010416666666666668,0,0,0.010416666666666668,88.47916666666667,0)" xlink:href="#R"/><use transform="matrix(0.010416666666666668,0,0,0.010416666666666668,101.54166666666667,0)" xlink:href="#J"/><use transform="matrix(0.010416666666666668,0,0,0.010416666666666668,114.33333333333337,0)" xlink:href="#N"/><use transform="matrix(0.010416666666666668,0,0,0.010416666666666668,121.39583333333337,0)" xlink:href="#N"/><use transform="matrix(0.010416666666666668,0,0,0.010416666666666668,129.29166666666669,0)" xlink:href="#ag"/><use transform="matrix(0.010416666666666668,0,0,0.010416666666666668,136.83333333333334,0)" xlink:href="#P"/><use transform="matrix(0.010416666666666668,0,0,0.010416666666666668,149.89583333333334,0)" xlink:href="#W"/><use transform="matrix(0.010416666666666668,0,0,0.010416666666666668,157.57291666666669,0)" xlink:href="#J"/><use transform="matrix(0.010416666666666668,0,0,0.010416666666666668,170.36458333333334,0)" xlink:href="#R"/><use transform="matrix(0.010416666666666668,0,0,0.010416666666666668,183.42708333333334,0)" xlink:href="#J"/><use transform="matrix(0.010416666666666668,0,0,0.010416666666666668,196.21874999999997,0)" xlink:href="#N"/><use transform="matrix(0.010416666666666668,0,0,0.010416666666666668,203.28124999999997,0)" xlink:href="#N"/><use transform="matrix(0.010416666666666668,0,0,0.010416666666666668,211.17708333333334,0)" xlink:href="#I"/><use transform="matrix(0.010416666666666668,0,0,0.010416666666666668,223.23958333333337,0)" xlink:href="#J"/><use transform="matrix(0.010416666666666668,0,0,0.010416666666666668,236.03125,0)" xlink:href="#K"/><use transform="matrix(0.010416666666666668,0,0,0.010416666666666668,248.42708333333337,0)" xlink:href="#E"/><use transform="matrix(0.010416666666666668,0,0,0.010416666666666668,260.40625,0)" xlink:href="#G"/><use transform="matrix(0.010416666666666668,0,0,0.010416666666666668,267.3854166666667,0)" xlink:href="#L"/><use transform="matrix(0.010416666666666668,0,0,0.010416666666666668,272.55208333333337,0)" xlink:href="#J"/><use transform="matrix(0.010416666666666668,0,0,0.010416666666666668,285.34375000000006,0)" xlink:href="#M"/><use transform="matrix(0.010416666666666668,0,0,0.010416666666666668,297.94791666666674,0)" xlink:href="#ah"/></g><path d="M784 20c-382 0-662-292-662-764 0-473 280-766 662-766s660 293 660 766c0 472-278 764-660 764zm0-176c266 0 475-207 475-588 0-383-209-590-475-590-268 0-477 208-477 590 0 380 209 588 477 588" id="ai"/><g id="t"><use transform="matrix(0.010416666666666668,0,0,0.010416666666666668,0,0)" xlink:href="#W"/><use transform="matrix(0.010416666666666668,0,0,0.010416666666666668,8.364583333333336,0)" xlink:href="#L"/><use transform="matrix(0.010416666666666668,0,0,0.010416666666666668,13.531250000000004,0)" xlink:href="#P"/><use transform="matrix(0.010416666666666668,0,0,0.010416666666666668,26.593750000000007,0)" xlink:href="#U"/><use transform="matrix(0.010416666666666668,0,0,0.010416666666666668,39.03125000000001,0)" xlink:href="#ai"/><use transform="matrix(0.010416666666666668,0,0,0.010416666666666668,55.343750000000014,0)" xlink:href="#R"/><use transform="matrix(0.010416666666666668,0,0,0.010416666666666668,68.40625000000001,0)" xlink:href="#G"/><use transform="matrix(0.010416666666666668,0,0,0.010416666666666668,75.38541666666669,0)" xlink:href="#L"/><use transform="matrix(0.010416666666666668,0,0,0.010416666666666668,80.55208333333336,0)" xlink:href="#J"/><use transform="matrix(0.010416666666666668,0,0,0.010416666666666668,93.34375000000003,0)" xlink:href="#M"/><use transform="matrix(0.010416666666666668,0,0,0.010416666666666668,105.9479166666667,0)" xlink:href="#T"/></g><path d="M180 0v-1490h908v168H370v486h669v168H370v500h727V0H180" id="aj"/><path d="M232-923l-22-567h194l-22 567H232zm340 0l-22-567h194l-22 567H572" id="ak"/><path d="M52 0l541-1490h220L1361 0h-200l-149-416H398L254 0H52zm404-582h497c-103-290-145-390-251-756-108 377-145 460-246 756" id="al"/><path d="M157-1118h181V80c1 225-123 350-364 338V252c126 9 184-48 183-172v-1198zm91-183c-68 0-125-53-125-119s57-119 125-119c69 0 126 53 126 119s-57 119-126 119" id="am"/><g id="u"><use transform="matrix(0.010416666666666668,0,0,0.010416666666666668,0,0)" xlink:href="#P"/><use transform="matrix(0.010416666666666668,0,0,0.010416666666666668,13.062500000000002,0)" xlink:href="#L"/><use transform="matrix(0.010416666666666668,0,0,0.010416666666666668,18.229166666666668,0)" xlink:href="#T"/><use transform="matrix(0.010416666666666668,0,0,0.010416666666666668,29.489583333333336,0)" xlink:href="#R"/><use transform="matrix(0.010416666666666668,0,0,0.010416666666666668,42.552083333333336,0)" xlink:href="#F"/><use transform="matrix(0.010416666666666668,0,0,0.010416666666666668,47.71874999999999,0)" xlink:href="#E"/><use transform="matrix(0.010416666666666668,0,0,0.010416666666666668,59.38541666666667,0)" xlink:href="#af"/><use transform="matrix(0.010416666666666668,0,0,0.010416666666666668,71.47916666666667,0)" xlink:href="#aj"/><use transform="matrix(0.010416666666666668,0,0,0.010416666666666668,84.30208333333334,0)" xlink:href="#W"/><use transform="matrix(0.010416666666666668,0,0,0.010416666666666668,92.66666666666667,0)" xlink:href="#W"/><use transform="matrix(0.010416666666666668,0,0,0.010416666666666668,100.34374999999999,0)" xlink:href="#J"/><use transform="matrix(0.010416666666666668,0,0,0.010416666666666668,113.13541666666669,0)" xlink:href="#W"/><use transform="matrix(0.010416666666666668,0,0,0.010416666666666668,121.16666666666669,0)" xlink:href="#ag"/><use transform="matrix(0.010416666666666668,0,0,0.010416666666666668,128.94791666666669,0)" xlink:href="#ak"/><use transform="matrix(0.010416666666666668,0,0,0.010416666666666668,137.19791666666669,0)" xlink:href="#al"/><use transform="matrix(0.010416666666666668,0,0,0.010416666666666668,151.91666666666669,0)" xlink:href="#P"/><use transform="matrix(0.010416666666666668,0,0,0.010416666666666668,164.97916666666669,0)" xlink:href="#am"/><use transform="matrix(0.010416666666666668,0,0,0.010416666666666668,170.14583333333334,0)" xlink:href="#O"/><use transform="matrix(0.010416666666666668,0,0,0.010416666666666668,182.76041666666669,0)" xlink:href="#T"/><use transform="matrix(0.010416666666666668,0,0,0.010416666666666668,194.02083333333334,0)" xlink:href="#G"/></g><g id="v"><use transform="matrix(0.010416666666666668,0,0,0.010416666666666668,0,0)" xlink:href="#R"/><use transform="matrix(0.010416666666666668,0,0,0.010416666666666668,13.062500000000002,0)" xlink:href="#L"/><use transform="matrix(0.010416666666666668,0,0,0.010416666666666668,18.229166666666668,0)" xlink:href="#M"/><use transform="matrix(0.010416666666666668,0,0,0.010416666666666668,30.833333333333336,0)" xlink:href="#ak"/><use transform="matrix(0.010416666666666668,0,0,0.010416666666666668,40.770833333333336,0)" xlink:href="#ah"/></g><path d="M409 0L70-1118h191c89 329 165 560 243 925 75-353 154-601 240-925h192c85 325 161 564 235 922 77-354 157-598 244-922h191L1267 0h-179c-86-307-176-590-250-913C763-588 675-308 588 0H409" id="an"/><g id="w"><use transform="matrix(0.010416666666666668,0,0,0.010416666666666668,0,0)" xlink:href="#K"/><use transform="matrix(0.010416666666666668,0,0,0.010416666666666668,12.187500000000002,0)" xlink:href="#X"/><use transform="matrix(0.010416666666666668,0,0,0.010416666666666668,24.802083333333336,0)" xlink:href="#E"/><use transform="matrix(0.010416666666666668,0,0,0.010416666666666668,36.78125,0)" xlink:href="#M"/><use transform="matrix(0.010416666666666668,0,0,0.010416666666666668,49.38541666666667,0)" xlink:href="#V"/><use transform="matrix(0.010416666666666668,0,0,0.010416666666666668,62.46875000000001,0)" xlink:href="#U"/><use transform="matrix(0.010416666666666668,0,0,0.010416666666666668,74.90625000000001,0)" xlink:href="#S"/><use transform="matrix(0.010416666666666668,0,0,0.010416666666666668,88.53125000000001,0)" xlink:href="#L"/><use transform="matrix(0.010416666666666668,0,0,0.010416666666666668,93.69791666666667,0)" xlink:href="#K"/><use transform="matrix(0.010416666666666668,0,0,0.010416666666666668,105.88541666666667,0)" xlink:href="#Y"/><use transform="matrix(0.010416666666666668,0,0,0.010416666666666668,117.59375000000001,0)" xlink:href="#O"/><use transform="matrix(0.010416666666666668,0,0,0.010416666666666668,130.20833333333334,0)" xlink:href="#R"/><use transform="matrix(0.010416666666666668,0,0,0.010416666666666668,143.27083333333334,0)" xlink:href="#ag"/><use transform="matrix(0.010416666666666668,0,0,0.010416666666666668,151.05208333333334,0)" xlink:href="#M"/><use transform="matrix(0.010416666666666668,0,0,0.010416666666666668,163.65625,0)" xlink:href="#U"/><use transform="matrix(0.010416666666666668,0,0,0.010416666666666668,175.70833333333334,0)" xlink:href="#an"/><use transform="matrix(0.010416666666666668,0,0,0.010416666666666668,193.16666666666669,0)" xlink:href="#I"/><use transform="matrix(0.010416666666666668,0,0,0.010416666666666668,205.22916666666669,0)" xlink:href="#J"/><use transform="matrix(0.010416666666666668,0,0,0.010416666666666668,218.02083333333337,0)" xlink:href="#K"/><use transform="matrix(0.010416666666666668,0,0,0.010416666666666668,230.41666666666669,0)" xlink:href="#E"/><use transform="matrix(0.010416666666666668,0,0,0.010416666666666668,242.39583333333337,0)" xlink:href="#G"/><use transform="matrix(0.010416666666666668,0,0,0.010416666666666668,249.375,0)" xlink:href="#L"/><use transform="matrix(0.010416666666666668,0,0,0.010416666666666668,254.54166666666666,0)" xlink:href="#J"/><use transform="matrix(0.010416666666666668,0,0,0.010416666666666668,267.3333333333333,0)" xlink:href="#M"/><use transform="matrix(0.010416666666666668,0,0,0.010416666666666668,279.9375,0)" xlink:href="#ah"/></g><path d="M1096 418H916v-591h-14C865-111 790 24 577 24c-279 0-473-224-473-580 0-354 195-576 474-576 218 0 287 134 324 193h20v-179h174V418zM604-137c203 0 314-172 314-421 0-247-108-413-314-413-212 0-317 181-317 413 0 235 108 421 317 421" id="ao"/><path d="M180 0v-1490h510c348 0 508 194 508 460 0 198-88 351-276 417L1256 0h-220L726-579c-117 2-238 0-356 1V0H180zm190-747h312c235 0 327-108 327-283 0-177-92-293-329-293H370v576" id="ap"/><path d="M98-1322v-168h1126v168H757V0H567v-1322H98" id="aq"/><g id="x"><use transform="matrix(0.010416666666666668,0,0,0.010416666666666668,0,0)" xlink:href="#W"/><use transform="matrix(0.010416666666666668,0,0,0.010416666666666668,7.677083333333336,0)" xlink:href="#U"/><use transform="matrix(0.010416666666666668,0,0,0.010416666666666668,20.114583333333336,0)" xlink:href="#ao"/><use transform="matrix(0.010416666666666668,0,0,0.010416666666666668,33.177083333333336,0)" xlink:href="#O"/><use transform="matrix(0.010416666666666668,0,0,0.010416666666666668,45.79166666666667,0)" xlink:href="#U"/><use transform="matrix(0.010416666666666668,0,0,0.010416666666666668,58.22916666666667,0)" xlink:href="#T"/><use transform="matrix(0.010416666666666668,0,0,0.010416666666666668,69.48958333333334,0)" xlink:href="#G"/><use transform="matrix(0.010416666666666668,0,0,0.010416666666666668,76.46875000000001,0)" xlink:href="#ap"/><use transform="matrix(0.010416666666666668,0,0,0.010416666666666668,90.19791666666667,0)" xlink:href="#L"/><use transform="matrix(0.010416666666666668,0,0,0.010416666666666668,95.36458333333336,0)" xlink:href="#P"/><use transform="matrix(0.010416666666666668,0,0,0.010416666666666668,108.42708333333337,0)" xlink:href="#U"/><use transform="matrix(0.010416666666666668,0,0,0.010416666666666668,120.86458333333337,0)" xlink:href="#ag"/><use transform="matrix(0.010416666666666668,0,0,0.010416666666666668,128.64583333333337,0)" xlink:href="#aa"/><use transform="matrix(0.010416666666666668,0,0,0.010416666666666668,140.21875000000006,0)" xlink:href="#U"/><use transform="matrix(0.010416666666666668,0,0,0.010416666666666668,152.65625000000006,0)" xlink:href="#X"/><use transform="matrix(0.010416666666666668,0,0,0.010416666666666668,165.2708333333334,0)" xlink:href="#L"/><use transform="matrix(0.010416666666666668,0,0,0.010416666666666668,170.43750000000006,0)" xlink:href="#K"/><use transform="matrix(0.010416666666666668,0,0,0.010416666666666668,182.62500000000006,0)" xlink:href="#F"/><use transform="matrix(0.010416666666666668,0,0,0.010416666666666668,187.7916666666667,0)" xlink:href="#U"/><use transform="matrix(0.010416666666666668,0,0,0.010416666666666668,198.56250000000006,0)" xlink:href="#aq"/><use transform="matrix(0.010416666666666668,0,0,0.010416666666666668,211.00000000000006,0)" xlink:href="#af"/><use transform="matrix(0.010416666666666668,0,0,0.010416666666666668,222.9895833333334,0)" xlink:href="#R"/><use transform="matrix(0.010416666666666668,0,0,0.010416666666666668,236.0520833333334,0)" xlink:href="#U"/><use transform="matrix(0.010416666666666668,0,0,0.010416666666666668,248.25000000000006,0)" xlink:href="#ah"/></g><g id="y"><use transform="matrix(0.010416666666666668,0,0,0.010416666666666668,0,0)" xlink:href="#T"/><use transform="matrix(0.010416666666666668,0,0,0.010416666666666668,11.260416666666668,0)" xlink:href="#U"/><use transform="matrix(0.010416666666666668,0,0,0.010416666666666668,23.906250000000004,0)" xlink:href="#E"/><use transform="matrix(0.010416666666666668,0,0,0.010416666666666668,35.88541666666667,0)" xlink:href="#W"/><use transform="matrix(0.010416666666666668,0,0,0.010416666666666668,43.56250000000001,0)" xlink:href="#K"/><use transform="matrix(0.010416666666666668,0,0,0.010416666666666668,55.75000000000001,0)" xlink:href="#X"/><use transform="matrix(0.010416666666666668,0,0,0.010416666666666668,68.36458333333334,0)" xlink:href="#L"/><use transform="matrix(0.010416666666666668,0,0,0.010416666666666668,73.53125000000001,0)" xlink:href="#M"/><use transform="matrix(0.010416666666666668,0,0,0.010416666666666668,86.13541666666667,0)" xlink:href="#V"/><use transform="matrix(0.010416666666666668,0,0,0.010416666666666668,99.21875000000001,0)" xlink:href="#ae"/><use transform="matrix(0.010416666666666668,0,0,0.010416666666666668,112.90625000000001,0)" xlink:href="#K"/><use transform="matrix(0.010416666666666668,0,0,0.010416666666666668,125.09375000000001,0)" xlink:href="#W"/><use transform="matrix(0.010416666666666668,0,0,0.010416666666666668,132.77083333333334,0)" xlink:href="#U"/><use transform="matrix(0.010416666666666668,0,0,0.010416666666666668,145.20833333333334,0)" xlink:href="#U"/><use transform="matrix(0.010416666666666668,0,0,0.010416666666666668,157.64583333333334,0)" xlink:href="#M"/></g><path d="M677 24c-213 0-288-135-325-197h-20V0H158v-1490h180v551h14c37-59 106-193 324-193 279 0 474 222 474 576 0 356-194 580-473 580zm-27-161c209 0 317-186 317-421 0-232-105-413-317-413-206 0-314 166-314 413 0 249 111 421 314 421" id="ar"/><g id="z"><use transform="matrix(0.010416666666666668,0,0,0.010416666666666668,0,0)" xlink:href="#ar"/><use transform="matrix(0.010416666666666668,0,0,0.010416666666666668,13.062500000000002,0)" xlink:href="#W"/><use transform="matrix(0.010416666666666668,0,0,0.010416666666666668,20.739583333333336,0)" xlink:href="#J"/><use transform="matrix(0.010416666666666668,0,0,0.010416666666666668,33.739583333333336,0)" xlink:href="#E"/><use transform="matrix(0.010416666666666668,0,0,0.010416666666666668,45.71874999999999,0)" xlink:href="#P"/><use transform="matrix(0.010416666666666668,0,0,0.010416666666666668,58.78125,0)" xlink:href="#K"/><use transform="matrix(0.010416666666666668,0,0,0.010416666666666668,71.17708333333334,0)" xlink:href="#E"/><use transform="matrix(0.010416666666666668,0,0,0.010416666666666668,83.15625000000001,0)" xlink:href="#T"/><use transform="matrix(0.010416666666666668,0,0,0.010416666666666668,94.41666666666667,0)" xlink:href="#G"/><use transform="matrix(0.010416666666666668,0,0,0.010416666666666668,101.39583333333336,0)" xlink:href="#ap"/><use transform="matrix(0.010416666666666668,0,0,0.010416666666666668,115.12500000000003,0)" xlink:href="#L"/><use transform="matrix(0.010416666666666668,0,0,0.010416666666666668,120.2916666666667,0)" xlink:href="#P"/><use transform="matrix(0.010416666666666668,0,0,0.010416666666666668,133.3541666666667,0)" xlink:href="#U"/><use transform="matrix(0.010416666666666668,0,0,0.010416666666666668,145.7916666666667,0)" xlink:href="#ap"/><use transform="matrix(0.010416666666666668,0,0,0.010416666666666668,159.20833333333337,0)" xlink:href="#U"/><use transform="matrix(0.010416666666666668,0,0,0.010416666666666668,171.64583333333334,0)" xlink:href="#ao"/><use transform="matrix(0.010416666666666668,0,0,0.010416666666666668,184.70833333333334,0)" xlink:href="#O"/><use transform="matrix(0.010416666666666668,0,0,0.010416666666666668,197.3229166666667,0)" xlink:href="#U"/><use transform="matrix(0.010416666666666668,0,0,0.010416666666666668,209.7604166666667,0)" xlink:href="#T"/><use transform="matrix(0.010416666666666668,0,0,0.010416666666666668,221.02083333333337,0)" xlink:href="#G"/><use transform="matrix(0.010416666666666668,0,0,0.010416666666666668,228.00000000000003,0)" xlink:href="#ag"/><use transform="matrix(0.010416666666666668,0,0,0.010416666666666668,235.78125000000003,0)" xlink:href="#ah"/></g><g id="A"><use transform="matrix(0.008463541666666668,0,0,0.008463541666666668,0,0)" xlink:href="#P"/><use transform="matrix(0.008463541666666668,0,0,0.008463541666666668,10.613281250000002,0)" xlink:href="#W"/><use transform="matrix(0.008463541666666668,0,0,0.008463541666666668,17.409505208333336,0)" xlink:href="#L"/><use transform="matrix(0.008463541666666668,0,0,0.008463541666666668,21.607421875000004,0)" xlink:href="#aa"/><use transform="matrix(0.008463541666666668,0,0,0.008463541666666668,31.01041666666667,0)" xlink:href="#U"/><use transform="matrix(0.008463541666666668,0,0,0.008463541666666668,41.11588541666667,0)" xlink:href="#W"/><use transform="matrix(0.008463541666666668,0,0,0.008463541666666668,47.91210937500001,0)" xlink:href="#Z"/><use transform="matrix(0.008463541666666668,0,0,0.008463541666666668,60.42122395833334,0)" xlink:href="#U"/><use transform="matrix(0.008463541666666668,0,0,0.008463541666666668,70.52669270833334,0)" xlink:href="#G"/><use transform="matrix(0.008463541666666668,0,0,0.008463541666666668,76.28190104166669,0)" xlink:href="#E"/><use transform="matrix(0.008463541666666668,0,0,0.008463541666666668,86.01497395833336,0)" xlink:href="#L"/><use transform="matrix(0.008463541666666668,0,0,0.008463541666666668,90.21289062500003,0)" xlink:href="#F"/><use transform="matrix(0.008463541666666668,0,0,0.008463541666666668,94.4108072916667,0)" xlink:href="#T"/></g><g id="B"><use transform="matrix(0.010416666666666668,0,0,0.010416666666666668,0,0)" xlink:href="#P"/><use transform="matrix(0.010416666666666668,0,0,0.010416666666666668,13.062500000000002,0)" xlink:href="#L"/><use transform="matrix(0.010416666666666668,0,0,0.010416666666666668,18.229166666666668,0)" xlink:href="#T"/><use transform="matrix(0.010416666666666668,0,0,0.010416666666666668,29.489583333333336,0)" xlink:href="#R"/><use transform="matrix(0.010416666666666668,0,0,0.010416666666666668,42.552083333333336,0)" xlink:href="#F"/><use transform="matrix(0.010416666666666668,0,0,0.010416666666666668,47.71874999999999,0)" xlink:href="#E"/><use transform="matrix(0.010416666666666668,0,0,0.010416666666666668,59.38541666666667,0)" xlink:href="#af"/><use transform="matrix(0.010416666666666668,0,0,0.010416666666666668,71.47916666666667,0)" xlink:href="#aj"/><use transform="matrix(0.010416666666666668,0,0,0.010416666666666668,84.30208333333334,0)" xlink:href="#W"/><use transform="matrix(0.010416666666666668,0,0,0.010416666666666668,92.66666666666667,0)" xlink:href="#W"/><use transform="matrix(0.010416666666666668,0,0,0.010416666666666668,100.34374999999999,0)" xlink:href="#J"/><use transform="matrix(0.010416666666666668,0,0,0.010416666666666668,113.13541666666669,0)" xlink:href="#W"/><use transform="matrix(0.010416666666666668,0,0,0.010416666666666668,121.16666666666669,0)" xlink:href="#ag"/><use transform="matrix(0.010416666666666668,0,0,0.010416666666666668,128.94791666666669,0)" xlink:href="#ak"/><use transform="matrix(0.010416666666666668,0,0,0.010416666666666668,138.88541666666669,0)" xlink:href="#ab"/><use transform="matrix(0.010416666666666668,0,0,0.010416666666666668,154.95833333333334,0)" xlink:href="#J"/></g><g id="C"><use transform="matrix(0.010416666666666668,0,0,0.010416666666666668,0,0)" xlink:href="#E"/><use transform="matrix(0.010416666666666668,0,0,0.010416666666666668,11.666666666666668,0)" xlink:href="#aa"/><use transform="matrix(0.010416666666666668,0,0,0.010416666666666668,23.552083333333336,0)" xlink:href="#E"/><use transform="matrix(0.010416666666666668,0,0,0.010416666666666668,35.53125,0)" xlink:href="#L"/><use transform="matrix(0.010416666666666668,0,0,0.010416666666666668,40.697916666666664,0)" xlink:href="#F"/><use transform="matrix(0.010416666666666668,0,0,0.010416666666666668,45.86458333333333,0)" xlink:href="#E"/><use transform="matrix(0.010416666666666668,0,0,0.010416666666666668,57.84375,0)" xlink:href="#ar"/><use transform="matrix(0.010416666666666668,0,0,0.010416666666666668,70.90625,0)" xlink:href="#F"/><use transform="matrix(0.010416666666666668,0,0,0.010416666666666668,76.07291666666667,0)" xlink:href="#U"/><use transform="matrix(0.010416666666666668,0,0,0.010416666666666668,88.19791666666667,0)" xlink:href="#ak"/><use transform="matrix(0.010416666666666668,0,0,0.010416666666666668,98.13541666666667,0)" xlink:href="#ah"/></g><path fill="#333" d="M128 0v-1118h290v195h12c54-169 184-238 367-200v268c-27-8-86-15-130-15-138 0-239 95-239 234V0H128" id="as"/><path fill="#333" d="M633 22C291 22 81-200 81-553c0-345 210-579 537-579 292 0 525 185 525 567v84H378c7 183 109 277 260 277 105 0 184-46 216-132l272 51C1071-99 893 22 633 22zM380-669h474c-15-146-94-237-233-237-143 0-229 99-241 237" id="at"/><path fill="#333" d="M1163 418H863v-597h-10C812-89 719 19 537 19 279 19 81-185 81-557c0-382 206-575 454-575 190 0 278 113 318 202h15v-188h295V418zM629-222c153 0 240-134 240-336 0-203-86-334-240-334-158 0-240 138-240 334 0 197 84 336 240 336" id="au"/><path fill="#333" d="M513 14c-232 0-385-159-385-421v-711h300v659c0 139 76 222 202 222 127 0 217-86 217-234v-647h301V0H864l-4-232C797-74 683 14 513 14" id="av"/><path fill="#333" d="M572 22C302 22 117-98 78-306l279-48c29 105 101 156 224 156 114 0 185-48 185-115 0-118-228-130-337-155-215-49-322-150-322-317 0-215 187-347 470-347 265 0 424 116 466 298l-266 47c-24-76-87-130-196-130-98 0-174 46-174 113 0 56 38 95 144 117l201 40c216 44 320 143 320 302 0 220-207 367-500 367" id="aw"/><path fill="#333" d="M683-1118v229H474v562c0 71 29 104 102 104 23 0 73-7 95-13l43 225C647 9 580 16 520 16 296 16 174-96 174-301v-588H20v-229h154v-266h300v266h209" id="ax"/><path fill="#333" d="M135 0v-1490h581c339 0 533 192 533 485 0 204-94 351-264 424L1302 0H964L680-532H440V0H135zm305-779h220c186 0 274-77 274-226 0-150-88-233-275-233H440v459" id="ay"/><path fill="#333" d="M128 418v-1536h295v188h14c41-89 129-202 319-202 248 0 453 193 453 575 0 372-197 576-455 576-183 0-275-108-317-198h-9v597H128zm534-640c156 0 240-139 240-336 0-196-83-334-240-334-154 0-241 131-241 334 0 202 88 336 241 336" id="az"/><path fill="#333" d="M628 22C291 22 81-210 81-554c0-346 210-578 547-578 336 0 547 232 547 578 0 344-211 576-547 576zm0-236c160 0 242-146 242-341 0-197-82-341-242-341S387-753 387-555c0 195 81 341 241 341" id="aA"/><path fill="#333" d="M428-647V0H128v-1118h283l4 231c63-156 176-245 348-245 232 0 384 159 384 421V0H847v-659c0-139-76-222-202-222-128 0-217 86-217 234" id="aB"/><g id="D"><use transform="matrix(0.008680555555555556,0,0,0.008680555555555556,0,0)" xlink:href="#as"/><use transform="matrix(0.008680555555555556,0,0,0.008680555555555556,6.805555555555556,0)" xlink:href="#at"/><use transform="matrix(0.008680555555555556,0,0,0.008680555555555556,17.395833333333336,0)" xlink:href="#au"/><use transform="matrix(0.008680555555555556,0,0,0.008680555555555556,28.602430555555557,0)" xlink:href="#av"/><use transform="matrix(0.008680555555555556,0,0,0.008680555555555556,39.67013888888889,0)" xlink:href="#at"/><use transform="matrix(0.008680555555555556,0,0,0.008680555555555556,50.26041666666667,0)" xlink:href="#aw"/><use transform="matrix(0.008680555555555556,0,0,0.008680555555555556,60.21701388888889,0)" xlink:href="#ax"/><use transform="matrix(0.008680555555555556,0,0,0.008680555555555556,66.77083333333334,0)" xlink:href="#ay"/><use transform="matrix(0.008680555555555556,0,0,0.008680555555555556,78.22916666666669,0)" xlink:href="#at"/><use transform="matrix(0.008680555555555556,0,0,0.008680555555555556,88.81944444444446,0)" xlink:href="#aw"/><use transform="matrix(0.008680555555555556,0,0,0.008680555555555556,98.77604166666669,0)" xlink:href="#az"/><use transform="matrix(0.008680555555555556,0,0,0.008680555555555556,109.98263888888891,0)" xlink:href="#aA"/><use transform="matrix(0.008680555555555556,0,0,0.008680555555555556,120.88541666666669,0)" xlink:href="#aB"/><use transform="matrix(0.008680555555555556,0,0,0.008680555555555556,131.95312500000003,0)" xlink:href="#aw"/><use transform="matrix(0.008680555555555556,0,0,0.008680555555555556,141.90972222222226,0)" xlink:href="#at"/></g></defs></g></svg>