<svg xmlns="http://www.w3.org/2000/svg" xmlns:xlink="http://www.w3.org/1999/xlink" xmlns:lucid="lucid" width="663" height="380.37"><g transform="translate(-418.5 -180.63125)" lucid:page-tab-id="B1hI6ak4FGVD"><path d="M0 0h1500v1000H0z" fill="#fff"/><path d="M460 319c0 11.05-8.95 20-20 20s-20-8.95-20-20 8.95-20 20-20 20 8.95 20 20z" stroke="#000" stroke-width="3"/><path d="M667.42 281c-8.4 0-15.2 6.8-15.2 15.2v45.6c0 8.4 6.8 15.2 15.2 15.2H804.8c8.4 0 15.2-6.8 15.2-15.2v-45.6c0-8.4-6.8-15.2-15.2-15.2z" stroke="#000" stroke-width="2" fill="#fff"/><use xlink:href="#a" transform="matrix(1,0,0,1,660.2222222222222,289) translate(0 38.26041666666667)"/><path d="M930.48 313.02l-.08 1-.24.98-.4.94-.52.87-.66.78-.77.66-.86.53-.94.4-1 .23-.98.08h-93.58v-.96h93.54l.88-.06.85-.2.8-.34.75-.45.66-.56.57-.65.45-.74.33-.8.2-.84.07-.88v-13.6h.96zm-107.52-72.54h-80.83l-.88.06-.85.2-.8.34-.74.45-.65.56-.56.65-.45.74-.34.8-.2.84-.07.88v33.48h-.96v-33.52l.07-1 .25-.98.4-.94.52-.87.66-.78.77-.66.87-.53.94-.4 1-.23 1-.07h80.86z" stroke="#3a414a" stroke-width=".05" fill="#3a414a"/><path d="M736.6 280h-.96v-.5h.95z" fill="#3a414a"/><path stroke="#3a414a" stroke-width=".05" fill="#3a414a"/><path d="M839.56 309.4l-15.8 9.13h6.74v.95h-6.73l15.8 9.1-.5.83-18.02-10.4 18.03-10.4z" stroke="#3a414a" stroke-width=".05" fill="#3a414a"/><use xlink:href="#b" transform="matrix(1,0,0,1,822.9574403753967,180.63125) translate(0 20.666666666666668)"/><use xlink:href="#c" transform="matrix(1,0,0,1,822.9574403753967,180.63125) translate(43.25000000000001 20.666666666666668)"/><use xlink:href="#d" transform="matrix(1,0,0,1,822.9574403753967,180.63125) translate(0 51.641666666666666)"/><use xlink:href="#e" transform="matrix(1,0,0,1,822.9574403753967,180.63125) translate(54.78125000000001 51.641666666666666)"/><use xlink:href="#f" transform="matrix(1,0,0,1,822.9574403753967,180.63125) translate(0 82.61666666666666)"/><use xlink:href="#g" transform="matrix(1,0,0,1,822.9574403753967,180.63125) translate(100.55208333333334 82.61666666666666)"/><use xlink:href="#h" transform="matrix(1,0,0,1,822.9574403753967,180.63125) translate(0 113.59166666666667)"/><use xlink:href="#i" transform="matrix(1,0,0,1,822.9574403753967,180.63125) translate(62.16666666666667 113.59166666666667)"/><path d="M501.23 319.48H462v-.96h39.23zm140.55 0h-30.3v-.96h30.3z" stroke="#3a414a" stroke-width=".05" fill="#3a414a"/><path d="M462 319.48h-.55l.05-.4-.02-.56h.53z" fill="#3a414a"/><path stroke="#3a414a" stroke-width=".05" fill="#3a414a"/><path d="M651.17 319l-18.03 10.4-.48-.8 15.8-9.13h-6.74v-.95h6.73l-15.8-9.1.5-.83z" stroke="#3a414a" stroke-width=".05" fill="#3a414a"/><use xlink:href="#j" transform="matrix(1,0,0,1,501.23137055864487,259.6312500000001) translate(0 20.666666666666668)"/><use xlink:href="#k" transform="matrix(1,0,0,1,501.23137055864487,259.6312500000001) translate(66.62500000000001 20.666666666666668)"/><use xlink:href="#l" transform="matrix(1,0,0,1,501.23137055864487,259.6312500000001) translate(0 51.641666666666666)"/><use xlink:href="#g" transform="matrix(1,0,0,1,501.23137055864487,259.6312500000001) translate(74.36458333333334 51.641666666666666)"/><use xlink:href="#h" transform="matrix(1,0,0,1,501.23137055864487,259.6312500000001) translate(0 82.61666666666666)"/><use xlink:href="#m" transform="matrix(1,0,0,1,501.23137055864487,259.6312500000001) translate(62.16666666666667 82.61666666666666)"/><use xlink:href="#n" transform="matrix(1,0,0,1,501.23137055864487,259.6312500000001) translate(0 113.59166666666667)"/><path d="M792 500c-6.63 0-12 5.37-12 12v36c0 6.63 5.37 12 12 12h143.78c6.63 0 12-5.37 12-12v-36c0-6.63-5.38-12-12-12z" stroke="#000" stroke-width="2" fill="#fff"/><g><use xlink:href="#o" transform="matrix(1,0,0,1,788,508) translate(0 29.760416666666668)"/></g><path d="M736.6 523.98l.06.88.2.85.33.8.44.75.57.66.66.57.74.45.8.33.85.2.88.07h27.43v.96H742.1l-1-.08-1-.24-.93-.4-.87-.52-.77-.66-.66-.77-.53-.86-.4-.94-.23-1-.06-.98v-65.1h.95zm0-90.87h-.96v-74.6h.95z" stroke="#3a414a" stroke-width=".05" fill="#3a414a"/><path d="M736.6 358.5h-.96v-.5h.95z" fill="#3a414a"/><path stroke="#3a414a" stroke-width=".05" fill="#3a414a"/><path d="M778.95 530l-18.03 10.4-.48-.8 15.8-9.13h-6.74v-.95h6.73l-15.8-9.1.5-.83z" stroke="#3a414a" stroke-width=".05" fill="#3a414a"/><g><use xlink:href="#b" transform="matrix(1,0,0,1,465.1788194444444,433.11089518483743) translate(0 20.666666666666668)"/><use xlink:href="#p" transform="matrix(1,0,0,1,465.1788194444444,433.11089518483743) translate(43.25000000000001 20.666666666666668)"/><use xlink:href="#d" transform="matrix(1,0,0,1,465.1788194444444,433.11089518483743) translate(107.28125000000003 20.666666666666668)"/><use xlink:href="#q" transform="matrix(1,0,0,1,465.1788194444444,433.11089518483743) translate(162.06250000000003 20.666666666666668)"/><use xlink:href="#r" transform="matrix(1,0,0,1,465.1788194444444,433.11089518483743) translate(262.61458333333337 20.666666666666668)"/><use xlink:href="#s" transform="matrix(1,0,0,1,465.1788194444444,433.11089518483743) translate(354.56250000000006 20.666666666666668)"/><use xlink:href="#t" transform="matrix(1,0,0,1,465.1788194444444,433.11089518483743) translate(368.25000000000006 20.666666666666668)"/><use xlink:href="#u" transform="matrix(1,0,0,1,465.1788194444444,433.11089518483743) translate(435.14583333333337 20.666666666666668)"/></g><path d="M1080 319c0 11.05-8.95 20-20 20s-20-8.95-20-20 8.95-20 20-20 20 8.95 20 20z" stroke="#000" stroke-width="3" fill="#fff"/><path d="M1072 319c0 6.63-5.37 12-12 12s-12-5.37-12-12 5.37-12 12-12 12 5.37 12 12z" stroke="#000" stroke-width="3"/><path d="M1060.47 524.02l-.07 1-.24.98-.4.94-.52.87-.66.78-.77.66-.86.53-.94.4-1 .23-.98.08H949.28v-.96h104.7l.88-.06.85-.2.8-.34.75-.45.66-.56.57-.65.45-.74.33-.8.2-.84.08-.88V349.94h.94z" stroke="#3a414a" stroke-width=".05" fill="#3a414a"/><path d="M949.3 530.48h-.52v-.96h.5z" fill="#3a414a"/><path stroke="#3a414a" stroke-width=".05" fill="#3a414a"/><path d="M1070.4 358.58l-.8.48-9.13-15.8V350h-.94v-6.73l-9.12 15.8-.8-.5 10.4-18.02z" stroke="#3a414a" stroke-width=".05" fill="#3a414a"/><defs><path d="M52 0l541-1490h220L1361 0h-200l-149-416H398L254 0H52zm404-582h497c-103-290-145-390-251-756-108 377-145 460-246 756" id="v"/><path d="M598-1118v154H368v674c0 100 37 144 132 144 23 0 62-6 92-12L629-6c-37 13-88 20-134 20-193 0-307-107-307-290v-688H20v-154h168v-266h180v266h230" id="w"/><path d="M180 0v-1490h510c348 0 508 209 508 474 0 266-160 477-507 477H370V0H180zm190-706h312c236 0 327-133 327-310 0-176-91-307-329-307H370v617" id="x"/><path d="M158 0v-1118h180V0H158zm91-1301c-68 0-125-53-125-119s57-119 125-119c69 0 126 53 126 119s-57 119-126 119" id="y"/><path d="M613 24c-304 0-509-231-509-576 0-350 205-580 509-580 216 0 392 114 453 309l-173 49c-33-115-133-197-280-197-223 0-326 196-326 419 0 220 103 415 326 415 150 0 252-85 285-206l172 49C1010-95 832 24 613 24" id="z"/><path d="M158 0v-1490h180v865h22l478-493h223L593-638 1096 0H865L456-523 338-412V0H158" id="A"/><path d="M537 14c-226 0-379-139-379-422v-710h180v695c0 172 97 275 253 275 160 0 281-109 281-300v-670h181V0H879v-209C806-46 684 14 537 14" id="B"/><path d="M158 418v-1536h174v179h20c37-59 106-193 324-193 279 0 474 222 474 576 0 356-194 580-473 580-213 0-288-135-325-197h-14v591H158zm492-555c209 0 317-186 317-421 0-232-105-413-317-413-206 0-314 166-314 413 0 249 111 421 314 421" id="C"/><g id="a"><use transform="matrix(0.010416666666666668,0,0,0.010416666666666668,0,0)" xlink:href="#v"/><use transform="matrix(0.010416666666666668,0,0,0.010416666666666668,14.302083333333336,0)" xlink:href="#w"/><use transform="matrix(0.010416666666666668,0,0,0.010416666666666668,21.281250000000004,0)" xlink:href="#x"/><use transform="matrix(0.010416666666666668,0,0,0.010416666666666668,34.90625000000001,0)" xlink:href="#y"/><use transform="matrix(0.010416666666666668,0,0,0.010416666666666668,40.07291666666667,0)" xlink:href="#z"/><use transform="matrix(0.010416666666666668,0,0,0.010416666666666668,52.26041666666667,0)" xlink:href="#A"/><use transform="matrix(0.010416666666666668,0,0,0.010416666666666668,63.96875000000001,0)" xlink:href="#B"/><use transform="matrix(0.010416666666666668,0,0,0.010416666666666668,76.58333333333334,0)" xlink:href="#C"/></g><path d="M98-1322v-168h1126v168H757V0H567v-1322H98" id="D"/><path d="M471 26C259 26 90-98 90-318c0-256 228-303 435-329 202-27 287-16 287-108 0-139-79-219-234-219-161 0-248 86-283 164l-173-57c86-203 278-265 451-265 150 0 419 46 419 395V0H815v-152h-12C765-73 660 26 471 26zm31-159c199 0 310-134 310-271v-155c-30 35-226 55-295 64-131 17-246 59-246 186 0 116 97 176 231 176" id="E"/><g id="b"><use transform="matrix(0.010416666666666668,0,0,0.010416666666666668,0,0)" xlink:href="#D"/><use transform="matrix(0.010416666666666668,0,0,0.010416666666666668,12.208333333333334,0)" xlink:href="#E"/><use transform="matrix(0.010416666666666668,0,0,0.010416666666666668,24.187500000000004,0)" xlink:href="#C"/></g><path d="M232-923l-22-567h194l-22 567H232zm340 0l-22-567h194l-22 567H572" id="F"/><path d="M657 26c-323 0-524-166-541-416h195c15 169 171 246 346 246 202 0 356-106 356-265 5-203-294-238-475-293-239-73-380-191-380-389 0-252 224-419 512-419 294 0 499 171 508 396H992c-17-145-151-228-328-228-193 0-321 102-321 242 0 156 175 211 284 241l149 41c160 44 422 134 422 412 0 244-197 432-541 432" id="G"/><path d="M158 0v-1118h174v172h12c41-113 157-188 290-188 26 0 70 2 91 3v181c-11-2-60-10-108-10-161 0-279 109-279 260V0H158" id="H"/><g id="c"><use transform="matrix(0.010416666666666668,0,0,0.010416666666666668,0,0)" xlink:href="#F"/><use transform="matrix(0.010416666666666668,0,0,0.010416666666666668,9.937500000000002,0)" xlink:href="#G"/><use transform="matrix(0.010416666666666668,0,0,0.010416666666666668,23.625000000000004,0)" xlink:href="#w"/><use transform="matrix(0.010416666666666668,0,0,0.010416666666666668,30.708333333333343,0)" xlink:href="#E"/><use transform="matrix(0.010416666666666668,0,0,0.010416666666666668,42.68750000000001,0)" xlink:href="#H"/><use transform="matrix(0.010416666666666668,0,0,0.010416666666666668,51.052083333333336,0)" xlink:href="#w"/></g><g id="d"><use transform="matrix(0.010416666666666668,0,0,0.010416666666666668,0,0)" xlink:href="#D"/><use transform="matrix(0.010416666666666668,0,0,0.010416666666666668,12.562500000000002,0)" xlink:href="#H"/><use transform="matrix(0.010416666666666668,0,0,0.010416666666666668,20.927083333333336,0)" xlink:href="#y"/><use transform="matrix(0.010416666666666668,0,0,0.010416666666666668,26.093750000000004,0)" xlink:href="#C"/><use transform="matrix(0.010416666666666668,0,0,0.010416666666666668,38.84375000000001,0)" xlink:href="#F"/></g><path d="M226 279v-1860h398v153H398V126h226v153H226" id="I"/><path d="M458 0L52-1490h194c108 439 233 855 324 1313 92-459 221-873 331-1313h216c110 438 234 854 330 1307 92-455 216-869 323-1307h196L1558 0h-221l-256-944c-26-95-50-200-73-331-22 122-44 223-73 331L680 0H458" id="J"/><path d="M613 24c-304 0-509-231-509-576 0-350 205-580 509-580 305 0 511 230 511 580 0 345-206 576-511 576zm0-161c226 0 329-195 329-415 0-222-103-419-329-419-223 0-326 196-326 419 0 220 103 415 326 415" id="K"/><path d="M338-670V0H158v-1118h173l1 207c72-158 192-221 342-221 226 0 378 139 378 422V0H872v-695c0-172-96-275-252-275-161 0-282 109-282 300" id="L"/><path d="M611 442c-248 0-391-105-460-228l146-94c47 65 117 165 314 165 178 0 307-82 307-266v-224h-17C863-141 792-18 576-18c-268 0-472-195-472-546 0-346 197-568 476-568 216 0 288 133 326 193h17v-179h175V29c0 289-215 413-487 413zm-5-620c203 0 314-146 314-390 0-237-108-403-314-403-213 0-319 180-319 403 0 230 109 390 319 390" id="M"/><g id="e"><use transform="matrix(0.010416666666666668,0,0,0.010416666666666668,0,0)" xlink:href="#I"/><use transform="matrix(0.010416666666666668,0,0,0.010416666666666668,7.781250000000001,0)" xlink:href="#J"/><use transform="matrix(0.010416666666666668,0,0,0.010416666666666668,28.083333333333336,0)" xlink:href="#H"/><use transform="matrix(0.010416666666666668,0,0,0.010416666666666668,35.76041666666667,0)" xlink:href="#K"/><use transform="matrix(0.010416666666666668,0,0,0.010416666666666668,48.552083333333336,0)" xlink:href="#L"/><use transform="matrix(0.010416666666666668,0,0,0.010416666666666668,61.156250000000014,0)" xlink:href="#M"/></g><path d="M180 0v-1490h190v1322h690V0H180" id="N"/><path d="M123 279V126h226v-1554H123v-153h398V279H123" id="O"/><g id="f"><use transform="matrix(0.010416666666666668,0,0,0.010416666666666668,0,0)" xlink:href="#N"/><use transform="matrix(0.010416666666666668,0,0,0.010416666666666668,12.062500000000002,0)" xlink:href="#K"/><use transform="matrix(0.010416666666666668,0,0,0.010416666666666668,24.854166666666668,0)" xlink:href="#z"/><use transform="matrix(0.010416666666666668,0,0,0.010416666666666668,37.25000000000001,0)" xlink:href="#E"/><use transform="matrix(0.010416666666666668,0,0,0.010416666666666668,49.22916666666667,0)" xlink:href="#w"/><use transform="matrix(0.010416666666666668,0,0,0.010416666666666668,56.20833333333334,0)" xlink:href="#y"/><use transform="matrix(0.010416666666666668,0,0,0.010416666666666668,61.37500000000001,0)" xlink:href="#K"/><use transform="matrix(0.010416666666666668,0,0,0.010416666666666668,74.16666666666667,0)" xlink:href="#L"/><use transform="matrix(0.010416666666666668,0,0,0.010416666666666668,86.77083333333334,0)" xlink:href="#O"/></g><path d="M692-1560L212 224H46l480-1784h166" id="P"/><use transform="matrix(0.010416666666666668,0,0,0.010416666666666668,0,0)" xlink:href="#P" id="g"/><path d="M338-670V0H158v-1490h180v566c73-149 190-208 336-208 226 0 379 139 379 422V0H872v-695c0-172-96-275-252-275-161 0-282 109-282 300" id="Q"/><path d="M409 0L70-1118h191c89 329 165 560 243 925 75-353 154-601 240-925h192c85 325 161 564 235 922 77-354 157-598 244-922h191L1267 0h-179c-86-307-176-590-250-913C763-588 675-308 588 0H409" id="R"/><g id="h"><use transform="matrix(0.010416666666666668,0,0,0.010416666666666668,0,0)" xlink:href="#G"/><use transform="matrix(0.010416666666666668,0,0,0.010416666666666668,13.687500000000002,0)" xlink:href="#Q"/><use transform="matrix(0.010416666666666668,0,0,0.010416666666666668,26.302083333333336,0)" xlink:href="#K"/><use transform="matrix(0.010416666666666668,0,0,0.010416666666666668,38.708333333333336,0)" xlink:href="#R"/></g><path d="M180 0v-1490h908v168H370v486h669v168H370v500h727V0H180" id="S"/><g id="i"><use transform="matrix(0.010416666666666668,0,0,0.010416666666666668,0,0)" xlink:href="#S"/><use transform="matrix(0.010416666666666668,0,0,0.010416666666666668,12.822916666666668,0)" xlink:href="#H"/><use transform="matrix(0.010416666666666668,0,0,0.010416666666666668,21.187500000000004,0)" xlink:href="#H"/><use transform="matrix(0.010416666666666668,0,0,0.010416666666666668,28.864583333333336,0)" xlink:href="#K"/><use transform="matrix(0.010416666666666668,0,0,0.010416666666666668,41.65625,0)" xlink:href="#H"/></g><path d="M481 0L54-1118h197c107 314 236 620 325 951 87-331 217-637 324-951h197L670 0H481" id="T"/><path d="M628 24c-324 0-524-230-524-574 0-343 198-582 503-582 237 0 487 146 487 559v75H286c9 234 145 362 343 362 132 0 231-58 273-172l174 48C1024-91 857 24 628 24zM287-650h624c-17-190-120-322-304-322-192 0-309 151-320 322" id="U"/><g id="j"><use transform="matrix(0.010416666666666668,0,0,0.010416666666666668,0,0)" xlink:href="#v"/><use transform="matrix(0.010416666666666668,0,0,0.010416666666666668,14.718750000000002,0)" xlink:href="#H"/><use transform="matrix(0.010416666666666668,0,0,0.010416666666666668,23.083333333333336,0)" xlink:href="#H"/><use transform="matrix(0.010416666666666668,0,0,0.010416666666666668,31.44791666666667,0)" xlink:href="#y"/><use transform="matrix(0.010416666666666668,0,0,0.010416666666666668,36.614583333333336,0)" xlink:href="#T"/><use transform="matrix(0.010416666666666668,0,0,0.010416666666666668,48.18750000000001,0)" xlink:href="#U"/></g><g id="k"><use transform="matrix(0.010416666666666668,0,0,0.010416666666666668,0,0)" xlink:href="#E"/><use transform="matrix(0.010416666666666668,0,0,0.010416666666666668,11.979166666666668,0)" xlink:href="#w"/></g><g id="l"><use transform="matrix(0.010416666666666668,0,0,0.010416666666666668,0,0)" xlink:href="#x"/><use transform="matrix(0.010416666666666668,0,0,0.010416666666666668,13.625000000000002,0)" xlink:href="#y"/><use transform="matrix(0.010416666666666668,0,0,0.010416666666666668,18.791666666666668,0)" xlink:href="#z"/><use transform="matrix(0.010416666666666668,0,0,0.010416666666666668,30.97916666666667,0)" xlink:href="#A"/><use transform="matrix(0.010416666666666668,0,0,0.010416666666666668,42.68750000000001,0)" xlink:href="#B"/><use transform="matrix(0.010416666666666668,0,0,0.010416666666666668,55.30208333333334,0)" xlink:href="#C"/></g><g id="m"><use transform="matrix(0.010416666666666668,0,0,0.010416666666666668,0,0)" xlink:href="#G"/><use transform="matrix(0.010416666666666668,0,0,0.010416666666666668,13.687500000000002,0)" xlink:href="#w"/><use transform="matrix(0.010416666666666668,0,0,0.010416666666666668,20.770833333333336,0)" xlink:href="#E"/><use transform="matrix(0.010416666666666668,0,0,0.010416666666666668,32.75,0)" xlink:href="#H"/><use transform="matrix(0.010416666666666668,0,0,0.010416666666666668,41.114583333333336,0)" xlink:href="#w"/></g><path d="M180 0v-1490h528c311 0 458 177 458 395 0 191-114 278-244 313v14c139 9 302 137 302 371 0 225-148 397-499 397H180zm190-168h350c232 0 321-102 321-231 0-149-120-277-311-277H370v508zm0-668h328c160 0 286-101 286-255 0-129-87-231-280-231H370v486" id="V"/><g id="n"><use transform="matrix(0.010416666666666668,0,0,0.010416666666666668,0,0)" xlink:href="#V"/><use transform="matrix(0.010416666666666668,0,0,0.010416666666666668,13.958333333333336,0)" xlink:href="#B"/><use transform="matrix(0.010416666666666668,0,0,0.010416666666666668,26.572916666666668,0)" xlink:href="#w"/><use transform="matrix(0.010416666666666668,0,0,0.010416666666666668,33.03125000000001,0)" xlink:href="#w"/><use transform="matrix(0.010416666666666668,0,0,0.010416666666666668,39.80208333333334,0)" xlink:href="#K"/><use transform="matrix(0.010416666666666668,0,0,0.010416666666666668,52.593750000000014,0)" xlink:href="#L"/></g><path d="M577 24c-279 0-473-224-473-580 0-354 195-576 474-576 218 0 287 134 324 193h14v-551h180V0H922v-173h-20C865-111 790 24 577 24zm27-161c203 0 314-172 314-421 0-247-108-413-314-413-212 0-317 181-317 413 0 235 108 421 317 421" id="W"/><g id="o"><use transform="matrix(0.010416666666666668,0,0,0.010416666666666668,0,0)" xlink:href="#G"/><use transform="matrix(0.010416666666666668,0,0,0.010416666666666668,13.687500000000002,0)" xlink:href="#w"/><use transform="matrix(0.010416666666666668,0,0,0.010416666666666668,20.770833333333336,0)" xlink:href="#E"/><use transform="matrix(0.010416666666666668,0,0,0.010416666666666668,32.75,0)" xlink:href="#H"/><use transform="matrix(0.010416666666666668,0,0,0.010416666666666668,41.114583333333336,0)" xlink:href="#w"/><use transform="matrix(0.010416666666666668,0,0,0.010416666666666668,47.88541666666667,0)" xlink:href="#U"/><use transform="matrix(0.010416666666666668,0,0,0.010416666666666668,60.32291666666667,0)" xlink:href="#W"/><use transform="matrix(0.010416666666666668,0,0,0.010416666666666668,73.38541666666667,0)" xlink:href="#D"/><use transform="matrix(0.010416666666666668,0,0,0.010416666666666668,85.94791666666667,0)" xlink:href="#H"/><use transform="matrix(0.010416666666666668,0,0,0.010416666666666668,94.31250000000001,0)" xlink:href="#y"/><use transform="matrix(0.010416666666666668,0,0,0.010416666666666668,99.47916666666667,0)" xlink:href="#C"/></g><g id="p"><use transform="matrix(0.010416666666666668,0,0,0.010416666666666668,0,0)" xlink:href="#F"/><use transform="matrix(0.010416666666666668,0,0,0.010416666666666668,9.937500000000002,0)" xlink:href="#G"/><use transform="matrix(0.010416666666666668,0,0,0.010416666666666668,23.625000000000004,0)" xlink:href="#w"/><use transform="matrix(0.010416666666666668,0,0,0.010416666666666668,30.708333333333343,0)" xlink:href="#E"/><use transform="matrix(0.010416666666666668,0,0,0.010416666666666668,42.68750000000001,0)" xlink:href="#H"/><use transform="matrix(0.010416666666666668,0,0,0.010416666666666668,51.052083333333336,0)" xlink:href="#w"/></g><g id="q"><use transform="matrix(0.010416666666666668,0,0,0.010416666666666668,0,0)" xlink:href="#I"/><use transform="matrix(0.010416666666666668,0,0,0.010416666666666668,7.781250000000001,0)" xlink:href="#N"/><use transform="matrix(0.010416666666666668,0,0,0.010416666666666668,19.843750000000004,0)" xlink:href="#K"/><use transform="matrix(0.010416666666666668,0,0,0.010416666666666668,32.63541666666667,0)" xlink:href="#z"/><use transform="matrix(0.010416666666666668,0,0,0.010416666666666668,45.03125000000001,0)" xlink:href="#E"/><use transform="matrix(0.010416666666666668,0,0,0.010416666666666668,57.01041666666667,0)" xlink:href="#w"/><use transform="matrix(0.010416666666666668,0,0,0.010416666666666668,63.98958333333334,0)" xlink:href="#y"/><use transform="matrix(0.010416666666666668,0,0,0.010416666666666668,69.15625000000001,0)" xlink:href="#K"/><use transform="matrix(0.010416666666666668,0,0,0.010416666666666668,81.94791666666669,0)" xlink:href="#L"/></g><path d="M600 0L52-1490h200c166 485 304 806 458 1336 156-533 285-846 449-1336h202L819 0H600" id="X"/><path d="M678-1118v154H420V0H240v-964H20v-154h220v-149c0-194 155-293 318-293 85 0 141 18 168 30l-50 154c-19-6-47-17-97-17-111 0-159 58-159 166v109h258" id="Y"/><g id="r"><use transform="matrix(0.010416666666666668,0,0,0.010416666666666668,0,0)" xlink:href="#X"/><use transform="matrix(0.010416666666666668,0,0,0.010416666666666668,13.635416666666668,0)" xlink:href="#U"/><use transform="matrix(0.010416666666666668,0,0,0.010416666666666668,26.072916666666668,0)" xlink:href="#H"/><use transform="matrix(0.010416666666666668,0,0,0.010416666666666668,34.43750000000001,0)" xlink:href="#y"/><use transform="matrix(0.010416666666666668,0,0,0.010416666666666668,39.60416666666667,0)" xlink:href="#Y"/><use transform="matrix(0.010416666666666668,0,0,0.010416666666666668,47.50000000000001,0)" xlink:href="#y"/><use transform="matrix(0.010416666666666668,0,0,0.010416666666666668,52.66666666666667,0)" xlink:href="#U"/><use transform="matrix(0.010416666666666668,0,0,0.010416666666666668,65.10416666666667,0)" xlink:href="#W"/><use transform="matrix(0.010416666666666668,0,0,0.010416666666666668,78.16666666666667,0)" xlink:href="#O"/></g><use transform="matrix(0.010416666666666668,0,0,0.010416666666666668,0,0)" xlink:href="#P" id="s"/><path d="M180 0v-1490h224l606 953c40 63 108 177 176 312-27-437-7-821-13-1265h190V0h-226C860-448 622-778 356-1262c27 476 11 792 15 1262H180" id="Z"/><path d="M140 405l46-156c120 36 205 19 263-150l32-93L54-1118h197c107 313 237 620 324 950 87-331 219-637 326-950h196L606 167c-68 178-176 259-334 259-64 0-113-12-132-21" id="aa"/><g id="t"><use transform="matrix(0.010416666666666668,0,0,0.010416666666666668,0,0)" xlink:href="#Z"/><use transform="matrix(0.010416666666666668,0,0,0.010416666666666668,16.072916666666668,0)" xlink:href="#K"/><use transform="matrix(0.010416666666666668,0,0,0.010416666666666668,28.864583333333336,0)" xlink:href="#w"/><use transform="matrix(0.010416666666666668,0,0,0.010416666666666668,35.84375,0)" xlink:href="#y"/><use transform="matrix(0.010416666666666668,0,0,0.010416666666666668,41.010416666666664,0)" xlink:href="#Y"/><use transform="matrix(0.010416666666666668,0,0,0.010416666666666668,48.90624999999999,0)" xlink:href="#aa"/></g><path d="M538 24C308 24 148-78 108-271l171-41c32 123 123 178 257 178 156 0 256-77 256-169 0-77-54-128-164-154l-186-44c-203-48-300-148-300-305 0-192 176-326 414-326 230 0 351 112 402 269l-163 42c-31-80-94-158-238-158-133 0-233 69-233 162 0 83 57 129 188 160l169 40c203 48 298 149 298 302 0 196-179 339-441 339" id="ab"/><g id="u"><use transform="matrix(0.010416666666666668,0,0,0.010416666666666668,0,0)" xlink:href="#x"/><use transform="matrix(0.010416666666666668,0,0,0.010416666666666668,13.625000000000002,0)" xlink:href="#E"/><use transform="matrix(0.010416666666666668,0,0,0.010416666666666668,25.604166666666668,0)" xlink:href="#ab"/><use transform="matrix(0.010416666666666668,0,0,0.010416666666666668,36.86458333333334,0)" xlink:href="#ab"/><use transform="matrix(0.010416666666666668,0,0,0.010416666666666668,48.125000000000014,0)" xlink:href="#U"/><use transform="matrix(0.010416666666666668,0,0,0.010416666666666668,60.562500000000014,0)" xlink:href="#L"/><use transform="matrix(0.010416666666666668,0,0,0.010416666666666668,73.16666666666669,0)" xlink:href="#M"/><use transform="matrix(0.010416666666666668,0,0,0.010416666666666668,86.25000000000001,0)" xlink:href="#U"/><use transform="matrix(0.010416666666666668,0,0,0.010416666666666668,98.68750000000001,0)" xlink:href="#H"/></g></defs></g></svg>