<svg xmlns="http://www.w3.org/2000/svg" xmlns:xlink="http://www.w3.org/1999/xlink" xmlns:lucid="lucid" width="1361.5" height="491.82"><g transform="translate(-579.5 -128.67708333333331)" lucid:page-tab-id="awiHtI6EmGXk"><path d="M500 0h1500v1000H500z" fill="#fff"/><path d="M620 380c0 11.05-8.95 20-20 20s-20-8.95-20-20 8.95-20 20-20 20 8.95 20 20z" stroke="#000"/><path d="M621 380h289.06" stroke="#3a414a" fill="none"/><path d="M621 380.48h-.56l.06-.46-.02-.5h.53z" stroke="#3a414a" stroke-width=".05" fill="#3a414a"/><path d="M901.18 370l17.32 10-17.32 10m17.32-10H910" stroke="#3a414a" fill="none"/><use xlink:href="#a" transform="matrix(1,0,0,1,652.1702948158446,328.6770833333333) translate(0 17.22222222222222)"/><use xlink:href="#b" transform="matrix(1,0,0,1,652.1702948158446,328.6770833333333) translate(57.135416666666664 17.22222222222222)"/><use xlink:href="#c" transform="matrix(1,0,0,1,652.1702948158446,328.6770833333333) translate(160.19097222222223 17.22222222222222)"/><use xlink:href="#d" transform="matrix(1,0,0,1,652.1702948158446,328.6770833333333) translate(171.30208333333334 17.22222222222222)"/><use xlink:href="#e" transform="matrix(1,0,0,1,652.1702948158446,328.6770833333333) translate(0 43.034722222222214)"/><use xlink:href="#f" transform="matrix(1,0,0,1,652.1702948158446,328.6770833333333) translate(88.98437500000001 43.034722222222214)"/><use xlink:href="#g" transform="matrix(1,0,0,1,652.1702948158446,328.6770833333333) translate(189.34895833333337 43.034722222222214)"/><path d="M936 340c-8.84 0-16 7.16-16 16v48c0 8.84 7.16 16 16 16h188c8.84 0 16-7.16 16-16v-48c0-8.84-7.16-16-16-16z" stroke="#000" fill="#fff"/><use xlink:href="#h" transform="matrix(1,0,0,1,928,348) translate(1.3109809027777999 40.083767361111114)"/><path d="M1030.47 339h-.94v-56.06h.94zm119.6-158.53H1036l-.88.07-.85.2-.8.34-.75.45-.66.56-.57.65-.45.74-.33.8-.2.84-.08.88v75.4h-.94V186l.07-1 .24-.98.4-.94.52-.87.66-.78.77-.66.86-.53.94-.4 1-.23.98-.07h114.08z" stroke="#3a414a" stroke-width=".05" fill="#3a414a"/><path d="M1030.47 339.5h-.94v-.5h.94z" fill="#3a414a"/><path stroke="#3a414a" stroke-width=".05" fill="#3a414a"/><path d="M1159.45 180l-18.03 10.4-.48-.8 15.8-9.13H1150v-.94h6.73l-15.8-9.12.5-.8z" stroke="#3a414a" stroke-width=".05" fill="#3a414a"/><use xlink:href="#i" transform="matrix(1,0,0,1,864.0538194444445,261.43225248171376) translate(0 17.22222222222222)"/><use xlink:href="#j" transform="matrix(1,0,0,1,864.0538194444445,261.43225248171376) translate(79.25347222222221 17.22222222222222)"/><use xlink:href="#k" transform="matrix(1,0,0,1,864.0538194444445,261.43225248171376) translate(100.703125 17.22222222222222)"/><use xlink:href="#l" transform="matrix(1,0,0,1,864.0538194444445,261.43225248171376) translate(168.06423611111111 17.22222222222222)"/><use xlink:href="#m" transform="matrix(1,0,0,1,864.0538194444445,261.43225248171376) translate(198.37673611111111 17.22222222222222)"/><use xlink:href="#n" transform="matrix(1,0,0,1,864.0538194444445,261.43225248171376) translate(235.18229166666669 17.22222222222222)"/><use xlink:href="#o" transform="matrix(1,0,0,1,864.0538194444445,261.43225248171376) translate(280.32986111111114 17.22222222222222)"/><path d="M1176 140c-8.84 0-16 7.16-16 16v48c0 8.84 7.16 16 16 16h128c8.84 0 16-7.16 16-16v-48c0-8.84-7.16-16-16-16z" stroke="#000" fill="#fff"/><use xlink:href="#p" transform="matrix(1,0,0,1,1168,148) translate(-1.551432291666643 40.083767361111114)"/><path d="M1030.47 573.98l.07.88.2.85.34.8.45.75.56.66.65.57.74.45.8.33.84.2.88.07h114.04v.96h-114.08l-1-.08-.98-.24-.94-.4-.87-.52-.78-.66-.66-.77-.53-.86-.4-.94-.23-1-.07-.98v-74.06h.94zm0-95.54h-.94V421h.94z" stroke="#3a414a" stroke-width=".05" fill="#3a414a"/><path d="M1030.47 421h-.94v-.5h.94z" fill="#3a414a"/><path stroke="#3a414a" stroke-width=".05" fill="#3a414a"/><path d="M1159.45 580l-18.03 10.4-.48-.8 15.8-9.13H1150v-.95h6.73l-15.8-9.1.5-.83z" stroke="#3a414a" stroke-width=".05" fill="#3a414a"/><use xlink:href="#i" transform="matrix(1,0,0,1,824.140625,478.44479166666673) translate(0 17.22222222222222)"/><use xlink:href="#j" transform="matrix(1,0,0,1,824.140625,478.44479166666673) translate(79.25347222222221 17.22222222222222)"/><use xlink:href="#q" transform="matrix(1,0,0,1,824.140625,478.44479166666673) translate(100.703125 17.22222222222222)"/><use xlink:href="#l" transform="matrix(1,0,0,1,824.140625,478.44479166666673) translate(207.11805555555557 17.22222222222222)"/><use xlink:href="#m" transform="matrix(1,0,0,1,824.140625,478.44479166666673) translate(237.43055555555557 17.22222222222222)"/><use xlink:href="#n" transform="matrix(1,0,0,1,824.140625,478.44479166666673) translate(274.23611111111114 17.22222222222222)"/><use xlink:href="#r" transform="matrix(1,0,0,1,824.140625,478.44479166666673) translate(319.3836805555556 17.22222222222222)"/><path d="M1176 540c-8.84 0-16 7.16-16 16v48c0 8.84 7.16 16 16 16h188c8.84 0 16-7.16 16-16v-48c0-8.84-7.16-16-16-16z" stroke="#000" fill="#fff"/><use xlink:href="#s" transform="matrix(1,0,0,1,1168,548) translate(4.620442708333357 40.083767361111114)"/><path d="M1321 180h229.06" stroke="#3a414a" fill="none"/><path d="M1321 180.47h-.5v-.94h.5z" stroke="#3a414a" stroke-width=".05" fill="#3a414a"/><path d="M1541.18 170l17.32 10-17.32 10m17.32-10h-8.5" stroke="#3a414a" fill="none"/><use xlink:href="#t" transform="matrix(1,0,0,1,1355.2039930555557,128.67708333333331) translate(0 17.22222222222222)"/><use xlink:href="#u" transform="matrix(1,0,0,1,1355.2039930555557,128.67708333333331) translate(37.33506944444444 17.22222222222222)"/><use xlink:href="#v" transform="matrix(1,0,0,1,1355.2039930555557,128.67708333333331) translate(59.6875 17.22222222222222)"/><use xlink:href="#w" transform="matrix(1,0,0,1,1355.2039930555557,128.67708333333331) translate(118.02951388888889 17.22222222222222)"/><use xlink:href="#x" transform="matrix(1,0,0,1,1355.2039930555557,128.67708333333331) translate(0 43.034722222222214)"/><path d="M1576 140c-8.84 0-16 7.16-16 16v48c0 8.84 7.16 16 16 16h148c8.84 0 16-7.16 16-16v-48c0-8.84-7.16-16-16-16z" stroke="#000" fill="#fff"/><use xlink:href="#y" transform="matrix(1,0,0,1,1568,148) translate(-1.7185329861110858 40.083767361111114)"/><path d="M1650.47 574.02l-.07 1-.24.98-.4.94-.52.87-.66.78-.77.66-.86.53-.94.4-1 .23-.98.08H1381v-.96h262.98l.88-.06.85-.2.8-.34.75-.45.66-.56.57-.65.45-.74.33-.8.2-.84.08-.88v-38.32h.94zm0-85.68h-.94v-58.4h.94z" stroke="#3a414a" stroke-width=".05" fill="#3a414a"/><path d="M1381 580.48h-.5v-.96h.5z" fill="#3a414a"/><path stroke="#3a414a" stroke-width=".05" fill="#3a414a"/><path d="M1660.4 438.58l-.8.48-9.13-15.8V430h-.94v-6.73l-9.12 15.8-.8-.5 10.4-18.02z" stroke="#3a414a" stroke-width=".05" fill="#3a414a"/><g><use xlink:href="#z" transform="matrix(1,0,0,1,1530.4991319444443,488.3406132006864) translate(0 17.22222222222222)"/><use xlink:href="#A" transform="matrix(1,0,0,1,1530.4991319444443,488.3406132006864) translate(48.58506944444445 17.22222222222222)"/><use xlink:href="#B" transform="matrix(1,0,0,1,1530.4991319444443,488.3406132006864) translate(139.12326388888889 17.22222222222222)"/><use xlink:href="#C" transform="matrix(1,0,0,1,1530.4991319444443,488.3406132006864) translate(163.61111111111111 17.22222222222222)"/><use xlink:href="#D" transform="matrix(1,0,0,1,1530.4991319444443,488.3406132006864) translate(0 43.034722222222214)"/><use xlink:href="#E" transform="matrix(1,0,0,1,1530.4991319444443,488.3406132006864) translate(11.11111111111111 43.034722222222214)"/><use xlink:href="#F" transform="matrix(1,0,0,1,1530.4991319444443,488.3406132006864) translate(78.04687500000001 43.034722222222214)"/></g><path d="M1650.47 330.06h-.94v-26.4h.94zm0-73.72h-.94V221h.94z" stroke="#3a414a" stroke-width=".05" fill="#3a414a"/><path d="M1650.47 221h-.94v-.5h.94z" fill="#3a414a"/><path stroke="#3a414a" stroke-width=".05" fill="#3a414a"/><path d="M1660.4 321.42l-10.4 18.03-10.4-18.03.8-.48 9.13 15.8V330h.94v6.73l9.12-15.8z" stroke="#3a414a" stroke-width=".05" fill="#3a414a"/><g><use xlink:href="#z" transform="matrix(1,0,0,1,1530.4991319444443,256.3385416666667) translate(0 17.22222222222222)"/><use xlink:href="#A" transform="matrix(1,0,0,1,1530.4991319444443,256.3385416666667) translate(48.58506944444445 17.22222222222222)"/><use xlink:href="#B" transform="matrix(1,0,0,1,1530.4991319444443,256.3385416666667) translate(139.12326388888889 17.22222222222222)"/><use xlink:href="#C" transform="matrix(1,0,0,1,1530.4991319444443,256.3385416666667) translate(163.61111111111111 17.22222222222222)"/><use xlink:href="#D" transform="matrix(1,0,0,1,1530.4991319444443,256.3385416666667) translate(0 43.034722222222214)"/><use xlink:href="#E" transform="matrix(1,0,0,1,1530.4991319444443,256.3385416666667) translate(11.11111111111111 43.034722222222214)"/><use xlink:href="#F" transform="matrix(1,0,0,1,1530.4991319444443,256.3385416666667) translate(78.04687500000001 43.034722222222214)"/></g><path d="M1141 380h389.06" stroke="#3a414a" fill="none"/><path d="M1141 380.48h-.5v-.96h.5z" stroke="#3a414a" stroke-width=".05" fill="#3a414a"/><path d="M1521.18 370l17.32 10-17.32 10m17.32-10h-8.5" stroke="#3a414a" fill="none"/><g><use xlink:href="#z" transform="matrix(1,0,0,1,1220.4991319444443,328.6770833333333) translate(0 17.22222222222222)"/><use xlink:href="#A" transform="matrix(1,0,0,1,1220.4991319444443,328.6770833333333) translate(48.58506944444445 17.22222222222222)"/><use xlink:href="#B" transform="matrix(1,0,0,1,1220.4991319444443,328.6770833333333) translate(139.12326388888889 17.22222222222222)"/><use xlink:href="#C" transform="matrix(1,0,0,1,1220.4991319444443,328.6770833333333) translate(163.61111111111111 17.22222222222222)"/><use xlink:href="#D" transform="matrix(1,0,0,1,1220.4991319444443,328.6770833333333) translate(0 43.034722222222214)"/><use xlink:href="#E" transform="matrix(1,0,0,1,1220.4991319444443,328.6770833333333) translate(11.11111111111111 43.034722222222214)"/><use xlink:href="#F" transform="matrix(1,0,0,1,1220.4991319444443,328.6770833333333) translate(78.04687500000001 43.034722222222214)"/></g><path d="M1556 340c-8.84 0-16 7.16-16 16v48c0 8.84 7.16 16 16 16h188c8.84 0 16-7.16 16-16v-48c0-8.84-7.16-16-16-16z" stroke="#000" fill="#fff"/><g><use xlink:href="#G" transform="matrix(1,0,0,1,1548,348) translate(0.8172743055555713 40.083767361111114)"/></g><path d="M1940 380c0 11.05-8.95 20-20 20s-20-8.95-20-20 8.95-20 20-20 20 8.95 20 20z" stroke="#000" stroke-width="2" fill="#fff"/><path d="M1932 380c0 6.63-5.37 12-12 12s-12-5.37-12-12 5.37-12 12-12 12 5.37 12 12z" stroke="#000" stroke-width="2"/><path d="M1761 380h128.56" stroke="#3a414a" fill="none"/><path d="M1761 380.48h-.5v-.96h.5z" stroke="#3a414a" stroke-width=".05" fill="#3a414a"/><path d="M1880.68 370l17.32 10-17.32 10m17.32-10h-8.5" stroke="#3a414a" fill="none"/><defs><path fill="#333" d="M572 22C302 22 117-98 78-306l279-48c29 105 101 156 224 156 114 0 185-48 185-115 0-118-228-130-337-155-215-49-322-150-322-317 0-215 187-347 470-347 265 0 424 116 466 298l-266 47c-24-76-87-130-196-130-98 0-174 46-174 113 0 56 38 95 144 117l201 40c216 44 320 143 320 302 0 220-207 367-500 367" id="H"/><path fill="#333" d="M633 22C291 22 81-200 81-553c0-345 210-579 537-579 292 0 525 185 525 567v84H378c7 183 109 277 260 277 105 0 184-46 216-132l272 51C1071-99 893 22 633 22zM380-669h474c-15-146-94-237-233-237-143 0-229 99-241 237" id="I"/><path fill="#333" d="M428-1490V0H128v-1490h300" id="J"/><path fill="#333" d="M628 22C291 22 81-210 81-554c0-346 210-578 547-578 265 0 455 142 497 372l-279 52c-25-116-99-188-215-188-160 0-244 139-244 341 0 200 84 341 244 341 116 0 193-74 217-195l279 51C1085-123 896 22 628 22" id="K"/><path fill="#333" d="M683-1118v229H474v562c0 71 29 104 102 104 23 0 73-7 95-13l43 225C647 9 580 16 520 16 296 16 174-96 174-301v-588H20v-229h154v-266h300v266h209" id="L"/><g id="a"><use transform="matrix(0.008680555555555556,0,0,0.008680555555555556,0,0)" xlink:href="#H"/><use transform="matrix(0.008680555555555556,0,0,0.008680555555555556,9.956597222222223,0)" xlink:href="#I"/><use transform="matrix(0.008680555555555556,0,0,0.008680555555555556,20.546875,0)" xlink:href="#J"/><use transform="matrix(0.008680555555555556,0,0,0.008680555555555556,25.364583333333336,0)" xlink:href="#I"/><use transform="matrix(0.008680555555555556,0,0,0.008680555555555556,35.954861111111114,0)" xlink:href="#K"/><use transform="matrix(0.008680555555555556,0,0,0.008680555555555556,46.41493055555556,0)" xlink:href="#L"/></g><path fill="#333" d="M786 20C389 20 94-260 94-744c0-487 299-766 692-766 339 0 597 194 641 529h-309c-28-162-156-258-326-258-233 0-388 179-388 495 0 323 157 493 387 493 170 0 298-97 328-259h309c-34 277-266 530-642 530" id="M"/><path fill="#333" d="M628 22C291 22 81-210 81-554c0-346 210-578 547-578 336 0 547 232 547 578 0 344-211 576-547 576zm0-236c160 0 242-146 242-341 0-197-82-341-242-341S387-753 387-555c0 195 81 341 241 341" id="N"/><path fill="#333" d="M128 0v-1118h278l12 217c60-163 185-234 319-234 143 0 236 81 288 251 63-172 205-251 359-251 205 0 357 138 357 381V0h-301v-697c0-126-76-187-177-187-114 0-184 79-184 196V0H789v-705c0-109-72-179-174-179-106 0-187 74-187 208V0H128" id="O"/><path fill="#333" d="M128 418v-1536h295v188h14c41-89 129-202 319-202 248 0 453 193 453 575 0 372-197 576-455 576-183 0-275-108-317-198h-9v597H128zm534-640c156 0 240-139 240-336 0-196-83-334-240-334-154 0-241 131-241 334 0 202 88 336 241 336" id="P"/><path fill="#333" d="M440 22C227 22 68-92 68-313c0-250 202-322 422-343 195-21 271-24 271-105 0-95-63-149-175-149-116 0-187 57-211 129l-275-46c57-194 237-305 487-305 240 0 474 108 474 379V0H777v-155h-10C713-51 605 22 440 22zm85-211c140 0 238-93 238-211v-121c-37 26-156 42-222 51-111 16-185 59-185 149 0 87 70 132 169 132" id="Q"/><path fill="#333" d="M128 0v-1118h300V0H128zm150-1264c-91 0-165-68-165-154 0-85 74-154 165-154 90 0 165 69 165 154 0 86-75 154-165 154" id="R"/><path fill="#333" d="M428-647V0H128v-1118h283l4 231c63-156 176-245 348-245 232 0 384 159 384 421V0H847v-659c0-139-76-222-202-222-128 0-217 86-217 234" id="S"/><g id="b"><use transform="matrix(0.008680555555555556,0,0,0.008680555555555556,0,0)" xlink:href="#M"/><use transform="matrix(0.008680555555555556,0,0,0.008680555555555556,13.151041666666668,0)" xlink:href="#N"/><use transform="matrix(0.008680555555555556,0,0,0.008680555555555556,24.053819444444446,0)" xlink:href="#O"/><use transform="matrix(0.008680555555555556,0,0,0.008680555555555556,40.277777777777786,0)" xlink:href="#P"/><use transform="matrix(0.008680555555555556,0,0,0.008680555555555556,51.48437500000001,0)" xlink:href="#J"/><use transform="matrix(0.008680555555555556,0,0,0.008680555555555556,56.30208333333334,0)" xlink:href="#Q"/><use transform="matrix(0.008680555555555556,0,0,0.008680555555555556,66.6232638888889,0)" xlink:href="#R"/><use transform="matrix(0.008680555555555556,0,0,0.008680555555555556,71.44097222222223,0)" xlink:href="#S"/><use transform="matrix(0.008680555555555556,0,0,0.008680555555555556,82.50868055555556,0)" xlink:href="#L"/><use transform="matrix(0.008680555555555556,0,0,0.008680555555555556,88.88888888888889,0)" xlink:href="#H"/></g><path fill="#333" d="M768-1560L288 224H28l480-1784h260" id="T"/><use transform="matrix(0.008680555555555556,0,0,0.008680555555555556,0,0)" xlink:href="#T" id="c"/><path fill="#333" d="M659 0H135v-1490h529c448 0 721 280 721 744 0 466-273 746-726 746zM440-263h204c287 0 437-148 437-483 0-333-150-481-435-481H440v964" id="U"/><path fill="#333" d="M120 396l69-226c123 42 245 23 254-107l8-60L31-1118h319c87 288 199 559 259 872 72-308 185-583 277-872h315L726 132c-68 181-186 294-410 294-79 0-153-13-196-30" id="V"/><g id="d"><use transform="matrix(0.008680555555555556,0,0,0.008680555555555556,0,0)" xlink:href="#U"/><use transform="matrix(0.008680555555555556,0,0,0.008680555555555556,12.838541666666668,0)" xlink:href="#R"/><use transform="matrix(0.008680555555555556,0,0,0.008680555555555556,17.65625,0)" xlink:href="#H"/><use transform="matrix(0.008680555555555556,0,0,0.008680555555555556,27.612847222222218,0)" xlink:href="#P"/><use transform="matrix(0.008680555555555556,0,0,0.008680555555555556,38.81944444444444,0)" xlink:href="#J"/><use transform="matrix(0.008680555555555556,0,0,0.008680555555555556,43.63715277777778,0)" xlink:href="#Q"/><use transform="matrix(0.008680555555555556,0,0,0.008680555555555556,53.65451388888889,0)" xlink:href="#V"/></g><path fill="#333" d="M537 19C279 19 81-185 81-557c0-382 206-575 454-575 190 0 278 113 318 202h10v-560h300V0H868v-179h-15C812-89 719 19 537 19zm92-241c153 0 240-134 240-336 0-203-86-334-240-334-158 0-240 138-240 334 0 197 84 336 240 336" id="W"/><g id="e"><use transform="matrix(0.008680555555555556,0,0,0.008680555555555556,0,0)" xlink:href="#I"/><use transform="matrix(0.008680555555555556,0,0,0.008680555555555556,10.590277777777779,0)" xlink:href="#H"/><use transform="matrix(0.008680555555555556,0,0,0.008680555555555556,20.546875,0)" xlink:href="#K"/><use transform="matrix(0.008680555555555556,0,0,0.008680555555555556,31.180555555555557,0)" xlink:href="#Q"/><use transform="matrix(0.008680555555555556,0,0,0.008680555555555556,41.501736111111114,0)" xlink:href="#J"/><use transform="matrix(0.008680555555555556,0,0,0.008680555555555556,46.31944444444445,0)" xlink:href="#Q"/><use transform="matrix(0.008680555555555556,0,0,0.008680555555555556,56.64062500000001,0)" xlink:href="#L"/><use transform="matrix(0.008680555555555556,0,0,0.008680555555555556,62.97743055555556,0)" xlink:href="#I"/><use transform="matrix(0.008680555555555556,0,0,0.008680555555555556,73.56770833333334,0)" xlink:href="#W"/></g><g id="f"><use transform="matrix(0.008680555555555556,0,0,0.008680555555555556,0,0)" xlink:href="#K"/><use transform="matrix(0.008680555555555556,0,0,0.008680555555555556,10.460069444444445,0)" xlink:href="#N"/><use transform="matrix(0.008680555555555556,0,0,0.008680555555555556,21.36284722222222,0)" xlink:href="#O"/><use transform="matrix(0.008680555555555556,0,0,0.008680555555555556,37.58680555555556,0)" xlink:href="#P"/><use transform="matrix(0.008680555555555556,0,0,0.008680555555555556,48.79340277777778,0)" xlink:href="#J"/><use transform="matrix(0.008680555555555556,0,0,0.008680555555555556,53.611111111111114,0)" xlink:href="#Q"/><use transform="matrix(0.008680555555555556,0,0,0.008680555555555556,63.93229166666667,0)" xlink:href="#R"/><use transform="matrix(0.008680555555555556,0,0,0.008680555555555556,68.75,0)" xlink:href="#S"/><use transform="matrix(0.008680555555555556,0,0,0.008680555555555556,79.81770833333331,0)" xlink:href="#L"/><use transform="matrix(0.008680555555555556,0,0,0.008680555555555556,86.19791666666667,0)" xlink:href="#H"/></g><g id="g"><use transform="matrix(0.008680555555555556,0,0,0.008680555555555556,0,0)" xlink:href="#J"/><use transform="matrix(0.008680555555555556,0,0,0.008680555555555556,4.817708333333334,0)" xlink:href="#R"/><use transform="matrix(0.008680555555555556,0,0,0.008680555555555556,9.635416666666668,0)" xlink:href="#H"/><use transform="matrix(0.008680555555555556,0,0,0.008680555555555556,19.592013888888893,0)" xlink:href="#L"/></g><path d="M600 0L52-1490h200c166 485 304 806 458 1336 156-533 285-846 449-1336h202L819 0H600" id="X"/><path d="M158 0v-1118h180V0H158zm91-1301c-68 0-125-53-125-119s57-119 125-119c69 0 126 53 126 119s-57 119-126 119" id="Y"/><path d="M628 24c-324 0-524-230-524-574 0-343 198-582 503-582 237 0 487 146 487 559v75H286c9 234 145 362 343 362 132 0 231-58 273-172l174 48C1024-91 857 24 628 24zM287-650h624c-17-190-120-322-304-322-192 0-309 151-320 322" id="Z"/><path d="M409 0L70-1118h191c89 329 165 560 243 925 75-353 154-601 240-925h192c85 325 161 564 235 922 77-354 157-598 244-922h191L1267 0h-179c-86-307-176-590-250-913C763-588 675-308 588 0H409" id="aa"/><path d="M338-670V0H158v-1118h173l1 207c72-158 192-221 342-221 226 0 378 139 378 422V0H872v-695c0-172-96-275-252-275-161 0-282 109-282 300" id="ab"/><path d="M611 442c-248 0-391-105-460-228l146-94c47 65 117 165 314 165 178 0 307-82 307-266v-224h-17C863-141 792-18 576-18c-268 0-472-195-472-546 0-346 197-568 476-568 216 0 288 133 326 193h17v-179h175V29c0 289-215 413-487 413zm-5-620c203 0 314-146 314-390 0-237-108-403-314-403-213 0-319 180-319 403 0 230 109 390 319 390" id="ac"/><path d="M783 20c-382 0-661-292-661-764 0-473 279-766 661-766 302 0 548 182 601 489h-190c-42-204-217-313-411-313-268 0-476 208-476 590 0 381 209 588 476 588 195 0 369-110 411-313h190c-52 303-296 489-601 489" id="ad"/><path d="M613 24c-304 0-509-231-509-576 0-350 205-580 509-580 305 0 511 230 511 580 0 345-206 576-511 576zm0-161c226 0 329-195 329-415 0-222-103-419-329-419-223 0-326 196-326 419 0 220 103 415 326 415" id="ae"/><path d="M158 0v-1118h175l1 205c55-151 181-225 313-225 147 0 245 90 285 228 53-141 190-228 352-228 194 0 352 125 352 384V0h-181v-749c0-161-105-225-225-225-151 0-243 103-243 244V0H807v-767c0-124-93-207-219-207-131 0-250 92-250 270V0H158" id="af"/><path d="M158 418v-1536h174v179h20c37-59 106-193 324-193 279 0 474 222 474 576 0 356-194 580-473 580-213 0-288-135-325-197h-14v591H158zm492-555c209 0 317-186 317-421 0-232-105-413-317-413-206 0-314 166-314 413 0 249 111 421 314 421" id="ag"/><path d="M338-1490V0H158v-1490h180" id="ah"/><path d="M471 26C259 26 90-98 90-318c0-256 228-303 435-329 202-27 287-16 287-108 0-139-79-219-234-219-161 0-248 86-283 164l-173-57c86-203 278-265 451-265 150 0 419 46 419 395V0H815v-152h-12C765-73 660 26 471 26zm31-159c199 0 310-134 310-271v-155c-30 35-226 55-295 64-131 17-246 59-246 186 0 116 97 176 231 176" id="ai"/><path d="M598-1118v154H368v674c0 100 37 144 132 144 23 0 62-6 92-12L629-6c-37 13-88 20-134 20-193 0-307-107-307-290v-688H20v-154h168v-266h180v266h230" id="aj"/><path d="M538 24C308 24 148-78 108-271l171-41c32 123 123 178 257 178 156 0 256-77 256-169 0-77-54-128-164-154l-186-44c-203-48-300-148-300-305 0-192 176-326 414-326 230 0 351 112 402 269l-163 42c-31-80-94-158-238-158-133 0-233 69-233 162 0 83 57 129 188 160l169 40c203 48 298 149 298 302 0 196-179 339-441 339" id="ak"/><g id="h"><use transform="matrix(0.010850694444444442,0,0,0.010850694444444442,0,0)" xlink:href="#X"/><use transform="matrix(0.010850694444444442,0,0,0.010850694444444442,15.332031249999996,0)" xlink:href="#Y"/><use transform="matrix(0.010850694444444442,0,0,0.010850694444444442,20.71397569444444,0)" xlink:href="#Z"/><use transform="matrix(0.010850694444444442,0,0,0.010850694444444442,33.26822916666666,0)" xlink:href="#aa"/><use transform="matrix(0.010850694444444442,0,0,0.010850694444444442,51.45399305555554,0)" xlink:href="#Y"/><use transform="matrix(0.010850694444444442,0,0,0.010850694444444442,56.835937499999986,0)" xlink:href="#ab"/><use transform="matrix(0.010850694444444442,0,0,0.010850694444444442,69.96527777777776,0)" xlink:href="#ac"/><use transform="matrix(0.010850694444444442,0,0,0.010850694444444442,83.59374999999997,0)" xlink:href="#ad"/><use transform="matrix(0.010850694444444442,0,0,0.010850694444444442,99.82638888888884,0)" xlink:href="#ae"/><use transform="matrix(0.010850694444444442,0,0,0.010850694444444442,113.15104166666663,0)" xlink:href="#af"/><use transform="matrix(0.010850694444444442,0,0,0.010850694444444442,132.61718749999994,0)" xlink:href="#ag"/><use transform="matrix(0.010850694444444442,0,0,0.010850694444444442,146.2239583333333,0)" xlink:href="#ah"/><use transform="matrix(0.010850694444444442,0,0,0.010850694444444442,151.60590277777774,0)" xlink:href="#ai"/><use transform="matrix(0.010850694444444442,0,0,0.010850694444444442,164.08420138888886,0)" xlink:href="#Y"/><use transform="matrix(0.010850694444444442,0,0,0.010850694444444442,169.46614583333331,0)" xlink:href="#ab"/><use transform="matrix(0.010850694444444442,0,0,0.010850694444444442,182.5954861111111,0)" xlink:href="#aj"/><use transform="matrix(0.010850694444444442,0,0,0.010850694444444442,189.64843749999997,0)" xlink:href="#ak"/></g><path fill="#333" d="M443 0L31-1118h319c90 293 199 572 268 885 66-313 175-593 264-885h315L784 0H443" id="al"/><path fill="#333" d="M625 442c-280 0-454-114-503-274l258-72c28 63 97 128 243 128 153 0 246-69 246-216v-206h-23C805-108 717-16 536-16 284-16 81-191 81-561c0-378 208-571 456-571 188 0 280 113 321 202h13v-188h295V-9c0 303-226 451-541 451zm5-686c153 0 240-119 240-319 0-198-86-329-240-329-158 0-241 137-241 329 0 195 85 319 241 319" id="am"/><g id="i"><use transform="matrix(0.008680555555555556,0,0,0.008680555555555556,0,0)" xlink:href="#S"/><use transform="matrix(0.008680555555555556,0,0,0.008680555555555556,11.067708333333334,0)" xlink:href="#Q"/><use transform="matrix(0.008680555555555556,0,0,0.008680555555555556,21.085069444444443,0)" xlink:href="#al"/><use transform="matrix(0.008680555555555556,0,0,0.008680555555555556,31.744791666666664,0)" xlink:href="#R"/><use transform="matrix(0.008680555555555556,0,0,0.008680555555555556,36.5625,0)" xlink:href="#am"/><use transform="matrix(0.008680555555555556,0,0,0.008680555555555556,47.795138888888886,0)" xlink:href="#Q"/><use transform="matrix(0.008680555555555556,0,0,0.008680555555555556,58.116319444444436,0)" xlink:href="#L"/><use transform="matrix(0.008680555555555556,0,0,0.008680555555555556,64.453125,0)" xlink:href="#I"/></g><g id="j"><use transform="matrix(0.008680555555555556,0,0,0.008680555555555556,0,0)" xlink:href="#L"/><use transform="matrix(0.008680555555555556,0,0,0.008680555555555556,6.336805555555556,0)" xlink:href="#N"/></g><path fill="#333" d="M128 0v-1118h290v195h12c54-169 184-238 367-200v268c-27-8-86-15-130-15-138 0-239 95-239 234V0H128" id="an"/><g id="k"><use transform="matrix(0.008680555555555556,0,0,0.008680555555555556,0,0)" xlink:href="#U"/><use transform="matrix(0.008680555555555556,0,0,0.008680555555555556,12.838541666666668,0)" xlink:href="#an"/><use transform="matrix(0.008680555555555556,0,0,0.008680555555555556,20.208333333333336,0)" xlink:href="#R"/><use transform="matrix(0.008680555555555556,0,0,0.008680555555555556,25.02604166666667,0)" xlink:href="#al"/><use transform="matrix(0.008680555555555556,0,0,0.008680555555555556,35.364583333333336,0)" xlink:href="#I"/><use transform="matrix(0.008680555555555556,0,0,0.008680555555555556,45.954861111111114,0)" xlink:href="#an"/><use transform="matrix(0.008680555555555556,0,0,0.008680555555555556,53.19444444444445,0)" xlink:href="#H"/></g><g id="l"><use transform="matrix(0.008680555555555556,0,0,0.008680555555555556,0,0)" xlink:href="#J"/><use transform="matrix(0.008680555555555556,0,0,0.008680555555555556,4.817708333333334,0)" xlink:href="#R"/><use transform="matrix(0.008680555555555556,0,0,0.008680555555555556,9.635416666666668,0)" xlink:href="#H"/><use transform="matrix(0.008680555555555556,0,0,0.008680555555555556,19.592013888888893,0)" xlink:href="#L"/></g><g id="m"><use transform="matrix(0.008680555555555556,0,0,0.008680555555555556,0,0)" xlink:href="#Q"/><use transform="matrix(0.008680555555555556,0,0,0.008680555555555556,10.321180555555555,0)" xlink:href="#S"/><use transform="matrix(0.008680555555555556,0,0,0.008680555555555556,21.38888888888889,0)" xlink:href="#W"/></g><path fill="#333" d="M361 0L31-1118h315c68 295 127 523 188 845 63-317 128-551 199-845h276c71 296 131 525 196 846 57-321 119-552 186-846h319L1378 0h-305c-73-261-148-486-204-771C813-484 740-261 666 0H361" id="ao"/><g id="n"><use transform="matrix(0.008680555555555556,0,0,0.008680555555555556,0,0)" xlink:href="#al"/><use transform="matrix(0.008680555555555556,0,0,0.008680555555555556,10.659722222222223,0)" xlink:href="#R"/><use transform="matrix(0.008680555555555556,0,0,0.008680555555555556,15.477430555555555,0)" xlink:href="#I"/><use transform="matrix(0.008680555555555556,0,0,0.008680555555555556,25.82465277777778,0)" xlink:href="#ao"/></g><g id="o"><use transform="matrix(0.008680555555555556,0,0,0.008680555555555556,0,0)" xlink:href="#W"/><use transform="matrix(0.008680555555555556,0,0,0.008680555555555556,11.206597222222223,0)" xlink:href="#an"/><use transform="matrix(0.008680555555555556,0,0,0.008680555555555556,18.576388888888893,0)" xlink:href="#R"/><use transform="matrix(0.008680555555555556,0,0,0.008680555555555556,23.39409722222223,0)" xlink:href="#al"/><use transform="matrix(0.008680555555555556,0,0,0.008680555555555556,33.73263888888889,0)" xlink:href="#I"/><use transform="matrix(0.008680555555555556,0,0,0.008680555555555556,44.32291666666667,0)" xlink:href="#an"/></g><path d="M645 0H180v-1490h484c435 0 692 280 692 742 0 466-257 748-711 748zM370-168h263c363 0 539-218 539-580 0-358-176-574-521-574H370v1154" id="ap"/><path d="M158 0v-1118h174v172h12c41-113 157-188 290-188 26 0 70 2 91 3v181c-11-2-60-10-108-10-161 0-279 109-279 260V0H158" id="aq"/><path d="M481 0L54-1118h197c107 314 236 620 325 951 87-331 217-637 324-951h197L670 0H481" id="ar"/><g id="p"><use transform="matrix(0.010850694444444442,0,0,0.010850694444444442,0,0)" xlink:href="#X"/><use transform="matrix(0.010850694444444442,0,0,0.010850694444444442,15.332031249999996,0)" xlink:href="#Y"/><use transform="matrix(0.010850694444444442,0,0,0.010850694444444442,20.71397569444444,0)" xlink:href="#Z"/><use transform="matrix(0.010850694444444442,0,0,0.010850694444444442,33.26822916666666,0)" xlink:href="#aa"/><use transform="matrix(0.010850694444444442,0,0,0.010850694444444442,51.45399305555554,0)" xlink:href="#Y"/><use transform="matrix(0.010850694444444442,0,0,0.010850694444444442,56.835937499999986,0)" xlink:href="#ab"/><use transform="matrix(0.010850694444444442,0,0,0.010850694444444442,69.96527777777776,0)" xlink:href="#ac"/><use transform="matrix(0.010850694444444442,0,0,0.010850694444444442,83.59374999999997,0)" xlink:href="#ap"/><use transform="matrix(0.010850694444444442,0,0,0.010850694444444442,99.63107638888884,0)" xlink:href="#aq"/><use transform="matrix(0.010850694444444442,0,0,0.010850694444444442,108.34418402777774,0)" xlink:href="#Y"/><use transform="matrix(0.010850694444444442,0,0,0.010850694444444442,113.72612847222219,0)" xlink:href="#ar"/><use transform="matrix(0.010850694444444442,0,0,0.010850694444444442,125.78124999999997,0)" xlink:href="#Z"/><use transform="matrix(0.010850694444444442,0,0,0.010850694444444442,138.73697916666663,0)" xlink:href="#aq"/></g><path fill="#333" d="M135 0v-1490h581c339 0 533 210 533 503 0 295-197 500-540 500H440V0H135zm305-733h220c186 0 274-104 274-254s-88-251-275-251H440v505" id="as"/><g id="q"><use transform="matrix(0.008680555555555556,0,0,0.008680555555555556,0,0)" xlink:href="#as"/><use transform="matrix(0.008680555555555556,0,0,0.008680555555555556,11.293402777777779,0)" xlink:href="#Q"/><use transform="matrix(0.008680555555555556,0,0,0.008680555555555556,21.614583333333336,0)" xlink:href="#H"/><use transform="matrix(0.008680555555555556,0,0,0.008680555555555556,31.571180555555557,0)" xlink:href="#H"/><use transform="matrix(0.008680555555555556,0,0,0.008680555555555556,41.52777777777778,0)" xlink:href="#I"/><use transform="matrix(0.008680555555555556,0,0,0.008680555555555556,52.11805555555556,0)" xlink:href="#S"/><use transform="matrix(0.008680555555555556,0,0,0.008680555555555556,63.18576388888889,0)" xlink:href="#am"/><use transform="matrix(0.008680555555555556,0,0,0.008680555555555556,74.41840277777779,0)" xlink:href="#I"/><use transform="matrix(0.008680555555555556,0,0,0.008680555555555556,85.00868055555557,0)" xlink:href="#an"/><use transform="matrix(0.008680555555555556,0,0,0.008680555555555556,92.2482638888889,0)" xlink:href="#H"/></g><g id="r"><use transform="matrix(0.008680555555555556,0,0,0.008680555555555556,0,0)" xlink:href="#P"/><use transform="matrix(0.008680555555555556,0,0,0.008680555555555556,11.380208333333334,0)" xlink:href="#Q"/><use transform="matrix(0.008680555555555556,0,0,0.008680555555555556,21.70138888888889,0)" xlink:href="#H"/><use transform="matrix(0.008680555555555556,0,0,0.008680555555555556,31.657986111111114,0)" xlink:href="#H"/><use transform="matrix(0.008680555555555556,0,0,0.008680555555555556,41.614583333333336,0)" xlink:href="#I"/><use transform="matrix(0.008680555555555556,0,0,0.008680555555555556,52.204861111111114,0)" xlink:href="#S"/><use transform="matrix(0.008680555555555556,0,0,0.008680555555555556,63.27256944444445,0)" xlink:href="#am"/><use transform="matrix(0.008680555555555556,0,0,0.008680555555555556,74.50520833333334,0)" xlink:href="#I"/><use transform="matrix(0.008680555555555556,0,0,0.008680555555555556,85.09548611111111,0)" xlink:href="#an"/></g><path d="M180 0v-1490h510c348 0 508 209 508 474 0 266-160 477-507 477H370V0H180zm190-706h312c236 0 327-133 327-310 0-176-91-307-329-307H370v617" id="at"/><g id="s"><use transform="matrix(0.010850694444444442,0,0,0.010850694444444442,0,0)" xlink:href="#X"/><use transform="matrix(0.010850694444444442,0,0,0.010850694444444442,15.332031249999996,0)" xlink:href="#Y"/><use transform="matrix(0.010850694444444442,0,0,0.010850694444444442,20.71397569444444,0)" xlink:href="#Z"/><use transform="matrix(0.010850694444444442,0,0,0.010850694444444442,33.26822916666666,0)" xlink:href="#aa"/><use transform="matrix(0.010850694444444442,0,0,0.010850694444444442,51.45399305555554,0)" xlink:href="#Y"/><use transform="matrix(0.010850694444444442,0,0,0.010850694444444442,56.835937499999986,0)" xlink:href="#ab"/><use transform="matrix(0.010850694444444442,0,0,0.010850694444444442,69.96527777777776,0)" xlink:href="#ac"/><use transform="matrix(0.010850694444444442,0,0,0.010850694444444442,83.59374999999997,0)" xlink:href="#at"/><use transform="matrix(0.010850694444444442,0,0,0.010850694444444442,97.7864583333333,0)" xlink:href="#ai"/><use transform="matrix(0.010850694444444442,0,0,0.010850694444444442,110.26475694444443,0)" xlink:href="#ak"/><use transform="matrix(0.010850694444444442,0,0,0.010850694444444442,121.99435763888887,0)" xlink:href="#ak"/><use transform="matrix(0.010850694444444442,0,0,0.010850694444444442,133.72395833333331,0)" xlink:href="#Z"/><use transform="matrix(0.010850694444444442,0,0,0.010850694444444442,146.67968749999997,0)" xlink:href="#ab"/><use transform="matrix(0.010850694444444442,0,0,0.010850694444444442,159.80902777777774,0)" xlink:href="#ac"/><use transform="matrix(0.010850694444444442,0,0,0.010850694444444442,173.43749999999997,0)" xlink:href="#Z"/><use transform="matrix(0.010850694444444442,0,0,0.010850694444444442,186.39322916666663,0)" xlink:href="#aq"/></g><g id="t"><use transform="matrix(0.008680555555555556,0,0,0.008680555555555556,0,0)" xlink:href="#I"/><use transform="matrix(0.008680555555555556,0,0,0.008680555555555556,10.590277777777779,0)" xlink:href="#W"/><use transform="matrix(0.008680555555555556,0,0,0.008680555555555556,21.796875,0)" xlink:href="#R"/><use transform="matrix(0.008680555555555556,0,0,0.008680555555555556,26.614583333333336,0)" xlink:href="#L"/></g><g id="u"><use transform="matrix(0.008680555555555556,0,0,0.008680555555555556,0,0)" xlink:href="#N"/><use transform="matrix(0.008680555555555556,0,0,0.008680555555555556,10.902777777777779,0)" xlink:href="#an"/></g><g id="v"><use transform="matrix(0.008680555555555556,0,0,0.008680555555555556,0,0)" xlink:href="#W"/><use transform="matrix(0.008680555555555556,0,0,0.008680555555555556,11.206597222222223,0)" xlink:href="#I"/><use transform="matrix(0.008680555555555556,0,0,0.008680555555555556,21.796875,0)" xlink:href="#J"/><use transform="matrix(0.008680555555555556,0,0,0.008680555555555556,26.614583333333336,0)" xlink:href="#I"/><use transform="matrix(0.008680555555555556,0,0,0.008680555555555556,37.204861111111114,0)" xlink:href="#L"/><use transform="matrix(0.008680555555555556,0,0,0.008680555555555556,43.54166666666666,0)" xlink:href="#I"/></g><g id="w"><use transform="matrix(0.008680555555555556,0,0,0.008680555555555556,0,0)" xlink:href="#W"/><use transform="matrix(0.008680555555555556,0,0,0.008680555555555556,11.206597222222223,0)" xlink:href="#an"/><use transform="matrix(0.008680555555555556,0,0,0.008680555555555556,18.576388888888893,0)" xlink:href="#R"/><use transform="matrix(0.008680555555555556,0,0,0.008680555555555556,23.39409722222223,0)" xlink:href="#al"/><use transform="matrix(0.008680555555555556,0,0,0.008680555555555556,33.73263888888889,0)" xlink:href="#I"/><use transform="matrix(0.008680555555555556,0,0,0.008680555555555556,44.32291666666667,0)" xlink:href="#an"/></g><path fill="#333" d="M750-1118v229H516V0H217v-889H20v-229h197v-86c0-238 156-356 363-356 94 0 178 20 215 31l-54 226c-25-7-61-15-100-15-123-3-131 84-125 200h234" id="au"/><g id="x"><use transform="matrix(0.008680555555555556,0,0,0.008680555555555556,0,0)" xlink:href="#R"/><use transform="matrix(0.008680555555555556,0,0,0.008680555555555556,4.817708333333334,0)" xlink:href="#S"/><use transform="matrix(0.008680555555555556,0,0,0.008680555555555556,15.885416666666668,0)" xlink:href="#au"/><use transform="matrix(0.008680555555555556,0,0,0.008680555555555556,22.578125,0)" xlink:href="#N"/><use transform="matrix(0.008680555555555556,0,0,0.008680555555555556,33.48090277777778,0)" xlink:href="#an"/><use transform="matrix(0.008680555555555556,0,0,0.008680555555555556,40.85069444444444,0)" xlink:href="#O"/><use transform="matrix(0.008680555555555556,0,0,0.008680555555555556,57.074652777777786,0)" xlink:href="#Q"/><use transform="matrix(0.008680555555555556,0,0,0.008680555555555556,67.39583333333334,0)" xlink:href="#L"/><use transform="matrix(0.008680555555555556,0,0,0.008680555555555556,73.90625000000001,0)" xlink:href="#R"/><use transform="matrix(0.008680555555555556,0,0,0.008680555555555556,78.72395833333334,0)" xlink:href="#N"/><use transform="matrix(0.008680555555555556,0,0,0.008680555555555556,89.62673611111111,0)" xlink:href="#S"/></g><path d="M180 0v-1490h270l367 940c28 72 75 218 110 339 35-117 81-264 110-339l362-940h271V0h-187c2-448-5-837 7-1287-157 497-311 829-483 1287H842C666-458 514-784 354-1284c12 438 5 843 7 1284H180" id="av"/><g id="y"><use transform="matrix(0.010850694444444442,0,0,0.010850694444444442,0,0)" xlink:href="#av"/><use transform="matrix(0.010850694444444442,0,0,0.010850694444444442,20.073784722222218,0)" xlink:href="#ai"/><use transform="matrix(0.010850694444444442,0,0,0.010850694444444442,32.55208333333333,0)" xlink:href="#ab"/><use transform="matrix(0.010850694444444442,0,0,0.010850694444444442,45.6814236111111,0)" xlink:href="#ai"/><use transform="matrix(0.010850694444444442,0,0,0.010850694444444442,58.159722222222214,0)" xlink:href="#ac"/><use transform="matrix(0.010850694444444442,0,0,0.010850694444444442,71.78819444444443,0)" xlink:href="#Y"/><use transform="matrix(0.010850694444444442,0,0,0.010850694444444442,77.17013888888887,0)" xlink:href="#ab"/><use transform="matrix(0.010850694444444442,0,0,0.010850694444444442,90.29947916666664,0)" xlink:href="#ac"/><use transform="matrix(0.010850694444444442,0,0,0.010850694444444442,103.92795138888884,0)" xlink:href="#ap"/><use transform="matrix(0.010850694444444442,0,0,0.010850694444444442,119.96527777777773,0)" xlink:href="#aq"/><use transform="matrix(0.010850694444444442,0,0,0.010850694444444442,128.67838541666663,0)" xlink:href="#Y"/><use transform="matrix(0.010850694444444442,0,0,0.010850694444444442,134.0603298611111,0)" xlink:href="#ar"/><use transform="matrix(0.010850694444444442,0,0,0.010850694444444442,146.11545138888886,0)" xlink:href="#Z"/><use transform="matrix(0.010850694444444442,0,0,0.010850694444444442,159.07118055555551,0)" xlink:href="#aq"/></g><path fill="#333" d="M128 0v-1490h300v802h17l366-430h347L740-633 1179 0H826L514-456l-86 97V0H128" id="aw"/><g id="z"><use transform="matrix(0.008680555555555556,0,0,0.008680555555555556,0,0)" xlink:href="#O"/><use transform="matrix(0.008680555555555556,0,0,0.008680555555555556,16.223958333333336,0)" xlink:href="#Q"/><use transform="matrix(0.008680555555555556,0,0,0.008680555555555556,26.545138888888893,0)" xlink:href="#an"/><use transform="matrix(0.008680555555555556,0,0,0.008680555555555556,34.06250000000001,0)" xlink:href="#aw"/></g><g id="A"><use transform="matrix(0.008680555555555556,0,0,0.008680555555555556,0,0)" xlink:href="#K"/><use transform="matrix(0.008680555555555556,0,0,0.008680555555555556,10.460069444444445,0)" xlink:href="#N"/><use transform="matrix(0.008680555555555556,0,0,0.008680555555555556,21.36284722222222,0)" xlink:href="#O"/><use transform="matrix(0.008680555555555556,0,0,0.008680555555555556,37.58680555555556,0)" xlink:href="#P"/><use transform="matrix(0.008680555555555556,0,0,0.008680555555555556,48.79340277777778,0)" xlink:href="#J"/><use transform="matrix(0.008680555555555556,0,0,0.008680555555555556,53.611111111111114,0)" xlink:href="#Q"/><use transform="matrix(0.008680555555555556,0,0,0.008680555555555556,63.93229166666667,0)" xlink:href="#R"/><use transform="matrix(0.008680555555555556,0,0,0.008680555555555556,68.75,0)" xlink:href="#S"/><use transform="matrix(0.008680555555555556,0,0,0.008680555555555556,79.81770833333331,0)" xlink:href="#L"/></g><g id="B"><use transform="matrix(0.008680555555555556,0,0,0.008680555555555556,0,0)" xlink:href="#Q"/><use transform="matrix(0.008680555555555556,0,0,0.008680555555555556,10.321180555555555,0)" xlink:href="#H"/></g><g id="C"><use transform="matrix(0.008680555555555556,0,0,0.008680555555555556,0,0)" xlink:href="#an"/><use transform="matrix(0.008680555555555556,0,0,0.008680555555555556,6.805555555555556,0)" xlink:href="#I"/><use transform="matrix(0.008680555555555556,0,0,0.008680555555555556,17.395833333333336,0)" xlink:href="#H"/><use transform="matrix(0.008680555555555556,0,0,0.008680555555555556,27.352430555555557,0)" xlink:href="#N"/><use transform="matrix(0.008680555555555556,0,0,0.008680555555555556,38.255208333333336,0)" xlink:href="#J"/><use transform="matrix(0.008680555555555556,0,0,0.008680555555555556,43.255208333333336,0)" xlink:href="#al"/><use transform="matrix(0.008680555555555556,0,0,0.008680555555555556,53.59375,0)" xlink:href="#I"/><use transform="matrix(0.008680555555555556,0,0,0.008680555555555556,64.18402777777777,0)" xlink:href="#W"/></g><use transform="matrix(0.008680555555555556,0,0,0.008680555555555556,0,0)" xlink:href="#T" id="D"/><g id="E"><use transform="matrix(0.008680555555555556,0,0,0.008680555555555556,0,0)" xlink:href="#W"/><use transform="matrix(0.008680555555555556,0,0,0.008680555555555556,11.206597222222223,0)" xlink:href="#R"/><use transform="matrix(0.008680555555555556,0,0,0.008680555555555556,16.024305555555557,0)" xlink:href="#H"/><use transform="matrix(0.008680555555555556,0,0,0.008680555555555556,25.98090277777778,0)" xlink:href="#P"/><use transform="matrix(0.008680555555555556,0,0,0.008680555555555556,37.1875,0)" xlink:href="#J"/><use transform="matrix(0.008680555555555556,0,0,0.008680555555555556,42.005208333333336,0)" xlink:href="#Q"/><use transform="matrix(0.008680555555555556,0,0,0.008680555555555556,52.02256944444445,0)" xlink:href="#V"/></g><g id="F"><use transform="matrix(0.008680555555555556,0,0,0.008680555555555556,0,0)" xlink:href="#K"/><use transform="matrix(0.008680555555555556,0,0,0.008680555555555556,10.460069444444445,0)" xlink:href="#N"/><use transform="matrix(0.008680555555555556,0,0,0.008680555555555556,21.36284722222222,0)" xlink:href="#S"/><use transform="matrix(0.008680555555555556,0,0,0.008680555555555556,32.43055555555556,0)" xlink:href="#au"/><use transform="matrix(0.008680555555555556,0,0,0.008680555555555556,39.65277777777778,0)" xlink:href="#R"/><use transform="matrix(0.008680555555555556,0,0,0.008680555555555556,44.470486111111114,0)" xlink:href="#an"/><use transform="matrix(0.008680555555555556,0,0,0.008680555555555556,51.840277777777786,0)" xlink:href="#O"/><use transform="matrix(0.008680555555555556,0,0,0.008680555555555556,68.06423611111111,0)" xlink:href="#Q"/><use transform="matrix(0.008680555555555556,0,0,0.008680555555555556,78.38541666666667,0)" xlink:href="#L"/><use transform="matrix(0.008680555555555556,0,0,0.008680555555555556,84.89583333333334,0)" xlink:href="#R"/><use transform="matrix(0.008680555555555556,0,0,0.008680555555555556,89.71354166666667,0)" xlink:href="#N"/><use transform="matrix(0.008680555555555556,0,0,0.008680555555555556,100.61631944444447,0)" xlink:href="#S"/></g><path d="M180 0v-1490h510c348 0 508 194 508 460 0 198-88 351-276 417L1256 0h-220L726-579c-117 2-238 0-356 1V0H180zm190-747h312c235 0 327-108 327-283 0-177-92-293-329-293H370v576" id="ax"/><path d="M577 24c-279 0-473-224-473-580 0-354 195-576 474-576 218 0 287 134 324 193h14v-551h180V0H922v-173h-20C865-111 790 24 577 24zm27-161c203 0 314-172 314-421 0-247-108-413-314-413-212 0-317 181-317 413 0 235 108 421 317 421" id="ay"/><g id="G"><use transform="matrix(0.010850694444444442,0,0,0.010850694444444442,0,0)" xlink:href="#ad"/><use transform="matrix(0.010850694444444442,0,0,0.010850694444444442,16.232638888888886,0)" xlink:href="#ae"/><use transform="matrix(0.010850694444444442,0,0,0.010850694444444442,29.55729166666666,0)" xlink:href="#af"/><use transform="matrix(0.010850694444444442,0,0,0.010850694444444442,49.02343749999999,0)" xlink:href="#ag"/><use transform="matrix(0.010850694444444442,0,0,0.010850694444444442,62.630208333333314,0)" xlink:href="#ah"/><use transform="matrix(0.010850694444444442,0,0,0.010850694444444442,68.01215277777776,0)" xlink:href="#ai"/><use transform="matrix(0.010850694444444442,0,0,0.010850694444444442,80.49045138888887,0)" xlink:href="#Y"/><use transform="matrix(0.010850694444444442,0,0,0.010850694444444442,85.87239583333331,0)" xlink:href="#ab"/><use transform="matrix(0.010850694444444442,0,0,0.010850694444444442,99.00173611111109,0)" xlink:href="#aj"/><use transform="matrix(0.010850694444444442,0,0,0.010850694444444442,106.27170138888884,0)" xlink:href="#ax"/><use transform="matrix(0.010850694444444442,0,0,0.010850694444444442,120.24739583333331,0)" xlink:href="#Z"/><use transform="matrix(0.010850694444444442,0,0,0.010850694444444442,133.20312499999997,0)" xlink:href="#ak"/><use transform="matrix(0.010850694444444442,0,0,0.010850694444444442,144.9327256944444,0)" xlink:href="#ae"/><use transform="matrix(0.010850694444444442,0,0,0.010850694444444442,158.25737847222217,0)" xlink:href="#ah"/><use transform="matrix(0.010850694444444442,0,0,0.010850694444444442,163.7478298611111,0)" xlink:href="#ar"/><use transform="matrix(0.010850694444444442,0,0,0.010850694444444442,175.80295138888886,0)" xlink:href="#Z"/><use transform="matrix(0.010850694444444442,0,0,0.010850694444444442,188.75868055555551,0)" xlink:href="#ay"/></g></defs></g></svg>