<svg xmlns="http://www.w3.org/2000/svg" xmlns:xlink="http://www.w3.org/1999/xlink" xmlns:lucid="lucid" width="548.3" height="318.14"><g transform="translate(-338.5 -262.86458333333337)" lucid:page-tab-id="qWdIS4x9pntT"><path d="M0 0h1000v1000H0z" fill="#fff"/><path d="M380 340c0 11.05-8.95 20-20 20s-20-8.95-20-20 8.95-20 20-20 20 8.95 20 20z" stroke="#000" stroke-width="3"/><path d="M382 340h167.56" stroke="#3a414a" fill="none"/><path d="M382 340.48h-.55l.05-.4-.02-.56h.53z" stroke="#3a414a" stroke-width=".05" fill="#3a414a"/><path d="M540.68 330L558 340l-17.32 10M558 340h-8.5" stroke="#3a414a" fill="none"/><use xlink:href="#a" transform="matrix(1,0,0,1,414.0048080586448,262.86458333333337) translate(0 17.22222222222222)"/><use xlink:href="#b" transform="matrix(1,0,0,1,414.0048080586448,262.86458333333337) translate(37.28298611111111 17.22222222222222)"/><use xlink:href="#c" transform="matrix(1,0,0,1,414.0048080586448,262.86458333333337) translate(0 43.034722222222214)"/><use xlink:href="#d" transform="matrix(1,0,0,1,414.0048080586448,262.86458333333337) translate(11.11111111111111 43.034722222222214)"/><use xlink:href="#e" transform="matrix(1,0,0,1,414.0048080586448,262.86458333333337) translate(78.04687500000001 43.034722222222214)"/><use xlink:href="#f" transform="matrix(1,0,0,1,414.0048080586448,262.86458333333337) translate(0 68.84722222222221)"/><path d="M576 300c-8.84 0-16 7.16-16 16v48c0 8.84 7.16 16 16 16h168c8.84 0 16-7.16 16-16v-48c0-8.84-7.16-16-16-16z" stroke="#000" stroke-width="2" fill="#fff"/><use xlink:href="#g" transform="matrix(1,0,0,1,568,308) translate(3.219618055555557 40.083767361111114)"/><path d="M660.48 489.56h-.96v-40.98h.96zm0-88.3h-.96V381.5h.96z" stroke="#3a414a" stroke-width=".05" fill="#3a414a"/><path d="M660.48 381.5h-.96v-.5h.96z" fill="#3a414a"/><path stroke="#3a414a" stroke-width=".05" fill="#3a414a"/><path d="M670.4 480.92L660 498.95l-10.4-18.03.8-.48 9.13 15.8v-6.74h.95v6.73l9.1-15.8z" stroke="#3a414a" stroke-width=".05" fill="#3a414a"/><use xlink:href="#h" transform="matrix(1,0,0,1,433.203125,401.2547496177369) translate(0 17.22222222222222)"/><use xlink:href="#i" transform="matrix(1,0,0,1,433.203125,401.2547496177369) translate(88.0295138888889 17.22222222222222)"/><use xlink:href="#j" transform="matrix(1,0,0,1,433.203125,401.2547496177369) translate(168.7326388888889 17.22222222222222)"/><use xlink:href="#k" transform="matrix(1,0,0,1,433.203125,401.2547496177369) translate(271.875 17.22222222222222)"/><use xlink:href="#l" transform="matrix(1,0,0,1,433.203125,401.2547496177369) translate(308.68055555555554 17.22222222222222)"/><use xlink:href="#m" transform="matrix(1,0,0,1,433.203125,401.2547496177369) translate(357.265625 17.22222222222222)"/><use xlink:href="#n" transform="matrix(1,0,0,1,433.203125,401.2547496177369) translate(391.3802083333333 17.22222222222222)"/><use xlink:href="#o" transform="matrix(1,0,0,1,433.203125,401.2547496177369) translate(415.86805555555554 17.22222222222222)"/><use xlink:href="#p" transform="matrix(1,0,0,1,433.203125,401.2547496177369) translate(0 43.034722222222214)"/><use xlink:href="#q" transform="matrix(1,0,0,1,433.203125,401.2547496177369) translate(73.83680555555556 43.034722222222214)"/><use xlink:href="#r" transform="matrix(1,0,0,1,433.203125,401.2547496177369) translate(189.73090277777777 43.034722222222214)"/><path d="M576 500c-8.84 0-16 7.16-16 16v48c0 8.84 7.16 16 16 16h168c8.84 0 16-7.16 16-16v-48c0-8.84-7.16-16-16-16z" stroke="#000" stroke-width="2" fill="#fff"/><g><use xlink:href="#s" transform="matrix(1,0,0,1,568,508) translate(-4.316189236111086 40.083767361111114)"/></g><path d="M558.5 540H390.44" stroke="#3a414a" fill="none"/><path d="M559 540.48h-.5v-.96h.5z" stroke="#3a414a" stroke-width=".05" fill="#3a414a"/><path d="M399.32 550L382 540l17.32-10M382 540h8.5" stroke="#3a414a" fill="none"/><path d="M380 540c0 11.05-8.95 20-20 20s-20-8.95-20-20 8.95-20 20-20 20 8.95 20 20z" stroke="#000" stroke-width="2" fill="#fff"/><path d="M372 540c0 6.63-5.37 12-12 12s-12-5.37-12-12 5.37-12 12-12 12 5.37 12 12z" stroke="#000" stroke-width="2"/><defs><path fill="#333" d="M135 0v-1490h997v253H440v360h640v249H440v375h694V0H135" id="t"/><path fill="#333" d="M428-647V0H128v-1118h283l4 231c63-156 176-245 348-245 232 0 384 159 384 421V0H847v-659c0-139-76-222-202-222-128 0-217 86-217 234" id="u"/><path fill="#333" d="M537 19C279 19 81-185 81-557c0-382 206-575 454-575 190 0 278 113 318 202h10v-560h300V0H868v-179h-15C812-89 719 19 537 19zm92-241c153 0 240-134 240-336 0-203-86-334-240-334-158 0-240 138-240 334 0 197 84 336 240 336" id="v"/><g id="a"><use transform="matrix(0.008680555555555556,0,0,0.008680555555555556,0,0)" xlink:href="#t"/><use transform="matrix(0.008680555555555556,0,0,0.008680555555555556,10.79861111111111,0)" xlink:href="#u"/><use transform="matrix(0.008680555555555556,0,0,0.008680555555555556,21.866319444444443,0)" xlink:href="#v"/></g><path fill="#333" d="M128 0v-1118h290v195h12c54-169 184-238 367-200v268c-27-8-86-15-130-15-138 0-239 95-239 234V0H128" id="w"/><path fill="#333" d="M128 0v-1118h300V0H128zm150-1264c-91 0-165-68-165-154 0-85 74-154 165-154 90 0 165 69 165 154 0 86-75 154-165 154" id="x"/><path fill="#333" d="M633 22C291 22 81-200 81-553c0-345 210-579 537-579 292 0 525 185 525 567v84H378c7 183 109 277 260 277 105 0 184-46 216-132l272 51C1071-99 893 22 633 22zM380-669h474c-15-146-94-237-233-237-143 0-229 99-241 237" id="y"/><g id="b"><use transform="matrix(0.008680555555555556,0,0,0.008680555555555556,0,0)" xlink:href="#w"/><use transform="matrix(0.008680555555555556,0,0,0.008680555555555556,7.369791666666667,0)" xlink:href="#x"/><use transform="matrix(0.008680555555555556,0,0,0.008680555555555556,12.1875,0)" xlink:href="#v"/><use transform="matrix(0.008680555555555556,0,0,0.008680555555555556,23.394097222222225,0)" xlink:href="#y"/></g><path fill="#333" d="M768-1560L288 224H28l480-1784h260" id="z"/><use transform="matrix(0.008680555555555556,0,0,0.008680555555555556,0,0)" xlink:href="#z" id="c"/><path fill="#333" d="M572 22C302 22 117-98 78-306l279-48c29 105 101 156 224 156 114 0 185-48 185-115 0-118-228-130-337-155-215-49-322-150-322-317 0-215 187-347 470-347 265 0 424 116 466 298l-266 47c-24-76-87-130-196-130-98 0-174 46-174 113 0 56 38 95 144 117l201 40c216 44 320 143 320 302 0 220-207 367-500 367" id="A"/><path fill="#333" d="M128 418v-1536h295v188h14c41-89 129-202 319-202 248 0 453 193 453 575 0 372-197 576-455 576-183 0-275-108-317-198h-9v597H128zm534-640c156 0 240-139 240-336 0-196-83-334-240-334-154 0-241 131-241 334 0 202 88 336 241 336" id="B"/><path fill="#333" d="M428-1490V0H128v-1490h300" id="C"/><path fill="#333" d="M440 22C227 22 68-92 68-313c0-250 202-322 422-343 195-21 271-24 271-105 0-95-63-149-175-149-116 0-187 57-211 129l-275-46c57-194 237-305 487-305 240 0 474 108 474 379V0H777v-155h-10C713-51 605 22 440 22zm85-211c140 0 238-93 238-211v-121c-37 26-156 42-222 51-111 16-185 59-185 149 0 87 70 132 169 132" id="D"/><path fill="#333" d="M120 396l69-226c123 42 245 23 254-107l8-60L31-1118h319c87 288 199 559 259 872 72-308 185-583 277-872h315L726 132c-68 181-186 294-410 294-79 0-153-13-196-30" id="E"/><g id="d"><use transform="matrix(0.008680555555555556,0,0,0.008680555555555556,0,0)" xlink:href="#v"/><use transform="matrix(0.008680555555555556,0,0,0.008680555555555556,11.206597222222223,0)" xlink:href="#x"/><use transform="matrix(0.008680555555555556,0,0,0.008680555555555556,16.024305555555557,0)" xlink:href="#A"/><use transform="matrix(0.008680555555555556,0,0,0.008680555555555556,25.98090277777778,0)" xlink:href="#B"/><use transform="matrix(0.008680555555555556,0,0,0.008680555555555556,37.1875,0)" xlink:href="#C"/><use transform="matrix(0.008680555555555556,0,0,0.008680555555555556,42.005208333333336,0)" xlink:href="#D"/><use transform="matrix(0.008680555555555556,0,0,0.008680555555555556,52.02256944444445,0)" xlink:href="#E"/></g><path fill="#333" d="M750-1118v229H516V0H217v-889H20v-229h197v-86c0-238 156-356 363-356 94 0 178 20 215 31l-54 226c-25-7-61-15-100-15-123-3-131 84-125 200h234" id="F"/><g id="e"><use transform="matrix(0.008680555555555556,0,0,0.008680555555555556,0,0)" xlink:href="#F"/><use transform="matrix(0.008680555555555556,0,0,0.008680555555555556,6.7274305555555545,0)" xlink:href="#D"/><use transform="matrix(0.008680555555555556,0,0,0.008680555555555556,17.04861111111111,0)" xlink:href="#w"/><use transform="matrix(0.008680555555555556,0,0,0.008680555555555556,23.854166666666664,0)" xlink:href="#y"/></g><path fill="#333" d="M754 19C571 19 479-89 437-179h-14V0H128v-1490h300v560h9c41-89 129-202 319-202 248 0 453 193 453 575 0 372-197 576-455 576zm-92-241c156 0 240-139 240-336 0-196-83-334-240-334-154 0-241 131-241 334 0 202 88 336 241 336" id="G"/><path fill="#333" d="M128 0v-1490h300v802h17l366-430h347L740-633 1179 0H826L514-456l-86 97V0H128" id="H"/><path fill="#333" d="M628 22C291 22 81-210 81-554c0-346 210-578 547-578 336 0 547 232 547 578 0 344-211 576-547 576zm0-236c160 0 242-146 242-341 0-197-82-341-242-341S387-753 387-555c0 195 81 341 241 341" id="I"/><path fill="#333" d="M361 0L31-1118h315c68 295 127 523 188 845 63-317 128-551 199-845h276c71 296 131 525 196 846 57-321 119-552 186-846h319L1378 0h-305c-73-261-148-486-204-771C813-484 740-261 666 0H361" id="J"/><g id="f"><use transform="matrix(0.008680555555555556,0,0,0.008680555555555556,0,0)" xlink:href="#G"/><use transform="matrix(0.008680555555555556,0,0,0.008680555555555556,11.206597222222223,0)" xlink:href="#w"/><use transform="matrix(0.008680555555555556,0,0,0.008680555555555556,18.01215277777778,0)" xlink:href="#y"/><use transform="matrix(0.008680555555555556,0,0,0.008680555555555556,28.776041666666668,0)" xlink:href="#D"/><use transform="matrix(0.008680555555555556,0,0,0.008680555555555556,39.09722222222222,0)" xlink:href="#H"/><use transform="matrix(0.008680555555555556,0,0,0.008680555555555556,49.010416666666664,0)" xlink:href="#v"/><use transform="matrix(0.008680555555555556,0,0,0.008680555555555556,60.217013888888886,0)" xlink:href="#I"/><use transform="matrix(0.008680555555555556,0,0,0.008680555555555556,70.87673611111111,0)" xlink:href="#J"/><use transform="matrix(0.008680555555555556,0,0,0.008680555555555556,85.98958333333334,0)" xlink:href="#u"/></g><path d="M180 0v-1490h510c348 0 508 209 508 474 0 266-160 477-507 477H370V0H180zm190-706h312c236 0 327-133 327-310 0-176-91-307-329-307H370v617" id="K"/><path d="M471 26C259 26 90-98 90-318c0-256 228-303 435-329 202-27 287-16 287-108 0-139-79-219-234-219-161 0-248 86-283 164l-173-57c86-203 278-265 451-265 150 0 419 46 419 395V0H815v-152h-12C765-73 660 26 471 26zm31-159c199 0 310-134 310-271v-155c-30 35-226 55-295 64-131 17-246 59-246 186 0 116 97 176 231 176" id="L"/><path d="M140 405l46-156c120 36 205 19 263-150l32-93L54-1118h197c107 313 237 620 324 950 87-331 219-637 326-950h196L606 167c-68 178-176 259-334 259-64 0-113-12-132-21" id="M"/><path d="M158 0v-1118h175l1 205c55-151 181-225 313-225 147 0 245 90 285 228 53-141 190-228 352-228 194 0 352 125 352 384V0h-181v-749c0-161-105-225-225-225-151 0-243 103-243 244V0H807v-767c0-124-93-207-219-207-131 0-250 92-250 270V0H158" id="N"/><path d="M628 24c-324 0-524-230-524-574 0-343 198-582 503-582 237 0 487 146 487 559v75H286c9 234 145 362 343 362 132 0 231-58 273-172l174 48C1024-91 857 24 628 24zM287-650h624c-17-190-120-322-304-322-192 0-309 151-320 322" id="O"/><path d="M338-670V0H158v-1118h173l1 207c72-158 192-221 342-221 226 0 378 139 378 422V0H872v-695c0-172-96-275-252-275-161 0-282 109-282 300" id="P"/><path d="M598-1118v154H368v674c0 100 37 144 132 144 23 0 62-6 92-12L629-6c-37 13-88 20-134 20-193 0-307-107-307-290v-688H20v-154h168v-266h180v266h230" id="Q"/><path d="M577 24c-279 0-473-224-473-580 0-354 195-576 474-576 218 0 287 134 324 193h14v-551h180V0H922v-173h-20C865-111 790 24 577 24zm27-161c203 0 314-172 314-421 0-247-108-413-314-413-212 0-317 181-317 413 0 235 108 421 317 421" id="R"/><path d="M158 0v-1118h180V0H158zm91-1301c-68 0-125-53-125-119s57-119 125-119c69 0 126 53 126 119s-57 119-126 119" id="S"/><path d="M611 442c-248 0-391-105-460-228l146-94c47 65 117 165 314 165 178 0 307-82 307-266v-224h-17C863-141 792-18 576-18c-268 0-472-195-472-546 0-346 197-568 476-568 216 0 288 133 326 193h17v-179h175V29c0 289-215 413-487 413zm-5-620c203 0 314-146 314-390 0-237-108-403-314-403-213 0-319 180-319 403 0 230 109 390 319 390" id="T"/><g id="g"><use transform="matrix(0.010850694444444442,0,0,0.010850694444444442,0,0)" xlink:href="#K"/><use transform="matrix(0.010850694444444442,0,0,0.010850694444444442,14.19270833333333,0)" xlink:href="#L"/><use transform="matrix(0.010850694444444442,0,0,0.010850694444444442,26.345486111111107,0)" xlink:href="#M"/><use transform="matrix(0.010850694444444442,0,0,0.010850694444444442,38.83463541666666,0)" xlink:href="#N"/><use transform="matrix(0.010850694444444442,0,0,0.010850694444444442,58.300781249999986,0)" xlink:href="#O"/><use transform="matrix(0.010850694444444442,0,0,0.010850694444444442,71.25651041666666,0)" xlink:href="#P"/><use transform="matrix(0.010850694444444442,0,0,0.010850694444444442,84.38585069444443,0)" xlink:href="#Q"/><use transform="matrix(0.010850694444444442,0,0,0.010850694444444442,91.6558159722222,0)" xlink:href="#K"/><use transform="matrix(0.010850694444444442,0,0,0.010850694444444442,105.72916666666664,0)" xlink:href="#O"/><use transform="matrix(0.010850694444444442,0,0,0.010850694444444442,118.68489583333331,0)" xlink:href="#P"/><use transform="matrix(0.010850694444444442,0,0,0.010850694444444442,131.8142361111111,0)" xlink:href="#R"/><use transform="matrix(0.010850694444444442,0,0,0.010850694444444442,145.42100694444443,0)" xlink:href="#S"/><use transform="matrix(0.010850694444444442,0,0,0.010850694444444442,150.80295138888889,0)" xlink:href="#P"/><use transform="matrix(0.010850694444444442,0,0,0.010850694444444442,163.93229166666666,0)" xlink:href="#T"/></g><path fill="#333" d="M786 20C389 20 94-260 94-744c0-487 299-766 692-766 339 0 597 194 641 529h-309c-28-162-156-258-326-258-233 0-388 179-388 495 0 323 157 493 387 493 170 0 298-97 328-259h309c-34 277-266 530-642 530" id="U"/><path fill="#333" d="M128 0v-1118h278l12 217c60-163 185-234 319-234 143 0 236 81 288 251 63-172 205-251 359-251 205 0 357 138 357 381V0h-301v-697c0-126-76-187-177-187-114 0-184 79-184 196V0H789v-705c0-109-72-179-174-179-106 0-187 74-187 208V0H128" id="V"/><path fill="#333" d="M683-1118v229H474v562c0 71 29 104 102 104 23 0 73-7 95-13l43 225C647 9 580 16 520 16 296 16 174-96 174-301v-588H20v-229h154v-266h300v266h209" id="W"/><g id="h"><use transform="matrix(0.008680555555555556,0,0,0.008680555555555556,0,0)" xlink:href="#U"/><use transform="matrix(0.008680555555555556,0,0,0.008680555555555556,13.151041666666668,0)" xlink:href="#I"/><use transform="matrix(0.008680555555555556,0,0,0.008680555555555556,24.053819444444446,0)" xlink:href="#V"/><use transform="matrix(0.008680555555555556,0,0,0.008680555555555556,40.277777777777786,0)" xlink:href="#B"/><use transform="matrix(0.008680555555555556,0,0,0.008680555555555556,51.48437500000001,0)" xlink:href="#C"/><use transform="matrix(0.008680555555555556,0,0,0.008680555555555556,56.30208333333334,0)" xlink:href="#y"/><use transform="matrix(0.008680555555555556,0,0,0.008680555555555556,66.89236111111111,0)" xlink:href="#W"/><use transform="matrix(0.008680555555555556,0,0,0.008680555555555556,73.22916666666667,0)" xlink:href="#y"/></g><g id="i"><use transform="matrix(0.008680555555555556,0,0,0.008680555555555556,0,0)" xlink:href="#B"/><use transform="matrix(0.008680555555555556,0,0,0.008680555555555556,11.380208333333334,0)" xlink:href="#D"/><use transform="matrix(0.008680555555555556,0,0,0.008680555555555556,21.397569444444443,0)" xlink:href="#E"/><use transform="matrix(0.008680555555555556,0,0,0.008680555555555556,32.10069444444444,0)" xlink:href="#V"/><use transform="matrix(0.008680555555555556,0,0,0.008680555555555556,48.32465277777778,0)" xlink:href="#y"/><use transform="matrix(0.008680555555555556,0,0,0.008680555555555556,58.91493055555556,0)" xlink:href="#u"/><use transform="matrix(0.008680555555555556,0,0,0.008680555555555556,69.98263888888889,0)" xlink:href="#W"/></g><path fill="#333" d="M628 22C291 22 81-210 81-554c0-346 210-578 547-578 265 0 455 142 497 372l-279 52c-25-116-99-188-215-188-160 0-244 139-244 341 0 200 84 341 244 341 116 0 193-74 217-195l279 51C1085-123 896 22 628 22" id="X"/><g id="j"><use transform="matrix(0.008680555555555556,0,0,0.008680555555555556,0,0)" xlink:href="#W"/><use transform="matrix(0.008680555555555556,0,0,0.008680555555555556,6.510416666666667,0)" xlink:href="#w"/><use transform="matrix(0.008680555555555556,0,0,0.008680555555555556,13.506944444444446,0)" xlink:href="#D"/><use transform="matrix(0.008680555555555556,0,0,0.008680555555555556,23.828125,0)" xlink:href="#u"/><use transform="matrix(0.008680555555555556,0,0,0.008680555555555556,34.895833333333336,0)" xlink:href="#A"/><use transform="matrix(0.008680555555555556,0,0,0.008680555555555556,44.85243055555556,0)" xlink:href="#D"/><use transform="matrix(0.008680555555555556,0,0,0.008680555555555556,55.173611111111114,0)" xlink:href="#X"/><use transform="matrix(0.008680555555555556,0,0,0.008680555555555556,65.63368055555556,0)" xlink:href="#W"/><use transform="matrix(0.008680555555555556,0,0,0.008680555555555556,72.14409722222223,0)" xlink:href="#x"/><use transform="matrix(0.008680555555555556,0,0,0.008680555555555556,76.96180555555556,0)" xlink:href="#I"/><use transform="matrix(0.008680555555555556,0,0,0.008680555555555556,87.86458333333334,0)" xlink:href="#u"/></g><g id="k"><use transform="matrix(0.008680555555555556,0,0,0.008680555555555556,0,0)" xlink:href="#D"/><use transform="matrix(0.008680555555555556,0,0,0.008680555555555556,10.321180555555555,0)" xlink:href="#u"/><use transform="matrix(0.008680555555555556,0,0,0.008680555555555556,21.38888888888889,0)" xlink:href="#v"/></g><g id="l"><use transform="matrix(0.008680555555555556,0,0,0.008680555555555556,0,0)" xlink:href="#V"/><use transform="matrix(0.008680555555555556,0,0,0.008680555555555556,16.223958333333336,0)" xlink:href="#D"/><use transform="matrix(0.008680555555555556,0,0,0.008680555555555556,26.545138888888893,0)" xlink:href="#w"/><use transform="matrix(0.008680555555555556,0,0,0.008680555555555556,34.06250000000001,0)" xlink:href="#H"/></g><g id="m"><use transform="matrix(0.008680555555555556,0,0,0.008680555555555556,0,0)" xlink:href="#W"/><use transform="matrix(0.008680555555555556,0,0,0.008680555555555556,6.510416666666667,0)" xlink:href="#w"/><use transform="matrix(0.008680555555555556,0,0,0.008680555555555556,13.880208333333334,0)" xlink:href="#x"/><use transform="matrix(0.008680555555555556,0,0,0.008680555555555556,18.697916666666668,0)" xlink:href="#B"/></g><g id="n"><use transform="matrix(0.008680555555555556,0,0,0.008680555555555556,0,0)" xlink:href="#D"/><use transform="matrix(0.008680555555555556,0,0,0.008680555555555556,10.321180555555555,0)" xlink:href="#A"/></g><g id="o"><use transform="matrix(0.008680555555555556,0,0,0.008680555555555556,0,0)" xlink:href="#B"/><use transform="matrix(0.008680555555555556,0,0,0.008680555555555556,11.380208333333334,0)" xlink:href="#D"/><use transform="matrix(0.008680555555555556,0,0,0.008680555555555556,21.70138888888889,0)" xlink:href="#x"/><use transform="matrix(0.008680555555555556,0,0,0.008680555555555556,26.519097222222225,0)" xlink:href="#v"/></g><g id="p"><use transform="matrix(0.008680555555555556,0,0,0.008680555555555556,0,0)" xlink:href="#z"/><use transform="matrix(0.008680555555555556,0,0,0.008680555555555556,6.901041666666667,0)" xlink:href="#v"/><use transform="matrix(0.008680555555555556,0,0,0.008680555555555556,18.10763888888889,0)" xlink:href="#x"/><use transform="matrix(0.008680555555555556,0,0,0.008680555555555556,22.925347222222225,0)" xlink:href="#A"/><use transform="matrix(0.008680555555555556,0,0,0.008680555555555556,32.88194444444444,0)" xlink:href="#B"/><use transform="matrix(0.008680555555555556,0,0,0.008680555555555556,44.08854166666666,0)" xlink:href="#C"/><use transform="matrix(0.008680555555555556,0,0,0.008680555555555556,48.90625,0)" xlink:href="#D"/><use transform="matrix(0.008680555555555556,0,0,0.008680555555555556,58.923611111111114,0)" xlink:href="#E"/></g><g id="q"><use transform="matrix(0.008680555555555556,0,0,0.008680555555555556,0,0)" xlink:href="#X"/><use transform="matrix(0.008680555555555556,0,0,0.008680555555555556,10.460069444444445,0)" xlink:href="#I"/><use transform="matrix(0.008680555555555556,0,0,0.008680555555555556,21.36284722222222,0)" xlink:href="#u"/><use transform="matrix(0.008680555555555556,0,0,0.008680555555555556,32.43055555555556,0)" xlink:href="#F"/><use transform="matrix(0.008680555555555556,0,0,0.008680555555555556,39.65277777777778,0)" xlink:href="#x"/><use transform="matrix(0.008680555555555556,0,0,0.008680555555555556,44.470486111111114,0)" xlink:href="#w"/><use transform="matrix(0.008680555555555556,0,0,0.008680555555555556,51.840277777777786,0)" xlink:href="#V"/><use transform="matrix(0.008680555555555556,0,0,0.008680555555555556,68.06423611111111,0)" xlink:href="#D"/><use transform="matrix(0.008680555555555556,0,0,0.008680555555555556,78.38541666666667,0)" xlink:href="#W"/><use transform="matrix(0.008680555555555556,0,0,0.008680555555555556,84.89583333333334,0)" xlink:href="#x"/><use transform="matrix(0.008680555555555556,0,0,0.008680555555555556,89.71354166666667,0)" xlink:href="#I"/><use transform="matrix(0.008680555555555556,0,0,0.008680555555555556,100.61631944444447,0)" xlink:href="#u"/></g><path fill="#333" d="M625 442c-280 0-454-114-503-274l258-72c28 63 97 128 243 128 153 0 246-69 246-216v-206h-23C805-108 717-16 536-16 284-16 81-191 81-561c0-378 208-571 456-571 188 0 280 113 321 202h13v-188h295V-9c0 303-226 451-541 451zm5-686c153 0 240-119 240-319 0-198-86-329-240-329-158 0-241 137-241 329 0 195 85 319 241 319" id="Y"/><g id="r"><use transform="matrix(0.008680555555555556,0,0,0.008680555555555556,0,0)" xlink:href="#V"/><use transform="matrix(0.008680555555555556,0,0,0.008680555555555556,16.223958333333336,0)" xlink:href="#y"/><use transform="matrix(0.008680555555555556,0,0,0.008680555555555556,26.81423611111111,0)" xlink:href="#A"/><use transform="matrix(0.008680555555555556,0,0,0.008680555555555556,36.770833333333336,0)" xlink:href="#A"/><use transform="matrix(0.008680555555555556,0,0,0.008680555555555556,46.72743055555556,0)" xlink:href="#D"/><use transform="matrix(0.008680555555555556,0,0,0.008680555555555556,57.048611111111114,0)" xlink:href="#Y"/><use transform="matrix(0.008680555555555556,0,0,0.008680555555555556,68.28125,0)" xlink:href="#y"/></g><path d="M783 20c-382 0-661-292-661-764 0-473 279-766 661-766 302 0 548 182 601 489h-190c-42-204-217-313-411-313-268 0-476 208-476 590 0 381 209 588 476 588 195 0 369-110 411-313h190c-52 303-296 489-601 489" id="Z"/><path d="M613 24c-304 0-509-231-509-576 0-350 205-580 509-580 305 0 511 230 511 580 0 345-206 576-511 576zm0-161c226 0 329-195 329-415 0-222-103-419-329-419-223 0-326 196-326 419 0 220 103 415 326 415" id="aa"/><path d="M158 418v-1536h174v179h20c37-59 106-193 324-193 279 0 474 222 474 576 0 356-194 580-473 580-213 0-288-135-325-197h-14v591H158zm492-555c209 0 317-186 317-421 0-232-105-413-317-413-206 0-314 166-314 413 0 249 111 421 314 421" id="ab"/><path d="M338-1490V0H158v-1490h180" id="ac"/><g id="s"><use transform="matrix(0.010850694444444442,0,0,0.010850694444444442,0,0)" xlink:href="#K"/><use transform="matrix(0.010850694444444442,0,0,0.010850694444444442,14.19270833333333,0)" xlink:href="#L"/><use transform="matrix(0.010850694444444442,0,0,0.010850694444444442,26.345486111111107,0)" xlink:href="#M"/><use transform="matrix(0.010850694444444442,0,0,0.010850694444444442,38.83463541666666,0)" xlink:href="#N"/><use transform="matrix(0.010850694444444442,0,0,0.010850694444444442,58.300781249999986,0)" xlink:href="#O"/><use transform="matrix(0.010850694444444442,0,0,0.010850694444444442,71.25651041666666,0)" xlink:href="#P"/><use transform="matrix(0.010850694444444442,0,0,0.010850694444444442,84.38585069444443,0)" xlink:href="#Q"/><use transform="matrix(0.010850694444444442,0,0,0.010850694444444442,91.6558159722222,0)" xlink:href="#Z"/><use transform="matrix(0.010850694444444442,0,0,0.010850694444444442,107.88845486111109,0)" xlink:href="#aa"/><use transform="matrix(0.010850694444444442,0,0,0.010850694444444442,121.21310763888887,0)" xlink:href="#N"/><use transform="matrix(0.010850694444444442,0,0,0.010850694444444442,140.67925347222217,0)" xlink:href="#ab"/><use transform="matrix(0.010850694444444442,0,0,0.010850694444444442,154.28602430555551,0)" xlink:href="#ac"/><use transform="matrix(0.010850694444444442,0,0,0.010850694444444442,159.66796874999997,0)" xlink:href="#O"/><use transform="matrix(0.010850694444444442,0,0,0.010850694444444442,172.62369791666663,0)" xlink:href="#Q"/><use transform="matrix(0.010850694444444442,0,0,0.010850694444444442,179.67664930555551,0)" xlink:href="#O"/></g></defs></g></svg>