<svg xmlns="http://www.w3.org/2000/svg" xmlns:xlink="http://www.w3.org/1999/xlink" xmlns:lucid="lucid" width="1222" height="722"><g transform="translate(-159 -39)" lucid:page-tab-id="B~LHf8meXU2."><path d="M0 0h1500v1000H0z" fill="#fff"/><path d="M200 200c0 11.05-8.95 20-20 20s-20-8.95-20-20 8.95-20 20-20 20 8.95 20 20z" stroke="#000" stroke-width="2"/><path d="M336 160c-8.84 0-16 7.16-16 16v48c0 8.84 7.16 16 16 16h128c8.84 0 16-7.16 16-16v-48c0-8.84-7.16-16-16-16z" stroke="#000" stroke-width="2" fill="#fff"/><use xlink:href="#a" transform="matrix(1,0,0,1,328,168) translate(53.80208333333333 39.76041666666667)"/><path d="M816 40c-8.84 0-16 7.16-16 16v48c0 8.84 7.16 16 16 16h231.78c8.83 0 16-7.16 16-16V56c0-8.84-7.17-16-16-16z" stroke="#000" stroke-width="2" fill="#fff"/><use xlink:href="#b" transform="matrix(1,0,0,1,808,48) translate(16.739583333333357 39.76041666666667)"/><path d="M286 360c-8.84 0-16 7.16-16 16v48c0 8.84 7.16 16 16 16h228c8.84 0 16-7.16 16-16v-48c0-8.84-7.16-16-16-16z" stroke="#000" stroke-width="2" fill="#fff"/><use xlink:href="#c" transform="matrix(1,0,0,1,278,368) translate(6.020833333333343 39.76041666666667)"/><path d="M756 380c-8.84 0-16 7.16-16 16v48c0 8.84 7.16 16 16 16h128c8.84 0 16-7.16 16-16v-48c0-8.84-7.16-16-16-16z" stroke="#000" stroke-width="2" fill="#fff"/><use xlink:href="#d" transform="matrix(1,0,0,1,748,388) translate(-1.1614583333333428 39.76041666666667)"/><path d="M336 580c-8.84 0-16 7.16-16 16v48c0 8.84 7.16 16 16 16h128c8.84 0 16-7.16 16-16v-48c0-8.84-7.16-16-16-16z" stroke="#000" stroke-width="2" fill="#fff"/><use xlink:href="#e" transform="matrix(1,0,0,1,328,588) translate(-3.2395833333333286 39.76041666666667)"/><path d="M1016 680c-8.84 0-16 7.16-16 16v48c0 8.84 7.16 16 16 16h128c8.84 0 16-7.16 16-16v-48c0-8.84-7.16-16-16-16z" stroke="#000" stroke-width="2" fill="#fff"/><use xlink:href="#f" transform="matrix(1,0,0,1,1008,688) translate(24.572916666666657 39.76041666666667)"/><path d="M201.5 200h108.06" stroke="#3a414a" fill="none"/><path d="M201.5 200.47h-.55l.05-.43-.02-.5h.53z" stroke="#3a414a" stroke-width=".05" fill="#3a414a"/><path d="M300.68 190L318 200l-17.32 10M318 200h-8.5" stroke="#3a414a" fill="none"/><path d="M640.48 194.02l-.08 1-.24.98-.4.94-.52.87-.66.78-.77.66-.86.53-.94.4-1 .23-.98.07H481.5v-.94h152.48l.88-.07.85-.2.8-.34.75-.45.66-.56.57-.65.45-.74.33-.8.2-.84.07-.88V152.9h.96zM789.56 80.47H646.02l-.88.07-.85.2-.8.34-.75.45-.66.56-.57.65-.45.74-.33.8-.2.84-.07.88v41.07h-.96V85.97l.08-1 .24-.98.4-.94.52-.87.66-.78.77-.66.86-.53.94-.4 1-.23.98-.07h143.58z" stroke="#3a414a" stroke-width=".05" fill="#3a414a"/><path d="M481.5 200.47h-.5v-.94h.5z" fill="#3a414a"/><path stroke="#3a414a" stroke-width=".05" fill="#3a414a"/><path d="M798.95 80l-18.03 10.4-.48-.8 15.8-9.13h-6.74v-.94h6.73l-15.8-9.12.5-.8z" stroke="#3a414a" stroke-width=".05" fill="#3a414a"/><use xlink:href="#g" transform="matrix(1,0,0,1,463.59375,127.09375) translate(0 20.666666666666668)"/><use xlink:href="#h" transform="matrix(1,0,0,1,463.59375,127.09375) translate(77.52083333333334 20.666666666666668)"/><use xlink:href="#i" transform="matrix(1,0,0,1,463.59375,127.09375) translate(114.56250000000001 20.666666666666668)"/><use xlink:href="#j" transform="matrix(1,0,0,1,463.59375,127.09375) translate(138.33333333333334 20.666666666666668)"/><use xlink:href="#k" transform="matrix(1,0,0,1,463.59375,127.09375) translate(152.02083333333334 20.666666666666668)"/><use xlink:href="#l" transform="matrix(1,0,0,1,463.59375,127.09375) translate(229.39583333333334 20.666666666666668)"/><use xlink:href="#m" transform="matrix(1,0,0,1,463.59375,127.09375) translate(284.20833333333337 20.666666666666668)"/><path d="M400.48 349.56h-.96v-53.02h.96zm0-78.83h-.96V241.5h.96z" stroke="#3a414a" stroke-width=".05" fill="#3a414a"/><path d="M400.48 241.5h-.96v-.5h.96z" fill="#3a414a"/><path stroke="#3a414a" stroke-width=".05" fill="#3a414a"/><path d="M410.4 340.92L400 358.95l-10.4-18.03.8-.48 9.13 15.8v-6.74h.95v6.73l9.1-15.8z" stroke="#3a414a" stroke-width=".05" fill="#3a414a"/><use xlink:href="#g" transform="matrix(1,0,0,1,201.61458333333331,270.7306426253501) translate(0 20.666666666666668)"/><use xlink:href="#n" transform="matrix(1,0,0,1,201.61458333333331,270.7306426253501) translate(77.52083333333334 20.666666666666668)"/><use xlink:href="#o" transform="matrix(1,0,0,1,201.61458333333331,270.7306426253501) translate(125.63541666666669 20.666666666666668)"/><use xlink:href="#j" transform="matrix(1,0,0,1,201.61458333333331,270.7306426253501) translate(157.31250000000003 20.666666666666668)"/><use xlink:href="#k" transform="matrix(1,0,0,1,201.61458333333331,270.7306426253501) translate(171.00000000000003 20.666666666666668)"/><use xlink:href="#n" transform="matrix(1,0,0,1,201.61458333333331,270.7306426253501) translate(248.37500000000003 20.666666666666668)"/><use xlink:href="#o" transform="matrix(1,0,0,1,201.61458333333331,270.7306426253501) translate(296.48958333333337 20.666666666666668)"/><use xlink:href="#m" transform="matrix(1,0,0,1,201.61458333333331,270.7306426253501) translate(328.1666666666667 20.666666666666668)"/><path d="M871.76 250.47h-45.74l-.88.07-.85.2-.8.34-.75.45-.66.56-.57.65-.45.74-.33.8-.2.84-.07.88v113.54h-.96V255.98l.08-1 .24-.98.4-.94.52-.87.66-.78.77-.66.86-.53.94-.4 1-.23.98-.07h45.78zm60.6-28.86h-.95V121.5h.96z" stroke="#3a414a" stroke-width=".05" fill="#3a414a"/><path d="M932.36 121.5h-.95v-.5h.96z" fill="#3a414a"/><path stroke="#3a414a" stroke-width=".05" fill="#3a414a"/><path d="M830.4 360.92L820 378.95l-10.4-18.03.8-.48 9.13 15.8v-6.74h.95v6.73l9.1-15.8z" stroke="#3a414a" stroke-width=".05" fill="#3a414a"/><use xlink:href="#p" transform="matrix(1,0,0,1,871.7579185030222,221.60625) translate(0 20.666666666666668)"/><use xlink:href="#q" transform="matrix(1,0,0,1,871.7579185030222,221.60625) translate(0 51.641666666666666)"/><path d="M1074.02 569.52l1 .08.98.24.94.4.87.52.78.66.66.77.53.86.4.94.23 1 .07.98v93.58h-.94v-93.54l-.07-.88-.2-.85-.34-.8-.45-.75-.56-.66-.65-.57-.74-.45-.8-.33-.84-.2-.88-.07h-27.37l.02-.96zm-253.48-4.66l.2.85.34.8.45.75.56.66.65.57.74.45.8.33.84.2.88.07h27.37v.96h-27.42l-1-.08-.98-.24-.94-.4-.87-.52-.78-.66-.66-.77-.53-.86-.4-.94-.23-1-.08-.98V461.5h.96v102.48z" stroke="#3a414a" stroke-width=".05" fill="#3a414a"/><path d="M820.48 461.5h-.96v-.5h.96z" fill="#3a414a"/><path stroke="#3a414a" stroke-width=".05" fill="#3a414a"/><path d="M1090.4 660.92l-10.4 18.03-10.4-18.03.8-.48 9.13 15.8v-6.74h.94v6.73l9.12-15.8z" stroke="#3a414a" stroke-width=".05" fill="#3a414a"/><use xlink:href="#r" transform="matrix(1,0,0,1,853.3854166666666,541.60625) translate(0 20.666666666666668)"/><use xlink:href="#s" transform="matrix(1,0,0,1,853.3854166666666,541.60625) translate(124.50000000000004 20.666666666666668)"/><use xlink:href="#t" transform="matrix(1,0,0,1,853.3854166666666,541.60625) translate(185.5416666666667 20.666666666666668)"/><use xlink:href="#h" transform="matrix(1,0,0,1,853.3854166666666,541.60625) translate(0 51.641666666666666)"/><use xlink:href="#i" transform="matrix(1,0,0,1,853.3854166666666,541.60625) translate(37.04166666666667 51.641666666666666)"/><use xlink:href="#u" transform="matrix(1,0,0,1,853.3854166666666,541.60625) translate(60.81250000000001 51.641666666666666)"/><path d="M1105.25 414.02l-.08 1-.23.98-.4.94-.52.87-.66.78-.77.66-.88.53-.94.4-1 .23-.98.08H901.5v-.96h197.26l.88-.06.84-.2.8-.34.74-.45.66-.56.57-.65.45-.74.33-.8.2-.84.07-.88V344.8h.95zM1099.8 79.6l.98.24.94.4.87.52.76.66.66.77.53.86.4.94.22 1 .08.98v233h-.95V86.02l-.07-.88-.2-.85-.33-.8-.45-.75-.57-.66-.66-.57-.73-.45-.82-.33-.84-.2-.88-.08h-24.54v-.94h24.58z" stroke="#3a414a" stroke-width=".05" fill="#3a414a"/><path d="M901.5 420.48h-.5v-.96h.5z" fill="#3a414a"/><path stroke="#3a414a" stroke-width=".05" fill="#3a414a"/><path d="M1083.34 70.4l-15.8 9.13h6.74v.94h-6.73l15.8 9.12-.5.8-18.02-10.4 18.03-10.4z" stroke="#3a414a" stroke-width=".05" fill="#3a414a"/><g><use xlink:href="#r" transform="matrix(1,0,0,1,884.5225696666668,318.98263900000006) translate(0 20.666666666666668)"/><use xlink:href="#v" transform="matrix(1,0,0,1,884.5225696666668,318.98263900000006) translate(124.50000000000004 20.666666666666668)"/><use xlink:href="#j" transform="matrix(1,0,0,1,884.5225696666668,318.98263900000006) translate(203.00000000000006 20.666666666666668)"/><use xlink:href="#k" transform="matrix(1,0,0,1,884.5225696666668,318.98263900000006) translate(216.68750000000006 20.666666666666668)"/><use xlink:href="#w" transform="matrix(1,0,0,1,884.5225696666668,318.98263900000006) translate(294.06250000000006 20.666666666666668)"/><use xlink:href="#x" transform="matrix(1,0,0,1,884.5225696666668,318.98263900000006) translate(349.36458333333337 20.666666666666668)"/></g><path d="M400.48 569.56h-.96V522.9h.96zm0-72.47h-.96v-55.6h.96z" stroke="#3a414a" stroke-width=".05" fill="#3a414a"/><path d="M400.48 441.5h-.96v-.5h.96z" fill="#3a414a"/><path stroke="#3a414a" stroke-width=".05" fill="#3a414a"/><path d="M410.4 560.92L400 578.95l-10.4-18.03.8-.48 9.13 15.8v-6.74h.95v6.73l9.1-15.8z" stroke="#3a414a" stroke-width=".05" fill="#3a414a"/><g><use xlink:href="#y" transform="matrix(1,0,0,1,320.6927083333333,497.09375) translate(0 20.666666666666668)"/><use xlink:href="#n" transform="matrix(1,0,0,1,320.6927083333333,497.09375) translate(84.82291666666667 20.666666666666668)"/><use xlink:href="#z" transform="matrix(1,0,0,1,320.6927083333333,497.09375) translate(132.9375 20.666666666666668)"/></g><path d="M740.48 713.98l.06.88.2.85.34.8.45.75.56.66.65.57.74.45.8.33.84.2.88.07h243.54v.96H745.98l-1-.08-.98-.24-.94-.4-.87-.52-.78-.66-.66-.77-.53-.86-.4-.94-.23-1-.08-.98v-31.1h.96zM735 619.6l1 .24.94.4.87.52.78.66.66.77.53.86.4.94.23 1 .08.98v31.1h-.96v-31.06l-.06-.88-.2-.85-.34-.8-.45-.75-.56-.66-.65-.57-.74-.45-.8-.33-.84-.2-.88-.07H481.5v-.96h252.52z" stroke="#3a414a" stroke-width=".05" fill="#3a414a"/><path d="M481.5 620.48h-.5v-.96h.5z" fill="#3a414a"/><path stroke="#3a414a" stroke-width=".05" fill="#3a414a"/><path d="M998.95 720l-18.03 10.4-.48-.8 15.8-9.13h-6.74v-.95h6.73l-15.8-9.1.5-.83z" stroke="#3a414a" stroke-width=".05" fill="#3a414a"/><g><use xlink:href="#A" transform="matrix(1,0,0,1,596.3177083333333,657.09375) translate(0 20.666666666666668)"/><use xlink:href="#B" transform="matrix(1,0,0,1,596.3177083333333,657.09375) translate(77.97916666666667 20.666666666666668)"/><use xlink:href="#j" transform="matrix(1,0,0,1,596.3177083333333,657.09375) translate(168.52083333333334 20.666666666666668)"/><use xlink:href="#h" transform="matrix(1,0,0,1,596.3177083333333,657.09375) translate(182.20833333333334 20.666666666666668)"/><use xlink:href="#i" transform="matrix(1,0,0,1,596.3177083333333,657.09375) translate(219.25 20.666666666666668)"/><use xlink:href="#u" transform="matrix(1,0,0,1,596.3177083333333,657.09375) translate(243.02083333333334 20.666666666666668)"/></g><path d="M1380 720c0 11.05-8.95 20-20 20s-20-8.95-20-20 8.95-20 20-20 20 8.95 20 20z" stroke="#000" stroke-width="2" fill="#fff"/><path d="M1372 720c0 6.63-5.37 12-12 12s-12-5.37-12-12 5.37-12 12-12 12 5.37 12 12z" stroke="#000" stroke-width="2"/><path d="M1161.5 720h168.06" stroke="#3a414a" fill="none"/><path d="M1161.5 720.48h-.5v-.96h.5z" stroke="#3a414a" stroke-width=".05" fill="#3a414a"/><path d="M1320.68 710l17.32 10-17.32 10m17.32-10h-8.5" stroke="#3a414a" fill="none"/><defs><path d="M370-1490V0H180v-1490h190" id="C"/><path d="M577 24c-279 0-473-224-473-580 0-354 195-576 474-576 218 0 287 134 324 193h14v-551h180V0H922v-173h-20C865-111 790 24 577 24zm27-161c203 0 314-172 314-421 0-247-108-413-314-413-212 0-317 181-317 413 0 235 108 421 317 421" id="D"/><path d="M338-1490V0H158v-1490h180" id="E"/><path d="M628 24c-324 0-524-230-524-574 0-343 198-582 503-582 237 0 487 146 487 559v75H286c9 234 145 362 343 362 132 0 231-58 273-172l174 48C1024-91 857 24 628 24zM287-650h624c-17-190-120-322-304-322-192 0-309 151-320 322" id="F"/><g id="a"><use transform="matrix(0.010416666666666668,0,0,0.010416666666666668,0,0)" xlink:href="#C"/><use transform="matrix(0.010416666666666668,0,0,0.010416666666666668,5.729166666666667,0)" xlink:href="#D"/><use transform="matrix(0.010416666666666668,0,0,0.010416666666666668,18.791666666666668,0)" xlink:href="#E"/><use transform="matrix(0.010416666666666668,0,0,0.010416666666666668,23.958333333333336,0)" xlink:href="#F"/></g><path d="M458 0L52-1490h194c108 439 233 855 324 1313 92-459 221-873 331-1313h216c110 438 234 854 330 1307 92-455 216-869 323-1307h196L1558 0h-221l-256-944c-26-95-50-200-73-331-22 122-44 223-73 331L680 0H458" id="G"/><path d="M471 26C259 26 90-98 90-318c0-256 228-303 435-329 202-27 287-16 287-108 0-139-79-219-234-219-161 0-248 86-283 164l-173-57c86-203 278-265 451-265 150 0 419 46 419 395V0H815v-152h-12C765-73 660 26 471 26zm31-159c199 0 310-134 310-271v-155c-30 35-226 55-295 64-131 17-246 59-246 186 0 116 97 176 231 176" id="H"/><path d="M158 0v-1118h180V0H158zm91-1301c-68 0-125-53-125-119s57-119 125-119c69 0 126 53 126 119s-57 119-126 119" id="I"/><path d="M598-1118v154H368v674c0 100 37 144 132 144 23 0 62-6 92-12L629-6c-37 13-88 20-134 20-193 0-307-107-307-290v-688H20v-154h168v-266h180v266h230" id="J"/><path d="M338-670V0H158v-1118h173l1 207c72-158 192-221 342-221 226 0 378 139 378 422V0H872v-695c0-172-96-275-252-275-161 0-282 109-282 300" id="K"/><path d="M611 442c-248 0-391-105-460-228l146-94c47 65 117 165 314 165 178 0 307-82 307-266v-224h-17C863-141 792-18 576-18c-268 0-472-195-472-546 0-346 197-568 476-568 216 0 288 133 326 193h17v-179h175V29c0 289-215 413-487 413zm-5-620c203 0 314-146 314-390 0-237-108-403-314-403-213 0-319 180-319 403 0 230 109 390 319 390" id="L"/><path d="M180 0v-1490h901v168H370v510h643v168H370V0H180" id="M"/><path d="M613 24c-304 0-509-231-509-576 0-350 205-580 509-580 305 0 511 230 511 580 0 345-206 576-511 576zm0-161c226 0 329-195 329-415 0-222-103-419-329-419-223 0-326 196-326 419 0 220 103 415 326 415" id="N"/><path d="M158 0v-1118h174v172h12c41-113 157-188 290-188 26 0 70 2 91 3v181c-11-2-60-10-108-10-161 0-279 109-279 260V0H158" id="O"/><path d="M180 0v-1490h190v1322h690V0H180" id="P"/><path d="M158 418v-1536h174v179h20c37-59 106-193 324-193 279 0 474 222 474 576 0 356-194 580-473 580-213 0-288-135-325-197h-14v591H158zm492-555c209 0 317-186 317-421 0-232-105-413-317-413-206 0-314 166-314 413 0 249 111 421 314 421" id="Q"/><path d="M537 14c-226 0-379-139-379-422v-710h180v695c0 172 97 275 253 275 160 0 281-109 281-300v-670h181V0H879v-209C806-46 684 14 537 14" id="R"/><g id="b"><use transform="matrix(0.010416666666666668,0,0,0.010416666666666668,0,0)" xlink:href="#G"/><use transform="matrix(0.010416666666666668,0,0,0.010416666666666668,19.937500000000004,0)" xlink:href="#H"/><use transform="matrix(0.010416666666666668,0,0,0.010416666666666668,31.91666666666667,0)" xlink:href="#I"/><use transform="matrix(0.010416666666666668,0,0,0.010416666666666668,37.083333333333336,0)" xlink:href="#J"/><use transform="matrix(0.010416666666666668,0,0,0.010416666666666668,44.06249999999999,0)" xlink:href="#I"/><use transform="matrix(0.010416666666666668,0,0,0.010416666666666668,49.229166666666664,0)" xlink:href="#K"/><use transform="matrix(0.010416666666666668,0,0,0.010416666666666668,61.83333333333333,0)" xlink:href="#L"/><use transform="matrix(0.010416666666666668,0,0,0.010416666666666668,74.91666666666666,0)" xlink:href="#M"/><use transform="matrix(0.010416666666666668,0,0,0.010416666666666668,86.66666666666666,0)" xlink:href="#N"/><use transform="matrix(0.010416666666666668,0,0,0.010416666666666668,99.45833333333333,0)" xlink:href="#O"/><use transform="matrix(0.010416666666666668,0,0,0.010416666666666668,107.82291666666666,0)" xlink:href="#P"/><use transform="matrix(0.010416666666666668,0,0,0.010416666666666668,119.88541666666666,0)" xlink:href="#N"/><use transform="matrix(0.010416666666666668,0,0,0.010416666666666668,132.67708333333331,0)" xlink:href="#L"/><use transform="matrix(0.010416666666666668,0,0,0.010416666666666668,145.76041666666666,0)" xlink:href="#I"/><use transform="matrix(0.010416666666666668,0,0,0.010416666666666668,150.92708333333331,0)" xlink:href="#K"/><use transform="matrix(0.010416666666666668,0,0,0.010416666666666668,163.53124999999997,0)" xlink:href="#C"/><use transform="matrix(0.010416666666666668,0,0,0.010416666666666668,169.26041666666663,0)" xlink:href="#K"/><use transform="matrix(0.010416666666666668,0,0,0.010416666666666668,181.8645833333333,0)" xlink:href="#Q"/><use transform="matrix(0.010416666666666668,0,0,0.010416666666666668,194.9270833333333,0)" xlink:href="#R"/><use transform="matrix(0.010416666666666668,0,0,0.010416666666666668,207.5416666666666,0)" xlink:href="#J"/></g><path d="M657 26c-323 0-524-166-541-416h195c15 169 171 246 346 246 202 0 356-106 356-265 5-203-294-238-475-293-239-73-380-191-380-389 0-252 224-419 512-419 294 0 499 171 508 396H992c-17-145-151-228-328-228-193 0-321 102-321 242 0 156 175 211 284 241l149 41c160 44 422 134 422 412 0 244-197 432-541 432" id="S"/><path d="M763 24c-353 0-583-224-583-531v-983h190v968c0 214 149 370 393 370 243 0 391-156 391-370v-968h190v983c0 307-230 531-581 531" id="T"/><g id="c"><use transform="matrix(0.010416666666666668,0,0,0.010416666666666668,0,0)" xlink:href="#G"/><use transform="matrix(0.010416666666666668,0,0,0.010416666666666668,19.937500000000004,0)" xlink:href="#H"/><use transform="matrix(0.010416666666666668,0,0,0.010416666666666668,31.91666666666667,0)" xlink:href="#I"/><use transform="matrix(0.010416666666666668,0,0,0.010416666666666668,37.083333333333336,0)" xlink:href="#J"/><use transform="matrix(0.010416666666666668,0,0,0.010416666666666668,44.06249999999999,0)" xlink:href="#I"/><use transform="matrix(0.010416666666666668,0,0,0.010416666666666668,49.229166666666664,0)" xlink:href="#K"/><use transform="matrix(0.010416666666666668,0,0,0.010416666666666668,61.83333333333333,0)" xlink:href="#L"/><use transform="matrix(0.010416666666666668,0,0,0.010416666666666668,74.91666666666666,0)" xlink:href="#M"/><use transform="matrix(0.010416666666666668,0,0,0.010416666666666668,86.66666666666666,0)" xlink:href="#N"/><use transform="matrix(0.010416666666666668,0,0,0.010416666666666668,99.45833333333333,0)" xlink:href="#O"/><use transform="matrix(0.010416666666666668,0,0,0.010416666666666668,107.48958333333333,0)" xlink:href="#S"/><use transform="matrix(0.010416666666666668,0,0,0.010416666666666668,121.17708333333333,0)" xlink:href="#I"/><use transform="matrix(0.010416666666666668,0,0,0.010416666666666668,126.34375,0)" xlink:href="#L"/><use transform="matrix(0.010416666666666668,0,0,0.010416666666666668,139.42708333333334,0)" xlink:href="#K"/><use transform="matrix(0.010416666666666668,0,0,0.010416666666666668,152.03125,0)" xlink:href="#T"/><use transform="matrix(0.010416666666666668,0,0,0.010416666666666668,167.90625,0)" xlink:href="#Q"/><use transform="matrix(0.010416666666666668,0,0,0.010416666666666668,180.96874999999997,0)" xlink:href="#C"/><use transform="matrix(0.010416666666666668,0,0,0.010416666666666668,186.69791666666666,0)" xlink:href="#K"/><use transform="matrix(0.010416666666666668,0,0,0.010416666666666668,199.30208333333331,0)" xlink:href="#Q"/><use transform="matrix(0.010416666666666668,0,0,0.010416666666666668,212.36458333333331,0)" xlink:href="#R"/><use transform="matrix(0.010416666666666668,0,0,0.010416666666666668,224.97916666666666,0)" xlink:href="#J"/></g><path d="M52 0l541-1490h220L1361 0h-200l-149-416H398L254 0H52zm404-582h497c-103-290-145-390-251-756-108 377-145 460-246 756" id="U"/><path d="M338-670V0H158v-1490h180v566c73-149 190-208 336-208 226 0 379 139 379 422V0H872v-695c0-172-96-275-252-275-161 0-282 109-282 300" id="V"/><path d="M613 24c-304 0-509-231-509-576 0-350 205-580 509-580 216 0 392 114 453 309l-173 49c-33-115-133-197-280-197-223 0-326 196-326 419 0 220 103 415 326 415 150 0 252-85 285-206l172 49C1010-95 832 24 613 24" id="W"/><g id="d"><use transform="matrix(0.010416666666666668,0,0,0.010416666666666668,0,0)" xlink:href="#U"/><use transform="matrix(0.010416666666666668,0,0,0.010416666666666668,14.718750000000002,0)" xlink:href="#R"/><use transform="matrix(0.010416666666666668,0,0,0.010416666666666668,27.333333333333336,0)" xlink:href="#J"/><use transform="matrix(0.010416666666666668,0,0,0.010416666666666668,34.3125,0)" xlink:href="#V"/><use transform="matrix(0.010416666666666668,0,0,0.010416666666666668,46.927083333333336,0)" xlink:href="#F"/><use transform="matrix(0.010416666666666668,0,0,0.010416666666666668,59.36458333333334,0)" xlink:href="#K"/><use transform="matrix(0.010416666666666668,0,0,0.010416666666666668,71.96875,0)" xlink:href="#J"/><use transform="matrix(0.010416666666666668,0,0,0.010416666666666668,78.94791666666667,0)" xlink:href="#I"/><use transform="matrix(0.010416666666666668,0,0,0.010416666666666668,84.11458333333334,0)" xlink:href="#W"/><use transform="matrix(0.010416666666666668,0,0,0.010416666666666668,96.51041666666667,0)" xlink:href="#H"/><use transform="matrix(0.010416666666666668,0,0,0.010416666666666668,108.48958333333334,0)" xlink:href="#J"/><use transform="matrix(0.010416666666666668,0,0,0.010416666666666668,115.46875000000001,0)" xlink:href="#I"/><use transform="matrix(0.010416666666666668,0,0,0.010416666666666668,120.63541666666669,0)" xlink:href="#K"/><use transform="matrix(0.010416666666666668,0,0,0.010416666666666668,133.23958333333334,0)" xlink:href="#L"/></g><path d="M783 20c-382 0-661-292-661-764 0-473 279-766 661-766 302 0 548 182 601 489h-190c-42-204-217-313-411-313-268 0-476 208-476 590 0 381 209 588 476 588 195 0 369-110 411-313h190c-52 303-296 489-601 489" id="X"/><path d="M180 0v-1490h510c348 0 508 209 508 474 0 266-160 477-507 477H370V0H180zm190-706h312c236 0 327-133 327-310 0-176-91-307-329-307H370v617" id="Y"/><path d="M678-1118v154H420V0H240v-964H20v-154h220v-149c0-194 155-293 318-293 85 0 141 18 168 30l-50 154c-19-6-47-17-97-17-111 0-159 58-159 166v109h258" id="Z"/><g id="e"><use transform="matrix(0.010416666666666668,0,0,0.010416666666666668,0,0)" xlink:href="#X"/><use transform="matrix(0.010416666666666668,0,0,0.010416666666666668,15.583333333333336,0)" xlink:href="#O"/><use transform="matrix(0.010416666666666668,0,0,0.010416666666666668,23.260416666666668,0)" xlink:href="#F"/><use transform="matrix(0.010416666666666668,0,0,0.010416666666666668,35.90625000000001,0)" xlink:href="#H"/><use transform="matrix(0.010416666666666668,0,0,0.010416666666666668,47.88541666666667,0)" xlink:href="#J"/><use transform="matrix(0.010416666666666668,0,0,0.010416666666666668,54.86458333333334,0)" xlink:href="#I"/><use transform="matrix(0.010416666666666668,0,0,0.010416666666666668,60.03125000000001,0)" xlink:href="#K"/><use transform="matrix(0.010416666666666668,0,0,0.010416666666666668,72.63541666666667,0)" xlink:href="#L"/><use transform="matrix(0.010416666666666668,0,0,0.010416666666666668,85.71874999999999,0)" xlink:href="#Y"/><use transform="matrix(0.010416666666666668,0,0,0.010416666666666668,99.34374999999999,0)" xlink:href="#O"/><use transform="matrix(0.010416666666666668,0,0,0.010416666666666668,107.02083333333333,0)" xlink:href="#N"/><use transform="matrix(0.010416666666666668,0,0,0.010416666666666668,119.8125,0)" xlink:href="#Z"/><use transform="matrix(0.010416666666666668,0,0,0.010416666666666668,127.70833333333333,0)" xlink:href="#I"/><use transform="matrix(0.010416666666666668,0,0,0.010416666666666668,132.875,0)" xlink:href="#E"/><use transform="matrix(0.010416666666666668,0,0,0.010416666666666668,138.04166666666666,0)" xlink:href="#F"/></g><g id="f"><use transform="matrix(0.010416666666666668,0,0,0.010416666666666668,0,0)" xlink:href="#P"/><use transform="matrix(0.010416666666666668,0,0,0.010416666666666668,12.062500000000002,0)" xlink:href="#N"/><use transform="matrix(0.010416666666666668,0,0,0.010416666666666668,24.854166666666668,0)" xlink:href="#L"/><use transform="matrix(0.010416666666666668,0,0,0.010416666666666668,37.93750000000001,0)" xlink:href="#L"/><use transform="matrix(0.010416666666666668,0,0,0.010416666666666668,51.020833333333336,0)" xlink:href="#F"/><use transform="matrix(0.010416666666666668,0,0,0.010416666666666668,63.45833333333334,0)" xlink:href="#D"/><use transform="matrix(0.010416666666666668,0,0,0.010416666666666668,76.52083333333334,0)" xlink:href="#C"/><use transform="matrix(0.010416666666666668,0,0,0.010416666666666668,82.25000000000001,0)" xlink:href="#K"/></g><path d="M538 24C308 24 148-78 108-271l171-41c32 123 123 178 257 178 156 0 256-77 256-169 0-77-54-128-164-154l-186-44c-203-48-300-148-300-305 0-192 176-326 414-326 230 0 351 112 402 269l-163 42c-31-80-94-158-238-158-133 0-233 69-233 162 0 83 57 129 188 160l169 40c203 48 298 149 298 302 0 196-179 339-441 339" id="aa"/><g id="g"><use transform="matrix(0.010416666666666668,0,0,0.010416666666666668,0,0)" xlink:href="#aa"/><use transform="matrix(0.010416666666666668,0,0,0.010416666666666668,11.260416666666668,0)" xlink:href="#F"/><use transform="matrix(0.010416666666666668,0,0,0.010416666666666668,23.697916666666668,0)" xlink:href="#E"/><use transform="matrix(0.010416666666666668,0,0,0.010416666666666668,28.864583333333343,0)" xlink:href="#F"/><use transform="matrix(0.010416666666666668,0,0,0.010416666666666668,41.30208333333334,0)" xlink:href="#W"/><use transform="matrix(0.010416666666666668,0,0,0.010416666666666668,53.48958333333334,0)" xlink:href="#J"/><use transform="matrix(0.010416666666666668,0,0,0.010416666666666668,60.26041666666667,0)" xlink:href="#aa"/></g><g id="h"><use transform="matrix(0.010416666666666668,0,0,0.010416666666666668,0,0)" xlink:href="#E"/><use transform="matrix(0.010416666666666668,0,0,0.010416666666666668,5.166666666666667,0)" xlink:href="#N"/><use transform="matrix(0.010416666666666668,0,0,0.010416666666666668,17.958333333333336,0)" xlink:href="#L"/></g><g id="i"><use transform="matrix(0.010416666666666668,0,0,0.010416666666666668,0,0)" xlink:href="#I"/><use transform="matrix(0.010416666666666668,0,0,0.010416666666666668,5.166666666666667,0)" xlink:href="#K"/></g><path d="M692-1560L212 224H46l480-1784h166" id="ab"/><use transform="matrix(0.010416666666666668,0,0,0.010416666666666668,0,0)" xlink:href="#ab" id="j"/><path d="M140 405l46-156c120 36 205 19 263-150l32-93L54-1118h197c107 313 237 620 324 950 87-331 219-637 326-950h196L606 167c-68 178-176 259-334 259-64 0-113-12-132-21" id="ac"/><g id="k"><use transform="matrix(0.010416666666666668,0,0,0.010416666666666668,0,0)" xlink:href="#D"/><use transform="matrix(0.010416666666666668,0,0,0.010416666666666668,13.062500000000002,0)" xlink:href="#I"/><use transform="matrix(0.010416666666666668,0,0,0.010416666666666668,18.229166666666668,0)" xlink:href="#aa"/><use transform="matrix(0.010416666666666668,0,0,0.010416666666666668,29.489583333333336,0)" xlink:href="#Q"/><use transform="matrix(0.010416666666666668,0,0,0.010416666666666668,42.552083333333336,0)" xlink:href="#E"/><use transform="matrix(0.010416666666666668,0,0,0.010416666666666668,47.71874999999999,0)" xlink:href="#H"/><use transform="matrix(0.010416666666666668,0,0,0.010416666666666668,59.38541666666667,0)" xlink:href="#ac"/></g><g id="l"><use transform="matrix(0.010416666666666668,0,0,0.010416666666666668,0,0)" xlink:href="#E"/><use transform="matrix(0.010416666666666668,0,0,0.010416666666666668,5.166666666666667,0)" xlink:href="#N"/><use transform="matrix(0.010416666666666668,0,0,0.010416666666666668,17.958333333333336,0)" xlink:href="#L"/><use transform="matrix(0.010416666666666668,0,0,0.010416666666666668,31.04166666666667,0)" xlink:href="#I"/><use transform="matrix(0.010416666666666668,0,0,0.010416666666666668,36.208333333333336,0)" xlink:href="#K"/></g><g id="m"><use transform="matrix(0.010416666666666668,0,0,0.010416666666666668,0,0)" xlink:href="#aa"/><use transform="matrix(0.010416666666666668,0,0,0.010416666666666668,11.260416666666668,0)" xlink:href="#W"/><use transform="matrix(0.010416666666666668,0,0,0.010416666666666668,23.447916666666668,0)" xlink:href="#O"/><use transform="matrix(0.010416666666666668,0,0,0.010416666666666668,31.125000000000007,0)" xlink:href="#F"/><use transform="matrix(0.010416666666666668,0,0,0.010416666666666668,43.56250000000001,0)" xlink:href="#F"/><use transform="matrix(0.010416666666666668,0,0,0.010416666666666668,56.00000000000001,0)" xlink:href="#K"/></g><g id="n"><use transform="matrix(0.010416666666666668,0,0,0.010416666666666668,0,0)" xlink:href="#aa"/><use transform="matrix(0.010416666666666668,0,0,0.010416666666666668,11.260416666666668,0)" xlink:href="#I"/><use transform="matrix(0.010416666666666668,0,0,0.010416666666666668,16.427083333333336,0)" xlink:href="#L"/><use transform="matrix(0.010416666666666668,0,0,0.010416666666666668,29.51041666666667,0)" xlink:href="#K"/></g><g id="o"><use transform="matrix(0.010416666666666668,0,0,0.010416666666666668,0,0)" xlink:href="#R"/><use transform="matrix(0.010416666666666668,0,0,0.010416666666666668,12.614583333333334,0)" xlink:href="#Q"/></g><g id="p"><use transform="matrix(0.010416666666666668,0,0,0.010416666666666668,0,0)" xlink:href="#F"/><use transform="matrix(0.010416666666666668,0,0,0.010416666666666668,12.437500000000002,0)" xlink:href="#K"/><use transform="matrix(0.010416666666666668,0,0,0.010416666666666668,25.041666666666668,0)" xlink:href="#J"/><use transform="matrix(0.010416666666666668,0,0,0.010416666666666668,31.812500000000007,0)" xlink:href="#F"/><use transform="matrix(0.010416666666666668,0,0,0.010416666666666668,44.25000000000001,0)" xlink:href="#O"/><use transform="matrix(0.010416666666666668,0,0,0.010416666666666668,52.28125000000001,0)" xlink:href="#aa"/></g><g id="q"><use transform="matrix(0.010416666666666668,0,0,0.010416666666666668,0,0)" xlink:href="#W"/><use transform="matrix(0.010416666666666668,0,0,0.010416666666666668,12.187500000000002,0)" xlink:href="#O"/><use transform="matrix(0.010416666666666668,0,0,0.010416666666666668,19.864583333333336,0)" xlink:href="#F"/><use transform="matrix(0.010416666666666668,0,0,0.010416666666666668,32.302083333333336,0)" xlink:href="#D"/><use transform="matrix(0.010416666666666668,0,0,0.010416666666666668,45.364583333333336,0)" xlink:href="#F"/><use transform="matrix(0.010416666666666668,0,0,0.010416666666666668,57.80208333333334,0)" xlink:href="#K"/><use transform="matrix(0.010416666666666668,0,0,0.010416666666666668,70.40625,0)" xlink:href="#J"/><use transform="matrix(0.010416666666666668,0,0,0.010416666666666668,77.38541666666667,0)" xlink:href="#I"/><use transform="matrix(0.010416666666666668,0,0,0.010416666666666668,82.55208333333334,0)" xlink:href="#H"/><use transform="matrix(0.010416666666666668,0,0,0.010416666666666668,94.53125000000001,0)" xlink:href="#E"/><use transform="matrix(0.010416666666666668,0,0,0.010416666666666668,99.69791666666667,0)" xlink:href="#aa"/></g><path d="M226 279v-1860h398v153H398V126h226v153H226" id="ad"/><g id="r"><use transform="matrix(0.010416666666666668,0,0,0.010416666666666668,0,0)" xlink:href="#ad"/><use transform="matrix(0.010416666666666668,0,0,0.010416666666666668,7.541666666666668,0)" xlink:href="#W"/><use transform="matrix(0.010416666666666668,0,0,0.010416666666666668,19.72916666666667,0)" xlink:href="#O"/><use transform="matrix(0.010416666666666668,0,0,0.010416666666666668,27.406250000000007,0)" xlink:href="#F"/><use transform="matrix(0.010416666666666668,0,0,0.010416666666666668,39.84375000000001,0)" xlink:href="#D"/><use transform="matrix(0.010416666666666668,0,0,0.010416666666666668,52.90625000000001,0)" xlink:href="#F"/><use transform="matrix(0.010416666666666668,0,0,0.010416666666666668,65.34375000000001,0)" xlink:href="#K"/><use transform="matrix(0.010416666666666668,0,0,0.010416666666666668,77.94791666666669,0)" xlink:href="#J"/><use transform="matrix(0.010416666666666668,0,0,0.010416666666666668,84.92708333333336,0)" xlink:href="#I"/><use transform="matrix(0.010416666666666668,0,0,0.010416666666666668,90.09375000000003,0)" xlink:href="#H"/><use transform="matrix(0.010416666666666668,0,0,0.010416666666666668,102.0729166666667,0)" xlink:href="#E"/><use transform="matrix(0.010416666666666668,0,0,0.010416666666666668,107.23958333333337,0)" xlink:href="#aa"/></g><path d="M481 0L54-1118h197c107 314 236 620 325 951 87-331 217-637 324-951h197L670 0H481" id="ae"/><path d="M123 279V126h226v-1554H123v-153h398V279H123" id="af"/><g id="s"><use transform="matrix(0.010416666666666668,0,0,0.010416666666666668,0,0)" xlink:href="#ae"/><use transform="matrix(0.010416666666666668,0,0,0.010416666666666668,11.885416666666668,0)" xlink:href="#H"/><use transform="matrix(0.010416666666666668,0,0,0.010416666666666668,23.864583333333336,0)" xlink:href="#E"/><use transform="matrix(0.010416666666666668,0,0,0.010416666666666668,29.031250000000004,0)" xlink:href="#I"/><use transform="matrix(0.010416666666666668,0,0,0.010416666666666668,34.19791666666667,0)" xlink:href="#D"/><use transform="matrix(0.010416666666666668,0,0,0.010416666666666668,47.26041666666667,0)" xlink:href="#af"/></g><use transform="matrix(0.010416666666666668,0,0,0.010416666666666668,0,0)" xlink:href="#ab" id="t"/><g id="u"><use transform="matrix(0.010416666666666668,0,0,0.010416666666666668,0,0)" xlink:href="#R"/><use transform="matrix(0.010416666666666668,0,0,0.010416666666666668,12.614583333333334,0)" xlink:href="#aa"/><use transform="matrix(0.010416666666666668,0,0,0.010416666666666668,23.874999999999996,0)" xlink:href="#F"/><use transform="matrix(0.010416666666666668,0,0,0.010416666666666668,36.3125,0)" xlink:href="#O"/></g><g id="v"><use transform="matrix(0.010416666666666668,0,0,0.010416666666666668,0,0)" xlink:href="#I"/><use transform="matrix(0.010416666666666668,0,0,0.010416666666666668,5.166666666666667,0)" xlink:href="#K"/><use transform="matrix(0.010416666666666668,0,0,0.010416666666666668,17.458333333333336,0)" xlink:href="#ae"/><use transform="matrix(0.010416666666666668,0,0,0.010416666666666668,29.34375,0)" xlink:href="#H"/><use transform="matrix(0.010416666666666668,0,0,0.010416666666666668,41.32291666666667,0)" xlink:href="#E"/><use transform="matrix(0.010416666666666668,0,0,0.010416666666666668,46.489583333333336,0)" xlink:href="#I"/><use transform="matrix(0.010416666666666668,0,0,0.010416666666666668,51.65624999999999,0)" xlink:href="#D"/><use transform="matrix(0.010416666666666668,0,0,0.010416666666666668,64.71875,0)" xlink:href="#af"/></g><g id="w"><use transform="matrix(0.010416666666666668,0,0,0.010416666666666668,0,0)" xlink:href="#F"/><use transform="matrix(0.010416666666666668,0,0,0.010416666666666668,12.437500000000002,0)" xlink:href="#O"/><use transform="matrix(0.010416666666666668,0,0,0.010416666666666668,20.802083333333336,0)" xlink:href="#O"/><use transform="matrix(0.010416666666666668,0,0,0.010416666666666668,28.47916666666667,0)" xlink:href="#N"/><use transform="matrix(0.010416666666666668,0,0,0.010416666666666668,41.27083333333334,0)" xlink:href="#O"/></g><path d="M158 0v-1118h175l1 205c55-151 181-225 313-225 147 0 245 90 285 228 53-141 190-228 352-228 194 0 352 125 352 384V0h-181v-749c0-161-105-225-225-225-151 0-243 103-243 244V0H807v-767c0-124-93-207-219-207-131 0-250 92-250 270V0H158" id="ag"/><g id="x"><use transform="matrix(0.010416666666666668,0,0,0.010416666666666668,0,0)" xlink:href="#ag"/><use transform="matrix(0.010416666666666668,0,0,0.010416666666666668,18.687500000000004,0)" xlink:href="#F"/><use transform="matrix(0.010416666666666668,0,0,0.010416666666666668,31.125000000000007,0)" xlink:href="#aa"/><use transform="matrix(0.010416666666666668,0,0,0.010416666666666668,42.38541666666667,0)" xlink:href="#aa"/><use transform="matrix(0.010416666666666668,0,0,0.010416666666666668,53.64583333333334,0)" xlink:href="#H"/><use transform="matrix(0.010416666666666668,0,0,0.010416666666666668,65.62500000000001,0)" xlink:href="#L"/><use transform="matrix(0.010416666666666668,0,0,0.010416666666666668,78.70833333333334,0)" xlink:href="#F"/></g><path d="M677 24c-213 0-288-135-325-197h-20V0H158v-1490h180v551h14c37-59 106-193 324-193 279 0 474 222 474 576 0 356-194 580-473 580zm-27-161c209 0 317-186 317-421 0-232-105-413-317-413-206 0-314 166-314 413 0 249 111 421 314 421" id="ah"/><g id="y"><use transform="matrix(0.010416666666666668,0,0,0.010416666666666668,0,0)" xlink:href="#aa"/><use transform="matrix(0.010416666666666668,0,0,0.010416666666666668,11.260416666666668,0)" xlink:href="#R"/><use transform="matrix(0.010416666666666668,0,0,0.010416666666666668,23.874999999999996,0)" xlink:href="#ah"/><use transform="matrix(0.010416666666666668,0,0,0.010416666666666668,36.9375,0)" xlink:href="#ag"/><use transform="matrix(0.010416666666666668,0,0,0.010416666666666668,55.625,0)" xlink:href="#I"/><use transform="matrix(0.010416666666666668,0,0,0.010416666666666668,60.791666666666664,0)" xlink:href="#J"/><use transform="matrix(0.010416666666666668,0,0,0.010416666666666668,67.5625,0)" xlink:href="#aa"/></g><g id="z"><use transform="matrix(0.010416666666666668,0,0,0.010416666666666668,0,0)" xlink:href="#R"/><use transform="matrix(0.010416666666666668,0,0,0.010416666666666668,12.614583333333334,0)" xlink:href="#Q"/></g><g id="A"><use transform="matrix(0.010416666666666668,0,0,0.010416666666666668,0,0)" xlink:href="#ad"/><use transform="matrix(0.010416666666666668,0,0,0.010416666666666668,7.781250000000001,0)" xlink:href="#Q"/><use transform="matrix(0.010416666666666668,0,0,0.010416666666666668,20.843750000000004,0)" xlink:href="#O"/><use transform="matrix(0.010416666666666668,0,0,0.010416666666666668,28.520833333333336,0)" xlink:href="#N"/><use transform="matrix(0.010416666666666668,0,0,0.010416666666666668,41.3125,0)" xlink:href="#Z"/><use transform="matrix(0.010416666666666668,0,0,0.010416666666666668,49.208333333333336,0)" xlink:href="#I"/><use transform="matrix(0.010416666666666668,0,0,0.010416666666666668,54.375,0)" xlink:href="#E"/><use transform="matrix(0.010416666666666668,0,0,0.010416666666666668,59.541666666666664,0)" xlink:href="#F"/></g><g id="B"><use transform="matrix(0.010416666666666668,0,0,0.010416666666666668,0,0)" xlink:href="#W"/><use transform="matrix(0.010416666666666668,0,0,0.010416666666666668,12.187500000000002,0)" xlink:href="#O"/><use transform="matrix(0.010416666666666668,0,0,0.010416666666666668,19.864583333333336,0)" xlink:href="#F"/><use transform="matrix(0.010416666666666668,0,0,0.010416666666666668,32.51041666666667,0)" xlink:href="#H"/><use transform="matrix(0.010416666666666668,0,0,0.010416666666666668,44.489583333333336,0)" xlink:href="#J"/><use transform="matrix(0.010416666666666668,0,0,0.010416666666666668,51.26041666666667,0)" xlink:href="#F"/><use transform="matrix(0.010416666666666668,0,0,0.010416666666666668,63.69791666666667,0)" xlink:href="#D"/><use transform="matrix(0.010416666666666668,0,0,0.010416666666666668,76.76041666666667,0)" xlink:href="#af"/></g></defs></g></svg>