<svg xmlns="http://www.w3.org/2000/svg" xmlns:xlink="http://www.w3.org/1999/xlink" xmlns:lucid="lucid" width="1323.78" height="560.81"><g transform="translate(-418.5 -140.1875)" lucid:page-tab-id="40hIetUEVQ6v"><path d="M0 0h2000v1000H0z" fill="#fff"/><path d="M460 324c0 11.05-8.95 20-20 20s-20-8.95-20-20 8.95-20 20-20 20 8.95 20 20z" stroke="#000" stroke-width="3"/><path d="M736 284c-8.84 0-16 7.16-16 16v48c0 8.84 7.16 16 16 16h228c8.84 0 16-7.16 16-16v-48c0-8.84-7.16-16-16-16z" stroke="#000" stroke-width="2" fill="#fff"/><use xlink:href="#a" transform="matrix(1,0,0,1,728,292.00000000000006) translate(0 39.76041666666667)"/><path d="M498.96 324.48H462v-.96h36.96zm210.6 0h-28.02v-.96h28.02z" stroke="#3a414a" stroke-width=".05" fill="#3a414a"/><path d="M462 324.48h-.55l.05-.4-.02-.56h.53z" fill="#3a414a"/><path stroke="#3a414a" stroke-width=".05" fill="#3a414a"/><path d="M718.95 324l-18.03 10.4-.48-.8 15.8-9.13h-6.74v-.95h6.73l-15.8-9.1.5-.83z" stroke="#3a414a" stroke-width=".05" fill="#3a414a"/><use xlink:href="#b" transform="matrix(1,0,0,1,498.9640094475337,280.11875) translate(0 20.666666666666668)"/><use xlink:href="#c" transform="matrix(1,0,0,1,498.9640094475337,280.11875) translate(68.89583333333334 20.666666666666668)"/><use xlink:href="#d" transform="matrix(1,0,0,1,498.9640094475337,280.11875) translate(0 51.641666666666666)"/><use xlink:href="#e" transform="matrix(1,0,0,1,498.9640094475337,280.11875) translate(112.71875000000001 51.641666666666666)"/><use xlink:href="#f" transform="matrix(1,0,0,1,498.9640094475337,280.11875) translate(126.40625000000001 51.641666666666666)"/><use xlink:href="#g" transform="matrix(1,0,0,1,498.9640094475337,280.11875) translate(0 82.61666666666666)"/><use xlink:href="#h" transform="matrix(1,0,0,1,498.9640094475337,280.11875) translate(85.20833333333334 82.61666666666666)"/><path d="M832 520c-6.63 0-12 5.37-12 12v36c0 6.63 5.37 12 12 12h136c6.63 0 12-5.37 12-12v-36c0-6.63-5.37-12-12-12z" stroke="#000" stroke-width="2" fill="#fff"/><use xlink:href="#i" transform="matrix(1,0,0,1,828,528) translate(0 29.760416666666668)"/><use xlink:href="#j" transform="matrix(1,0,0,1,828,528) translate(18.000000000000004 29.760416666666668)"/><path d="M1351.2 296c-6.2 0-11.2 5-11.2 11.2v33.6c0 6.2 5 11.2 11.2 11.2h97.6c6.2 0 11.2-5 11.2-11.2v-33.6c0-6.2-5-11.2-11.2-11.2z" stroke="#000" stroke-width="2" fill="#fff"/><use xlink:href="#i" transform="matrix(1,0,0,1,1348,304) translate(0 28.260416666666668)"/><use xlink:href="#k" transform="matrix(1,0,0,1,1348,304) translate(18.000000000000004 28.260416666666668)"/><path d="M1034.45 324.48H981.5v-.96h52.95zm295.1 0h-44v-.96h44z" stroke="#3a414a" stroke-width=".05" fill="#3a414a"/><path d="M981.5 324.48h-.5v-.96h.5z" fill="#3a414a"/><path stroke="#3a414a" stroke-width=".05" fill="#3a414a"/><path d="M1338.95 324l-18.03 10.4-.48-.8 15.8-9.13h-6.74v-.95h6.73l-15.8-9.1.5-.83z" stroke="#3a414a" stroke-width=".05" fill="#3a414a"/><use xlink:href="#b" transform="matrix(1,0,0,1,1034.453125,311.09375) translate(0 20.666666666666668)"/><use xlink:href="#l" transform="matrix(1,0,0,1,1034.453125,311.09375) translate(68.89583333333334 20.666666666666668)"/><use xlink:href="#e" transform="matrix(1,0,0,1,1034.453125,311.09375) translate(112.79166666666669 20.666666666666668)"/><use xlink:href="#m" transform="matrix(1,0,0,1,1034.453125,311.09375) translate(126.47916666666669 20.666666666666668)"/><use xlink:href="#n" transform="matrix(1,0,0,1,1034.453125,311.09375) translate(170.18750000000003 20.666666666666668)"/><path d="M1400 294.5V176a6 6 0 0 0-6-6H856a6 6 0 0 0-6 6v97.56" stroke="#3a414a" fill="none"/><path d="M1400.47 295h-.94v-.5h.94z" stroke="#3a414a" stroke-width=".05" fill="#3a414a"/><path d="M860 264.68L850 282l-10-17.32M850 282v-8.5" stroke="#3a414a" fill="none"/><use xlink:href="#o" transform="matrix(1,0,0,1,943.640625,140.1875) translate(0 20.666666666666668)"/><use xlink:href="#p" transform="matrix(1,0,0,1,943.640625,140.1875) translate(34.864583333333336 20.666666666666668)"/><use xlink:href="#e" transform="matrix(1,0,0,1,943.640625,140.1875) translate(140.13541666666669 20.666666666666668)"/><use xlink:href="#q" transform="matrix(1,0,0,1,943.640625,140.1875) translate(153.82291666666669 20.666666666666668)"/><use xlink:href="#r" transform="matrix(1,0,0,1,943.640625,140.1875) translate(242.96875000000006 20.666666666666668)"/><use xlink:href="#s" transform="matrix(1,0,0,1,943.640625,140.1875) translate(331.61458333333337 20.666666666666668)"/><path d="M850.48 399.02l-.08 1-.24.98-.4.94-.52.87-.66.78-.77.66-.86.53-.94.4-1 .23-.98.08h-238l-.88.06-.85.2-.8.34-.75.45-.66.56-.57.65-.45.74-.33.8-.2.84-.07.88v132.96l.06.88.2.85.34.8.45.75.56.66.65.57.74.45.8.33.84.2.88.07h26.7v.96h-26.74l-1-.08-.98-.24-.94-.4-.87-.52-.78-.66-.66-.77-.53-.86-.4-.94-.23-1-.08-.98V410.98l.08-1 .24-.98.4-.94.52-.87.66-.78.77-.66.86-.53.94-.4 1-.23.98-.08h238l.88-.06.85-.2.8-.34.75-.45.66-.56.57-.65.45-.74.33-.8.2-.84.07-.88V365.5h.96zm-40.92 150.5v.96H758.4v-.96z" stroke="#3a414a" stroke-width=".05" fill="#3a414a"/><path d="M850.48 365.5h-.96v-.5h.96z" fill="#3a414a"/><path stroke="#3a414a" stroke-width=".05" fill="#3a414a"/><path d="M818.95 550l-18.03 10.4-.48-.8 15.8-9.13h-6.74v-.95h6.73l-15.8-9.1.5-.83z" stroke="#3a414a" stroke-width=".05" fill="#3a414a"/><use xlink:href="#b" transform="matrix(1,0,0,1,632.7100295641117,490.63125) translate(0 20.666666666666668)"/><use xlink:href="#t" transform="matrix(1,0,0,1,632.7100295641117,490.63125) translate(68.89583333333334 20.666666666666668)"/><use xlink:href="#u" transform="matrix(1,0,0,1,632.7100295641117,490.63125) translate(118.00000000000001 20.666666666666668)"/><use xlink:href="#v" transform="matrix(1,0,0,1,632.7100295641117,490.63125) translate(0 51.641666666666666)"/><use xlink:href="#w" transform="matrix(1,0,0,1,632.7100295641117,490.63125) translate(0 82.61666666666666)"/><use xlink:href="#x" transform="matrix(1,0,0,1,632.7100295641117,490.63125) translate(0 113.59166666666667)"/><path d="M1256 620c-8.84 0-16 7.16-16 16v48c0 8.84 7.16 16 16 16h188c8.84 0 16-7.16 16-16v-48c0-8.84-7.16-16-16-16z" stroke="#000" stroke-width="2" fill="#fff"/><g><use xlink:href="#y" transform="matrix(1,0,0,1,1248,628) translate(0 39.76041666666667)"/></g><path d="M1345 549.6l1 .24.94.4.87.52.78.66.66.77.53.86.4.94.23 1 .07.98v53.58h-.94v-53.54l-.07-.88-.2-.85-.34-.8-.45-.75-.56-.66-.65-.57-.74-.45-.8-.33-.84-.2-.88-.07h-57.6v-.96h57.64zm-363.5.88v-.96h33.47v.96z" stroke="#3a414a" stroke-width=".05" fill="#3a414a"/><path d="M981.5 550.48h-.5v-.96h.5z" fill="#3a414a"/><path stroke="#3a414a" stroke-width=".05" fill="#3a414a"/><path d="M1360.4 600.92l-10.4 18.03-10.4-18.03.8-.48 9.13 15.8v-6.74h.94v6.73l9.12-15.8z" stroke="#3a414a" stroke-width=".05" fill="#3a414a"/><g><use xlink:href="#z" transform="matrix(1,0,0,1,1014.9677980462518,521.60625) translate(0 20.666666666666668)"/><use xlink:href="#A" transform="matrix(1,0,0,1,1014.9677980462518,521.60625) translate(164.05208333333334 20.666666666666668)"/><use xlink:href="#e" transform="matrix(1,0,0,1,1014.9677980462518,521.60625) translate(219.80208333333334 20.666666666666668)"/><use xlink:href="#B" transform="matrix(1,0,0,1,1014.9677980462518,521.60625) translate(233.48958333333334 20.666666666666668)"/><use xlink:href="#C" transform="matrix(1,0,0,1,1014.9677980462518,521.60625) translate(0 51.641666666666666)"/></g><path d="M1520.47 654.02l-.07 1-.24.98-.4.94-.52.87-.66.78-.77.66-.86.53-.94.4-1 .23-.98.08h-43.58v-.96h43.54l.88-.06.85-.2.8-.34.75-.45.66-.56.57-.65.45-.74.33-.8.2-.84.08-.88v-173.2h.94zM1515 323.6l1 .24.94.4.87.52.78.66.66.77.53.86.4.94.23 1 .07.98v125h-.94V330.02l-.07-.88-.2-.85-.34-.8-.45-.75-.56-.66-.65-.57-.74-.45-.8-.33-.84-.2-.88-.07h-52.48v-.96h52.52z" stroke="#3a414a" stroke-width=".05" fill="#3a414a"/><path d="M1461.5 324.48h-.5v-.96h.5z" fill="#3a414a"/><path stroke="#3a414a" stroke-width=".05" fill="#3a414a"/><path d="M1479.56 650.4l-15.8 9.13h6.74v.95h-6.73l15.8 9.1-.5.83-18.02-10.4 18.03-10.4z" stroke="#3a414a" stroke-width=".05" fill="#3a414a"/><g><use xlink:href="#z" transform="matrix(1,0,0,1,1297.71875,454.9771534568547) translate(0 20.666666666666668)"/><use xlink:href="#A" transform="matrix(1,0,0,1,1297.71875,454.9771534568547) translate(164.05208333333334 20.666666666666668)"/><use xlink:href="#e" transform="matrix(1,0,0,1,1297.71875,454.9771534568547) translate(219.80208333333334 20.666666666666668)"/><use xlink:href="#D" transform="matrix(1,0,0,1,1297.71875,454.9771534568547) translate(233.48958333333334 20.666666666666668)"/><use xlink:href="#E" transform="matrix(1,0,0,1,1297.71875,454.9771534568547) translate(305.90625 20.666666666666668)"/><use xlink:href="#F" transform="matrix(1,0,0,1,1297.71875,454.9771534568547) translate(331.46875 20.666666666666668)"/></g><path d="M880 660c0 11.05-8.95 20-20 20s-20-8.95-20-20 8.95-20 20-20 20 8.95 20 20z" stroke="#000" stroke-width="3" fill="#fff"/><path d="M872 660c0 6.63-5.37 12-12 12s-12-5.37-12-12 5.37-12 12-12 12 5.37 12 12z" stroke="#000" stroke-width="3"/><path d="M1238.5 660H890.94" stroke="#3a414a" fill="none"/><path d="M1239 660.48h-.5v-.96h.5z" stroke="#3a414a" stroke-width=".05" fill="#3a414a"/><path d="M899.82 670l-17.32-10 17.32-10m-17.32 10h8.5" stroke="#3a414a" fill="none"/><g><use xlink:href="#G" transform="matrix(1,0,0,1,914.703592780867,664) translate(0 20.666666666666668)"/><use xlink:href="#e" transform="matrix(1,0,0,1,914.703592780867,664) translate(63.23958333333334 20.666666666666668)"/><use xlink:href="#D" transform="matrix(1,0,0,1,914.703592780867,664) translate(76.92708333333334 20.666666666666668)"/><use xlink:href="#E" transform="matrix(1,0,0,1,914.703592780867,664) translate(149.34375000000003 20.666666666666668)"/><use xlink:href="#H" transform="matrix(1,0,0,1,914.703592780867,664) translate(174.90625000000003 20.666666666666668)"/><use xlink:href="#I" transform="matrix(1,0,0,1,914.703592780867,664) translate(220.06250000000003 20.666666666666668)"/></g><defs><path d="M600 0L52-1490h200c166 485 304 806 458 1336 156-533 285-846 449-1336h202L819 0H600" id="J"/><path d="M158 0v-1118h180V0H158zm91-1301c-68 0-125-53-125-119s57-119 125-119c69 0 126 53 126 119s-57 119-126 119" id="K"/><path d="M628 24c-324 0-524-230-524-574 0-343 198-582 503-582 237 0 487 146 487 559v75H286c9 234 145 362 343 362 132 0 231-58 273-172l174 48C1024-91 857 24 628 24zM287-650h624c-17-190-120-322-304-322-192 0-309 151-320 322" id="L"/><path d="M409 0L70-1118h191c89 329 165 560 243 925 75-353 154-601 240-925h192c85 325 161 564 235 922 77-354 157-598 244-922h191L1267 0h-179c-86-307-176-590-250-913C763-588 675-308 588 0H409" id="M"/><path d="M338-670V0H158v-1118h173l1 207c72-158 192-221 342-221 226 0 378 139 378 422V0H872v-695c0-172-96-275-252-275-161 0-282 109-282 300" id="N"/><path d="M611 442c-248 0-391-105-460-228l146-94c47 65 117 165 314 165 178 0 307-82 307-266v-224h-17C863-141 792-18 576-18c-268 0-472-195-472-546 0-346 197-568 476-568 216 0 288 133 326 193h17v-179h175V29c0 289-215 413-487 413zm-5-620c203 0 314-146 314-390 0-237-108-403-314-403-213 0-319 180-319 403 0 230 109 390 319 390" id="O"/><path d="M783 20c-382 0-661-292-661-764 0-473 279-766 661-766 302 0 548 182 601 489h-190c-42-204-217-313-411-313-268 0-476 208-476 590 0 381 209 588 476 588 195 0 369-110 411-313h190c-52 303-296 489-601 489" id="P"/><path d="M613 24c-304 0-509-231-509-576 0-350 205-580 509-580 305 0 511 230 511 580 0 345-206 576-511 576zm0-161c226 0 329-195 329-415 0-222-103-419-329-419-223 0-326 196-326 419 0 220 103 415 326 415" id="Q"/><path d="M598-1118v154H368v674c0 100 37 144 132 144 23 0 62-6 92-12L629-6c-37 13-88 20-134 20-193 0-307-107-307-290v-688H20v-154h168v-266h180v266h230" id="R"/><path d="M471 26C259 26 90-98 90-318c0-256 228-303 435-329 202-27 287-16 287-108 0-139-79-219-234-219-161 0-248 86-283 164l-173-57c86-203 278-265 451-265 150 0 419 46 419 395V0H815v-152h-12C765-73 660 26 471 26zm31-159c199 0 310-134 310-271v-155c-30 35-226 55-295 64-131 17-246 59-246 186 0 116 97 176 231 176" id="S"/><path d="M613 24c-304 0-509-231-509-576 0-350 205-580 509-580 216 0 392 114 453 309l-173 49c-33-115-133-197-280-197-223 0-326 196-326 419 0 220 103 415 326 415 150 0 252-85 285-206l172 49C1010-95 832 24 613 24" id="T"/><path d="M784 20c-382 0-662-292-662-764 0-473 280-766 662-766s660 293 660 766c0 472-278 764-660 764zm0-176c266 0 475-207 475-588 0-383-209-590-475-590-268 0-477 208-477 590 0 380 209 588 477 588" id="U"/><path d="M158 418v-1536h174v179h20c37-59 106-193 324-193 279 0 474 222 474 576 0 356-194 580-473 580-213 0-288-135-325-197h-14v591H158zm492-555c209 0 317-186 317-421 0-232-105-413-317-413-206 0-314 166-314 413 0 249 111 421 314 421" id="V"/><path d="M538 24C308 24 148-78 108-271l171-41c32 123 123 178 257 178 156 0 256-77 256-169 0-77-54-128-164-154l-186-44c-203-48-300-148-300-305 0-192 176-326 414-326 230 0 351 112 402 269l-163 42c-31-80-94-158-238-158-133 0-233 69-233 162 0 83 57 129 188 160l169 40c203 48 298 149 298 302 0 196-179 339-441 339" id="W"/><g id="a"><use transform="matrix(0.010416666666666668,0,0,0.010416666666666668,0,0)" xlink:href="#J"/><use transform="matrix(0.010416666666666668,0,0,0.010416666666666668,14.718750000000002,0)" xlink:href="#K"/><use transform="matrix(0.010416666666666668,0,0,0.010416666666666668,19.885416666666668,0)" xlink:href="#L"/><use transform="matrix(0.010416666666666668,0,0,0.010416666666666668,31.9375,0)" xlink:href="#M"/><use transform="matrix(0.010416666666666668,0,0,0.010416666666666668,49.395833333333336,0)" xlink:href="#K"/><use transform="matrix(0.010416666666666668,0,0,0.010416666666666668,54.5625,0)" xlink:href="#N"/><use transform="matrix(0.010416666666666668,0,0,0.010416666666666668,67.16666666666667,0)" xlink:href="#O"/><use transform="matrix(0.010416666666666668,0,0,0.010416666666666668,80.25,0)" xlink:href="#P"/><use transform="matrix(0.010416666666666668,0,0,0.010416666666666668,95.83333333333334,0)" xlink:href="#Q"/><use transform="matrix(0.010416666666666668,0,0,0.010416666666666668,108.62500000000001,0)" xlink:href="#N"/><use transform="matrix(0.010416666666666668,0,0,0.010416666666666668,121.22916666666669,0)" xlink:href="#R"/><use transform="matrix(0.010416666666666668,0,0,0.010416666666666668,128.31250000000003,0)" xlink:href="#S"/><use transform="matrix(0.010416666666666668,0,0,0.010416666666666668,140.29166666666669,0)" xlink:href="#T"/><use transform="matrix(0.010416666666666668,0,0,0.010416666666666668,152.47916666666669,0)" xlink:href="#R"/><use transform="matrix(0.010416666666666668,0,0,0.010416666666666668,159.45833333333334,0)" xlink:href="#U"/><use transform="matrix(0.010416666666666668,0,0,0.010416666666666668,175.77083333333334,0)" xlink:href="#V"/><use transform="matrix(0.010416666666666668,0,0,0.010416666666666668,188.83333333333334,0)" xlink:href="#R"/><use transform="matrix(0.010416666666666668,0,0,0.010416666666666668,195.81249999999997,0)" xlink:href="#K"/><use transform="matrix(0.010416666666666668,0,0,0.010416666666666668,200.97916666666666,0)" xlink:href="#Q"/><use transform="matrix(0.010416666666666668,0,0,0.010416666666666668,213.77083333333331,0)" xlink:href="#N"/><use transform="matrix(0.010416666666666668,0,0,0.010416666666666668,226.375,0)" xlink:href="#W"/></g><path d="M657 26c-323 0-524-166-541-416h195c15 169 171 246 346 246 202 0 356-106 356-265 5-203-294-238-475-293-239-73-380-191-380-389 0-252 224-419 512-419 294 0 499 171 508 396H992c-17-145-151-228-328-228-193 0-321 102-321 242 0 156 175 211 284 241l149 41c160 44 422 134 422 412 0 244-197 432-541 432" id="X"/><path d="M338-1490V0H158v-1490h180" id="Y"/><g id="b"><use transform="matrix(0.010416666666666668,0,0,0.010416666666666668,0,0)" xlink:href="#X"/><use transform="matrix(0.010416666666666668,0,0,0.010416666666666668,13.687500000000002,0)" xlink:href="#L"/><use transform="matrix(0.010416666666666668,0,0,0.010416666666666668,26.125000000000004,0)" xlink:href="#Y"/><use transform="matrix(0.010416666666666668,0,0,0.010416666666666668,31.29166666666667,0)" xlink:href="#L"/><use transform="matrix(0.010416666666666668,0,0,0.010416666666666668,43.72916666666667,0)" xlink:href="#T"/><use transform="matrix(0.010416666666666668,0,0,0.010416666666666668,55.91666666666667,0)" xlink:href="#R"/></g><g id="c"><use transform="matrix(0.010416666666666668,0,0,0.010416666666666668,0,0)" xlink:href="#P"/><use transform="matrix(0.010416666666666668,0,0,0.010416666666666668,15.583333333333336,0)" xlink:href="#Q"/><use transform="matrix(0.010416666666666668,0,0,0.010416666666666668,28.375000000000004,0)" xlink:href="#N"/><use transform="matrix(0.010416666666666668,0,0,0.010416666666666668,40.97916666666667,0)" xlink:href="#R"/><use transform="matrix(0.010416666666666668,0,0,0.010416666666666668,48.06249999999999,0)" xlink:href="#S"/><use transform="matrix(0.010416666666666668,0,0,0.010416666666666668,60.04166666666667,0)" xlink:href="#T"/><use transform="matrix(0.010416666666666668,0,0,0.010416666666666668,72.22916666666667,0)" xlink:href="#R"/></g><path d="M180 0v-1490h510c348 0 508 209 508 474 0 266-160 477-507 477H370V0H180zm190-706h312c236 0 327-133 327-310 0-176-91-307-329-307H370v617" id="Z"/><path d="M158 0v-1118h174v172h12c41-113 157-188 290-188 26 0 70 2 91 3v181c-11-2-60-10-108-10-161 0-279 109-279 260V0H158" id="aa"/><g id="d"><use transform="matrix(0.010416666666666668,0,0,0.010416666666666668,0,0)" xlink:href="#Z"/><use transform="matrix(0.010416666666666668,0,0,0.010416666666666668,13.625000000000002,0)" xlink:href="#S"/><use transform="matrix(0.010416666666666668,0,0,0.010416666666666668,25.604166666666668,0)" xlink:href="#W"/><use transform="matrix(0.010416666666666668,0,0,0.010416666666666668,36.86458333333334,0)" xlink:href="#W"/><use transform="matrix(0.010416666666666668,0,0,0.010416666666666668,48.125000000000014,0)" xlink:href="#L"/><use transform="matrix(0.010416666666666668,0,0,0.010416666666666668,60.562500000000014,0)" xlink:href="#N"/><use transform="matrix(0.010416666666666668,0,0,0.010416666666666668,73.16666666666669,0)" xlink:href="#O"/><use transform="matrix(0.010416666666666668,0,0,0.010416666666666668,86.25000000000001,0)" xlink:href="#L"/><use transform="matrix(0.010416666666666668,0,0,0.010416666666666668,98.68750000000001,0)" xlink:href="#aa"/></g><path d="M692-1560L212 224H46l480-1784h166" id="ab"/><use transform="matrix(0.010416666666666668,0,0,0.010416666666666668,0,0)" xlink:href="#ab" id="e"/><path d="M338-670V0H158v-1490h180v566c73-149 190-208 336-208 226 0 379 139 379 422V0H872v-695c0-172-96-275-252-275-161 0-282 109-282 300" id="ac"/><g id="f"><use transform="matrix(0.010416666666666668,0,0,0.010416666666666668,0,0)" xlink:href="#X"/><use transform="matrix(0.010416666666666668,0,0,0.010416666666666668,13.687500000000002,0)" xlink:href="#ac"/><use transform="matrix(0.010416666666666668,0,0,0.010416666666666668,26.302083333333336,0)" xlink:href="#Q"/><use transform="matrix(0.010416666666666668,0,0,0.010416666666666668,38.708333333333336,0)" xlink:href="#M"/></g><g id="g"><use transform="matrix(0.010416666666666668,0,0,0.010416666666666668,0,0)" xlink:href="#P"/><use transform="matrix(0.010416666666666668,0,0,0.010416666666666668,15.583333333333336,0)" xlink:href="#Q"/><use transform="matrix(0.010416666666666668,0,0,0.010416666666666668,28.375000000000004,0)" xlink:href="#N"/><use transform="matrix(0.010416666666666668,0,0,0.010416666666666668,40.97916666666667,0)" xlink:href="#R"/><use transform="matrix(0.010416666666666668,0,0,0.010416666666666668,48.06249999999999,0)" xlink:href="#S"/><use transform="matrix(0.010416666666666668,0,0,0.010416666666666668,60.04166666666667,0)" xlink:href="#T"/><use transform="matrix(0.010416666666666668,0,0,0.010416666666666668,72.22916666666667,0)" xlink:href="#R"/></g><g id="h"><use transform="matrix(0.010416666666666668,0,0,0.010416666666666668,0,0)" xlink:href="#U"/><use transform="matrix(0.010416666666666668,0,0,0.010416666666666668,16.312500000000004,0)" xlink:href="#V"/><use transform="matrix(0.010416666666666668,0,0,0.010416666666666668,29.375000000000007,0)" xlink:href="#R"/><use transform="matrix(0.010416666666666668,0,0,0.010416666666666668,36.35416666666667,0)" xlink:href="#K"/><use transform="matrix(0.010416666666666668,0,0,0.010416666666666668,41.520833333333336,0)" xlink:href="#Q"/><use transform="matrix(0.010416666666666668,0,0,0.010416666666666668,54.3125,0)" xlink:href="#N"/><use transform="matrix(0.010416666666666668,0,0,0.010416666666666668,66.91666666666667,0)" xlink:href="#W"/></g><path d="M180 0v-1490h270l367 940c28 72 75 218 110 339 35-117 81-264 110-339l362-940h271V0h-187c2-448-5-837 7-1287-157 497-311 829-483 1287H842C666-458 514-784 354-1284c12 438 5 843 7 1284H180" id="ad"/><g id="j"><use transform="matrix(0.010416666666666668,0,0,0.010416666666666668,0,0)" xlink:href="#ad"/><use transform="matrix(0.010416666666666668,0,0,0.010416666666666668,19.270833333333336,0)" xlink:href="#L"/><use transform="matrix(0.010416666666666668,0,0,0.010416666666666668,31.708333333333336,0)" xlink:href="#W"/><use transform="matrix(0.010416666666666668,0,0,0.010416666666666668,42.96874999999999,0)" xlink:href="#W"/><use transform="matrix(0.010416666666666668,0,0,0.010416666666666668,54.22916666666667,0)" xlink:href="#S"/><use transform="matrix(0.010416666666666668,0,0,0.010416666666666668,66.20833333333334,0)" xlink:href="#O"/><use transform="matrix(0.010416666666666668,0,0,0.010416666666666668,79.29166666666667,0)" xlink:href="#K"/><use transform="matrix(0.010416666666666668,0,0,0.010416666666666668,84.45833333333334,0)" xlink:href="#N"/><use transform="matrix(0.010416666666666668,0,0,0.010416666666666668,97.06250000000001,0)" xlink:href="#O"/></g><g id="k"><use transform="matrix(0.010416666666666668,0,0,0.010416666666666668,0,0)" xlink:href="#P"/><use transform="matrix(0.010416666666666668,0,0,0.010416666666666668,15.583333333333336,0)" xlink:href="#S"/><use transform="matrix(0.010416666666666668,0,0,0.010416666666666668,27.562500000000004,0)" xlink:href="#Y"/><use transform="matrix(0.010416666666666668,0,0,0.010416666666666668,32.72916666666667,0)" xlink:href="#Y"/><use transform="matrix(0.010416666666666668,0,0,0.010416666666666668,37.895833333333336,0)" xlink:href="#K"/><use transform="matrix(0.010416666666666668,0,0,0.010416666666666668,43.06249999999999,0)" xlink:href="#N"/><use transform="matrix(0.010416666666666668,0,0,0.010416666666666668,55.66666666666667,0)" xlink:href="#O"/></g><g id="l"><use transform="matrix(0.010416666666666668,0,0,0.010416666666666668,0,0)" xlink:href="#P"/><use transform="matrix(0.010416666666666668,0,0,0.010416666666666668,15.583333333333336,0)" xlink:href="#S"/><use transform="matrix(0.010416666666666668,0,0,0.010416666666666668,27.562500000000004,0)" xlink:href="#Y"/><use transform="matrix(0.010416666666666668,0,0,0.010416666666666668,32.72916666666667,0)" xlink:href="#Y"/></g><path d="M645 0H180v-1490h484c435 0 692 280 692 742 0 466-257 748-711 748zM370-168h263c363 0 539-218 539-580 0-358-176-574-521-574H370v1154" id="ae"/><g id="m"><use transform="matrix(0.010416666666666668,0,0,0.010416666666666668,0,0)" xlink:href="#ae"/><use transform="matrix(0.010416666666666668,0,0,0.010416666666666668,15.395833333333336,0)" xlink:href="#S"/><use transform="matrix(0.010416666666666668,0,0,0.010416666666666668,27.375000000000004,0)" xlink:href="#K"/><use transform="matrix(0.010416666666666668,0,0,0.010416666666666668,32.54166666666667,0)" xlink:href="#Y"/></g><path d="M180 0v-1490h224l606 953c40 63 108 177 176 312-27-437-7-821-13-1265h190V0h-226C860-448 622-778 356-1262c27 476 11 792 15 1262H180" id="af"/><path d="M537 14c-226 0-379-139-379-422v-710h180v695c0 172 97 275 253 275 160 0 281-109 281-300v-670h181V0H879v-209C806-46 684 14 537 14" id="ag"/><path d="M158 0v-1118h175l1 205c55-151 181-225 313-225 147 0 245 90 285 228 53-141 190-228 352-228 194 0 352 125 352 384V0h-181v-749c0-161-105-225-225-225-151 0-243 103-243 244V0H807v-767c0-124-93-207-219-207-131 0-250 92-250 270V0H158" id="ah"/><path d="M677 24c-213 0-288-135-325-197h-20V0H158v-1490h180v551h14c37-59 106-193 324-193 279 0 474 222 474 576 0 356-194 580-473 580zm-27-161c209 0 317-186 317-421 0-232-105-413-317-413-206 0-314 166-314 413 0 249 111 421 314 421" id="ai"/><g id="n"><use transform="matrix(0.010416666666666668,0,0,0.010416666666666668,0,0)" xlink:href="#af"/><use transform="matrix(0.010416666666666668,0,0,0.010416666666666668,16.072916666666668,0)" xlink:href="#ag"/><use transform="matrix(0.010416666666666668,0,0,0.010416666666666668,28.6875,0)" xlink:href="#ah"/><use transform="matrix(0.010416666666666668,0,0,0.010416666666666668,47.37499999999999,0)" xlink:href="#ai"/><use transform="matrix(0.010416666666666668,0,0,0.010416666666666668,60.4375,0)" xlink:href="#L"/><use transform="matrix(0.010416666666666668,0,0,0.010416666666666668,72.875,0)" xlink:href="#aa"/></g><g id="o"><use transform="matrix(0.010416666666666668,0,0,0.010416666666666668,0,0)" xlink:href="#af"/><use transform="matrix(0.010416666666666668,0,0,0.010416666666666668,16.072916666666668,0)" xlink:href="#Q"/></g><path d="M180 0v-1490h510c348 0 508 194 508 460 0 198-88 351-276 417L1256 0h-220L726-579c-117 2-238 0-356 1V0H180zm190-747h312c235 0 327-108 327-283 0-177-92-293-329-293H370v576" id="aj"/><g id="p"><use transform="matrix(0.010416666666666668,0,0,0.010416666666666668,0,0)" xlink:href="#aj"/><use transform="matrix(0.010416666666666668,0,0,0.010416666666666668,13.416666666666668,0)" xlink:href="#L"/><use transform="matrix(0.010416666666666668,0,0,0.010416666666666668,25.854166666666668,0)" xlink:href="#W"/><use transform="matrix(0.010416666666666668,0,0,0.010416666666666668,37.11458333333334,0)" xlink:href="#V"/><use transform="matrix(0.010416666666666668,0,0,0.010416666666666668,50.177083333333336,0)" xlink:href="#Q"/><use transform="matrix(0.010416666666666668,0,0,0.010416666666666668,62.968750000000014,0)" xlink:href="#N"/><use transform="matrix(0.010416666666666668,0,0,0.010416666666666668,75.57291666666669,0)" xlink:href="#W"/><use transform="matrix(0.010416666666666668,0,0,0.010416666666666668,86.83333333333336,0)" xlink:href="#L"/></g><g id="q"><use transform="matrix(0.010416666666666668,0,0,0.010416666666666668,0,0)" xlink:href="#X"/><use transform="matrix(0.010416666666666668,0,0,0.010416666666666668,13.687500000000002,0)" xlink:href="#ag"/><use transform="matrix(0.010416666666666668,0,0,0.010416666666666668,26.302083333333336,0)" xlink:href="#O"/><use transform="matrix(0.010416666666666668,0,0,0.010416666666666668,39.38541666666667,0)" xlink:href="#O"/><use transform="matrix(0.010416666666666668,0,0,0.010416666666666668,52.46875000000001,0)" xlink:href="#L"/><use transform="matrix(0.010416666666666668,0,0,0.010416666666666668,64.90625000000001,0)" xlink:href="#W"/><use transform="matrix(0.010416666666666668,0,0,0.010416666666666668,76.16666666666669,0)" xlink:href="#R"/></g><path d="M577 24c-279 0-473-224-473-580 0-354 195-576 474-576 218 0 287 134 324 193h14v-551h180V0H922v-173h-20C865-111 790 24 577 24zm27-161c203 0 314-172 314-421 0-247-108-413-314-413-212 0-317 181-317 413 0 235 108 421 317 421" id="ak"/><g id="r"><use transform="matrix(0.010416666666666668,0,0,0.010416666666666668,0,0)" xlink:href="#X"/><use transform="matrix(0.010416666666666668,0,0,0.010416666666666668,13.687500000000002,0)" xlink:href="#L"/><use transform="matrix(0.010416666666666668,0,0,0.010416666666666668,26.125000000000004,0)" xlink:href="#N"/><use transform="matrix(0.010416666666666668,0,0,0.010416666666666668,38.72916666666667,0)" xlink:href="#ak"/><use transform="matrix(0.010416666666666668,0,0,0.010416666666666668,51.79166666666667,0)" xlink:href="#K"/><use transform="matrix(0.010416666666666668,0,0,0.010416666666666668,56.95833333333334,0)" xlink:href="#N"/><use transform="matrix(0.010416666666666668,0,0,0.010416666666666668,69.5625,0)" xlink:href="#O"/></g><path d="M98-1322v-168h1126v168H757V0H567v-1322H98" id="al"/><path d="M65 0l393-574-370-544h210c88 136 192 297 267 435 67-142 176-302 264-435h206L661-564 1053 0H844c-94-144-206-310-287-458C484-308 366-142 273 0H65" id="am"/><g id="s"><use transform="matrix(0.010416666666666668,0,0,0.010416666666666668,0,0)" xlink:href="#al"/><use transform="matrix(0.010416666666666668,0,0,0.010416666666666668,12.104166666666668,0)" xlink:href="#L"/><use transform="matrix(0.010416666666666668,0,0,0.010416666666666668,24.062500000000004,0)" xlink:href="#am"/><use transform="matrix(0.010416666666666668,0,0,0.010416666666666668,36.12500000000001,0)" xlink:href="#R"/></g><g id="t"><use transform="matrix(0.010416666666666668,0,0,0.010416666666666668,0,0)" xlink:href="#al"/><use transform="matrix(0.010416666666666668,0,0,0.010416666666666668,12.104166666666668,0)" xlink:href="#L"/><use transform="matrix(0.010416666666666668,0,0,0.010416666666666668,24.062500000000004,0)" xlink:href="#am"/><use transform="matrix(0.010416666666666668,0,0,0.010416666666666668,36.12500000000001,0)" xlink:href="#R"/></g><use transform="matrix(0.010416666666666668,0,0,0.010416666666666668,0,0)" xlink:href="#ab" id="u"/><g id="v"><use transform="matrix(0.010416666666666668,0,0,0.010416666666666668,0,0)" xlink:href="#U"/><use transform="matrix(0.010416666666666668,0,0,0.010416666666666668,16.312500000000004,0)" xlink:href="#V"/><use transform="matrix(0.010416666666666668,0,0,0.010416666666666668,29.375000000000007,0)" xlink:href="#L"/><use transform="matrix(0.010416666666666668,0,0,0.010416666666666668,41.81250000000001,0)" xlink:href="#N"/></g><g id="w"><use transform="matrix(0.010416666666666668,0,0,0.010416666666666668,0,0)" xlink:href="#ad"/><use transform="matrix(0.010416666666666668,0,0,0.010416666666666668,19.270833333333336,0)" xlink:href="#L"/><use transform="matrix(0.010416666666666668,0,0,0.010416666666666668,31.708333333333336,0)" xlink:href="#W"/><use transform="matrix(0.010416666666666668,0,0,0.010416666666666668,42.96874999999999,0)" xlink:href="#W"/><use transform="matrix(0.010416666666666668,0,0,0.010416666666666668,54.22916666666667,0)" xlink:href="#S"/><use transform="matrix(0.010416666666666668,0,0,0.010416666666666668,66.20833333333334,0)" xlink:href="#O"/><use transform="matrix(0.010416666666666668,0,0,0.010416666666666668,79.29166666666667,0)" xlink:href="#K"/><use transform="matrix(0.010416666666666668,0,0,0.010416666666666668,84.45833333333334,0)" xlink:href="#N"/><use transform="matrix(0.010416666666666668,0,0,0.010416666666666668,97.06250000000001,0)" xlink:href="#O"/></g><path d="M370-1490V0H180v-1490h190" id="an"/><path d="M678-1118v154H420V0H240v-964H20v-154h220v-149c0-194 155-293 318-293 85 0 141 18 168 30l-50 154c-19-6-47-17-97-17-111 0-159 58-159 166v109h258" id="ao"/><g id="x"><use transform="matrix(0.010416666666666668,0,0,0.010416666666666668,0,0)" xlink:href="#an"/><use transform="matrix(0.010416666666666668,0,0,0.010416666666666668,5.729166666666667,0)" xlink:href="#N"/><use transform="matrix(0.010416666666666668,0,0,0.010416666666666668,18.333333333333336,0)" xlink:href="#R"/><use transform="matrix(0.010416666666666668,0,0,0.010416666666666668,25.104166666666668,0)" xlink:href="#L"/><use transform="matrix(0.010416666666666668,0,0,0.010416666666666668,37.54166666666667,0)" xlink:href="#aa"/><use transform="matrix(0.010416666666666668,0,0,0.010416666666666668,45.90625000000001,0)" xlink:href="#ao"/><use transform="matrix(0.010416666666666668,0,0,0.010416666666666668,53.46875000000001,0)" xlink:href="#S"/><use transform="matrix(0.010416666666666668,0,0,0.010416666666666668,65.44791666666667,0)" xlink:href="#T"/><use transform="matrix(0.010416666666666668,0,0,0.010416666666666668,77.63541666666667,0)" xlink:href="#L"/></g><path d="M481 0L54-1118h197c107 314 236 620 325 951 87-331 217-637 324-951h197L670 0H481" id="ap"/><path d="M180 0v-1490h908v168H370v486h669v168H370v500h727V0H180" id="aq"/><g id="y"><use transform="matrix(0.010416666666666668,0,0,0.010416666666666668,0,0)" xlink:href="#P"/><use transform="matrix(0.010416666666666668,0,0,0.010416666666666668,15.583333333333336,0)" xlink:href="#Q"/><use transform="matrix(0.010416666666666668,0,0,0.010416666666666668,28.375000000000004,0)" xlink:href="#N"/><use transform="matrix(0.010416666666666668,0,0,0.010416666666666668,40.66666666666667,0)" xlink:href="#ap"/><use transform="matrix(0.010416666666666668,0,0,0.010416666666666668,52.239583333333336,0)" xlink:href="#L"/><use transform="matrix(0.010416666666666668,0,0,0.010416666666666668,64.67708333333334,0)" xlink:href="#aa"/><use transform="matrix(0.010416666666666668,0,0,0.010416666666666668,72.70833333333334,0)" xlink:href="#W"/><use transform="matrix(0.010416666666666668,0,0,0.010416666666666668,83.96875000000001,0)" xlink:href="#S"/><use transform="matrix(0.010416666666666668,0,0,0.010416666666666668,95.94791666666667,0)" xlink:href="#R"/><use transform="matrix(0.010416666666666668,0,0,0.010416666666666668,102.92708333333336,0)" xlink:href="#K"/><use transform="matrix(0.010416666666666668,0,0,0.010416666666666668,108.09375000000003,0)" xlink:href="#Q"/><use transform="matrix(0.010416666666666668,0,0,0.010416666666666668,120.8854166666667,0)" xlink:href="#N"/><use transform="matrix(0.010416666666666668,0,0,0.010416666666666668,133.48958333333337,0)" xlink:href="#aq"/><use transform="matrix(0.010416666666666668,0,0,0.010416666666666668,146.31250000000003,0)" xlink:href="#N"/><use transform="matrix(0.010416666666666668,0,0,0.010416666666666668,158.91666666666669,0)" xlink:href="#ak"/><use transform="matrix(0.010416666666666668,0,0,0.010416666666666668,171.97916666666669,0)" xlink:href="#L"/><use transform="matrix(0.010416666666666668,0,0,0.010416666666666668,184.41666666666669,0)" xlink:href="#ak"/></g><g id="z"><use transform="matrix(0.010416666666666668,0,0,0.010416666666666668,0,0)" xlink:href="#P"/><use transform="matrix(0.010416666666666668,0,0,0.010416666666666668,15.583333333333336,0)" xlink:href="#Q"/><use transform="matrix(0.010416666666666668,0,0,0.010416666666666668,28.375000000000004,0)" xlink:href="#ah"/><use transform="matrix(0.010416666666666668,0,0,0.010416666666666668,47.06250000000001,0)" xlink:href="#ah"/><use transform="matrix(0.010416666666666668,0,0,0.010416666666666668,65.75000000000001,0)" xlink:href="#ag"/><use transform="matrix(0.010416666666666668,0,0,0.010416666666666668,78.36458333333334,0)" xlink:href="#N"/><use transform="matrix(0.010416666666666668,0,0,0.010416666666666668,90.96875000000001,0)" xlink:href="#K"/><use transform="matrix(0.010416666666666668,0,0,0.010416666666666668,96.13541666666667,0)" xlink:href="#T"/><use transform="matrix(0.010416666666666668,0,0,0.010416666666666668,108.53125000000001,0)" xlink:href="#S"/><use transform="matrix(0.010416666666666668,0,0,0.010416666666666668,120.51041666666669,0)" xlink:href="#R"/><use transform="matrix(0.010416666666666668,0,0,0.010416666666666668,127.48958333333337,0)" xlink:href="#K"/><use transform="matrix(0.010416666666666668,0,0,0.010416666666666668,132.65625000000003,0)" xlink:href="#Q"/><use transform="matrix(0.010416666666666668,0,0,0.010416666666666668,145.44791666666669,0)" xlink:href="#N"/></g><g id="A"><use transform="matrix(0.010416666666666668,0,0,0.010416666666666668,0,0)" xlink:href="#aq"/><use transform="matrix(0.010416666666666668,0,0,0.010416666666666668,12.822916666666668,0)" xlink:href="#N"/><use transform="matrix(0.010416666666666668,0,0,0.010416666666666668,25.427083333333336,0)" xlink:href="#ak"/><use transform="matrix(0.010416666666666668,0,0,0.010416666666666668,38.489583333333336,0)" xlink:href="#W"/></g><path d="M180 0v-1490h190v1322h690V0H180" id="ar"/><g id="B"><use transform="matrix(0.010416666666666668,0,0,0.010416666666666668,0,0)" xlink:href="#ar"/><use transform="matrix(0.010416666666666668,0,0,0.010416666666666668,12.062500000000002,0)" xlink:href="#Q"/><use transform="matrix(0.010416666666666668,0,0,0.010416666666666668,24.854166666666668,0)" xlink:href="#O"/></g><g id="C"><use transform="matrix(0.010416666666666668,0,0,0.010416666666666668,0,0)" xlink:href="#P"/><use transform="matrix(0.010416666666666668,0,0,0.010416666666666668,15.583333333333336,0)" xlink:href="#Q"/><use transform="matrix(0.010416666666666668,0,0,0.010416666666666668,28.375000000000004,0)" xlink:href="#N"/><use transform="matrix(0.010416666666666668,0,0,0.010416666666666668,40.66666666666667,0)" xlink:href="#ap"/><use transform="matrix(0.010416666666666668,0,0,0.010416666666666668,52.239583333333336,0)" xlink:href="#L"/><use transform="matrix(0.010416666666666668,0,0,0.010416666666666668,64.67708333333334,0)" xlink:href="#aa"/><use transform="matrix(0.010416666666666668,0,0,0.010416666666666668,72.70833333333334,0)" xlink:href="#W"/><use transform="matrix(0.010416666666666668,0,0,0.010416666666666668,83.96875000000001,0)" xlink:href="#S"/><use transform="matrix(0.010416666666666668,0,0,0.010416666666666668,95.94791666666667,0)" xlink:href="#R"/><use transform="matrix(0.010416666666666668,0,0,0.010416666666666668,102.92708333333336,0)" xlink:href="#K"/><use transform="matrix(0.010416666666666668,0,0,0.010416666666666668,108.09375000000003,0)" xlink:href="#Q"/><use transform="matrix(0.010416666666666668,0,0,0.010416666666666668,120.8854166666667,0)" xlink:href="#N"/></g><g id="D"><use transform="matrix(0.010416666666666668,0,0,0.010416666666666668,0,0)" xlink:href="#aj"/><use transform="matrix(0.010416666666666668,0,0,0.010416666666666668,13.416666666666668,0)" xlink:href="#L"/><use transform="matrix(0.010416666666666668,0,0,0.010416666666666668,25.854166666666668,0)" xlink:href="#R"/><use transform="matrix(0.010416666666666668,0,0,0.010416666666666668,32.83333333333334,0)" xlink:href="#ag"/><use transform="matrix(0.010416666666666668,0,0,0.010416666666666668,45.44791666666668,0)" xlink:href="#aa"/><use transform="matrix(0.010416666666666668,0,0,0.010416666666666668,53.812500000000014,0)" xlink:href="#N"/></g><g id="E"><use transform="matrix(0.010416666666666668,0,0,0.010416666666666668,0,0)" xlink:href="#R"/><use transform="matrix(0.010416666666666668,0,0,0.010416666666666668,6.770833333333336,0)" xlink:href="#Q"/></g><path d="M52 0l541-1490h220L1361 0h-200l-149-416H398L254 0H52zm404-582h497c-103-290-145-390-251-756-108 377-145 460-246 756" id="as"/><g id="F"><use transform="matrix(0.010416666666666668,0,0,0.010416666666666668,0,0)" xlink:href="#as"/><use transform="matrix(0.010416666666666668,0,0,0.010416666666666668,14.718750000000002,0)" xlink:href="#V"/><use transform="matrix(0.010416666666666668,0,0,0.010416666666666668,27.781250000000004,0)" xlink:href="#V"/><use transform="matrix(0.010416666666666668,0,0,0.010416666666666668,40.84375000000001,0)" xlink:href="#Y"/><use transform="matrix(0.010416666666666668,0,0,0.010416666666666668,46.01041666666667,0)" xlink:href="#K"/><use transform="matrix(0.010416666666666668,0,0,0.010416666666666668,51.177083333333336,0)" xlink:href="#T"/><use transform="matrix(0.010416666666666668,0,0,0.010416666666666668,63.57291666666667,0)" xlink:href="#S"/><use transform="matrix(0.010416666666666668,0,0,0.010416666666666668,75.55208333333334,0)" xlink:href="#R"/><use transform="matrix(0.010416666666666668,0,0,0.010416666666666668,82.53125000000001,0)" xlink:href="#K"/><use transform="matrix(0.010416666666666668,0,0,0.010416666666666668,87.69791666666667,0)" xlink:href="#Q"/><use transform="matrix(0.010416666666666668,0,0,0.010416666666666668,100.48958333333336,0)" xlink:href="#N"/></g><g id="G"><use transform="matrix(0.010416666666666668,0,0,0.010416666666666668,0,0)" xlink:href="#P"/><use transform="matrix(0.010416666666666668,0,0,0.010416666666666668,15.583333333333336,0)" xlink:href="#Y"/><use transform="matrix(0.010416666666666668,0,0,0.010416666666666668,20.750000000000004,0)" xlink:href="#Q"/><use transform="matrix(0.010416666666666668,0,0,0.010416666666666668,33.54166666666667,0)" xlink:href="#W"/><use transform="matrix(0.010416666666666668,0,0,0.010416666666666668,44.802083333333336,0)" xlink:href="#L"/></g><g id="H"><use transform="matrix(0.010416666666666668,0,0,0.010416666666666668,0,0)" xlink:href="#al"/><use transform="matrix(0.010416666666666668,0,0,0.010416666666666668,12.562500000000002,0)" xlink:href="#aa"/><use transform="matrix(0.010416666666666668,0,0,0.010416666666666668,20.927083333333336,0)" xlink:href="#K"/><use transform="matrix(0.010416666666666668,0,0,0.010416666666666668,26.093750000000004,0)" xlink:href="#V"/></g><g id="I"><use transform="matrix(0.010416666666666668,0,0,0.010416666666666668,0,0)" xlink:href="#X"/><use transform="matrix(0.010416666666666668,0,0,0.010416666666666668,13.687500000000002,0)" xlink:href="#T"/><use transform="matrix(0.010416666666666668,0,0,0.010416666666666668,25.875000000000004,0)" xlink:href="#aa"/><use transform="matrix(0.010416666666666668,0,0,0.010416666666666668,33.552083333333336,0)" xlink:href="#L"/><use transform="matrix(0.010416666666666668,0,0,0.010416666666666668,45.989583333333336,0)" xlink:href="#L"/><use transform="matrix(0.010416666666666668,0,0,0.010416666666666668,58.42708333333334,0)" xlink:href="#N"/></g></defs></g></svg>