<svg xmlns="http://www.w3.org/2000/svg" xmlns:xlink="http://www.w3.org/1999/xlink" xmlns:lucid="lucid" width="851.57" height="512.67"><g transform="translate(-59 -228.33333333333331)" lucid:page-tab-id="ZOMH9kZK9~rX"><path d="M0 0h1000v1000H0z" fill="#fff"/><path d="M274 229.33c-8.84 0-16 7.17-16 16v48c0 8.84 7.16 16 16 16h190c8.84 0 16-7.16 16-16v-48c0-8.83-7.16-16-16-16z" stroke="#000" stroke-width="2" fill="#fff"/><use xlink:href="#a" transform="matrix(1,0,0,1,266,237.33333333333331) translate(-5.255208333333343 39.76041666666667)"/><path d="M305 460c-8.84 0-16 7.16-16 16v48c0 8.84 7.16 16 16 16h128c8.84 0 16-7.16 16-16v-48c0-8.84-7.16-16-16-16z" stroke="#000" stroke-width="2" fill="#fff"/><use xlink:href="#b" transform="matrix(1,0,0,1,297,468) translate(-6.786458333333329 39.76041666666667)"/><path d="M269.5 660c-8.84 0-16 7.16-16 16v48c0 8.84 7.16 16 16 16h199c8.84 0 16-7.16 16-16v-48c0-8.84-7.16-16-16-16z" stroke="#000" stroke-width="2" fill="#fff"/><use xlink:href="#c" transform="matrix(1,0,0,1,261.5,668) translate(1.9739583333333286 39.76041666666667)"/><path d="M100 269.33c0 11.05-8.95 20-20 20s-20-8.95-20-20c0-11.04 8.95-20 20-20s20 8.96 20 20z" stroke="#000" stroke-width="2"/><path d="M101.5 269.33h146.06" stroke="#3a414a" fill="none"/><path d="M101.5 269.8h-.55l.05-.42-.02-.52h.53z" stroke="#3a414a" stroke-width=".05" fill="#3a414a"/><path d="M238.68 259.33l17.32 10-17.32 10m17.32-10h-8.5" stroke="#3a414a" fill="none"/><path d="M369.48 449.56h-.96v-52h.96zm0-77.8h-.96v-60.93h.96z" stroke="#3a414a" stroke-width=".05" fill="#3a414a"/><path d="M369.48 310.85h-.96v-.52h.96z" fill="#3a414a"/><path stroke="#3a414a" stroke-width=".05" fill="#3a414a"/><path d="M379.4 440.92L369 458.95l-10.4-18.03.8-.48 9.13 15.8v-6.74h.95v6.73l9.1-15.8z" stroke="#3a414a" stroke-width=".05" fill="#3a414a"/><use xlink:href="#d" transform="matrix(1,0,0,1,93.83333333333331,371.76041666666663) translate(0 20.666666666666668)"/><use xlink:href="#e" transform="matrix(1,0,0,1,93.83333333333331,371.76041666666663) translate(77.52083333333334 20.666666666666668)"/><use xlink:href="#f" transform="matrix(1,0,0,1,93.83333333333331,371.76041666666663) translate(133.13541666666669 20.666666666666668)"/><use xlink:href="#g" transform="matrix(1,0,0,1,93.83333333333331,371.76041666666663) translate(146.82291666666669 20.666666666666668)"/><use xlink:href="#e" transform="matrix(1,0,0,1,93.83333333333331,371.76041666666663) translate(239.3125 20.666666666666668)"/><use xlink:href="#h" transform="matrix(1,0,0,1,93.83333333333331,371.76041666666663) translate(294.92708333333337 20.666666666666668)"/><use xlink:href="#i" transform="matrix(1,0,0,1,93.83333333333331,371.76041666666663) translate(338.5729166666667 20.666666666666668)"/><use xlink:href="#j" transform="matrix(1,0,0,1,93.83333333333331,371.76041666666663) translate(412.2604166666667 20.666666666666668)"/><use xlink:href="#k" transform="matrix(1,0,0,1,93.83333333333331,371.76041666666663) translate(486.03125 20.666666666666668)"/><path d="M369.48 649.56h-.96V612.9h.96zm0-62.47h-.96v-45.6h.96z" stroke="#3a414a" stroke-width=".05" fill="#3a414a"/><path d="M369.48 541.5h-.96v-.5h.96z" fill="#3a414a"/><path stroke="#3a414a" stroke-width=".05" fill="#3a414a"/><path d="M379.4 640.92L369 658.95l-10.4-18.03.8-.48 9.13 15.8v-6.74h.95v6.73l9.1-15.8z" stroke="#3a414a" stroke-width=".05" fill="#3a414a"/><use xlink:href="#l" transform="matrix(1,0,0,1,65.265625,587.09375) translate(0 20.666666666666668)"/><use xlink:href="#m" transform="matrix(1,0,0,1,65.265625,587.09375) translate(84.82291666666667 20.666666666666668)"/><use xlink:href="#f" transform="matrix(1,0,0,1,65.265625,587.09375) translate(148.66666666666669 20.666666666666668)"/><use xlink:href="#n" transform="matrix(1,0,0,1,65.265625,587.09375) translate(162.35416666666669 20.666666666666668)"/><use xlink:href="#o" transform="matrix(1,0,0,1,65.265625,587.09375) translate(239.72916666666669 20.666666666666668)"/><use xlink:href="#h" transform="matrix(1,0,0,1,65.265625,587.09375) translate(372.94791666666674 20.666666666666668)"/><use xlink:href="#p" transform="matrix(1,0,0,1,65.265625,587.09375) translate(416.59375000000006 20.666666666666668)"/><use xlink:href="#q" transform="matrix(1,0,0,1,65.265625,587.09375) translate(476.33333333333337 20.666666666666668)"/><use xlink:href="#r" transform="matrix(1,0,0,1,65.265625,587.09375) translate(538.8645833333334 20.666666666666668)"/><path d="M760.48 694.02l-.08 1-.24.98-.4.94-.52.87-.66.78-.77.66-.86.53-.94.4-1 .23-.98.08H494.94v-.96h259.04l.88-.06.85-.2.8-.34.75-.45.66-.56.57-.65.45-.74.33-.8.2-.84.07-.88V495.32h.96zM755 268.94l1 .23.94.4.87.52.78.65.66.78.53.86.4.93.23 1 .08 1V469.5h-.96V275.36l-.06-.88-.2-.84-.34-.8-.45-.74-.56-.67-.65-.56-.74-.46-.8-.32-.84-.2-.88-.07H481.5v-.94h272.52z" stroke="#3a414a" stroke-width=".05" fill="#3a414a"/><path d="M481.5 269.8h-.5v-.94h.5z" fill="#3a414a"/><path stroke="#3a414a" stroke-width=".05" fill="#3a414a"/><path d="M504.06 690.4l-15.8 9.13H495v.95h-6.73l15.8 9.1-.5.83-18.02-10.4 18.03-10.4z" stroke="#3a414a" stroke-width=".05" fill="#3a414a"/><g><use xlink:href="#s" transform="matrix(1,0,0,1,609.4270833333333,469.5104166666667) translate(0 20.666666666666668)"/><use xlink:href="#t" transform="matrix(1,0,0,1,609.4270833333333,469.5104166666667) translate(49.38541666666667 20.666666666666668)"/><use xlink:href="#f" transform="matrix(1,0,0,1,609.4270833333333,469.5104166666667) translate(96.58333333333334 20.666666666666668)"/><use xlink:href="#p" transform="matrix(1,0,0,1,609.4270833333333,469.5104166666667) translate(110.27083333333334 20.666666666666668)"/><use xlink:href="#q" transform="matrix(1,0,0,1,609.4270833333333,469.5104166666667) translate(170.01041666666669 20.666666666666668)"/><use xlink:href="#r" transform="matrix(1,0,0,1,609.4270833333333,469.5104166666667) translate(232.54166666666669 20.666666666666668)"/></g><path d="M100 700c0 11.05-8.95 20-20 20s-20-8.95-20-20 8.95-20 20-20 20 8.95 20 20z" stroke="#000" stroke-width="2" fill="#fff"/><path d="M92 700c0 6.63-5.37 12-12 12s-12-5.37-12-12 5.37-12 12-12 12 5.37 12 12z" stroke="#000" stroke-width="2"/><path d="M252 700H110.44" stroke="#3a414a" fill="none"/><path d="M252.5 700.48h-.5v-.96h.5z" stroke="#3a414a" stroke-width=".05" fill="#3a414a"/><path d="M119.32 710L102 700l17.32-10M102 700h8.5" stroke="#3a414a" fill="none"/><defs><path d="M600 0L52-1490h200c166 485 304 806 458 1336 156-533 285-846 449-1336h202L819 0H600" id="u"/><path d="M158 0v-1118h180V0H158zm91-1301c-68 0-125-53-125-119s57-119 125-119c69 0 126 53 126 119s-57 119-126 119" id="v"/><path d="M628 24c-324 0-524-230-524-574 0-343 198-582 503-582 237 0 487 146 487 559v75H286c9 234 145 362 343 362 132 0 231-58 273-172l174 48C1024-91 857 24 628 24zM287-650h624c-17-190-120-322-304-322-192 0-309 151-320 322" id="w"/><path d="M409 0L70-1118h191c89 329 165 560 243 925 75-353 154-601 240-925h192c85 325 161 564 235 922 77-354 157-598 244-922h191L1267 0h-179c-86-307-176-590-250-913C763-588 675-308 588 0H409" id="x"/><path d="M338-670V0H158v-1118h173l1 207c72-158 192-221 342-221 226 0 378 139 378 422V0H872v-695c0-172-96-275-252-275-161 0-282 109-282 300" id="y"/><path d="M611 442c-248 0-391-105-460-228l146-94c47 65 117 165 314 165 178 0 307-82 307-266v-224h-17C863-141 792-18 576-18c-268 0-472-195-472-546 0-346 197-568 476-568 216 0 288 133 326 193h17v-179h175V29c0 289-215 413-487 413zm-5-620c203 0 314-146 314-390 0-237-108-403-314-403-213 0-319 180-319 403 0 230 109 390 319 390" id="z"/><path d="M180 0v-1490h510c348 0 508 194 508 460 0 198-88 351-276 417L1256 0h-220L726-579c-117 2-238 0-356 1V0H180zm190-747h312c235 0 327-108 327-283 0-177-92-293-329-293H370v576" id="A"/><path d="M471 26C259 26 90-98 90-318c0-256 228-303 435-329 202-27 287-16 287-108 0-139-79-219-234-219-161 0-248 86-283 164l-173-57c86-203 278-265 451-265 150 0 419 46 419 395V0H815v-152h-12C765-73 660 26 471 26zm31-159c199 0 310-134 310-271v-155c-30 35-226 55-295 64-131 17-246 59-246 186 0 116 97 176 231 176" id="B"/><path d="M598-1118v154H368v674c0 100 37 144 132 144 23 0 62-6 92-12L629-6c-37 13-88 20-134 20-193 0-307-107-307-290v-688H20v-154h168v-266h180v266h230" id="C"/><path d="M180 0v-1490h510c348 0 508 209 508 474 0 266-160 477-507 477H370V0H180zm190-706h312c236 0 327-133 327-310 0-176-91-307-329-307H370v617" id="D"/><path d="M158 0v-1118h174v172h12c41-113 157-188 290-188 26 0 70 2 91 3v181c-11-2-60-10-108-10-161 0-279 109-279 260V0H158" id="E"/><path d="M613 24c-304 0-509-231-509-576 0-350 205-580 509-580 305 0 511 230 511 580 0 345-206 576-511 576zm0-161c226 0 329-195 329-415 0-222-103-419-329-419-223 0-326 196-326 419 0 220 103 415 326 415" id="F"/><path d="M158 0v-1118h175l1 205c55-151 181-225 313-225 147 0 245 90 285 228 53-141 190-228 352-228 194 0 352 125 352 384V0h-181v-749c0-161-105-225-225-225-151 0-243 103-243 244V0H807v-767c0-124-93-207-219-207-131 0-250 92-250 270V0H158" id="G"/><path d="M158 418v-1536h174v179h20c37-59 106-193 324-193 279 0 474 222 474 576 0 356-194 580-473 580-213 0-288-135-325-197h-14v591H158zm492-555c209 0 317-186 317-421 0-232-105-413-317-413-206 0-314 166-314 413 0 249 111 421 314 421" id="H"/><g id="a"><use transform="matrix(0.010416666666666668,0,0,0.010416666666666668,0,0)" xlink:href="#u"/><use transform="matrix(0.010416666666666668,0,0,0.010416666666666668,14.718750000000002,0)" xlink:href="#v"/><use transform="matrix(0.010416666666666668,0,0,0.010416666666666668,19.885416666666668,0)" xlink:href="#w"/><use transform="matrix(0.010416666666666668,0,0,0.010416666666666668,31.9375,0)" xlink:href="#x"/><use transform="matrix(0.010416666666666668,0,0,0.010416666666666668,49.395833333333336,0)" xlink:href="#v"/><use transform="matrix(0.010416666666666668,0,0,0.010416666666666668,54.5625,0)" xlink:href="#y"/><use transform="matrix(0.010416666666666668,0,0,0.010416666666666668,67.16666666666667,0)" xlink:href="#z"/><use transform="matrix(0.010416666666666668,0,0,0.010416666666666668,80.25,0)" xlink:href="#A"/><use transform="matrix(0.010416666666666668,0,0,0.010416666666666668,93.87499999999999,0)" xlink:href="#B"/><use transform="matrix(0.010416666666666668,0,0,0.010416666666666668,105.85416666666667,0)" xlink:href="#C"/><use transform="matrix(0.010416666666666668,0,0,0.010416666666666668,112.83333333333334,0)" xlink:href="#v"/><use transform="matrix(0.010416666666666668,0,0,0.010416666666666668,118.00000000000001,0)" xlink:href="#y"/><use transform="matrix(0.010416666666666668,0,0,0.010416666666666668,130.60416666666669,0)" xlink:href="#z"/><use transform="matrix(0.010416666666666668,0,0,0.010416666666666668,143.68750000000003,0)" xlink:href="#D"/><use transform="matrix(0.010416666666666668,0,0,0.010416666666666668,157.31250000000003,0)" xlink:href="#E"/><use transform="matrix(0.010416666666666668,0,0,0.010416666666666668,164.98958333333337,0)" xlink:href="#F"/><use transform="matrix(0.010416666666666668,0,0,0.010416666666666668,177.78125000000003,0)" xlink:href="#G"/><use transform="matrix(0.010416666666666668,0,0,0.010416666666666668,196.46875000000003,0)" xlink:href="#H"/><use transform="matrix(0.010416666666666668,0,0,0.010416666666666668,209.53125000000003,0)" xlink:href="#C"/></g><path d="M577 24c-279 0-473-224-473-580 0-354 195-576 474-576 218 0 287 134 324 193h14v-551h180V0H922v-173h-20C865-111 790 24 577 24zm27-161c203 0 314-172 314-421 0-247-108-413-314-413-212 0-317 181-317 413 0 235 108 421 317 421" id="I"/><path d="M140 405l46-156c120 36 205 19 263-150l32-93L54-1118h197c107 313 237 620 324 950 87-331 219-637 326-950h196L606 167c-68 178-176 259-334 259-64 0-113-12-132-21" id="J"/><path d="M98-1322v-168h1126v168H757V0H567v-1322H98" id="K"/><path d="M657 26c-323 0-524-166-541-416h195c15 169 171 246 346 246 202 0 356-106 356-265 5-203-294-238-475-293-239-73-380-191-380-389 0-252 224-419 512-419 294 0 499 171 508 396H992c-17-145-151-228-328-228-193 0-321 102-321 242 0 156 175 211 284 241l149 41c160 44 422 134 422 412 0 244-197 432-541 432" id="L"/><path d="M537 14c-226 0-379-139-379-422v-710h180v695c0 172 97 275 253 275 160 0 281-109 281-300v-670h181V0H879v-209C806-46 684 14 537 14" id="M"/><path d="M677 24c-213 0-288-135-325-197h-20V0H158v-1490h180v551h14c37-59 106-193 324-193 279 0 474 222 474 576 0 356-194 580-473 580zm-27-161c209 0 317-186 317-421 0-232-105-413-317-413-206 0-314 166-314 413 0 249 111 421 314 421" id="N"/><g id="b"><use transform="matrix(0.010416666666666668,0,0,0.010416666666666668,0,0)" xlink:href="#A"/><use transform="matrix(0.010416666666666668,0,0,0.010416666666666668,13.416666666666668,0)" xlink:href="#w"/><use transform="matrix(0.010416666666666668,0,0,0.010416666666666668,26.062500000000004,0)" xlink:href="#B"/><use transform="matrix(0.010416666666666668,0,0,0.010416666666666668,38.04166666666667,0)" xlink:href="#I"/><use transform="matrix(0.010416666666666668,0,0,0.010416666666666668,51.208333333333336,0)" xlink:href="#J"/><use transform="matrix(0.010416666666666668,0,0,0.010416666666666668,62.47916666666667,0)" xlink:href="#K"/><use transform="matrix(0.010416666666666668,0,0,0.010416666666666668,74.58333333333334,0)" xlink:href="#F"/><use transform="matrix(0.010416666666666668,0,0,0.010416666666666668,87.37500000000001,0)" xlink:href="#L"/><use transform="matrix(0.010416666666666668,0,0,0.010416666666666668,101.06250000000001,0)" xlink:href="#M"/><use transform="matrix(0.010416666666666668,0,0,0.010416666666666668,113.67708333333334,0)" xlink:href="#N"/><use transform="matrix(0.010416666666666668,0,0,0.010416666666666668,126.73958333333334,0)" xlink:href="#G"/><use transform="matrix(0.010416666666666668,0,0,0.010416666666666668,145.42708333333334,0)" xlink:href="#v"/><use transform="matrix(0.010416666666666668,0,0,0.010416666666666668,150.59375,0)" xlink:href="#C"/></g><path d="M180 0v-1490h190v644h782v-644h190V0h-190v-678H370V0H180" id="O"/><path d="M613 24c-304 0-509-231-509-576 0-350 205-580 509-580 216 0 392 114 453 309l-173 49c-33-115-133-197-280-197-223 0-326 196-326 419 0 220 103 415 326 415 150 0 252-85 285-206l172 49C1010-95 832 24 613 24" id="P"/><g id="c"><use transform="matrix(0.010416666666666668,0,0,0.010416666666666668,0,0)" xlink:href="#u"/><use transform="matrix(0.010416666666666668,0,0,0.010416666666666668,14.718750000000002,0)" xlink:href="#v"/><use transform="matrix(0.010416666666666668,0,0,0.010416666666666668,19.885416666666668,0)" xlink:href="#w"/><use transform="matrix(0.010416666666666668,0,0,0.010416666666666668,31.9375,0)" xlink:href="#x"/><use transform="matrix(0.010416666666666668,0,0,0.010416666666666668,49.395833333333336,0)" xlink:href="#v"/><use transform="matrix(0.010416666666666668,0,0,0.010416666666666668,54.5625,0)" xlink:href="#y"/><use transform="matrix(0.010416666666666668,0,0,0.010416666666666668,67.16666666666667,0)" xlink:href="#z"/><use transform="matrix(0.010416666666666668,0,0,0.010416666666666668,80.25,0)" xlink:href="#O"/><use transform="matrix(0.010416666666666668,0,0,0.010416666666666668,96.10416666666667,0)" xlink:href="#F"/><use transform="matrix(0.010416666666666668,0,0,0.010416666666666668,108.89583333333334,0)" xlink:href="#G"/><use transform="matrix(0.010416666666666668,0,0,0.010416666666666668,127.58333333333334,0)" xlink:href="#w"/><use transform="matrix(0.010416666666666668,0,0,0.010416666666666668,140.02083333333334,0)" xlink:href="#L"/><use transform="matrix(0.010416666666666668,0,0,0.010416666666666668,153.70833333333334,0)" xlink:href="#P"/><use transform="matrix(0.010416666666666668,0,0,0.010416666666666668,165.89583333333334,0)" xlink:href="#E"/><use transform="matrix(0.010416666666666668,0,0,0.010416666666666668,173.57291666666669,0)" xlink:href="#w"/><use transform="matrix(0.010416666666666668,0,0,0.010416666666666668,186.01041666666669,0)" xlink:href="#w"/><use transform="matrix(0.010416666666666668,0,0,0.010416666666666668,198.44791666666669,0)" xlink:href="#y"/></g><path d="M538 24C308 24 148-78 108-271l171-41c32 123 123 178 257 178 156 0 256-77 256-169 0-77-54-128-164-154l-186-44c-203-48-300-148-300-305 0-192 176-326 414-326 230 0 351 112 402 269l-163 42c-31-80-94-158-238-158-133 0-233 69-233 162 0 83 57 129 188 160l169 40c203 48 298 149 298 302 0 196-179 339-441 339" id="Q"/><path d="M338-1490V0H158v-1490h180" id="R"/><g id="d"><use transform="matrix(0.010416666666666668,0,0,0.010416666666666668,0,0)" xlink:href="#Q"/><use transform="matrix(0.010416666666666668,0,0,0.010416666666666668,11.260416666666668,0)" xlink:href="#w"/><use transform="matrix(0.010416666666666668,0,0,0.010416666666666668,23.697916666666668,0)" xlink:href="#R"/><use transform="matrix(0.010416666666666668,0,0,0.010416666666666668,28.864583333333343,0)" xlink:href="#w"/><use transform="matrix(0.010416666666666668,0,0,0.010416666666666668,41.30208333333334,0)" xlink:href="#P"/><use transform="matrix(0.010416666666666668,0,0,0.010416666666666668,53.48958333333334,0)" xlink:href="#C"/><use transform="matrix(0.010416666666666668,0,0,0.010416666666666668,60.26041666666667,0)" xlink:href="#Q"/></g><g id="e"><use transform="matrix(0.010416666666666668,0,0,0.010416666666666668,0,0)" xlink:href="#Q"/><use transform="matrix(0.010416666666666668,0,0,0.010416666666666668,11.260416666666668,0)" xlink:href="#C"/><use transform="matrix(0.010416666666666668,0,0,0.010416666666666668,18.34375,0)" xlink:href="#B"/><use transform="matrix(0.010416666666666668,0,0,0.010416666666666668,30.32291666666667,0)" xlink:href="#E"/><use transform="matrix(0.010416666666666668,0,0,0.010416666666666668,38.35416666666667,0)" xlink:href="#Q"/></g><path d="M692-1560L212 224H46l480-1784h166" id="S"/><use transform="matrix(0.010416666666666668,0,0,0.010416666666666668,0,0)" xlink:href="#S" id="f"/><path d="M338-670V0H158v-1490h180v566c73-149 190-208 336-208 226 0 379 139 379 422V0H872v-695c0-172-96-275-252-275-161 0-282 109-282 300" id="T"/><g id="g"><use transform="matrix(0.010416666666666668,0,0,0.010416666666666668,0,0)" xlink:href="#T"/><use transform="matrix(0.010416666666666668,0,0,0.010416666666666668,12.614583333333334,0)" xlink:href="#v"/><use transform="matrix(0.010416666666666668,0,0,0.010416666666666668,17.78125,0)" xlink:href="#z"/><use transform="matrix(0.010416666666666668,0,0,0.010416666666666668,30.864583333333336,0)" xlink:href="#T"/><use transform="matrix(0.010416666666666668,0,0,0.010416666666666668,43.47916666666667,0)" xlink:href="#R"/><use transform="matrix(0.010416666666666668,0,0,0.010416666666666668,48.645833333333336,0)" xlink:href="#v"/><use transform="matrix(0.010416666666666668,0,0,0.010416666666666668,53.8125,0)" xlink:href="#z"/><use transform="matrix(0.010416666666666668,0,0,0.010416666666666668,66.89583333333333,0)" xlink:href="#T"/><use transform="matrix(0.010416666666666668,0,0,0.010416666666666668,79.51041666666666,0)" xlink:href="#C"/></g><g id="h"><use transform="matrix(0.010416666666666668,0,0,0.010416666666666668,0,0)" xlink:href="#B"/><use transform="matrix(0.010416666666666668,0,0,0.010416666666666668,11.979166666666668,0)" xlink:href="#y"/><use transform="matrix(0.010416666666666668,0,0,0.010416666666666668,24.583333333333336,0)" xlink:href="#I"/></g><g id="i"><use transform="matrix(0.010416666666666668,0,0,0.010416666666666668,0,0)" xlink:href="#w"/><use transform="matrix(0.010416666666666668,0,0,0.010416666666666668,12.437500000000002,0)" xlink:href="#y"/><use transform="matrix(0.010416666666666668,0,0,0.010416666666666668,25.041666666666668,0)" xlink:href="#B"/><use transform="matrix(0.010416666666666668,0,0,0.010416666666666668,37.02083333333334,0)" xlink:href="#N"/><use transform="matrix(0.010416666666666668,0,0,0.010416666666666668,50.083333333333336,0)" xlink:href="#R"/><use transform="matrix(0.010416666666666668,0,0,0.010416666666666668,55.25000000000001,0)" xlink:href="#w"/></g><g id="j"><use transform="matrix(0.010416666666666668,0,0,0.010416666666666668,0,0)" xlink:href="#Q"/><use transform="matrix(0.010416666666666668,0,0,0.010416666666666668,11.260416666666668,0)" xlink:href="#M"/><use transform="matrix(0.010416666666666668,0,0,0.010416666666666668,23.874999999999996,0)" xlink:href="#N"/><use transform="matrix(0.010416666666666668,0,0,0.010416666666666668,36.9375,0)" xlink:href="#G"/><use transform="matrix(0.010416666666666668,0,0,0.010416666666666668,55.625,0)" xlink:href="#v"/><use transform="matrix(0.010416666666666668,0,0,0.010416666666666668,60.791666666666664,0)" xlink:href="#C"/></g><g id="k"><use transform="matrix(0.010416666666666668,0,0,0.010416666666666668,0,0)" xlink:href="#N"/><use transform="matrix(0.010416666666666668,0,0,0.010416666666666668,13.062500000000002,0)" xlink:href="#M"/><use transform="matrix(0.010416666666666668,0,0,0.010416666666666668,25.677083333333336,0)" xlink:href="#C"/><use transform="matrix(0.010416666666666668,0,0,0.010416666666666668,32.13541666666667,0)" xlink:href="#C"/><use transform="matrix(0.010416666666666668,0,0,0.010416666666666668,38.90625000000001,0)" xlink:href="#F"/><use transform="matrix(0.010416666666666668,0,0,0.010416666666666668,51.69791666666667,0)" xlink:href="#y"/></g><g id="l"><use transform="matrix(0.010416666666666668,0,0,0.010416666666666668,0,0)" xlink:href="#Q"/><use transform="matrix(0.010416666666666668,0,0,0.010416666666666668,11.260416666666668,0)" xlink:href="#M"/><use transform="matrix(0.010416666666666668,0,0,0.010416666666666668,23.874999999999996,0)" xlink:href="#N"/><use transform="matrix(0.010416666666666668,0,0,0.010416666666666668,36.9375,0)" xlink:href="#G"/><use transform="matrix(0.010416666666666668,0,0,0.010416666666666668,55.625,0)" xlink:href="#v"/><use transform="matrix(0.010416666666666668,0,0,0.010416666666666668,60.791666666666664,0)" xlink:href="#C"/><use transform="matrix(0.010416666666666668,0,0,0.010416666666666668,67.5625,0)" xlink:href="#Q"/></g><g id="m"><use transform="matrix(0.010416666666666668,0,0,0.010416666666666668,0,0)" xlink:href="#E"/><use transform="matrix(0.010416666666666668,0,0,0.010416666666666668,8.031250000000002,0)" xlink:href="#B"/><use transform="matrix(0.010416666666666668,0,0,0.010416666666666668,20.01041666666667,0)" xlink:href="#C"/><use transform="matrix(0.010416666666666668,0,0,0.010416666666666668,26.989583333333343,0)" xlink:href="#v"/><use transform="matrix(0.010416666666666668,0,0,0.010416666666666668,32.15625000000001,0)" xlink:href="#y"/><use transform="matrix(0.010416666666666668,0,0,0.010416666666666668,44.76041666666667,0)" xlink:href="#z"/></g><g id="n"><use transform="matrix(0.010416666666666668,0,0,0.010416666666666668,0,0)" xlink:href="#I"/><use transform="matrix(0.010416666666666668,0,0,0.010416666666666668,13.062500000000002,0)" xlink:href="#v"/><use transform="matrix(0.010416666666666668,0,0,0.010416666666666668,18.229166666666668,0)" xlink:href="#Q"/><use transform="matrix(0.010416666666666668,0,0,0.010416666666666668,29.489583333333336,0)" xlink:href="#H"/><use transform="matrix(0.010416666666666668,0,0,0.010416666666666668,42.552083333333336,0)" xlink:href="#R"/><use transform="matrix(0.010416666666666668,0,0,0.010416666666666668,47.71874999999999,0)" xlink:href="#B"/><use transform="matrix(0.010416666666666668,0,0,0.010416666666666668,59.38541666666667,0)" xlink:href="#J"/></g><path d="M678-1118v154H420V0H240v-964H20v-154h220v-149c0-194 155-293 318-293 85 0 141 18 168 30l-50 154c-19-6-47-17-97-17-111 0-159 58-159 166v109h258" id="U"/><g id="o"><use transform="matrix(0.010416666666666668,0,0,0.010416666666666668,0,0)" xlink:href="#P"/><use transform="matrix(0.010416666666666668,0,0,0.010416666666666668,12.187500000000002,0)" xlink:href="#F"/><use transform="matrix(0.010416666666666668,0,0,0.010416666666666668,24.979166666666668,0)" xlink:href="#y"/><use transform="matrix(0.010416666666666668,0,0,0.010416666666666668,37.58333333333334,0)" xlink:href="#U"/><use transform="matrix(0.010416666666666668,0,0,0.010416666666666668,45.47916666666668,0)" xlink:href="#v"/><use transform="matrix(0.010416666666666668,0,0,0.010416666666666668,50.645833333333336,0)" xlink:href="#E"/><use transform="matrix(0.010416666666666668,0,0,0.010416666666666668,59.010416666666686,0)" xlink:href="#G"/><use transform="matrix(0.010416666666666668,0,0,0.010416666666666668,77.69791666666669,0)" xlink:href="#B"/><use transform="matrix(0.010416666666666668,0,0,0.010416666666666668,89.67708333333336,0)" xlink:href="#C"/><use transform="matrix(0.010416666666666668,0,0,0.010416666666666668,96.65625000000003,0)" xlink:href="#v"/><use transform="matrix(0.010416666666666668,0,0,0.010416666666666668,101.8229166666667,0)" xlink:href="#F"/><use transform="matrix(0.010416666666666668,0,0,0.010416666666666668,114.61458333333337,0)" xlink:href="#y"/></g><g id="p"><use transform="matrix(0.010416666666666668,0,0,0.010416666666666668,0,0)" xlink:href="#Q"/><use transform="matrix(0.010416666666666668,0,0,0.010416666666666668,11.260416666666668,0)" xlink:href="#T"/><use transform="matrix(0.010416666666666668,0,0,0.010416666666666668,23.874999999999996,0)" xlink:href="#F"/><use transform="matrix(0.010416666666666668,0,0,0.010416666666666668,36.28125,0)" xlink:href="#x"/></g><g id="q"><use transform="matrix(0.010416666666666668,0,0,0.010416666666666668,0,0)" xlink:href="#T"/><use transform="matrix(0.010416666666666668,0,0,0.010416666666666668,12.614583333333334,0)" xlink:href="#F"/><use transform="matrix(0.010416666666666668,0,0,0.010416666666666668,25.406249999999996,0)" xlink:href="#G"/><use transform="matrix(0.010416666666666668,0,0,0.010416666666666668,44.09374999999999,0)" xlink:href="#w"/></g><g id="r"><use transform="matrix(0.010416666666666668,0,0,0.010416666666666668,0,0)" xlink:href="#Q"/><use transform="matrix(0.010416666666666668,0,0,0.010416666666666668,11.260416666666668,0)" xlink:href="#P"/><use transform="matrix(0.010416666666666668,0,0,0.010416666666666668,23.447916666666668,0)" xlink:href="#E"/><use transform="matrix(0.010416666666666668,0,0,0.010416666666666668,31.125000000000007,0)" xlink:href="#w"/><use transform="matrix(0.010416666666666668,0,0,0.010416666666666668,43.56250000000001,0)" xlink:href="#w"/><use transform="matrix(0.010416666666666668,0,0,0.010416666666666668,56.00000000000001,0)" xlink:href="#y"/></g><g id="s"><use transform="matrix(0.010416666666666668,0,0,0.010416666666666668,0,0)" xlink:href="#C"/><use transform="matrix(0.010416666666666668,0,0,0.010416666666666668,7.083333333333336,0)" xlink:href="#B"/><use transform="matrix(0.010416666666666668,0,0,0.010416666666666668,19.062500000000004,0)" xlink:href="#H"/><use transform="matrix(0.010416666666666668,0,0,0.010416666666666668,32.12500000000001,0)" xlink:href="#Q"/></g><path d="M158 0v-1490h180v865h22l478-493h223L593-638 1096 0H865L456-523 338-412V0H158" id="V"/><g id="t"><use transform="matrix(0.010416666666666668,0,0,0.010416666666666668,0,0)" xlink:href="#Q"/><use transform="matrix(0.010416666666666668,0,0,0.010416666666666668,11.260416666666668,0)" xlink:href="#V"/><use transform="matrix(0.010416666666666668,0,0,0.010416666666666668,22.968749999999996,0)" xlink:href="#v"/><use transform="matrix(0.010416666666666668,0,0,0.010416666666666668,28.13541666666667,0)" xlink:href="#H"/></g></defs></g></svg>