<svg xmlns="http://www.w3.org/2000/svg" xmlns:xlink="http://www.w3.org/1999/xlink" xmlns:lucid="lucid" width="1505.88" height="684.43"><g transform="translate(497.75520833333337 -96.57083333333333)" lucid:page-tab-id="cJMHZ.Mm3XF_"><path d="M-500 0h2000v1000H-500z" fill="#fff"/><path d="M179.78 229.33c-8.84 0-16 7.17-16 16v48c0 8.84 7.16 16 16 16h128c8.83 0 16-7.16 16-16v-48c0-8.83-7.17-16-16-16z" stroke="#000" stroke-width="2" fill="#fff"/><use xlink:href="#a" transform="matrix(1,0,0,1,171.7777777777777,237.33333333333331) translate(-4.505208333333343 39.76041666666667)"/><path d="M179.78 480c-8.84 0-16 7.16-16 16v48c0 8.84 7.16 16 16 16H384c8.84 0 16-7.16 16-16v-48c0-8.84-7.16-16-16-16z" stroke="#000" stroke-width="2" fill="#fff"/><use xlink:href="#b" transform="matrix(1,0,0,1,171.7777777777777,488) translate(2.3385416666666856 39.76041666666667)"/><path d="M179.78 700c-8.84 0-16 7.16-16 16v48c0 8.84 7.16 16 16 16h128c8.83 0 16-7.16 16-16v-48c0-8.84-7.17-16-16-16z" stroke="#000" stroke-width="2" fill="#fff"/><use xlink:href="#c" transform="matrix(1,0,0,1,171.77777777777771,708) translate(2.072916666666657 39.76041666666667)"/><path d="M-80 269.33c0 11.05-8.95 20-20 20s-20-8.95-20-20c0-11.04 8.95-20 20-20s20 8.96 20 20z" stroke="#000" stroke-width="2"/><path d="M-78.5 269.33h231.83" stroke="#3a414a" fill="none"/><path d="M-78.5 269.8h-.55l.05-.42-.02-.52h.53z" stroke="#3a414a" stroke-width=".05" fill="#3a414a"/><path d="M144.46 259.33l17.32 10-17.32 10m17.32-10h-8.5M243.78 227.83v-33.5a6 6 0 0 1 6-6H534a6 6 0 0 1 6 6v69a6 6 0 0 1-6 6H334.22" stroke="#3a414a" fill="none"/><path d="M244.25 228.33h-.95v-.5h.95z" stroke="#3a414a" stroke-width=".05" fill="#3a414a"/><path d="M343.1 279.33l-17.32-10 17.32-10m-17.32 10h8.5" stroke="#3a414a" fill="none"/><use xlink:href="#d" transform="matrix(1,0,0,1,307.6894700169595,96.57083333333333) translate(0 20.666666666666668)"/><use xlink:href="#e" transform="matrix(1,0,0,1,307.6894700169595,96.57083333333333) translate(49.38541666666667 20.666666666666668)"/><use xlink:href="#f" transform="matrix(1,0,0,1,307.6894700169595,96.57083333333333) translate(122.15625000000001 20.666666666666668)"/><use xlink:href="#g" transform="matrix(1,0,0,1,307.6894700169595,96.57083333333333) translate(0 51.641666666666666)"/><use xlink:href="#h" transform="matrix(1,0,0,1,307.6894700169595,96.57083333333333) translate(80.60416666666667 51.641666666666666)"/><use xlink:href="#i" transform="matrix(1,0,0,1,307.6894700169595,96.57083333333333) translate(165.34375 51.641666666666666)"/><use xlink:href="#j" transform="matrix(1,0,0,1,307.6894700169595,96.57083333333333) translate(0 82.61666666666666)"/><use xlink:href="#k" transform="matrix(1,0,0,1,307.6894700169595,96.57083333333333) translate(77.375 82.61666666666666)"/><use xlink:href="#l" transform="matrix(1,0,0,1,307.6894700169595,96.57083333333333) translate(132.67708333333334 82.61666666666666)"/><path d="M510.48 433.02l-.08 1-.24.98-.4.94-.52.87-.66.78-.77.66-.86.53-.94.4-1 .23-.98.08h-216.1l-.9.06-.84.2-.8.34-.74.45-.66.56-.56.65-.45.74-.33.8-.2.84-.08.88v24.54h-.95v-24.58l.1-1 .23-.98.4-.94.52-.87.66-.78.78-.66.87-.53.94-.4.98-.23 1-.08h216.1l.88-.06.85-.2.8-.34.75-.45.66-.56.57-.65.45-.74.33-.8.2-.84.07-.88v-44.46h.96zm-266.23-88.7l.07.88.2.84.34.8.45.74.57.66.66.56.74.45.8.34.84.2.9.06h254.22l1 .08.98.23.94.4.87.52.78.65.66.78.53.86.4.93.23 1 .08 1v6.38h-.96v-6.35l-.06-.88-.2-.84-.34-.8-.45-.74-.56-.67-.65-.56-.74-.46-.8-.32-.84-.2-.88-.07H249.76l-1-.07-.98-.24-.94-.4-.87-.53-.77-.66-.66-.76-.53-.87-.38-.94-.24-.98-.08-1v-33.52h.95z" stroke="#3a414a" stroke-width=".05" fill="#3a414a"/><path d="M244.25 310.85h-.95v-.52h.95z" fill="#3a414a"/><path stroke="#3a414a" stroke-width=".05" fill="#3a414a"/><path d="M292.3 460.92l-10.4 18.03-10.42-18.03.82-.48 9.1 15.8v-6.74h.96v6.73l9.12-15.8z" stroke="#3a414a" stroke-width=".05" fill="#3a414a"/><use xlink:href="#d" transform="matrix(1,0,0,1,190.89583333333331,362.70486111111114) translate(0 20.666666666666668)"/><use xlink:href="#e" transform="matrix(1,0,0,1,190.89583333333331,362.70486111111114) translate(49.38541666666667 20.666666666666668)"/><use xlink:href="#m" transform="matrix(1,0,0,1,190.89583333333331,362.70486111111114) translate(122.15625000000001 20.666666666666668)"/><use xlink:href="#n" transform="matrix(1,0,0,1,190.89583333333331,362.70486111111114) translate(235.15625000000003 20.666666666666668)"/><use xlink:href="#o" transform="matrix(1,0,0,1,190.89583333333331,362.70486111111114) translate(269.25 20.666666666666668)"/><use xlink:href="#p" transform="matrix(1,0,0,1,190.89583333333331,362.70486111111114) translate(341.6666666666667 20.666666666666668)"/><use xlink:href="#j" transform="matrix(1,0,0,1,190.89583333333331,362.70486111111114) translate(355.3541666666667 20.666666666666668)"/><use xlink:href="#q" transform="matrix(1,0,0,1,190.89583333333331,362.70486111111114) translate(432.7291666666667 20.666666666666668)"/><use xlink:href="#r" transform="matrix(1,0,0,1,190.89583333333331,362.70486111111114) translate(565.9479166666667 20.666666666666668)"/><path d="M-199.53 436.27l.07.88.2.85.34.8.45.74.56.65.65.56.74.45.8.34.84.2.88.07h357.94l1 .1 1 .23.93.4.85.52.78.66.66.78.52.87.38.94.24.97.08 1v24.58h-.95V448.3l-.07-.88-.2-.84-.33-.8-.46-.74-.55-.66-.66-.56-.75-.45-.8-.33-.84-.2-.87-.08h-357.95l-1-.07-.98-.25-.94-.4-.87-.52-.78-.66-.66-.77-.53-.87-.4-.94-.23-1-.07-1v-28.64h.94zm369.17-95.8l-.08 1-.24.98-.4.94-.52.85-.66.77-.77.66-.87.53-.94.4-.98.24-1 .08h-357.16l-.88.07-.85.2-.8.32-.75.46-.66.56-.57.66-.45.74-.33.8-.2.84-.08.88v29.4h-.94v-29.43l.07-1 .24-1 .4-.93.52-.86.66-.77.77-.67.86-.53.94-.38 1-.25.98-.08h357.16l.9-.07.83-.2.8-.33.74-.46.67-.55.56-.66.46-.75.32-.8.2-.84.07-.87v-33.5h.94z" stroke="#3a414a" stroke-width=".05" fill="#3a414a"/><path d="M169.64 306.8v.16h-.95v-.88z" fill="#3a414a"/><path stroke="#3a414a" stroke-width=".05" fill="#3a414a"/><path d="M180.36 464.2l-10.4 18.04-10.43-18.04.83-.47 9.1 15.8v-6.74h.96v6.72l9.1-15.8z" stroke="#3a414a" stroke-width=".05" fill="#3a414a"/><use xlink:href="#d" transform="matrix(1,0,0,1,-497.75520833333337,381.8513472168577) translate(0 20.666666666666668)"/><use xlink:href="#e" transform="matrix(1,0,0,1,-497.75520833333337,381.8513472168577) translate(49.38541666666667 20.666666666666668)"/><use xlink:href="#s" transform="matrix(1,0,0,1,-497.75520833333337,381.8513472168577) translate(122.15625000000001 20.666666666666668)"/><use xlink:href="#t" transform="matrix(1,0,0,1,-497.75520833333337,381.8513472168577) translate(194.33333333333337 20.666666666666668)"/><use xlink:href="#p" transform="matrix(1,0,0,1,-497.75520833333337,381.8513472168577) translate(298.96875000000006 20.666666666666668)"/><use xlink:href="#j" transform="matrix(1,0,0,1,-497.75520833333337,381.8513472168577) translate(312.65625000000006 20.666666666666668)"/><use xlink:href="#q" transform="matrix(1,0,0,1,-497.75520833333337,381.8513472168577) translate(390.03125000000006 20.666666666666668)"/><use xlink:href="#r" transform="matrix(1,0,0,1,-497.75520833333337,381.8513472168577) translate(523.2500000000001 20.666666666666668)"/><path d="M281.9 561.5V624a6 6 0 0 1-6 6h-26.12a6 6 0 0 0-6 6v53.56" stroke="#3a414a" fill="none"/><path d="M282.36 561.5h-.95v-.5h.96z" stroke="#3a414a" stroke-width=".05" fill="#3a414a"/><path d="M253.78 680.68l-10 17.32-10-17.32m10 17.32v-8.5" stroke="#3a414a" fill="none"/><path d="M-256 581a6 6 0 0 1 6-6h545.24a6 6 0 0 1 6 6v23.82a6 6 0 0 1-6 6H-250a6 6 0 0 1-6-6z" fill="none"/><g><use xlink:href="#d" transform="matrix(1,0,0,1,-251,580) translate(0 20.760416666666668)"/><use xlink:href="#u" transform="matrix(1,0,0,1,-251,580) translate(49.38541666666667 20.760416666666668)"/><use xlink:href="#m" transform="matrix(1,0,0,1,-251,580) translate(90.65625000000001 20.760416666666668)"/><use xlink:href="#n" transform="matrix(1,0,0,1,-251,580) translate(203.65625000000003 20.760416666666668)"/><use xlink:href="#o" transform="matrix(1,0,0,1,-251,580) translate(237.75000000000003 20.760416666666668)"/><use xlink:href="#p" transform="matrix(1,0,0,1,-251,580) translate(310.1666666666667 20.760416666666668)"/><use xlink:href="#v" transform="matrix(1,0,0,1,-251,580) translate(323.8541666666667 20.760416666666668)"/><use xlink:href="#w" transform="matrix(1,0,0,1,-251,580) translate(390.53125 20.760416666666668)"/><use xlink:href="#x" transform="matrix(1,0,0,1,-251,580) translate(416.09375 20.760416666666668)"/><use xlink:href="#y" transform="matrix(1,0,0,1,-251,580) translate(478.625 20.760416666666668)"/></g><path d="M670.48 734.02l-.08 1-.24.98-.4.94-.52.87-.66.78-.77.66-.86.53-.94.4-1 .23-.98.08h-329.8v-.96h329.76l.88-.06.85-.2.8-.34.75-.45.66-.56.57-.65.45-.74.33-.8.2-.84.07-.88V614.13h.96zM665 519.6l1 .24.94.4.87.52.78.66.66.77.53.86.4.94.23 1 .08.98v62.34h-.96v-62.3l-.06-.88-.2-.85-.34-.8-.45-.75-.56-.66-.65-.57-.74-.45-.8-.33-.84-.2-.88-.07H401.5v-.96h262.52z" stroke="#3a414a" stroke-width=".05" fill="#3a414a"/><path d="M401.5 520.48h-.5v-.96h.5z" fill="#3a414a"/><path stroke="#3a414a" stroke-width=".05" fill="#3a414a"/><path d="M343.34 730.4l-15.8 9.13h6.74v.95h-6.73l15.8 9.1-.5.83-18.02-10.4 18.03-10.4z" stroke="#3a414a" stroke-width=".05" fill="#3a414a"/><g><use xlink:href="#d" transform="matrix(1,0,0,1,331.8802083333333,588.3228724611902) translate(0 20.666666666666668)"/><use xlink:href="#u" transform="matrix(1,0,0,1,331.8802083333333,588.3228724611902) translate(49.38541666666667 20.666666666666668)"/><use xlink:href="#s" transform="matrix(1,0,0,1,331.8802083333333,588.3228724611902) translate(90.65625000000001 20.666666666666668)"/><use xlink:href="#t" transform="matrix(1,0,0,1,331.8802083333333,588.3228724611902) translate(162.83333333333337 20.666666666666668)"/><use xlink:href="#p" transform="matrix(1,0,0,1,331.8802083333333,588.3228724611902) translate(267.46875000000006 20.666666666666668)"/><use xlink:href="#z" transform="matrix(1,0,0,1,331.8802083333333,588.3228724611902) translate(281.15625000000006 20.666666666666668)"/><use xlink:href="#A" transform="matrix(1,0,0,1,331.8802083333333,588.3228724611902) translate(344.58333333333337 20.666666666666668)"/><use xlink:href="#B" transform="matrix(1,0,0,1,331.8802083333333,588.3228724611902) translate(409.21875000000006 20.666666666666668)"/><use xlink:href="#v" transform="matrix(1,0,0,1,331.8802083333333,588.3228724611902) translate(452.86458333333337 20.666666666666668)"/><use xlink:href="#w" transform="matrix(1,0,0,1,331.8802083333333,588.3228724611902) translate(519.5416666666667 20.666666666666668)"/><use xlink:href="#x" transform="matrix(1,0,0,1,331.8802083333333,588.3228724611902) translate(545.1041666666667 20.666666666666668)"/><use xlink:href="#y" transform="matrix(1,0,0,1,331.8802083333333,588.3228724611902) translate(607.6354166666667 20.666666666666668)"/></g><path d="M60 740c0 11.05-8.95 20-20 20s-20-8.95-20-20 8.95-20 20-20 20 8.95 20 20z" stroke="#000" stroke-width="2" fill="#fff"/><path d="M52 740c0 6.63-5.37 12-12 12s-12-5.37-12-12 5.37-12 12-12 12 5.37 12 12z" stroke="#000" stroke-width="2"/><path d="M162.28 740H70.44" stroke="#3a414a" fill="none"/><path d="M162.78 740.48h-.52v-.96h.52z" stroke="#3a414a" stroke-width=".05" fill="#3a414a"/><path d="M79.32 750L62 740l17.32-10M62 740h8.5" stroke="#3a414a" fill="none"/><defs><path d="M180 0v-1490h270l367 940c28 72 75 218 110 339 35-117 81-264 110-339l362-940h271V0h-187c2-448-5-837 7-1287-157 497-311 829-483 1287H842C666-458 514-784 354-1284c12 438 5 843 7 1284H180" id="C"/><path d="M613 24c-304 0-509-231-509-576 0-350 205-580 509-580 305 0 511 230 511 580 0 345-206 576-511 576zm0-161c226 0 329-195 329-415 0-222-103-419-329-419-223 0-326 196-326 419 0 220 103 415 326 415" id="D"/><path d="M338-670V0H158v-1118h173l1 207c72-158 192-221 342-221 226 0 378 139 378 422V0H872v-695c0-172-96-275-252-275-161 0-282 109-282 300" id="E"/><path d="M158 0v-1118h180V0H158zm91-1301c-68 0-125-53-125-119s57-119 125-119c69 0 126 53 126 119s-57 119-126 119" id="F"/><path d="M598-1118v154H368v674c0 100 37 144 132 144 23 0 62-6 92-12L629-6c-37 13-88 20-134 20-193 0-307-107-307-290v-688H20v-154h168v-266h180v266h230" id="G"/><path d="M158 0v-1118h174v172h12c41-113 157-188 290-188 26 0 70 2 91 3v181c-11-2-60-10-108-10-161 0-279 109-279 260V0H158" id="H"/><path d="M611 442c-248 0-391-105-460-228l146-94c47 65 117 165 314 165 178 0 307-82 307-266v-224h-17C863-141 792-18 576-18c-268 0-472-195-472-546 0-346 197-568 476-568 216 0 288 133 326 193h17v-179h175V29c0 289-215 413-487 413zm-5-620c203 0 314-146 314-390 0-237-108-403-314-403-213 0-319 180-319 403 0 230 109 390 319 390" id="I"/><path d="M180 0v-1490h510c348 0 508 194 508 460 0 198-88 351-276 417L1256 0h-220L726-579c-117 2-238 0-356 1V0H180zm190-747h312c235 0 327-108 327-283 0-177-92-293-329-293H370v576" id="J"/><path d="M577 24c-279 0-473-224-473-580 0-354 195-576 474-576 218 0 287 134 324 193h14v-551h180V0H922v-173h-20C865-111 790 24 577 24zm27-161c203 0 314-172 314-421 0-247-108-413-314-413-212 0-317 181-317 413 0 235 108 421 317 421" id="K"/><path d="M628 24c-324 0-524-230-524-574 0-343 198-582 503-582 237 0 487 146 487 559v75H286c9 234 145 362 343 362 132 0 231-58 273-172l174 48C1024-91 857 24 628 24zM287-650h624c-17-190-120-322-304-322-192 0-309 151-320 322" id="L"/><g id="a"><use transform="matrix(0.010416666666666668,0,0,0.010416666666666668,0,0)" xlink:href="#C"/><use transform="matrix(0.010416666666666668,0,0,0.010416666666666668,19.270833333333336,0)" xlink:href="#D"/><use transform="matrix(0.010416666666666668,0,0,0.010416666666666668,32.0625,0)" xlink:href="#E"/><use transform="matrix(0.010416666666666668,0,0,0.010416666666666668,44.66666666666667,0)" xlink:href="#F"/><use transform="matrix(0.010416666666666668,0,0,0.010416666666666668,49.833333333333336,0)" xlink:href="#G"/><use transform="matrix(0.010416666666666668,0,0,0.010416666666666668,56.60416666666667,0)" xlink:href="#D"/><use transform="matrix(0.010416666666666668,0,0,0.010416666666666668,69.39583333333334,0)" xlink:href="#H"/><use transform="matrix(0.010416666666666668,0,0,0.010416666666666668,77.76041666666667,0)" xlink:href="#F"/><use transform="matrix(0.010416666666666668,0,0,0.010416666666666668,82.92708333333334,0)" xlink:href="#E"/><use transform="matrix(0.010416666666666668,0,0,0.010416666666666668,95.53125000000001,0)" xlink:href="#I"/><use transform="matrix(0.010416666666666668,0,0,0.010416666666666668,108.61458333333334,0)" xlink:href="#J"/><use transform="matrix(0.010416666666666668,0,0,0.010416666666666668,122.34375000000001,0)" xlink:href="#F"/><use transform="matrix(0.010416666666666668,0,0,0.010416666666666668,127.51041666666669,0)" xlink:href="#K"/><use transform="matrix(0.010416666666666668,0,0,0.010416666666666668,140.57291666666669,0)" xlink:href="#L"/></g><path d="M52 0l541-1490h220L1361 0h-200l-149-416H398L254 0H52zm404-582h497c-103-290-145-390-251-756-108 377-145 460-246 756" id="M"/><path d="M409 0L70-1118h191c89 329 165 560 243 925 75-353 154-601 240-925h192c85 325 161 564 235 922 77-354 157-598 244-922h191L1267 0h-179c-86-307-176-590-250-913C763-588 675-308 588 0H409" id="N"/><path d="M471 26C259 26 90-98 90-318c0-256 228-303 435-329 202-27 287-16 287-108 0-139-79-219-234-219-161 0-248 86-283 164l-173-57c86-203 278-265 451-265 150 0 419 46 419 395V0H815v-152h-12C765-73 660 26 471 26zm31-159c199 0 310-134 310-271v-155c-30 35-226 55-295 64-131 17-246 59-246 186 0 116 97 176 231 176" id="O"/><path d="M783 20c-382 0-661-292-661-764 0-473 279-766 661-766 302 0 548 182 601 489h-190c-42-204-217-313-411-313-268 0-476 208-476 590 0 381 209 588 476 588 195 0 369-110 411-313h190c-52 303-296 489-601 489" id="P"/><path d="M678-1118v154H420V0H240v-964H20v-154h220v-149c0-194 155-293 318-293 85 0 141 18 168 30l-50 154c-19-6-47-17-97-17-111 0-159 58-159 166v109h258" id="Q"/><path d="M158 0v-1118h175l1 205c55-151 181-225 313-225 147 0 245 90 285 228 53-141 190-228 352-228 194 0 352 125 352 384V0h-181v-749c0-161-105-225-225-225-151 0-243 103-243 244V0H807v-767c0-124-93-207-219-207-131 0-250 92-250 270V0H158" id="R"/><g id="b"><use transform="matrix(0.010416666666666668,0,0,0.010416666666666668,0,0)" xlink:href="#M"/><use transform="matrix(0.010416666666666668,0,0,0.010416666666666668,13.270833333333334,0)" xlink:href="#N"/><use transform="matrix(0.010416666666666668,0,0,0.010416666666666668,30.72916666666667,0)" xlink:href="#O"/><use transform="matrix(0.010416666666666668,0,0,0.010416666666666668,42.708333333333336,0)" xlink:href="#F"/><use transform="matrix(0.010416666666666668,0,0,0.010416666666666668,47.87500000000001,0)" xlink:href="#G"/><use transform="matrix(0.010416666666666668,0,0,0.010416666666666668,54.85416666666667,0)" xlink:href="#F"/><use transform="matrix(0.010416666666666668,0,0,0.010416666666666668,60.02083333333334,0)" xlink:href="#E"/><use transform="matrix(0.010416666666666668,0,0,0.010416666666666668,72.625,0)" xlink:href="#I"/><use transform="matrix(0.010416666666666668,0,0,0.010416666666666668,85.70833333333333,0)" xlink:href="#P"/><use transform="matrix(0.010416666666666668,0,0,0.010416666666666668,101.29166666666666,0)" xlink:href="#D"/><use transform="matrix(0.010416666666666668,0,0,0.010416666666666668,114.08333333333333,0)" xlink:href="#E"/><use transform="matrix(0.010416666666666668,0,0,0.010416666666666668,126.6875,0)" xlink:href="#Q"/><use transform="matrix(0.010416666666666668,0,0,0.010416666666666668,134.58333333333334,0)" xlink:href="#F"/><use transform="matrix(0.010416666666666668,0,0,0.010416666666666668,139.75,0)" xlink:href="#H"/><use transform="matrix(0.010416666666666668,0,0,0.010416666666666668,148.11458333333334,0)" xlink:href="#R"/><use transform="matrix(0.010416666666666668,0,0,0.010416666666666668,166.80208333333334,0)" xlink:href="#O"/><use transform="matrix(0.010416666666666668,0,0,0.010416666666666668,178.78124999999997,0)" xlink:href="#G"/><use transform="matrix(0.010416666666666668,0,0,0.010416666666666668,185.76041666666666,0)" xlink:href="#F"/><use transform="matrix(0.010416666666666668,0,0,0.010416666666666668,190.92708333333331,0)" xlink:href="#D"/><use transform="matrix(0.010416666666666668,0,0,0.010416666666666668,203.71874999999997,0)" xlink:href="#E"/></g><path d="M613 24c-304 0-509-231-509-576 0-350 205-580 509-580 216 0 392 114 453 309l-173 49c-33-115-133-197-280-197-223 0-326 196-326 419 0 220 103 415 326 415 150 0 252-85 285-206l172 49C1010-95 832 24 613 24" id="S"/><path d="M338-1490V0H158v-1490h180" id="T"/><g id="c"><use transform="matrix(0.010416666666666668,0,0,0.010416666666666668,0,0)" xlink:href="#J"/><use transform="matrix(0.010416666666666668,0,0,0.010416666666666668,13.729166666666668,0)" xlink:href="#F"/><use transform="matrix(0.010416666666666668,0,0,0.010416666666666668,18.895833333333336,0)" xlink:href="#K"/><use transform="matrix(0.010416666666666668,0,0,0.010416666666666668,31.958333333333336,0)" xlink:href="#L"/><use transform="matrix(0.010416666666666668,0,0,0.010416666666666668,44.395833333333336,0)" xlink:href="#P"/><use transform="matrix(0.010416666666666668,0,0,0.010416666666666668,59.97916666666667,0)" xlink:href="#O"/><use transform="matrix(0.010416666666666668,0,0,0.010416666666666668,71.95833333333334,0)" xlink:href="#E"/><use transform="matrix(0.010416666666666668,0,0,0.010416666666666668,84.56250000000001,0)" xlink:href="#S"/><use transform="matrix(0.010416666666666668,0,0,0.010416666666666668,96.75000000000001,0)" xlink:href="#L"/><use transform="matrix(0.010416666666666668,0,0,0.010416666666666668,109.18750000000001,0)" xlink:href="#T"/><use transform="matrix(0.010416666666666668,0,0,0.010416666666666668,114.35416666666669,0)" xlink:href="#L"/><use transform="matrix(0.010416666666666668,0,0,0.010416666666666668,126.79166666666669,0)" xlink:href="#K"/></g><path d="M158 418v-1536h174v179h20c37-59 106-193 324-193 279 0 474 222 474 576 0 356-194 580-473 580-213 0-288-135-325-197h-14v591H158zm492-555c209 0 317-186 317-421 0-232-105-413-317-413-206 0-314 166-314 413 0 249 111 421 314 421" id="U"/><path d="M538 24C308 24 148-78 108-271l171-41c32 123 123 178 257 178 156 0 256-77 256-169 0-77-54-128-164-154l-186-44c-203-48-300-148-300-305 0-192 176-326 414-326 230 0 351 112 402 269l-163 42c-31-80-94-158-238-158-133 0-233 69-233 162 0 83 57 129 188 160l169 40c203 48 298 149 298 302 0 196-179 339-441 339" id="V"/><g id="d"><use transform="matrix(0.010416666666666668,0,0,0.010416666666666668,0,0)" xlink:href="#G"/><use transform="matrix(0.010416666666666668,0,0,0.010416666666666668,7.083333333333336,0)" xlink:href="#O"/><use transform="matrix(0.010416666666666668,0,0,0.010416666666666668,19.062500000000004,0)" xlink:href="#U"/><use transform="matrix(0.010416666666666668,0,0,0.010416666666666668,32.12500000000001,0)" xlink:href="#V"/></g><g id="e"><use transform="matrix(0.010416666666666668,0,0,0.010416666666666668,0,0)" xlink:href="#S"/><use transform="matrix(0.010416666666666668,0,0,0.010416666666666668,12.395833333333334,0)" xlink:href="#O"/><use transform="matrix(0.010416666666666668,0,0,0.010416666666666668,24.375000000000004,0)" xlink:href="#E"/><use transform="matrix(0.010416666666666668,0,0,0.010416666666666668,36.97916666666667,0)" xlink:href="#S"/><use transform="matrix(0.010416666666666668,0,0,0.010416666666666668,49.16666666666667,0)" xlink:href="#L"/><use transform="matrix(0.010416666666666668,0,0,0.010416666666666668,61.60416666666667,0)" xlink:href="#T"/></g><path d="M226 279v-1860h398v153H398V126h226v153H226" id="W"/><g id="f"><use transform="matrix(0.010416666666666668,0,0,0.010416666666666668,0,0)" xlink:href="#W"/><use transform="matrix(0.010416666666666668,0,0,0.010416666666666668,7.781250000000001,0)" xlink:href="#H"/><use transform="matrix(0.010416666666666668,0,0,0.010416666666666668,16.145833333333336,0)" xlink:href="#F"/><use transform="matrix(0.010416666666666668,0,0,0.010416666666666668,21.312500000000004,0)" xlink:href="#K"/><use transform="matrix(0.010416666666666668,0,0,0.010416666666666668,34.37500000000001,0)" xlink:href="#L"/></g><path d="M140 405l46-156c120 36 205 19 263-150l32-93L54-1118h197c107 313 237 620 324 950 87-331 219-637 326-950h196L606 167c-68 178-176 259-334 259-64 0-113-12-132-21" id="X"/><g id="g"><use transform="matrix(0.010416666666666668,0,0,0.010416666666666668,0,0)" xlink:href="#O"/><use transform="matrix(0.010416666666666668,0,0,0.010416666666666668,11.979166666666668,0)" xlink:href="#T"/><use transform="matrix(0.010416666666666668,0,0,0.010416666666666668,17.145833333333336,0)" xlink:href="#H"/><use transform="matrix(0.010416666666666668,0,0,0.010416666666666668,24.822916666666668,0)" xlink:href="#L"/><use transform="matrix(0.010416666666666668,0,0,0.010416666666666668,37.46875000000001,0)" xlink:href="#O"/><use transform="matrix(0.010416666666666668,0,0,0.010416666666666668,49.44791666666667,0)" xlink:href="#K"/><use transform="matrix(0.010416666666666668,0,0,0.010416666666666668,62.61458333333334,0)" xlink:href="#X"/></g><path d="M123 279V126h226v-1554H123v-153h398V279H123" id="Y"/><g id="h"><use transform="matrix(0.010416666666666668,0,0,0.010416666666666668,0,0)" xlink:href="#V"/><use transform="matrix(0.010416666666666668,0,0,0.010416666666666668,11.260416666666668,0)" xlink:href="#G"/><use transform="matrix(0.010416666666666668,0,0,0.010416666666666668,18.34375,0)" xlink:href="#O"/><use transform="matrix(0.010416666666666668,0,0,0.010416666666666668,30.32291666666667,0)" xlink:href="#H"/><use transform="matrix(0.010416666666666668,0,0,0.010416666666666668,38.6875,0)" xlink:href="#G"/><use transform="matrix(0.010416666666666668,0,0,0.010416666666666668,45.45833333333333,0)" xlink:href="#L"/><use transform="matrix(0.010416666666666668,0,0,0.010416666666666668,57.89583333333333,0)" xlink:href="#K"/><use transform="matrix(0.010416666666666668,0,0,0.010416666666666668,70.95833333333333,0)" xlink:href="#Y"/></g><path d="M692-1560L212 224H46l480-1784h166" id="Z"/><use transform="matrix(0.010416666666666668,0,0,0.010416666666666668,0,0)" xlink:href="#Z" id="i"/><g id="j"><use transform="matrix(0.010416666666666668,0,0,0.010416666666666668,0,0)" xlink:href="#K"/><use transform="matrix(0.010416666666666668,0,0,0.010416666666666668,13.062500000000002,0)" xlink:href="#F"/><use transform="matrix(0.010416666666666668,0,0,0.010416666666666668,18.229166666666668,0)" xlink:href="#V"/><use transform="matrix(0.010416666666666668,0,0,0.010416666666666668,29.489583333333336,0)" xlink:href="#U"/><use transform="matrix(0.010416666666666668,0,0,0.010416666666666668,42.552083333333336,0)" xlink:href="#T"/><use transform="matrix(0.010416666666666668,0,0,0.010416666666666668,47.71874999999999,0)" xlink:href="#O"/><use transform="matrix(0.010416666666666668,0,0,0.010416666666666668,59.38541666666667,0)" xlink:href="#X"/></g><g id="k"><use transform="matrix(0.010416666666666668,0,0,0.010416666666666668,0,0)" xlink:href="#L"/><use transform="matrix(0.010416666666666668,0,0,0.010416666666666668,12.437500000000002,0)" xlink:href="#H"/><use transform="matrix(0.010416666666666668,0,0,0.010416666666666668,20.802083333333336,0)" xlink:href="#H"/><use transform="matrix(0.010416666666666668,0,0,0.010416666666666668,28.47916666666667,0)" xlink:href="#D"/><use transform="matrix(0.010416666666666668,0,0,0.010416666666666668,41.27083333333334,0)" xlink:href="#H"/></g><g id="l"><use transform="matrix(0.010416666666666668,0,0,0.010416666666666668,0,0)" xlink:href="#R"/><use transform="matrix(0.010416666666666668,0,0,0.010416666666666668,18.687500000000004,0)" xlink:href="#L"/><use transform="matrix(0.010416666666666668,0,0,0.010416666666666668,31.125000000000007,0)" xlink:href="#V"/><use transform="matrix(0.010416666666666668,0,0,0.010416666666666668,42.38541666666667,0)" xlink:href="#V"/><use transform="matrix(0.010416666666666668,0,0,0.010416666666666668,53.64583333333334,0)" xlink:href="#O"/><use transform="matrix(0.010416666666666668,0,0,0.010416666666666668,65.62500000000001,0)" xlink:href="#I"/><use transform="matrix(0.010416666666666668,0,0,0.010416666666666668,78.70833333333334,0)" xlink:href="#L"/></g><path d="M338-670V0H158v-1490h180v566c73-149 190-208 336-208 226 0 379 139 379 422V0H872v-695c0-172-96-275-252-275-161 0-282 109-282 300" id="aa"/><g id="m"><use transform="matrix(0.010416666666666668,0,0,0.010416666666666668,0,0)" xlink:href="#W"/><use transform="matrix(0.010416666666666668,0,0,0.010416666666666668,7.781250000000001,0)" xlink:href="#V"/><use transform="matrix(0.010416666666666668,0,0,0.010416666666666668,19.041666666666668,0)" xlink:href="#L"/><use transform="matrix(0.010416666666666668,0,0,0.010416666666666668,31.6875,0)" xlink:href="#O"/><use transform="matrix(0.010416666666666668,0,0,0.010416666666666668,43.66666666666667,0)" xlink:href="#H"/><use transform="matrix(0.010416666666666668,0,0,0.010416666666666668,51.34375000000001,0)" xlink:href="#S"/><use transform="matrix(0.010416666666666668,0,0,0.010416666666666668,63.53125000000001,0)" xlink:href="#aa"/><use transform="matrix(0.010416666666666668,0,0,0.010416666666666668,76.14583333333334,0)" xlink:href="#F"/><use transform="matrix(0.010416666666666668,0,0,0.010416666666666668,81.31250000000001,0)" xlink:href="#E"/><use transform="matrix(0.010416666666666668,0,0,0.010416666666666668,93.91666666666667,0)" xlink:href="#I"/></g><g id="n"><use transform="matrix(0.010416666666666668,0,0,0.010416666666666668,0,0)" xlink:href="#Q"/><use transform="matrix(0.010416666666666668,0,0,0.010416666666666668,7.270833333333334,0)" xlink:href="#D"/><use transform="matrix(0.010416666666666668,0,0,0.010416666666666668,20.0625,0)" xlink:href="#H"/></g><path d="M481 0L54-1118h197c107 314 236 620 325 951 87-331 217-637 324-951h197L670 0H481" id="ab"/><g id="o"><use transform="matrix(0.010416666666666668,0,0,0.010416666666666668,0,0)" xlink:href="#K"/><use transform="matrix(0.010416666666666668,0,0,0.010416666666666668,13.062500000000002,0)" xlink:href="#H"/><use transform="matrix(0.010416666666666668,0,0,0.010416666666666668,21.427083333333336,0)" xlink:href="#F"/><use transform="matrix(0.010416666666666668,0,0,0.010416666666666668,26.593750000000004,0)" xlink:href="#ab"/><use transform="matrix(0.010416666666666668,0,0,0.010416666666666668,38.16666666666667,0)" xlink:href="#L"/><use transform="matrix(0.010416666666666668,0,0,0.010416666666666668,50.60416666666667,0)" xlink:href="#H"/><use transform="matrix(0.010416666666666668,0,0,0.010416666666666668,58.63541666666667,0)" xlink:href="#Y"/></g><use transform="matrix(0.010416666666666668,0,0,0.010416666666666668,0,0)" xlink:href="#Z" id="p"/><g id="q"><use transform="matrix(0.010416666666666668,0,0,0.010416666666666668,0,0)" xlink:href="#S"/><use transform="matrix(0.010416666666666668,0,0,0.010416666666666668,12.187500000000002,0)" xlink:href="#D"/><use transform="matrix(0.010416666666666668,0,0,0.010416666666666668,24.979166666666668,0)" xlink:href="#E"/><use transform="matrix(0.010416666666666668,0,0,0.010416666666666668,37.58333333333334,0)" xlink:href="#Q"/><use transform="matrix(0.010416666666666668,0,0,0.010416666666666668,45.47916666666668,0)" xlink:href="#F"/><use transform="matrix(0.010416666666666668,0,0,0.010416666666666668,50.645833333333336,0)" xlink:href="#H"/><use transform="matrix(0.010416666666666668,0,0,0.010416666666666668,59.010416666666686,0)" xlink:href="#R"/><use transform="matrix(0.010416666666666668,0,0,0.010416666666666668,77.69791666666669,0)" xlink:href="#O"/><use transform="matrix(0.010416666666666668,0,0,0.010416666666666668,89.67708333333336,0)" xlink:href="#G"/><use transform="matrix(0.010416666666666668,0,0,0.010416666666666668,96.65625000000003,0)" xlink:href="#F"/><use transform="matrix(0.010416666666666668,0,0,0.010416666666666668,101.8229166666667,0)" xlink:href="#D"/><use transform="matrix(0.010416666666666668,0,0,0.010416666666666668,114.61458333333337,0)" xlink:href="#E"/></g><g id="r"><use transform="matrix(0.010416666666666668,0,0,0.010416666666666668,0,0)" xlink:href="#U"/><use transform="matrix(0.010416666666666668,0,0,0.010416666666666668,13.062500000000002,0)" xlink:href="#H"/><use transform="matrix(0.010416666666666668,0,0,0.010416666666666668,20.739583333333336,0)" xlink:href="#D"/><use transform="matrix(0.010416666666666668,0,0,0.010416666666666668,33.53125,0)" xlink:href="#R"/><use transform="matrix(0.010416666666666668,0,0,0.010416666666666668,52.21874999999999,0)" xlink:href="#U"/><use transform="matrix(0.010416666666666668,0,0,0.010416666666666668,65.28125,0)" xlink:href="#G"/></g><g id="s"><use transform="matrix(0.010416666666666668,0,0,0.010416666666666668,0,0)" xlink:href="#W"/><use transform="matrix(0.010416666666666668,0,0,0.010416666666666668,7.541666666666668,0)" xlink:href="#K"/><use transform="matrix(0.010416666666666668,0,0,0.010416666666666668,20.60416666666667,0)" xlink:href="#H"/><use transform="matrix(0.010416666666666668,0,0,0.010416666666666668,28.968750000000007,0)" xlink:href="#F"/><use transform="matrix(0.010416666666666668,0,0,0.010416666666666668,34.13541666666667,0)" xlink:href="#ab"/><use transform="matrix(0.010416666666666668,0,0,0.010416666666666668,45.708333333333336,0)" xlink:href="#L"/><use transform="matrix(0.010416666666666668,0,0,0.010416666666666668,58.14583333333334,0)" xlink:href="#H"/></g><g id="t"><use transform="matrix(0.010416666666666668,0,0,0.010416666666666668,0,0)" xlink:href="#O"/><use transform="matrix(0.010416666666666668,0,0,0.010416666666666668,11.979166666666668,0)" xlink:href="#V"/><use transform="matrix(0.010416666666666668,0,0,0.010416666666666668,23.239583333333336,0)" xlink:href="#V"/><use transform="matrix(0.010416666666666668,0,0,0.010416666666666668,34.5,0)" xlink:href="#F"/><use transform="matrix(0.010416666666666668,0,0,0.010416666666666668,39.666666666666664,0)" xlink:href="#I"/><use transform="matrix(0.010416666666666668,0,0,0.010416666666666668,52.74999999999999,0)" xlink:href="#E"/><use transform="matrix(0.010416666666666668,0,0,0.010416666666666668,65.35416666666667,0)" xlink:href="#L"/><use transform="matrix(0.010416666666666668,0,0,0.010416666666666668,77.79166666666667,0)" xlink:href="#K"/><use transform="matrix(0.010416666666666668,0,0,0.010416666666666668,90.85416666666667,0)" xlink:href="#Y"/></g><g id="u"><use transform="matrix(0.010416666666666668,0,0,0.010416666666666668,0,0)" xlink:href="#X"/><use transform="matrix(0.010416666666666668,0,0,0.010416666666666668,11.572916666666668,0)" xlink:href="#L"/><use transform="matrix(0.010416666666666668,0,0,0.010416666666666668,24.010416666666668,0)" xlink:href="#V"/></g><path d="M537 14c-226 0-379-139-379-422v-710h180v695c0 172 97 275 253 275 160 0 281-109 281-300v-670h181V0H879v-209C806-46 684 14 537 14" id="ac"/><g id="v"><use transform="matrix(0.010416666666666668,0,0,0.010416666666666668,0,0)" xlink:href="#H"/><use transform="matrix(0.010416666666666668,0,0,0.010416666666666668,7.677083333333336,0)" xlink:href="#L"/><use transform="matrix(0.010416666666666668,0,0,0.010416666666666668,20.114583333333336,0)" xlink:href="#G"/><use transform="matrix(0.010416666666666668,0,0,0.010416666666666668,27.093750000000004,0)" xlink:href="#ac"/><use transform="matrix(0.010416666666666668,0,0,0.010416666666666668,39.708333333333336,0)" xlink:href="#H"/><use transform="matrix(0.010416666666666668,0,0,0.010416666666666668,48.07291666666667,0)" xlink:href="#E"/></g><g id="w"><use transform="matrix(0.010416666666666668,0,0,0.010416666666666668,0,0)" xlink:href="#G"/><use transform="matrix(0.010416666666666668,0,0,0.010416666666666668,6.770833333333336,0)" xlink:href="#D"/></g><g id="x"><use transform="matrix(0.010416666666666668,0,0,0.010416666666666668,0,0)" xlink:href="#aa"/><use transform="matrix(0.010416666666666668,0,0,0.010416666666666668,12.614583333333334,0)" xlink:href="#D"/><use transform="matrix(0.010416666666666668,0,0,0.010416666666666668,25.406249999999996,0)" xlink:href="#R"/><use transform="matrix(0.010416666666666668,0,0,0.010416666666666668,44.09374999999999,0)" xlink:href="#L"/></g><g id="y"><use transform="matrix(0.010416666666666668,0,0,0.010416666666666668,0,0)" xlink:href="#V"/><use transform="matrix(0.010416666666666668,0,0,0.010416666666666668,11.260416666666668,0)" xlink:href="#S"/><use transform="matrix(0.010416666666666668,0,0,0.010416666666666668,23.447916666666668,0)" xlink:href="#H"/><use transform="matrix(0.010416666666666668,0,0,0.010416666666666668,31.125000000000007,0)" xlink:href="#L"/><use transform="matrix(0.010416666666666668,0,0,0.010416666666666668,43.56250000000001,0)" xlink:href="#L"/><use transform="matrix(0.010416666666666668,0,0,0.010416666666666668,56.00000000000001,0)" xlink:href="#E"/></g><g id="z"><use transform="matrix(0.010416666666666668,0,0,0.010416666666666668,0,0)" xlink:href="#E"/><use transform="matrix(0.010416666666666668,0,0,0.010416666666666668,12.604166666666668,0)" xlink:href="#D"/><use transform="matrix(0.010416666666666668,0,0,0.010416666666666668,25.395833333333336,0)" xlink:href="#G"/><use transform="matrix(0.010416666666666668,0,0,0.010416666666666668,32.375,0)" xlink:href="#F"/><use transform="matrix(0.010416666666666668,0,0,0.010416666666666668,37.541666666666664,0)" xlink:href="#Q"/><use transform="matrix(0.010416666666666668,0,0,0.010416666666666668,45.43749999999999,0)" xlink:href="#X"/></g><g id="A"><use transform="matrix(0.010416666666666668,0,0,0.010416666666666668,0,0)" xlink:href="#K"/><use transform="matrix(0.010416666666666668,0,0,0.010416666666666668,13.062500000000002,0)" xlink:href="#H"/><use transform="matrix(0.010416666666666668,0,0,0.010416666666666668,21.427083333333336,0)" xlink:href="#F"/><use transform="matrix(0.010416666666666668,0,0,0.010416666666666668,26.593750000000004,0)" xlink:href="#ab"/><use transform="matrix(0.010416666666666668,0,0,0.010416666666666668,38.16666666666667,0)" xlink:href="#L"/><use transform="matrix(0.010416666666666668,0,0,0.010416666666666668,50.60416666666667,0)" xlink:href="#H"/></g><g id="B"><use transform="matrix(0.010416666666666668,0,0,0.010416666666666668,0,0)" xlink:href="#O"/><use transform="matrix(0.010416666666666668,0,0,0.010416666666666668,11.979166666666668,0)" xlink:href="#E"/><use transform="matrix(0.010416666666666668,0,0,0.010416666666666668,24.583333333333336,0)" xlink:href="#K"/></g></defs></g></svg>