<svg xmlns="http://www.w3.org/2000/svg" xmlns:xlink="http://www.w3.org/1999/xlink" xmlns:lucid="lucid" width="5889.03" height="1639.82"><g transform="translate(-39.5 320.5)" lucid:page-tab-id="L3QDZbwaj31R"><path d="M0-500h6000v2000H0z" fill="#fff"/><path d="M40-308a12 12 0 0 1 12-12h28v560H40zM40 240h40v770.1H40zM40 1010.1h40v308.72H52a12 12 0 0 1-12-12z" stroke="#3a414a" fill="#fff"/><path d="M80-320h5836.03a12 12 0 0 1 12 12v548H80zM80 240h5848.03v770.1H80zM80 1010.1h5848.03v296.72a12 12 0 0 1-12 12H80z" stroke="#3a414a" fill="none"/><use xlink:href="#a" transform="matrix(-1.8369701987210297e-16,-1,1,-1.8369701987210297e-16,40.00000000000004,240) translate(238.1295654296875 26.589501953125)"/><use xlink:href="#b" transform="matrix(-1.8369701987210297e-16,-1,1,-1.8369701987210297e-16,40.00000000000023,1010.0864572616597) translate(356.139609375 26.089501953125)"/><use xlink:href="#c" transform="matrix(-1.8369701987210297e-16,-1,1,-1.8369701987210297e-16,40,1318.8169260116597) translate(130.5792919921875 26.089501953125)"/><path d="M321.5 120H480v189.56" stroke="#000" fill="none"/><path d="M321.5 120.47h-1v-.94h1z" stroke="#000" stroke-width=".05"/><path d="M490 300.68L480 318l-10-17.32M480 318v-8.5M2080 21.5v311.04" stroke="#000" fill="none"/><path d="M2080.47 21.5h-.94v-1h.94z" stroke="#000" stroke-width=".05"/><path d="M2090 323.66l-10 17.32-10-17.32m10 17.32v-8.5M3730.36 161v170.54" stroke="#000" fill="none"/><path d="M3730.83 161h-.95v-.5h.95z" stroke="#000" stroke-width=".05"/><path d="M3740.36 322.66l-10 17.32-10-17.32m10 17.32v-8.5" stroke="#000" fill="none"/><path d="M3970.83 359.52h59.23v.96h-60.18v-560H3361v-.95h609.83z" stroke="#000" stroke-width=".05"/><path d="M3361-199.53h-.5v-.94h.5z"/><path stroke="#000" stroke-width=".05"/><path d="M4039.45 360l-18.03 10.4-.48-.8 15.8-9.13H4030v-.95h6.73l-15.8-9.1.5-.83zM3730.83-19.47v89.03h-.95v-88.08h-276.22v-.95zm-792.3-.05v-.96h316.18v.96z" stroke="#000" stroke-width=".05"/><path d="M2938.53-19.52h-.55l.04-.48-.04-.48h.55z"/><path stroke="#000" stroke-width=".05"/><path d="M3740.77 60.92l-10.4 18.03-10.43-18.03.83-.48 9.1 15.8V69.5h.96v6.73l9.1-15.8z" stroke="#000" stroke-width=".05"/><use xlink:href="#d" transform="matrix(1,0,0,1,3254.7101446016854,-29.142794650479296) translate(0 16.216875)"/><use xlink:href="#e" transform="matrix(1,0,0,1,3254.7101446016854,-29.142794650479296) translate(72.256640625 16.216875)"/><use xlink:href="#f" transform="matrix(1,0,0,1,3254.7101446016854,-29.142794650479296) translate(130.168212890625 16.216875)"/><path d="M2920.47-39.02h-.94v-72.45h.94zm269.1-160.5h-269.1v67.8h-.94v-68.75h270.03z" stroke="#000" stroke-width=".05"/><path d="M2920.47-37.98l-.47-.04-.47.04v-1.05h.94z"/><path stroke="#000" stroke-width=".05"/><path d="M3198.95-200l-18.03 10.4-.48-.8 15.8-9.13h-6.74v-.94h6.73l-15.8-9.12.5-.8z" stroke="#000" stroke-width=".05"/><use xlink:href="#g" transform="matrix(1,0,0,1,2852.1204443359375,-131.7273730468749) translate(0 16.216875)"/><use xlink:href="#f" transform="matrix(1,0,0,1,2852.1204443359375,-131.7273730468749) translate(66.97634765625 16.216875)"/><path d="M561.5 360h248.06" stroke="#000" fill="none"/><path d="M561.5 360.48h-1v-.96h1z" stroke="#000" stroke-width=".05"/><path d="M800.68 350L818 360l-17.32 10M818 360h-8.5M1052.74 360h199.1" stroke="#000" fill="none"/><path d="M1052.75 360.48h-1v-.96h1z" stroke="#000" stroke-width=".05"/><path d="M1242.97 350l17.32 10-17.33 10m17.32-10h-8.5" stroke="#000" fill="none"/><path d="M1369.8 360.48h-70.97v-.96h70.96zm291.78 0h-130.9v-.96h130.9z" stroke="#000" stroke-width=".05"/><path d="M1298.84 360.48h-1.05l.03-.48-.04-.48h1.04z"/><path stroke="#000" stroke-width=".05"/><path d="M1670.98 360l-18.04 10.4-.47-.8 15.8-9.13h-6.74v-.95h6.73l-15.8-9.1.48-.83z" stroke="#000" stroke-width=".05"/><use xlink:href="#h" transform="matrix(1,0,0,1,1369.792183108177,349.872626953125) translate(0 16.216875)"/><use xlink:href="#i" transform="matrix(1,0,0,1,1369.792183108177,349.872626953125) translate(78.901962890625 16.216875)"/><use xlink:href="#j" transform="matrix(1,0,0,1,1369.792183108177,349.872626953125) translate(109.014345703125 16.216875)"/><path d="M1280.28 439.52h36.35v.96h-37.3v-61.46h.95zm800.2.96H1447.4v-.96h632.13v-52.06h.94z" stroke="#000" stroke-width=".05"/><path d="M1279.8 378.02l.48-.04v1.05h-.95v-1.05z"/><path stroke="#000" stroke-width=".05"/><path d="M2090.4 396.1l-.8.47-9.13-15.78v6.72h-.94v-6.73l-9.12 15.77-.8-.47 10.4-18.03z" stroke="#000" stroke-width=".05"/><use xlink:href="#h" transform="matrix(1,0,0,1,1316.6248400975012,429.872626953125) translate(0 16.216875)"/><use xlink:href="#j" transform="matrix(1,0,0,1,1316.6248400975012,429.872626953125) translate(78.901962890625 16.216875)"/><path d="M1752.03 318.5V-20h237.53" stroke="#000" fill="none"/><path d="M1752.5 319.5h-.95v-1h.95z" stroke="#000" stroke-width=".05"/><path d="M1980.68-30L1998-20l-17.32 10M1998-20h-8.5M2644 319V140h248.54" stroke="#000" fill="none"/><path d="M2644.5 319.5h-.96v-.5h.95z" stroke="#000" stroke-width=".05"/><path d="M2883.66 130l17.32 10-17.32 10m17.32-10h-8.5M2401.5 360h152.57" stroke="#000" fill="none"/><path d="M2401.5 360.48h-1v-.96h1z" stroke="#000" stroke-width=".05"/><path d="M2545.2 350l17.3 10-17.3 10m17.3-10h-8.5M3648.86 394.82H2920V167.46" stroke="#000" fill="none"/><path d="M3649.86 395.3h-1.02v-.96h1z" stroke="#000" stroke-width=".05"/><path d="M2910 176.34l10-17.32 10 17.32m-10-17.32v8.5M4201.5 366.67h176.7" stroke="#000" fill="none"/><path d="M4201.5 367.14h-1v-.95h1z" stroke="#000" stroke-width=".05"/><path d="M4369.33 356.67l17.32 10-17.32 10m17.32-10h-8.5M4550.15 360h158.5v109.56" stroke="#000" fill="none"/><path d="M4550.16 360.48h-1v-.96h1z" stroke="#000" stroke-width=".05"/><path d="M4718.65 460.68l-10 17.32-10-17.32m10 17.32v-8.5M4789.65 520H4940v558.64" stroke="#000" fill="none"/><path d="M4789.66 520.48h-.5v-.96h.5z" stroke="#000" stroke-width=".05"/><path d="M4950 1069.77l-10 17.32-10-17.33m10 17.32v-8.5M5021.5 1129.1h170.54" stroke="#000" fill="none"/><path d="M5021.5 1129.56h-1v-.95h1z" stroke="#000" stroke-width=".05"/><path d="M5183.16 1119.1l17.32 10-17.32 10m17.32-10h-8.5" stroke="#000" fill="none"/><path d="M5621.28 1136.23h-386.03v-.95h386.03zm139.2 0h-11.76v-.95h10.8V769.94h.95z" stroke="#000" stroke-width=".05"/><path d="M5235.26 1136.23h-1.7l.95-.95h.76z"/><path stroke="#000" stroke-width=".05"/><path d="M5770.4 778.58l-.8.48-9.13-15.8V770h-.95v-6.73l-9.1 15.8-.83-.5 10.4-18.02z" stroke="#000" stroke-width=".05"/><use xlink:href="#k" transform="matrix(1,0,0,1,5621.27695543495,1125.6257508814515) translate(0 16.216875)"/><use xlink:href="#l" transform="matrix(1,0,0,1,5621.27695543495,1125.6257508814515) translate(58.655390625 16.216875)"/><path d="M5220.48 1110.57h-.95v-22.1h.95zm0-42.34h-.95v-277.8h.95z" stroke="#000" stroke-width=".05"/><path d="M5220.48 1111.1l-.48-.03-.48.04v-.54h.95z"/><path stroke="#000" stroke-width=".05"/><path d="M5230.4 799.08l-.8.48-9.13-15.8v6.74h-.95v-6.73l-9.1 15.8-.83-.5 10.4-18.02z" stroke="#000" stroke-width=".05"/><use xlink:href="#m" transform="matrix(1,0,0,1,5103.35947265625,1068.2255796431343) translate(0 16.216875)"/><use xlink:href="#n" transform="matrix(1,0,0,1,5103.35947265625,1068.2255796431343) translate(33.463652343750006 16.216875)"/><use xlink:href="#o" transform="matrix(1,0,0,1,5103.35947265625,1068.2255796431343) translate(93.01816406250002 16.216875)"/><use xlink:href="#p" transform="matrix(1,0,0,1,5103.35947265625,1068.2255796431343) translate(151.73894531250002 16.216875)"/><use xlink:href="#q" transform="matrix(1,0,0,1,5103.35947265625,1068.2255796431343) translate(162.47935546875001 16.216875)"/><path d="M260-40c0 11.05-8.95 20-20 20s-20-8.95-20-20 8.95-20 20-20 20 8.95 20 20z" stroke="#000"/><path d="M240-18.5v88.06" stroke="#3a414a" fill="none"/><path d="M239.98-19.5l.5-.02v1.03h-.95v-1.06z" stroke="#3a414a" stroke-width=".05" fill="#3a414a"/><path d="M250 60.68L240 78l-10-17.32M240 78v-8.5" stroke="#3a414a" fill="none"/><path d="M5780 740c0 11.05-8.95 20-20 20s-20-8.95-20-20 8.95-20 20-20 20 8.95 20 20z" stroke="#000" fill="#fff"/><path d="M5772 740c0 6.63-5.37 12-12 12s-12-5.37-12-12 5.37-12 12-12 12 5.37 12 12z" stroke="#000"/><path d="M836 320c-8.84 0-16 7.16-16 16v48c0 8.84 7.16 16 16 16h199.24c8.84 0 16-7.16 16-16v-48c0-8.84-7.16-16-16-16z" stroke="#000" fill="#fff"/><use xlink:href="#r" transform="matrix(1,0,0,1,828,328) translate(51.03927951388889 23.95095486111111)"/><use xlink:href="#s" transform="matrix(1,0,0,1,828,328) translate(131.03059895833334 23.95095486111111)"/><use xlink:href="#t" transform="matrix(1,0,0,1,828,328) translate(4.0991753472222285 56.21657986111111)"/><use xlink:href="#u" transform="matrix(1,0,0,1,828,328) translate(121.51453993055557 56.21657986111111)"/><path d="M1275.57 344.24a6 6 0 0 1 8.48 0l11.52 11.52a6 6 0 0 1 0 8.48l-11.52 11.52a6 6 0 0 1-8.48 0l-11.52-11.52a6 6 0 0 1 0-8.48zM176 80c-8.84 0-16 7.16-16 16v48c0 8.84 7.16 16 16 16h128c8.84 0 16-7.16 16-16V96c0-8.84-7.16-16-16-16z" stroke="#000" fill="#fff"/><use xlink:href="#v" transform="matrix(1,0,0,1,168,88) translate(15.964321289062497 25.936654296875002)"/><use xlink:href="#w" transform="matrix(1,0,0,1,168,88) translate(61.9993212890625 25.936654296875002)"/><use xlink:href="#x" transform="matrix(1,0,0,1,168,88) translate(40.66154296875 50.242349609375)"/><path d="M416 320c-8.84 0-16 7.16-16 16v48c0 8.84 7.16 16 16 16h128c8.84 0 16-7.16 16-16v-48c0-8.84-7.16-16-16-16z" stroke="#000" fill="#fff"/><use xlink:href="#y" transform="matrix(1,0,0,1,408,328) translate(4.5740917968749955 25.936654296875002)"/><use xlink:href="#z" transform="matrix(1,0,0,1,408,328) translate(61.235068359375 25.936654296875002)"/><use xlink:href="#A" transform="matrix(1,0,0,1,408,328) translate(99.86458007812502 25.936654296875002)"/><use xlink:href="#B" transform="matrix(1,0,0,1,408,328) translate(115.35398437500001 25.936654296875002)"/><use xlink:href="#C" transform="matrix(1,0,0,1,408,328) translate(15.535195312499994 50.242349609375)"/><use xlink:href="#D" transform="matrix(1,0,0,1,408,328) translate(75.261357421875 50.242349609375)"/><path d="M1688.03 320c-8.84 0-16 7.16-16 16v48c0 8.84 7.16 16 16 16h128c8.83 0 16-7.16 16-16v-48c0-8.84-7.17-16-16-16z" stroke="#000" fill="#fff"/><use xlink:href="#E" transform="matrix(1,0,0,1,1680.027789410602,328) translate(9.388476562499989 25.936654296875002)"/><use xlink:href="#F" transform="matrix(1,0,0,1,1680.027789410602,328) translate(71.93460937500001 25.936654296875002)"/><use xlink:href="#G" transform="matrix(1,0,0,1,1680.027789410602,328) translate(52.6566357421875 50.242349609375)"/><path d="M5156 700c-8.84 0-16 7.16-16 16v48c0 8.84 7.16 16 16 16h128c8.84 0 16-7.16 16-16v-48c0-8.84-7.16-16-16-16z" stroke="#000" fill="#fff"/><use xlink:href="#H" transform="matrix(1,0,0,1,5148,708) translate(11.693496093749985 38.089501953125)"/><use xlink:href="#I" transform="matrix(1,0,0,1,5148,708) translate(52.74246093749999 38.089501953125)"/><path d="M2256 320c-8.84 0-16 7.16-16 16v48c0 8.84 7.16 16 16 16h128c8.84 0 16-7.16 16-16v-48c0-8.84-7.16-16-16-16z" stroke="#000" fill="#fff"/><use xlink:href="#J" transform="matrix(1,0,0,1,2248,328) translate(12.294272460937506 38.089501953125)"/><use xlink:href="#K" transform="matrix(1,0,0,1,2248,328) translate(90.6731103515625 38.089501953125)"/><path d="M5581 740h149.06" stroke="#3a414a" fill="none"/><path d="M5581 740.48h-.5v-.96h.5z" stroke="#3a414a" stroke-width=".05" fill="#3a414a"/><path d="M5721.18 730l17.32 10-17.32 10m17.32-10h-8.5M5301.5 740h108.56" stroke="#3a414a" fill="none"/><path d="M5301.5 740.48h-1v-.96h1z" stroke="#3a414a" stroke-width=".05" fill="#3a414a"/><path d="M5401.18 730l17.32 10-17.32 10m17.32-10h-8.5" stroke="#3a414a" fill="none"/><path d="M2016-60c-8.84 0-16 7.16-16 16V4c0 8.84 7.16 16 16 16h128c8.84 0 16-7.16 16-16v-48c0-8.84-7.16-16-16-16z" stroke="#000" fill="#fff"/><use xlink:href="#L" transform="matrix(1,0,0,1,2008,-52) translate(10.034208984374999 27.96212890625)"/><use xlink:href="#M" transform="matrix(1,0,0,1,2008,-52) translate(86.050810546875 27.96212890625)"/><use xlink:href="#N" transform="matrix(1,0,0,1,2008,-52) translate(59.902734374999994 48.216875)"/><path d="M4876 1089.1c-8.84 0-16 7.15-16 16v48c0 8.82 7.16 16 16 16h128c8.84 0 16-7.18 16-16v-48c0-8.85-7.16-16-16-16z" stroke="#000" fill="#fff"/><use xlink:href="#O" transform="matrix(1,0,0,1,4868,1097.0864572616597) translate(23.079638671874996 25.936654296875002)"/><use xlink:href="#P" transform="matrix(1,0,0,1,4868,1097.0864572616597) translate(90.29302734375 25.936654296875002)"/><use xlink:href="#Q" transform="matrix(1,0,0,1,4868,1097.0864572616597) translate(41.997963867187494 50.242349609375)"/><path d="M5215.76 1113.33a6 6 0 0 1 8.48 0l11.52 11.5a6 6 0 0 1 0 8.5l-11.52 11.5a6 6 0 0 1-8.48 0l-11.52-11.5a6 6 0 0 1 0-8.5zM4644.65 480c-8.84 0-16 7.16-16 16v48c0 8.84 7.16 16 16 16h128c8.84 0 16-7.16 16-16v-48c0-8.84-7.16-16-16-16z" stroke="#000" fill="#fff"/><g><use xlink:href="#R" transform="matrix(1,0,0,1,4636.648452103191,488) translate(31.866503906249996 16.216875)"/><use xlink:href="#S" transform="matrix(1,0,0,1,4636.648452103191,488) translate(2.060639648437487 40.5225703125)"/><use xlink:href="#T" transform="matrix(1,0,0,1,4636.648452103191,488) translate(66.7728369140625 40.5225703125)"/><use xlink:href="#U" transform="matrix(1,0,0,1,4636.648452103191,488) translate(86.8314111328125 40.5225703125)"/><use xlink:href="#V" transform="matrix(1,0,0,1,4636.648452103191,488) translate(44.576806640624994 64.828265625)"/></g><path d="M4404.65 320c-8.84 0-16 7.16-16 16v48c0 8.84 7.16 16 16 16h128c8.84 0 16-7.16 16-16v-48c0-8.84-7.16-16-16-16z" stroke="#000" fill="#fff"/><g><use xlink:href="#E" transform="matrix(1,0,0,1,4396.648452103191,328) translate(8.064316406249986 16.216875)"/><use xlink:href="#W" transform="matrix(1,0,0,1,4396.648452103191,328) translate(70.61044921875 16.216875)"/><use xlink:href="#X" transform="matrix(1,0,0,1,4396.648452103191,328) translate(27.30142089843749 40.5225703125)"/><use xlink:href="#Y" transform="matrix(1,0,0,1,4396.648452103191,328) translate(54.054360351562494 40.5225703125)"/><use xlink:href="#Z" transform="matrix(1,0,0,1,4396.648452103191,328) translate(45.083583984375 64.828265625)"/></g><path d="M3666.36 341.48c-8.84 0-16 7.17-16 16v48c0 8.84 7.16 16 16 16h128c8.83 0 16-7.16 16-16v-48c0-8.83-7.17-16-16-16z" stroke="#000" fill="#fff"/><g><use xlink:href="#aa" transform="matrix(1,0,0,1,3658.3550319643014,349.4822197439353) translate(0.9898681640625 25.936654296875002)"/><use xlink:href="#ab" transform="matrix(1,0,0,1,3658.3550319643014,349.4822197439353) translate(97.1549560546875 25.936654296875002)"/><use xlink:href="#ac" transform="matrix(1,0,0,1,3658.3550319643014,349.4822197439353) translate(14.636074218749982 50.242349609375)"/><use xlink:href="#ad" transform="matrix(1,0,0,1,3658.3550319643014,349.4822197439353) translate(64.12042968749999 50.242349609375)"/><use xlink:href="#ae" transform="matrix(1,0,0,1,3658.3550319643014,349.4822197439353) translate(98.36876953125001 50.242349609375)"/></g><path d="M4056 320c-8.84 0-16 7.16-16 16v48c0 8.84 7.16 16 16 16h128c8.84 0 16-7.16 16-16v-48c0-8.84-7.16-16-16-16z" stroke="#000" fill="#fff"/><g><use xlink:href="#af" transform="matrix(1,0,0,1,4048,328) translate(8.178749999999994 38.089501953125)"/><use xlink:href="#Q" transform="matrix(1,0,0,1,4048,328) translate(75.817177734375 38.089501953125)"/></g><path d="M3666.36 80c-8.84 0-16 7.16-16 16v48c0 8.84 7.16 16 16 16h128c8.83 0 16-7.16 16-16V96c0-8.84-7.17-16-16-16z" stroke="#000" fill="#fff"/><g><use xlink:href="#L" transform="matrix(1,0,0,1,3658.3550319643014,88) translate(4.602700195312508 25.936654296875002)"/><use xlink:href="#ag" transform="matrix(1,0,0,1,3658.3550319643014,88) translate(80.61930175781251 25.936654296875002)"/><use xlink:href="#e" transform="matrix(1,0,0,1,3658.3550319643014,88) translate(13.569389648437493 50.242349609375)"/><use xlink:href="#ah" transform="matrix(1,0,0,1,3658.3550319643014,88) translate(71.4809619140625 50.242349609375)"/><use xlink:href="#ai" transform="matrix(1,0,0,1,3658.3550319643014,88) translate(96.1168798828125 50.242349609375)"/></g><path d="M3216-240c-8.84 0-16 7.16-16 16v48c0 8.84 7.16 16 16 16h128c8.84 0 16-7.16 16-16v-48c0-8.84-7.16-16-16-16z" stroke="#000" fill="#fff"/><g><use xlink:href="#aj" transform="matrix(1,0,0,1,3208,-232) translate(16.883876953124997 25.936654296875002)"/><use xlink:href="#ak" transform="matrix(1,0,0,1,3208,-232) translate(70.945576171875 25.936654296875002)"/><use xlink:href="#al" transform="matrix(1,0,0,1,3208,-232) translate(4.426962890624992 50.242349609375)"/><use xlink:href="#ad" transform="matrix(1,0,0,1,3208,-232) translate(44.356113281249996 50.242349609375)"/><use xlink:href="#am" transform="matrix(1,0,0,1,3208,-232) translate(78.604453125 50.242349609375)"/></g><path d="M2915.76 124.24a6 6 0 0 1 8.48 0l11.52 11.52a6 6 0 0 1 0 8.48l-11.52 11.52a6 6 0 0 1-8.48 0l-11.52-11.52a6 6 0 0 1 0-8.48z" stroke="#000" fill="#fff"/><path d="M2920 120.98V7.96" stroke="#3a414a" fill="none"/><path d="M2920.47 122.02l-.47-.04-.47.04v-1.05h.94z" stroke="#3a414a" stroke-width=".05" fill="#3a414a"/><path d="M2910 16.84l10-17.32 10 17.32M2920-.48v8.5" stroke="#3a414a" fill="none"/><path d="M2915.76-35.76a6 6 0 0 1 8.48 0l11.52 11.52a6 6 0 0 1 0 8.48l-11.52 11.52a6 6 0 0 1-8.48 0l-11.52-11.52a6 6 0 0 1 0-8.48zM2075.76 344.24a6 6 0 0 1 8.48 0l11.52 11.52a6 6 0 0 1 0 8.48l-11.52 11.52a6 6 0 0 1-8.48 0l-11.52-11.52a6 6 0 0 1 0-8.48z" stroke="#000" fill="#fff"/><path d="M2098.52 360h132.04" stroke="#3a414a" fill="none"/><path d="M2098.53 360.48h-.55l.04-.48-.04-.48h.55z" stroke="#3a414a" stroke-width=".05" fill="#3a414a"/><path d="M2221.68 350l17.32 10-17.32 10m17.32-10h-8.5" stroke="#3a414a" fill="none"/><path d="M2580 320c-8.82 0-16 7.16-16 16v48c0 8.84 7.18 16 16 16h128c8.85 0 16-7.16 16-16v-48c0-8.84-7.15-16-16-16z" stroke="#000" fill="#fff"/><g><use xlink:href="#E" transform="matrix(1,0,0,1,2572.0132929630254,328) translate(5.812426757812489 25.936654296875002)"/><use xlink:href="#an" transform="matrix(1,0,0,1,2572.0132929630254,328) translate(68.35855957031251 25.936654296875002)"/><use xlink:href="#ac" transform="matrix(1,0,0,1,2572.0132929630254,328) translate(31.76024414062499 50.242349609375)"/><use xlink:href="#ae" transform="matrix(1,0,0,1,2572.0132929630254,328) translate(81.244599609375 50.242349609375)"/></g><path d="M5436 700c-8.84 0-16 7.16-16 16v48c0 8.84 7.16 16 16 16h128c8.84 0 16-7.16 16-16v-48c0-8.84-7.16-16-16-16z" stroke="#000" fill="#fff"/><g><use xlink:href="#E" transform="matrix(1,0,0,1,5428,708) translate(25.50317871093749 25.936654296875002)"/><use xlink:href="#ao" transform="matrix(1,0,0,1,5428,708) translate(88.0493115234375 25.936654296875002)"/><use xlink:href="#n" transform="matrix(1,0,0,1,5428,708) translate(3.7199267578124875 50.242349609375)"/><use xlink:href="#ap" transform="matrix(1,0,0,1,5428,708) translate(63.2744384765625 50.242349609375)"/></g><defs><path d="M180 0v-1490h510c348 0 508 209 508 474 0 266-160 477-507 477H370V0H180zm190-706h312c236 0 327-133 327-310 0-176-91-307-329-307H370v617" id="aq"/><path d="M471 26C259 26 90-98 90-318c0-256 228-303 435-329 202-27 287-16 287-108 0-139-79-219-234-219-161 0-248 86-283 164l-173-57c86-203 278-265 451-265 150 0 419 46 419 395V0H815v-152h-12C765-73 660 26 471 26zm31-159c199 0 310-134 310-271v-155c-30 35-226 55-295 64-131 17-246 59-246 186 0 116 97 176 231 176" id="ar"/><path d="M538 24C308 24 148-78 108-271l171-41c32 123 123 178 257 178 156 0 256-77 256-169 0-77-54-128-164-154l-186-44c-203-48-300-148-300-305 0-192 176-326 414-326 230 0 351 112 402 269l-163 42c-31-80-94-158-238-158-133 0-233 69-233 162 0 83 57 129 188 160l169 40c203 48 298 149 298 302 0 196-179 339-441 339" id="as"/><path d="M628 24c-324 0-524-230-524-574 0-343 198-582 503-582 237 0 487 146 487 559v75H286c9 234 145 362 343 362 132 0 231-58 273-172l174 48C1024-91 857 24 628 24zM287-650h624c-17-190-120-322-304-322-192 0-309 151-320 322" id="at"/><path d="M338-670V0H158v-1118h173l1 207c72-158 192-221 342-221 226 0 378 139 378 422V0H872v-695c0-172-96-275-252-275-161 0-282 109-282 300" id="au"/><path d="M611 442c-248 0-391-105-460-228l146-94c47 65 117 165 314 165 178 0 307-82 307-266v-224h-17C863-141 792-18 576-18c-268 0-472-195-472-546 0-346 197-568 476-568 216 0 288 133 326 193h17v-179h175V29c0 289-215 413-487 413zm-5-620c203 0 314-146 314-390 0-237-108-403-314-403-213 0-319 180-319 403 0 230 109 390 319 390" id="av"/><path d="M158 0v-1118h174v172h12c41-113 157-188 290-188 26 0 70 2 91 3v181c-11-2-60-10-108-10-161 0-279 109-279 260V0H158" id="aw"/><g id="a"><use transform="matrix(0.008173828125000001,0,0,0.008173828125000001,0,0)" xlink:href="#aq"/><use transform="matrix(0.008173828125000001,0,0,0.008173828125000001,10.691367187500001,0)" xlink:href="#ar"/><use transform="matrix(0.008173828125000001,0,0,0.008173828125000001,20.091269531250003,0)" xlink:href="#as"/><use transform="matrix(0.008173828125000001,0,0,0.008173828125000001,28.927177734375004,0)" xlink:href="#as"/><use transform="matrix(0.008173828125000001,0,0,0.008173828125000001,37.76308593750001,0)" xlink:href="#at"/><use transform="matrix(0.008173828125000001,0,0,0.008173828125000001,47.52263671875001,0)" xlink:href="#au"/><use transform="matrix(0.008173828125000001,0,0,0.008173828125000001,57.412968750000005,0)" xlink:href="#av"/><use transform="matrix(0.008173828125000001,0,0,0.008173828125000001,67.679296875,0)" xlink:href="#at"/><use transform="matrix(0.008173828125000001,0,0,0.008173828125000001,77.43884765625,0)" xlink:href="#aw"/></g><path d="M657 26c-323 0-524-166-541-416h195c15 169 171 246 346 246 202 0 356-106 356-265 5-203-294-238-475-293-239-73-380-191-380-389 0-252 224-419 512-419 294 0 499 171 508 396H992c-17-145-151-228-328-228-193 0-321 102-321 242 0 156 175 211 284 241l149 41c160 44 422 134 422 412 0 244-197 432-541 432" id="ax"/><path d="M140 405l46-156c120 36 205 19 263-150l32-93L54-1118h197c107 313 237 620 324 950 87-331 219-637 326-950h196L606 167c-68 178-176 259-334 259-64 0-113-12-132-21" id="ay"/><path d="M598-1118v154H368v674c0 100 37 144 132 144 23 0 62-6 92-12L629-6c-37 13-88 20-134 20-193 0-307-107-307-290v-688H20v-154h168v-266h180v266h230" id="az"/><path d="M158 0v-1118h175l1 205c55-151 181-225 313-225 147 0 245 90 285 228 53-141 190-228 352-228 194 0 352 125 352 384V0h-181v-749c0-161-105-225-225-225-151 0-243 103-243 244V0H807v-767c0-124-93-207-219-207-131 0-250 92-250 270V0H158" id="aA"/><g id="b"><use transform="matrix(0.008173828125000001,0,0,0.008173828125000001,0,0)" xlink:href="#ax"/><use transform="matrix(0.008173828125000001,0,0,0.008173828125000001,10.740410156250002,0)" xlink:href="#ay"/><use transform="matrix(0.008173828125000001,0,0,0.008173828125000001,20.148486328125003,0)" xlink:href="#as"/><use transform="matrix(0.008173828125000001,0,0,0.008173828125000001,28.984394531250004,0)" xlink:href="#az"/><use transform="matrix(0.008173828125000001,0,0,0.008173828125000001,34.297382812500004,0)" xlink:href="#at"/><use transform="matrix(0.008173828125000001,0,0,0.008173828125000001,44.05693359375,0)" xlink:href="#aA"/></g><path d="M645 0H180v-1490h484c435 0 692 280 692 742 0 466-257 748-711 748zM370-168h263c363 0 539-218 539-580 0-358-176-574-521-574H370v1154" id="aB"/><path d="M158 0v-1118h180V0H158zm91-1301c-68 0-125-53-125-119s57-119 125-119c69 0 126 53 126 119s-57 119-126 119" id="aC"/><path d="M481 0L54-1118h197c107 314 236 620 325 951 87-331 217-637 324-951h197L670 0H481" id="aD"/><g id="c"><use transform="matrix(0.008173828125000001,0,0,0.008173828125000001,0,0)" xlink:href="#aB"/><use transform="matrix(0.008173828125000001,0,0,0.008173828125000001,12.08091796875,0)" xlink:href="#aw"/><use transform="matrix(0.008173828125000001,0,0,0.008173828125000001,18.644501953125,0)" xlink:href="#aC"/><use transform="matrix(0.008173828125000001,0,0,0.008173828125000001,22.698720703125,0)" xlink:href="#aD"/><use transform="matrix(0.008173828125000001,0,0,0.008173828125000001,31.779843750000005,0)" xlink:href="#at"/><use transform="matrix(0.008173828125000001,0,0,0.008173828125000001,41.539394531250004,0)" xlink:href="#aw"/></g><path d="M226 279v-1860h398v153H398V126h226v153H226" id="aE"/><path d="M783 20c-382 0-661-292-661-764 0-473 279-766 661-766 302 0 548 182 601 489h-190c-42-204-217-313-411-313-268 0-476 208-476 590 0 381 209 588 476 588 195 0 369-110 411-313h190c-52 303-296 489-601 489" id="aF"/><path d="M338-670V0H158v-1490h180v566c73-149 190-208 336-208 226 0 379 139 379 422V0H872v-695c0-172-96-275-252-275-161 0-282 109-282 300" id="aG"/><g id="d"><use transform="matrix(0.008173828125000001,0,0,0.008173828125000001,0,0)" xlink:href="#aE"/><use transform="matrix(0.008173828125000001,0,0,0.008173828125000001,6.105849609375,0)" xlink:href="#aF"/><use transform="matrix(0.008173828125000001,0,0,0.008173828125000001,18.333896484375003,0)" xlink:href="#aG"/><use transform="matrix(0.008173828125000001,0,0,0.008173828125000001,28.232402343750003,0)" xlink:href="#ar"/><use transform="matrix(0.008173828125000001,0,0,0.008173828125000001,37.6323046875,0)" xlink:href="#au"/><use transform="matrix(0.008173828125000001,0,0,0.008173828125000001,47.52263671875001,0)" xlink:href="#av"/><use transform="matrix(0.008173828125000001,0,0,0.008173828125000001,57.78896484375001,0)" xlink:href="#at"/></g><path d="M158 418v-1536h174v179h20c37-59 106-193 324-193 279 0 474 222 474 576 0 356-194 580-473 580-213 0-288-135-325-197h-14v591H158zm492-555c209 0 317-186 317-421 0-232-105-413-317-413-206 0-314 166-314 413 0 249 111 421 314 421" id="aH"/><path d="M613 24c-304 0-509-231-509-576 0-350 205-580 509-580 216 0 392 114 453 309l-173 49c-33-115-133-197-280-197-223 0-326 196-326 419 0 220 103 415 326 415 150 0 252-85 285-206l172 49C1010-95 832 24 613 24" id="aI"/><path d="M158 0v-1490h180v865h22l478-493h223L593-638 1096 0H865L456-523 338-412V0H158" id="aJ"/><path d="M537 14c-226 0-379-139-379-422v-710h180v695c0 172 97 275 253 275 160 0 281-109 281-300v-670h181V0H879v-209C806-46 684 14 537 14" id="aK"/><g id="e"><use transform="matrix(0.008173828125000001,0,0,0.008173828125000001,0,0)" xlink:href="#aH"/><use transform="matrix(0.008173828125000001,0,0,0.008173828125000001,10.249980468750001,0)" xlink:href="#aC"/><use transform="matrix(0.008173828125000001,0,0,0.008173828125000001,14.304199218750002,0)" xlink:href="#aI"/><use transform="matrix(0.008173828125000001,0,0,0.008173828125000001,23.867578125,0)" xlink:href="#aJ"/><use transform="matrix(0.008173828125000001,0,0,0.008173828125000001,33.0549609375,0)" xlink:href="#aK"/><use transform="matrix(0.008173828125000001,0,0,0.008173828125000001,42.953466796875,0)" xlink:href="#aH"/></g><path d="M338-1490V0H158v-1490h180" id="aL"/><path d="M613 24c-304 0-509-231-509-576 0-350 205-580 509-580 305 0 511 230 511 580 0 345-206 576-511 576zm0-161c226 0 329-195 329-415 0-222-103-419-329-419-223 0-326 196-326 419 0 220 103 415 326 415" id="aM"/><path d="M123 279V126h226v-1554H123v-153h398V279H123" id="aN"/><g id="f"><use transform="matrix(0.008173828125000001,0,0,0.008173828125000001,0,0)" xlink:href="#aL"/><use transform="matrix(0.008173828125000001,0,0,0.008173828125000001,4.05421875,0)" xlink:href="#aM"/><use transform="matrix(0.008173828125000001,0,0,0.008173828125000001,14.091679687500001,0)" xlink:href="#aI"/><use transform="matrix(0.008173828125000001,0,0,0.008173828125000001,23.81853515625,0)" xlink:href="#ar"/><use transform="matrix(0.008173828125000001,0,0,0.008173828125000001,33.2184375,0)" xlink:href="#az"/><use transform="matrix(0.008173828125000001,0,0,0.008173828125000001,38.69490234375,0)" xlink:href="#aC"/><use transform="matrix(0.008173828125000001,0,0,0.008173828125000001,42.749121093750006,0)" xlink:href="#aM"/><use transform="matrix(0.008173828125000001,0,0,0.008173828125000001,52.786582031250006,0)" xlink:href="#au"/><use transform="matrix(0.008173828125000001,0,0,0.008173828125000001,62.6769140625,0)" xlink:href="#aN"/></g><path d="M52 0l541-1490h220L1361 0h-200l-149-416H398L254 0H52zm404-582h497c-103-290-145-390-251-756-108 377-145 460-246 756" id="aO"/><g id="g"><use transform="matrix(0.008173828125000001,0,0,0.008173828125000001,0,0)" xlink:href="#aE"/><use transform="matrix(0.008173828125000001,0,0,0.008173828125000001,6.105849609375,0)" xlink:href="#aO"/><use transform="matrix(0.008173828125000001,0,0,0.008173828125000001,17.65546875,0)" xlink:href="#aI"/><use transform="matrix(0.008173828125000001,0,0,0.008173828125000001,27.218847656250002,0)" xlink:href="#aI"/><use transform="matrix(0.008173828125000001,0,0,0.008173828125000001,36.7822265625,0)" xlink:href="#at"/><use transform="matrix(0.008173828125000001,0,0,0.008173828125000001,46.54177734375,0)" xlink:href="#aH"/><use transform="matrix(0.008173828125000001,0,0,0.008173828125000001,56.7917578125,0)" xlink:href="#az"/></g><path d="M180 0v-1490h190v1322h690V0H180" id="aP"/><g id="h"><use transform="matrix(0.008173828125000001,0,0,0.008173828125000001,0,0)" xlink:href="#aE"/><use transform="matrix(0.008173828125000001,0,0,0.008173828125000001,6.105849609375,0)" xlink:href="#aP"/><use transform="matrix(0.008173828125000001,0,0,0.008173828125000001,15.571142578125002,0)" xlink:href="#aM"/><use transform="matrix(0.008173828125000001,0,0,0.008173828125000001,25.608603515625003,0)" xlink:href="#aI"/><use transform="matrix(0.008173828125000001,0,0,0.008173828125000001,35.33545898437501,0)" xlink:href="#ar"/><use transform="matrix(0.008173828125000001,0,0,0.008173828125000001,44.735361328125016,0)" xlink:href="#az"/><use transform="matrix(0.008173828125000001,0,0,0.008173828125000001,50.21182617187501,0)" xlink:href="#aC"/><use transform="matrix(0.008173828125000001,0,0,0.008173828125000001,54.26604492187501,0)" xlink:href="#aM"/><use transform="matrix(0.008173828125000001,0,0,0.008173828125000001,64.30350585937501,0)" xlink:href="#au"/></g><g id="i"><use transform="matrix(0.008173828125000001,0,0,0.008173828125000001,0,0)" xlink:href="#au"/><use transform="matrix(0.008173828125000001,0,0,0.008173828125000001,9.89033203125,0)" xlink:href="#aM"/><use transform="matrix(0.008173828125000001,0,0,0.008173828125000001,19.92779296875,0)" xlink:href="#az"/></g><path d="M678-1118v154H420V0H240v-964H20v-154h220v-149c0-194 155-293 318-293 85 0 141 18 168 30l-50 154c-19-6-47-17-97-17-111 0-159 58-159 166v109h258" id="aQ"/><path d="M577 24c-279 0-473-224-473-580 0-354 195-576 474-576 218 0 287 134 324 193h14v-551h180V0H922v-173h-20C865-111 790 24 577 24zm27-161c203 0 314-172 314-421 0-247-108-413-314-413-212 0-317 181-317 413 0 235 108 421 317 421" id="aR"/><g id="j"><use transform="matrix(0.008173828125000001,0,0,0.008173828125000001,0,0)" xlink:href="#aQ"/><use transform="matrix(0.008173828125000001,0,0,0.008173828125000001,5.705332031250001,0)" xlink:href="#aM"/><use transform="matrix(0.008173828125000001,0,0,0.008173828125000001,15.742792968750003,0)" xlink:href="#aK"/><use transform="matrix(0.008173828125000001,0,0,0.008173828125000001,25.641298828125002,0)" xlink:href="#au"/><use transform="matrix(0.008173828125000001,0,0,0.008173828125000001,35.531630859375,0)" xlink:href="#aR"/><use transform="matrix(0.008173828125000001,0,0,0.008173828125000001,45.781611328125,0)" xlink:href="#aN"/></g><g id="k"><use transform="matrix(0.008173828125000001,0,0,0.008173828125000001,0,0)" xlink:href="#aE"/><use transform="matrix(0.008173828125000001,0,0,0.008173828125000001,6.105849609375,0)" xlink:href="#aB"/><use transform="matrix(0.008173828125000001,0,0,0.008173828125000001,18.186767578125,0)" xlink:href="#aw"/><use transform="matrix(0.008173828125000001,0,0,0.008173828125000001,24.7503515625,0)" xlink:href="#aC"/><use transform="matrix(0.008173828125000001,0,0,0.008173828125000001,28.8045703125,0)" xlink:href="#aD"/><use transform="matrix(0.008173828125000001,0,0,0.008173828125000001,37.885693359375004,0)" xlink:href="#at"/><use transform="matrix(0.008173828125000001,0,0,0.008173828125000001,47.645244140625,0)" xlink:href="#aw"/></g><g id="l"><use transform="matrix(0.008173828125000001,0,0,0.008173828125000001,0,0)" xlink:href="#ar"/><use transform="matrix(0.008173828125000001,0,0,0.008173828125000001,9.399902343750002,0)" xlink:href="#aI"/><use transform="matrix(0.008173828125000001,0,0,0.008173828125000001,18.96328125,0)" xlink:href="#aI"/><use transform="matrix(0.008173828125000001,0,0,0.008173828125000001,28.526660156250003,0)" xlink:href="#at"/><use transform="matrix(0.008173828125000001,0,0,0.008173828125000001,38.2862109375,0)" xlink:href="#aH"/><use transform="matrix(0.008173828125000001,0,0,0.008173828125000001,48.536191406250005,0)" xlink:href="#az"/><use transform="matrix(0.008173828125000001,0,0,0.008173828125000001,53.849179687500005,0)" xlink:href="#as"/><use transform="matrix(0.008173828125000001,0,0,0.008173828125000001,62.685087890625006,0)" xlink:href="#aN"/></g><path d="M180 0v-1490h224l606 953c40 63 108 177 176 312-27-437-7-821-13-1265h190V0h-226C860-448 622-778 356-1262c27 476 11 792 15 1262H180" id="aS"/><g id="m"><use transform="matrix(0.008173828125000001,0,0,0.008173828125000001,0,0)" xlink:href="#aE"/><use transform="matrix(0.008173828125000001,0,0,0.008173828125000001,6.105849609375,0)" xlink:href="#aS"/><use transform="matrix(0.008173828125000001,0,0,0.008173828125000001,18.718066406250003,0)" xlink:href="#aM"/></g><g id="n"><use transform="matrix(0.008173828125000001,0,0,0.008173828125000001,0,0)" xlink:href="#aR"/><use transform="matrix(0.008173828125000001,0,0,0.008173828125000001,10.249980468750001,0)" xlink:href="#aw"/><use transform="matrix(0.008173828125000001,0,0,0.008173828125000001,16.813564453125004,0)" xlink:href="#aC"/><use transform="matrix(0.008173828125000001,0,0,0.008173828125000001,20.867783203125004,0)" xlink:href="#aD"/><use transform="matrix(0.008173828125000001,0,0,0.008173828125000001,29.948906250000007,0)" xlink:href="#at"/><use transform="matrix(0.008173828125000001,0,0,0.008173828125000001,39.708457031250006,0)" xlink:href="#aw"/><use transform="matrix(0.008173828125000001,0,0,0.008173828125000001,46.01047851562501,0)" xlink:href="#as"/></g><g id="o"><use transform="matrix(0.008173828125000001,0,0,0.008173828125000001,0,0)" xlink:href="#ar"/><use transform="matrix(0.008173828125000001,0,0,0.008173828125000001,9.399902343750002,0)" xlink:href="#aI"/><use transform="matrix(0.008173828125000001,0,0,0.008173828125000001,18.96328125,0)" xlink:href="#aI"/><use transform="matrix(0.008173828125000001,0,0,0.008173828125000001,28.526660156250003,0)" xlink:href="#at"/><use transform="matrix(0.008173828125000001,0,0,0.008173828125000001,38.2862109375,0)" xlink:href="#aH"/><use transform="matrix(0.008173828125000001,0,0,0.008173828125000001,48.536191406250005,0)" xlink:href="#az"/></g><path d="M692-1560L212 224H46l480-1784h166" id="aT"/><use transform="matrix(0.008173828125000001,0,0,0.008173828125000001,0,0)" xlink:href="#aT" id="p"/><path d="M98-1322v-168h1126v168H757V0H567v-1322H98" id="aU"/><g id="q"><use transform="matrix(0.008173828125000001,0,0,0.008173828125000001,0,0)" xlink:href="#aU"/><use transform="matrix(0.008173828125000001,0,0,0.008173828125000001,10.805800781250001,0)" xlink:href="#aC"/><use transform="matrix(0.008173828125000001,0,0,0.008173828125000001,14.860019531250002,0)" xlink:href="#aA"/><use transform="matrix(0.008173828125000001,0,0,0.008173828125000001,29.523867187500002,0)" xlink:href="#at"/><use transform="matrix(0.008173828125000001,0,0,0.008173828125000001,39.28341796875,0)" xlink:href="#aM"/><use transform="matrix(0.008173828125000001,0,0,0.008173828125000001,49.32087890625,0)" xlink:href="#aK"/><use transform="matrix(0.008173828125000001,0,0,0.008173828125000001,59.219384765625,0)" xlink:href="#az"/><use transform="matrix(0.008173828125000001,0,0,0.008173828125000001,64.695849609375,0)" xlink:href="#aN"/></g><g id="r"><use transform="matrix(0.010850694444444444,0,0,0.010850694444444444,0,0)" xlink:href="#ax"/><use transform="matrix(0.010850694444444444,0,0,0.010850694444444444,14.2578125,0)" xlink:href="#at"/><use transform="matrix(0.010850694444444444,0,0,0.010850694444444444,27.43055555555556,0)" xlink:href="#ar"/><use transform="matrix(0.010850694444444444,0,0,0.010850694444444444,39.90885416666667,0)" xlink:href="#aw"/><use transform="matrix(0.010850694444444444,0,0,0.010850694444444444,47.90581597222222,0)" xlink:href="#aI"/><use transform="matrix(0.010850694444444444,0,0,0.010850694444444444,60.60112847222222,0)" xlink:href="#aG"/></g><path d="M180 0v-1490h901v168H370v510h643v168H370V0H180" id="aV"/><g id="s"><use transform="matrix(0.010850694444444444,0,0,0.010850694444444444,0,0)" xlink:href="#aV"/><use transform="matrix(0.010850694444444444,0,0,0.010850694444444444,12.239583333333332,0)" xlink:href="#aM"/><use transform="matrix(0.010850694444444444,0,0,0.010850694444444444,25.564236111111104,0)" xlink:href="#aw"/></g><g id="t"><use transform="matrix(0.010850694444444444,0,0,0.010850694444444444,0,0)" xlink:href="#aq"/><use transform="matrix(0.010850694444444444,0,0,0.010850694444444444,14.192708333333332,0)" xlink:href="#ar"/><use transform="matrix(0.010850694444444444,0,0,0.010850694444444444,26.671006944444443,0)" xlink:href="#as"/><use transform="matrix(0.010850694444444444,0,0,0.010850694444444444,38.400607638888886,0)" xlink:href="#as"/><use transform="matrix(0.010850694444444444,0,0,0.010850694444444444,50.13020833333333,0)" xlink:href="#at"/><use transform="matrix(0.010850694444444444,0,0,0.010850694444444444,63.0859375,0)" xlink:href="#au"/><use transform="matrix(0.010850694444444444,0,0,0.010850694444444444,76.21527777777777,0)" xlink:href="#av"/><use transform="matrix(0.010850694444444444,0,0,0.010850694444444444,89.84375,0)" xlink:href="#at"/><use transform="matrix(0.010850694444444444,0,0,0.010850694444444444,102.79947916666666,0)" xlink:href="#aw"/></g><g id="u"><use transform="matrix(0.010850694444444444,0,0,0.010850694444444444,0,0)" xlink:href="#aP"/><use transform="matrix(0.010850694444444444,0,0,0.010850694444444444,12.565104166666666,0)" xlink:href="#aM"/><use transform="matrix(0.010850694444444444,0,0,0.010850694444444444,25.889756944444443,0)" xlink:href="#aI"/><use transform="matrix(0.010850694444444444,0,0,0.010850694444444444,38.80208333333333,0)" xlink:href="#ar"/><use transform="matrix(0.010850694444444444,0,0,0.010850694444444444,51.28038194444444,0)" xlink:href="#az"/><use transform="matrix(0.010850694444444444,0,0,0.010850694444444444,58.55034722222222,0)" xlink:href="#aC"/><use transform="matrix(0.010850694444444444,0,0,0.010850694444444444,63.932291666666664,0)" xlink:href="#aM"/><use transform="matrix(0.010850694444444444,0,0,0.010850694444444444,77.25694444444444,0)" xlink:href="#au"/></g><path d="M180 0v-1490h908v168H370v486h669v168H370v500h727V0H180" id="aW"/><g id="v"><use transform="matrix(0.008173828125000001,0,0,0.008173828125000001,0,0)" xlink:href="#aW"/><use transform="matrix(0.008173828125000001,0,0,0.008173828125000001,10.061982421875001,0)" xlink:href="#au"/><use transform="matrix(0.008173828125000001,0,0,0.008173828125000001,19.952314453125002,0)" xlink:href="#az"/><use transform="matrix(0.008173828125000001,0,0,0.008173828125000001,25.265302734375002,0)" xlink:href="#at"/><use transform="matrix(0.008173828125000001,0,0,0.008173828125000001,35.024853515625004,0)" xlink:href="#aw"/></g><path d="M798-719v166H144v-166h654" id="aX"/><g id="w"><use transform="matrix(0.008173828125000001,0,0,0.008173828125000001,0,0)" xlink:href="#aR"/><use transform="matrix(0.008173828125000001,0,0,0.008173828125000001,10.249980468750001,0)" xlink:href="#aw"/><use transform="matrix(0.008173828125000001,0,0,0.008173828125000001,16.274091796875002,0)" xlink:href="#aM"/><use transform="matrix(0.008173828125000001,0,0,0.008173828125000001,26.311552734375002,0)" xlink:href="#aH"/><use transform="matrix(0.008173828125000001,0,0,0.008173828125000001,36.561533203125,0)" xlink:href="#aX"/><use transform="matrix(0.008173828125000001,0,0,0.008173828125000001,44.261279296875,0)" xlink:href="#aM"/><use transform="matrix(0.008173828125000001,0,0,0.008173828125000001,54.298740234375,0)" xlink:href="#aQ"/><use transform="matrix(0.008173828125000001,0,0,0.008173828125000001,59.840595703125004,0)" xlink:href="#aQ"/></g><g id="x"><use transform="matrix(0.008173828125000001,0,0,0.008173828125000001,0,0)" xlink:href="#aL"/><use transform="matrix(0.008173828125000001,0,0,0.008173828125000001,4.05421875,0)" xlink:href="#aM"/><use transform="matrix(0.008173828125000001,0,0,0.008173828125000001,14.091679687500001,0)" xlink:href="#aI"/><use transform="matrix(0.008173828125000001,0,0,0.008173828125000001,23.81853515625,0)" xlink:href="#ar"/><use transform="matrix(0.008173828125000001,0,0,0.008173828125000001,33.2184375,0)" xlink:href="#az"/><use transform="matrix(0.008173828125000001,0,0,0.008173828125000001,38.69490234375,0)" xlink:href="#aC"/><use transform="matrix(0.008173828125000001,0,0,0.008173828125000001,42.749121093750006,0)" xlink:href="#aM"/><use transform="matrix(0.008173828125000001,0,0,0.008173828125000001,52.786582031250006,0)" xlink:href="#au"/></g><g id="y"><use transform="matrix(0.008173828125000001,0,0,0.008173828125000001,0,0)" xlink:href="#aB"/><use transform="matrix(0.008173828125000001,0,0,0.008173828125000001,12.08091796875,0)" xlink:href="#at"/><use transform="matrix(0.008173828125000001,0,0,0.008173828125000001,21.84046875,0)" xlink:href="#az"/><use transform="matrix(0.008173828125000001,0,0,0.008173828125000001,27.15345703125,0)" xlink:href="#at"/><use transform="matrix(0.008173828125000001,0,0,0.008173828125000001,36.9130078125,0)" xlink:href="#aI"/><use transform="matrix(0.008173828125000001,0,0,0.008173828125000001,46.47638671875,0)" xlink:href="#az"/></g><path d="M789 20c-398 0-667-293-667-764 0-473 273-766 655-766 315 0 558 198 612 487h-196c-61-191-204-311-415-311-262 0-471 207-471 590 0 380 208 588 482 588 249 0 420-165 425-427H828v-166h572v163c0 370-256 606-611 606" id="aY"/><g id="z"><use transform="matrix(0.008173828125000001,0,0,0.008173828125000001,0,0)" xlink:href="#aY"/><use transform="matrix(0.008173828125000001,0,0,0.008173828125000001,12.489609375000002,0)" xlink:href="#aq"/><use transform="matrix(0.008173828125000001,0,0,0.008173828125000001,23.180976562500003,0)" xlink:href="#ax"/></g><path d="M580 20c-295 0-476-179-476-409 0-189 123-290 294-416-104-125-173-226-173-362 0-197 144-337 365-337 224 0 362 144 362 321 0 185-174 312-306 405l319 387c38-75 61-165 61-267h173c0 208-62 332-120 406L1287 0h-217L967-124C868-27 716 20 580 20zm279-273L507-675l-51 38c-123 91-167 162-167 254 0 147 113 246 278 246 107 0 210-41 292-116zM538-908l97-72c54-40 136-101 136-206 0-95-68-163-176-163-113 0-189 74-189 181 0 90 53 164 132 260" id="aZ"/><use transform="matrix(0.008173828125000001,0,0,0.008173828125000001,0,0)" xlink:href="#aZ" id="A"/><g id="B"><use transform="matrix(0.008173828125000001,0,0,0.008173828125000001,0,0)" xlink:href="#as"/><use transform="matrix(0.008173828125000001,0,0,0.008173828125000001,8.835908203125001,0)" xlink:href="#at"/><use transform="matrix(0.008173828125000001,0,0,0.008173828125000001,18.595458984375,0)" xlink:href="#az"/></g><g id="C"><use transform="matrix(0.008173828125000001,0,0,0.008173828125000001,0,0)" xlink:href="#aR"/><use transform="matrix(0.008173828125000001,0,0,0.008173828125000001,10.249980468750001,0)" xlink:href="#at"/><use transform="matrix(0.008173828125000001,0,0,0.008173828125000001,20.009531250000002,0)" xlink:href="#aQ"/><use transform="matrix(0.008173828125000001,0,0,0.008173828125000001,25.943730468750005,0)" xlink:href="#ar"/><use transform="matrix(0.008173828125000001,0,0,0.008173828125000001,35.343632812500005,0)" xlink:href="#aK"/><use transform="matrix(0.008173828125000001,0,0,0.008173828125000001,45.242138671875004,0)" xlink:href="#aL"/><use transform="matrix(0.008173828125000001,0,0,0.008173828125000001,49.54157226562501,0)" xlink:href="#az"/></g><g id="D"><use transform="matrix(0.008173828125000001,0,0,0.008173828125000001,0,0)" xlink:href="#aH"/><use transform="matrix(0.008173828125000001,0,0,0.008173828125000001,10.249980468750001,0)" xlink:href="#aC"/><use transform="matrix(0.008173828125000001,0,0,0.008173828125000001,14.304199218750002,0)" xlink:href="#aI"/><use transform="matrix(0.008173828125000001,0,0,0.008173828125000001,23.867578125,0)" xlink:href="#aJ"/><use transform="matrix(0.008173828125000001,0,0,0.008173828125000001,33.0549609375,0)" xlink:href="#aK"/><use transform="matrix(0.008173828125000001,0,0,0.008173828125000001,42.953466796875,0)" xlink:href="#aH"/></g><g id="E"><use transform="matrix(0.008173828125000001,0,0,0.008173828125000001,0,0)" xlink:href="#aB"/><use transform="matrix(0.008173828125000001,0,0,0.008173828125000001,12.08091796875,0)" xlink:href="#aC"/><use transform="matrix(0.008173828125000001,0,0,0.008173828125000001,16.13513671875,0)" xlink:href="#as"/><use transform="matrix(0.008173828125000001,0,0,0.008173828125000001,24.971044921875002,0)" xlink:href="#aH"/><use transform="matrix(0.008173828125000001,0,0,0.008173828125000001,35.221025390625,0)" xlink:href="#aL"/><use transform="matrix(0.008173828125000001,0,0,0.008173828125000001,39.275244140625006,0)" xlink:href="#ar"/><use transform="matrix(0.008173828125000001,0,0,0.008173828125000001,48.42993164062501,0)" xlink:href="#ay"/></g><g id="F"><use transform="matrix(0.008173828125000001,0,0,0.008173828125000001,0,0)" xlink:href="#aL"/><use transform="matrix(0.008173828125000001,0,0,0.008173828125000001,4.05421875,0)" xlink:href="#aM"/><use transform="matrix(0.008173828125000001,0,0,0.008173828125000001,14.091679687500001,0)" xlink:href="#aI"/><use transform="matrix(0.008173828125000001,0,0,0.008173828125000001,23.81853515625,0)" xlink:href="#ar"/><use transform="matrix(0.008173828125000001,0,0,0.008173828125000001,33.2184375,0)" xlink:href="#az"/><use transform="matrix(0.008173828125000001,0,0,0.008173828125000001,38.69490234375,0)" xlink:href="#aC"/><use transform="matrix(0.008173828125000001,0,0,0.008173828125000001,42.749121093750006,0)" xlink:href="#aM"/><use transform="matrix(0.008173828125000001,0,0,0.008173828125000001,52.786582031250006,0)" xlink:href="#au"/></g><g id="G"><use transform="matrix(0.008173828125000001,0,0,0.008173828125000001,0,0)" xlink:href="#at"/><use transform="matrix(0.008173828125000001,0,0,0.008173828125000001,9.75955078125,0)" xlink:href="#aw"/><use transform="matrix(0.008173828125000001,0,0,0.008173828125000001,16.323134765625,0)" xlink:href="#aw"/><use transform="matrix(0.008173828125000001,0,0,0.008173828125000001,22.347246093749998,0)" xlink:href="#aM"/><use transform="matrix(0.008173828125000001,0,0,0.008173828125000001,32.38470703125,0)" xlink:href="#aw"/></g><g id="H"><use transform="matrix(0.008173828125000001,0,0,0.008173828125000001,0,0)" xlink:href="#ax"/><use transform="matrix(0.008173828125000001,0,0,0.008173828125000001,10.740410156250002,0)" xlink:href="#az"/><use transform="matrix(0.008173828125000001,0,0,0.008173828125000001,16.053398437500004,0)" xlink:href="#aM"/><use transform="matrix(0.008173828125000001,0,0,0.008173828125000001,26.090859375000004,0)" xlink:href="#aH"/></g><path d="M677 24c-213 0-288-135-325-197h-20V0H158v-1490h180v551h14c37-59 106-193 324-193 279 0 474 222 474 576 0 356-194 580-473 580zm-27-161c209 0 317-186 317-421 0-232-105-413-317-413-206 0-314 166-314 413 0 249 111 421 314 421" id="ba"/><g id="I"><use transform="matrix(0.008173828125000001,0,0,0.008173828125000001,0,0)" xlink:href="#ba"/><use transform="matrix(0.008173828125000001,0,0,0.008173828125000001,10.249980468750001,0)" xlink:href="#aw"/><use transform="matrix(0.008173828125000001,0,0,0.008173828125000001,16.274091796875002,0)" xlink:href="#aM"/><use transform="matrix(0.008173828125000001,0,0,0.008173828125000001,26.475029296875004,0)" xlink:href="#ar"/><use transform="matrix(0.008173828125000001,0,0,0.008173828125000001,35.87493164062501,0)" xlink:href="#aR"/><use transform="matrix(0.008173828125000001,0,0,0.008173828125000001,46.12491210937501,0)" xlink:href="#aI"/><use transform="matrix(0.008173828125000001,0,0,0.008173828125000001,55.85176757812501,0)" xlink:href="#ar"/><use transform="matrix(0.008173828125000001,0,0,0.008173828125000001,65.25166992187502,0)" xlink:href="#as"/><use transform="matrix(0.008173828125000001,0,0,0.008173828125000001,74.08757812500002,0)" xlink:href="#az"/></g><g id="J"><use transform="matrix(0.008173828125000001,0,0,0.008173828125000001,0,0)" xlink:href="#aF"/><use transform="matrix(0.008173828125000001,0,0,0.008173828125000001,12.228046875000002,0)" xlink:href="#ar"/><use transform="matrix(0.008173828125000001,0,0,0.008173828125000001,21.627949218750004,0)" xlink:href="#aL"/><use transform="matrix(0.008173828125000001,0,0,0.008173828125000001,25.682167968750004,0)" xlink:href="#aI"/><use transform="matrix(0.008173828125000001,0,0,0.008173828125000001,35.245546875,0)" xlink:href="#aK"/><use transform="matrix(0.008173828125000001,0,0,0.008173828125000001,45.144052734375,0)" xlink:href="#aL"/><use transform="matrix(0.008173828125000001,0,0,0.008173828125000001,49.198271484375,0)" xlink:href="#ar"/><use transform="matrix(0.008173828125000001,0,0,0.008173828125000001,58.598173828125,0)" xlink:href="#az"/><use transform="matrix(0.008173828125000001,0,0,0.008173828125000001,63.911162109375,0)" xlink:href="#at"/></g><g id="K"><use transform="matrix(0.008173828125000001,0,0,0.008173828125000001,0,0)" xlink:href="#aw"/><use transform="matrix(0.008173828125000001,0,0,0.008173828125000001,6.0241113281250005,0)" xlink:href="#aM"/><use transform="matrix(0.008173828125000001,0,0,0.008173828125000001,16.061572265625003,0)" xlink:href="#aK"/><use transform="matrix(0.008173828125000001,0,0,0.008173828125000001,25.960078125000003,0)" xlink:href="#az"/><use transform="matrix(0.008173828125000001,0,0,0.008173828125000001,31.273066406250003,0)" xlink:href="#at"/></g><path d="M180 0v-1490h270l367 940c28 72 75 218 110 339 35-117 81-264 110-339l362-940h271V0h-187c2-448-5-837 7-1287-157 497-311 829-483 1287H842C666-458 514-784 354-1284c12 438 5 843 7 1284H180" id="bb"/><g id="L"><use transform="matrix(0.008173828125000001,0,0,0.008173828125000001,0,0)" xlink:href="#bb"/><use transform="matrix(0.008173828125000001,0,0,0.008173828125000001,15.121582031250002,0)" xlink:href="#ar"/><use transform="matrix(0.008173828125000001,0,0,0.008173828125000001,24.521484375000004,0)" xlink:href="#au"/><use transform="matrix(0.008173828125000001,0,0,0.008173828125000001,34.411816406250004,0)" xlink:href="#aK"/><use transform="matrix(0.008173828125000001,0,0,0.008173828125000001,44.310322265625004,0)" xlink:href="#ar"/><use transform="matrix(0.008173828125000001,0,0,0.008173828125000001,53.710224609375004,0)" xlink:href="#aL"/><use transform="matrix(0.008173828125000001,0,0,0.008173828125000001,57.76444335937501,0)" xlink:href="#aL"/><use transform="matrix(0.008173828125000001,0,0,0.008173828125000001,61.90040039062501,0)" xlink:href="#ay"/></g><path d="M157-1118h181V80c1 225-123 350-364 338V252c126 9 184-48 183-172v-1198zm91-183c-68 0-125-53-125-119s57-119 125-119c69 0 126 53 126 119s-57 119-126 119" id="bc"/><g id="M"><use transform="matrix(0.008173828125000001,0,0,0.008173828125000001,0,0)" xlink:href="#ar"/><use transform="matrix(0.008173828125000001,0,0,0.008173828125000001,9.399902343750002,0)" xlink:href="#aR"/><use transform="matrix(0.008173828125000001,0,0,0.008173828125000001,19.649882812500003,0)" xlink:href="#bc"/><use transform="matrix(0.008173828125000001,0,0,0.008173828125000001,23.704101562500004,0)" xlink:href="#aK"/><use transform="matrix(0.008173828125000001,0,0,0.008173828125000001,33.60260742187501,0)" xlink:href="#as"/><use transform="matrix(0.008173828125000001,0,0,0.008173828125000001,42.43851562500001,0)" xlink:href="#az"/></g><g id="N"><use transform="matrix(0.008173828125000001,0,0,0.008173828125000001,0,0)" xlink:href="#aH"/><use transform="matrix(0.008173828125000001,0,0,0.008173828125000001,10.249980468750001,0)" xlink:href="#aC"/><use transform="matrix(0.008173828125000001,0,0,0.008173828125000001,14.304199218750002,0)" xlink:href="#au"/></g><path d="M180 0v-1490h510c348 0 508 194 508 460 0 198-88 351-276 417L1256 0h-220L726-579c-117 2-238 0-356 1V0H180zm190-747h312c235 0 327-108 327-283 0-177-92-293-329-293H370v576" id="bd"/><g id="O"><use transform="matrix(0.008173828125000001,0,0,0.008173828125000001,0,0)" xlink:href="#bd"/><use transform="matrix(0.008173828125000001,0,0,0.008173828125000001,10.527890625000001,0)" xlink:href="#at"/><use transform="matrix(0.008173828125000001,0,0,0.008173828125000001,20.287441406250004,0)" xlink:href="#aI"/><use transform="matrix(0.008173828125000001,0,0,0.008173828125000001,29.850820312500005,0)" xlink:href="#at"/><use transform="matrix(0.008173828125000001,0,0,0.008173828125000001,39.610371093750004,0)" xlink:href="#aC"/><use transform="matrix(0.008173828125000001,0,0,0.008173828125000001,43.66458984375001,0)" xlink:href="#aD"/><use transform="matrix(0.008173828125000001,0,0,0.008173828125000001,52.74571289062501,0)" xlink:href="#at"/></g><g id="P"><use transform="matrix(0.008173828125000001,0,0,0.008173828125000001,0,0)" xlink:href="#aw"/><use transform="matrix(0.008173828125000001,0,0,0.008173828125000001,6.563583984375001,0)" xlink:href="#aC"/><use transform="matrix(0.008173828125000001,0,0,0.008173828125000001,10.617802734375001,0)" xlink:href="#aR"/><use transform="matrix(0.008173828125000001,0,0,0.008173828125000001,20.867783203124997,0)" xlink:href="#at"/></g><path d="M1096 418H916v-591h-14C865-111 790 24 577 24c-279 0-473-224-473-580 0-354 195-576 474-576 218 0 287 134 324 193h20v-179h174V418zM604-137c203 0 314-172 314-421 0-247-108-413-314-413-212 0-317 181-317 413 0 235 108 421 317 421" id="be"/><g id="Q"><use transform="matrix(0.008173828125000001,0,0,0.008173828125000001,0,0)" xlink:href="#aw"/><use transform="matrix(0.008173828125000001,0,0,0.008173828125000001,6.0241113281250005,0)" xlink:href="#at"/><use transform="matrix(0.008173828125000001,0,0,0.008173828125000001,15.783662109375001,0)" xlink:href="#be"/><use transform="matrix(0.008173828125000001,0,0,0.008173828125000001,26.033642578125004,0)" xlink:href="#aK"/><use transform="matrix(0.008173828125000001,0,0,0.008173828125000001,35.932148437500004,0)" xlink:href="#at"/><use transform="matrix(0.008173828125000001,0,0,0.008173828125000001,45.69169921875,0)" xlink:href="#as"/><use transform="matrix(0.008173828125000001,0,0,0.008173828125000001,54.527607421875004,0)" xlink:href="#az"/></g><path d="M180 0v-1490h528c311 0 458 177 458 395 0 191-114 278-244 313v14c139 9 302 137 302 371 0 225-148 397-499 397H180zm190-168h350c232 0 321-102 321-231 0-149-120-277-311-277H370v508zm0-668h328c160 0 286-101 286-255 0-129-87-231-280-231H370v486" id="bf"/><g id="R"><use transform="matrix(0.008173828125000001,0,0,0.008173828125000001,0,0)" xlink:href="#bf"/><use transform="matrix(0.008173828125000001,0,0,0.008173828125000001,10.952929687500001,0)" xlink:href="#aw"/><use transform="matrix(0.008173828125000001,0,0,0.008173828125000001,16.977041015625,0)" xlink:href="#aM"/><use transform="matrix(0.008173828125000001,0,0,0.008173828125000001,27.177978515625004,0)" xlink:href="#ar"/><use transform="matrix(0.008173828125000001,0,0,0.008173828125000001,36.57788085937501,0)" xlink:href="#aR"/><use transform="matrix(0.008173828125000001,0,0,0.008173828125000001,46.82786132812501,0)" xlink:href="#aI"/><use transform="matrix(0.008173828125000001,0,0,0.008173828125000001,56.55471679687501,0)" xlink:href="#ar"/><use transform="matrix(0.008173828125000001,0,0,0.008173828125000001,65.95461914062501,0)" xlink:href="#as"/><use transform="matrix(0.008173828125000001,0,0,0.008173828125000001,74.79052734375001,0)" xlink:href="#az"/></g><g id="S"><use transform="matrix(0.008173828125000001,0,0,0.008173828125000001,0,0)" xlink:href="#aw"/><use transform="matrix(0.008173828125000001,0,0,0.008173828125000001,6.0241113281250005,0)" xlink:href="#at"/><use transform="matrix(0.008173828125000001,0,0,0.008173828125000001,15.783662109375001,0)" xlink:href="#be"/><use transform="matrix(0.008173828125000001,0,0,0.008173828125000001,26.033642578125004,0)" xlink:href="#aK"/><use transform="matrix(0.008173828125000001,0,0,0.008173828125000001,35.932148437500004,0)" xlink:href="#at"/><use transform="matrix(0.008173828125000001,0,0,0.008173828125000001,45.69169921875,0)" xlink:href="#as"/><use transform="matrix(0.008173828125000001,0,0,0.008173828125000001,54.527607421875004,0)" xlink:href="#az"/></g><g id="T"><use transform="matrix(0.008173828125000001,0,0,0.008173828125000001,0,0)" xlink:href="#az"/><use transform="matrix(0.008173828125000001,0,0,0.008173828125000001,5.312988281250001,0)" xlink:href="#aM"/></g><g id="U"><use transform="matrix(0.008173828125000001,0,0,0.008173828125000001,0,0)" xlink:href="#au"/><use transform="matrix(0.008173828125000001,0,0,0.008173828125000001,9.89033203125,0)" xlink:href="#at"/><use transform="matrix(0.008173828125000001,0,0,0.008173828125000001,19.813359375,0)" xlink:href="#ar"/><use transform="matrix(0.008173828125000001,0,0,0.008173828125000001,29.213261718750005,0)" xlink:href="#aw"/><use transform="matrix(0.008173828125000001,0,0,0.008173828125000001,35.776845703125005,0)" xlink:href="#ba"/><use transform="matrix(0.008173828125000001,0,0,0.008173828125000001,45.699873046875005,0)" xlink:href="#ay"/></g><g id="V"><use transform="matrix(0.008173828125000001,0,0,0.008173828125000001,0,0)" xlink:href="#aR"/><use transform="matrix(0.008173828125000001,0,0,0.008173828125000001,10.249980468750001,0)" xlink:href="#aw"/><use transform="matrix(0.008173828125000001,0,0,0.008173828125000001,16.813564453125004,0)" xlink:href="#aC"/><use transform="matrix(0.008173828125000001,0,0,0.008173828125000001,20.867783203125004,0)" xlink:href="#aD"/><use transform="matrix(0.008173828125000001,0,0,0.008173828125000001,29.948906250000007,0)" xlink:href="#at"/><use transform="matrix(0.008173828125000001,0,0,0.008173828125000001,39.708457031250006,0)" xlink:href="#aw"/><use transform="matrix(0.008173828125000001,0,0,0.008173828125000001,46.01047851562501,0)" xlink:href="#as"/></g><path d="M232-923l-22-567h194l-22 567H232zm340 0l-22-567h194l-22 567H572" id="bg"/><g id="W"><use transform="matrix(0.008173828125000001,0,0,0.008173828125000001,0,0)" xlink:href="#bg"/><use transform="matrix(0.008173828125000001,0,0,0.008173828125000001,7.797832031250001,0)" xlink:href="#aL"/><use transform="matrix(0.008173828125000001,0,0,0.008173828125000001,11.852050781250002,0)" xlink:href="#aM"/><use transform="matrix(0.008173828125000001,0,0,0.008173828125000001,21.88951171875,0)" xlink:href="#aM"/><use transform="matrix(0.008173828125000001,0,0,0.008173828125000001,31.92697265625,0)" xlink:href="#aJ"/><use transform="matrix(0.008173828125000001,0,0,0.008173828125000001,41.114355468750006,0)" xlink:href="#aC"/><use transform="matrix(0.008173828125000001,0,0,0.008173828125000001,45.16857421875001,0)" xlink:href="#au"/><use transform="matrix(0.008173828125000001,0,0,0.008173828125000001,55.05890625000001,0)" xlink:href="#av"/></g><g id="X"><use transform="matrix(0.008173828125000001,0,0,0.008173828125000001,0,0)" xlink:href="#aQ"/><use transform="matrix(0.008173828125000001,0,0,0.008173828125000001,5.705332031250001,0)" xlink:href="#aM"/><use transform="matrix(0.008173828125000001,0,0,0.008173828125000001,15.742792968750003,0)" xlink:href="#aw"/></g><g id="Y"><use transform="matrix(0.008173828125000001,0,0,0.008173828125000001,0,0)" xlink:href="#aR"/><use transform="matrix(0.008173828125000001,0,0,0.008173828125000001,10.249980468750001,0)" xlink:href="#aw"/><use transform="matrix(0.008173828125000001,0,0,0.008173828125000001,16.813564453125004,0)" xlink:href="#aC"/><use transform="matrix(0.008173828125000001,0,0,0.008173828125000001,20.867783203125004,0)" xlink:href="#aD"/><use transform="matrix(0.008173828125000001,0,0,0.008173828125000001,29.948906250000007,0)" xlink:href="#at"/><use transform="matrix(0.008173828125000001,0,0,0.008173828125000001,39.708457031250006,0)" xlink:href="#aw"/><use transform="matrix(0.008173828125000001,0,0,0.008173828125000001,46.01047851562501,0)" xlink:href="#as"/><use transform="matrix(0.008173828125000001,0,0,0.008173828125000001,54.84638671875001,0)" xlink:href="#bg"/></g><g id="Z"><use transform="matrix(0.008173828125000001,0,0,0.008173828125000001,0,0)" xlink:href="#as"/><use transform="matrix(0.008173828125000001,0,0,0.008173828125000001,8.835908203125001,0)" xlink:href="#aI"/><use transform="matrix(0.008173828125000001,0,0,0.008173828125000001,18.399287109375003,0)" xlink:href="#aw"/><use transform="matrix(0.008173828125000001,0,0,0.008173828125000001,24.4233984375,0)" xlink:href="#at"/><use transform="matrix(0.008173828125000001,0,0,0.008173828125000001,34.182949218750004,0)" xlink:href="#at"/><use transform="matrix(0.008173828125000001,0,0,0.008173828125000001,43.9425,0)" xlink:href="#au"/></g><g id="aa"><use transform="matrix(0.008173828125000001,0,0,0.008173828125000001,0,0)" xlink:href="#bd"/><use transform="matrix(0.008173828125000001,0,0,0.008173828125000001,10.527890625000001,0)" xlink:href="#at"/><use transform="matrix(0.008173828125000001,0,0,0.008173828125000001,20.287441406250004,0)" xlink:href="#aI"/><use transform="matrix(0.008173828125000001,0,0,0.008173828125000001,30.014296875000007,0)" xlink:href="#ar"/><use transform="matrix(0.008173828125000001,0,0,0.008173828125000001,39.41419921875001,0)" xlink:href="#aL"/><use transform="matrix(0.008173828125000001,0,0,0.008173828125000001,43.46841796875,0)" xlink:href="#aI"/><use transform="matrix(0.008173828125000001,0,0,0.008173828125000001,53.031796875000005,0)" xlink:href="#aK"/><use transform="matrix(0.008173828125000001,0,0,0.008173828125000001,62.930302734375005,0)" xlink:href="#aL"/><use transform="matrix(0.008173828125000001,0,0,0.008173828125000001,66.98452148437501,0)" xlink:href="#ar"/><use transform="matrix(0.008173828125000001,0,0,0.008173828125000001,76.38442382812501,0)" xlink:href="#az"/><use transform="matrix(0.008173828125000001,0,0,0.008173828125000001,81.69741210937501,0)" xlink:href="#at"/></g><path d="M128 359l88-567h206L266 359H128" id="bh"/><g id="ab"><use transform="matrix(0.008173828125000001,0,0,0.008173828125000001,0,0)" xlink:href="#aw"/><use transform="matrix(0.008173828125000001,0,0,0.008173828125000001,6.0241113281250005,0)" xlink:href="#aM"/><use transform="matrix(0.008173828125000001,0,0,0.008173828125000001,16.061572265625003,0)" xlink:href="#aK"/><use transform="matrix(0.008173828125000001,0,0,0.008173828125000001,25.960078125000003,0)" xlink:href="#az"/><use transform="matrix(0.008173828125000001,0,0,0.008173828125000001,31.273066406250003,0)" xlink:href="#at"/><use transform="matrix(0.008173828125000001,0,0,0.008173828125000001,41.0326171875,0)" xlink:href="#bh"/></g><g id="ac"><use transform="matrix(0.008173828125000001,0,0,0.008173828125000001,0,0)" xlink:href="#aQ"/><use transform="matrix(0.008173828125000001,0,0,0.008173828125000001,5.934199218750001,0)" xlink:href="#ar"/><use transform="matrix(0.008173828125000001,0,0,0.008173828125000001,15.334101562500003,0)" xlink:href="#aw"/><use transform="matrix(0.008173828125000001,0,0,0.008173828125000001,21.358212890625005,0)" xlink:href="#at"/><use transform="matrix(0.008173828125000001,0,0,0.008173828125000001,31.117763671875004,0)" xlink:href="#as"/><use transform="matrix(0.008173828125000001,0,0,0.008173828125000001,39.953671875000005,0)" xlink:href="#bh"/></g><g id="ad"><use transform="matrix(0.008173828125000001,0,0,0.008173828125000001,0,0)" xlink:href="#ar"/><use transform="matrix(0.008173828125000001,0,0,0.008173828125000001,9.399902343750002,0)" xlink:href="#au"/><use transform="matrix(0.008173828125000001,0,0,0.008173828125000001,19.290234375000004,0)" xlink:href="#aR"/></g><g id="ae"><use transform="matrix(0.008173828125000001,0,0,0.008173828125000001,0,0)" xlink:href="#aW"/><use transform="matrix(0.008173828125000001,0,0,0.008173828125000001,10.061982421875001,0)" xlink:href="#aU"/><use transform="matrix(0.008173828125000001,0,0,0.008173828125000001,19.445537109375003,0)" xlink:href="#aO"/></g><path d="M600 0L52-1490h200c166 485 304 806 458 1336 156-533 285-846 449-1336h202L819 0H600" id="bi"/><g id="af"><use transform="matrix(0.008173828125000001,0,0,0.008173828125000001,0,0)" xlink:href="#bi"/><use transform="matrix(0.008173828125000001,0,0,0.008173828125000001,10.699541015625002,0)" xlink:href="#ar"/><use transform="matrix(0.008173828125000001,0,0,0.008173828125000001,20.099443359375,0)" xlink:href="#aL"/><use transform="matrix(0.008173828125000001,0,0,0.008173828125000001,24.153662109375002,0)" xlink:href="#aC"/><use transform="matrix(0.008173828125000001,0,0,0.008173828125000001,28.207880859375003,0)" xlink:href="#aR"/><use transform="matrix(0.008173828125000001,0,0,0.008173828125000001,38.457861328125006,0)" xlink:href="#ar"/><use transform="matrix(0.008173828125000001,0,0,0.008173828125000001,47.857763671875006,0)" xlink:href="#az"/><use transform="matrix(0.008173828125000001,0,0,0.008173828125000001,53.170751953125006,0)" xlink:href="#at"/></g><g id="ag"><use transform="matrix(0.008173828125000001,0,0,0.008173828125000001,0,0)" xlink:href="#aI"/><use transform="matrix(0.008173828125000001,0,0,0.008173828125000001,9.563378906250001,0)" xlink:href="#aG"/><use transform="matrix(0.008173828125000001,0,0,0.008173828125000001,19.461884765625,0)" xlink:href="#ar"/><use transform="matrix(0.008173828125000001,0,0,0.008173828125000001,28.861787109375,0)" xlink:href="#au"/><use transform="matrix(0.008173828125000001,0,0,0.008173828125000001,38.752119140625,0)" xlink:href="#av"/><use transform="matrix(0.008173828125000001,0,0,0.008173828125000001,49.018447265625,0)" xlink:href="#at"/></g><g id="ah"><use transform="matrix(0.008173828125000001,0,0,0.008173828125000001,0,0)" xlink:href="#aM"/><use transform="matrix(0.008173828125000001,0,0,0.008173828125000001,10.0374609375,0)" xlink:href="#au"/></g><g id="ai"><use transform="matrix(0.008173828125000001,0,0,0.008173828125000001,0,0)" xlink:href="#aA"/><use transform="matrix(0.008173828125000001,0,0,0.008173828125000001,14.663847656250002,0)" xlink:href="#ar"/><use transform="matrix(0.008173828125000001,0,0,0.008173828125000001,24.063750000000006,0)" xlink:href="#aH"/></g><g id="aj"><use transform="matrix(0.008173828125000001,0,0,0.008173828125000001,0,0)" xlink:href="#ax"/><use transform="matrix(0.008173828125000001,0,0,0.008173828125000001,10.740410156250002,0)" xlink:href="#at"/><use transform="matrix(0.008173828125000001,0,0,0.008173828125000001,20.499960937500003,0)" xlink:href="#aL"/><use transform="matrix(0.008173828125000001,0,0,0.008173828125000001,24.554179687500003,0)" xlink:href="#at"/><use transform="matrix(0.008173828125000001,0,0,0.008173828125000001,34.31373046875,0)" xlink:href="#aI"/><use transform="matrix(0.008173828125000001,0,0,0.008173828125000001,43.877109375,0)" xlink:href="#az"/></g><g id="ak"><use transform="matrix(0.008173828125000001,0,0,0.008173828125000001,0,0)" xlink:href="#aD"/><use transform="matrix(0.008173828125000001,0,0,0.008173828125000001,9.081123046875001,0)" xlink:href="#at"/><use transform="matrix(0.008173828125000001,0,0,0.008173828125000001,18.840673828125002,0)" xlink:href="#aG"/><use transform="matrix(0.008173828125000001,0,0,0.008173828125000001,28.739179687500005,0)" xlink:href="#aC"/><use transform="matrix(0.008173828125000001,0,0,0.008173828125000001,32.7933984375,0)" xlink:href="#aI"/><use transform="matrix(0.008173828125000001,0,0,0.008173828125000001,42.356777343750004,0)" xlink:href="#aL"/><use transform="matrix(0.008173828125000001,0,0,0.008173828125000001,46.41099609375,0)" xlink:href="#at"/></g><g id="al"><use transform="matrix(0.008173828125000001,0,0,0.008173828125000001,0,0)" xlink:href="#az"/><use transform="matrix(0.008173828125000001,0,0,0.008173828125000001,5.803417968750001,0)" xlink:href="#ay"/><use transform="matrix(0.008173828125000001,0,0,0.008173828125000001,15.211494140625001,0)" xlink:href="#aH"/><use transform="matrix(0.008173828125000001,0,0,0.008173828125000001,25.461474609375003,0)" xlink:href="#at"/></g><g id="am"><use transform="matrix(0.008173828125000001,0,0,0.008173828125000001,0,0)" xlink:href="#aI"/><use transform="matrix(0.008173828125000001,0,0,0.008173828125000001,9.563378906250001,0)" xlink:href="#aM"/><use transform="matrix(0.008173828125000001,0,0,0.008173828125000001,19.600839843750002,0)" xlink:href="#au"/><use transform="matrix(0.008173828125000001,0,0,0.008173828125000001,29.491171875000003,0)" xlink:href="#aQ"/><use transform="matrix(0.008173828125000001,0,0,0.008173828125000001,35.686933593750005,0)" xlink:href="#aC"/><use transform="matrix(0.008173828125000001,0,0,0.008173828125000001,39.74115234375,0)" xlink:href="#aw"/><use transform="matrix(0.008173828125000001,0,0,0.008173828125000001,46.304736328125,0)" xlink:href="#aA"/></g><g id="an"><use transform="matrix(0.008173828125000001,0,0,0.008173828125000001,0,0)" xlink:href="#aD"/><use transform="matrix(0.008173828125000001,0,0,0.008173828125000001,9.081123046875001,0)" xlink:href="#at"/><use transform="matrix(0.008173828125000001,0,0,0.008173828125000001,18.840673828125002,0)" xlink:href="#aG"/><use transform="matrix(0.008173828125000001,0,0,0.008173828125000001,28.739179687500005,0)" xlink:href="#aC"/><use transform="matrix(0.008173828125000001,0,0,0.008173828125000001,32.7933984375,0)" xlink:href="#aI"/><use transform="matrix(0.008173828125000001,0,0,0.008173828125000001,42.356777343750004,0)" xlink:href="#aL"/><use transform="matrix(0.008173828125000001,0,0,0.008173828125000001,46.41099609375,0)" xlink:href="#at"/><use transform="matrix(0.008173828125000001,0,0,0.008173828125000001,56.170546875,0)" xlink:href="#as"/><use transform="matrix(0.008173828125000001,0,0,0.008173828125000001,65.006455078125,0)" xlink:href="#bh"/></g><g id="ao"><use transform="matrix(0.008173828125000001,0,0,0.008173828125000001,0,0)" xlink:href="#bg"/><use transform="matrix(0.008173828125000001,0,0,0.008173828125000001,7.797832031250001,0)" xlink:href="#aS"/><use transform="matrix(0.008173828125000001,0,0,0.008173828125000001,20.410048828125003,0)" xlink:href="#aM"/></g><g id="ap"><use transform="matrix(0.008173828125000001,0,0,0.008173828125000001,0,0)" xlink:href="#ar"/><use transform="matrix(0.008173828125000001,0,0,0.008173828125000001,9.154687500000001,0)" xlink:href="#aD"/><use transform="matrix(0.008173828125000001,0,0,0.008173828125000001,18.481025390625,0)" xlink:href="#ar"/><use transform="matrix(0.008173828125000001,0,0,0.008173828125000001,27.880927734375,0)" xlink:href="#aC"/><use transform="matrix(0.008173828125000001,0,0,0.008173828125000001,31.935146484375,0)" xlink:href="#aL"/><use transform="matrix(0.008173828125000001,0,0,0.008173828125000001,35.98936523437501,0)" xlink:href="#ar"/><use transform="matrix(0.008173828125000001,0,0,0.008173828125000001,45.389267578125,0)" xlink:href="#ba"/><use transform="matrix(0.008173828125000001,0,0,0.008173828125000001,55.639248046875004,0)" xlink:href="#aL"/><use transform="matrix(0.008173828125000001,0,0,0.008173828125000001,59.693466796875,0)" xlink:href="#at"/><use transform="matrix(0.008173828125000001,0,0,0.008173828125000001,69.20780273437501,0)" xlink:href="#bg"/></g></defs></g></svg>