<svg xmlns="http://www.w3.org/2000/svg" xmlns:xlink="http://www.w3.org/1999/xlink" xmlns:lucid="lucid" width="1321.78" height="1109.56"><g transform="translate(-229.11111111111126 329.5555555555556)" lucid:page-tab-id="kU-D0vtnhx28"><path d="M0-500h2000v1500H0z" fill="#fff"/><path d="M229.1-317.56a12 12 0 0 1 12-12H900v41.9H229.1zM900-329.56h638.9a12 12 0 0 1 12 12v29.9H900z" stroke="#000" stroke-width="2" fill="#fff"/><path d="M229.1-287.67H900V780H241.1a12 12 0 0 1-12-12zM900-287.67h650.9V768a12 12 0 0 1-12 12H900z" stroke="#000" stroke-width="2" fill="none"/><use xlink:href="#a" transform="matrix(1,0,0,1,229.11111111111126,-329.5555555555556) translate(279.9173177083333 29.08376736111111)"/><use xlink:href="#b" transform="matrix(1,0,0,1,900,-329.5555555555556) translate(286.52430555555554 29.08376736111111)"/><path d="M600-255.7c0 11.05-8.95 20-20 20s-20-8.95-20-20c0-11.04 8.95-20 20-20s20 8.96 20 20z" stroke="#000" stroke-width="2"/><path d="M580-234.2v28.06" stroke="#3a414a" fill="none"/><path d="M579.96-234.7h.5v.52h-.94v-.56z" stroke="#3a414a" stroke-width=".05" fill="#3a414a"/><path d="M590-215l-10 17.3-10-17.3m10 17.3v-8.5" stroke="#3a414a" fill="none"/><path d="M516-195.7c-8.84 0-16 7.17-16 16v48c0 8.84 7.16 16 16 16h128c8.84 0 16-7.16 16-16v-48c0-8.83-7.16-16-16-16z" stroke="#000" stroke-width="2" fill="#fff"/><use xlink:href="#c" transform="matrix(1,0,0,1,508,-187.69123745776392) translate(0 24.272916666666667)"/><use xlink:href="#d" transform="matrix(1,0,0,1,508,-187.69123745776392) translate(55.395833333333336 24.272916666666667)"/><use xlink:href="#e" transform="matrix(1,0,0,1,508,-187.69123745776392) translate(0 55.24791666666667)"/><use xlink:href="#f" transform="matrix(1,0,0,1,508,-187.69123745776392) translate(39.57291666666667 55.24791666666667)"/><path d="M661.5-155.7h350.54" stroke="#3a414a" fill="none"/><path d="M661.5-155.22h-.5v-.95h.5z" stroke="#3a414a" stroke-width=".05" fill="#3a414a"/><path d="M1003.16-165.7l17.32 10-17.32 10m17.32-10h-8.5" stroke="#3a414a" fill="none"/><path d="M805 3.9l1 .25.94.4.87.52.78.66.66.77.53.87.4.94.23 1 .08 1v84.56h-.96V10.33l-.06-.88-.2-.85-.34-.8-.45-.74-.56-.66-.65-.56-.74-.45-.8-.34-.84-.2-.88-.08h-51.95v-.95h52zm-205.98.88v-.95H637v.95z" stroke="#3a414a" stroke-width=".05" fill="#3a414a"/><path d="M599.03 4.78h-.55l.04-.47-.04-.47h.55z" fill="#3a414a"/><path stroke="#3a414a" stroke-width=".05" fill="#3a414a"/><path d="M820.4 86.23L810 104.26l-10.4-18.03.8-.48 9.13 15.8V94.8h.95v6.74l9.1-15.8z" stroke="#3a414a" stroke-width=".05" fill="#3a414a"/><use xlink:href="#g" transform="matrix(1,0,0,1,637.0041882141821,-8.597487457763918) translate(0 20.666666666666668)"/><use xlink:href="#h" transform="matrix(1,0,0,1,637.0041882141821,-8.597487457763918) translate(63.17708333333334 20.666666666666668)"/><path d="M881.5 144.3H1154a6 6 0 0 1 6 6v41.74" stroke="#3a414a" fill="none"/><path d="M881.5 144.78h-.5v-.95h.5z" stroke="#3a414a" stroke-width=".05" fill="#3a414a"/><path d="M1170 183.16l-10 17.32-10-17.32m10 17.32v-8.5" stroke="#3a414a" fill="none"/><path d="M1476-156.1l1 .25.94.4.87.52.78.66.66.77.53.87.4.94.23 1 .07 1V404l-.07 1-.24.98-.4.94-.52.87-.66.78-.77.66-.86.53-.94.4-1 .23-.98.08h-33.52v-.96h33.48l.88-.06.85-.2.8-.34.75-.45.66-.56.57-.65.45-.74.33-.8.2-.84.08-.88v-553.65l-.07-.9-.2-.83-.34-.8-.45-.74-.56-.66-.65-.56-.74-.45-.8-.34-.84-.2-.88-.08h-407.02v-.95h407.06z" stroke="#3a414a" stroke-width=".05" fill="#3a414a"/><path d="M1441.5 410.48h-.5v-.96h.5z" fill="#3a414a"/><path stroke="#3a414a" stroke-width=".05" fill="#3a414a"/><path d="M1077.08-165.28l-15.8 9.1h6.74v.96h-6.73l15.78 9.12-.48.82-18.03-10.4 18.03-10.42zM400.48 94.86h-.96V17.22h.96zm51.37-90.08h-28.7v-.95h28.7zm109.13 0h-51.96v-.95h51.96z" stroke="#3a414a" stroke-width=".05" fill="#3a414a"/><path d="M561.48 4.3l.04.48h-.55v-.95h.55z" fill="#3a414a"/><path stroke="#3a414a" stroke-width=".05" fill="#3a414a"/><path d="M410.4 86.23L400 104.26l-10.4-18.03.8-.48 9.13 15.8V94.8h.95v6.74l9.1-15.8z" stroke="#3a414a" stroke-width=".05" fill="#3a414a"/><use xlink:href="#i" transform="matrix(1,0,0,1,451.84544533991897,-24.08498745776392) translate(0 20.666666666666668)"/><use xlink:href="#j" transform="matrix(1,0,0,1,451.84544533991897,-24.08498745776392) translate(0 51.641666666666666)"/><path d="M400 185.8v392.56a6 6 0 0 0 6 6h523.56" stroke="#3a414a" fill="none"/><path d="M400.48 185.82h-.96v-.5h.96z" stroke="#3a414a" stroke-width=".05" fill="#3a414a"/><path d="M920.68 574.36l17.32 10-17.32 10m17.32-10h-8.5M1020 621.5V654a6 6 0 0 1-6 6H810.44" stroke="#3a414a" fill="none"/><path d="M1020.48 621.5h-.96v-.5h.96z" stroke="#3a414a" stroke-width=".05" fill="#3a414a"/><path d="M819.32 670L802 660l17.32-10M802 660h8.5" stroke="#3a414a" fill="none"/><path d="M656 620c-8.84 0-16 7.16-16 16v48c0 8.84 7.16 16 16 16h128c8.84 0 16-7.16 16-16v-48c0-8.84-7.16-16-16-16z" stroke="#000" stroke-width="2" fill="#fff"/><use xlink:href="#k" transform="matrix(1,0,0,1,648,628) translate(0 24.272916666666667)"/><use xlink:href="#l" transform="matrix(1,0,0,1,648,628) translate(84.19791666666667 24.272916666666667)"/><use xlink:href="#m" transform="matrix(1,0,0,1,648,628) translate(0 55.24791666666667)"/><path d="M1515-156.1l1 .25.94.4.87.52.78.66.66.77.53.87.4.94.23 1 .07 1V735l-.07 1-.24.98-.4.94-.52.87-.66.78-.77.66-.86.53-.94.4-1 .23-.98.08H725.98l-1-.08-.98-.24-.94-.4-.87-.52-.78-.66-.66-.77-.53-.86-.4-.94-.23-1-.08-.98V701.5h.96v33.48l.06.88.2.85.34.8.45.75.56.66.65.57.74.45.8.33.84.2.88.07h787.96l.88-.06.85-.2.8-.34.75-.45.66-.56.57-.65.45-.74.33-.8.2-.84.08-.88v-884.65l-.07-.9-.2-.83-.34-.8-.45-.74-.56-.66-.65-.56-.74-.45-.8-.34-.84-.2-.88-.08h-446.02v-.95h446.06z" stroke="#3a414a" stroke-width=".05" fill="#3a414a"/><path d="M720.48 701.5h-.96v-.5h.96z" fill="#3a414a"/><path stroke="#3a414a" stroke-width=".05" fill="#3a414a"/><path d="M1077.08-165.28l-15.8 9.1h6.74v.96h-6.73l15.78 9.12-.48.82-18.03-10.4 18.03-10.42zM1355 219.6l1 .24.94.4.87.52.78.66.66.77.53.86.4.94.23 1 .07.98v103.58h-.94V226.02l-.07-.88-.2-.85-.34-.8-.45-.75-.56-.66-.65-.57-.74-.45-.8-.33-.84-.2-.88-.08h-4.14v-.94h4.18zm-175.98.88v-.95h44.47v.94z" stroke="#3a414a" stroke-width=".05" fill="#3a414a"/><path d="M1179.03 220.47h-.55l.04-.47-.04-.47h.55z" fill="#3a414a"/><path stroke="#3a414a" stroke-width=".05" fill="#3a414a"/><path d="M1370.4 320.92l-10.4 18.03-10.4-18.03.8-.48 9.13 15.8v-6.74h.94v6.73l9.12-15.8z" stroke="#3a414a" stroke-width=".05" fill="#3a414a"/><use xlink:href="#n" transform="matrix(1,0,0,1,1223.4947916666667,207.09375) translate(0 20.666666666666668)"/><use xlink:href="#o" transform="matrix(1,0,0,1,1223.4947916666667,207.09375) translate(75.46875000000001 20.666666666666668)"/><path d="M1020.48 329.56h-.96V248.4h.96zm120.5-109.1h-74.02v-.94h74.02z" stroke="#3a414a" stroke-width=".05" fill="#3a414a"/><path d="M1141.48 220l.04.47h-.55v-.94h.55z" fill="#3a414a"/><path stroke="#3a414a" stroke-width=".05" fill="#3a414a"/><path d="M1030.4 320.92l-10.4 18.03-10.4-18.03.8-.48 9.13 15.8v-6.74h.95v6.73l9.1-15.8z" stroke="#3a414a" stroke-width=".05" fill="#3a414a"/><use xlink:href="#p" transform="matrix(1,0,0,1,975.5223598719678,191.60625) translate(0 20.666666666666668)"/><use xlink:href="#q" transform="matrix(1,0,0,1,975.5223598719678,191.60625) translate(0 51.641666666666666)"/><path d="M1476-156.1l1 .25.94.4.87.52.78.66.66.77.53.87.4.94.23 1 .07 1V504l-.07 1-.24.98-.4.94-.52.87-.66.78-.77.66-.86.53-.94.4-1 .23-.98.08h-449.04l-1-.08-.98-.24-.94-.4-.87-.52-.78-.66-.66-.77-.53-.86-.4-.94-.23-1-.08-.98V441.5h.96v62.48l.06.88.2.85.34.8.45.75.56.66.65.57.74.45.8.33.84.2.88.07h448.96l.88-.06.85-.2.8-.34.75-.45.66-.56.57-.65.45-.74.33-.8.2-.84.08-.88v-653.65l-.07-.9-.2-.83-.34-.8-.45-.74-.56-.66-.65-.56-.74-.45-.8-.34-.84-.2-.88-.08h-407.02v-.95h407.06z" stroke="#3a414a" stroke-width=".05" fill="#3a414a"/><path d="M1020.48 441.5h-.96v-.5h.96z" fill="#3a414a"/><path stroke="#3a414a" stroke-width=".05" fill="#3a414a"/><path d="M1077.08-165.28l-15.8 9.1h6.74v.96h-6.73l15.78 9.12-.48.82-18.03-10.4 18.03-10.42z" stroke="#3a414a" stroke-width=".05" fill="#3a414a"/><path d="M1308 340c-15.46 0-28 12.54-28 28v84c0 15.46 12.54 28 28 28h104c15.46 0 28-12.54 28-28v-84c0-15.46-12.54-28-28-28z" stroke="#000" stroke-width="2" fill="#fff"/><use xlink:href="#r" transform="matrix(1,0,0,1,1288,347.99999999999994) translate(0 23.29791666666667)"/><use xlink:href="#s" transform="matrix(1,0,0,1,1288,347.99999999999994) translate(0 54.272916666666674)"/><use xlink:href="#t" transform="matrix(1,0,0,1,1288,347.99999999999994) translate(87.73958333333333 54.272916666666674)"/><use xlink:href="#u" transform="matrix(1,0,0,1,1288,347.99999999999994) translate(0 85.24791666666667)"/><use xlink:href="#v" transform="matrix(1,0,0,1,1288,347.99999999999994) translate(19.739583333333336 85.24791666666667)"/><use xlink:href="#w" transform="matrix(1,0,0,1,1288,347.99999999999994) translate(61.12500000000001 85.24791666666667)"/><use xlink:href="#x" transform="matrix(1,0,0,1,1288,347.99999999999994) translate(0 116.22291666666668)"/><path d="M960 340c-11.05 0-20 8.95-20 20v60c0 11.05 8.95 20 20 20h120c11.05 0 20-8.95 20-20v-60c0-11.05-8.95-20-20-20z" stroke="#000" stroke-width="2" fill="#fff"/><use xlink:href="#y" transform="matrix(1,0,0,1,948,348) translate(0 20.666666666666668)"/><use xlink:href="#z" transform="matrix(1,0,0,1,948,348) translate(79.1875 20.666666666666668)"/><use xlink:href="#A" transform="matrix(1,0,0,1,948,348) translate(0 51.641666666666666)"/><use xlink:href="#B" transform="matrix(1,0,0,1,948,348) translate(85.87500000000001 51.641666666666666)"/><use xlink:href="#C" transform="matrix(1,0,0,1,948,348) translate(0 82.61666666666666)"/><use xlink:href="#x" transform="matrix(1,0,0,1,948,348) translate(67.06250000000001 82.61666666666666)"/><path d="M756 104.3c-8.84 0-16 7.17-16 16v48c0 8.84 7.16 16 16 16h108c8.84 0 16-7.16 16-16v-48c0-8.83-7.16-16-16-16z" stroke="#000" stroke-width="2" fill="#fff"/><use xlink:href="#D" transform="matrix(1,0,0,1,748,112.30876254223608) translate(0 24.272916666666667)"/><use xlink:href="#E" transform="matrix(1,0,0,1,748,112.30876254223608) translate(43.25000000000001 24.272916666666667)"/><use xlink:href="#F" transform="matrix(1,0,0,1,748,112.30876254223608) translate(0 55.24791666666667)"/><use xlink:href="#G" transform="matrix(1,0,0,1,748,112.30876254223608) translate(25.562500000000004 55.24791666666667)"/><path d="M956 540c-8.84 0-16 7.16-16 16v48c0 8.84 7.16 16 16 16h128c8.84 0 16-7.16 16-16v-48c0-8.84-7.16-16-16-16z" stroke="#000" stroke-width="2" fill="#fff"/><g><use xlink:href="#H" transform="matrix(1,0,0,1,948,548) translate(0 24.272916666666667)"/><use xlink:href="#l" transform="matrix(1,0,0,1,948,548) translate(79.70833333333333 24.272916666666667)"/><use xlink:href="#m" transform="matrix(1,0,0,1,948,548) translate(0 55.24791666666667)"/></g><path d="M575.76-11.45a6 6 0 0 1 8.48 0L595.76.07a6 6 0 0 1 0 8.48l-11.52 11.52a6 6 0 0 1-8.48 0L564.24 8.55a6 6 0 0 1 0-8.48zM1155.76 204.24a6 6 0 0 1 8.48 0l11.52 11.52a6 6 0 0 1 0 8.48l-11.52 11.52a6 6 0 0 1-8.48 0l-11.52-11.52a6 6 0 0 1 0-8.48z" stroke="#000" stroke-width="2" fill="#fff"/><path d="M958.5-45.7H586a6 6 0 0 0-6 6v16.05" stroke="#3a414a" fill="none"/><path d="M959-45.22h-.5v-.95h.5z" stroke="#3a414a" stroke-width=".05" fill="#3a414a"/><path d="M590-32.53L580-15.2l-10-17.33m10 17.32v-8.5M1040-136.67v30.53" stroke="#3a414a" fill="none"/><path d="M1040-137.17l.47-.04v.54h-.94v-.55z" stroke="#3a414a" stroke-width=".05" fill="#3a414a"/><path d="M1050-115l-10 17.3-10-17.3m10 17.3v-8.5" stroke="#3a414a" fill="none"/><path d="M354.6 4.78h-68.58l-.88.07-.85.2-.8.34-.75.44-.66.56-.57.66-.45.74-.33.8-.2.85-.07.88v679.23h-.96V10.3l.08-1 .24-1 .4-.93.52-.87.66-.77.77-.66.86-.53.94-.4 1-.23.98-.07h68.62zm97.25 0h-28.7v-.95h28.7zm109.13 0h-51.96v-.95h51.96z" stroke="#3a414a" stroke-width=".05" fill="#3a414a"/><path d="M561.48 4.3l.04.48h-.55v-.95h.55z" fill="#3a414a"/><path stroke="#3a414a" stroke-width=".05" fill="#3a414a"/><path d="M290.4 680.92L280 698.95l-10.4-18.03.8-.48 9.13 15.8v-6.74h.95v6.73l9.1-15.8z" stroke="#3a414a" stroke-width=".05" fill="#3a414a"/><g><use xlink:href="#I" transform="matrix(1,0,0,1,354.6005197669074,-8.597487457763918) translate(0 20.666666666666668)"/></g><path d="M336 104.3c-8.84 0-16 7.17-16 16v48c0 8.84 7.16 16 16 16h128c8.84 0 16-7.16 16-16v-48c0-8.83-7.16-16-16-16z" stroke="#000" stroke-width="2" fill="#fff"/><g><use xlink:href="#D" transform="matrix(1,0,0,1,328,112.30876254223608) translate(0 24.272916666666667)"/><use xlink:href="#J" transform="matrix(1,0,0,1,328,112.30876254223608) translate(43.25000000000001 24.272916666666667)"/><use xlink:href="#K" transform="matrix(1,0,0,1,328,112.30876254223608) translate(0 55.24791666666667)"/></g><path d="M300 720c0 11.05-8.95 20-20 20s-20-8.95-20-20 8.95-20 20-20 20 8.95 20 20z" stroke="#000" stroke-width="2" fill="#fff"/><path d="M292 720c0 6.63-5.37 12-12 12s-12-5.37-12-12 5.37-12 12-12 12 5.37 12 12z" stroke="#000" stroke-width="2"/><path d="M1035.76-171.45a6 6 0 0 1 8.48 0l11.52 11.52a6 6 0 0 1 0 8.48l-11.52 11.52a6 6 0 0 1-8.48 0l-11.52-11.52a6 6 0 0 1 0-8.48zM980-95.7c-11.05 0-20 8.96-20 20v60c0 11.05 8.95 20 20 20h120c11.05 0 20-8.95 20-20v-60c0-11.04-8.95-20-20-20z" stroke="#000" stroke-width="2" fill="#fff"/><g><use xlink:href="#H" transform="matrix(1,0,0,1,968,-87.69123745776392) translate(0 20.666666666666668)"/><use xlink:href="#z" transform="matrix(1,0,0,1,968,-87.69123745776392) translate(79.70833333333333 20.666666666666668)"/><use xlink:href="#L" transform="matrix(1,0,0,1,968,-87.69123745776392) translate(0 51.641666666666666)"/><use xlink:href="#M" transform="matrix(1,0,0,1,968,-87.69123745776392) translate(78.30208333333334 51.641666666666666)"/><use xlink:href="#N" transform="matrix(1,0,0,1,968,-87.69123745776392) translate(0 82.61666666666666)"/><use xlink:href="#K" transform="matrix(1,0,0,1,968,-87.69123745776392) translate(43.645833333333336 82.61666666666666)"/></g><defs><path d="M180 0v-1490h510c348 0 508 209 508 474 0 266-160 477-507 477H370V0H180zm190-706h312c236 0 327-133 327-310 0-176-91-307-329-307H370v617" id="O"/><path d="M471 26C259 26 90-98 90-318c0-256 228-303 435-329 202-27 287-16 287-108 0-139-79-219-234-219-161 0-248 86-283 164l-173-57c86-203 278-265 451-265 150 0 419 46 419 395V0H815v-152h-12C765-73 660 26 471 26zm31-159c199 0 310-134 310-271v-155c-30 35-226 55-295 64-131 17-246 59-246 186 0 116 97 176 231 176" id="P"/><path d="M538 24C308 24 148-78 108-271l171-41c32 123 123 178 257 178 156 0 256-77 256-169 0-77-54-128-164-154l-186-44c-203-48-300-148-300-305 0-192 176-326 414-326 230 0 351 112 402 269l-163 42c-31-80-94-158-238-158-133 0-233 69-233 162 0 83 57 129 188 160l169 40c203 48 298 149 298 302 0 196-179 339-441 339" id="Q"/><path d="M628 24c-324 0-524-230-524-574 0-343 198-582 503-582 237 0 487 146 487 559v75H286c9 234 145 362 343 362 132 0 231-58 273-172l174 48C1024-91 857 24 628 24zM287-650h624c-17-190-120-322-304-322-192 0-309 151-320 322" id="R"/><path d="M338-670V0H158v-1118h173l1 207c72-158 192-221 342-221 226 0 378 139 378 422V0H872v-695c0-172-96-275-252-275-161 0-282 109-282 300" id="S"/><path d="M611 442c-248 0-391-105-460-228l146-94c47 65 117 165 314 165 178 0 307-82 307-266v-224h-17C863-141 792-18 576-18c-268 0-472-195-472-546 0-346 197-568 476-568 216 0 288 133 326 193h17v-179h175V29c0 289-215 413-487 413zm-5-620c203 0 314-146 314-390 0-237-108-403-314-403-213 0-319 180-319 403 0 230 109 390 319 390" id="T"/><path d="M158 0v-1118h174v172h12c41-113 157-188 290-188 26 0 70 2 91 3v181c-11-2-60-10-108-10-161 0-279 109-279 260V0H158" id="U"/><g id="a"><use transform="matrix(0.010850694444444444,0,0,0.010850694444444444,0,0)" xlink:href="#O"/><use transform="matrix(0.010850694444444444,0,0,0.010850694444444444,14.192708333333332,0)" xlink:href="#P"/><use transform="matrix(0.010850694444444444,0,0,0.010850694444444444,26.671006944444443,0)" xlink:href="#Q"/><use transform="matrix(0.010850694444444444,0,0,0.010850694444444444,38.400607638888886,0)" xlink:href="#Q"/><use transform="matrix(0.010850694444444444,0,0,0.010850694444444444,50.13020833333333,0)" xlink:href="#R"/><use transform="matrix(0.010850694444444444,0,0,0.010850694444444444,63.0859375,0)" xlink:href="#S"/><use transform="matrix(0.010850694444444444,0,0,0.010850694444444444,76.21527777777777,0)" xlink:href="#T"/><use transform="matrix(0.010850694444444444,0,0,0.010850694444444444,89.84375,0)" xlink:href="#R"/><use transform="matrix(0.010850694444444444,0,0,0.010850694444444444,102.79947916666666,0)" xlink:href="#U"/></g><path d="M657 26c-323 0-524-166-541-416h195c15 169 171 246 346 246 202 0 356-106 356-265 5-203-294-238-475-293-239-73-380-191-380-389 0-252 224-419 512-419 294 0 499 171 508 396H992c-17-145-151-228-328-228-193 0-321 102-321 242 0 156 175 211 284 241l149 41c160 44 422 134 422 412 0 244-197 432-541 432" id="V"/><path d="M140 405l46-156c120 36 205 19 263-150l32-93L54-1118h197c107 313 237 620 324 950 87-331 219-637 326-950h196L606 167c-68 178-176 259-334 259-64 0-113-12-132-21" id="W"/><path d="M598-1118v154H368v674c0 100 37 144 132 144 23 0 62-6 92-12L629-6c-37 13-88 20-134 20-193 0-307-107-307-290v-688H20v-154h168v-266h180v266h230" id="X"/><path d="M158 0v-1118h175l1 205c55-151 181-225 313-225 147 0 245 90 285 228 53-141 190-228 352-228 194 0 352 125 352 384V0h-181v-749c0-161-105-225-225-225-151 0-243 103-243 244V0H807v-767c0-124-93-207-219-207-131 0-250 92-250 270V0H158" id="Y"/><g id="b"><use transform="matrix(0.010850694444444444,0,0,0.010850694444444444,0,0)" xlink:href="#V"/><use transform="matrix(0.010850694444444444,0,0,0.010850694444444444,14.2578125,0)" xlink:href="#W"/><use transform="matrix(0.010850694444444444,0,0,0.010850694444444444,26.74696180555556,0)" xlink:href="#Q"/><use transform="matrix(0.010850694444444444,0,0,0.010850694444444444,38.4765625,0)" xlink:href="#X"/><use transform="matrix(0.010850694444444444,0,0,0.010850694444444444,45.5295138888889,0)" xlink:href="#R"/><use transform="matrix(0.010850694444444444,0,0,0.010850694444444444,58.48524305555555,0)" xlink:href="#Y"/></g><path d="M600 0L52-1490h200c166 485 304 806 458 1336 156-533 285-846 449-1336h202L819 0H600" id="Z"/><path d="M158 0v-1118h180V0H158zm91-1301c-68 0-125-53-125-119s57-119 125-119c69 0 126 53 126 119s-57 119-126 119" id="aa"/><path d="M409 0L70-1118h191c89 329 165 560 243 925 75-353 154-601 240-925h192c85 325 161 564 235 922 77-354 157-598 244-922h191L1267 0h-179c-86-307-176-590-250-913C763-588 675-308 588 0H409" id="ab"/><g id="c"><use transform="matrix(0.010416666666666668,0,0,0.010416666666666668,0,0)" xlink:href="#Z"/><use transform="matrix(0.010416666666666668,0,0,0.010416666666666668,14.718750000000002,0)" xlink:href="#aa"/><use transform="matrix(0.010416666666666668,0,0,0.010416666666666668,19.885416666666668,0)" xlink:href="#R"/><use transform="matrix(0.010416666666666668,0,0,0.010416666666666668,31.9375,0)" xlink:href="#ab"/></g><path d="M613 24c-304 0-509-231-509-576 0-350 205-580 509-580 216 0 392 114 453 309l-173 49c-33-115-133-197-280-197-223 0-326 196-326 419 0 220 103 415 326 415 150 0 252-85 285-206l172 49C1010-95 832 24 613 24" id="ac"/><path d="M481 0L54-1118h197c107 314 236 620 325 951 87-331 217-637 324-951h197L670 0H481" id="ad"/><g id="d"><use transform="matrix(0.010416666666666668,0,0,0.010416666666666668,0,0)" xlink:href="#P"/><use transform="matrix(0.010416666666666668,0,0,0.010416666666666668,11.979166666666668,0)" xlink:href="#ac"/><use transform="matrix(0.010416666666666668,0,0,0.010416666666666668,24.166666666666668,0)" xlink:href="#X"/><use transform="matrix(0.010416666666666668,0,0,0.010416666666666668,31.145833333333343,0)" xlink:href="#aa"/><use transform="matrix(0.010416666666666668,0,0,0.010416666666666668,36.31250000000001,0)" xlink:href="#ad"/><use transform="matrix(0.010416666666666668,0,0,0.010416666666666668,47.88541666666668,0)" xlink:href="#R"/></g><path d="M158 418v-1536h174v179h20c37-59 106-193 324-193 279 0 474 222 474 576 0 356-194 580-473 580-213 0-288-135-325-197h-14v591H158zm492-555c209 0 317-186 317-421 0-232-105-413-317-413-206 0-314 166-314 413 0 249 111 421 314 421" id="ae"/><g id="e"><use transform="matrix(0.010416666666666668,0,0,0.010416666666666668,0,0)" xlink:href="#X"/><use transform="matrix(0.010416666666666668,0,0,0.010416666666666668,6.979166666666668,0)" xlink:href="#U"/><use transform="matrix(0.010416666666666668,0,0,0.010416666666666668,15.343750000000004,0)" xlink:href="#aa"/><use transform="matrix(0.010416666666666668,0,0,0.010416666666666668,20.51041666666667,0)" xlink:href="#ae"/></g><g id="f"><use transform="matrix(0.010416666666666668,0,0,0.010416666666666668,0,0)" xlink:href="#Q"/><use transform="matrix(0.010416666666666668,0,0,0.010416666666666668,11.260416666666668,0)" xlink:href="#ac"/><use transform="matrix(0.010416666666666668,0,0,0.010416666666666668,23.447916666666668,0)" xlink:href="#U"/><use transform="matrix(0.010416666666666668,0,0,0.010416666666666668,31.125000000000007,0)" xlink:href="#R"/><use transform="matrix(0.010416666666666668,0,0,0.010416666666666668,43.56250000000001,0)" xlink:href="#R"/><use transform="matrix(0.010416666666666668,0,0,0.010416666666666668,56.00000000000001,0)" xlink:href="#S"/></g><path d="M226 279v-1860h398v153H398V126h226v153H226" id="af"/><g id="g"><use transform="matrix(0.010416666666666668,0,0,0.010416666666666668,0,0)" xlink:href="#af"/><use transform="matrix(0.010416666666666668,0,0,0.010416666666666668,7.781250000000001,0)" xlink:href="#Z"/><use transform="matrix(0.010416666666666668,0,0,0.010416666666666668,22.500000000000004,0)" xlink:href="#aa"/><use transform="matrix(0.010416666666666668,0,0,0.010416666666666668,27.66666666666667,0)" xlink:href="#R"/><use transform="matrix(0.010416666666666668,0,0,0.010416666666666668,39.71875000000001,0)" xlink:href="#ab"/></g><path d="M180 0v-1490h270l367 940c28 72 75 218 110 339 35-117 81-264 110-339l362-940h271V0h-187c2-448-5-837 7-1287-157 497-311 829-483 1287H842C666-458 514-784 354-1284c12 438 5 843 7 1284H180" id="ag"/><path d="M123 279V126h226v-1554H123v-153h398V279H123" id="ah"/><g id="h"><use transform="matrix(0.010416666666666668,0,0,0.010416666666666668,0,0)" xlink:href="#ag"/><use transform="matrix(0.010416666666666668,0,0,0.010416666666666668,19.270833333333336,0)" xlink:href="#P"/><use transform="matrix(0.010416666666666668,0,0,0.010416666666666668,31.250000000000004,0)" xlink:href="#ae"/><use transform="matrix(0.010416666666666668,0,0,0.010416666666666668,44.07291666666667,0)" xlink:href="#ah"/></g><g id="i"><use transform="matrix(0.010416666666666668,0,0,0.010416666666666668,0,0)" xlink:href="#af"/><use transform="matrix(0.010416666666666668,0,0,0.010416666666666668,7.781250000000001,0)" xlink:href="#Z"/><use transform="matrix(0.010416666666666668,0,0,0.010416666666666668,22.500000000000004,0)" xlink:href="#aa"/><use transform="matrix(0.010416666666666668,0,0,0.010416666666666668,27.66666666666667,0)" xlink:href="#R"/><use transform="matrix(0.010416666666666668,0,0,0.010416666666666668,39.71875000000001,0)" xlink:href="#ab"/></g><path d="M180 0v-1490h901v168H370v510h643v168H370V0H180" id="ai"/><g id="j"><use transform="matrix(0.010416666666666668,0,0,0.010416666666666668,0,0)" xlink:href="#ai"/><use transform="matrix(0.010416666666666668,0,0,0.010416666666666668,12.072916666666668,0)" xlink:href="#P"/><use transform="matrix(0.010416666666666668,0,0,0.010416666666666668,24.052083333333336,0)" xlink:href="#U"/><use transform="matrix(0.010416666666666668,0,0,0.010416666666666668,31.72916666666667,0)" xlink:href="#R"/><use transform="matrix(0.010416666666666668,0,0,0.010416666666666668,43.927083333333336,0)" xlink:href="#ah"/></g><path d="M645 0H180v-1490h484c435 0 692 280 692 742 0 466-257 748-711 748zM370-168h263c363 0 539-218 539-580 0-358-176-574-521-574H370v1154" id="aj"/><g id="k"><use transform="matrix(0.010416666666666668,0,0,0.010416666666666668,0,0)" xlink:href="#aj"/><use transform="matrix(0.010416666666666668,0,0,0.010416666666666668,15.395833333333336,0)" xlink:href="#aa"/><use transform="matrix(0.010416666666666668,0,0,0.010416666666666668,20.562500000000004,0)" xlink:href="#Q"/><use transform="matrix(0.010416666666666668,0,0,0.010416666666666668,31.82291666666667,0)" xlink:href="#Y"/><use transform="matrix(0.010416666666666668,0,0,0.010416666666666668,50.51041666666667,0)" xlink:href="#aa"/><use transform="matrix(0.010416666666666668,0,0,0.010416666666666668,55.67708333333334,0)" xlink:href="#Q"/><use transform="matrix(0.010416666666666668,0,0,0.010416666666666668,66.9375,0)" xlink:href="#Q"/></g><path d="M678-1118v154H420V0H240v-964H20v-154h220v-149c0-194 155-293 318-293 85 0 141 18 168 30l-50 154c-19-6-47-17-97-17-111 0-159 58-159 166v109h258" id="ak"/><g id="l"><use transform="matrix(0.010416666666666668,0,0,0.010416666666666668,0,0)" xlink:href="#ak"/><use transform="matrix(0.010416666666666668,0,0,0.010416666666666668,7.562500000000001,0)" xlink:href="#P"/><use transform="matrix(0.010416666666666668,0,0,0.010416666666666668,19.541666666666668,0)" xlink:href="#U"/><use transform="matrix(0.010416666666666668,0,0,0.010416666666666668,27.21875,0)" xlink:href="#R"/></g><path d="M677 24c-213 0-288-135-325-197h-20V0H158v-1490h180v551h14c37-59 106-193 324-193 279 0 474 222 474 576 0 356-194 580-473 580zm-27-161c209 0 317-186 317-421 0-232-105-413-317-413-206 0-314 166-314 413 0 249 111 421 314 421" id="al"/><path d="M158 0v-1490h180v865h22l478-493h223L593-638 1096 0H865L456-523 338-412V0H158" id="am"/><path d="M577 24c-279 0-473-224-473-580 0-354 195-576 474-576 218 0 287 134 324 193h14v-551h180V0H922v-173h-20C865-111 790 24 577 24zm27-161c203 0 314-172 314-421 0-247-108-413-314-413-212 0-317 181-317 413 0 235 108 421 317 421" id="an"/><path d="M613 24c-304 0-509-231-509-576 0-350 205-580 509-580 305 0 511 230 511 580 0 345-206 576-511 576zm0-161c226 0 329-195 329-415 0-222-103-419-329-419-223 0-326 196-326 419 0 220 103 415 326 415" id="ao"/><g id="m"><use transform="matrix(0.010416666666666668,0,0,0.010416666666666668,0,0)" xlink:href="#al"/><use transform="matrix(0.010416666666666668,0,0,0.010416666666666668,13.062500000000002,0)" xlink:href="#U"/><use transform="matrix(0.010416666666666668,0,0,0.010416666666666668,20.739583333333336,0)" xlink:href="#R"/><use transform="matrix(0.010416666666666668,0,0,0.010416666666666668,33.38541666666667,0)" xlink:href="#P"/><use transform="matrix(0.010416666666666668,0,0,0.010416666666666668,45.364583333333336,0)" xlink:href="#am"/><use transform="matrix(0.010416666666666668,0,0,0.010416666666666668,56.593750000000014,0)" xlink:href="#an"/><use transform="matrix(0.010416666666666668,0,0,0.010416666666666668,69.65625000000001,0)" xlink:href="#ao"/><use transform="matrix(0.010416666666666668,0,0,0.010416666666666668,82.06250000000001,0)" xlink:href="#ab"/><use transform="matrix(0.010416666666666668,0,0,0.010416666666666668,99.52083333333334,0)" xlink:href="#S"/></g><path d="M338-1490V0H158v-1490h180" id="ap"/><g id="n"><use transform="matrix(0.010416666666666668,0,0,0.010416666666666668,0,0)" xlink:href="#af"/><use transform="matrix(0.010416666666666668,0,0,0.010416666666666668,7.781250000000001,0)" xlink:href="#V"/><use transform="matrix(0.010416666666666668,0,0,0.010416666666666668,21.468750000000004,0)" xlink:href="#aa"/><use transform="matrix(0.010416666666666668,0,0,0.010416666666666668,26.635416666666668,0)" xlink:href="#T"/><use transform="matrix(0.010416666666666668,0,0,0.010416666666666668,39.71875000000001,0)" xlink:href="#S"/><use transform="matrix(0.010416666666666668,0,0,0.010416666666666668,52.32291666666667,0)" xlink:href="#P"/><use transform="matrix(0.010416666666666668,0,0,0.010416666666666668,64.30208333333334,0)" xlink:href="#ap"/></g><path d="M180 0v-1490h190v1322h690V0H180" id="aq"/><g id="o"><use transform="matrix(0.010416666666666668,0,0,0.010416666666666668,0,0)" xlink:href="#aq"/><use transform="matrix(0.010416666666666668,0,0,0.010416666666666668,12.062500000000002,0)" xlink:href="#ao"/><use transform="matrix(0.010416666666666668,0,0,0.010416666666666668,24.854166666666668,0)" xlink:href="#Q"/><use transform="matrix(0.010416666666666668,0,0,0.010416666666666668,36.11458333333334,0)" xlink:href="#X"/><use transform="matrix(0.010416666666666668,0,0,0.010416666666666668,43.093750000000014,0)" xlink:href="#ah"/></g><path d="M789 20c-398 0-667-293-667-764 0-473 273-766 655-766 315 0 558 198 612 487h-196c-61-191-204-311-415-311-262 0-471 207-471 590 0 380 208 588 482 588 249 0 420-165 425-427H828v-166h572v163c0 370-256 606-611 606" id="ar"/><g id="p"><use transform="matrix(0.010416666666666668,0,0,0.010416666666666668,0,0)" xlink:href="#af"/><use transform="matrix(0.010416666666666668,0,0,0.010416666666666668,7.781250000000001,0)" xlink:href="#ar"/><use transform="matrix(0.010416666666666668,0,0,0.010416666666666668,23.697916666666668,0)" xlink:href="#O"/><use transform="matrix(0.010416666666666668,0,0,0.010416666666666668,37.32291666666667,0)" xlink:href="#V"/></g><path d="M458 0L52-1490h194c108 439 233 855 324 1313 92-459 221-873 331-1313h216c110 438 234 854 330 1307 92-455 216-869 323-1307h196L1558 0h-221l-256-944c-26-95-50-200-73-331-22 122-44 223-73 331L680 0H458" id="as"/><g id="q"><use transform="matrix(0.010416666666666668,0,0,0.010416666666666668,0,0)" xlink:href="#as"/><use transform="matrix(0.010416666666666668,0,0,0.010416666666666668,19.937500000000004,0)" xlink:href="#ao"/><use transform="matrix(0.010416666666666668,0,0,0.010416666666666668,32.72916666666667,0)" xlink:href="#U"/><use transform="matrix(0.010416666666666668,0,0,0.010416666666666668,41.09375000000001,0)" xlink:href="#am"/><use transform="matrix(0.010416666666666668,0,0,0.010416666666666668,52.802083333333336,0)" xlink:href="#aa"/><use transform="matrix(0.010416666666666668,0,0,0.010416666666666668,57.96875000000001,0)" xlink:href="#S"/><use transform="matrix(0.010416666666666668,0,0,0.010416666666666668,70.57291666666667,0)" xlink:href="#T"/><use transform="matrix(0.010416666666666668,0,0,0.010416666666666668,83.65625,0)" xlink:href="#ah"/></g><g id="r"><use transform="matrix(0.010416666666666668,0,0,0.010416666666666668,0,0)" xlink:href="#aj"/><use transform="matrix(0.010416666666666668,0,0,0.010416666666666668,15.395833333333336,0)" xlink:href="#aa"/><use transform="matrix(0.010416666666666668,0,0,0.010416666666666668,20.562500000000004,0)" xlink:href="#Q"/><use transform="matrix(0.010416666666666668,0,0,0.010416666666666668,31.82291666666667,0)" xlink:href="#ae"/><use transform="matrix(0.010416666666666668,0,0,0.010416666666666668,44.88541666666667,0)" xlink:href="#ap"/><use transform="matrix(0.010416666666666668,0,0,0.010416666666666668,50.052083333333336,0)" xlink:href="#P"/><use transform="matrix(0.010416666666666668,0,0,0.010416666666666668,61.71875,0)" xlink:href="#W"/></g><g id="s"><use transform="matrix(0.010416666666666668,0,0,0.010416666666666668,0,0)" xlink:href="#X"/><use transform="matrix(0.010416666666666668,0,0,0.010416666666666668,6.979166666666668,0)" xlink:href="#U"/><use transform="matrix(0.010416666666666668,0,0,0.010416666666666668,15.010416666666671,0)" xlink:href="#P"/><use transform="matrix(0.010416666666666668,0,0,0.010416666666666668,26.989583333333336,0)" xlink:href="#ac"/><use transform="matrix(0.010416666666666668,0,0,0.010416666666666668,39.177083333333336,0)" xlink:href="#am"/><use transform="matrix(0.010416666666666668,0,0,0.010416666666666668,50.88541666666667,0)" xlink:href="#aa"/><use transform="matrix(0.010416666666666668,0,0,0.010416666666666668,56.05208333333334,0)" xlink:href="#S"/><use transform="matrix(0.010416666666666668,0,0,0.010416666666666668,68.65625,0)" xlink:href="#T"/></g><g id="t"><use transform="matrix(0.010416666666666668,0,0,0.010416666666666668,0,0)" xlink:href="#R"/><use transform="matrix(0.010416666666666668,0,0,0.010416666666666668,12.437500000000002,0)" xlink:href="#U"/><use transform="matrix(0.010416666666666668,0,0,0.010416666666666668,20.802083333333336,0)" xlink:href="#U"/><use transform="matrix(0.010416666666666668,0,0,0.010416666666666668,28.47916666666667,0)" xlink:href="#ao"/><use transform="matrix(0.010416666666666668,0,0,0.010416666666666668,41.27083333333334,0)" xlink:href="#U"/></g><path d="M580 20c-295 0-476-179-476-409 0-189 123-290 294-416-104-125-173-226-173-362 0-197 144-337 365-337 224 0 362 144 362 321 0 185-174 312-306 405l319 387c38-75 61-165 61-267h173c0 208-62 332-120 406L1287 0h-217L967-124C868-27 716 20 580 20zm279-273L507-675l-51 38c-123 91-167 162-167 254 0 147 113 246 278 246 107 0 210-41 292-116zM538-908l97-72c54-40 136-101 136-206 0-95-68-163-176-163-113 0-189 74-189 181 0 90 53 164 132 260" id="at"/><use transform="matrix(0.010416666666666668,0,0,0.010416666666666668,0,0)" xlink:href="#at" id="u"/><g id="v"><use transform="matrix(0.010416666666666668,0,0,0.010416666666666668,0,0)" xlink:href="#ap"/><use transform="matrix(0.010416666666666668,0,0,0.010416666666666668,5.166666666666667,0)" xlink:href="#P"/><use transform="matrix(0.010416666666666668,0,0,0.010416666666666668,17.145833333333336,0)" xlink:href="#Q"/><use transform="matrix(0.010416666666666668,0,0,0.010416666666666668,28.406250000000004,0)" xlink:href="#X"/></g><g id="w"><use transform="matrix(0.010416666666666668,0,0,0.010416666666666668,0,0)" xlink:href="#am"/><use transform="matrix(0.010416666666666668,0,0,0.010416666666666668,11.708333333333334,0)" xlink:href="#S"/><use transform="matrix(0.010416666666666668,0,0,0.010416666666666668,24.312499999999996,0)" xlink:href="#ao"/><use transform="matrix(0.010416666666666668,0,0,0.010416666666666668,36.71875,0)" xlink:href="#ab"/><use transform="matrix(0.010416666666666668,0,0,0.010416666666666668,54.17708333333334,0)" xlink:href="#S"/></g><path d="M180 0v-1490h908v168H370v486h669v168H370v500h727V0H180" id="au"/><path d="M98-1322v-168h1126v168H757V0H567v-1322H98" id="av"/><path d="M52 0l541-1490h220L1361 0h-200l-149-416H398L254 0H52zm404-582h497c-103-290-145-390-251-756-108 377-145 460-246 756" id="aw"/><g id="x"><use transform="matrix(0.010416666666666668,0,0,0.010416666666666668,0,0)" xlink:href="#au"/><use transform="matrix(0.010416666666666668,0,0,0.010416666666666668,12.822916666666668,0)" xlink:href="#av"/><use transform="matrix(0.010416666666666668,0,0,0.010416666666666668,24.781250000000004,0)" xlink:href="#aw"/></g><path d="M763 24c-353 0-583-224-583-531v-983h190v968c0 214 149 370 393 370 243 0 391-156 391-370v-968h190v983c0 307-230 531-581 531" id="ax"/><g id="y"><use transform="matrix(0.010416666666666668,0,0,0.010416666666666668,0,0)" xlink:href="#ax"/><use transform="matrix(0.010416666666666668,0,0,0.010416666666666668,15.875000000000002,0)" xlink:href="#ae"/><use transform="matrix(0.010416666666666668,0,0,0.010416666666666668,28.937500000000004,0)" xlink:href="#an"/><use transform="matrix(0.010416666666666668,0,0,0.010416666666666668,42.00000000000001,0)" xlink:href="#P"/><use transform="matrix(0.010416666666666668,0,0,0.010416666666666668,53.97916666666667,0)" xlink:href="#X"/><use transform="matrix(0.010416666666666668,0,0,0.010416666666666668,60.75,0)" xlink:href="#R"/></g><g id="z"><use transform="matrix(0.010416666666666668,0,0,0.010416666666666668,0,0)" xlink:href="#an"/><use transform="matrix(0.010416666666666668,0,0,0.010416666666666668,13.062500000000002,0)" xlink:href="#U"/><use transform="matrix(0.010416666666666668,0,0,0.010416666666666668,21.427083333333336,0)" xlink:href="#aa"/><use transform="matrix(0.010416666666666668,0,0,0.010416666666666668,26.593750000000004,0)" xlink:href="#ad"/><use transform="matrix(0.010416666666666668,0,0,0.010416666666666668,38.16666666666667,0)" xlink:href="#R"/><use transform="matrix(0.010416666666666668,0,0,0.010416666666666668,50.60416666666667,0)" xlink:href="#U"/></g><g id="A"><use transform="matrix(0.010416666666666668,0,0,0.010416666666666668,0,0)" xlink:href="#ap"/><use transform="matrix(0.010416666666666668,0,0,0.010416666666666668,5.166666666666667,0)" xlink:href="#ao"/><use transform="matrix(0.010416666666666668,0,0,0.010416666666666668,17.958333333333336,0)" xlink:href="#ac"/><use transform="matrix(0.010416666666666668,0,0,0.010416666666666668,30.35416666666667,0)" xlink:href="#P"/><use transform="matrix(0.010416666666666668,0,0,0.010416666666666668,42.33333333333334,0)" xlink:href="#X"/><use transform="matrix(0.010416666666666668,0,0,0.010416666666666668,49.312500000000014,0)" xlink:href="#aa"/><use transform="matrix(0.010416666666666668,0,0,0.010416666666666668,54.479166666666686,0)" xlink:href="#ao"/><use transform="matrix(0.010416666666666668,0,0,0.010416666666666668,67.27083333333334,0)" xlink:href="#S"/></g><use transform="matrix(0.010416666666666668,0,0,0.010416666666666668,0,0)" xlink:href="#at" id="B"/><path d="M157-1118h181V80c1 225-123 350-364 338V252c126 9 184-48 183-172v-1198zm91-183c-68 0-125-53-125-119s57-119 125-119c69 0 126 53 126 119s-57 119-126 119" id="ay"/><path d="M537 14c-226 0-379-139-379-422v-710h180v695c0 172 97 275 253 275 160 0 281-109 281-300v-670h181V0H879v-209C806-46 684 14 537 14" id="az"/><g id="C"><use transform="matrix(0.010416666666666668,0,0,0.010416666666666668,0,0)" xlink:href="#P"/><use transform="matrix(0.010416666666666668,0,0,0.010416666666666668,11.979166666666668,0)" xlink:href="#an"/><use transform="matrix(0.010416666666666668,0,0,0.010416666666666668,25.041666666666668,0)" xlink:href="#ay"/><use transform="matrix(0.010416666666666668,0,0,0.010416666666666668,30.208333333333343,0)" xlink:href="#az"/><use transform="matrix(0.010416666666666668,0,0,0.010416666666666668,42.82291666666667,0)" xlink:href="#Q"/><use transform="matrix(0.010416666666666668,0,0,0.010416666666666668,54.08333333333334,0)" xlink:href="#X"/></g><g id="D"><use transform="matrix(0.010416666666666668,0,0,0.010416666666666668,0,0)" xlink:href="#av"/><use transform="matrix(0.010416666666666668,0,0,0.010416666666666668,12.208333333333334,0)" xlink:href="#P"/><use transform="matrix(0.010416666666666668,0,0,0.010416666666666668,24.187500000000004,0)" xlink:href="#ae"/></g><g id="E"><use transform="matrix(0.010416666666666668,0,0,0.010416666666666668,0,0)" xlink:href="#Q"/><use transform="matrix(0.010416666666666668,0,0,0.010416666666666668,11.260416666666668,0)" xlink:href="#ac"/><use transform="matrix(0.010416666666666668,0,0,0.010416666666666668,23.447916666666668,0)" xlink:href="#U"/><use transform="matrix(0.010416666666666668,0,0,0.010416666666666668,31.125000000000007,0)" xlink:href="#R"/><use transform="matrix(0.010416666666666668,0,0,0.010416666666666668,43.56250000000001,0)" xlink:href="#R"/><use transform="matrix(0.010416666666666668,0,0,0.010416666666666668,56.00000000000001,0)" xlink:href="#S"/></g><g id="F"><use transform="matrix(0.010416666666666668,0,0,0.010416666666666668,0,0)" xlink:href="#X"/><use transform="matrix(0.010416666666666668,0,0,0.010416666666666668,6.770833333333336,0)" xlink:href="#ao"/></g><path d="M338-670V0H158v-1490h180v566c73-149 190-208 336-208 226 0 379 139 379 422V0H872v-695c0-172-96-275-252-275-161 0-282 109-282 300" id="aA"/><g id="G"><use transform="matrix(0.010416666666666668,0,0,0.010416666666666668,0,0)" xlink:href="#U"/><use transform="matrix(0.010416666666666668,0,0,0.010416666666666668,7.677083333333336,0)" xlink:href="#R"/><use transform="matrix(0.010416666666666668,0,0,0.010416666666666668,20.114583333333336,0)" xlink:href="#ak"/><use transform="matrix(0.010416666666666668,0,0,0.010416666666666668,28.01041666666667,0)" xlink:href="#U"/><use transform="matrix(0.010416666666666668,0,0,0.010416666666666668,35.68750000000001,0)" xlink:href="#R"/><use transform="matrix(0.010416666666666668,0,0,0.010416666666666668,48.12500000000001,0)" xlink:href="#Q"/><use transform="matrix(0.010416666666666668,0,0,0.010416666666666668,59.38541666666667,0)" xlink:href="#aA"/></g><g id="H"><use transform="matrix(0.010416666666666668,0,0,0.010416666666666668,0,0)" xlink:href="#aj"/><use transform="matrix(0.010416666666666668,0,0,0.010416666666666668,15.395833333333336,0)" xlink:href="#aa"/><use transform="matrix(0.010416666666666668,0,0,0.010416666666666668,20.562500000000004,0)" xlink:href="#Q"/><use transform="matrix(0.010416666666666668,0,0,0.010416666666666668,31.82291666666667,0)" xlink:href="#ae"/><use transform="matrix(0.010416666666666668,0,0,0.010416666666666668,44.88541666666667,0)" xlink:href="#ap"/><use transform="matrix(0.010416666666666668,0,0,0.010416666666666668,50.052083333333336,0)" xlink:href="#P"/><use transform="matrix(0.010416666666666668,0,0,0.010416666666666668,61.71875,0)" xlink:href="#W"/></g><g id="I"><use transform="matrix(0.010416666666666668,0,0,0.010416666666666668,0,0)" xlink:href="#af"/><use transform="matrix(0.010416666666666668,0,0,0.010416666666666668,7.781250000000001,0)" xlink:href="#aj"/><use transform="matrix(0.010416666666666668,0,0,0.010416666666666668,23.177083333333336,0)" xlink:href="#ao"/><use transform="matrix(0.010416666666666668,0,0,0.010416666666666668,35.96875,0)" xlink:href="#S"/><use transform="matrix(0.010416666666666668,0,0,0.010416666666666668,48.57291666666667,0)" xlink:href="#R"/><use transform="matrix(0.010416666666666668,0,0,0.010416666666666668,60.77083333333334,0)" xlink:href="#ah"/></g><g id="J"><use transform="matrix(0.010416666666666668,0,0,0.010416666666666668,0,0)" xlink:href="#R"/><use transform="matrix(0.010416666666666668,0,0,0.010416666666666668,12.437500000000002,0)" xlink:href="#Q"/><use transform="matrix(0.010416666666666668,0,0,0.010416666666666668,23.697916666666668,0)" xlink:href="#X"/><use transform="matrix(0.010416666666666668,0,0,0.010416666666666668,30.677083333333343,0)" xlink:href="#aa"/><use transform="matrix(0.010416666666666668,0,0,0.010416666666666668,35.84375000000001,0)" xlink:href="#Y"/><use transform="matrix(0.010416666666666668,0,0,0.010416666666666668,54.531250000000014,0)" xlink:href="#P"/><use transform="matrix(0.010416666666666668,0,0,0.010416666666666668,66.51041666666669,0)" xlink:href="#X"/><use transform="matrix(0.010416666666666668,0,0,0.010416666666666668,73.28125000000003,0)" xlink:href="#R"/><use transform="matrix(0.010416666666666668,0,0,0.010416666666666668,85.71875000000003,0)" xlink:href="#an"/></g><g id="K"><use transform="matrix(0.010416666666666668,0,0,0.010416666666666668,0,0)" xlink:href="#ak"/><use transform="matrix(0.010416666666666668,0,0,0.010416666666666668,7.562500000000001,0)" xlink:href="#P"/><use transform="matrix(0.010416666666666668,0,0,0.010416666666666668,19.541666666666668,0)" xlink:href="#U"/><use transform="matrix(0.010416666666666668,0,0,0.010416666666666668,27.21875,0)" xlink:href="#R"/></g><path d="M128 359l88-567h206L266 359H128" id="aB"/><g id="L"><use transform="matrix(0.010416666666666668,0,0,0.010416666666666668,0,0)" xlink:href="#an"/><use transform="matrix(0.010416666666666668,0,0,0.010416666666666668,13.062500000000002,0)" xlink:href="#R"/><use transform="matrix(0.010416666666666668,0,0,0.010416666666666668,25.500000000000004,0)" xlink:href="#X"/><use transform="matrix(0.010416666666666668,0,0,0.010416666666666668,32.58333333333334,0)" xlink:href="#P"/><use transform="matrix(0.010416666666666668,0,0,0.010416666666666668,44.562500000000014,0)" xlink:href="#aa"/><use transform="matrix(0.010416666666666668,0,0,0.010416666666666668,49.72916666666668,0)" xlink:href="#ap"/><use transform="matrix(0.010416666666666668,0,0,0.010416666666666668,54.89583333333334,0)" xlink:href="#Q"/><use transform="matrix(0.010416666666666668,0,0,0.010416666666666668,66.15625000000001,0)" xlink:href="#aB"/></g><g id="M"><use transform="matrix(0.010416666666666668,0,0,0.010416666666666668,0,0)" xlink:href="#au"/><use transform="matrix(0.010416666666666668,0,0,0.010416666666666668,12.822916666666668,0)" xlink:href="#av"/><use transform="matrix(0.010416666666666668,0,0,0.010416666666666668,24.781250000000004,0)" xlink:href="#aw"/><use transform="matrix(0.010416666666666668,0,0,0.010416666666666668,39.50000000000001,0)" xlink:href="#aB"/></g><g id="N"><use transform="matrix(0.010416666666666668,0,0,0.010416666666666668,0,0)" xlink:href="#P"/><use transform="matrix(0.010416666666666668,0,0,0.010416666666666668,11.979166666666668,0)" xlink:href="#S"/><use transform="matrix(0.010416666666666668,0,0,0.010416666666666668,24.583333333333336,0)" xlink:href="#an"/></g></defs></g></svg>