<svg xmlns="http://www.w3.org/2000/svg" xmlns:xlink="http://www.w3.org/1999/xlink" xmlns:lucid="lucid" width="882" height="1203.89"><g transform="translate(-94.55656740168297 551.4241884387775)" lucid:page-tab-id="3DPDHc8Q6mhk"><path d="M0-1000h1000v2000H0z" fill="#fff"/><path d="M95.56-538.42a12 12 0 0 1 12-12h428v41.88h-440zM535.56-550.42h428a12 12 0 0 1 12 12v29.88h-440z" stroke="#000" stroke-width="2" fill="#fff"/><path d="M95.56-508.54h440v1160h-428a12 12 0 0 1-12-12zM535.56-508.54h440v1148a12 12 0 0 1-12 12h-428z" stroke="#000" stroke-width="2" fill="none"/><use xlink:href="#a" transform="matrix(1,0,0,1,95.55656740168297,-550.4241884387775) translate(195.15190972222223 29.08376736111111)"/><use xlink:href="#b" transform="matrix(1,0,0,1,535.556567401683,-550.4241884387775) translate(181.02430555555554 29.08376736111111)"/><path d="M255.56-450.42c0 11.04-8.96 20-20 20-11.05 0-20-8.96-20-20 0-11.05 8.95-20 20-20 11.04 0 20 8.95 20 20z" stroke="#000" stroke-width="2"/><path d="M171.56-370.42c-8.84 0-16 7.16-16 16v48c0 8.83 7.16 16 16 16h128c8.83 0 16-7.17 16-16v-48c0-8.84-7.17-16-16-16z" stroke="#000" stroke-width="2" fill="#fff"/><use xlink:href="#c" transform="matrix(1,0,0,1,163.55656740168297,-362.4241884387775) translate(39.24175347222223 23.95095486111111)"/><use xlink:href="#d" transform="matrix(1,0,0,1,163.55656740168297,-362.4241884387775) translate(27.71831597222223 56.21657986111111)"/><path d="M235.56-428.92v48.05" stroke="#3a414a" fill="none"/><path d="M235.5-429.42l.53-.02v.53h-.95v-.58z" stroke="#3a414a" stroke-width=".05" fill="#3a414a"/><path d="M245.56-389.75l-10 17.33-10-17.32m10 17.32v-8.5M317.06-330.42h372.5a6 6 0 0 1 6 6v39.73" stroke="#3a414a" fill="none"/><path d="M317.07-329.95h-.5v-.95h.5z" stroke="#3a414a" stroke-width=".05" fill="#3a414a"/><path d="M705.56-293.56l-10 17.32-10-17.32m10 17.32v-8.5M695.56-192.74v43.88" stroke="#3a414a" fill="none"/><path d="M696.03-192.73h-.95v-.5h.95z" stroke="#3a414a" stroke-width=".05" fill="#3a414a"/><path d="M705.56-157.73l-10 17.32-10-17.33m10 17.32v-8.5" stroke="#3a414a" fill="none"/><path d="M631.56 76.66c-8.84 0-16 7.16-16 16v48c0 8.84 7.16 16 16 16h128c8.83 0 16-7.16 16-16v-48c0-8.84-7.17-16-16-16z" stroke="#000" stroke-width="2" fill="#fff"/><use xlink:href="#e" transform="matrix(1,0,0,1,623.556567401683,84.6581034053861) translate(33.61024305555556 23.95095486111111)"/><use xlink:href="#f" transform="matrix(1,0,0,1,623.556567401683,84.6581034053861) translate(1.4487847222222285 56.21657986111111)"/><use xlink:href="#g" transform="matrix(1,0,0,1,623.556567401683,84.6581034053861) translate(71.20789930555556 56.21657986111111)"/><path d="M291.3-136.65a6 6 0 0 1 8.5 0l11.5 11.5a6 6 0 0 1 0 8.5l-11.5 11.5a6 6 0 0 1-8.5 0l-11.5-11.5a6 6 0 0 1 0-8.5z" stroke="#000" stroke-width="2" fill="#fff"/><path d="M295.56-101.88v80.8a6 6 0 0 0 6 6h67.16a6 6 0 0 1 6 6v71.85" stroke="#3a414a" fill="none"/><path d="M295.56-102.38l.47-.04v.55h-.95v-.55z" stroke="#3a414a" stroke-width=".05" fill="#3a414a"/><path d="M384.72 53.9l-10 17.3-10-17.3m10 17.3v-8.5" stroke="#3a414a" fill="none"/><use xlink:href="#h" transform="matrix(1,0,0,1,303.55656740168297,-83.54392375904344) translate(0 17.22222222222222)"/><path d="M276.54-120.9h-33.5a6 6 0 0 0-6 6v454.84a6 6 0 0 0 6 6h41.23" stroke="#3a414a" fill="none"/><path d="M277.04-120.9l.04.48h-.55v-.95h.55z" stroke="#3a414a" stroke-width=".05" fill="#3a414a"/><path d="M275.4 335.94l17.32 10-17.32 10m17.32-10h-8.5" stroke="#3a414a" fill="none"/><use xlink:href="#i" transform="matrix(1,0,0,1,154.57698159006276,254.61505578513047) translate(0 17.22222222222222)"/><path d="M658.1 289.58c-12.45 0-22.54 10.1-22.54 22.54v67.63c0 12.46 10.1 22.55 22.54 22.55H773c12.46 0 22.56-10.1 22.56-22.55v-67.63c0-12.45-10.1-22.54-22.55-22.54z" stroke="#000" stroke-width="2" fill="#fff"/><use xlink:href="#e" transform="matrix(1,0,0,1,643.556567401683,297.5758115612225) translate(33.61024305555556 24.318142361111114)"/><use xlink:href="#j" transform="matrix(1,0,0,1,643.556567401683,297.5758115612225) translate(23.209852430555557 56.583767361111114)"/><use xlink:href="#k" transform="matrix(1,0,0,1,643.556567401683,297.5758115612225) translate(34.380642361111114 88.84939236111111)"/><path d="M631.56-274.24c-8.84 0-16 7.16-16 16v48c0 8.83 7.16 16 16 16h128c8.83 0 16-7.17 16-16v-48c0-8.84-7.17-16-16-16z" stroke="#000" stroke-width="2" fill="#fff"/><use xlink:href="#l" transform="matrix(1,0,0,1,623.556567401683,-266.24417541794446) translate(2.6477864583333286 23.95095486111111)"/><use xlink:href="#m" transform="matrix(1,0,0,1,623.556567401683,-266.24417541794446) translate(85.67730034722221 23.95095486111111)"/><use xlink:href="#n" transform="matrix(1,0,0,1,623.556567401683,-266.24417541794446) translate(104.40559895833333 23.95095486111111)"/><use xlink:href="#o" transform="matrix(1,0,0,1,623.556567401683,-266.24417541794446) translate(20.480902777777786 56.21657986111111)"/><use xlink:href="#k" transform="matrix(1,0,0,1,623.556567401683,-266.24417541794446) translate(48.28038194444445 56.21657986111111)"/><path d="M715.56 240c0 11.05-8.96 20-20 20-11.05 0-20-8.95-20-20s8.95-20 20-20c11.04 0 20 8.95 20 20z" stroke="#000" stroke-width="2" fill="#fff"/><path d="M707.56 240c0 6.63-5.38 12-12 12-6.63 0-12-5.37-12-12s5.37-12 12-12c6.62 0 12 5.37 12 12z" stroke="#000" stroke-width="2"/><path d="M695.56 158.16v51.4" stroke="#3a414a" fill="none"/><path d="M696.03 158.17h-.95v-.5h.95z" stroke="#3a414a" stroke-width=".05" fill="#3a414a"/><path d="M705.56 200.68l-10 17.32-10-17.32m10 17.32v-8.5M276.54-120.9h-33.5a6 6 0 0 0-6 6v654.84a6 6 0 0 0 6 6h41.23" stroke="#3a414a" fill="none"/><path d="M277.04-120.9l.04.48h-.55v-.95h.55z" stroke="#3a414a" stroke-width=".05" fill="#3a414a"/><path d="M275.4 535.94l17.32 10-17.32 10m17.32-10h-8.5" stroke="#3a414a" fill="none"/><use xlink:href="#p" transform="matrix(1,0,0,1,170.81830103450716,500.420603227889) translate(0 17.22222222222222)"/><path d="M658.1 489.58c-12.45 0-22.54 10.1-22.54 22.54v67.63c0 12.46 10.1 22.55 22.54 22.55H773c12.46 0 22.56-10.1 22.56-22.54V512.1c0-12.45-10.1-22.54-22.55-22.54z" stroke="#000" stroke-width="2" fill="#fff"/><use xlink:href="#l" transform="matrix(1,0,0,1,643.556567401683,497.5758115612225) translate(4.958984375 40.450954861111114)"/><use xlink:href="#q" transform="matrix(1,0,0,1,643.556567401683,497.5758115612225) translate(87.98849826388889 40.450954861111114)"/><use xlink:href="#k" transform="matrix(1,0,0,1,643.556567401683,497.5758115612225) translate(34.380642361111114 72.71657986111111)"/><path d="M797.06 545.94h33.5a6 6 0 0 0 6-6V-114.9a6 6 0 0 0-6-6H723.52" stroke="#3a414a" fill="none"/><path d="M797.07 546.4h-.5v-.94h.5z" stroke="#3a414a" stroke-width=".05" fill="#3a414a"/><path d="M732.4-110.9l-17.33-10 17.32-10m-17.33 10h8.5" stroke="#3a414a" fill="none"/><path d="M691.3-136.65a6 6 0 0 1 8.5 0l11.5 11.5a6 6 0 0 1 0 8.5l-11.5 11.5a6 6 0 0 1-8.5 0l-11.5-11.5a6 6 0 0 1 0-8.5z" stroke="#000" stroke-width="2" fill="#fff"/><path d="M797.06 345.94h33.5a6 6 0 0 0 6-6V-114.9a6 6 0 0 0-6-6H723.52" stroke="#3a414a" fill="none"/><path d="M797.07 346.4h-.5v-.94h.5z" stroke="#3a414a" stroke-width=".05" fill="#3a414a"/><path d="M732.4-110.9l-17.33-10 17.32-10m-17.33 10h8.5M676.54-120.9H323.52" stroke="#3a414a" fill="none"/><path d="M677.04-120.9l.04.48h-.55v-.95h.55z" stroke="#3a414a" stroke-width=".05" fill="#3a414a"/><path d="M332.4-110.9l-17.33-10 17.32-10m-17.33 10h8.5M456.22 113.2h148.9" stroke="#3a414a" fill="none"/><path d="M456.23 113.7h-.5v-.96h.5z" stroke="#3a414a" stroke-width=".05" fill="#3a414a"/><path d="M596.24 103.2l17.32 10-17.32 10m17.32-10h-8.5" stroke="#3a414a" fill="none"/><path d="M317.26 289.58c-12.45 0-22.54 10.1-22.54 22.54v67.63c0 12.46 10.1 22.55 22.54 22.55h114.9c12.46 0 22.56-10.1 22.56-22.55v-67.63c0-12.45-10.1-22.54-22.55-22.54z" stroke="#000" stroke-width="2" fill="#fff"/><use xlink:href="#r" transform="matrix(1,0,0,1,302.71736582133474,297.5758115612225) translate(4.5737847222222285 40.450954861111114)"/><use xlink:href="#s" transform="matrix(1,0,0,1,302.71736582133474,297.5758115612225) translate(65.68489583333333 40.450954861111114)"/><use xlink:href="#t" transform="matrix(1,0,0,1,302.71736582133474,297.5758115612225) translate(33.54513888888889 72.71657986111111)"/><path d="M310.72 73.2c-8.84 0-16 7.18-16 16v48c0 8.85 7.16 16 16 16h128c8.83 0 16-7.15 16-16v-48c0-8.82-7.17-16-16-16z" stroke="#000" stroke-width="2" fill="#fff"/><g><use xlink:href="#u" transform="matrix(1,0,0,1,302.71736582133474,81.21377899406116) translate(29.87760416666667 23.95095486111111)"/><use xlink:href="#v" transform="matrix(1,0,0,1,302.71736582133474,81.21377899406116) translate(101.64409722222221 23.95095486111111)"/><use xlink:href="#w" transform="matrix(1,0,0,1,302.71736582133474,81.21377899406116) translate(40.245442708333336 56.21657986111111)"/></g><path d="M456.22 345.94h168.9" stroke="#3a414a" fill="none"/><path d="M456.23 346.4h-.5v-.94h.5z" stroke="#3a414a" stroke-width=".05" fill="#3a414a"/><path d="M616.24 335.94l17.32 10-17.32 10m17.32-10h-8.5" stroke="#3a414a" fill="none"/><path d="M310.72 505.94c-8.84 0-16 7.16-16 16v48c0 8.83 7.16 16 16 16h128c8.83 0 16-7.17 16-16v-48c0-8.84-7.17-16-16-16z" stroke="#000" stroke-width="2" fill="#fff"/><g><use xlink:href="#x" transform="matrix(1,0,0,1,302.71736582133474,513.9378441283839) translate(41.73741319444444 23.95095486111111)"/><use xlink:href="#y" transform="matrix(1,0,0,1,302.71736582133474,513.9378441283839) translate(31.738498263888886 56.21657986111111)"/></g><path d="M456.22 545.94h168.9" stroke="#3a414a" fill="none"/><path d="M456.23 546.4h-.5v-.94h.5z" stroke="#3a414a" stroke-width=".05" fill="#3a414a"/><path d="M616.24 535.94l17.32 10-17.32 10m17.32-10h-8.5" stroke="#3a414a" fill="none"/><defs><path d="M657 26c-323 0-524-166-541-416h195c15 169 171 246 346 246 202 0 356-106 356-265 5-203-294-238-475-293-239-73-380-191-380-389 0-252 224-419 512-419 294 0 499 171 508 396H992c-17-145-151-228-328-228-193 0-321 102-321 242 0 156 175 211 284 241l149 41c160 44 422 134 422 412 0 244-197 432-541 432" id="z"/><path d="M598-1118v154H368v674c0 100 37 144 132 144 23 0 62-6 92-12L629-6c-37 13-88 20-134 20-193 0-307-107-307-290v-688H20v-154h168v-266h180v266h230" id="A"/><path d="M471 26C259 26 90-98 90-318c0-256 228-303 435-329 202-27 287-16 287-108 0-139-79-219-234-219-161 0-248 86-283 164l-173-57c86-203 278-265 451-265 150 0 419 46 419 395V0H815v-152h-12C765-73 660 26 471 26zm31-159c199 0 310-134 310-271v-155c-30 35-226 55-295 64-131 17-246 59-246 186 0 116 97 176 231 176" id="B"/><path d="M678-1118v154H420V0H240v-964H20v-154h220v-149c0-194 155-293 318-293 85 0 141 18 168 30l-50 154c-19-6-47-17-97-17-111 0-159 58-159 166v109h258" id="C"/><g id="a"><use transform="matrix(0.010850694444444444,0,0,0.010850694444444444,0,0)" xlink:href="#z"/><use transform="matrix(0.010850694444444444,0,0,0.010850694444444444,14.2578125,0)" xlink:href="#A"/><use transform="matrix(0.010850694444444444,0,0,0.010850694444444444,21.63628472222222,0)" xlink:href="#B"/><use transform="matrix(0.010850694444444444,0,0,0.010850694444444444,34.11458333333333,0)" xlink:href="#C"/><use transform="matrix(0.010850694444444444,0,0,0.010850694444444444,41.47135416666666,0)" xlink:href="#C"/></g><path d="M140 405l46-156c120 36 205 19 263-150l32-93L54-1118h197c107 313 237 620 324 950 87-331 219-637 326-950h196L606 167c-68 178-176 259-334 259-64 0-113-12-132-21" id="D"/><path d="M538 24C308 24 148-78 108-271l171-41c32 123 123 178 257 178 156 0 256-77 256-169 0-77-54-128-164-154l-186-44c-203-48-300-148-300-305 0-192 176-326 414-326 230 0 351 112 402 269l-163 42c-31-80-94-158-238-158-133 0-233 69-233 162 0 83 57 129 188 160l169 40c203 48 298 149 298 302 0 196-179 339-441 339" id="E"/><path d="M628 24c-324 0-524-230-524-574 0-343 198-582 503-582 237 0 487 146 487 559v75H286c9 234 145 362 343 362 132 0 231-58 273-172l174 48C1024-91 857 24 628 24zM287-650h624c-17-190-120-322-304-322-192 0-309 151-320 322" id="F"/><path d="M158 0v-1118h175l1 205c55-151 181-225 313-225 147 0 245 90 285 228 53-141 190-228 352-228 194 0 352 125 352 384V0h-181v-749c0-161-105-225-225-225-151 0-243 103-243 244V0H807v-767c0-124-93-207-219-207-131 0-250 92-250 270V0H158" id="G"/><g id="b"><use transform="matrix(0.010850694444444444,0,0,0.010850694444444444,0,0)" xlink:href="#z"/><use transform="matrix(0.010850694444444444,0,0,0.010850694444444444,14.2578125,0)" xlink:href="#D"/><use transform="matrix(0.010850694444444444,0,0,0.010850694444444444,26.74696180555556,0)" xlink:href="#E"/><use transform="matrix(0.010850694444444444,0,0,0.010850694444444444,38.4765625,0)" xlink:href="#A"/><use transform="matrix(0.010850694444444444,0,0,0.010850694444444444,45.5295138888889,0)" xlink:href="#F"/><use transform="matrix(0.010850694444444444,0,0,0.010850694444444444,58.48524305555555,0)" xlink:href="#G"/></g><path d="M338-1490V0H158v-1490h180" id="H"/><path d="M613 24c-304 0-509-231-509-576 0-350 205-580 509-580 216 0 392 114 453 309l-173 49c-33-115-133-197-280-197-223 0-326 196-326 419 0 220 103 415 326 415 150 0 252-85 285-206l172 49C1010-95 832 24 613 24" id="I"/><g id="c"><use transform="matrix(0.010850694444444444,0,0,0.010850694444444444,0,0)" xlink:href="#z"/><use transform="matrix(0.010850694444444444,0,0,0.010850694444444444,14.2578125,0)" xlink:href="#F"/><use transform="matrix(0.010850694444444444,0,0,0.010850694444444444,27.213541666666664,0)" xlink:href="#H"/><use transform="matrix(0.010850694444444444,0,0,0.010850694444444444,32.59548611111111,0)" xlink:href="#F"/><use transform="matrix(0.010850694444444444,0,0,0.010850694444444444,45.55121527777778,0)" xlink:href="#I"/><use transform="matrix(0.010850694444444444,0,0,0.010850694444444444,58.24652777777778,0)" xlink:href="#A"/></g><path d="M232-923l-22-567h194l-22 567H232" id="J"/><path d="M645 0H180v-1490h484c435 0 692 280 692 742 0 466-257 748-711 748zM370-168h263c363 0 539-218 539-580 0-358-176-574-521-574H370v1154" id="K"/><path d="M158 0v-1118h174v172h12c41-113 157-188 290-188 26 0 70 2 91 3v181c-11-2-60-10-108-10-161 0-279 109-279 260V0H158" id="L"/><path d="M158 0v-1118h180V0H158zm91-1301c-68 0-125-53-125-119s57-119 125-119c69 0 126 53 126 119s-57 119-126 119" id="M"/><path d="M481 0L54-1118h197c107 314 236 620 325 951 87-331 217-637 324-951h197L670 0H481" id="N"/><g id="d"><use transform="matrix(0.010850694444444444,0,0,0.010850694444444444,0,0)" xlink:href="#J"/><use transform="matrix(0.010850694444444444,0,0,0.010850694444444444,6.662326388888888,0)" xlink:href="#K"/><use transform="matrix(0.010850694444444444,0,0,0.010850694444444444,22.69965277777778,0)" xlink:href="#L"/><use transform="matrix(0.010850694444444444,0,0,0.010850694444444444,31.412760416666664,0)" xlink:href="#M"/><use transform="matrix(0.010850694444444444,0,0,0.010850694444444444,36.79470486111111,0)" xlink:href="#N"/><use transform="matrix(0.010850694444444444,0,0,0.010850694444444444,48.849826388888886,0)" xlink:href="#F"/><use transform="matrix(0.010850694444444444,0,0,0.010850694444444444,61.80555555555555,0)" xlink:href="#L"/><use transform="matrix(0.010850694444444444,0,0,0.010850694444444444,70.17144097222221,0)" xlink:href="#E"/><use transform="matrix(0.010850694444444444,0,0,0.010850694444444444,81.90104166666666,0)" xlink:href="#J"/></g><path d="M158 418v-1536h174v179h20c37-59 106-193 324-193 279 0 474 222 474 576 0 356-194 580-473 580-213 0-288-135-325-197h-14v591H158zm492-555c209 0 317-186 317-421 0-232-105-413-317-413-206 0-314 166-314 413 0 249 111 421 314 421" id="O"/><g id="e"><use transform="matrix(0.010850694444444444,0,0,0.010850694444444444,0,0)" xlink:href="#K"/><use transform="matrix(0.010850694444444444,0,0,0.010850694444444444,16.03732638888889,0)" xlink:href="#M"/><use transform="matrix(0.010850694444444444,0,0,0.010850694444444444,21.419270833333336,0)" xlink:href="#E"/><use transform="matrix(0.010850694444444444,0,0,0.010850694444444444,33.14887152777778,0)" xlink:href="#O"/><use transform="matrix(0.010850694444444444,0,0,0.010850694444444444,46.75564236111111,0)" xlink:href="#H"/><use transform="matrix(0.010850694444444444,0,0,0.010850694444444444,52.13758680555556,0)" xlink:href="#B"/><use transform="matrix(0.010850694444444444,0,0,0.010850694444444444,64.29036458333333,0)" xlink:href="#D"/></g><g id="f"><use transform="matrix(0.010850694444444444,0,0,0.010850694444444444,0,0)" xlink:href="#K"/><use transform="matrix(0.010850694444444444,0,0,0.010850694444444444,16.03732638888889,0)" xlink:href="#L"/><use transform="matrix(0.010850694444444444,0,0,0.010850694444444444,24.75043402777778,0)" xlink:href="#M"/><use transform="matrix(0.010850694444444444,0,0,0.010850694444444444,30.13237847222222,0)" xlink:href="#N"/><use transform="matrix(0.010850694444444444,0,0,0.010850694444444444,42.1875,0)" xlink:href="#F"/><use transform="matrix(0.010850694444444444,0,0,0.010850694444444444,55.143229166666664,0)" xlink:href="#L"/></g><g id="g"><use transform="matrix(0.010850694444444444,0,0,0.010850694444444444,0,0)" xlink:href="#K"/><use transform="matrix(0.010850694444444444,0,0,0.010850694444444444,16.03732638888889,0)" xlink:href="#F"/><use transform="matrix(0.010850694444444444,0,0,0.010850694444444444,28.99305555555556,0)" xlink:href="#A"/><use transform="matrix(0.010850694444444444,0,0,0.010850694444444444,36.37152777777778,0)" xlink:href="#B"/><use transform="matrix(0.010850694444444444,0,0,0.010850694444444444,48.849826388888886,0)" xlink:href="#M"/><use transform="matrix(0.010850694444444444,0,0,0.010850694444444444,54.23177083333333,0)" xlink:href="#H"/><use transform="matrix(0.010850694444444444,0,0,0.010850694444444444,59.61371527777778,0)" xlink:href="#E"/></g><path fill="#333" d="M182 279v-1860h488v228H471V51h199v228H182" id="P"/><path fill="#333" d="M681 22C323 22 94-145 85-462h297c10 151 131 226 296 226 163 0 271-77 271-190 0-102-95-149-257-189l-164-41c-252-61-403-188-403-405 0-269 236-449 560-449 330 0 546 183 551 445H941c-11-119-106-188-259-188-156 0-244 72-244 172-3 156 226 185 373 221 250 61 445 186 445 436 0 271-213 446-575 446" id="Q"/><path fill="#333" d="M633 22C291 22 81-200 81-553c0-345 210-579 537-579 292 0 525 185 525 567v84H378c7 183 109 277 260 277 105 0 184-46 216-132l272 51C1071-99 893 22 633 22zM380-669h474c-15-146-94-237-233-237-143 0-229 99-241 237" id="R"/><path fill="#333" d="M428-1490V0H128v-1490h300" id="S"/><path fill="#333" d="M628 22C291 22 81-210 81-554c0-346 210-578 547-578 265 0 455 142 497 372l-279 52c-25-116-99-188-215-188-160 0-244 139-244 341 0 200 84 341 244 341 116 0 193-74 217-195l279 51C1085-123 896 22 628 22" id="T"/><path fill="#333" d="M683-1118v229H474v562c0 71 29 104 102 104 23 0 73-7 95-13l43 225C647 9 580 16 520 16 296 16 174-96 174-301v-588H20v-229h154v-266h300v266h209" id="U"/><path fill="#333" d="M102 279V51h199v-1404H102v-228h489V279H102" id="V"/><g id="h"><use transform="matrix(0.008680555555555556,0,0,0.008680555555555556,0,0)" xlink:href="#P"/><use transform="matrix(0.008680555555555556,0,0,0.008680555555555556,6.701388888888889,0)" xlink:href="#Q"/><use transform="matrix(0.008680555555555556,0,0,0.008680555555555556,18.34201388888889,0)" xlink:href="#R"/><use transform="matrix(0.008680555555555556,0,0,0.008680555555555556,28.932291666666668,0)" xlink:href="#S"/><use transform="matrix(0.008680555555555556,0,0,0.008680555555555556,33.75,0)" xlink:href="#R"/><use transform="matrix(0.008680555555555556,0,0,0.008680555555555556,44.34027777777778,0)" xlink:href="#T"/><use transform="matrix(0.008680555555555556,0,0,0.008680555555555556,54.80034722222222,0)" xlink:href="#U"/><use transform="matrix(0.008680555555555556,0,0,0.008680555555555556,61.310763888888886,0)" xlink:href="#V"/></g><path fill="#333" d="M440 22C227 22 68-92 68-313c0-250 202-322 422-343 195-21 271-24 271-105 0-95-63-149-175-149-116 0-187 57-211 129l-275-46c57-194 237-305 487-305 240 0 474 108 474 379V0H777v-155h-10C713-51 605 22 440 22zm85-211c140 0 238-93 238-211v-121c-37 26-156 42-222 51-111 16-185 59-185 149 0 87 70 132 169 132" id="W"/><path fill="#333" d="M128 0v-1118h290v195h12c54-169 184-238 367-200v268c-27-8-86-15-130-15-138 0-239 95-239 234V0H128" id="X"/><path fill="#333" d="M428-647V0H128v-1490h294v586c65-146 175-228 341-228 232 0 385 159 385 421V0H847v-659c0-139-76-222-202-222-128 0-217 86-217 234" id="Y"/><g id="i"><use transform="matrix(0.008680555555555556,0,0,0.008680555555555556,0,0)" xlink:href="#P"/><use transform="matrix(0.008680555555555556,0,0,0.008680555555555556,6.701388888888889,0)" xlink:href="#Q"/><use transform="matrix(0.008680555555555556,0,0,0.008680555555555556,18.34201388888889,0)" xlink:href="#R"/><use transform="matrix(0.008680555555555556,0,0,0.008680555555555556,29.10590277777778,0)" xlink:href="#W"/><use transform="matrix(0.008680555555555556,0,0,0.008680555555555556,39.427083333333336,0)" xlink:href="#X"/><use transform="matrix(0.008680555555555556,0,0,0.008680555555555556,46.23263888888889,0)" xlink:href="#T"/><use transform="matrix(0.008680555555555556,0,0,0.008680555555555556,56.692708333333336,0)" xlink:href="#Y"/><use transform="matrix(0.008680555555555556,0,0,0.008680555555555556,67.76041666666667,0)" xlink:href="#V"/></g><path d="M180 0v-1490h270l367 940c28 72 75 218 110 339 35-117 81-264 110-339l362-940h271V0h-187c2-448-5-837 7-1287-157 497-311 829-483 1287H842C666-458 514-784 354-1284c12 438 5 843 7 1284H180" id="Z"/><path d="M338-670V0H158v-1490h180v566c73-149 190-208 336-208 226 0 379 139 379 422V0H872v-695c0-172-96-275-252-275-161 0-282 109-282 300" id="aa"/><path d="M338-670V0H158v-1118h173l1 207c72-158 192-221 342-221 226 0 378 139 378 422V0H872v-695c0-172-96-275-252-275-161 0-282 109-282 300" id="ab"/><path d="M611 442c-248 0-391-105-460-228l146-94c47 65 117 165 314 165 178 0 307-82 307-266v-224h-17C863-141 792-18 576-18c-268 0-472-195-472-546 0-346 197-568 476-568 216 0 288 133 326 193h17v-179h175V29c0 289-215 413-487 413zm-5-620c203 0 314-146 314-390 0-237-108-403-314-403-213 0-319 180-319 403 0 230 109 390 319 390" id="ac"/><g id="j"><use transform="matrix(0.010850694444444444,0,0,0.010850694444444444,0,0)" xlink:href="#Z"/><use transform="matrix(0.010850694444444444,0,0,0.010850694444444444,20.07378472222222,0)" xlink:href="#B"/><use transform="matrix(0.010850694444444444,0,0,0.010850694444444444,32.55208333333333,0)" xlink:href="#A"/><use transform="matrix(0.010850694444444444,0,0,0.010850694444444444,39.60503472222222,0)" xlink:href="#I"/><use transform="matrix(0.010850694444444444,0,0,0.010850694444444444,52.30034722222222,0)" xlink:href="#aa"/><use transform="matrix(0.010850694444444444,0,0,0.010850694444444444,65.44053819444444,0)" xlink:href="#M"/><use transform="matrix(0.010850694444444444,0,0,0.010850694444444444,70.82248263888889,0)" xlink:href="#ab"/><use transform="matrix(0.010850694444444444,0,0,0.010850694444444444,83.95182291666666,0)" xlink:href="#ac"/></g><g id="k"><use transform="matrix(0.010850694444444444,0,0,0.010850694444444444,0,0)" xlink:href="#K"/><use transform="matrix(0.010850694444444444,0,0,0.010850694444444444,16.03732638888889,0)" xlink:href="#L"/><use transform="matrix(0.010850694444444444,0,0,0.010850694444444444,24.75043402777778,0)" xlink:href="#M"/><use transform="matrix(0.010850694444444444,0,0,0.010850694444444444,30.13237847222222,0)" xlink:href="#N"/><use transform="matrix(0.010850694444444444,0,0,0.010850694444444444,42.1875,0)" xlink:href="#F"/><use transform="matrix(0.010850694444444444,0,0,0.010850694444444444,55.143229166666664,0)" xlink:href="#L"/><use transform="matrix(0.010850694444444444,0,0,0.010850694444444444,63.50911458333333,0)" xlink:href="#E"/></g><g id="l"><use transform="matrix(0.010850694444444444,0,0,0.010850694444444444,0,0)" xlink:href="#K"/><use transform="matrix(0.010850694444444444,0,0,0.010850694444444444,16.03732638888889,0)" xlink:href="#M"/><use transform="matrix(0.010850694444444444,0,0,0.010850694444444444,21.419270833333336,0)" xlink:href="#E"/><use transform="matrix(0.010850694444444444,0,0,0.010850694444444444,33.14887152777778,0)" xlink:href="#O"/><use transform="matrix(0.010850694444444444,0,0,0.010850694444444444,46.75564236111111,0)" xlink:href="#H"/><use transform="matrix(0.010850694444444444,0,0,0.010850694444444444,52.13758680555556,0)" xlink:href="#B"/><use transform="matrix(0.010850694444444444,0,0,0.010850694444444444,64.29036458333333,0)" xlink:href="#D"/></g><use transform="matrix(0.010850694444444444,0,0,0.010850694444444444,0,0)" xlink:href="#B" id="m"/><path d="M180 0v-1490h190v1322h690V0H180" id="ad"/><g id="n"><use transform="matrix(0.010850694444444444,0,0,0.010850694444444444,0,0)" xlink:href="#ad"/><use transform="matrix(0.010850694444444444,0,0,0.010850694444444444,12.565104166666666,0)" xlink:href="#M"/><use transform="matrix(0.010850694444444444,0,0,0.010850694444444444,17.94704861111111,0)" xlink:href="#E"/><use transform="matrix(0.010850694444444444,0,0,0.010850694444444444,29.67664930555556,0)" xlink:href="#A"/></g><path d="M613 24c-304 0-509-231-509-576 0-350 205-580 509-580 305 0 511 230 511 580 0 345-206 576-511 576zm0-161c226 0 329-195 329-415 0-222-103-419-329-419-223 0-326 196-326 419 0 220 103 415 326 415" id="ae"/><g id="o"><use transform="matrix(0.010850694444444444,0,0,0.010850694444444444,0,0)" xlink:href="#ae"/><use transform="matrix(0.010850694444444444,0,0,0.010850694444444444,13.324652777777777,0)" xlink:href="#C"/></g><path fill="#333" d="M135 0v-1490h980v253H440v416h609v249H440V0H135" id="af"/><path fill="#333" d="M128 0v-1118h300V0H128zm150-1264c-91 0-165-68-165-154 0-85 74-154 165-154 90 0 165 69 165 154 0 86-75 154-165 154" id="ag"/><g id="p"><use transform="matrix(0.008680555555555556,0,0,0.008680555555555556,0,0)" xlink:href="#P"/><use transform="matrix(0.008680555555555556,0,0,0.008680555555555556,7.022569444444445,0)" xlink:href="#af"/><use transform="matrix(0.008680555555555556,0,0,0.008680555555555556,17.45659722222222,0)" xlink:href="#ag"/><use transform="matrix(0.008680555555555556,0,0,0.008680555555555556,22.274305555555557,0)" xlink:href="#S"/><use transform="matrix(0.008680555555555556,0,0,0.008680555555555556,27.352430555555557,0)" xlink:href="#U"/><use transform="matrix(0.008680555555555556,0,0,0.008680555555555556,33.689236111111114,0)" xlink:href="#R"/><use transform="matrix(0.008680555555555556,0,0,0.008680555555555556,44.27951388888889,0)" xlink:href="#X"/><use transform="matrix(0.008680555555555556,0,0,0.008680555555555556,51.519097222222236,0)" xlink:href="#V"/></g><path d="M600 0L52-1490h200c166 485 304 806 458 1336 156-533 285-846 449-1336h202L819 0H600" id="ah"/><path d="M577 24c-279 0-473-224-473-580 0-354 195-576 474-576 218 0 287 134 324 193h14v-551h180V0H922v-173h-20C865-111 790 24 577 24zm27-161c203 0 314-172 314-421 0-247-108-413-314-413-212 0-317 181-317 413 0 235 108 421 317 421" id="ai"/><g id="q"><use transform="matrix(0.010850694444444444,0,0,0.010850694444444444,0,0)" xlink:href="#ah"/><use transform="matrix(0.010850694444444444,0,0,0.010850694444444444,14.20355902777778,0)" xlink:href="#B"/><use transform="matrix(0.010850694444444444,0,0,0.010850694444444444,26.68185763888889,0)" xlink:href="#H"/><use transform="matrix(0.010850694444444444,0,0,0.010850694444444444,32.063802083333336,0)" xlink:href="#M"/><use transform="matrix(0.010850694444444444,0,0,0.010850694444444444,37.44574652777778,0)" xlink:href="#ai"/></g><path d="M180 0v-1490h908v168H370v486h669v168H370v500h727V0H180" id="aj"/><g id="r"><use transform="matrix(0.010850694444444444,0,0,0.010850694444444444,0,0)" xlink:href="#aj"/><use transform="matrix(0.010850694444444444,0,0,0.010850694444444444,13.35720486111111,0)" xlink:href="#ab"/><use transform="matrix(0.010850694444444444,0,0,0.010850694444444444,26.48654513888889,0)" xlink:href="#A"/><use transform="matrix(0.010850694444444444,0,0,0.010850694444444444,33.53949652777777,0)" xlink:href="#F"/><use transform="matrix(0.010850694444444444,0,0,0.010850694444444444,46.495225694444436,0)" xlink:href="#L"/></g><g id="s"><use transform="matrix(0.010850694444444444,0,0,0.010850694444444444,0,0)" xlink:href="#z"/><use transform="matrix(0.010850694444444444,0,0,0.010850694444444444,14.2578125,0)" xlink:href="#F"/><use transform="matrix(0.010850694444444444,0,0,0.010850694444444444,27.43055555555556,0)" xlink:href="#B"/><use transform="matrix(0.010850694444444444,0,0,0.010850694444444444,39.90885416666667,0)" xlink:href="#L"/><use transform="matrix(0.010850694444444444,0,0,0.010850694444444444,47.90581597222222,0)" xlink:href="#I"/><use transform="matrix(0.010850694444444444,0,0,0.010850694444444444,60.60112847222222,0)" xlink:href="#aa"/></g><path d="M783 20c-382 0-661-292-661-764 0-473 279-766 661-766 302 0 548 182 601 489h-190c-42-204-217-313-411-313-268 0-476 208-476 590 0 381 209 588 476 588 195 0 369-110 411-313h190c-52 303-296 489-601 489" id="ak"/><g id="t"><use transform="matrix(0.010850694444444444,0,0,0.010850694444444444,0,0)" xlink:href="#ak"/><use transform="matrix(0.010850694444444444,0,0,0.010850694444444444,16.23263888888889,0)" xlink:href="#L"/><use transform="matrix(0.010850694444444444,0,0,0.010850694444444444,24.94574652777778,0)" xlink:href="#M"/><use transform="matrix(0.010850694444444444,0,0,0.010850694444444444,30.32769097222222,0)" xlink:href="#A"/><use transform="matrix(0.010850694444444444,0,0,0.010850694444444444,37.38064236111111,0)" xlink:href="#F"/><use transform="matrix(0.010850694444444444,0,0,0.010850694444444444,50.33637152777778,0)" xlink:href="#L"/><use transform="matrix(0.010850694444444444,0,0,0.010850694444444444,59.04947916666666,0)" xlink:href="#M"/><use transform="matrix(0.010850694444444444,0,0,0.010850694444444444,64.4314236111111,0)" xlink:href="#B"/></g><g id="u"><use transform="matrix(0.010850694444444444,0,0,0.010850694444444444,0,0)" xlink:href="#z"/><use transform="matrix(0.010850694444444444,0,0,0.010850694444444444,14.2578125,0)" xlink:href="#F"/><use transform="matrix(0.010850694444444444,0,0,0.010850694444444444,27.213541666666664,0)" xlink:href="#H"/><use transform="matrix(0.010850694444444444,0,0,0.010850694444444444,32.59548611111111,0)" xlink:href="#F"/><use transform="matrix(0.010850694444444444,0,0,0.010850694444444444,45.55121527777778,0)" xlink:href="#I"/><use transform="matrix(0.010850694444444444,0,0,0.010850694444444444,58.24652777777778,0)" xlink:href="#A"/></g><use transform="matrix(0.010850694444444444,0,0,0.010850694444444444,0,0)" xlink:href="#B" id="v"/><g id="w"><use transform="matrix(0.010850694444444444,0,0,0.010850694444444444,0,0)" xlink:href="#K"/><use transform="matrix(0.010850694444444444,0,0,0.010850694444444444,16.03732638888889,0)" xlink:href="#L"/><use transform="matrix(0.010850694444444444,0,0,0.010850694444444444,24.75043402777778,0)" xlink:href="#M"/><use transform="matrix(0.010850694444444444,0,0,0.010850694444444444,30.13237847222222,0)" xlink:href="#N"/><use transform="matrix(0.010850694444444444,0,0,0.010850694444444444,42.1875,0)" xlink:href="#F"/><use transform="matrix(0.010850694444444444,0,0,0.010850694444444444,55.143229166666664,0)" xlink:href="#L"/></g><path d="M52 0l541-1490h220L1361 0h-200l-149-416H398L254 0H52zm404-582h497c-103-290-145-390-251-756-108 377-145 460-246 756" id="al"/><g id="x"><use transform="matrix(0.010850694444444444,0,0,0.010850694444444444,0,0)" xlink:href="#al"/><use transform="matrix(0.010850694444444444,0,0,0.010850694444444444,15.33203125,0)" xlink:href="#O"/><use transform="matrix(0.010850694444444444,0,0,0.010850694444444444,28.938802083333332,0)" xlink:href="#O"/><use transform="matrix(0.010850694444444444,0,0,0.010850694444444444,42.545572916666664,0)" xlink:href="#H"/><use transform="matrix(0.010850694444444444,0,0,0.010850694444444444,48.03602430555556,0)" xlink:href="#D"/></g><path d="M180 0v-1490h901v168H370v510h643v168H370V0H180" id="am"/><path d="M218-607c0-325 108-727 258-974h175c-155 315-250 682-250 974 0 265 78 531 250 886H476C306-10 218-315 218-607" id="an"/><path d="M96 279C273-86 346-350 346-607c0-292-95-659-250-974h175c150 246 258 650 258 974 0 297-91 602-258 886H96" id="ao"/><g id="y"><use transform="matrix(0.010850694444444444,0,0,0.010850694444444444,0,0)" xlink:href="#am"/><use transform="matrix(0.010850694444444444,0,0,0.010850694444444444,13.118489583333332,0)" xlink:href="#M"/><use transform="matrix(0.010850694444444444,0,0,0.010850694444444444,18.50043402777778,0)" xlink:href="#H"/><use transform="matrix(0.010850694444444444,0,0,0.010850694444444444,24.207899305555554,0)" xlink:href="#A"/><use transform="matrix(0.010850694444444444,0,0,0.010850694444444444,31.26085069444445,0)" xlink:href="#F"/><use transform="matrix(0.010850694444444444,0,0,0.010850694444444444,44.216579861111114,0)" xlink:href="#L"/><use transform="matrix(0.010850694444444444,0,0,0.010850694444444444,52.58246527777778,0)" xlink:href="#an"/><use transform="matrix(0.010850694444444444,0,0,0.010850694444444444,60.68793402777778,0)" xlink:href="#E"/><use transform="matrix(0.010850694444444444,0,0,0.010850694444444444,72.41753472222223,0)" xlink:href="#ao"/></g></defs></g></svg>